<?xml version="1.0" encoding="UTF-8" standalone="no"?>
<!DOCTYPE svg PUBLIC "-//W3C//DTD SVG 1.1//EN"
 "http://www.w3.org/Graphics/SVG/1.1/DTD/svg11.dtd">
<!-- Generated by graphviz version 2.47.1 (20210417.1919)
 -->
<!-- Title: Assumptions.h Pages: 1 -->
<svg width="334pt" height="252pt"
 viewBox="0.00 0.00 334.00 252.00" xmlns="http://www.w3.org/2000/svg" xmlns:xlink="http://www.w3.org/1999/xlink">
<g id="graph0" class="graph" transform="scale(1 1) rotate(0) translate(4 248)">
<title>Assumptions.h</title>
<polygon fill="white" stroke="transparent" points="-4,4 -4,-248 330,-248 330,4 -4,4"/>
<!-- Node1 -->
<g id="node1" class="node">
<title>Node1</title>
<g id="a_node1"><a xlink:title=" ">
<polygon fill="#bfbfbf" stroke="black" points="98,-224.5 98,-243.5 180,-243.5 180,-224.5 98,-224.5"/>
<text text-anchor="middle" x="139" y="-231.5" font-family="Helvetica,sans-Serif" font-size="10.00">Assumptions.h</text>
</a>
</g>
</g>
<!-- Node2 -->
<g id="node2" class="node">
<title>Node2</title>
<g id="a_node2"><a xlink:href="Assumptions_8cpp.html" target="_top" xlink:title=" ">
<polygon fill="white" stroke="black" points="0,-168.5 0,-187.5 92,-187.5 92,-168.5 0,-168.5"/>
<text text-anchor="middle" x="46" y="-175.5" font-family="Helvetica,sans-Serif" font-size="10.00">Assumptions.cpp</text>
</a>
</g>
</g>
<!-- Node1&#45;&gt;Node2 -->
<g id="edge1" class="edge">
<title>Node1&#45;&gt;Node2</title>
<path fill="none" stroke="midnightblue" d="M115.19,-219.18C98.08,-209.24 75.53,-196.15 60.9,-187.65"/>
<polygon fill="midnightblue" stroke="midnightblue" points="113.65,-222.33 124.06,-224.32 117.17,-216.28 113.65,-222.33"/>
</g>
<!-- Node3 -->
<g id="node3" class="node">
<title>Node3</title>
<g id="a_node3"><a xlink:href="Atcf_8h.html" target="_top" xlink:title=" ">
<polygon fill="white" stroke="black" points="148.5,-112.5 148.5,-131.5 191.5,-131.5 191.5,-112.5 148.5,-112.5"/>
<text text-anchor="middle" x="170" y="-119.5" font-family="Helvetica,sans-Serif" font-size="10.00">Atcf.h</text>
</a>
</g>
</g>
<!-- Node1&#45;&gt;Node3 -->
<g id="edge2" class="edge">
<title>Node1&#45;&gt;Node3</title>
<path fill="none" stroke="midnightblue" d="M144.16,-214.67C150.94,-190.62 162.56,-149.39 167.58,-131.59"/>
<polygon fill="midnightblue" stroke="midnightblue" points="140.78,-213.79 141.43,-224.37 147.51,-215.69 140.78,-213.79"/>
</g>
<!-- Node5 -->
<g id="node5" class="node">
<title>Node5</title>
<g id="a_node5"><a xlink:href="Gahm_8h.html" target="_top" xlink:title=" ">
<polygon fill="white" stroke="black" points="94.5,-56.5 94.5,-75.5 145.5,-75.5 145.5,-56.5 94.5,-56.5"/>
<text text-anchor="middle" x="120" y="-63.5" font-family="Helvetica,sans-Serif" font-size="10.00">Gahm.h</text>
</a>
</g>
</g>
<!-- Node1&#45;&gt;Node5 -->
<g id="edge6" class="edge">
<title>Node1&#45;&gt;Node5</title>
<path fill="none" stroke="midnightblue" d="M136.82,-213.93C132.7,-177.92 123.92,-101.23 120.98,-75.57"/>
<polygon fill="midnightblue" stroke="midnightblue" points="133.36,-214.54 137.98,-224.08 140.32,-213.74 133.36,-214.54"/>
</g>
<!-- Node7 -->
<g id="node7" class="node">
<title>Node7</title>
<g id="a_node7"><a xlink:href="HurricanePressure_8h.html" target="_top" xlink:title=" ">
<polygon fill="white" stroke="black" points="186,-168.5 186,-187.5 292,-187.5 292,-168.5 186,-168.5"/>
<text text-anchor="middle" x="239" y="-175.5" font-family="Helvetica,sans-Serif" font-size="10.00">HurricanePressure.h</text>
</a>
</g>
</g>
<!-- Node1&#45;&gt;Node7 -->
<g id="edge7" class="edge">
<title>Node1&#45;&gt;Node7</title>
<path fill="none" stroke="midnightblue" d="M164.09,-219.45C182.55,-209.48 207.1,-196.23 222.97,-187.65"/>
<polygon fill="midnightblue" stroke="midnightblue" points="162.2,-216.49 155.07,-224.32 165.53,-222.65 162.2,-216.49"/>
</g>
<!-- Node4 -->
<g id="node4" class="node">
<title>Node4</title>
<g id="a_node4"><a xlink:href="Atcf_8cpp.html" target="_top" xlink:title=" ">
<polygon fill="white" stroke="black" points="163.5,-56.5 163.5,-75.5 216.5,-75.5 216.5,-56.5 163.5,-56.5"/>
<text text-anchor="middle" x="190" y="-63.5" font-family="Helvetica,sans-Serif" font-size="10.00">Atcf.cpp</text>
</a>
</g>
</g>
<!-- Node3&#45;&gt;Node4 -->
<g id="edge3" class="edge">
<title>Node3&#45;&gt;Node4</title>
<path fill="none" stroke="midnightblue" d="M176.78,-102.69C180.15,-93.59 184.07,-83.01 186.76,-75.75"/>
<polygon fill="midnightblue" stroke="midnightblue" points="173.49,-101.49 173.3,-112.08 180.06,-103.92 173.49,-101.49"/>
</g>
<!-- Node3&#45;&gt;Node5 -->
<g id="edge4" class="edge">
<title>Node3&#45;&gt;Node5</title>
<path fill="none" stroke="midnightblue" d="M154.92,-104.72C146.11,-95.2 135.33,-83.56 128.1,-75.75"/>
<polygon fill="midnightblue" stroke="midnightblue" points="152.38,-107.12 161.74,-112.08 157.52,-102.37 152.38,-107.12"/>
</g>
<!-- Node6 -->
<g id="node6" class="node">
<title>Node6</title>
<g id="a_node6"><a xlink:href="Gahm_8cpp.html" target="_top" xlink:title=" ">
<polygon fill="white" stroke="black" points="89,-0.5 89,-19.5 151,-19.5 151,-0.5 89,-0.5"/>
<text text-anchor="middle" x="120" y="-7.5" font-family="Helvetica,sans-Serif" font-size="10.00">Gahm.cpp</text>
</a>
</g>
</g>
<!-- Node5&#45;&gt;Node6 -->
<g id="edge5" class="edge">
<title>Node5&#45;&gt;Node6</title>
<path fill="none" stroke="midnightblue" d="M120,-45.8C120,-36.91 120,-26.78 120,-19.75"/>
<polygon fill="midnightblue" stroke="midnightblue" points="116.5,-46.08 120,-56.08 123.5,-46.08 116.5,-46.08"/>
</g>
<!-- Node7&#45;&gt;Node3 -->
<g id="edge8" class="edge">
<title>Node7&#45;&gt;Node3</title>
<path fill="none" stroke="midnightblue" d="M219.96,-162.1C207.54,-152.38 191.76,-140.03 181.29,-131.83"/>
<polygon fill="midnightblue" stroke="midnightblue" points="217.88,-164.92 227.91,-168.32 222.2,-159.4 217.88,-164.92"/>
</g>
<!-- Node8 -->
<g id="node8" class="node">
<title>Node8</title>
<g id="a_node8"><a xlink:href="HurricanePressure_8cpp.html" target="_top" xlink:title=" ">
<polygon fill="white" stroke="black" points="210,-112.5 210,-131.5 326,-131.5 326,-112.5 210,-112.5"/>
<text text-anchor="middle" x="268" y="-119.5" font-family="Helvetica,sans-Serif" font-size="10.00">HurricanePressure.cpp</text>
</a>
</g>
</g>
<!-- Node7&#45;&gt;Node8 -->
<g id="edge9" class="edge">
<title>Node7&#45;&gt;Node8</title>
<path fill="none" stroke="midnightblue" d="M248.68,-158.98C253.6,-149.82 259.36,-139.09 263.3,-131.75"/>
<polygon fill="midnightblue" stroke="midnightblue" points="245.44,-157.62 243.79,-168.08 251.6,-160.93 245.44,-157.62"/>
</g>
</g>
</svg>
