<?xml version="1.0" encoding="UTF-8" standalone="no"?>
<!DOCTYPE svg PUBLIC "-//W3C//DTD SVG 1.1//EN"
 "http://www.w3.org/Graphics/SVG/1.1/DTD/svg11.dtd">
<!-- Generated by graphviz version 2.47.1 (20210417.1919)
 -->
<!-- Title: Assumption.h Pages: 1 -->
<svg width="342pt" height="308pt"
 viewBox="0.00 0.00 341.50 308.00" xmlns="http://www.w3.org/2000/svg" xmlns:xlink="http://www.w3.org/1999/xlink">
<g id="graph0" class="graph" transform="scale(1 1) rotate(0) translate(4 304)">
<title>Assumption.h</title>
<polygon fill="white" stroke="transparent" points="-4,4 -4,-304 337.5,-304 337.5,4 -4,4"/>
<!-- Node1 -->
<g id="node1" class="node">
<title>Node1</title>
<g id="a_node1"><a xlink:title=" ">
<polygon fill="#bfbfbf" stroke="black" points="56,-280.5 56,-299.5 133,-299.5 133,-280.5 56,-280.5"/>
<text text-anchor="middle" x="94.5" y="-287.5" font-family="Helvetica,sans-Serif" font-size="10.00">Assumption.h</text>
</a>
</g>
</g>
<!-- Node2 -->
<g id="node2" class="node">
<title>Node2</title>
<g id="a_node2"><a xlink:href="Assumption_8cpp.html" target="_top" xlink:title=" ">
<polygon fill="white" stroke="black" points="0,-224.5 0,-243.5 87,-243.5 87,-224.5 0,-224.5"/>
<text text-anchor="middle" x="43.5" y="-231.5" font-family="Helvetica,sans-Serif" font-size="10.00">Assumption.cpp</text>
</a>
</g>
</g>
<!-- Node1&#45;&gt;Node2 -->
<g id="edge1" class="edge">
<title>Node1&#45;&gt;Node2</title>
<path fill="none" stroke="midnightblue" d="M79.12,-272.72C70.13,-263.2 59.14,-251.56 51.76,-243.75"/>
<polygon fill="midnightblue" stroke="midnightblue" points="76.67,-275.22 86.08,-280.08 81.76,-270.41 76.67,-275.22"/>
</g>
<!-- Node3 -->
<g id="node3" class="node">
<title>Node3</title>
<g id="a_node3"><a xlink:href="Assumptions_8h.html" target="_top" xlink:title=" ">
<polygon fill="white" stroke="black" points="105.5,-224.5 105.5,-243.5 187.5,-243.5 187.5,-224.5 105.5,-224.5"/>
<text text-anchor="middle" x="146.5" y="-231.5" font-family="Helvetica,sans-Serif" font-size="10.00">Assumptions.h</text>
</a>
</g>
</g>
<!-- Node1&#45;&gt;Node3 -->
<g id="edge2" class="edge">
<title>Node1&#45;&gt;Node3</title>
<path fill="none" stroke="midnightblue" d="M110.18,-272.72C119.34,-263.2 130.55,-251.56 138.07,-243.75"/>
<polygon fill="midnightblue" stroke="midnightblue" points="107.5,-270.45 103.09,-280.08 112.54,-275.31 107.5,-270.45"/>
</g>
<!-- Node4 -->
<g id="node4" class="node">
<title>Node4</title>
<g id="a_node4"><a xlink:href="Assumptions_8cpp.html" target="_top" xlink:title=" ">
<polygon fill="white" stroke="black" points="7.5,-168.5 7.5,-187.5 99.5,-187.5 99.5,-168.5 7.5,-168.5"/>
<text text-anchor="middle" x="53.5" y="-175.5" font-family="Helvetica,sans-Serif" font-size="10.00">Assumptions.cpp</text>
</a>
</g>
</g>
<!-- Node3&#45;&gt;Node4 -->
<g id="edge3" class="edge">
<title>Node3&#45;&gt;Node4</title>
<path fill="none" stroke="midnightblue" d="M122.69,-219.18C105.58,-209.24 83.03,-196.15 68.4,-187.65"/>
<polygon fill="midnightblue" stroke="midnightblue" points="121.15,-222.33 131.56,-224.32 124.67,-216.28 121.15,-222.33"/>
</g>
<!-- Node5 -->
<g id="node5" class="node">
<title>Node5</title>
<g id="a_node5"><a xlink:href="Atcf_8h.html" target="_top" xlink:title=" ">
<polygon fill="white" stroke="black" points="156,-112.5 156,-131.5 199,-131.5 199,-112.5 156,-112.5"/>
<text text-anchor="middle" x="177.5" y="-119.5" font-family="Helvetica,sans-Serif" font-size="10.00">Atcf.h</text>
</a>
</g>
</g>
<!-- Node3&#45;&gt;Node5 -->
<g id="edge4" class="edge">
<title>Node3&#45;&gt;Node5</title>
<path fill="none" stroke="midnightblue" d="M151.66,-214.67C158.44,-190.62 170.06,-149.39 175.08,-131.59"/>
<polygon fill="midnightblue" stroke="midnightblue" points="148.28,-213.79 148.93,-224.37 155.01,-215.69 148.28,-213.79"/>
</g>
<!-- Node7 -->
<g id="node7" class="node">
<title>Node7</title>
<g id="a_node7"><a xlink:href="Gahm_8h.html" target="_top" xlink:title=" ">
<polygon fill="white" stroke="black" points="102,-56.5 102,-75.5 153,-75.5 153,-56.5 102,-56.5"/>
<text text-anchor="middle" x="127.5" y="-63.5" font-family="Helvetica,sans-Serif" font-size="10.00">Gahm.h</text>
</a>
</g>
</g>
<!-- Node3&#45;&gt;Node7 -->
<g id="edge8" class="edge">
<title>Node3&#45;&gt;Node7</title>
<path fill="none" stroke="midnightblue" d="M144.32,-213.93C140.2,-177.92 131.42,-101.23 128.48,-75.57"/>
<polygon fill="midnightblue" stroke="midnightblue" points="140.86,-214.54 145.48,-224.08 147.82,-213.74 140.86,-214.54"/>
</g>
<!-- Node9 -->
<g id="node9" class="node">
<title>Node9</title>
<g id="a_node9"><a xlink:href="HurricanePressure_8h.html" target="_top" xlink:title=" ">
<polygon fill="white" stroke="black" points="193.5,-168.5 193.5,-187.5 299.5,-187.5 299.5,-168.5 193.5,-168.5"/>
<text text-anchor="middle" x="246.5" y="-175.5" font-family="Helvetica,sans-Serif" font-size="10.00">HurricanePressure.h</text>
</a>
</g>
</g>
<!-- Node3&#45;&gt;Node9 -->
<g id="edge9" class="edge">
<title>Node3&#45;&gt;Node9</title>
<path fill="none" stroke="midnightblue" d="M171.59,-219.45C190.05,-209.48 214.6,-196.23 230.47,-187.65"/>
<polygon fill="midnightblue" stroke="midnightblue" points="169.7,-216.49 162.57,-224.32 173.03,-222.65 169.7,-216.49"/>
</g>
<!-- Node6 -->
<g id="node6" class="node">
<title>Node6</title>
<g id="a_node6"><a xlink:href="Atcf_8cpp.html" target="_top" xlink:title=" ">
<polygon fill="white" stroke="black" points="171,-56.5 171,-75.5 224,-75.5 224,-56.5 171,-56.5"/>
<text text-anchor="middle" x="197.5" y="-63.5" font-family="Helvetica,sans-Serif" font-size="10.00">Atcf.cpp</text>
</a>
</g>
</g>
<!-- Node5&#45;&gt;Node6 -->
<g id="edge5" class="edge">
<title>Node5&#45;&gt;Node6</title>
<path fill="none" stroke="midnightblue" d="M184.28,-102.69C187.65,-93.59 191.57,-83.01 194.26,-75.75"/>
<polygon fill="midnightblue" stroke="midnightblue" points="180.99,-101.49 180.8,-112.08 187.56,-103.92 180.99,-101.49"/>
</g>
<!-- Node5&#45;&gt;Node7 -->
<g id="edge6" class="edge">
<title>Node5&#45;&gt;Node7</title>
<path fill="none" stroke="midnightblue" d="M162.42,-104.72C153.61,-95.2 142.83,-83.56 135.6,-75.75"/>
<polygon fill="midnightblue" stroke="midnightblue" points="159.88,-107.12 169.24,-112.08 165.02,-102.37 159.88,-107.12"/>
</g>
<!-- Node8 -->
<g id="node8" class="node">
<title>Node8</title>
<g id="a_node8"><a xlink:href="Gahm_8cpp.html" target="_top" xlink:title=" ">
<polygon fill="white" stroke="black" points="96.5,-0.5 96.5,-19.5 158.5,-19.5 158.5,-0.5 96.5,-0.5"/>
<text text-anchor="middle" x="127.5" y="-7.5" font-family="Helvetica,sans-Serif" font-size="10.00">Gahm.cpp</text>
</a>
</g>
</g>
<!-- Node7&#45;&gt;Node8 -->
<g id="edge7" class="edge">
<title>Node7&#45;&gt;Node8</title>
<path fill="none" stroke="midnightblue" d="M127.5,-45.8C127.5,-36.91 127.5,-26.78 127.5,-19.75"/>
<polygon fill="midnightblue" stroke="midnightblue" points="124,-46.08 127.5,-56.08 131,-46.08 124,-46.08"/>
</g>
<!-- Node9&#45;&gt;Node5 -->
<g id="edge10" class="edge">
<title>Node9&#45;&gt;Node5</title>
<path fill="none" stroke="midnightblue" d="M227.46,-162.1C215.04,-152.38 199.26,-140.03 188.79,-131.83"/>
<polygon fill="midnightblue" stroke="midnightblue" points="225.38,-164.92 235.41,-168.32 229.7,-159.4 225.38,-164.92"/>
</g>
<!-- Node10 -->
<g id="node10" class="node">
<title>Node10</title>
<g id="a_node10"><a xlink:href="HurricanePressure_8cpp.html" target="_top" xlink:title=" ">
<polygon fill="white" stroke="black" points="217.5,-112.5 217.5,-131.5 333.5,-131.5 333.5,-112.5 217.5,-112.5"/>
<text text-anchor="middle" x="275.5" y="-119.5" font-family="Helvetica,sans-Serif" font-size="10.00">HurricanePressure.cpp</text>
</a>
</g>
</g>
<!-- Node9&#45;&gt;Node10 -->
<g id="edge11" class="edge">
<title>Node9&#45;&gt;Node10</title>
<path fill="none" stroke="midnightblue" d="M256.18,-158.98C261.1,-149.82 266.86,-139.09 270.8,-131.75"/>
<polygon fill="midnightblue" stroke="midnightblue" points="252.94,-157.62 251.29,-168.08 259.1,-160.93 252.94,-157.62"/>
</g>
</g>
</svg>
