<?xml version="1.0" encoding="UTF-8" standalone="no"?>
<!DOCTYPE svg PUBLIC "-//W3C//DTD SVG 1.1//EN"
 "http://www.w3.org/Graphics/SVG/1.1/DTD/svg11.dtd">
<!-- Generated by graphviz version 2.47.1 (20210417.1919)
 -->
<!-- Title: AtcfLine.h Pages: 1 -->
<svg width="569pt" height="140pt"
 viewBox="0.00 0.00 569.00 140.00" xmlns="http://www.w3.org/2000/svg" xmlns:xlink="http://www.w3.org/1999/xlink">
<g id="graph0" class="graph" transform="scale(1 1) rotate(0) translate(4 136)">
<title>AtcfLine.h</title>
<polygon fill="white" stroke="transparent" points="-4,4 -4,-136 565,-136 565,4 -4,4"/>
<!-- Node1 -->
<g id="node1" class="node">
<title>Node1</title>
<g id="a_node1"><a xlink:title=" ">
<polygon fill="#bfbfbf" stroke="black" points="295.5,-112.5 295.5,-131.5 356.5,-131.5 356.5,-112.5 295.5,-112.5"/>
<text text-anchor="middle" x="326" y="-119.5" font-family="Helvetica,sans-Serif" font-size="10.00">AtcfLine.h</text>
</a>
</g>
</g>
<!-- Node2 -->
<g id="node2" class="node">
<title>Node2</title>
<g id="a_node2"><a xlink:title=" ">
<polygon fill="white" stroke="#bfbfbf" points="0,-0.5 0,-19.5 54,-19.5 54,-0.5 0,-0.5"/>
<text text-anchor="middle" x="27" y="-7.5" font-family="Helvetica,sans-Serif" font-size="10.00">iostream</text>
</a>
</g>
</g>
<!-- Node1&#45;&gt;Node2 -->
<g id="edge1" class="edge">
<title>Node1&#45;&gt;Node2</title>
<path fill="none" stroke="midnightblue" d="M302.54,-112.37C249.59,-92.89 120.72,-45.48 59.86,-23.09"/>
<polygon fill="midnightblue" stroke="midnightblue" points="60.95,-19.76 50.35,-19.59 58.53,-26.33 60.95,-19.76"/>
</g>
<!-- Node3 -->
<g id="node3" class="node">
<title>Node3</title>
<g id="a_node3"><a xlink:title=" ">
<polygon fill="white" stroke="#bfbfbf" points="331.5,-0.5 331.5,-19.5 372.5,-19.5 372.5,-0.5 331.5,-0.5"/>
<text text-anchor="middle" x="352" y="-7.5" font-family="Helvetica,sans-Serif" font-size="10.00">string</text>
</a>
</g>
</g>
<!-- Node1&#45;&gt;Node3 -->
<g id="edge2" class="edge">
<title>Node1&#45;&gt;Node3</title>
<path fill="none" stroke="midnightblue" d="M328.04,-112.37C332.24,-94.62 341.92,-53.67 347.6,-29.6"/>
<polygon fill="midnightblue" stroke="midnightblue" points="351.08,-30.13 349.97,-19.59 344.26,-28.52 351.08,-30.13"/>
</g>
<!-- Node4 -->
<g id="node4" class="node">
<title>Node4</title>
<g id="a_node4"><a xlink:title=" ">
<polygon fill="white" stroke="#bfbfbf" points="284,-56.5 284,-75.5 322,-75.5 322,-56.5 284,-56.5"/>
<text text-anchor="middle" x="303" y="-63.5" font-family="Helvetica,sans-Serif" font-size="10.00">tuple</text>
</a>
</g>
</g>
<!-- Node1&#45;&gt;Node4 -->
<g id="edge3" class="edge">
<title>Node1&#45;&gt;Node4</title>
<path fill="none" stroke="midnightblue" d="M322.2,-112.08C319.09,-104.77 314.58,-94.18 310.71,-85.1"/>
<polygon fill="midnightblue" stroke="midnightblue" points="313.87,-83.58 306.73,-75.75 307.43,-86.32 313.87,-83.58"/>
</g>
<!-- Node5 -->
<g id="node5" class="node">
<title>Node5</title>
<g id="a_node5"><a xlink:title=" ">
<polygon fill="white" stroke="#bfbfbf" points="391,-0.5 391,-19.5 435,-19.5 435,-0.5 391,-0.5"/>
<text text-anchor="middle" x="413" y="-7.5" font-family="Helvetica,sans-Serif" font-size="10.00">vector</text>
</a>
</g>
</g>
<!-- Node1&#45;&gt;Node5 -->
<g id="edge4" class="edge">
<title>Node1&#45;&gt;Node5</title>
<path fill="none" stroke="midnightblue" d="M332.83,-112.37C347.25,-94.14 381.03,-51.43 399.81,-27.68"/>
<polygon fill="midnightblue" stroke="midnightblue" points="402.75,-29.61 406.2,-19.59 397.26,-25.26 402.75,-29.61"/>
</g>
<!-- Node6 -->
<g id="node6" class="node">
<title>Node6</title>
<g id="a_node6"><a xlink:href="Date_8h.html" target="_top" xlink:title=" ">
<polygon fill="white" stroke="black" points="217,-56.5 217,-75.5 263,-75.5 263,-56.5 217,-56.5"/>
<text text-anchor="middle" x="240" y="-63.5" font-family="Helvetica,sans-Serif" font-size="10.00">Date.h</text>
</a>
</g>
</g>
<!-- Node1&#45;&gt;Node6 -->
<g id="edge5" class="edge">
<title>Node1&#45;&gt;Node6</title>
<path fill="none" stroke="midnightblue" d="M312.18,-112.32C298.77,-103.9 278.18,-90.97 262.41,-81.07"/>
<polygon fill="midnightblue" stroke="midnightblue" points="264.11,-78.01 253.78,-75.65 260.39,-83.94 264.11,-78.01"/>
</g>
<!-- Node11 -->
<g id="node11" class="node">
<title>Node11</title>
<g id="a_node11"><a xlink:href="Isotach_8h.html" target="_top" xlink:title=" ">
<polygon fill="white" stroke="black" points="416.5,-56.5 416.5,-75.5 473.5,-75.5 473.5,-56.5 416.5,-56.5"/>
<text text-anchor="middle" x="445" y="-63.5" font-family="Helvetica,sans-Serif" font-size="10.00">Isotach.h</text>
</a>
</g>
</g>
<!-- Node1&#45;&gt;Node11 -->
<g id="edge13" class="edge">
<title>Node1&#45;&gt;Node11</title>
<path fill="none" stroke="midnightblue" d="M344.86,-112.44C364.27,-103.64 394.73,-89.81 416.96,-79.72"/>
<polygon fill="midnightblue" stroke="midnightblue" points="418.57,-82.84 426.23,-75.52 415.68,-76.46 418.57,-82.84"/>
</g>
<!-- Node6&#45;&gt;Node2 -->
<g id="edge8" class="edge">
<title>Node6&#45;&gt;Node2</title>
<path fill="none" stroke="midnightblue" d="M216.8,-59.12C179.99,-49.79 107.88,-31.5 63.91,-20.36"/>
<polygon fill="midnightblue" stroke="midnightblue" points="64.73,-16.96 54.18,-17.89 63.01,-23.74 64.73,-16.96"/>
</g>
<!-- Node6&#45;&gt;Node3 -->
<g id="edge10" class="edge">
<title>Node6&#45;&gt;Node3</title>
<path fill="none" stroke="midnightblue" d="M257.99,-56.32C276.04,-47.62 304.05,-34.12 324.8,-24.11"/>
<polygon fill="midnightblue" stroke="midnightblue" points="326.56,-27.15 334.05,-19.65 323.52,-20.84 326.56,-27.15"/>
</g>
<!-- Node6&#45;&gt;Node5 -->
<g id="edge12" class="edge">
<title>Node6&#45;&gt;Node5</title>
<path fill="none" stroke="midnightblue" d="M263.33,-57.72C293.67,-48.25 346.81,-31.66 380.93,-21.01"/>
<polygon fill="midnightblue" stroke="midnightblue" points="382.35,-24.23 390.86,-17.91 380.27,-17.55 382.35,-24.23"/>
</g>
<!-- Node7 -->
<g id="node7" class="node">
<title>Node7</title>
<g id="a_node7"><a xlink:title=" ">
<polygon fill="white" stroke="#bfbfbf" points="152,-0.5 152,-19.5 198,-19.5 198,-0.5 152,-0.5"/>
<text text-anchor="middle" x="175" y="-7.5" font-family="Helvetica,sans-Serif" font-size="10.00">chrono</text>
</a>
</g>
</g>
<!-- Node6&#45;&gt;Node7 -->
<g id="edge6" class="edge">
<title>Node6&#45;&gt;Node7</title>
<path fill="none" stroke="midnightblue" d="M229.56,-56.32C219.85,-48.26 205.18,-36.08 193.5,-26.37"/>
<polygon fill="midnightblue" stroke="midnightblue" points="195.56,-23.53 185.63,-19.83 191.09,-28.92 195.56,-23.53"/>
</g>
<!-- Node8 -->
<g id="node8" class="node">
<title>Node8</title>
<g id="a_node8"><a xlink:title=" ">
<polygon fill="white" stroke="#bfbfbf" points="216,-0.5 216,-19.5 260,-19.5 260,-0.5 216,-0.5"/>
<text text-anchor="middle" x="238" y="-7.5" font-family="Helvetica,sans-Serif" font-size="10.00">cmath</text>
</a>
</g>
</g>
<!-- Node6&#45;&gt;Node8 -->
<g id="edge7" class="edge">
<title>Node6&#45;&gt;Node8</title>
<path fill="none" stroke="midnightblue" d="M239.67,-56.08C239.41,-49.01 239.03,-38.86 238.7,-29.99"/>
<polygon fill="midnightblue" stroke="midnightblue" points="242.19,-29.61 238.32,-19.75 235.2,-29.87 242.19,-29.61"/>
</g>
<!-- Node9 -->
<g id="node9" class="node">
<title>Node9</title>
<g id="a_node9"><a xlink:title=" ">
<polygon fill="white" stroke="#bfbfbf" points="278.5,-0.5 278.5,-19.5 313.5,-19.5 313.5,-0.5 278.5,-0.5"/>
<text text-anchor="middle" x="296" y="-7.5" font-family="Helvetica,sans-Serif" font-size="10.00">ratio</text>
</a>
</g>
</g>
<!-- Node6&#45;&gt;Node9 -->
<g id="edge9" class="edge">
<title>Node6&#45;&gt;Node9</title>
<path fill="none" stroke="midnightblue" d="M249,-56.32C257.19,-48.42 269.51,-36.55 279.47,-26.94"/>
<polygon fill="midnightblue" stroke="midnightblue" points="282.07,-29.29 286.84,-19.83 277.21,-24.26 282.07,-29.29"/>
</g>
<!-- Node10 -->
<g id="node10" class="node">
<title>Node10</title>
<g id="a_node10"><a xlink:title=" ">
<polygon fill="white" stroke="#bfbfbf" points="72,-0.5 72,-19.5 134,-19.5 134,-0.5 72,-0.5"/>
<text text-anchor="middle" x="103" y="-7.5" font-family="Helvetica,sans-Serif" font-size="10.00">type_traits</text>
</a>
</g>
</g>
<!-- Node6&#45;&gt;Node10 -->
<g id="edge11" class="edge">
<title>Node6&#45;&gt;Node10</title>
<path fill="none" stroke="midnightblue" d="M218.29,-56.44C195.65,-47.52 159.93,-33.44 134.25,-23.32"/>
<polygon fill="midnightblue" stroke="midnightblue" points="135.19,-19.93 124.61,-19.52 132.63,-26.44 135.19,-19.93"/>
</g>
<!-- Node11&#45;&gt;Node3 -->
<g id="edge16" class="edge">
<title>Node11&#45;&gt;Node3</title>
<path fill="none" stroke="midnightblue" d="M430.06,-56.32C415.41,-47.82 392.87,-34.73 375.76,-24.8"/>
<polygon fill="midnightblue" stroke="midnightblue" points="377.31,-21.65 366.9,-19.65 373.8,-27.7 377.31,-21.65"/>
</g>
<!-- Node11&#45;&gt;Node5 -->
<g id="edge17" class="edge">
<title>Node11&#45;&gt;Node5</title>
<path fill="none" stroke="midnightblue" d="M439.72,-56.08C435.29,-48.61 428.84,-37.72 423.38,-28.52"/>
<polygon fill="midnightblue" stroke="midnightblue" points="426.29,-26.57 418.19,-19.75 420.27,-30.14 426.29,-26.57"/>
</g>
<!-- Node12 -->
<g id="node12" class="node">
<title>Node12</title>
<g id="a_node12"><a xlink:title=" ">
<polygon fill="white" stroke="#bfbfbf" points="523,-0.5 523,-19.5 561,-19.5 561,-0.5 523,-0.5"/>
<text text-anchor="middle" x="542" y="-7.5" font-family="Helvetica,sans-Serif" font-size="10.00">array</text>
</a>
</g>
</g>
<!-- Node11&#45;&gt;Node12 -->
<g id="edge14" class="edge">
<title>Node11&#45;&gt;Node12</title>
<path fill="none" stroke="midnightblue" d="M460.58,-56.32C476,-47.74 499.81,-34.49 517.71,-24.52"/>
<polygon fill="midnightblue" stroke="midnightblue" points="519.42,-27.58 526.45,-19.65 516.01,-21.46 519.42,-27.58"/>
</g>
<!-- Node13 -->
<g id="node13" class="node">
<title>Node13</title>
<g id="a_node13"><a xlink:title=" ">
<polygon fill="white" stroke="#bfbfbf" points="453,-0.5 453,-19.5 505,-19.5 505,-0.5 453,-0.5"/>
<text text-anchor="middle" x="479" y="-7.5" font-family="Helvetica,sans-Serif" font-size="10.00">ostream</text>
</a>
</g>
</g>
<!-- Node11&#45;&gt;Node13 -->
<g id="edge15" class="edge">
<title>Node11&#45;&gt;Node13</title>
<path fill="none" stroke="midnightblue" d="M450.61,-56.08C455.37,-48.53 462.32,-37.49 468.15,-28.23"/>
<polygon fill="midnightblue" stroke="midnightblue" points="471.12,-30.08 473.49,-19.75 465.2,-26.35 471.12,-30.08"/>
</g>
</g>
</svg>
