<?xml version="1.0" encoding="UTF-8" standalone="no"?>
<!DOCTYPE svg PUBLIC "-//W3C//DTD SVG 1.1//EN"
 "http://www.w3.org/Graphics/SVG/1.1/DTD/svg11.dtd">
<!-- Generated by graphviz version 2.47.1 (20210417.1919)
 -->
<!-- Title: AtcfLine.h Pages: 1 -->
<svg width="180pt" height="196pt"
 viewBox="0.00 0.00 180.00 196.00" xmlns="http://www.w3.org/2000/svg" xmlns:xlink="http://www.w3.org/1999/xlink">
<g id="graph0" class="graph" transform="scale(1 1) rotate(0) translate(4 192)">
<title>AtcfLine.h</title>
<polygon fill="white" stroke="transparent" points="-4,4 -4,-192 176,-192 176,4 -4,4"/>
<!-- Node1 -->
<g id="node1" class="node">
<title>Node1</title>
<g id="a_node1"><a xlink:title=" ">
<polygon fill="#bfbfbf" stroke="black" points="68,-168.5 68,-187.5 129,-187.5 129,-168.5 68,-168.5"/>
<text text-anchor="middle" x="98.5" y="-175.5" font-family="Helvetica,sans-Serif" font-size="10.00">AtcfLine.h</text>
</a>
</g>
</g>
<!-- Node2 -->
<g id="node2" class="node">
<title>Node2</title>
<g id="a_node2"><a xlink:href="Atcf_8h.html" target="_top" xlink:title=" ">
<polygon fill="white" stroke="black" points="40,-112.5 40,-131.5 83,-131.5 83,-112.5 40,-112.5"/>
<text text-anchor="middle" x="61.5" y="-119.5" font-family="Helvetica,sans-Serif" font-size="10.00">Atcf.h</text>
</a>
</g>
</g>
<!-- Node1&#45;&gt;Node2 -->
<g id="edge1" class="edge">
<title>Node1&#45;&gt;Node2</title>
<path fill="none" stroke="midnightblue" d="M86.55,-159.57C80.19,-150.27 72.63,-139.25 67.5,-131.75"/>
<polygon fill="midnightblue" stroke="midnightblue" points="83.85,-161.81 92.39,-168.08 89.63,-157.86 83.85,-161.81"/>
</g>
<!-- Node6 -->
<g id="node6" class="node">
<title>Node6</title>
<g id="a_node6"><a xlink:href="AtcfLine_8cpp.html" target="_top" xlink:title=" ">
<polygon fill="white" stroke="black" points="101,-112.5 101,-131.5 172,-131.5 172,-112.5 101,-112.5"/>
<text text-anchor="middle" x="136.5" y="-119.5" font-family="Helvetica,sans-Serif" font-size="10.00">AtcfLine.cpp</text>
</a>
</g>
</g>
<!-- Node1&#45;&gt;Node6 -->
<g id="edge5" class="edge">
<title>Node1&#45;&gt;Node6</title>
<path fill="none" stroke="midnightblue" d="M110.56,-159.86C117.14,-150.5 125.01,-139.33 130.34,-131.75"/>
<polygon fill="midnightblue" stroke="midnightblue" points="107.67,-157.89 104.77,-168.08 113.39,-161.92 107.67,-157.89"/>
</g>
<!-- Node3 -->
<g id="node3" class="node">
<title>Node3</title>
<g id="a_node3"><a xlink:href="Atcf_8cpp.html" target="_top" xlink:title=" ">
<polygon fill="white" stroke="black" points="0,-56.5 0,-75.5 53,-75.5 53,-56.5 0,-56.5"/>
<text text-anchor="middle" x="26.5" y="-63.5" font-family="Helvetica,sans-Serif" font-size="10.00">Atcf.cpp</text>
</a>
</g>
</g>
<!-- Node2&#45;&gt;Node3 -->
<g id="edge2" class="edge">
<title>Node2&#45;&gt;Node3</title>
<path fill="none" stroke="midnightblue" d="M50.2,-103.57C44.18,-94.27 37.03,-83.25 32.17,-75.75"/>
<polygon fill="midnightblue" stroke="midnightblue" points="47.34,-105.6 55.72,-112.08 53.22,-101.79 47.34,-105.6"/>
</g>
<!-- Node4 -->
<g id="node4" class="node">
<title>Node4</title>
<g id="a_node4"><a xlink:href="Gahm_8h.html" target="_top" xlink:title=" ">
<polygon fill="white" stroke="black" points="71,-56.5 71,-75.5 122,-75.5 122,-56.5 71,-56.5"/>
<text text-anchor="middle" x="96.5" y="-63.5" font-family="Helvetica,sans-Serif" font-size="10.00">Gahm.h</text>
</a>
</g>
</g>
<!-- Node2&#45;&gt;Node4 -->
<g id="edge3" class="edge">
<title>Node2&#45;&gt;Node4</title>
<path fill="none" stroke="midnightblue" d="M72.8,-103.57C78.82,-94.27 85.97,-83.25 90.83,-75.75"/>
<polygon fill="midnightblue" stroke="midnightblue" points="69.78,-101.79 67.28,-112.08 75.66,-105.6 69.78,-101.79"/>
</g>
<!-- Node5 -->
<g id="node5" class="node">
<title>Node5</title>
<g id="a_node5"><a xlink:href="Gahm_8cpp.html" target="_top" xlink:title=" ">
<polygon fill="white" stroke="black" points="65.5,-0.5 65.5,-19.5 127.5,-19.5 127.5,-0.5 65.5,-0.5"/>
<text text-anchor="middle" x="96.5" y="-7.5" font-family="Helvetica,sans-Serif" font-size="10.00">Gahm.cpp</text>
</a>
</g>
</g>
<!-- Node4&#45;&gt;Node5 -->
<g id="edge4" class="edge">
<title>Node4&#45;&gt;Node5</title>
<path fill="none" stroke="midnightblue" d="M96.5,-45.8C96.5,-36.91 96.5,-26.78 96.5,-19.75"/>
<polygon fill="midnightblue" stroke="midnightblue" points="93,-46.08 96.5,-56.08 100,-46.08 93,-46.08"/>
</g>
</g>
</svg>
