<?xml version="1.0" encoding="UTF-8" standalone="no"?>
<!DOCTYPE svg PUBLIC "-//W3C//DTD SVG 1.1//EN"
 "http://www.w3.org/Graphics/SVG/1.1/DTD/svg11.dtd">
<!-- Generated by graphviz version 2.47.1 (20210417.1919)
 -->
<!-- Title: Atcf.cpp Pages: 1 -->
<svg width="844pt" height="308pt"
 viewBox="0.00 0.00 843.50 308.00" xmlns="http://www.w3.org/2000/svg" xmlns:xlink="http://www.w3.org/1999/xlink">
<g id="graph0" class="graph" transform="scale(1 1) rotate(0) translate(4 304)">
<title>Atcf.cpp</title>
<polygon fill="white" stroke="transparent" points="-4,4 -4,-304 839.5,-304 839.5,4 -4,4"/>
<!-- Node1 -->
<g id="node1" class="node">
<title>Node1</title>
<g id="a_node1"><a xlink:title=" ">
<polygon fill="#bfbfbf" stroke="black" points="403,-280.5 403,-299.5 456,-299.5 456,-280.5 403,-280.5"/>
<text text-anchor="middle" x="429.5" y="-287.5" font-family="Helvetica,sans-Serif" font-size="10.00">Atcf.cpp</text>
</a>
</g>
</g>
<!-- Node2 -->
<g id="node2" class="node">
<title>Node2</title>
<g id="a_node2"><a xlink:href="Atcf_8h.html" target="_top" xlink:title=" ">
<polygon fill="white" stroke="black" points="532,-224.5 532,-243.5 575,-243.5 575,-224.5 532,-224.5"/>
<text text-anchor="middle" x="553.5" y="-231.5" font-family="Helvetica,sans-Serif" font-size="10.00">Atcf.h</text>
</a>
</g>
</g>
<!-- Node1&#45;&gt;Node2 -->
<g id="edge1" class="edge">
<title>Node1&#45;&gt;Node2</title>
<path fill="none" stroke="midnightblue" d="M449.15,-280.44C469.46,-271.6 501.4,-257.69 524.6,-247.59"/>
<polygon fill="midnightblue" stroke="midnightblue" points="526.17,-250.72 533.94,-243.52 523.38,-244.3 526.17,-250.72"/>
</g>
<!-- Node19 -->
<g id="node19" class="node">
<title>Node19</title>
<g id="a_node19"><a xlink:title=" ">
<polygon fill="white" stroke="#bfbfbf" points="261.5,-224.5 261.5,-243.5 317.5,-243.5 317.5,-224.5 261.5,-224.5"/>
<text text-anchor="middle" x="289.5" y="-231.5" font-family="Helvetica,sans-Serif" font-size="10.00">algorithm</text>
</a>
</g>
</g>
<!-- Node1&#45;&gt;Node19 -->
<g id="edge28" class="edge">
<title>Node1&#45;&gt;Node19</title>
<path fill="none" stroke="midnightblue" d="M407.32,-280.44C384.07,-271.48 347.35,-257.31 321.08,-247.18"/>
<polygon fill="midnightblue" stroke="midnightblue" points="322.17,-243.85 311.58,-243.52 319.65,-250.38 322.17,-243.85"/>
</g>
<!-- Node20 -->
<g id="node20" class="node">
<title>Node20</title>
<g id="a_node20"><a xlink:title=" ">
<polygon fill="white" stroke="#bfbfbf" points="335.5,-224.5 335.5,-243.5 385.5,-243.5 385.5,-224.5 335.5,-224.5"/>
<text text-anchor="middle" x="360.5" y="-231.5" font-family="Helvetica,sans-Serif" font-size="10.00">fstream</text>
</a>
</g>
</g>
<!-- Node1&#45;&gt;Node20 -->
<g id="edge29" class="edge">
<title>Node1&#45;&gt;Node20</title>
<path fill="none" stroke="midnightblue" d="M418.41,-280.32C408.01,-272.18 392.24,-259.84 379.78,-250.09"/>
<polygon fill="midnightblue" stroke="midnightblue" points="381.82,-247.24 371.79,-243.83 377.51,-252.75 381.82,-247.24"/>
</g>
<!-- Node21 -->
<g id="node21" class="node">
<title>Node21</title>
<g id="a_node21"><a xlink:title=" ">
<polygon fill="white" stroke="#bfbfbf" points="404,-224.5 404,-243.5 455,-243.5 455,-224.5 404,-224.5"/>
<text text-anchor="middle" x="429.5" y="-231.5" font-family="Helvetica,sans-Serif" font-size="10.00">numeric</text>
</a>
</g>
</g>
<!-- Node1&#45;&gt;Node21 -->
<g id="edge30" class="edge">
<title>Node1&#45;&gt;Node21</title>
<path fill="none" stroke="midnightblue" d="M429.5,-280.08C429.5,-273.01 429.5,-262.86 429.5,-253.99"/>
<polygon fill="midnightblue" stroke="midnightblue" points="433,-253.75 429.5,-243.75 426,-253.75 433,-253.75"/>
</g>
<!-- Node22 -->
<g id="node22" class="node">
<title>Node22</title>
<g id="a_node22"><a xlink:title=" ">
<polygon fill="white" stroke="#bfbfbf" points="473.5,-224.5 473.5,-243.5 513.5,-243.5 513.5,-224.5 473.5,-224.5"/>
<text text-anchor="middle" x="493.5" y="-231.5" font-family="Helvetica,sans-Serif" font-size="10.00">utility</text>
</a>
</g>
</g>
<!-- Node1&#45;&gt;Node22 -->
<g id="edge31" class="edge">
<title>Node1&#45;&gt;Node22</title>
<path fill="none" stroke="midnightblue" d="M439.78,-280.32C449.34,-272.26 463.78,-260.08 475.28,-250.37"/>
<polygon fill="midnightblue" stroke="midnightblue" points="477.64,-252.96 483.03,-243.83 473.13,-247.61 477.64,-252.96"/>
</g>
<!-- Node23 -->
<g id="node23" class="node">
<title>Node23</title>
<g id="a_node23"><a xlink:href="Logging_8h.html" target="_top" xlink:title=" ">
<polygon fill="white" stroke="black" points="0,-112.5 0,-131.5 59,-131.5 59,-112.5 0,-112.5"/>
<text text-anchor="middle" x="29.5" y="-119.5" font-family="Helvetica,sans-Serif" font-size="10.00">Logging.h</text>
</a>
</g>
</g>
<!-- Node1&#45;&gt;Node23 -->
<g id="edge32" class="edge">
<title>Node1&#45;&gt;Node23</title>
<path fill="none" stroke="midnightblue" d="M402.56,-287.75C339.08,-283.56 177.63,-265.45 73.5,-188 56.98,-175.71 44.63,-155.28 37.28,-140.6"/>
<polygon fill="midnightblue" stroke="midnightblue" points="40.44,-139.08 33.01,-131.53 34.1,-142.07 40.44,-139.08"/>
</g>
<!-- Node24 -->
<g id="node24" class="node">
<title>Node24</title>
<g id="a_node24"><a xlink:href="Physical_8h.html" target="_top" xlink:title=" ">
<polygon fill="white" stroke="black" points="743.5,-168.5 743.5,-187.5 805.5,-187.5 805.5,-168.5 743.5,-168.5"/>
<text text-anchor="middle" x="774.5" y="-175.5" font-family="Helvetica,sans-Serif" font-size="10.00">Physical.h</text>
</a>
</g>
</g>
<!-- Node1&#45;&gt;Node24 -->
<g id="edge35" class="edge">
<title>Node1&#45;&gt;Node24</title>
<path fill="none" stroke="midnightblue" d="M456.04,-281.63C486.81,-272.99 539.01,-258.06 583.5,-244 638.99,-226.46 702.91,-204.31 740.94,-190.92"/>
<polygon fill="midnightblue" stroke="midnightblue" points="742.22,-194.18 750.49,-187.55 739.9,-187.57 742.22,-194.18"/>
</g>
<!-- Node3 -->
<g id="node3" class="node">
<title>Node3</title>
<g id="a_node3"><a xlink:title=" ">
<polygon fill="white" stroke="#bfbfbf" points="191,-0.5 191,-19.5 232,-19.5 232,-0.5 191,-0.5"/>
<text text-anchor="middle" x="211.5" y="-7.5" font-family="Helvetica,sans-Serif" font-size="10.00">string</text>
</a>
</g>
</g>
<!-- Node2&#45;&gt;Node3 -->
<g id="edge2" class="edge">
<title>Node2&#45;&gt;Node3</title>
<path fill="none" stroke="midnightblue" d="M531.85,-226.6C528.72,-225.71 525.53,-224.82 522.5,-224 360.17,-180.11 301.05,-216.22 155.5,-132 119.64,-111.25 78.4,-90.4 101.5,-56 118.99,-29.95 154.51,-18.97 180.47,-14.35"/>
<polygon fill="midnightblue" stroke="midnightblue" points="181.24,-17.77 190.58,-12.78 180.16,-10.85 181.24,-17.77"/>
</g>
<!-- Node4 -->
<g id="node4" class="node">
<title>Node4</title>
<g id="a_node4"><a xlink:title=" ">
<polygon fill="white" stroke="#bfbfbf" points="620.5,-56.5 620.5,-75.5 664.5,-75.5 664.5,-56.5 620.5,-56.5"/>
<text text-anchor="middle" x="642.5" y="-63.5" font-family="Helvetica,sans-Serif" font-size="10.00">vector</text>
</a>
</g>
</g>
<!-- Node2&#45;&gt;Node4 -->
<g id="edge3" class="edge">
<title>Node2&#45;&gt;Node4</title>
<path fill="none" stroke="midnightblue" d="M554.61,-224.37C557.65,-203.5 567.55,-149.22 592.5,-112 600.24,-100.45 611.61,-89.9 621.54,-81.93"/>
<polygon fill="midnightblue" stroke="midnightblue" points="623.97,-84.48 629.78,-75.62 619.71,-78.92 623.97,-84.48"/>
</g>
<!-- Node5 -->
<g id="node5" class="node">
<title>Node5</title>
<g id="a_node5"><a xlink:href="Assumptions_8h.html" target="_top" xlink:title=" ">
<polygon fill="white" stroke="black" points="601.5,-112.5 601.5,-131.5 683.5,-131.5 683.5,-112.5 601.5,-112.5"/>
<text text-anchor="middle" x="642.5" y="-119.5" font-family="Helvetica,sans-Serif" font-size="10.00">Assumptions.h</text>
</a>
</g>
</g>
<!-- Node2&#45;&gt;Node5 -->
<g id="edge4" class="edge">
<title>Node2&#45;&gt;Node5</title>
<path fill="none" stroke="midnightblue" d="M575.15,-233.47C607.69,-232.86 668.4,-226.3 696.5,-188 709.96,-169.66 687.3,-149.69 667.34,-136.79"/>
<polygon fill="midnightblue" stroke="midnightblue" points="669.14,-133.79 658.79,-131.56 665.49,-139.76 669.14,-133.79"/>
</g>
<!-- Node7 -->
<g id="node7" class="node">
<title>Node7</title>
<g id="a_node7"><a xlink:href="AtcfLine_8h.html" target="_top" xlink:title=" ">
<polygon fill="white" stroke="black" points="436,-168.5 436,-187.5 497,-187.5 497,-168.5 436,-168.5"/>
<text text-anchor="middle" x="466.5" y="-175.5" font-family="Helvetica,sans-Serif" font-size="10.00">AtcfLine.h</text>
</a>
</g>
</g>
<!-- Node2&#45;&gt;Node7 -->
<g id="edge8" class="edge">
<title>Node2&#45;&gt;Node7</title>
<path fill="none" stroke="midnightblue" d="M539.52,-224.32C525.95,-215.9 505.12,-202.97 489.18,-193.07"/>
<polygon fill="midnightblue" stroke="midnightblue" points="490.79,-189.95 480.44,-187.65 487.09,-195.9 490.79,-189.95"/>
</g>
<!-- Node18 -->
<g id="node18" class="node">
<title>Node18</title>
<g id="a_node18"><a xlink:href="HurricanePressure_8h.html" target="_top" xlink:title=" ">
<polygon fill="white" stroke="black" points="581.5,-168.5 581.5,-187.5 687.5,-187.5 687.5,-168.5 581.5,-168.5"/>
<text text-anchor="middle" x="634.5" y="-175.5" font-family="Helvetica,sans-Serif" font-size="10.00">HurricanePressure.h</text>
</a>
</g>
</g>
<!-- Node2&#45;&gt;Node18 -->
<g id="edge26" class="edge">
<title>Node2&#45;&gt;Node18</title>
<path fill="none" stroke="midnightblue" d="M566.51,-224.32C579.03,-215.98 598.18,-203.21 612.97,-193.35"/>
<polygon fill="midnightblue" stroke="midnightblue" points="615.14,-196.11 621.52,-187.65 611.26,-190.29 615.14,-196.11"/>
</g>
<!-- Node5&#45;&gt;Node4 -->
<g id="edge5" class="edge">
<title>Node5&#45;&gt;Node4</title>
<path fill="none" stroke="midnightblue" d="M642.5,-112.08C642.5,-105.01 642.5,-94.86 642.5,-85.99"/>
<polygon fill="midnightblue" stroke="midnightblue" points="646,-85.75 642.5,-75.75 639,-85.75 646,-85.75"/>
</g>
<!-- Node6 -->
<g id="node6" class="node">
<title>Node6</title>
<g id="a_node6"><a xlink:href="Assumption_8h.html" target="_top" xlink:title=" ">
<polygon fill="white" stroke="black" points="745,-56.5 745,-75.5 822,-75.5 822,-56.5 745,-56.5"/>
<text text-anchor="middle" x="783.5" y="-63.5" font-family="Helvetica,sans-Serif" font-size="10.00">Assumption.h</text>
</a>
</g>
</g>
<!-- Node5&#45;&gt;Node6 -->
<g id="edge6" class="edge">
<title>Node5&#45;&gt;Node6</title>
<path fill="none" stroke="midnightblue" d="M664.84,-112.44C688.25,-103.48 725.24,-89.31 751.69,-79.18"/>
<polygon fill="midnightblue" stroke="midnightblue" points="753.18,-82.36 761.26,-75.52 750.67,-75.82 753.18,-82.36"/>
</g>
<!-- Node6&#45;&gt;Node3 -->
<g id="edge7" class="edge">
<title>Node6&#45;&gt;Node3</title>
<path fill="none" stroke="midnightblue" d="M744.78,-57.4C741.65,-56.89 738.52,-56.41 735.5,-56 548.91,-30.56 322.87,-16.9 242.05,-12.56"/>
<polygon fill="midnightblue" stroke="midnightblue" points="242.23,-9.06 232.06,-12.03 241.86,-16.05 242.23,-9.06"/>
</g>
<!-- Node7&#45;&gt;Node3 -->
<g id="edge10" class="edge">
<title>Node7&#45;&gt;Node3</title>
<path fill="none" stroke="midnightblue" d="M435.99,-173.19C384.84,-165.09 282.19,-141.24 229.5,-76 218.82,-62.77 214.46,-43.64 212.69,-29.56"/>
<polygon fill="midnightblue" stroke="midnightblue" points="216.17,-29.19 211.76,-19.56 209.2,-29.84 216.17,-29.19"/>
</g>
<!-- Node7&#45;&gt;Node4 -->
<g id="edge12" class="edge">
<title>Node7&#45;&gt;Node4</title>
<path fill="none" stroke="midnightblue" d="M475.92,-168.21C490.48,-154.92 519.68,-129.41 547.5,-112 567.79,-99.3 592.22,-87.8 611.22,-79.61"/>
<polygon fill="midnightblue" stroke="midnightblue" points="612.77,-82.76 620.62,-75.64 610.05,-76.31 612.77,-82.76"/>
</g>
<!-- Node8 -->
<g id="node8" class="node">
<title>Node8</title>
<g id="a_node8"><a xlink:title=" ">
<polygon fill="white" stroke="#bfbfbf" points="110.5,-56.5 110.5,-75.5 164.5,-75.5 164.5,-56.5 110.5,-56.5"/>
<text text-anchor="middle" x="137.5" y="-63.5" font-family="Helvetica,sans-Serif" font-size="10.00">iostream</text>
</a>
</g>
</g>
<!-- Node7&#45;&gt;Node8 -->
<g id="edge9" class="edge">
<title>Node7&#45;&gt;Node8</title>
<path fill="none" stroke="midnightblue" d="M435.79,-175.38C370.51,-171.45 220.47,-159.59 178.5,-132 161.65,-120.92 150.41,-100.27 144.02,-85.21"/>
<polygon fill="midnightblue" stroke="midnightblue" points="147.27,-83.9 140.37,-75.86 140.75,-86.45 147.27,-83.9"/>
</g>
<!-- Node9 -->
<g id="node9" class="node">
<title>Node9</title>
<g id="a_node9"><a xlink:title=" ">
<polygon fill="white" stroke="#bfbfbf" points="701.5,-112.5 701.5,-131.5 739.5,-131.5 739.5,-112.5 701.5,-112.5"/>
<text text-anchor="middle" x="720.5" y="-119.5" font-family="Helvetica,sans-Serif" font-size="10.00">tuple</text>
</a>
</g>
</g>
<!-- Node7&#45;&gt;Node9 -->
<g id="edge11" class="edge">
<title>Node7&#45;&gt;Node9</title>
<path fill="none" stroke="midnightblue" d="M497.09,-172.05C538.89,-165.05 616.35,-151.19 691.24,-132.09"/>
<polygon fill="midnightblue" stroke="midnightblue" points="692.5,-135.38 701.31,-129.49 690.75,-128.6 692.5,-135.38"/>
</g>
<!-- Node10 -->
<g id="node10" class="node">
<title>Node10</title>
<g id="a_node10"><a xlink:href="Date_8h.html" target="_top" xlink:title=" ">
<polygon fill="white" stroke="black" points="345.5,-112.5 345.5,-131.5 391.5,-131.5 391.5,-112.5 345.5,-112.5"/>
<text text-anchor="middle" x="368.5" y="-119.5" font-family="Helvetica,sans-Serif" font-size="10.00">Date.h</text>
</a>
</g>
</g>
<!-- Node7&#45;&gt;Node10 -->
<g id="edge13" class="edge">
<title>Node7&#45;&gt;Node10</title>
<path fill="none" stroke="midnightblue" d="M450.75,-168.32C435.18,-159.74 411.12,-146.49 393.04,-136.52"/>
<polygon fill="midnightblue" stroke="midnightblue" points="394.65,-133.42 384.21,-131.65 391.28,-139.55 394.65,-133.42"/>
</g>
<!-- Node15 -->
<g id="node15" class="node">
<title>Node15</title>
<g id="a_node15"><a xlink:href="Isotach_8h.html" target="_top" xlink:title=" ">
<polygon fill="white" stroke="black" points="438,-112.5 438,-131.5 495,-131.5 495,-112.5 438,-112.5"/>
<text text-anchor="middle" x="466.5" y="-119.5" font-family="Helvetica,sans-Serif" font-size="10.00">Isotach.h</text>
</a>
</g>
</g>
<!-- Node7&#45;&gt;Node15 -->
<g id="edge21" class="edge">
<title>Node7&#45;&gt;Node15</title>
<path fill="none" stroke="midnightblue" d="M466.5,-168.08C466.5,-161.01 466.5,-150.86 466.5,-141.99"/>
<polygon fill="midnightblue" stroke="midnightblue" points="470,-141.75 466.5,-131.75 463,-141.75 470,-141.75"/>
</g>
<!-- Node10&#45;&gt;Node3 -->
<g id="edge18" class="edge">
<title>Node10&#45;&gt;Node3</title>
<path fill="none" stroke="midnightblue" d="M345.1,-117C319.23,-111.56 277.5,-99.67 249.5,-76 234.72,-63.51 224.32,-43.72 218.19,-29.26"/>
<polygon fill="midnightblue" stroke="midnightblue" points="221.4,-27.86 214.47,-19.85 214.89,-30.44 221.4,-27.86"/>
</g>
<!-- Node10&#45;&gt;Node4 -->
<g id="edge20" class="edge">
<title>Node10&#45;&gt;Node4</title>
<path fill="none" stroke="midnightblue" d="M391.78,-117.48C433.63,-110.98 524.48,-96.12 610.32,-76.09"/>
<polygon fill="midnightblue" stroke="midnightblue" points="611.29,-79.46 620.22,-73.76 609.68,-72.65 611.29,-79.46"/>
</g>
<!-- Node10&#45;&gt;Node8 -->
<g id="edge16" class="edge">
<title>Node10&#45;&gt;Node8</title>
<path fill="none" stroke="midnightblue" d="M345.08,-115.53C304.9,-106.13 222.53,-86.88 174.51,-75.65"/>
<polygon fill="midnightblue" stroke="midnightblue" points="175.06,-72.19 164.53,-73.32 173.47,-79 175.06,-72.19"/>
</g>
<!-- Node11 -->
<g id="node11" class="node">
<title>Node11</title>
<g id="a_node11"><a xlink:title=" ">
<polygon fill="white" stroke="#bfbfbf" points="258.5,-56.5 258.5,-75.5 304.5,-75.5 304.5,-56.5 258.5,-56.5"/>
<text text-anchor="middle" x="281.5" y="-63.5" font-family="Helvetica,sans-Serif" font-size="10.00">chrono</text>
</a>
</g>
</g>
<!-- Node10&#45;&gt;Node11 -->
<g id="edge14" class="edge">
<title>Node10&#45;&gt;Node11</title>
<path fill="none" stroke="midnightblue" d="M354.52,-112.32C340.95,-103.9 320.12,-90.97 304.18,-81.07"/>
<polygon fill="midnightblue" stroke="midnightblue" points="305.79,-77.95 295.44,-75.65 302.09,-83.9 305.79,-77.95"/>
</g>
<!-- Node12 -->
<g id="node12" class="node">
<title>Node12</title>
<g id="a_node12"><a xlink:title=" ">
<polygon fill="white" stroke="#bfbfbf" points="682.5,-56.5 682.5,-75.5 726.5,-75.5 726.5,-56.5 682.5,-56.5"/>
<text text-anchor="middle" x="704.5" y="-63.5" font-family="Helvetica,sans-Serif" font-size="10.00">cmath</text>
</a>
</g>
</g>
<!-- Node10&#45;&gt;Node12 -->
<g id="edge15" class="edge">
<title>Node10&#45;&gt;Node12</title>
<path fill="none" stroke="midnightblue" d="M391.58,-117.52C402.73,-115.85 416.31,-113.81 428.5,-112 534.18,-96.31 564.21,-99.21 672.24,-76.03"/>
<polygon fill="midnightblue" stroke="midnightblue" points="673.21,-79.4 682.24,-73.86 671.73,-72.56 673.21,-79.4"/>
</g>
<!-- Node13 -->
<g id="node13" class="node">
<title>Node13</title>
<g id="a_node13"><a xlink:title=" ">
<polygon fill="white" stroke="#bfbfbf" points="323,-56.5 323,-75.5 358,-75.5 358,-56.5 323,-56.5"/>
<text text-anchor="middle" x="340.5" y="-63.5" font-family="Helvetica,sans-Serif" font-size="10.00">ratio</text>
</a>
</g>
</g>
<!-- Node10&#45;&gt;Node13 -->
<g id="edge17" class="edge">
<title>Node10&#45;&gt;Node13</title>
<path fill="none" stroke="midnightblue" d="M363.88,-112.08C360.04,-104.69 354.48,-93.95 349.74,-84.81"/>
<polygon fill="midnightblue" stroke="midnightblue" points="352.75,-83.02 345.04,-75.75 346.53,-86.24 352.75,-83.02"/>
</g>
<!-- Node14 -->
<g id="node14" class="node">
<title>Node14</title>
<g id="a_node14"><a xlink:title=" ">
<polygon fill="white" stroke="#bfbfbf" points="376.5,-56.5 376.5,-75.5 438.5,-75.5 438.5,-56.5 376.5,-56.5"/>
<text text-anchor="middle" x="407.5" y="-63.5" font-family="Helvetica,sans-Serif" font-size="10.00">type_traits</text>
</a>
</g>
</g>
<!-- Node10&#45;&gt;Node14 -->
<g id="edge19" class="edge">
<title>Node10&#45;&gt;Node14</title>
<path fill="none" stroke="midnightblue" d="M374.94,-112.08C380.45,-104.46 388.53,-93.26 395.26,-83.94"/>
<polygon fill="midnightblue" stroke="midnightblue" points="398.16,-85.91 401.18,-75.75 392.49,-81.81 398.16,-85.91"/>
</g>
<!-- Node15&#45;&gt;Node3 -->
<g id="edge24" class="edge">
<title>Node15&#45;&gt;Node3</title>
<path fill="none" stroke="midnightblue" d="M466.65,-112.38C466.38,-98.35 463.69,-70.7 447.5,-56 417.77,-28.99 299.21,-17.15 242.29,-12.94"/>
<polygon fill="midnightblue" stroke="midnightblue" points="242.32,-9.44 232.1,-12.22 241.83,-16.42 242.32,-9.44"/>
</g>
<!-- Node15&#45;&gt;Node4 -->
<g id="edge25" class="edge">
<title>Node15&#45;&gt;Node4</title>
<path fill="none" stroke="midnightblue" d="M494.39,-112.44C526.01,-102.74 577.47,-86.95 610.65,-76.77"/>
<polygon fill="midnightblue" stroke="midnightblue" points="611.78,-80.09 620.32,-73.81 609.73,-73.39 611.78,-80.09"/>
</g>
<!-- Node16 -->
<g id="node16" class="node">
<title>Node16</title>
<g id="a_node16"><a xlink:title=" ">
<polygon fill="white" stroke="#bfbfbf" points="494.5,-56.5 494.5,-75.5 532.5,-75.5 532.5,-56.5 494.5,-56.5"/>
<text text-anchor="middle" x="513.5" y="-63.5" font-family="Helvetica,sans-Serif" font-size="10.00">array</text>
</a>
</g>
</g>
<!-- Node15&#45;&gt;Node16 -->
<g id="edge22" class="edge">
<title>Node15&#45;&gt;Node16</title>
<path fill="none" stroke="midnightblue" d="M474.26,-112.08C481.04,-104.3 491.04,-92.8 499.26,-83.37"/>
<polygon fill="midnightblue" stroke="midnightblue" points="501.96,-85.59 505.88,-75.75 496.68,-81 501.96,-85.59"/>
</g>
<!-- Node17 -->
<g id="node17" class="node">
<title>Node17</title>
<g id="a_node17"><a xlink:title=" ">
<polygon fill="white" stroke="#bfbfbf" points="550.5,-56.5 550.5,-75.5 602.5,-75.5 602.5,-56.5 550.5,-56.5"/>
<text text-anchor="middle" x="576.5" y="-63.5" font-family="Helvetica,sans-Serif" font-size="10.00">ostream</text>
</a>
</g>
</g>
<!-- Node15&#45;&gt;Node17 -->
<g id="edge23" class="edge">
<title>Node15&#45;&gt;Node17</title>
<path fill="none" stroke="midnightblue" d="M484.17,-112.32C501.89,-103.62 529.4,-90.12 549.79,-80.11"/>
<polygon fill="midnightblue" stroke="midnightblue" points="551.44,-83.2 558.87,-75.65 548.35,-76.92 551.44,-83.2"/>
</g>
<!-- Node18&#45;&gt;Node5 -->
<g id="edge27" class="edge">
<title>Node18&#45;&gt;Node5</title>
<path fill="none" stroke="midnightblue" d="M635.82,-168.08C636.88,-160.93 638.41,-150.64 639.73,-141.69"/>
<polygon fill="midnightblue" stroke="midnightblue" points="643.2,-142.16 641.2,-131.75 636.28,-141.13 643.2,-142.16"/>
</g>
<!-- Node23&#45;&gt;Node3 -->
<g id="edge34" class="edge">
<title>Node23&#45;&gt;Node3</title>
<path fill="none" stroke="midnightblue" d="M32.34,-112.48C37.4,-98.6 49.28,-71.15 68.5,-56 101.41,-30.05 149.49,-18.94 180.64,-14.27"/>
<polygon fill="midnightblue" stroke="midnightblue" points="181.46,-17.69 190.9,-12.87 180.52,-10.76 181.46,-17.69"/>
</g>
<!-- Node23&#45;&gt;Node8 -->
<g id="edge33" class="edge">
<title>Node23&#45;&gt;Node8</title>
<path fill="none" stroke="midnightblue" d="M46.85,-112.32C64.17,-103.66 91.02,-90.24 111,-80.25"/>
<polygon fill="midnightblue" stroke="midnightblue" points="112.81,-83.26 120.19,-75.65 109.68,-77 112.81,-83.26"/>
</g>
<!-- Node24&#45;&gt;Node9 -->
<g id="edge38" class="edge">
<title>Node24&#45;&gt;Node9</title>
<path fill="none" stroke="midnightblue" d="M765.58,-168.08C757.72,-160.22 746.07,-148.57 736.58,-139.08"/>
<polygon fill="midnightblue" stroke="midnightblue" points="738.8,-136.35 729.25,-131.75 733.85,-141.3 738.8,-136.35"/>
</g>
<!-- Node24&#45;&gt;Node12 -->
<g id="edge36" class="edge">
<title>Node24&#45;&gt;Node12</title>
<path fill="none" stroke="midnightblue" d="M772.26,-168.49C768.62,-155.57 760.57,-130.54 748.5,-112 741.38,-101.06 731.32,-90.54 722.62,-82.42"/>
<polygon fill="midnightblue" stroke="midnightblue" points="724.92,-79.77 715.14,-75.7 720.24,-84.98 724.92,-79.77"/>
</g>
<!-- Node25 -->
<g id="node25" class="node">
<title>Node25</title>
<g id="a_node25"><a xlink:title=" ">
<polygon fill="white" stroke="#bfbfbf" points="795.5,-112.5 795.5,-131.5 835.5,-131.5 835.5,-112.5 795.5,-112.5"/>
<text text-anchor="middle" x="815.5" y="-119.5" font-family="Helvetica,sans-Serif" font-size="10.00">limits</text>
</a>
</g>
</g>
<!-- Node24&#45;&gt;Node25 -->
<g id="edge37" class="edge">
<title>Node24&#45;&gt;Node25</title>
<path fill="none" stroke="midnightblue" d="M781.27,-168.08C787.06,-160.46 795.56,-149.26 802.64,-139.94"/>
<polygon fill="midnightblue" stroke="midnightblue" points="805.6,-141.83 808.86,-131.75 800.02,-137.6 805.6,-141.83"/>
</g>
</g>
</svg>
