<?xml version="1.0" encoding="UTF-8" standalone="no"?>
<!DOCTYPE svg PUBLIC "-//W3C//DTD SVG 1.1//EN"
 "http://www.w3.org/Graphics/SVG/1.1/DTD/svg11.dtd">
<!-- Generated by graphviz version 2.47.1 (20210417.1919)
 -->
<!-- Title: AtcfLine.cpp Pages: 1 -->
<!--zoomable 207 -->
<svg id="main" version="1.1" xmlns="http://www.w3.org/2000/svg" xmlns:xlink="http://www.w3.org/1999/xlink" xml:space="preserve" onload="init(evt)">
<style type="text/css"><![CDATA[
.edge:hover path { stroke: red; }
.edge:hover polygon { stroke: red; fill: red; }
]]></style>
<script type="text/javascript"><![CDATA[
var edges = document.getElementsByTagName('g');
if (edges && edges.length) {
  for (var i=0;i<edges.length;i++) {
    if (edges[i].id.substr(0,4)=='edge') {
      edges[i].setAttribute('class','edge');
    }
  }
}
]]></script>
        <defs>
                <circle id="rim" cx="0" cy="0" r="7"/>
                <circle id="rim2" cx="0" cy="0" r="3.5"/>
                <g id="zoomPlus">
                        <use xlink:href="#rim" fill="#404040">
                                <set attributeName="fill" to="#808080" begin="zoomplus.mouseover" end="zoomplus.mouseout"/>
                        </use>
                        <path d="M-4,0h8M0,-4v8" fill="none" stroke="white" stroke-width="1.5" pointer-events="none"/>
                </g>
                <g id="zoomMin">
                        <use xlink:href="#rim" fill="#404040">
                                <set attributeName="fill" to="#808080" begin="zoomminus.mouseover" end="zoomminus.mouseout"/>
                        </use>
                        <path d="M-4,0h8" fill="none" stroke="white" stroke-width="1.5" pointer-events="none"/>
                </g>
                <g id="dirArrow">
                        <path fill="none" stroke="white" stroke-width="1.5" d="M0,-3.0v7 M-2.5,-0.5L0,-3.0L2.5,-0.5"/>
                </g>
               <g id="resetDef">
                       <use xlink:href="#rim2" fill="#404040">
                               <set attributeName="fill" to="#808080" begin="reset.mouseover" end="reset.mouseout"/>
                       </use>
               </g>
        </defs>

<script type="text/javascript">
var viewWidth = 743;
var viewHeight = 207;
var sectionId = 'dynsection-0';
</script>
<script xlink:href="svgpan.js"/>
<svg id="graph" class="graph">
<g id="viewport">
<title>AtcfLine.cpp</title>
<polygon fill="white" stroke="transparent" points="-4,4 -4,-203 739,-203 739,4 -4,4"/>
<!-- Node1 -->
<g id="node1" class="node">
<title>Node1</title>
<g id="a_node1"><a xlink:title=" ">
<polygon fill="#bfbfbf" stroke="black" points="418.5,-179.5 418.5,-198.5 489.5,-198.5 489.5,-179.5 418.5,-179.5"/>
<text text-anchor="middle" x="454" y="-186.5" font-family="Helvetica,sans-Serif" font-size="10.00">AtcfLine.cpp</text>
</a>
</g>
</g>
<!-- Node2 -->
<g id="node2" class="node">
<title>Node2</title>
<g id="a_node2"><a xlink:href="AtcfLine_8h.html" target="_top" xlink:title=" ">
<polygon fill="white" stroke="black" points="196.5,-118 196.5,-137 257.5,-137 257.5,-118 196.5,-118"/>
<text text-anchor="middle" x="227" y="-125" font-family="Helvetica,sans-Serif" font-size="10.00">AtcfLine.h</text>
</a>
</g>
</g>
<!-- Node1&#45;&gt;Node2 -->
<g id="edge1" class="edge">
<title>Node1&#45;&gt;Node2</title>
<path fill="none" stroke="midnightblue" d="M421.48,-179.48C380.87,-168.83 311.42,-150.63 267.44,-139.1"/>
<polygon fill="midnightblue" stroke="midnightblue" points="268.21,-135.68 257.65,-136.53 266.43,-142.45 268.21,-135.68"/>
</g>
<!-- Node15 -->
<g id="node15" class="node">
<title>Node15</title>
<g id="a_node15"><a xlink:title=" ">
<polygon fill="white" stroke="#bfbfbf" points="429.5,-118 429.5,-137 478.5,-137 478.5,-118 429.5,-118"/>
<text text-anchor="middle" x="454" y="-125" font-family="Helvetica,sans-Serif" font-size="10.00">cassert</text>
</a>
</g>
</g>
<!-- Node1&#45;&gt;Node15 -->
<g id="edge20" class="edge">
<title>Node1&#45;&gt;Node15</title>
<path fill="none" stroke="midnightblue" d="M454,-179.48C454,-171.08 454,-157.98 454,-147.16"/>
<polygon fill="midnightblue" stroke="midnightblue" points="457.5,-147.01 454,-137.01 450.5,-147.01 457.5,-147.01"/>
</g>
<!-- Node16 -->
<g id="node16" class="node">
<title>Node16</title>
<g id="a_node16"><a xlink:href="Physical_8h.html" target="_top" xlink:title=" ">
<polygon fill="white" stroke="black" points="349,-118 349,-137 411,-137 411,-118 349,-118"/>
<text text-anchor="middle" x="380" y="-125" font-family="Helvetica,sans-Serif" font-size="10.00">Physical.h</text>
</a>
</g>
</g>
<!-- Node1&#45;&gt;Node16 -->
<g id="edge21" class="edge">
<title>Node1&#45;&gt;Node16</title>
<path fill="none" stroke="midnightblue" d="M443.4,-179.48C431.75,-170.11 412.81,-154.88 398.67,-143.51"/>
<polygon fill="midnightblue" stroke="midnightblue" points="400.57,-140.55 390.58,-137.01 396.18,-146 400.57,-140.55"/>
</g>
<!-- Node18 -->
<g id="node18" class="node">
<title>Node18</title>
<g id="a_node18"><a xlink:title=" ">
<polygon fill="white" stroke="#bfbfbf" points="497,-112.5 497,-142.5 607,-142.5 607,-112.5 497,-112.5"/>
<text text-anchor="start" x="505" y="-130.5" font-family="Helvetica,sans-Serif" font-size="10.00">boost/algorithm/string</text>
<text text-anchor="middle" x="552" y="-119.5" font-family="Helvetica,sans-Serif" font-size="10.00">/split.hpp</text>
</a>
</g>
</g>
<!-- Node1&#45;&gt;Node18 -->
<g id="edge25" class="edge">
<title>Node1&#45;&gt;Node18</title>
<path fill="none" stroke="midnightblue" d="M468.04,-179.48C481.56,-171.27 502.49,-158.56 520.07,-147.88"/>
<polygon fill="midnightblue" stroke="midnightblue" points="522.17,-150.7 528.9,-142.52 518.54,-144.72 522.17,-150.7"/>
</g>
<!-- Node19 -->
<g id="node19" class="node">
<title>Node19</title>
<g id="a_node19"><a xlink:title=" ">
<polygon fill="white" stroke="#bfbfbf" points="625,-112.5 625,-142.5 735,-142.5 735,-112.5 625,-112.5"/>
<text text-anchor="start" x="633" y="-130.5" font-family="Helvetica,sans-Serif" font-size="10.00">boost/algorithm/string</text>
<text text-anchor="middle" x="680" y="-119.5" font-family="Helvetica,sans-Serif" font-size="10.00">/trim.hpp</text>
</a>
</g>
</g>
<!-- Node1&#45;&gt;Node19 -->
<g id="edge26" class="edge">
<title>Node1&#45;&gt;Node19</title>
<path fill="none" stroke="midnightblue" d="M486.38,-179.48C520.35,-170.53 574.6,-156.25 617.05,-145.07"/>
<polygon fill="midnightblue" stroke="midnightblue" points="617.96,-148.45 626.74,-142.52 616.17,-141.68 617.96,-148.45"/>
</g>
<!-- Node3 -->
<g id="node3" class="node">
<title>Node3</title>
<g id="a_node3"><a xlink:title=" ">
<polygon fill="white" stroke="#bfbfbf" points="0,-0.5 0,-19.5 38,-19.5 38,-0.5 0,-0.5"/>
<text text-anchor="middle" x="19" y="-7.5" font-family="Helvetica,sans-Serif" font-size="10.00">array</text>
</a>
</g>
</g>
<!-- Node2&#45;&gt;Node3 -->
<g id="edge2" class="edge">
<title>Node2&#45;&gt;Node3</title>
<path fill="none" stroke="midnightblue" d="M196.42,-119.41C166.9,-111.69 121.71,-97.5 87,-76 65.64,-62.77 45.4,-41.98 32.65,-27.48"/>
<polygon fill="midnightblue" stroke="midnightblue" points="35.21,-25.1 26.05,-19.78 29.9,-29.65 35.21,-25.1"/>
</g>
<!-- Node4 -->
<g id="node4" class="node">
<title>Node4</title>
<g id="a_node4"><a xlink:title=" ">
<polygon fill="white" stroke="#bfbfbf" points="248,-0.5 248,-19.5 302,-19.5 302,-0.5 248,-0.5"/>
<text text-anchor="middle" x="275" y="-7.5" font-family="Helvetica,sans-Serif" font-size="10.00">iostream</text>
</a>
</g>
</g>
<!-- Node2&#45;&gt;Node4 -->
<g id="edge3" class="edge">
<title>Node2&#45;&gt;Node4</title>
<path fill="none" stroke="midnightblue" d="M230.61,-117.82C238.39,-99.09 256.9,-54.55 267.4,-29.29"/>
<polygon fill="midnightblue" stroke="midnightblue" points="270.74,-30.36 271.35,-19.78 264.28,-27.67 270.74,-30.36"/>
</g>
<!-- Node5 -->
<g id="node5" class="node">
<title>Node5</title>
<g id="a_node5"><a xlink:title=" ">
<polygon fill="white" stroke="#bfbfbf" points="56.5,-0.5 56.5,-19.5 97.5,-19.5 97.5,-0.5 56.5,-0.5"/>
<text text-anchor="middle" x="77" y="-7.5" font-family="Helvetica,sans-Serif" font-size="10.00">string</text>
</a>
</g>
</g>
<!-- Node2&#45;&gt;Node5 -->
<g id="edge4" class="edge">
<title>Node2&#45;&gt;Node5</title>
<path fill="none" stroke="midnightblue" d="M196.24,-120.85C168.84,-114.35 129.27,-101.17 104,-76 91.3,-63.36 84.29,-43.87 80.62,-29.53"/>
<polygon fill="midnightblue" stroke="midnightblue" points="84.03,-28.76 78.43,-19.77 77.21,-30.29 84.03,-28.76"/>
</g>
<!-- Node6 -->
<g id="node6" class="node">
<title>Node6</title>
<g id="a_node6"><a xlink:title=" ">
<polygon fill="white" stroke="#bfbfbf" points="338,-56.5 338,-75.5 376,-75.5 376,-56.5 338,-56.5"/>
<text text-anchor="middle" x="357" y="-63.5" font-family="Helvetica,sans-Serif" font-size="10.00">tuple</text>
</a>
</g>
</g>
<!-- Node2&#45;&gt;Node6 -->
<g id="edge5" class="edge">
<title>Node2&#45;&gt;Node6</title>
<path fill="none" stroke="midnightblue" d="M245.63,-117.98C267.44,-107.99 303.8,-91.35 329.02,-79.81"/>
<polygon fill="midnightblue" stroke="midnightblue" points="330.77,-82.85 338.41,-75.51 327.86,-76.49 330.77,-82.85"/>
</g>
<!-- Node7 -->
<g id="node7" class="node">
<title>Node7</title>
<g id="a_node7"><a xlink:title=" ">
<polygon fill="white" stroke="#bfbfbf" points="186,-0.5 186,-19.5 230,-19.5 230,-0.5 186,-0.5"/>
<text text-anchor="middle" x="208" y="-7.5" font-family="Helvetica,sans-Serif" font-size="10.00">vector</text>
</a>
</g>
</g>
<!-- Node2&#45;&gt;Node7 -->
<g id="edge6" class="edge">
<title>Node2&#45;&gt;Node7</title>
<path fill="none" stroke="midnightblue" d="M225.57,-117.82C222.52,-99.26 215.29,-55.34 211.12,-29.97"/>
<polygon fill="midnightblue" stroke="midnightblue" points="214.52,-29.08 209.44,-19.78 207.61,-30.22 214.52,-29.08"/>
</g>
<!-- Node8 -->
<g id="node8" class="node">
<title>Node8</title>
<g id="a_node8"><a xlink:href="Date_8h.html" target="_top" xlink:title=" ">
<polygon fill="white" stroke="black" points="274,-56.5 274,-75.5 320,-75.5 320,-56.5 274,-56.5"/>
<text text-anchor="middle" x="297" y="-63.5" font-family="Helvetica,sans-Serif" font-size="10.00">Date.h</text>
</a>
</g>
</g>
<!-- Node2&#45;&gt;Node8 -->
<g id="edge7" class="edge">
<title>Node2&#45;&gt;Node8</title>
<path fill="none" stroke="midnightblue" d="M237.03,-117.98C248.05,-108.61 265.96,-93.38 279.34,-82.01"/>
<polygon fill="midnightblue" stroke="midnightblue" points="281.64,-84.65 286.99,-75.51 277.1,-79.32 281.64,-84.65"/>
</g>
<!-- Node13 -->
<g id="node13" class="node">
<title>Node13</title>
<g id="a_node13"><a xlink:href="Isotach_8h.html" target="_top" xlink:title=" ">
<polygon fill="white" stroke="black" points="113.5,-56.5 113.5,-75.5 170.5,-75.5 170.5,-56.5 113.5,-56.5"/>
<text text-anchor="middle" x="142" y="-63.5" font-family="Helvetica,sans-Serif" font-size="10.00">Isotach.h</text>
</a>
</g>
</g>
<!-- Node2&#45;&gt;Node13 -->
<g id="edge15" class="edge">
<title>Node2&#45;&gt;Node13</title>
<path fill="none" stroke="midnightblue" d="M214.82,-117.98C201.19,-108.43 178.87,-92.81 162.53,-81.37"/>
<polygon fill="midnightblue" stroke="midnightblue" points="164.36,-78.38 154.16,-75.51 160.34,-84.11 164.36,-78.38"/>
</g>
<!-- Node8&#45;&gt;Node4 -->
<g id="edge10" class="edge">
<title>Node8&#45;&gt;Node4</title>
<path fill="none" stroke="midnightblue" d="M293.37,-56.08C290.39,-48.77 286.07,-38.18 282.38,-29.1"/>
<polygon fill="midnightblue" stroke="midnightblue" points="285.58,-27.69 278.57,-19.75 279.1,-30.33 285.58,-27.69"/>
</g>
<!-- Node8&#45;&gt;Node5 -->
<g id="edge12" class="edge">
<title>Node8&#45;&gt;Node5</title>
<path fill="none" stroke="midnightblue" d="M273.78,-59.96C239.56,-52.44 173.34,-37.51 107.34,-19.96"/>
<polygon fill="midnightblue" stroke="midnightblue" points="108.18,-16.56 97.61,-17.36 106.36,-23.33 108.18,-16.56"/>
</g>
<!-- Node8&#45;&gt;Node7 -->
<g id="edge14" class="edge">
<title>Node8&#45;&gt;Node7</title>
<path fill="none" stroke="midnightblue" d="M282.7,-56.32C268.82,-47.9 247.51,-34.97 231.2,-25.07"/>
<polygon fill="midnightblue" stroke="midnightblue" points="232.63,-21.85 222.26,-19.65 229,-27.83 232.63,-21.85"/>
</g>
<!-- Node9 -->
<g id="node9" class="node">
<title>Node9</title>
<g id="a_node9"><a xlink:title=" ">
<polygon fill="white" stroke="#bfbfbf" points="320,-0.5 320,-19.5 366,-19.5 366,-0.5 320,-0.5"/>
<text text-anchor="middle" x="343" y="-7.5" font-family="Helvetica,sans-Serif" font-size="10.00">chrono</text>
</a>
</g>
</g>
<!-- Node8&#45;&gt;Node9 -->
<g id="edge8" class="edge">
<title>Node8&#45;&gt;Node9</title>
<path fill="none" stroke="midnightblue" d="M304.6,-56.08C311.23,-48.3 321.02,-36.8 329.06,-27.37"/>
<polygon fill="midnightblue" stroke="midnightblue" points="331.73,-29.63 335.55,-19.75 326.4,-25.09 331.73,-29.63"/>
</g>
<!-- Node10 -->
<g id="node10" class="node">
<title>Node10</title>
<g id="a_node10"><a xlink:title=" ">
<polygon fill="white" stroke="#bfbfbf" points="518,-0.5 518,-19.5 562,-19.5 562,-0.5 518,-0.5"/>
<text text-anchor="middle" x="540" y="-7.5" font-family="Helvetica,sans-Serif" font-size="10.00">cmath</text>
</a>
</g>
</g>
<!-- Node8&#45;&gt;Node10 -->
<g id="edge9" class="edge">
<title>Node8&#45;&gt;Node10</title>
<path fill="none" stroke="midnightblue" d="M320.02,-58.3C323.03,-57.49 326.08,-56.7 329,-56 405.23,-37.69 427.99,-39.23 507.7,-20.15"/>
<polygon fill="midnightblue" stroke="midnightblue" points="508.82,-23.48 517.71,-17.72 507.17,-16.68 508.82,-23.48"/>
</g>
<!-- Node11 -->
<g id="node11" class="node">
<title>Node11</title>
<g id="a_node11"><a xlink:title=" ">
<polygon fill="white" stroke="#bfbfbf" points="384.5,-0.5 384.5,-19.5 419.5,-19.5 419.5,-0.5 384.5,-0.5"/>
<text text-anchor="middle" x="402" y="-7.5" font-family="Helvetica,sans-Serif" font-size="10.00">ratio</text>
</a>
</g>
</g>
<!-- Node8&#45;&gt;Node11 -->
<g id="edge11" class="edge">
<title>Node8&#45;&gt;Node11</title>
<path fill="none" stroke="midnightblue" d="M313.87,-56.32C330.71,-47.66 356.81,-34.24 376.24,-24.25"/>
<polygon fill="midnightblue" stroke="midnightblue" points="377.88,-27.34 385.17,-19.65 374.68,-21.12 377.88,-27.34"/>
</g>
<!-- Node12 -->
<g id="node12" class="node">
<title>Node12</title>
<g id="a_node12"><a xlink:title=" ">
<polygon fill="white" stroke="#bfbfbf" points="438,-0.5 438,-19.5 500,-19.5 500,-0.5 438,-0.5"/>
<text text-anchor="middle" x="469" y="-7.5" font-family="Helvetica,sans-Serif" font-size="10.00">type_traits</text>
</a>
</g>
</g>
<!-- Node8&#45;&gt;Node12 -->
<g id="edge13" class="edge">
<title>Node8&#45;&gt;Node12</title>
<path fill="none" stroke="midnightblue" d="M320.2,-57.72C348.91,-48.7 398.15,-33.24 432.07,-22.59"/>
<polygon fill="midnightblue" stroke="midnightblue" points="433.15,-25.92 441.64,-19.59 431.05,-19.25 433.15,-25.92"/>
</g>
<!-- Node13&#45;&gt;Node3 -->
<g id="edge16" class="edge">
<title>Node13&#45;&gt;Node3</title>
<path fill="none" stroke="midnightblue" d="M122.51,-56.44C102.36,-47.6 70.68,-33.69 47.67,-23.59"/>
<polygon fill="midnightblue" stroke="midnightblue" points="48.96,-20.33 38.4,-19.52 46.15,-26.74 48.96,-20.33"/>
</g>
<!-- Node13&#45;&gt;Node5 -->
<g id="edge18" class="edge">
<title>Node13&#45;&gt;Node5</title>
<path fill="none" stroke="midnightblue" d="M131.56,-56.32C121.85,-48.26 107.18,-36.08 95.5,-26.37"/>
<polygon fill="midnightblue" stroke="midnightblue" points="97.56,-23.53 87.63,-19.83 93.09,-28.92 97.56,-23.53"/>
</g>
<!-- Node13&#45;&gt;Node7 -->
<g id="edge19" class="edge">
<title>Node13&#45;&gt;Node7</title>
<path fill="none" stroke="midnightblue" d="M152.6,-56.32C162.46,-48.26 177.35,-36.08 189.22,-26.37"/>
<polygon fill="midnightblue" stroke="midnightblue" points="191.68,-28.88 197.2,-19.83 187.25,-23.46 191.68,-28.88"/>
</g>
<!-- Node14 -->
<g id="node14" class="node">
<title>Node14</title>
<g id="a_node14"><a xlink:title=" ">
<polygon fill="white" stroke="#bfbfbf" points="116,-0.5 116,-19.5 168,-19.5 168,-0.5 116,-0.5"/>
<text text-anchor="middle" x="142" y="-7.5" font-family="Helvetica,sans-Serif" font-size="10.00">ostream</text>
</a>
</g>
</g>
<!-- Node13&#45;&gt;Node14 -->
<g id="edge17" class="edge">
<title>Node13&#45;&gt;Node14</title>
<path fill="none" stroke="midnightblue" d="M142,-56.08C142,-49.01 142,-38.86 142,-29.99"/>
<polygon fill="midnightblue" stroke="midnightblue" points="145.5,-29.75 142,-19.75 138.5,-29.75 145.5,-29.75"/>
</g>
<!-- Node16&#45;&gt;Node6 -->
<g id="edge24" class="edge">
<title>Node16&#45;&gt;Node6</title>
<path fill="none" stroke="midnightblue" d="M376.7,-117.98C373.39,-109.4 368.18,-95.93 363.95,-84.98"/>
<polygon fill="midnightblue" stroke="midnightblue" points="367.16,-83.57 360.29,-75.51 360.63,-86.1 367.16,-83.57"/>
</g>
<!-- Node16&#45;&gt;Node10 -->
<g id="edge22" class="edge">
<title>Node16&#45;&gt;Node10</title>
<path fill="none" stroke="midnightblue" d="M383.11,-117.87C388.81,-103.19 402.3,-73.26 423,-56 436.29,-44.92 478.22,-30.24 508.07,-20.71"/>
<polygon fill="midnightblue" stroke="midnightblue" points="509.19,-24.03 517.68,-17.69 507.09,-17.35 509.19,-24.03"/>
</g>
<!-- Node17 -->
<g id="node17" class="node">
<title>Node17</title>
<g id="a_node17"><a xlink:title=" ">
<polygon fill="white" stroke="#bfbfbf" points="432,-56.5 432,-75.5 472,-75.5 472,-56.5 432,-56.5"/>
<text text-anchor="middle" x="452" y="-63.5" font-family="Helvetica,sans-Serif" font-size="10.00">limits</text>
</a>
</g>
</g>
<!-- Node16&#45;&gt;Node17 -->
<g id="edge23" class="edge">
<title>Node16&#45;&gt;Node17</title>
<path fill="none" stroke="midnightblue" d="M390.32,-117.98C401.65,-108.61 420.07,-93.38 433.84,-82.01"/>
<polygon fill="midnightblue" stroke="midnightblue" points="436.22,-84.58 441.7,-75.51 431.77,-79.18 436.22,-84.58"/>
</g>
</g>
</svg>
        <g id="navigator" transform="translate(0 0)" fill="#404254">
                <rect fill="#f2f5e9" fill-opacity="0.5" stroke="#606060" stroke-width=".5" x="0" y="0" width="60" height="60"/>
                <use id="zoomplus" xlink:href="#zoomPlus" x="17" y="9" onmousedown="handleZoom(evt,'in')"/>
                <use id="zoomminus" xlink:href="#zoomMin" x="42" y="9" onmousedown="handleZoom(evt,'out')"/>
                <use id="reset" xlink:href="#resetDef" x="30" y="36" onmousedown="handleReset()"/>
                <g id="arrowUp" xlink:href="#dirArrow" transform="translate(30 24)" onmousedown="handlePan(0,-1)">
                  <use xlink:href="#rim" fill="#404040">
                        <set attributeName="fill" to="#808080" begin="arrowUp.mouseover" end="arrowUp.mouseout"/>
                  </use>
                  <path fill="none" stroke="white" stroke-width="1.5" d="M0,-3.0v7 M-2.5,-0.5L0,-3.0L2.5,-0.5"/>
                </g>
                <g id="arrowRight" xlink:href="#dirArrow" transform="rotate(90) translate(36 -43)" onmousedown="handlePan(1,0)">
                  <use xlink:href="#rim" fill="#404040">
                        <set attributeName="fill" to="#808080" begin="arrowRight.mouseover" end="arrowRight.mouseout"/>
                  </use>
                  <path fill="none" stroke="white" stroke-width="1.5" d="M0,-3.0v7 M-2.5,-0.5L0,-3.0L2.5,-0.5"/>
                </g>
                <g id="arrowDown" xlink:href="#dirArrow" transform="rotate(180) translate(-30 -48)" onmousedown="handlePan(0,1)">
                  <use xlink:href="#rim" fill="#404040">
                        <set attributeName="fill" to="#808080" begin="arrowDown.mouseover" end="arrowDown.mouseout"/>
                  </use>
                  <path fill="none" stroke="white" stroke-width="1.5" d="M0,-3.0v7 M-2.5,-0.5L0,-3.0L2.5,-0.5"/>
                </g>
                <g id="arrowLeft" xlink:href="#dirArrow" transform="rotate(270) translate(-36 17)" onmousedown="handlePan(-1,0)">
                  <use xlink:href="#rim" fill="#404040">
                        <set attributeName="fill" to="#808080" begin="arrowLeft.mouseover" end="arrowLeft.mouseout"/>
                  </use>
                  <path fill="none" stroke="white" stroke-width="1.5" d="M0,-3.0v7 M-2.5,-0.5L0,-3.0L2.5,-0.5"/>
                </g>
        </g>
        <svg viewBox="0 0 15 15" width="100%" height="30px" preserveAspectRatio="xMaxYMin meet">
         <g id="arrow_out" transform="scale(0.3 0.3)">
          <a xlink:href="AtcfLine_8cpp__incl_org.svg" target="_base">
           <rect id="button" ry="5" rx="5" y="6" x="6" height="38" width="38"
                fill="#f2f5e9" fill-opacity="0.5" stroke="#606060" stroke-width="1.0"/>
           <path id="arrow"
             d="M 11.500037,31.436501 C 11.940474,20.09759 22.043105,11.32322 32.158766,21.979434 L 37.068811,17.246167 C 37.068811,17.246167 37.088388,32 37.088388,32 L 22.160133,31.978069 C 22.160133,31.978069 26.997745,27.140456 26.997745,27.140456 C 18.528582,18.264221 13.291696,25.230495 11.500037,31.436501 z"
             style="fill:#404040;"/>
          </a>
         </g>
        </svg>
</svg>
