<?xml version="1.0" encoding="UTF-8" standalone="no"?>
<!DOCTYPE svg PUBLIC "-//W3C//DTD SVG 1.1//EN"
 "http://www.w3.org/Graphics/SVG/1.1/DTD/svg11.dtd">
<!-- Generated by graphviz version 2.47.1 (20210417.1919)
 -->
<!-- Title: Atcf.h Pages: 1 -->
<svg width="812pt" height="252pt"
 viewBox="0.00 0.00 811.56 252.00" xmlns="http://www.w3.org/2000/svg" xmlns:xlink="http://www.w3.org/1999/xlink">
<g id="graph0" class="graph" transform="scale(1 1) rotate(0) translate(4 248)">
<title>Atcf.h</title>
<polygon fill="white" stroke="transparent" points="-4,4 -4,-248 807.56,-248 807.56,4 -4,4"/>
<!-- Node1 -->
<g id="node1" class="node">
<title>Node1</title>
<g id="a_node1"><a xlink:title=" ">
<polygon fill="#bfbfbf" stroke="black" points="148.06,-224.5 148.06,-243.5 191.06,-243.5 191.06,-224.5 148.06,-224.5"/>
<text text-anchor="middle" x="169.56" y="-231.5" font-family="Helvetica,sans-Serif" font-size="10.00">Atcf.h</text>
</a>
</g>
</g>
<!-- Node2 -->
<g id="node2" class="node">
<title>Node2</title>
<g id="a_node2"><a xlink:title=" ">
<polygon fill="white" stroke="#bfbfbf" points="183.06,-0.5 183.06,-19.5 224.06,-19.5 224.06,-0.5 183.06,-0.5"/>
<text text-anchor="middle" x="203.56" y="-7.5" font-family="Helvetica,sans-Serif" font-size="10.00">string</text>
</a>
</g>
</g>
<!-- Node1&#45;&gt;Node2 -->
<g id="edge1" class="edge">
<title>Node1&#45;&gt;Node2</title>
<path fill="none" stroke="midnightblue" d="M147.91,-233.47C115.37,-232.86 54.66,-226.3 26.56,-188 -8.14,-140.7 -9.45,-102.31 26.56,-56 44.34,-33.13 126.95,-19.98 172.76,-14.33"/>
<polygon fill="midnightblue" stroke="midnightblue" points="173.23,-17.79 182.74,-13.14 172.4,-10.84 173.23,-17.79"/>
</g>
<!-- Node3 -->
<g id="node3" class="node">
<title>Node3</title>
<g id="a_node3"><a xlink:title=" ">
<polygon fill="white" stroke="#bfbfbf" points="131.56,-56.5 131.56,-75.5 175.56,-75.5 175.56,-56.5 131.56,-56.5"/>
<text text-anchor="middle" x="153.56" y="-63.5" font-family="Helvetica,sans-Serif" font-size="10.00">vector</text>
</a>
</g>
</g>
<!-- Node1&#45;&gt;Node3 -->
<g id="edge2" class="edge">
<title>Node1&#45;&gt;Node3</title>
<path fill="none" stroke="midnightblue" d="M169.74,-224.43C170.04,-204.54 170.04,-153.78 163.56,-112 162.19,-103.19 160.12,-93.53 158.22,-85.43"/>
<polygon fill="midnightblue" stroke="midnightblue" points="161.58,-84.45 155.81,-75.56 154.78,-86.11 161.58,-84.45"/>
</g>
<!-- Node4 -->
<g id="node4" class="node">
<title>Node4</title>
<g id="a_node4"><a xlink:href="Assumptions_8h.html" target="_top" xlink:title=" ">
<polygon fill="white" stroke="black" points="72.56,-112.5 72.56,-131.5 154.56,-131.5 154.56,-112.5 72.56,-112.5"/>
<text text-anchor="middle" x="113.56" y="-119.5" font-family="Helvetica,sans-Serif" font-size="10.00">Assumptions.h</text>
</a>
</g>
</g>
<!-- Node1&#45;&gt;Node4 -->
<g id="edge3" class="edge">
<title>Node1&#45;&gt;Node4</title>
<path fill="none" stroke="midnightblue" d="M168.14,-224.16C165.82,-211.24 160.45,-186.71 150.56,-168 144.96,-157.4 136.61,-146.98 129.27,-138.83"/>
<polygon fill="midnightblue" stroke="midnightblue" points="131.79,-136.41 122.39,-131.52 126.7,-141.2 131.79,-136.41"/>
</g>
<!-- Node6 -->
<g id="node6" class="node">
<title>Node6</title>
<g id="a_node6"><a xlink:href="AtcfLine_8h.html" target="_top" xlink:title=" ">
<polygon fill="white" stroke="black" points="487.06,-168.5 487.06,-187.5 548.06,-187.5 548.06,-168.5 487.06,-168.5"/>
<text text-anchor="middle" x="517.56" y="-175.5" font-family="Helvetica,sans-Serif" font-size="10.00">AtcfLine.h</text>
</a>
</g>
</g>
<!-- Node1&#45;&gt;Node6 -->
<g id="edge7" class="edge">
<title>Node1&#45;&gt;Node6</title>
<path fill="none" stroke="midnightblue" d="M191.07,-229.66C247.89,-220.85 402.74,-196.82 476.9,-185.31"/>
<polygon fill="midnightblue" stroke="midnightblue" points="477.47,-188.76 486.81,-183.77 476.4,-181.85 477.47,-188.76"/>
</g>
<!-- Node17 -->
<g id="node17" class="node">
<title>Node17</title>
<g id="a_node17"><a xlink:href="HurricanePressure_8h.html" target="_top" xlink:title=" ">
<polygon fill="white" stroke="black" points="35.56,-168.5 35.56,-187.5 141.56,-187.5 141.56,-168.5 35.56,-168.5"/>
<text text-anchor="middle" x="88.56" y="-175.5" font-family="Helvetica,sans-Serif" font-size="10.00">HurricanePressure.h</text>
</a>
</g>
</g>
<!-- Node1&#45;&gt;Node17 -->
<g id="edge25" class="edge">
<title>Node1&#45;&gt;Node17</title>
<path fill="none" stroke="midnightblue" d="M156.55,-224.32C144.03,-215.98 124.88,-203.21 110.09,-193.35"/>
<polygon fill="midnightblue" stroke="midnightblue" points="111.8,-190.29 101.54,-187.65 107.92,-196.11 111.8,-190.29"/>
</g>
<!-- Node4&#45;&gt;Node3 -->
<g id="edge4" class="edge">
<title>Node4&#45;&gt;Node3</title>
<path fill="none" stroke="midnightblue" d="M120.16,-112.08C125.81,-104.46 134.1,-93.26 141.01,-83.94"/>
<polygon fill="midnightblue" stroke="midnightblue" points="143.94,-85.87 147.08,-75.75 138.31,-81.7 143.94,-85.87"/>
</g>
<!-- Node5 -->
<g id="node5" class="node">
<title>Node5</title>
<g id="a_node5"><a xlink:href="Assumption_8h.html" target="_top" xlink:title=" ">
<polygon fill="white" stroke="black" points="36.06,-56.5 36.06,-75.5 113.06,-75.5 113.06,-56.5 36.06,-56.5"/>
<text text-anchor="middle" x="74.56" y="-63.5" font-family="Helvetica,sans-Serif" font-size="10.00">Assumption.h</text>
</a>
</g>
</g>
<!-- Node4&#45;&gt;Node5 -->
<g id="edge5" class="edge">
<title>Node4&#45;&gt;Node5</title>
<path fill="none" stroke="midnightblue" d="M107.12,-112.08C101.61,-104.46 93.53,-93.26 86.79,-83.94"/>
<polygon fill="midnightblue" stroke="midnightblue" points="89.57,-81.81 80.88,-75.75 83.9,-85.91 89.57,-81.81"/>
</g>
<!-- Node5&#45;&gt;Node2 -->
<g id="edge6" class="edge">
<title>Node5&#45;&gt;Node2</title>
<path fill="none" stroke="midnightblue" d="M95,-56.44C116.23,-47.56 149.66,-33.56 173.81,-23.45"/>
<polygon fill="midnightblue" stroke="midnightblue" points="175.34,-26.61 183.21,-19.52 172.64,-20.15 175.34,-26.61"/>
</g>
<!-- Node6&#45;&gt;Node2 -->
<g id="edge9" class="edge">
<title>Node6&#45;&gt;Node2</title>
<path fill="none" stroke="midnightblue" d="M548.29,-171.16C617.25,-156.83 774.08,-116.58 718.56,-56 685.73,-20.18 339.9,-12.76 234.12,-11.32"/>
<polygon fill="midnightblue" stroke="midnightblue" points="234.14,-7.82 224.1,-11.2 234.05,-14.82 234.14,-7.82"/>
</g>
<!-- Node6&#45;&gt;Node3 -->
<g id="edge11" class="edge">
<title>Node6&#45;&gt;Node3</title>
<path fill="none" stroke="midnightblue" d="M486.8,-171.02C448.79,-163.34 382.29,-148.96 326.56,-132 275.29,-116.4 217.29,-93.49 183.15,-79.45"/>
<polygon fill="midnightblue" stroke="midnightblue" points="184.35,-76.15 173.77,-75.56 181.67,-82.62 184.35,-76.15"/>
</g>
<!-- Node7 -->
<g id="node7" class="node">
<title>Node7</title>
<g id="a_node7"><a xlink:title=" ">
<polygon fill="white" stroke="#bfbfbf" points="491.56,-56.5 491.56,-75.5 545.56,-75.5 545.56,-56.5 491.56,-56.5"/>
<text text-anchor="middle" x="518.56" y="-63.5" font-family="Helvetica,sans-Serif" font-size="10.00">iostream</text>
</a>
</g>
</g>
<!-- Node6&#45;&gt;Node7 -->
<g id="edge8" class="edge">
<title>Node6&#45;&gt;Node7</title>
<path fill="none" stroke="midnightblue" d="M517.64,-168.37C517.8,-150.62 518.17,-109.67 518.39,-85.6"/>
<polygon fill="midnightblue" stroke="midnightblue" points="521.89,-85.62 518.48,-75.59 514.89,-85.56 521.89,-85.62"/>
</g>
<!-- Node8 -->
<g id="node8" class="node">
<title>Node8</title>
<g id="a_node8"><a xlink:title=" ">
<polygon fill="white" stroke="#bfbfbf" points="765.56,-112.5 765.56,-131.5 803.56,-131.5 803.56,-112.5 765.56,-112.5"/>
<text text-anchor="middle" x="784.56" y="-119.5" font-family="Helvetica,sans-Serif" font-size="10.00">tuple</text>
</a>
</g>
</g>
<!-- Node6&#45;&gt;Node8 -->
<g id="edge10" class="edge">
<title>Node6&#45;&gt;Node8</title>
<path fill="none" stroke="midnightblue" d="M548.38,-171.85C593.28,-164.16 679.22,-148.79 751.56,-132 752.83,-131.71 754.12,-131.4 755.43,-131.07"/>
<polygon fill="midnightblue" stroke="midnightblue" points="756.62,-134.38 765.43,-128.48 754.87,-127.6 756.62,-134.38"/>
</g>
<!-- Node9 -->
<g id="node9" class="node">
<title>Node9</title>
<g id="a_node9"><a xlink:href="Date_8h.html" target="_top" xlink:title=" ">
<polygon fill="white" stroke="black" points="335.56,-112.5 335.56,-131.5 381.56,-131.5 381.56,-112.5 335.56,-112.5"/>
<text text-anchor="middle" x="358.56" y="-119.5" font-family="Helvetica,sans-Serif" font-size="10.00">Date.h</text>
</a>
</g>
</g>
<!-- Node6&#45;&gt;Node9 -->
<g id="edge12" class="edge">
<title>Node6&#45;&gt;Node9</title>
<path fill="none" stroke="midnightblue" d="M492.37,-168.44C464.99,-159.15 421.15,-144.26 391.16,-134.07"/>
<polygon fill="midnightblue" stroke="midnightblue" points="392.16,-130.72 381.57,-130.82 389.91,-137.35 392.16,-130.72"/>
</g>
<!-- Node14 -->
<g id="node14" class="node">
<title>Node14</title>
<g id="a_node14"><a xlink:href="Isotach_8h.html" target="_top" xlink:title=" ">
<polygon fill="white" stroke="black" points="546.06,-112.5 546.06,-131.5 603.06,-131.5 603.06,-112.5 546.06,-112.5"/>
<text text-anchor="middle" x="574.56" y="-119.5" font-family="Helvetica,sans-Serif" font-size="10.00">Isotach.h</text>
</a>
</g>
</g>
<!-- Node6&#45;&gt;Node14 -->
<g id="edge20" class="edge">
<title>Node6&#45;&gt;Node14</title>
<path fill="none" stroke="midnightblue" d="M526.72,-168.32C535.06,-160.42 547.59,-148.55 557.74,-138.94"/>
<polygon fill="midnightblue" stroke="midnightblue" points="560.38,-141.25 565.23,-131.83 555.57,-136.17 560.38,-141.25"/>
</g>
<!-- Node9&#45;&gt;Node2 -->
<g id="edge17" class="edge">
<title>Node9&#45;&gt;Node2</title>
<path fill="none" stroke="midnightblue" d="M335.41,-119.74C305.24,-116.84 252.79,-107.31 222.56,-76 210.7,-63.72 206.18,-44.46 204.49,-30.09"/>
<polygon fill="midnightblue" stroke="midnightblue" points="207.96,-29.52 203.66,-19.84 200.98,-30.09 207.96,-29.52"/>
</g>
<!-- Node9&#45;&gt;Node3 -->
<g id="edge19" class="edge">
<title>Node9&#45;&gt;Node3</title>
<path fill="none" stroke="midnightblue" d="M335.44,-114.91C298.76,-105.25 227.13,-86.38 185.54,-75.43"/>
<polygon fill="midnightblue" stroke="midnightblue" points="186.22,-71.98 175.66,-72.82 184.44,-78.75 186.22,-71.98"/>
</g>
<!-- Node9&#45;&gt;Node7 -->
<g id="edge15" class="edge">
<title>Node9&#45;&gt;Node7</title>
<path fill="none" stroke="midnightblue" d="M381.82,-113.15C408.57,-104.12 452.75,-89.21 483.63,-78.79"/>
<polygon fill="midnightblue" stroke="midnightblue" points="484.79,-82.09 493.15,-75.58 482.56,-75.46 484.79,-82.09"/>
</g>
<!-- Node10 -->
<g id="node10" class="node">
<title>Node10</title>
<g id="a_node10"><a xlink:title=" ">
<polygon fill="white" stroke="#bfbfbf" points="427.56,-56.5 427.56,-75.5 473.56,-75.5 473.56,-56.5 427.56,-56.5"/>
<text text-anchor="middle" x="450.56" y="-63.5" font-family="Helvetica,sans-Serif" font-size="10.00">chrono</text>
</a>
</g>
</g>
<!-- Node9&#45;&gt;Node10 -->
<g id="edge13" class="edge">
<title>Node9&#45;&gt;Node10</title>
<path fill="none" stroke="midnightblue" d="M373.34,-112.32C387.83,-103.82 410.13,-90.73 427.05,-80.8"/>
<polygon fill="midnightblue" stroke="midnightblue" points="428.96,-83.74 435.81,-75.65 425.42,-77.7 428.96,-83.74"/>
</g>
<!-- Node11 -->
<g id="node11" class="node">
<title>Node11</title>
<g id="a_node11"><a xlink:title=" ">
<polygon fill="white" stroke="#bfbfbf" points="231.56,-56.5 231.56,-75.5 275.56,-75.5 275.56,-56.5 231.56,-56.5"/>
<text text-anchor="middle" x="253.56" y="-63.5" font-family="Helvetica,sans-Serif" font-size="10.00">cmath</text>
</a>
</g>
</g>
<!-- Node9&#45;&gt;Node11 -->
<g id="edge14" class="edge">
<title>Node9&#45;&gt;Node11</title>
<path fill="none" stroke="midnightblue" d="M341.69,-112.32C324.85,-103.66 298.75,-90.24 279.32,-80.25"/>
<polygon fill="midnightblue" stroke="midnightblue" points="280.88,-77.12 270.39,-75.65 277.68,-83.34 280.88,-77.12"/>
</g>
<!-- Node12 -->
<g id="node12" class="node">
<title>Node12</title>
<g id="a_node12"><a xlink:title=" ">
<polygon fill="white" stroke="#bfbfbf" points="294.06,-56.5 294.06,-75.5 329.06,-75.5 329.06,-56.5 294.06,-56.5"/>
<text text-anchor="middle" x="311.56" y="-63.5" font-family="Helvetica,sans-Serif" font-size="10.00">ratio</text>
</a>
</g>
</g>
<!-- Node9&#45;&gt;Node12 -->
<g id="edge16" class="edge">
<title>Node9&#45;&gt;Node12</title>
<path fill="none" stroke="midnightblue" d="M350.8,-112.08C344.02,-104.3 334.02,-92.8 325.8,-83.37"/>
<polygon fill="midnightblue" stroke="midnightblue" points="328.38,-81 319.18,-75.75 323.1,-85.59 328.38,-81"/>
</g>
<!-- Node13 -->
<g id="node13" class="node">
<title>Node13</title>
<g id="a_node13"><a xlink:title=" ">
<polygon fill="white" stroke="#bfbfbf" points="347.56,-56.5 347.56,-75.5 409.56,-75.5 409.56,-56.5 347.56,-56.5"/>
<text text-anchor="middle" x="378.56" y="-63.5" font-family="Helvetica,sans-Serif" font-size="10.00">type_traits</text>
</a>
</g>
</g>
<!-- Node9&#45;&gt;Node13 -->
<g id="edge18" class="edge">
<title>Node9&#45;&gt;Node13</title>
<path fill="none" stroke="midnightblue" d="M361.86,-112.08C364.54,-104.85 368.41,-94.41 371.75,-85.4"/>
<polygon fill="midnightblue" stroke="midnightblue" points="375.13,-86.34 375.32,-75.75 368.56,-83.91 375.13,-86.34"/>
</g>
<!-- Node14&#45;&gt;Node2 -->
<g id="edge23" class="edge">
<title>Node14&#45;&gt;Node2</title>
<path fill="none" stroke="midnightblue" d="M574.66,-112.25C574.3,-98.05 571.36,-70.15 554.56,-56 506.52,-15.55 311.35,-11.01 234.69,-10.82"/>
<polygon fill="midnightblue" stroke="midnightblue" points="234.27,-7.32 224.27,-10.82 234.27,-14.32 234.27,-7.32"/>
</g>
<!-- Node14&#45;&gt;Node3 -->
<g id="edge24" class="edge">
<title>Node14&#45;&gt;Node3</title>
<path fill="none" stroke="midnightblue" d="M545.81,-117.35C485.76,-109.72 342.62,-91.5 222.56,-76 210.54,-74.45 197.35,-72.73 185.75,-71.22"/>
<polygon fill="midnightblue" stroke="midnightblue" points="185.99,-67.72 175.62,-69.89 185.08,-74.66 185.99,-67.72"/>
</g>
<!-- Node15 -->
<g id="node15" class="node">
<title>Node15</title>
<g id="a_node15"><a xlink:title=" ">
<polygon fill="white" stroke="#bfbfbf" points="671.56,-56.5 671.56,-75.5 709.56,-75.5 709.56,-56.5 671.56,-56.5"/>
<text text-anchor="middle" x="690.56" y="-63.5" font-family="Helvetica,sans-Serif" font-size="10.00">array</text>
</a>
</g>
</g>
<!-- Node14&#45;&gt;Node15 -->
<g id="edge21" class="edge">
<title>Node14&#45;&gt;Node15</title>
<path fill="none" stroke="midnightblue" d="M592.94,-112.44C611.78,-103.68 641.29,-89.94 662.94,-79.86"/>
<polygon fill="midnightblue" stroke="midnightblue" points="664.68,-82.91 672.26,-75.52 661.72,-76.56 664.68,-82.91"/>
</g>
<!-- Node16 -->
<g id="node16" class="node">
<title>Node16</title>
<g id="a_node16"><a xlink:title=" ">
<polygon fill="white" stroke="#bfbfbf" points="601.56,-56.5 601.56,-75.5 653.56,-75.5 653.56,-56.5 601.56,-56.5"/>
<text text-anchor="middle" x="627.56" y="-63.5" font-family="Helvetica,sans-Serif" font-size="10.00">ostream</text>
</a>
</g>
</g>
<!-- Node14&#45;&gt;Node16 -->
<g id="edge22" class="edge">
<title>Node14&#45;&gt;Node16</title>
<path fill="none" stroke="midnightblue" d="M583.31,-112.08C591.03,-104.22 602.46,-92.57 611.78,-83.08"/>
<polygon fill="midnightblue" stroke="midnightblue" points="614.46,-85.34 618.97,-75.75 609.47,-80.44 614.46,-85.34"/>
</g>
<!-- Node17&#45;&gt;Node4 -->
<g id="edge26" class="edge">
<title>Node17&#45;&gt;Node4</title>
<path fill="none" stroke="midnightblue" d="M92.69,-168.08C96.07,-160.77 100.98,-150.18 105.18,-141.1"/>
<polygon fill="midnightblue" stroke="midnightblue" points="108.48,-142.3 109.51,-131.75 102.13,-139.36 108.48,-142.3"/>
</g>
</g>
</svg>
