<?xml version="1.0" encoding="UTF-8" standalone="no"?>
<!DOCTYPE svg PUBLIC "-//W3C//DTD SVG 1.1//EN"
 "http://www.w3.org/Graphics/SVG/1.1/DTD/svg11.dtd">
<!-- Generated by graphviz version 2.47.1 (20210417.1919)
 -->
<!-- Title: AtcfLine.cpp Pages: 1 -->
<!--zoomable 207 -->
<svg id="main" version="1.1" xmlns="http://www.w3.org/2000/svg" xmlns:xlink="http://www.w3.org/1999/xlink" xml:space="preserve" onload="init(evt)">
<style type="text/css"><![CDATA[
.edge:hover path { stroke: red; }
.edge:hover polygon { stroke: red; fill: red; }
]]></style>
<script type="text/javascript"><![CDATA[
var edges = document.getElementsByTagName('g');
if (edges && edges.length) {
  for (var i=0;i<edges.length;i++) {
    if (edges[i].id.substr(0,4)=='edge') {
      edges[i].setAttribute('class','edge');
    }
  }
}
]]></script>
        <defs>
                <circle id="rim" cx="0" cy="0" r="7"/>
                <circle id="rim2" cx="0" cy="0" r="3.5"/>
                <g id="zoomPlus">
                        <use xlink:href="#rim" fill="#404040">
                                <set attributeName="fill" to="#808080" begin="zoomplus.mouseover" end="zoomplus.mouseout"/>
                        </use>
                        <path d="M-4,0h8M0,-4v8" fill="none" stroke="white" stroke-width="1.5" pointer-events="none"/>
                </g>
                <g id="zoomMin">
                        <use xlink:href="#rim" fill="#404040">
                                <set attributeName="fill" to="#808080" begin="zoomminus.mouseover" end="zoomminus.mouseout"/>
                        </use>
                        <path d="M-4,0h8" fill="none" stroke="white" stroke-width="1.5" pointer-events="none"/>
                </g>
                <g id="dirArrow">
                        <path fill="none" stroke="white" stroke-width="1.5" d="M0,-3.0v7 M-2.5,-0.5L0,-3.0L2.5,-0.5"/>
                </g>
               <g id="resetDef">
                       <use xlink:href="#rim2" fill="#404040">
                               <set attributeName="fill" to="#808080" begin="reset.mouseover" end="reset.mouseout"/>
                       </use>
               </g>
        </defs>

<script type="text/javascript">
var viewWidth = 766;
var viewHeight = 207;
var sectionId = 'dynsection-0';
</script>
<script xlink:href="svgpan.js"/>
<svg id="graph" class="graph">
<g id="viewport">
<title>AtcfLine.cpp</title>
<polygon fill="white" stroke="transparent" points="-4,4 -4,-203 762,-203 762,4 -4,4"/>
<!-- Node1 -->
<g id="node1" class="node">
<title>Node1</title>
<g id="a_node1"><a xlink:title=" ">
<polygon fill="#bfbfbf" stroke="black" points="435.5,-179.5 435.5,-198.5 506.5,-198.5 506.5,-179.5 435.5,-179.5"/>
<text text-anchor="middle" x="471" y="-186.5" font-family="Helvetica,sans-Serif" font-size="10.00">AtcfLine.cpp</text>
</a>
</g>
</g>
<!-- Node2 -->
<g id="node2" class="node">
<title>Node2</title>
<g id="a_node2"><a xlink:href="AtcfLine_8h.html" target="_top" xlink:title=" ">
<polygon fill="white" stroke="black" points="293.5,-118 293.5,-137 354.5,-137 354.5,-118 293.5,-118"/>
<text text-anchor="middle" x="324" y="-125" font-family="Helvetica,sans-Serif" font-size="10.00">AtcfLine.h</text>
</a>
</g>
</g>
<!-- Node1&#45;&gt;Node2 -->
<g id="edge1" class="edge">
<title>Node1&#45;&gt;Node2</title>
<path fill="none" stroke="midnightblue" d="M449.94,-179.48C424.94,-169.36 383.06,-152.4 354.51,-140.85"/>
<polygon fill="midnightblue" stroke="midnightblue" points="355.61,-137.52 345.02,-137.01 352.98,-144.01 355.61,-137.52"/>
</g>
<!-- Node15 -->
<g id="node15" class="node">
<title>Node15</title>
<g id="a_node15"><a xlink:title=" ">
<polygon fill="white" stroke="#bfbfbf" points="372.5,-118 372.5,-137 421.5,-137 421.5,-118 372.5,-118"/>
<text text-anchor="middle" x="397" y="-125" font-family="Helvetica,sans-Serif" font-size="10.00">cassert</text>
</a>
</g>
</g>
<!-- Node1&#45;&gt;Node15 -->
<g id="edge19" class="edge">
<title>Node1&#45;&gt;Node15</title>
<path fill="none" stroke="midnightblue" d="M460.4,-179.48C448.75,-170.11 429.81,-154.88 415.67,-143.51"/>
<polygon fill="midnightblue" stroke="midnightblue" points="417.57,-140.55 407.58,-137.01 413.18,-146 417.57,-140.55"/>
</g>
<!-- Node16 -->
<g id="node16" class="node">
<title>Node16</title>
<g id="a_node16"><a xlink:href="Physical_8h.html" target="_top" xlink:title=" ">
<polygon fill="white" stroke="black" points="440,-118 440,-137 502,-137 502,-118 440,-118"/>
<text text-anchor="middle" x="471" y="-125" font-family="Helvetica,sans-Serif" font-size="10.00">Physical.h</text>
</a>
</g>
</g>
<!-- Node1&#45;&gt;Node16 -->
<g id="edge20" class="edge">
<title>Node1&#45;&gt;Node16</title>
<path fill="none" stroke="midnightblue" d="M471,-179.48C471,-171.08 471,-157.98 471,-147.16"/>
<polygon fill="midnightblue" stroke="midnightblue" points="474.5,-147.01 471,-137.01 467.5,-147.01 474.5,-147.01"/>
</g>
<!-- Node18 -->
<g id="node18" class="node">
<title>Node18</title>
<g id="a_node18"><a xlink:title=" ">
<polygon fill="white" stroke="#bfbfbf" points="520,-112.5 520,-142.5 630,-142.5 630,-112.5 520,-112.5"/>
<text text-anchor="start" x="528" y="-130.5" font-family="Helvetica,sans-Serif" font-size="10.00">boost/algorithm/string</text>
<text text-anchor="middle" x="575" y="-119.5" font-family="Helvetica,sans-Serif" font-size="10.00">/split.hpp</text>
</a>
</g>
</g>
<!-- Node1&#45;&gt;Node18 -->
<g id="edge24" class="edge">
<title>Node1&#45;&gt;Node18</title>
<path fill="none" stroke="midnightblue" d="M485.9,-179.48C500.38,-171.19 522.87,-158.32 541.63,-147.59"/>
<polygon fill="midnightblue" stroke="midnightblue" points="543.55,-150.53 550.49,-142.52 540.07,-144.45 543.55,-150.53"/>
</g>
<!-- Node19 -->
<g id="node19" class="node">
<title>Node19</title>
<g id="a_node19"><a xlink:title=" ">
<polygon fill="white" stroke="#bfbfbf" points="648,-112.5 648,-142.5 758,-142.5 758,-112.5 648,-112.5"/>
<text text-anchor="start" x="656" y="-130.5" font-family="Helvetica,sans-Serif" font-size="10.00">boost/algorithm/string</text>
<text text-anchor="middle" x="703" y="-119.5" font-family="Helvetica,sans-Serif" font-size="10.00">/trim.hpp</text>
</a>
</g>
</g>
<!-- Node1&#45;&gt;Node19 -->
<g id="edge25" class="edge">
<title>Node1&#45;&gt;Node19</title>
<path fill="none" stroke="midnightblue" d="M504.24,-179.48C539.11,-170.53 594.8,-156.25 638.38,-145.07"/>
<polygon fill="midnightblue" stroke="midnightblue" points="639.51,-148.4 648.32,-142.52 637.77,-141.62 639.51,-148.4"/>
</g>
<!-- Node3 -->
<g id="node3" class="node">
<title>Node3</title>
<g id="a_node3"><a xlink:title=" ">
<polygon fill="white" stroke="#bfbfbf" points="446,-0.5 446,-19.5 500,-19.5 500,-0.5 446,-0.5"/>
<text text-anchor="middle" x="473" y="-7.5" font-family="Helvetica,sans-Serif" font-size="10.00">iostream</text>
</a>
</g>
</g>
<!-- Node2&#45;&gt;Node3 -->
<g id="edge2" class="edge">
<title>Node2&#45;&gt;Node3</title>
<path fill="none" stroke="midnightblue" d="M331.4,-118C343.85,-104.01 370.13,-75.74 396,-56 411.9,-43.86 431.36,-32.52 446.74,-24.25"/>
<polygon fill="midnightblue" stroke="midnightblue" points="448.5,-27.28 455.72,-19.53 445.24,-21.09 448.5,-27.28"/>
</g>
<!-- Node4 -->
<g id="node4" class="node">
<title>Node4</title>
<g id="a_node4"><a xlink:title=" ">
<polygon fill="white" stroke="#bfbfbf" points="126.5,-0.5 126.5,-19.5 167.5,-19.5 167.5,-0.5 126.5,-0.5"/>
<text text-anchor="middle" x="147" y="-7.5" font-family="Helvetica,sans-Serif" font-size="10.00">string</text>
</a>
</g>
</g>
<!-- Node2&#45;&gt;Node4 -->
<g id="edge3" class="edge">
<title>Node2&#45;&gt;Node4</title>
<path fill="none" stroke="midnightblue" d="M310.7,-117.82C280.46,-98.09 206.31,-49.7 169.08,-25.41"/>
<polygon fill="midnightblue" stroke="midnightblue" points="170.75,-22.32 160.46,-19.78 166.92,-28.18 170.75,-22.32"/>
</g>
<!-- Node5 -->
<g id="node5" class="node">
<title>Node5</title>
<g id="a_node5"><a xlink:title=" ">
<polygon fill="white" stroke="#bfbfbf" points="405,-56.5 405,-75.5 443,-75.5 443,-56.5 405,-56.5"/>
<text text-anchor="middle" x="424" y="-63.5" font-family="Helvetica,sans-Serif" font-size="10.00">tuple</text>
</a>
</g>
</g>
<!-- Node2&#45;&gt;Node5 -->
<g id="edge4" class="edge">
<title>Node2&#45;&gt;Node5</title>
<path fill="none" stroke="midnightblue" d="M338.33,-117.98C354.66,-108.25 381.6,-92.23 400.91,-80.74"/>
<polygon fill="midnightblue" stroke="midnightblue" points="402.89,-83.63 409.7,-75.51 399.32,-77.61 402.89,-83.63"/>
</g>
<!-- Node6 -->
<g id="node6" class="node">
<title>Node6</title>
<g id="a_node6"><a xlink:title=" ">
<polygon fill="white" stroke="#bfbfbf" points="186,-0.5 186,-19.5 230,-19.5 230,-0.5 186,-0.5"/>
<text text-anchor="middle" x="208" y="-7.5" font-family="Helvetica,sans-Serif" font-size="10.00">vector</text>
</a>
</g>
</g>
<!-- Node2&#45;&gt;Node6 -->
<g id="edge5" class="edge">
<title>Node2&#45;&gt;Node6</title>
<path fill="none" stroke="midnightblue" d="M315.28,-117.82C295.88,-98.5 248.91,-51.74 224.05,-26.98"/>
<polygon fill="midnightblue" stroke="midnightblue" points="226.38,-24.36 216.82,-19.78 221.44,-29.32 226.38,-24.36"/>
</g>
<!-- Node7 -->
<g id="node7" class="node">
<title>Node7</title>
<g id="a_node7"><a xlink:href="Date_8h.html" target="_top" xlink:title=" ">
<polygon fill="white" stroke="black" points="302,-56.5 302,-75.5 348,-75.5 348,-56.5 302,-56.5"/>
<text text-anchor="middle" x="325" y="-63.5" font-family="Helvetica,sans-Serif" font-size="10.00">Date.h</text>
</a>
</g>
</g>
<!-- Node2&#45;&gt;Node7 -->
<g id="edge6" class="edge">
<title>Node2&#45;&gt;Node7</title>
<path fill="none" stroke="midnightblue" d="M324.14,-117.98C324.28,-109.58 324.5,-96.48 324.69,-85.66"/>
<polygon fill="midnightblue" stroke="midnightblue" points="328.19,-85.57 324.86,-75.51 321.19,-85.45 328.19,-85.57"/>
</g>
<!-- Node12 -->
<g id="node12" class="node">
<title>Node12</title>
<g id="a_node12"><a xlink:href="Isotach_8h.html" target="_top" xlink:title=" ">
<polygon fill="white" stroke="black" points="118.5,-56.5 118.5,-75.5 175.5,-75.5 175.5,-56.5 118.5,-56.5"/>
<text text-anchor="middle" x="147" y="-63.5" font-family="Helvetica,sans-Serif" font-size="10.00">Isotach.h</text>
</a>
</g>
</g>
<!-- Node2&#45;&gt;Node12 -->
<g id="edge14" class="edge">
<title>Node2&#45;&gt;Node12</title>
<path fill="none" stroke="midnightblue" d="M298.64,-117.98C268.02,-107.68 216.34,-90.31 181.95,-78.75"/>
<polygon fill="midnightblue" stroke="midnightblue" points="182.91,-75.38 172.31,-75.51 180.68,-82.01 182.91,-75.38"/>
</g>
<!-- Node7&#45;&gt;Node3 -->
<g id="edge9" class="edge">
<title>Node7&#45;&gt;Node3</title>
<path fill="none" stroke="midnightblue" d="M348.12,-56.56C372.74,-47.58 411.92,-33.29 439.83,-23.1"/>
<polygon fill="midnightblue" stroke="midnightblue" points="441.35,-26.27 449.55,-19.56 438.96,-19.7 441.35,-26.27"/>
</g>
<!-- Node7&#45;&gt;Node4 -->
<g id="edge11" class="edge">
<title>Node7&#45;&gt;Node4</title>
<path fill="none" stroke="midnightblue" d="M301.73,-57.94C269.82,-48.26 212.45,-30.86 177.25,-20.18"/>
<polygon fill="midnightblue" stroke="midnightblue" points="178.1,-16.78 167.52,-17.22 176.07,-23.48 178.1,-16.78"/>
</g>
<!-- Node7&#45;&gt;Node6 -->
<g id="edge13" class="edge">
<title>Node7&#45;&gt;Node6</title>
<path fill="none" stroke="midnightblue" d="M306.46,-56.44C287.38,-47.64 257.43,-33.81 235.56,-23.72"/>
<polygon fill="midnightblue" stroke="midnightblue" points="237,-20.53 226.45,-19.52 234.07,-26.88 237,-20.53"/>
</g>
<!-- Node8 -->
<g id="node8" class="node">
<title>Node8</title>
<g id="a_node8"><a xlink:title=" ">
<polygon fill="white" stroke="#bfbfbf" points="248,-0.5 248,-19.5 294,-19.5 294,-0.5 248,-0.5"/>
<text text-anchor="middle" x="271" y="-7.5" font-family="Helvetica,sans-Serif" font-size="10.00">chrono</text>
</a>
</g>
</g>
<!-- Node7&#45;&gt;Node8 -->
<g id="edge7" class="edge">
<title>Node7&#45;&gt;Node8</title>
<path fill="none" stroke="midnightblue" d="M316.08,-56.08C308.22,-48.22 296.57,-36.57 287.08,-27.08"/>
<polygon fill="midnightblue" stroke="midnightblue" points="289.3,-24.35 279.75,-19.75 284.35,-29.3 289.3,-24.35"/>
</g>
<!-- Node9 -->
<g id="node9" class="node">
<title>Node9</title>
<g id="a_node9"><a xlink:title=" ">
<polygon fill="white" stroke="#bfbfbf" points="518,-0.5 518,-19.5 562,-19.5 562,-0.5 518,-0.5"/>
<text text-anchor="middle" x="540" y="-7.5" font-family="Helvetica,sans-Serif" font-size="10.00">cmath</text>
</a>
</g>
</g>
<!-- Node7&#45;&gt;Node9 -->
<g id="edge8" class="edge">
<title>Node7&#45;&gt;Node9</title>
<path fill="none" stroke="midnightblue" d="M348.03,-59.7C381.24,-51.99 444.74,-36.97 507.95,-20.2"/>
<polygon fill="midnightblue" stroke="midnightblue" points="508.92,-23.56 517.68,-17.6 507.12,-16.8 508.92,-23.56"/>
</g>
<!-- Node10 -->
<g id="node10" class="node">
<title>Node10</title>
<g id="a_node10"><a xlink:title=" ">
<polygon fill="white" stroke="#bfbfbf" points="312.5,-0.5 312.5,-19.5 347.5,-19.5 347.5,-0.5 312.5,-0.5"/>
<text text-anchor="middle" x="330" y="-7.5" font-family="Helvetica,sans-Serif" font-size="10.00">ratio</text>
</a>
</g>
</g>
<!-- Node7&#45;&gt;Node10 -->
<g id="edge10" class="edge">
<title>Node7&#45;&gt;Node10</title>
<path fill="none" stroke="midnightblue" d="M325.83,-56.08C326.48,-49.01 327.42,-38.86 328.24,-29.99"/>
<polygon fill="midnightblue" stroke="midnightblue" points="331.75,-30.03 329.19,-19.75 324.78,-29.39 331.75,-30.03"/>
</g>
<!-- Node11 -->
<g id="node11" class="node">
<title>Node11</title>
<g id="a_node11"><a xlink:title=" ">
<polygon fill="white" stroke="#bfbfbf" points="366,-0.5 366,-19.5 428,-19.5 428,-0.5 366,-0.5"/>
<text text-anchor="middle" x="397" y="-7.5" font-family="Helvetica,sans-Serif" font-size="10.00">type_traits</text>
</a>
</g>
</g>
<!-- Node7&#45;&gt;Node11 -->
<g id="edge12" class="edge">
<title>Node7&#45;&gt;Node11</title>
<path fill="none" stroke="midnightblue" d="M336.57,-56.32C347.42,-48.18 363.88,-35.84 376.88,-26.09"/>
<polygon fill="midnightblue" stroke="midnightblue" points="379.32,-28.63 385.22,-19.83 375.12,-23.03 379.32,-28.63"/>
</g>
<!-- Node12&#45;&gt;Node4 -->
<g id="edge17" class="edge">
<title>Node12&#45;&gt;Node4</title>
<path fill="none" stroke="midnightblue" d="M147,-56.08C147,-49.01 147,-38.86 147,-29.99"/>
<polygon fill="midnightblue" stroke="midnightblue" points="150.5,-29.75 147,-19.75 143.5,-29.75 150.5,-29.75"/>
</g>
<!-- Node12&#45;&gt;Node6 -->
<g id="edge18" class="edge">
<title>Node12&#45;&gt;Node6</title>
<path fill="none" stroke="midnightblue" d="M156.8,-56.32C165.82,-48.34 179.41,-36.31 190.32,-26.65"/>
<polygon fill="midnightblue" stroke="midnightblue" points="192.85,-29.08 198.02,-19.83 188.21,-23.84 192.85,-29.08"/>
</g>
<!-- Node13 -->
<g id="node13" class="node">
<title>Node13</title>
<g id="a_node13"><a xlink:title=" ">
<polygon fill="white" stroke="#bfbfbf" points="0,-0.5 0,-19.5 38,-19.5 38,-0.5 0,-0.5"/>
<text text-anchor="middle" x="19" y="-7.5" font-family="Helvetica,sans-Serif" font-size="10.00">array</text>
</a>
</g>
</g>
<!-- Node12&#45;&gt;Node13 -->
<g id="edge15" class="edge">
<title>Node12&#45;&gt;Node13</title>
<path fill="none" stroke="midnightblue" d="M126.72,-56.44C105.4,-47.45 71.7,-33.23 47.67,-23.1"/>
<polygon fill="midnightblue" stroke="midnightblue" points="48.92,-19.83 38.35,-19.16 46.2,-26.27 48.92,-19.83"/>
</g>
<!-- Node14 -->
<g id="node14" class="node">
<title>Node14</title>
<g id="a_node14"><a xlink:title=" ">
<polygon fill="white" stroke="#bfbfbf" points="56,-0.5 56,-19.5 108,-19.5 108,-0.5 56,-0.5"/>
<text text-anchor="middle" x="82" y="-7.5" font-family="Helvetica,sans-Serif" font-size="10.00">ostream</text>
</a>
</g>
</g>
<!-- Node12&#45;&gt;Node14 -->
<g id="edge16" class="edge">
<title>Node12&#45;&gt;Node14</title>
<path fill="none" stroke="midnightblue" d="M136.56,-56.32C126.85,-48.26 112.18,-36.08 100.5,-26.37"/>
<polygon fill="midnightblue" stroke="midnightblue" points="102.56,-23.53 92.63,-19.83 98.09,-28.92 102.56,-23.53"/>
</g>
<!-- Node16&#45;&gt;Node5 -->
<g id="edge23" class="edge">
<title>Node16&#45;&gt;Node5</title>
<path fill="none" stroke="midnightblue" d="M464.27,-117.98C457.22,-109.05 445.97,-94.81 437.15,-83.64"/>
<polygon fill="midnightblue" stroke="midnightblue" points="439.67,-81.19 430.72,-75.51 434.17,-85.53 439.67,-81.19"/>
</g>
<!-- Node16&#45;&gt;Node9 -->
<g id="edge21" class="edge">
<title>Node16&#45;&gt;Node9</title>
<path fill="none" stroke="midnightblue" d="M471.77,-117.62C473.32,-103.6 477.8,-75.88 490,-56 497.18,-44.3 508.31,-33.86 518.25,-25.98"/>
<polygon fill="midnightblue" stroke="midnightblue" points="520.65,-28.56 526.55,-19.76 516.45,-22.96 520.65,-28.56"/>
</g>
<!-- Node17 -->
<g id="node17" class="node">
<title>Node17</title>
<g id="a_node17"><a xlink:title=" ">
<polygon fill="white" stroke="#bfbfbf" points="499,-56.5 499,-75.5 539,-75.5 539,-56.5 499,-56.5"/>
<text text-anchor="middle" x="519" y="-63.5" font-family="Helvetica,sans-Serif" font-size="10.00">limits</text>
</a>
</g>
</g>
<!-- Node16&#45;&gt;Node17 -->
<g id="edge22" class="edge">
<title>Node16&#45;&gt;Node17</title>
<path fill="none" stroke="midnightblue" d="M477.88,-117.98C485.15,-108.96 496.8,-94.52 505.84,-83.31"/>
<polygon fill="midnightblue" stroke="midnightblue" points="508.58,-85.49 512.14,-75.51 503.13,-81.09 508.58,-85.49"/>
</g>
</g>
</svg>
        <g id="navigator" transform="translate(0 0)" fill="#404254">
                <rect fill="#f2f5e9" fill-opacity="0.5" stroke="#606060" stroke-width=".5" x="0" y="0" width="60" height="60"/>
                <use id="zoomplus" xlink:href="#zoomPlus" x="17" y="9" onmousedown="handleZoom(evt,'in')"/>
                <use id="zoomminus" xlink:href="#zoomMin" x="42" y="9" onmousedown="handleZoom(evt,'out')"/>
                <use id="reset" xlink:href="#resetDef" x="30" y="36" onmousedown="handleReset()"/>
                <g id="arrowUp" xlink:href="#dirArrow" transform="translate(30 24)" onmousedown="handlePan(0,-1)">
                  <use xlink:href="#rim" fill="#404040">
                        <set attributeName="fill" to="#808080" begin="arrowUp.mouseover" end="arrowUp.mouseout"/>
                  </use>
                  <path fill="none" stroke="white" stroke-width="1.5" d="M0,-3.0v7 M-2.5,-0.5L0,-3.0L2.5,-0.5"/>
                </g>
                <g id="arrowRight" xlink:href="#dirArrow" transform="rotate(90) translate(36 -43)" onmousedown="handlePan(1,0)">
                  <use xlink:href="#rim" fill="#404040">
                        <set attributeName="fill" to="#808080" begin="arrowRight.mouseover" end="arrowRight.mouseout"/>
                  </use>
                  <path fill="none" stroke="white" stroke-width="1.5" d="M0,-3.0v7 M-2.5,-0.5L0,-3.0L2.5,-0.5"/>
                </g>
                <g id="arrowDown" xlink:href="#dirArrow" transform="rotate(180) translate(-30 -48)" onmousedown="handlePan(0,1)">
                  <use xlink:href="#rim" fill="#404040">
                        <set attributeName="fill" to="#808080" begin="arrowDown.mouseover" end="arrowDown.mouseout"/>
                  </use>
                  <path fill="none" stroke="white" stroke-width="1.5" d="M0,-3.0v7 M-2.5,-0.5L0,-3.0L2.5,-0.5"/>
                </g>
                <g id="arrowLeft" xlink:href="#dirArrow" transform="rotate(270) translate(-36 17)" onmousedown="handlePan(-1,0)">
                  <use xlink:href="#rim" fill="#404040">
                        <set attributeName="fill" to="#808080" begin="arrowLeft.mouseover" end="arrowLeft.mouseout"/>
                  </use>
                  <path fill="none" stroke="white" stroke-width="1.5" d="M0,-3.0v7 M-2.5,-0.5L0,-3.0L2.5,-0.5"/>
                </g>
        </g>
        <svg viewBox="0 0 15 15" width="100%" height="30px" preserveAspectRatio="xMaxYMin meet">
         <g id="arrow_out" transform="scale(0.3 0.3)">
          <a xlink:href="AtcfLine_8cpp__incl_org.svg" target="_base">
           <rect id="button" ry="5" rx="5" y="6" x="6" height="38" width="38"
                fill="#f2f5e9" fill-opacity="0.5" stroke="#606060" stroke-width="1.0"/>
           <path id="arrow"
             d="M 11.500037,31.436501 C 11.940474,20.09759 22.043105,11.32322 32.158766,21.979434 L 37.068811,17.246167 C 37.068811,17.246167 37.088388,32 37.088388,32 L 22.160133,31.978069 C 22.160133,31.978069 26.997745,27.140456 26.997745,27.140456 C 18.528582,18.264221 13.291696,25.230495 11.500037,31.436501 z"
             style="fill:#404040;"/>
          </a>
         </g>
        </svg>
</svg>
