<?xml version="1.0" encoding="UTF-8" standalone="no"?>
<!DOCTYPE svg PUBLIC "-//W3C//DTD SVG 1.1//EN"
 "http://www.w3.org/Graphics/SVG/1.1/DTD/svg11.dtd">
<!-- Generated by graphviz version 2.47.1 (20210417.1919)
 -->
<!-- Title: AtcfLine.h Pages: 1 -->
<svg width="841pt" height="196pt"
 viewBox="0.00 0.00 841.00 196.00" xmlns="http://www.w3.org/2000/svg" xmlns:xlink="http://www.w3.org/1999/xlink">
<g id="graph0" class="graph" transform="scale(1 1) rotate(0) translate(4 192)">
<title>AtcfLine.h</title>
<polygon fill="white" stroke="transparent" points="-4,4 -4,-192 837,-192 837,4 -4,4"/>
<!-- Node1 -->
<g id="node1" class="node">
<title>Node1</title>
<g id="a_node1"><a xlink:title=" ">
<polygon fill="#bfbfbf" stroke="black" points="292.5,-168.5 292.5,-187.5 353.5,-187.5 353.5,-168.5 292.5,-168.5"/>
<text text-anchor="middle" x="323" y="-175.5" font-family="Helvetica,sans-Serif" font-size="10.00">AtcfLine.h</text>
</a>
</g>
</g>
<!-- Node2 -->
<g id="node2" class="node">
<title>Node2</title>
<g id="a_node2"><a xlink:title=" ">
<polygon fill="white" stroke="#bfbfbf" points="0,-0.5 0,-19.5 38,-19.5 38,-0.5 0,-0.5"/>
<text text-anchor="middle" x="19" y="-7.5" font-family="Helvetica,sans-Serif" font-size="10.00">array</text>
</a>
</g>
</g>
<!-- Node1&#45;&gt;Node2 -->
<g id="edge1" class="edge">
<title>Node1&#45;&gt;Node2</title>
<path fill="none" stroke="midnightblue" d="M292.2,-177.67C228.61,-177.15 83.64,-165.68 23,-76 13.9,-62.55 13.76,-43.74 15.38,-29.81"/>
<polygon fill="midnightblue" stroke="midnightblue" points="18.84,-30.3 16.92,-19.88 11.93,-29.22 18.84,-30.3"/>
</g>
<!-- Node3 -->
<g id="node3" class="node">
<title>Node3</title>
<g id="a_node3"><a xlink:title=" ">
<polygon fill="white" stroke="#bfbfbf" points="337,-56.5 337,-75.5 391,-75.5 391,-56.5 337,-56.5"/>
<text text-anchor="middle" x="364" y="-63.5" font-family="Helvetica,sans-Serif" font-size="10.00">iostream</text>
</a>
</g>
</g>
<!-- Node1&#45;&gt;Node3 -->
<g id="edge2" class="edge">
<title>Node1&#45;&gt;Node3</title>
<path fill="none" stroke="midnightblue" d="M326.22,-168.37C332.86,-150.54 348.24,-109.3 357.19,-85.27"/>
<polygon fill="midnightblue" stroke="midnightblue" points="360.58,-86.18 360.8,-75.59 354.03,-83.74 360.58,-86.18"/>
</g>
<!-- Node4 -->
<g id="node4" class="node">
<title>Node4</title>
<g id="a_node4"><a xlink:title=" ">
<polygon fill="white" stroke="#bfbfbf" points="215.5,-56.5 215.5,-75.5 256.5,-75.5 256.5,-56.5 215.5,-56.5"/>
<text text-anchor="middle" x="236" y="-63.5" font-family="Helvetica,sans-Serif" font-size="10.00">string</text>
</a>
</g>
</g>
<!-- Node1&#45;&gt;Node4 -->
<g id="edge3" class="edge">
<title>Node1&#45;&gt;Node4</title>
<path fill="none" stroke="midnightblue" d="M316.17,-168.37C301.75,-150.14 267.97,-107.43 249.19,-83.68"/>
<polygon fill="midnightblue" stroke="midnightblue" points="251.74,-81.26 242.8,-75.59 246.25,-85.61 251.74,-81.26"/>
</g>
<!-- Node5 -->
<g id="node5" class="node">
<title>Node5</title>
<g id="a_node5"><a xlink:title=" ">
<polygon fill="white" stroke="#bfbfbf" points="669,-56.5 669,-75.5 707,-75.5 707,-56.5 669,-56.5"/>
<text text-anchor="middle" x="688" y="-63.5" font-family="Helvetica,sans-Serif" font-size="10.00">tuple</text>
</a>
</g>
</g>
<!-- Node1&#45;&gt;Node5 -->
<g id="edge4" class="edge">
<title>Node1&#45;&gt;Node5</title>
<path fill="none" stroke="midnightblue" d="M352.36,-168.41C409.41,-151.68 539.45,-113.32 659.04,-76.26"/>
<polygon fill="midnightblue" stroke="midnightblue" points="660.22,-79.55 668.74,-73.25 658.15,-72.87 660.22,-79.55"/>
</g>
<!-- Node6 -->
<g id="node6" class="node">
<title>Node6</title>
<g id="a_node6"><a xlink:title=" ">
<polygon fill="white" stroke="#bfbfbf" points="275,-56.5 275,-75.5 319,-75.5 319,-56.5 275,-56.5"/>
<text text-anchor="middle" x="297" y="-63.5" font-family="Helvetica,sans-Serif" font-size="10.00">vector</text>
</a>
</g>
</g>
<!-- Node1&#45;&gt;Node6 -->
<g id="edge5" class="edge">
<title>Node1&#45;&gt;Node6</title>
<path fill="none" stroke="midnightblue" d="M320.96,-168.37C316.76,-150.62 307.08,-109.67 301.4,-85.6"/>
<polygon fill="midnightblue" stroke="midnightblue" points="304.74,-84.52 299.03,-75.59 297.92,-86.13 304.74,-84.52"/>
</g>
<!-- Node7 -->
<g id="node7" class="node">
<title>Node7</title>
<g id="a_node7"><a xlink:href="Date_8h.html" target="_top" xlink:title=" ">
<polygon fill="white" stroke="black" points="400,-112.5 400,-131.5 446,-131.5 446,-112.5 400,-112.5"/>
<text text-anchor="middle" x="423" y="-119.5" font-family="Helvetica,sans-Serif" font-size="10.00">Date.h</text>
</a>
</g>
</g>
<!-- Node1&#45;&gt;Node7 -->
<g id="edge6" class="edge">
<title>Node1&#45;&gt;Node7</title>
<path fill="none" stroke="midnightblue" d="M339.07,-168.32C354.96,-159.74 379.51,-146.49 397.96,-136.52"/>
<polygon fill="midnightblue" stroke="midnightblue" points="399.84,-139.49 406.97,-131.65 396.51,-133.33 399.84,-139.49"/>
</g>
<!-- Node12 -->
<g id="node12" class="node">
<title>Node12</title>
<g id="a_node12"><a xlink:href="Isotach_8h.html" target="_top" xlink:title=" ">
<polygon fill="white" stroke="black" points="150.5,-112.5 150.5,-131.5 207.5,-131.5 207.5,-112.5 150.5,-112.5"/>
<text text-anchor="middle" x="179" y="-119.5" font-family="Helvetica,sans-Serif" font-size="10.00">Isotach.h</text>
</a>
</g>
</g>
<!-- Node1&#45;&gt;Node12 -->
<g id="edge14" class="edge">
<title>Node1&#45;&gt;Node12</title>
<path fill="none" stroke="midnightblue" d="M300.18,-168.44C276.17,-159.44 238.17,-145.19 211.13,-135.05"/>
<polygon fill="midnightblue" stroke="midnightblue" points="212.3,-131.75 201.71,-131.52 209.84,-138.3 212.3,-131.75"/>
</g>
<!-- Node15 -->
<g id="node15" class="node">
<title>Node15</title>
<g id="a_node15"><a xlink:href="Physical_8h.html" target="_top" xlink:title=" ">
<polygon fill="white" stroke="black" points="657,-112.5 657,-131.5 719,-131.5 719,-112.5 657,-112.5"/>
<text text-anchor="middle" x="688" y="-119.5" font-family="Helvetica,sans-Serif" font-size="10.00">Physical.h</text>
</a>
</g>
</g>
<!-- Node1&#45;&gt;Node15 -->
<g id="edge21" class="edge">
<title>Node1&#45;&gt;Node15</title>
<path fill="none" stroke="midnightblue" d="M353.81,-172.44C419.33,-162.75 572.57,-140.08 646.57,-129.13"/>
<polygon fill="midnightblue" stroke="midnightblue" points="647.51,-132.53 656.89,-127.6 646.49,-125.6 647.51,-132.53"/>
</g>
<!-- Node7&#45;&gt;Node3 -->
<g id="edge9" class="edge">
<title>Node7&#45;&gt;Node3</title>
<path fill="none" stroke="midnightblue" d="M413.52,-112.32C404.8,-104.34 391.66,-92.31 381.1,-82.65"/>
<polygon fill="midnightblue" stroke="midnightblue" points="383.39,-80 373.65,-75.83 378.67,-85.17 383.39,-80"/>
</g>
<!-- Node7&#45;&gt;Node4 -->
<g id="edge11" class="edge">
<title>Node7&#45;&gt;Node4</title>
<path fill="none" stroke="midnightblue" d="M399.83,-114.46C370.91,-106.27 319.71,-91.7 266.29,-76.06"/>
<polygon fill="midnightblue" stroke="midnightblue" points="267.23,-72.69 256.65,-73.23 265.26,-79.4 267.23,-72.69"/>
</g>
<!-- Node7&#45;&gt;Node6 -->
<g id="edge13" class="edge">
<title>Node7&#45;&gt;Node6</title>
<path fill="none" stroke="midnightblue" d="M403.03,-112.44C382.39,-103.6 349.94,-89.69 326.37,-79.59"/>
<polygon fill="midnightblue" stroke="midnightblue" points="327.44,-76.24 316.87,-75.52 324.68,-82.67 327.44,-76.24"/>
</g>
<!-- Node8 -->
<g id="node8" class="node">
<title>Node8</title>
<g id="a_node8"><a xlink:title=" ">
<polygon fill="white" stroke="#bfbfbf" points="409,-56.5 409,-75.5 455,-75.5 455,-56.5 409,-56.5"/>
<text text-anchor="middle" x="432" y="-63.5" font-family="Helvetica,sans-Serif" font-size="10.00">chrono</text>
</a>
</g>
</g>
<!-- Node7&#45;&gt;Node8 -->
<g id="edge7" class="edge">
<title>Node7&#45;&gt;Node8</title>
<path fill="none" stroke="midnightblue" d="M424.49,-112.08C425.68,-104.93 427.39,-94.64 428.88,-85.69"/>
<polygon fill="midnightblue" stroke="midnightblue" points="432.35,-86.19 430.54,-75.75 425.45,-85.04 432.35,-86.19"/>
</g>
<!-- Node9 -->
<g id="node9" class="node">
<title>Node9</title>
<g id="a_node9"><a xlink:title=" ">
<polygon fill="white" stroke="#bfbfbf" points="607,-56.5 607,-75.5 651,-75.5 651,-56.5 607,-56.5"/>
<text text-anchor="middle" x="629" y="-63.5" font-family="Helvetica,sans-Serif" font-size="10.00">cmath</text>
</a>
</g>
</g>
<!-- Node7&#45;&gt;Node9 -->
<g id="edge8" class="edge">
<title>Node7&#45;&gt;Node9</title>
<path fill="none" stroke="midnightblue" d="M446.27,-115.26C478.09,-107.36 537.18,-92.5 596.73,-76.29"/>
<polygon fill="midnightblue" stroke="midnightblue" points="597.95,-79.58 606.67,-73.57 596.1,-72.83 597.95,-79.58"/>
</g>
<!-- Node10 -->
<g id="node10" class="node">
<title>Node10</title>
<g id="a_node10"><a xlink:title=" ">
<polygon fill="white" stroke="#bfbfbf" points="473.5,-56.5 473.5,-75.5 508.5,-75.5 508.5,-56.5 473.5,-56.5"/>
<text text-anchor="middle" x="491" y="-63.5" font-family="Helvetica,sans-Serif" font-size="10.00">ratio</text>
</a>
</g>
</g>
<!-- Node7&#45;&gt;Node10 -->
<g id="edge10" class="edge">
<title>Node7&#45;&gt;Node10</title>
<path fill="none" stroke="midnightblue" d="M433.93,-112.32C444.17,-104.18 459.72,-91.84 472,-82.09"/>
<polygon fill="midnightblue" stroke="midnightblue" points="474.22,-84.79 479.88,-75.83 469.87,-79.31 474.22,-84.79"/>
</g>
<!-- Node11 -->
<g id="node11" class="node">
<title>Node11</title>
<g id="a_node11"><a xlink:title=" ">
<polygon fill="white" stroke="#bfbfbf" points="527,-56.5 527,-75.5 589,-75.5 589,-56.5 527,-56.5"/>
<text text-anchor="middle" x="558" y="-63.5" font-family="Helvetica,sans-Serif" font-size="10.00">type_traits</text>
</a>
</g>
</g>
<!-- Node7&#45;&gt;Node11 -->
<g id="edge12" class="edge">
<title>Node7&#45;&gt;Node11</title>
<path fill="none" stroke="midnightblue" d="M444.39,-112.44C466.71,-103.52 501.9,-89.44 527.21,-79.32"/>
<polygon fill="midnightblue" stroke="midnightblue" points="528.72,-82.48 536.71,-75.52 526.12,-75.98 528.72,-82.48"/>
</g>
<!-- Node12&#45;&gt;Node2 -->
<g id="edge15" class="edge">
<title>Node12&#45;&gt;Node2</title>
<path fill="none" stroke="midnightblue" d="M150.3,-119.57C118.54,-116.45 67.88,-106.62 38,-76 26.08,-63.78 21.57,-44.52 19.9,-30.13"/>
<polygon fill="midnightblue" stroke="midnightblue" points="23.36,-29.55 19.08,-19.86 16.38,-30.11 23.36,-29.55"/>
</g>
<!-- Node12&#45;&gt;Node4 -->
<g id="edge17" class="edge">
<title>Node12&#45;&gt;Node4</title>
<path fill="none" stroke="midnightblue" d="M188.16,-112.32C196.5,-104.42 209.03,-92.55 219.18,-82.94"/>
<polygon fill="midnightblue" stroke="midnightblue" points="221.82,-85.25 226.68,-75.83 217.01,-80.17 221.82,-85.25"/>
</g>
<!-- Node12&#45;&gt;Node6 -->
<g id="edge18" class="edge">
<title>Node12&#45;&gt;Node6</title>
<path fill="none" stroke="midnightblue" d="M197.7,-112.44C216.94,-103.64 247.15,-89.81 269.2,-79.72"/>
<polygon fill="midnightblue" stroke="midnightblue" points="270.75,-82.86 278.39,-75.52 267.84,-76.5 270.75,-82.86"/>
</g>
<!-- Node13 -->
<g id="node13" class="node">
<title>Node13</title>
<g id="a_node13"><a xlink:title=" ">
<polygon fill="white" stroke="#bfbfbf" points="47,-56.5 47,-75.5 99,-75.5 99,-56.5 47,-56.5"/>
<text text-anchor="middle" x="73" y="-63.5" font-family="Helvetica,sans-Serif" font-size="10.00">ostream</text>
</a>
</g>
</g>
<!-- Node12&#45;&gt;Node13 -->
<g id="edge16" class="edge">
<title>Node12&#45;&gt;Node13</title>
<path fill="none" stroke="midnightblue" d="M161.97,-112.32C144.97,-103.66 118.62,-90.24 99.01,-80.25"/>
<polygon fill="midnightblue" stroke="midnightblue" points="100.49,-77.08 89.99,-75.65 97.31,-83.31 100.49,-77.08"/>
</g>
<!-- Node14 -->
<g id="node14" class="node">
<title>Node14</title>
<g id="a_node14"><a xlink:href="CircularArray_8h.html" target="_top" xlink:title=" ">
<polygon fill="white" stroke="black" points="117,-56.5 117,-75.5 197,-75.5 197,-56.5 117,-56.5"/>
<text text-anchor="middle" x="157" y="-63.5" font-family="Helvetica,sans-Serif" font-size="10.00">CircularArray.h</text>
</a>
</g>
</g>
<!-- Node12&#45;&gt;Node14 -->
<g id="edge19" class="edge">
<title>Node12&#45;&gt;Node14</title>
<path fill="none" stroke="midnightblue" d="M175.37,-112.08C172.39,-104.77 168.07,-94.18 164.38,-85.1"/>
<polygon fill="midnightblue" stroke="midnightblue" points="167.58,-83.69 160.57,-75.75 161.1,-86.33 167.58,-83.69"/>
</g>
<!-- Node14&#45;&gt;Node2 -->
<g id="edge20" class="edge">
<title>Node14&#45;&gt;Node2</title>
<path fill="none" stroke="midnightblue" d="M135.13,-56.44C111.41,-47.16 73.45,-32.31 47.43,-22.13"/>
<polygon fill="midnightblue" stroke="midnightblue" points="48.69,-18.86 38.1,-18.47 46.13,-25.38 48.69,-18.86"/>
</g>
<!-- Node15&#45;&gt;Node5 -->
<g id="edge25" class="edge">
<title>Node15&#45;&gt;Node5</title>
<path fill="none" stroke="midnightblue" d="M688,-112.08C688,-105.01 688,-94.86 688,-85.99"/>
<polygon fill="midnightblue" stroke="midnightblue" points="691.5,-85.75 688,-75.75 684.5,-85.75 691.5,-85.75"/>
</g>
<!-- Node15&#45;&gt;Node9 -->
<g id="edge23" class="edge">
<title>Node15&#45;&gt;Node9</title>
<path fill="none" stroke="midnightblue" d="M678.52,-112.32C669.8,-104.34 656.66,-92.31 646.1,-82.65"/>
<polygon fill="midnightblue" stroke="midnightblue" points="648.39,-80 638.65,-75.83 643.67,-85.17 648.39,-80"/>
</g>
<!-- Node16 -->
<g id="node16" class="node">
<title>Node16</title>
<g id="a_node16"><a xlink:title=" ">
<polygon fill="white" stroke="#bfbfbf" points="725.5,-56.5 725.5,-75.5 774.5,-75.5 774.5,-56.5 725.5,-56.5"/>
<text text-anchor="middle" x="750" y="-63.5" font-family="Helvetica,sans-Serif" font-size="10.00">cassert</text>
</a>
</g>
</g>
<!-- Node15&#45;&gt;Node16 -->
<g id="edge22" class="edge">
<title>Node15&#45;&gt;Node16</title>
<path fill="none" stroke="midnightblue" d="M697.96,-112.32C707.13,-104.34 720.94,-92.31 732.03,-82.65"/>
<polygon fill="midnightblue" stroke="midnightblue" points="734.62,-85.04 739.86,-75.83 730.02,-79.76 734.62,-85.04"/>
</g>
<!-- Node17 -->
<g id="node17" class="node">
<title>Node17</title>
<g id="a_node17"><a xlink:title=" ">
<polygon fill="white" stroke="#bfbfbf" points="793,-56.5 793,-75.5 833,-75.5 833,-56.5 793,-56.5"/>
<text text-anchor="middle" x="813" y="-63.5" font-family="Helvetica,sans-Serif" font-size="10.00">limits</text>
</a>
</g>
</g>
<!-- Node15&#45;&gt;Node17 -->
<g id="edge24" class="edge">
<title>Node15&#45;&gt;Node17</title>
<path fill="none" stroke="midnightblue" d="M707.81,-112.44C728.29,-103.6 760.48,-89.69 783.86,-79.59"/>
<polygon fill="midnightblue" stroke="midnightblue" points="785.49,-82.7 793.29,-75.52 782.72,-76.27 785.49,-82.7"/>
</g>
</g>
</svg>
