<?xml version="1.0" encoding="UTF-8" standalone="no"?>
<!DOCTYPE svg PUBLIC "-//W3C//DTD SVG 1.1//EN"
 "http://www.w3.org/Graphics/SVG/1.1/DTD/svg11.dtd">
<!-- Generated by graphviz version 2.47.1 (20210417.1919)
 -->
<!-- Title: Atcf.h Pages: 1 -->
<!--zoomable 252 -->
<svg id="main" version="1.1" xmlns="http://www.w3.org/2000/svg" xmlns:xlink="http://www.w3.org/1999/xlink" xml:space="preserve" onload="init(evt)">
<style type="text/css"><![CDATA[
.edge:hover path { stroke: red; }
.edge:hover polygon { stroke: red; fill: red; }
]]></style>
<script type="text/javascript"><![CDATA[
var edges = document.getElementsByTagName('g');
if (edges && edges.length) {
  for (var i=0;i<edges.length;i++) {
    if (edges[i].id.substr(0,4)=='edge') {
      edges[i].setAttribute('class','edge');
    }
  }
}
]]></script>
        <defs>
                <circle id="rim" cx="0" cy="0" r="7"/>
                <circle id="rim2" cx="0" cy="0" r="3.5"/>
                <g id="zoomPlus">
                        <use xlink:href="#rim" fill="#404040">
                                <set attributeName="fill" to="#808080" begin="zoomplus.mouseover" end="zoomplus.mouseout"/>
                        </use>
                        <path d="M-4,0h8M0,-4v8" fill="none" stroke="white" stroke-width="1.5" pointer-events="none"/>
                </g>
                <g id="zoomMin">
                        <use xlink:href="#rim" fill="#404040">
                                <set attributeName="fill" to="#808080" begin="zoomminus.mouseover" end="zoomminus.mouseout"/>
                        </use>
                        <path d="M-4,0h8" fill="none" stroke="white" stroke-width="1.5" pointer-events="none"/>
                </g>
                <g id="dirArrow">
                        <path fill="none" stroke="white" stroke-width="1.5" d="M0,-3.0v7 M-2.5,-0.5L0,-3.0L2.5,-0.5"/>
                </g>
               <g id="resetDef">
                       <use xlink:href="#rim2" fill="#404040">
                               <set attributeName="fill" to="#808080" begin="reset.mouseover" end="reset.mouseout"/>
                       </use>
               </g>
        </defs>

<script type="text/javascript">
var viewWidth = 762;
var viewHeight = 252;
var sectionId = 'dynsection-0';
</script>
<script xlink:href="svgpan.js"/>
<svg id="graph" class="graph">
<g id="viewport">
<title>Atcf.h</title>
<polygon fill="white" stroke="transparent" points="-4,4 -4,-248 757.71,-248 757.71,4 -4,4"/>
<!-- Node1 -->
<g id="node1" class="node">
<title>Node1</title>
<g id="a_node1"><a xlink:title=" ">
<polygon fill="#bfbfbf" stroke="black" points="629.66,-224.5 629.66,-243.5 672.66,-243.5 672.66,-224.5 629.66,-224.5"/>
<text text-anchor="middle" x="651.16" y="-231.5" font-family="Helvetica,sans-Serif" font-size="10.00">Atcf.h</text>
</a>
</g>
</g>
<!-- Node2 -->
<g id="node2" class="node">
<title>Node2</title>
<g id="a_node2"><a xlink:title=" ">
<polygon fill="white" stroke="#bfbfbf" points="374.66,-0.5 374.66,-19.5 415.66,-19.5 415.66,-0.5 374.66,-0.5"/>
<text text-anchor="middle" x="395.16" y="-7.5" font-family="Helvetica,sans-Serif" font-size="10.00">string</text>
</a>
</g>
</g>
<!-- Node1&#45;&gt;Node2 -->
<g id="edge1" class="edge">
<title>Node1&#45;&gt;Node2</title>
<path fill="none" stroke="midnightblue" d="M672.7,-227.19C691.33,-220.9 717.11,-208.85 729.16,-188 751.25,-149.75 782.83,-130.88 698.16,-56 658.26,-20.72 495.33,-13.1 426.29,-11.45"/>
<polygon fill="midnightblue" stroke="midnightblue" points="426.13,-7.95 416.06,-11.24 425.98,-14.95 426.13,-7.95"/>
</g>
<!-- Node3 -->
<g id="node3" class="node">
<title>Node3</title>
<g id="a_node3"><a xlink:title=" ">
<polygon fill="white" stroke="#bfbfbf" points="549.16,-56.5 549.16,-75.5 593.16,-75.5 593.16,-56.5 549.16,-56.5"/>
<text text-anchor="middle" x="571.16" y="-63.5" font-family="Helvetica,sans-Serif" font-size="10.00">vector</text>
</a>
</g>
</g>
<!-- Node1&#45;&gt;Node3 -->
<g id="edge2" class="edge">
<title>Node1&#45;&gt;Node3</title>
<path fill="none" stroke="midnightblue" d="M632.23,-224.41C617.98,-216.9 599.23,-204.6 589.16,-188 569.76,-156.04 568.53,-110.81 569.65,-85.68"/>
<polygon fill="midnightblue" stroke="midnightblue" points="573.15,-85.87 570.27,-75.67 566.16,-85.43 573.15,-85.87"/>
</g>
<!-- Node4 -->
<g id="node4" class="node">
<title>Node4</title>
<g id="a_node4"><a xlink:href="Assumptions_8h.html" target="_top" xlink:title=" ">
<polygon fill="white" stroke="black" points="610.16,-112.5 610.16,-131.5 692.16,-131.5 692.16,-112.5 610.16,-112.5"/>
<text text-anchor="middle" x="651.16" y="-119.5" font-family="Helvetica,sans-Serif" font-size="10.00">Assumptions.h</text>
</a>
</g>
</g>
<!-- Node1&#45;&gt;Node4 -->
<g id="edge3" class="edge">
<title>Node1&#45;&gt;Node4</title>
<path fill="none" stroke="midnightblue" d="M670.74,-224.32C693.16,-213.02 725.34,-191.9 713.16,-168 706.16,-154.27 692.79,-143.75 680.26,-136.35"/>
<polygon fill="midnightblue" stroke="midnightblue" points="681.83,-133.22 671.38,-131.51 678.48,-139.37 681.83,-133.22"/>
</g>
<!-- Node6 -->
<g id="node6" class="node">
<title>Node6</title>
<g id="a_node6"><a xlink:href="AtcfLine_8h.html" target="_top" xlink:title=" ">
<polygon fill="white" stroke="black" points="384.66,-168.5 384.66,-187.5 445.66,-187.5 445.66,-168.5 384.66,-168.5"/>
<text text-anchor="middle" x="415.16" y="-175.5" font-family="Helvetica,sans-Serif" font-size="10.00">AtcfLine.h</text>
</a>
</g>
</g>
<!-- Node1&#45;&gt;Node6 -->
<g id="edge7" class="edge">
<title>Node1&#45;&gt;Node6</title>
<path fill="none" stroke="midnightblue" d="M629.38,-228.02C589.88,-218.98 505.87,-199.76 455.59,-188.25"/>
<polygon fill="midnightblue" stroke="midnightblue" points="456.23,-184.81 445.71,-185.99 454.67,-191.63 456.23,-184.81"/>
</g>
<!-- Node17 -->
<g id="node17" class="node">
<title>Node17</title>
<g id="a_node17"><a xlink:href="HurricanePressure_8h.html" target="_top" xlink:title=" ">
<polygon fill="white" stroke="black" points="598.16,-168.5 598.16,-187.5 704.16,-187.5 704.16,-168.5 598.16,-168.5"/>
<text text-anchor="middle" x="651.16" y="-175.5" font-family="Helvetica,sans-Serif" font-size="10.00">HurricanePressure.h</text>
</a>
</g>
</g>
<!-- Node1&#45;&gt;Node17 -->
<g id="edge26" class="edge">
<title>Node1&#45;&gt;Node17</title>
<path fill="none" stroke="midnightblue" d="M651.16,-224.08C651.16,-217.01 651.16,-206.86 651.16,-197.99"/>
<polygon fill="midnightblue" stroke="midnightblue" points="654.66,-197.75 651.16,-187.75 647.66,-197.75 654.66,-197.75"/>
</g>
<!-- Node4&#45;&gt;Node3 -->
<g id="edge4" class="edge">
<title>Node4&#45;&gt;Node3</title>
<path fill="none" stroke="midnightblue" d="M638.3,-112.32C625.94,-103.98 607.03,-91.21 592.42,-81.35"/>
<polygon fill="midnightblue" stroke="midnightblue" points="594.22,-78.35 583.98,-75.65 590.31,-84.15 594.22,-78.35"/>
</g>
<!-- Node5 -->
<g id="node5" class="node">
<title>Node5</title>
<g id="a_node5"><a xlink:href="Assumption_8h.html" target="_top" xlink:title=" ">
<polygon fill="white" stroke="black" points="612.66,-56.5 612.66,-75.5 689.66,-75.5 689.66,-56.5 612.66,-56.5"/>
<text text-anchor="middle" x="651.16" y="-63.5" font-family="Helvetica,sans-Serif" font-size="10.00">Assumption.h</text>
</a>
</g>
</g>
<!-- Node4&#45;&gt;Node5 -->
<g id="edge5" class="edge">
<title>Node4&#45;&gt;Node5</title>
<path fill="none" stroke="midnightblue" d="M651.16,-112.08C651.16,-105.01 651.16,-94.86 651.16,-85.99"/>
<polygon fill="midnightblue" stroke="midnightblue" points="654.66,-85.75 651.16,-75.75 647.66,-85.75 654.66,-85.75"/>
</g>
<!-- Node5&#45;&gt;Node2 -->
<g id="edge6" class="edge">
<title>Node5&#45;&gt;Node2</title>
<path fill="none" stroke="midnightblue" d="M612.55,-56.86C561.39,-46.06 472.16,-27.24 425.52,-17.41"/>
<polygon fill="midnightblue" stroke="midnightblue" points="426.21,-13.97 415.7,-15.33 424.77,-20.82 426.21,-13.97"/>
</g>
<!-- Node6&#45;&gt;Node2 -->
<g id="edge10" class="edge">
<title>Node6&#45;&gt;Node2</title>
<path fill="none" stroke="midnightblue" d="M384.42,-173.43C280.7,-160.8 -47.05,-115.71 6.16,-56 29.9,-29.35 276.43,-16.14 364.28,-12.26"/>
<polygon fill="midnightblue" stroke="midnightblue" points="364.58,-15.75 374.41,-11.82 364.27,-8.75 364.58,-15.75"/>
</g>
<!-- Node6&#45;&gt;Node3 -->
<g id="edge12" class="edge">
<title>Node6&#45;&gt;Node3</title>
<path fill="none" stroke="midnightblue" d="M433.68,-168.49C450.98,-160.19 477.23,-146.69 498.16,-132 519.28,-117.16 541.08,-97 555.29,-83.09"/>
<polygon fill="midnightblue" stroke="midnightblue" points="558.1,-85.24 562.72,-75.71 553.16,-80.27 558.1,-85.24"/>
</g>
<!-- Node7 -->
<g id="node7" class="node">
<title>Node7</title>
<g id="a_node7"><a xlink:title=" ">
<polygon fill="white" stroke="#bfbfbf" points="493.16,-56.5 493.16,-75.5 531.16,-75.5 531.16,-56.5 493.16,-56.5"/>
<text text-anchor="middle" x="512.16" y="-63.5" font-family="Helvetica,sans-Serif" font-size="10.00">array</text>
</a>
</g>
</g>
<!-- Node6&#45;&gt;Node7 -->
<g id="edge8" class="edge">
<title>Node6&#45;&gt;Node7</title>
<path fill="none" stroke="midnightblue" d="M430.38,-168.36C443.68,-160.25 462.87,-147.13 476.16,-132 488.5,-117.94 498.41,-98.95 504.68,-85.13"/>
<polygon fill="midnightblue" stroke="midnightblue" points="507.99,-86.3 508.75,-75.73 501.57,-83.52 507.99,-86.3"/>
</g>
<!-- Node8 -->
<g id="node8" class="node">
<title>Node8</title>
<g id="a_node8"><a xlink:title=" ">
<polygon fill="white" stroke="#bfbfbf" points="15.16,-56.5 15.16,-75.5 69.16,-75.5 69.16,-56.5 15.16,-56.5"/>
<text text-anchor="middle" x="42.16" y="-63.5" font-family="Helvetica,sans-Serif" font-size="10.00">iostream</text>
</a>
</g>
</g>
<!-- Node6&#45;&gt;Node8 -->
<g id="edge9" class="edge">
<title>Node6&#45;&gt;Node8</title>
<path fill="none" stroke="midnightblue" d="M384.6,-169.93C349.17,-161.57 289.13,-146.91 238.16,-132 180.67,-115.18 114.74,-92.63 75.87,-78.99"/>
<polygon fill="midnightblue" stroke="midnightblue" points="76.72,-75.58 66.12,-75.56 74.39,-82.18 76.72,-75.58"/>
</g>
<!-- Node9 -->
<g id="node9" class="node">
<title>Node9</title>
<g id="a_node9"><a xlink:title=" ">
<polygon fill="white" stroke="#bfbfbf" points="429.16,-112.5 429.16,-131.5 467.16,-131.5 467.16,-112.5 429.16,-112.5"/>
<text text-anchor="middle" x="448.16" y="-119.5" font-family="Helvetica,sans-Serif" font-size="10.00">tuple</text>
</a>
</g>
</g>
<!-- Node6&#45;&gt;Node9 -->
<g id="edge11" class="edge">
<title>Node6&#45;&gt;Node9</title>
<path fill="none" stroke="midnightblue" d="M420.6,-168.08C425.17,-160.61 431.82,-149.72 437.45,-140.52"/>
<polygon fill="midnightblue" stroke="midnightblue" points="440.58,-142.11 442.81,-131.75 434.61,-138.46 440.58,-142.11"/>
</g>
<!-- Node10 -->
<g id="node10" class="node">
<title>Node10</title>
<g id="a_node10"><a xlink:href="Date_8h.html" target="_top" xlink:title=" ">
<polygon fill="white" stroke="black" points="247.16,-112.5 247.16,-131.5 293.16,-131.5 293.16,-112.5 247.16,-112.5"/>
<text text-anchor="middle" x="270.16" y="-119.5" font-family="Helvetica,sans-Serif" font-size="10.00">Date.h</text>
</a>
</g>
</g>
<!-- Node6&#45;&gt;Node10 -->
<g id="edge13" class="edge">
<title>Node6&#45;&gt;Node10</title>
<path fill="none" stroke="midnightblue" d="M392.18,-168.44C368,-159.44 329.74,-145.19 302.51,-135.05"/>
<polygon fill="midnightblue" stroke="midnightblue" points="303.62,-131.73 293.02,-131.52 301.17,-138.29 303.62,-131.73"/>
</g>
<!-- Node15 -->
<g id="node15" class="node">
<title>Node15</title>
<g id="a_node15"><a xlink:href="Isotach_8h.html" target="_top" xlink:title=" ">
<polygon fill="white" stroke="black" points="353.66,-112.5 353.66,-131.5 410.66,-131.5 410.66,-112.5 353.66,-112.5"/>
<text text-anchor="middle" x="382.16" y="-119.5" font-family="Helvetica,sans-Serif" font-size="10.00">Isotach.h</text>
</a>
</g>
</g>
<!-- Node6&#45;&gt;Node15 -->
<g id="edge21" class="edge">
<title>Node6&#45;&gt;Node15</title>
<path fill="none" stroke="midnightblue" d="M409.71,-168.08C405.14,-160.61 398.49,-149.72 392.86,-140.52"/>
<polygon fill="midnightblue" stroke="midnightblue" points="395.7,-138.46 387.5,-131.75 389.73,-142.11 395.7,-138.46"/>
</g>
<!-- Node10&#45;&gt;Node2 -->
<g id="edge18" class="edge">
<title>Node10&#45;&gt;Node2</title>
<path fill="none" stroke="midnightblue" d="M285.56,-112.41C299.91,-104.06 321.52,-90.52 338.16,-76 355.04,-61.26 371.61,-41.61 382.5,-27.78"/>
<polygon fill="midnightblue" stroke="midnightblue" points="385.44,-29.7 388.78,-19.65 379.9,-25.43 385.44,-29.7"/>
</g>
<!-- Node10&#45;&gt;Node3 -->
<g id="edge20" class="edge">
<title>Node10&#45;&gt;Node3</title>
<path fill="none" stroke="midnightblue" d="M293.45,-118.06C338.88,-112.12 442.61,-97.58 538.98,-76.05"/>
<polygon fill="midnightblue" stroke="midnightblue" points="539.91,-79.43 548.89,-73.8 538.36,-72.6 539.91,-79.43"/>
</g>
<!-- Node10&#45;&gt;Node8 -->
<g id="edge16" class="edge">
<title>Node10&#45;&gt;Node8</title>
<path fill="none" stroke="midnightblue" d="M247.08,-115.71C212.69,-107.79 145.71,-92.29 79.09,-76.2"/>
<polygon fill="midnightblue" stroke="midnightblue" points="79.81,-72.77 69.27,-73.82 78.17,-79.58 79.81,-72.77"/>
</g>
<!-- Node11 -->
<g id="node11" class="node">
<title>Node11</title>
<g id="a_node11"><a xlink:title=" ">
<polygon fill="white" stroke="#bfbfbf" points="283.16,-56.5 283.16,-75.5 329.16,-75.5 329.16,-56.5 283.16,-56.5"/>
<text text-anchor="middle" x="306.16" y="-63.5" font-family="Helvetica,sans-Serif" font-size="10.00">chrono</text>
</a>
</g>
</g>
<!-- Node10&#45;&gt;Node11 -->
<g id="edge14" class="edge">
<title>Node10&#45;&gt;Node11</title>
<path fill="none" stroke="midnightblue" d="M276.1,-112.08C281.13,-104.53 288.49,-93.49 294.67,-84.23"/>
<polygon fill="midnightblue" stroke="midnightblue" points="297.69,-86.01 300.32,-75.75 291.86,-82.13 297.69,-86.01"/>
</g>
<!-- Node12 -->
<g id="node12" class="node">
<title>Node12</title>
<g id="a_node12"><a xlink:title=" ">
<polygon fill="white" stroke="#bfbfbf" points="87.16,-56.5 87.16,-75.5 131.16,-75.5 131.16,-56.5 87.16,-56.5"/>
<text text-anchor="middle" x="109.16" y="-63.5" font-family="Helvetica,sans-Serif" font-size="10.00">cmath</text>
</a>
</g>
</g>
<!-- Node10&#45;&gt;Node12 -->
<g id="edge15" class="edge">
<title>Node10&#45;&gt;Node12</title>
<path fill="none" stroke="midnightblue" d="M247.09,-113.26C219.24,-103.92 172.24,-88.16 140.96,-77.67"/>
<polygon fill="midnightblue" stroke="midnightblue" points="142,-74.32 131.4,-74.46 139.77,-80.96 142,-74.32"/>
</g>
<!-- Node13 -->
<g id="node13" class="node">
<title>Node13</title>
<g id="a_node13"><a xlink:title=" ">
<polygon fill="white" stroke="#bfbfbf" points="149.66,-56.5 149.66,-75.5 184.66,-75.5 184.66,-56.5 149.66,-56.5"/>
<text text-anchor="middle" x="167.16" y="-63.5" font-family="Helvetica,sans-Serif" font-size="10.00">ratio</text>
</a>
</g>
</g>
<!-- Node10&#45;&gt;Node13 -->
<g id="edge17" class="edge">
<title>Node10&#45;&gt;Node13</title>
<path fill="none" stroke="midnightblue" d="M253.61,-112.32C237.16,-103.7 211.72,-90.36 192.69,-80.39"/>
<polygon fill="midnightblue" stroke="midnightblue" points="194.14,-77.2 183.66,-75.65 190.89,-83.4 194.14,-77.2"/>
</g>
<!-- Node14 -->
<g id="node14" class="node">
<title>Node14</title>
<g id="a_node14"><a xlink:title=" ">
<polygon fill="white" stroke="#bfbfbf" points="203.16,-56.5 203.16,-75.5 265.16,-75.5 265.16,-56.5 203.16,-56.5"/>
<text text-anchor="middle" x="234.16" y="-63.5" font-family="Helvetica,sans-Serif" font-size="10.00">type_traits</text>
</a>
</g>
</g>
<!-- Node10&#45;&gt;Node14 -->
<g id="edge19" class="edge">
<title>Node10&#45;&gt;Node14</title>
<path fill="none" stroke="midnightblue" d="M264.21,-112.08C259.18,-104.53 251.82,-93.49 245.64,-84.23"/>
<polygon fill="midnightblue" stroke="midnightblue" points="248.45,-82.13 239.99,-75.75 242.62,-86.01 248.45,-82.13"/>
</g>
<!-- Node15&#45;&gt;Node2 -->
<g id="edge24" class="edge">
<title>Node15&#45;&gt;Node2</title>
<path fill="none" stroke="midnightblue" d="M383.18,-112.37C385.27,-94.62 390.11,-53.67 392.96,-29.6"/>
<polygon fill="midnightblue" stroke="midnightblue" points="396.44,-29.93 394.14,-19.59 389.49,-29.11 396.44,-29.93"/>
</g>
<!-- Node15&#45;&gt;Node3 -->
<g id="edge25" class="edge">
<title>Node15&#45;&gt;Node3</title>
<path fill="none" stroke="midnightblue" d="M410.71,-112.91C440.45,-104.48 488.64,-90.79 539.32,-76.23"/>
<polygon fill="midnightblue" stroke="midnightblue" points="540.5,-79.53 549.14,-73.41 538.57,-72.81 540.5,-79.53"/>
</g>
<!-- Node15&#45;&gt;Node7 -->
<g id="edge22" class="edge">
<title>Node15&#45;&gt;Node7</title>
<path fill="none" stroke="midnightblue" d="M402.75,-112.44C424.53,-103.4 459.03,-89.07 483.46,-78.92"/>
<polygon fill="midnightblue" stroke="midnightblue" points="485.03,-82.06 492.92,-74.99 482.35,-75.59 485.03,-82.06"/>
</g>
<!-- Node16 -->
<g id="node16" class="node">
<title>Node16</title>
<g id="a_node16"><a xlink:title=" ">
<polygon fill="white" stroke="#bfbfbf" points="423.16,-56.5 423.16,-75.5 475.16,-75.5 475.16,-56.5 423.16,-56.5"/>
<text text-anchor="middle" x="449.16" y="-63.5" font-family="Helvetica,sans-Serif" font-size="10.00">ostream</text>
</a>
</g>
</g>
<!-- Node15&#45;&gt;Node16 -->
<g id="edge23" class="edge">
<title>Node15&#45;&gt;Node16</title>
<path fill="none" stroke="midnightblue" d="M392.92,-112.32C402.92,-104.26 418.04,-92.08 430.09,-82.37"/>
<polygon fill="midnightblue" stroke="midnightblue" points="432.61,-84.83 438.19,-75.83 428.21,-79.38 432.61,-84.83"/>
</g>
<!-- Node17&#45;&gt;Node4 -->
<g id="edge27" class="edge">
<title>Node17&#45;&gt;Node4</title>
<path fill="none" stroke="midnightblue" d="M651.16,-168.08C651.16,-161.01 651.16,-150.86 651.16,-141.99"/>
<polygon fill="midnightblue" stroke="midnightblue" points="654.66,-141.75 651.16,-131.75 647.66,-141.75 654.66,-141.75"/>
</g>
</g>
</svg>
        <g id="navigator" transform="translate(0 0)" fill="#404254">
                <rect fill="#f2f5e9" fill-opacity="0.5" stroke="#606060" stroke-width=".5" x="0" y="0" width="60" height="60"/>
                <use id="zoomplus" xlink:href="#zoomPlus" x="17" y="9" onmousedown="handleZoom(evt,'in')"/>
                <use id="zoomminus" xlink:href="#zoomMin" x="42" y="9" onmousedown="handleZoom(evt,'out')"/>
                <use id="reset" xlink:href="#resetDef" x="30" y="36" onmousedown="handleReset()"/>
                <g id="arrowUp" xlink:href="#dirArrow" transform="translate(30 24)" onmousedown="handlePan(0,-1)">
                  <use xlink:href="#rim" fill="#404040">
                        <set attributeName="fill" to="#808080" begin="arrowUp.mouseover" end="arrowUp.mouseout"/>
                  </use>
                  <path fill="none" stroke="white" stroke-width="1.5" d="M0,-3.0v7 M-2.5,-0.5L0,-3.0L2.5,-0.5"/>
                </g>
                <g id="arrowRight" xlink:href="#dirArrow" transform="rotate(90) translate(36 -43)" onmousedown="handlePan(1,0)">
                  <use xlink:href="#rim" fill="#404040">
                        <set attributeName="fill" to="#808080" begin="arrowRight.mouseover" end="arrowRight.mouseout"/>
                  </use>
                  <path fill="none" stroke="white" stroke-width="1.5" d="M0,-3.0v7 M-2.5,-0.5L0,-3.0L2.5,-0.5"/>
                </g>
                <g id="arrowDown" xlink:href="#dirArrow" transform="rotate(180) translate(-30 -48)" onmousedown="handlePan(0,1)">
                  <use xlink:href="#rim" fill="#404040">
                        <set attributeName="fill" to="#808080" begin="arrowDown.mouseover" end="arrowDown.mouseout"/>
                  </use>
                  <path fill="none" stroke="white" stroke-width="1.5" d="M0,-3.0v7 M-2.5,-0.5L0,-3.0L2.5,-0.5"/>
                </g>
                <g id="arrowLeft" xlink:href="#dirArrow" transform="rotate(270) translate(-36 17)" onmousedown="handlePan(-1,0)">
                  <use xlink:href="#rim" fill="#404040">
                        <set attributeName="fill" to="#808080" begin="arrowLeft.mouseover" end="arrowLeft.mouseout"/>
                  </use>
                  <path fill="none" stroke="white" stroke-width="1.5" d="M0,-3.0v7 M-2.5,-0.5L0,-3.0L2.5,-0.5"/>
                </g>
        </g>
        <svg viewBox="0 0 15 15" width="100%" height="30px" preserveAspectRatio="xMaxYMin meet">
         <g id="arrow_out" transform="scale(0.3 0.3)">
          <a xlink:href="Atcf_8h__incl_org.svg" target="_base">
           <rect id="button" ry="5" rx="5" y="6" x="6" height="38" width="38"
                fill="#f2f5e9" fill-opacity="0.5" stroke="#606060" stroke-width="1.0"/>
           <path id="arrow"
             d="M 11.500037,31.436501 C 11.940474,20.09759 22.043105,11.32322 32.158766,21.979434 L 37.068811,17.246167 C 37.068811,17.246167 37.088388,32 37.088388,32 L 22.160133,31.978069 C 22.160133,31.978069 26.997745,27.140456 26.997745,27.140456 C 18.528582,18.264221 13.291696,25.230495 11.500037,31.436501 z"
             style="fill:#404040;"/>
          </a>
         </g>
        </svg>
</svg>
