<?xml version="1.0" encoding="UTF-8" standalone="no"?>
<!DOCTYPE svg PUBLIC "-//W3C//DTD SVG 1.1//EN"
 "http://www.w3.org/Graphics/SVG/1.1/DTD/svg11.dtd">
<!-- Generated by graphviz version 2.47.1 (20210417.1919)
 -->
<!-- Title: Atcf.h Pages: 1 -->
<!--zoomable 252 -->
<svg id="main" version="1.1" xmlns="http://www.w3.org/2000/svg" xmlns:xlink="http://www.w3.org/1999/xlink" xml:space="preserve" onload="init(evt)">
<style type="text/css"><![CDATA[
.edge:hover path { stroke: red; }
.edge:hover polygon { stroke: red; fill: red; }
]]></style>
<script type="text/javascript"><![CDATA[
var edges = document.getElementsByTagName('g');
if (edges && edges.length) {
  for (var i=0;i<edges.length;i++) {
    if (edges[i].id.substr(0,4)=='edge') {
      edges[i].setAttribute('class','edge');
    }
  }
}
]]></script>
        <defs>
                <circle id="rim" cx="0" cy="0" r="7"/>
                <circle id="rim2" cx="0" cy="0" r="3.5"/>
                <g id="zoomPlus">
                        <use xlink:href="#rim" fill="#404040">
                                <set attributeName="fill" to="#808080" begin="zoomplus.mouseover" end="zoomplus.mouseout"/>
                        </use>
                        <path d="M-4,0h8M0,-4v8" fill="none" stroke="white" stroke-width="1.5" pointer-events="none"/>
                </g>
                <g id="zoomMin">
                        <use xlink:href="#rim" fill="#404040">
                                <set attributeName="fill" to="#808080" begin="zoomminus.mouseover" end="zoomminus.mouseout"/>
                        </use>
                        <path d="M-4,0h8" fill="none" stroke="white" stroke-width="1.5" pointer-events="none"/>
                </g>
                <g id="dirArrow">
                        <path fill="none" stroke="white" stroke-width="1.5" d="M0,-3.0v7 M-2.5,-0.5L0,-3.0L2.5,-0.5"/>
                </g>
               <g id="resetDef">
                       <use xlink:href="#rim2" fill="#404040">
                               <set attributeName="fill" to="#808080" begin="reset.mouseover" end="reset.mouseout"/>
                       </use>
               </g>
        </defs>

<script type="text/javascript">
var viewWidth = 1047;
var viewHeight = 252;
var sectionId = 'dynsection-0';
</script>
<script xlink:href="svgpan.js"/>
<svg id="graph" class="graph">
<g id="viewport">
<title>Atcf.h</title>
<polygon fill="white" stroke="transparent" points="-4,4 -4,-248 1043.45,-248 1043.45,4 -4,4"/>
<!-- Node1 -->
<g id="node1" class="node">
<title>Node1</title>
<g id="a_node1"><a xlink:title=" ">
<polygon fill="#bfbfbf" stroke="black" points="93.95,-224.5 93.95,-243.5 136.95,-243.5 136.95,-224.5 93.95,-224.5"/>
<text text-anchor="middle" x="115.45" y="-231.5" font-family="Helvetica,sans-Serif" font-size="10.00">Atcf.h</text>
</a>
</g>
</g>
<!-- Node2 -->
<g id="node2" class="node">
<title>Node2</title>
<g id="a_node2"><a xlink:title=" ">
<polygon fill="white" stroke="#bfbfbf" points="112.95,-0.5 112.95,-19.5 153.95,-19.5 153.95,-0.5 112.95,-0.5"/>
<text text-anchor="middle" x="133.45" y="-7.5" font-family="Helvetica,sans-Serif" font-size="10.00">string</text>
</a>
</g>
</g>
<!-- Node1&#45;&gt;Node2 -->
<g id="edge1" class="edge">
<title>Node1&#45;&gt;Node2</title>
<path fill="none" stroke="midnightblue" d="M96.95,-224.43C81.66,-216.63 60.16,-203.92 45.45,-188 4.77,-143.94 -17.3,-104.87 17.45,-56 36.8,-28.8 75.04,-18.04 102.33,-13.79"/>
<polygon fill="midnightblue" stroke="midnightblue" points="103.1,-17.21 112.54,-12.41 102.17,-10.28 103.1,-17.21"/>
</g>
<!-- Node3 -->
<g id="node3" class="node">
<title>Node3</title>
<g id="a_node3"><a xlink:title=" ">
<polygon fill="white" stroke="#bfbfbf" points="161.45,-56.5 161.45,-75.5 205.45,-75.5 205.45,-56.5 161.45,-56.5"/>
<text text-anchor="middle" x="183.45" y="-63.5" font-family="Helvetica,sans-Serif" font-size="10.00">vector</text>
</a>
</g>
</g>
<!-- Node1&#45;&gt;Node3 -->
<g id="edge2" class="edge">
<title>Node1&#45;&gt;Node3</title>
<path fill="none" stroke="midnightblue" d="M135.44,-224.37C149.86,-216.98 168.34,-204.84 177.45,-188 195.08,-155.44 191.3,-110.44 187.22,-85.51"/>
<polygon fill="midnightblue" stroke="midnightblue" points="190.65,-84.79 185.4,-75.58 183.76,-86.05 190.65,-84.79"/>
</g>
<!-- Node4 -->
<g id="node4" class="node">
<title>Node4</title>
<g id="a_node4"><a xlink:href="Assumptions_8h.html" target="_top" xlink:title=" ">
<polygon fill="white" stroke="black" points="24.45,-112.5 24.45,-131.5 106.45,-131.5 106.45,-112.5 24.45,-112.5"/>
<text text-anchor="middle" x="65.45" y="-119.5" font-family="Helvetica,sans-Serif" font-size="10.00">Assumptions.h</text>
</a>
</g>
</g>
<!-- Node1&#45;&gt;Node4 -->
<g id="edge3" class="edge">
<title>Node1&#45;&gt;Node4</title>
<path fill="none" stroke="midnightblue" d="M95.23,-224.49C80.68,-217.17 62.15,-205.06 53.45,-188 45.98,-173.34 50.65,-154.7 56.2,-141.14"/>
<polygon fill="midnightblue" stroke="midnightblue" points="59.44,-142.47 60.43,-131.92 53.08,-139.55 59.44,-142.47"/>
</g>
<!-- Node6 -->
<g id="node6" class="node">
<title>Node6</title>
<g id="a_node6"><a xlink:href="AtcfLine_8h.html" target="_top" xlink:title=" ">
<polygon fill="white" stroke="black" points="484.95,-168.5 484.95,-187.5 545.95,-187.5 545.95,-168.5 484.95,-168.5"/>
<text text-anchor="middle" x="515.45" y="-175.5" font-family="Helvetica,sans-Serif" font-size="10.00">AtcfLine.h</text>
</a>
</g>
</g>
<!-- Node1&#45;&gt;Node6 -->
<g id="edge7" class="edge">
<title>Node1&#45;&gt;Node6</title>
<path fill="none" stroke="midnightblue" d="M136.96,-230.1C200.98,-221.45 391.09,-195.79 474.94,-184.47"/>
<polygon fill="midnightblue" stroke="midnightblue" points="475.42,-187.94 484.87,-183.13 474.49,-181 475.42,-187.94"/>
</g>
<!-- Node21 -->
<g id="node21" class="node">
<title>Node21</title>
<g id="a_node21"><a xlink:href="HurricanePressure_8h.html" target="_top" xlink:title=" ">
<polygon fill="white" stroke="black" points="62.45,-168.5 62.45,-187.5 168.45,-187.5 168.45,-168.5 62.45,-168.5"/>
<text text-anchor="middle" x="115.45" y="-175.5" font-family="Helvetica,sans-Serif" font-size="10.00">HurricanePressure.h</text>
</a>
</g>
</g>
<!-- Node1&#45;&gt;Node21 -->
<g id="edge33" class="edge">
<title>Node1&#45;&gt;Node21</title>
<path fill="none" stroke="midnightblue" d="M115.45,-224.08C115.45,-217.01 115.45,-206.86 115.45,-197.99"/>
<polygon fill="midnightblue" stroke="midnightblue" points="118.95,-197.75 115.45,-187.75 111.95,-197.75 118.95,-197.75"/>
</g>
<!-- Node4&#45;&gt;Node3 -->
<g id="edge4" class="edge">
<title>Node4&#45;&gt;Node3</title>
<path fill="none" stroke="midnightblue" d="M84.15,-112.44C103.4,-103.64 133.61,-89.81 155.65,-79.72"/>
<polygon fill="midnightblue" stroke="midnightblue" points="157.21,-82.86 164.84,-75.52 154.3,-76.5 157.21,-82.86"/>
</g>
<!-- Node5 -->
<g id="node5" class="node">
<title>Node5</title>
<g id="a_node5"><a xlink:href="Assumption_8h.html" target="_top" xlink:title=" ">
<polygon fill="white" stroke="black" points="26.95,-56.5 26.95,-75.5 103.95,-75.5 103.95,-56.5 26.95,-56.5"/>
<text text-anchor="middle" x="65.45" y="-63.5" font-family="Helvetica,sans-Serif" font-size="10.00">Assumption.h</text>
</a>
</g>
</g>
<!-- Node4&#45;&gt;Node5 -->
<g id="edge5" class="edge">
<title>Node4&#45;&gt;Node5</title>
<path fill="none" stroke="midnightblue" d="M65.45,-112.08C65.45,-105.01 65.45,-94.86 65.45,-85.99"/>
<polygon fill="midnightblue" stroke="midnightblue" points="68.95,-85.75 65.45,-75.75 61.95,-85.75 68.95,-85.75"/>
</g>
<!-- Node5&#45;&gt;Node2 -->
<g id="edge6" class="edge">
<title>Node5&#45;&gt;Node2</title>
<path fill="none" stroke="midnightblue" d="M76.38,-56.32C86.63,-48.18 102.18,-35.84 114.46,-26.09"/>
<polygon fill="midnightblue" stroke="midnightblue" points="116.68,-28.79 122.33,-19.83 112.32,-23.31 116.68,-28.79"/>
</g>
<!-- Node6&#45;&gt;Node2 -->
<g id="edge10" class="edge">
<title>Node6&#45;&gt;Node2</title>
<path fill="none" stroke="midnightblue" d="M484.75,-174.87C435.43,-170.75 336.03,-159.52 256.45,-132 206.84,-114.84 185.49,-116.8 152.45,-76 141.71,-62.73 137.04,-43.61 135.02,-29.54"/>
<polygon fill="midnightblue" stroke="midnightblue" points="138.49,-29.09 133.89,-19.54 131.53,-29.87 138.49,-29.09"/>
</g>
<!-- Node6&#45;&gt;Node3 -->
<g id="edge12" class="edge">
<title>Node6&#45;&gt;Node3</title>
<path fill="none" stroke="midnightblue" d="M484.61,-173.06C443.17,-167.16 367.66,-154.28 306.45,-132 269.39,-118.51 229.55,-95.77 205.57,-81.08"/>
<polygon fill="midnightblue" stroke="midnightblue" points="207.24,-78 196.9,-75.7 203.55,-83.95 207.24,-78"/>
</g>
<!-- Node7 -->
<g id="node7" class="node">
<title>Node7</title>
<g id="a_node7"><a xlink:title=" ">
<polygon fill="white" stroke="#bfbfbf" points="358.45,-0.5 358.45,-19.5 396.45,-19.5 396.45,-0.5 358.45,-0.5"/>
<text text-anchor="middle" x="377.45" y="-7.5" font-family="Helvetica,sans-Serif" font-size="10.00">array</text>
</a>
</g>
</g>
<!-- Node6&#45;&gt;Node7 -->
<g id="edge8" class="edge">
<title>Node6&#45;&gt;Node7</title>
<path fill="none" stroke="midnightblue" d="M516.81,-168.22C519.64,-146.51 523.82,-89.66 496.45,-56 474.44,-28.92 434.26,-18.12 406.73,-13.83"/>
<polygon fill="midnightblue" stroke="midnightblue" points="406.89,-10.32 396.51,-12.44 405.95,-17.25 406.89,-10.32"/>
</g>
<!-- Node8 -->
<g id="node8" class="node">
<title>Node8</title>
<g id="a_node8"><a xlink:title=" ">
<polygon fill="white" stroke="#bfbfbf" points="543.45,-56.5 543.45,-75.5 597.45,-75.5 597.45,-56.5 543.45,-56.5"/>
<text text-anchor="middle" x="570.45" y="-63.5" font-family="Helvetica,sans-Serif" font-size="10.00">iostream</text>
</a>
</g>
</g>
<!-- Node6&#45;&gt;Node8 -->
<g id="edge9" class="edge">
<title>Node6&#45;&gt;Node8</title>
<path fill="none" stroke="midnightblue" d="M519.77,-168.37C528.77,-150.38 549.68,-108.55 561.64,-84.63"/>
<polygon fill="midnightblue" stroke="midnightblue" points="564.82,-86.1 566.16,-75.59 558.56,-82.97 564.82,-86.1"/>
</g>
<!-- Node9 -->
<g id="node9" class="node">
<title>Node9</title>
<g id="a_node9"><a xlink:title=" ">
<polygon fill="white" stroke="#bfbfbf" points="875.45,-56.5 875.45,-75.5 913.45,-75.5 913.45,-56.5 875.45,-56.5"/>
<text text-anchor="middle" x="894.45" y="-63.5" font-family="Helvetica,sans-Serif" font-size="10.00">tuple</text>
</a>
</g>
</g>
<!-- Node6&#45;&gt;Node9 -->
<g id="edge11" class="edge">
<title>Node6&#45;&gt;Node9</title>
<path fill="none" stroke="midnightblue" d="M546.07,-168.53C605.6,-151.99 741.35,-113.93 865.52,-76.22"/>
<polygon fill="midnightblue" stroke="midnightblue" points="866.65,-79.53 875.2,-73.28 864.61,-72.84 866.65,-79.53"/>
</g>
<!-- Node10 -->
<g id="node10" class="node">
<title>Node10</title>
<g id="a_node10"><a xlink:href="Date_8h.html" target="_top" xlink:title=" ">
<polygon fill="white" stroke="black" points="603.45,-112.5 603.45,-131.5 649.45,-131.5 649.45,-112.5 603.45,-112.5"/>
<text text-anchor="middle" x="626.45" y="-119.5" font-family="Helvetica,sans-Serif" font-size="10.00">Date.h</text>
</a>
</g>
</g>
<!-- Node6&#45;&gt;Node10 -->
<g id="edge13" class="edge">
<title>Node6&#45;&gt;Node10</title>
<path fill="none" stroke="midnightblue" d="M533.29,-168.32C551.17,-159.62 578.93,-146.12 599.5,-136.11"/>
<polygon fill="midnightblue" stroke="midnightblue" points="601.2,-139.18 608.67,-131.65 598.14,-132.88 601.2,-139.18"/>
</g>
<!-- Node15 -->
<g id="node15" class="node">
<title>Node15</title>
<g id="a_node15"><a xlink:href="Isotach_8h.html" target="_top" xlink:title=" ">
<polygon fill="white" stroke="black" points="314.95,-112.5 314.95,-131.5 371.95,-131.5 371.95,-112.5 314.95,-112.5"/>
<text text-anchor="middle" x="343.45" y="-119.5" font-family="Helvetica,sans-Serif" font-size="10.00">Isotach.h</text>
</a>
</g>
</g>
<!-- Node6&#45;&gt;Node15 -->
<g id="edge21" class="edge">
<title>Node6&#45;&gt;Node15</title>
<path fill="none" stroke="midnightblue" d="M488.2,-168.44C459.01,-159.28 412.53,-144.69 380.15,-134.52"/>
<polygon fill="midnightblue" stroke="midnightblue" points="381.17,-131.17 370.58,-131.52 379.07,-137.85 381.17,-131.17"/>
</g>
<!-- Node18 -->
<g id="node18" class="node">
<title>Node18</title>
<g id="a_node18"><a xlink:href="Physical_8h.html" target="_top" xlink:title=" ">
<polygon fill="white" stroke="black" points="863.45,-112.5 863.45,-131.5 925.45,-131.5 925.45,-112.5 863.45,-112.5"/>
<text text-anchor="middle" x="894.45" y="-119.5" font-family="Helvetica,sans-Serif" font-size="10.00">Physical.h</text>
</a>
</g>
</g>
<!-- Node6&#45;&gt;Node18 -->
<g id="edge28" class="edge">
<title>Node6&#45;&gt;Node18</title>
<path fill="none" stroke="midnightblue" d="M546.15,-172.63C613.89,-162.97 776.26,-139.84 852.97,-128.91"/>
<polygon fill="midnightblue" stroke="midnightblue" points="853.8,-132.33 863.21,-127.45 852.81,-125.4 853.8,-132.33"/>
</g>
<!-- Node10&#45;&gt;Node2 -->
<g id="edge18" class="edge">
<title>Node10&#45;&gt;Node2</title>
<path fill="none" stroke="midnightblue" d="M603.39,-118.88C552.99,-113.96 429.44,-100.27 328.45,-76 268.89,-61.69 201.53,-37.34 163.61,-22.86"/>
<polygon fill="midnightblue" stroke="midnightblue" points="164.77,-19.55 154.18,-19.22 162.25,-26.08 164.77,-19.55"/>
</g>
<!-- Node10&#45;&gt;Node3 -->
<g id="edge20" class="edge">
<title>Node10&#45;&gt;Node3</title>
<path fill="none" stroke="midnightblue" d="M603.26,-118.17C529.59,-109.19 300.79,-81.3 215.73,-70.93"/>
<polygon fill="midnightblue" stroke="midnightblue" points="215.98,-67.44 205.63,-69.7 215.13,-74.39 215.98,-67.44"/>
</g>
<!-- Node10&#45;&gt;Node8 -->
<g id="edge16" class="edge">
<title>Node10&#45;&gt;Node8</title>
<path fill="none" stroke="midnightblue" d="M617.46,-112.32C609.26,-104.42 596.95,-92.55 586.98,-82.94"/>
<polygon fill="midnightblue" stroke="midnightblue" points="589.24,-80.26 579.62,-75.83 584.38,-85.29 589.24,-80.26"/>
</g>
<!-- Node11 -->
<g id="node11" class="node">
<title>Node11</title>
<g id="a_node11"><a xlink:title=" ">
<polygon fill="white" stroke="#bfbfbf" points="615.45,-56.5 615.45,-75.5 661.45,-75.5 661.45,-56.5 615.45,-56.5"/>
<text text-anchor="middle" x="638.45" y="-63.5" font-family="Helvetica,sans-Serif" font-size="10.00">chrono</text>
</a>
</g>
</g>
<!-- Node10&#45;&gt;Node11 -->
<g id="edge14" class="edge">
<title>Node10&#45;&gt;Node11</title>
<path fill="none" stroke="midnightblue" d="M628.44,-112.08C630.03,-104.93 632.31,-94.64 634.3,-85.69"/>
<polygon fill="midnightblue" stroke="midnightblue" points="637.76,-86.27 636.51,-75.75 630.92,-84.75 637.76,-86.27"/>
</g>
<!-- Node12 -->
<g id="node12" class="node">
<title>Node12</title>
<g id="a_node12"><a xlink:title=" ">
<polygon fill="white" stroke="#bfbfbf" points="813.45,-56.5 813.45,-75.5 857.45,-75.5 857.45,-56.5 813.45,-56.5"/>
<text text-anchor="middle" x="835.45" y="-63.5" font-family="Helvetica,sans-Serif" font-size="10.00">cmath</text>
</a>
</g>
</g>
<!-- Node10&#45;&gt;Node12 -->
<g id="edge15" class="edge">
<title>Node10&#45;&gt;Node12</title>
<path fill="none" stroke="midnightblue" d="M649.56,-115.43C681.85,-107.59 742.51,-92.65 803.37,-76.23"/>
<polygon fill="midnightblue" stroke="midnightblue" points="804.39,-79.58 813.13,-73.58 802.56,-72.82 804.39,-79.58"/>
</g>
<!-- Node13 -->
<g id="node13" class="node">
<title>Node13</title>
<g id="a_node13"><a xlink:title=" ">
<polygon fill="white" stroke="#bfbfbf" points="679.95,-56.5 679.95,-75.5 714.95,-75.5 714.95,-56.5 679.95,-56.5"/>
<text text-anchor="middle" x="697.45" y="-63.5" font-family="Helvetica,sans-Serif" font-size="10.00">ratio</text>
</a>
</g>
</g>
<!-- Node10&#45;&gt;Node13 -->
<g id="edge17" class="edge">
<title>Node10&#45;&gt;Node13</title>
<path fill="none" stroke="midnightblue" d="M637.86,-112.32C648.56,-104.18 664.8,-91.84 677.62,-82.09"/>
<polygon fill="midnightblue" stroke="midnightblue" points="680,-84.67 685.84,-75.83 675.76,-79.1 680,-84.67"/>
</g>
<!-- Node14 -->
<g id="node14" class="node">
<title>Node14</title>
<g id="a_node14"><a xlink:title=" ">
<polygon fill="white" stroke="#bfbfbf" points="733.45,-56.5 733.45,-75.5 795.45,-75.5 795.45,-56.5 733.45,-56.5"/>
<text text-anchor="middle" x="764.45" y="-63.5" font-family="Helvetica,sans-Serif" font-size="10.00">type_traits</text>
</a>
</g>
</g>
<!-- Node10&#45;&gt;Node14 -->
<g id="edge19" class="edge">
<title>Node10&#45;&gt;Node14</title>
<path fill="none" stroke="midnightblue" d="M648.32,-112.44C671.23,-103.48 707.43,-89.31 733.32,-79.18"/>
<polygon fill="midnightblue" stroke="midnightblue" points="734.65,-82.42 742.69,-75.52 732.1,-75.9 734.65,-82.42"/>
</g>
<!-- Node15&#45;&gt;Node2 -->
<g id="edge24" class="edge">
<title>Node15&#45;&gt;Node2</title>
<path fill="none" stroke="midnightblue" d="M326.97,-112.38C309.65,-103.32 281.64,-88.67 257.45,-76 223.28,-58.1 183.81,-37.41 158.76,-24.27"/>
<polygon fill="midnightblue" stroke="midnightblue" points="160.38,-21.17 149.9,-19.63 157.13,-27.37 160.38,-21.17"/>
</g>
<!-- Node15&#45;&gt;Node3 -->
<g id="edge25" class="edge">
<title>Node15&#45;&gt;Node3</title>
<path fill="none" stroke="midnightblue" d="M318.1,-112.44C290.24,-103.04 245.42,-87.91 215.23,-77.72"/>
<polygon fill="midnightblue" stroke="midnightblue" points="216.19,-74.35 205.6,-74.47 213.95,-80.99 216.19,-74.35"/>
</g>
<!-- Node15&#45;&gt;Node7 -->
<g id="edge22" class="edge">
<title>Node15&#45;&gt;Node7</title>
<path fill="none" stroke="midnightblue" d="M338.06,-112.26C330.89,-99.47 320.07,-75.09 328.45,-56 333.84,-43.73 344.41,-33.34 354.36,-25.65"/>
<polygon fill="midnightblue" stroke="midnightblue" points="356.71,-28.27 362.79,-19.6 352.63,-22.58 356.71,-28.27"/>
</g>
<!-- Node16 -->
<g id="node16" class="node">
<title>Node16</title>
<g id="a_node16"><a xlink:title=" ">
<polygon fill="white" stroke="#bfbfbf" points="435.45,-56.5 435.45,-75.5 487.45,-75.5 487.45,-56.5 435.45,-56.5"/>
<text text-anchor="middle" x="461.45" y="-63.5" font-family="Helvetica,sans-Serif" font-size="10.00">ostream</text>
</a>
</g>
</g>
<!-- Node15&#45;&gt;Node16 -->
<g id="edge23" class="edge">
<title>Node15&#45;&gt;Node16</title>
<path fill="none" stroke="midnightblue" d="M362.15,-112.44C381.4,-103.64 411.61,-89.81 433.65,-79.72"/>
<polygon fill="midnightblue" stroke="midnightblue" points="435.21,-82.86 442.84,-75.52 432.3,-76.5 435.21,-82.86"/>
</g>
<!-- Node17 -->
<g id="node17" class="node">
<title>Node17</title>
<g id="a_node17"><a xlink:href="CircularArray_8h.html" target="_top" xlink:title=" ">
<polygon fill="white" stroke="black" points="337.45,-56.5 337.45,-75.5 417.45,-75.5 417.45,-56.5 337.45,-56.5"/>
<text text-anchor="middle" x="377.45" y="-63.5" font-family="Helvetica,sans-Serif" font-size="10.00">CircularArray.h</text>
</a>
</g>
</g>
<!-- Node15&#45;&gt;Node17 -->
<g id="edge26" class="edge">
<title>Node15&#45;&gt;Node17</title>
<path fill="none" stroke="midnightblue" d="M349.07,-112.08C353.82,-104.53 360.77,-93.49 366.61,-84.23"/>
<polygon fill="midnightblue" stroke="midnightblue" points="369.58,-86.08 371.94,-75.75 363.65,-82.35 369.58,-86.08"/>
</g>
<!-- Node17&#45;&gt;Node7 -->
<g id="edge27" class="edge">
<title>Node17&#45;&gt;Node7</title>
<path fill="none" stroke="midnightblue" d="M377.45,-56.08C377.45,-49.01 377.45,-38.86 377.45,-29.99"/>
<polygon fill="midnightblue" stroke="midnightblue" points="380.95,-29.75 377.45,-19.75 373.95,-29.75 380.95,-29.75"/>
</g>
<!-- Node18&#45;&gt;Node9 -->
<g id="edge32" class="edge">
<title>Node18&#45;&gt;Node9</title>
<path fill="none" stroke="midnightblue" d="M894.45,-112.08C894.45,-105.01 894.45,-94.86 894.45,-85.99"/>
<polygon fill="midnightblue" stroke="midnightblue" points="897.95,-85.75 894.45,-75.75 890.95,-85.75 897.95,-85.75"/>
</g>
<!-- Node18&#45;&gt;Node12 -->
<g id="edge30" class="edge">
<title>Node18&#45;&gt;Node12</title>
<path fill="none" stroke="midnightblue" d="M884.98,-112.32C876.25,-104.34 863.11,-92.31 852.56,-82.65"/>
<polygon fill="midnightblue" stroke="midnightblue" points="854.85,-80 845.11,-75.83 850.12,-85.17 854.85,-80"/>
</g>
<!-- Node19 -->
<g id="node19" class="node">
<title>Node19</title>
<g id="a_node19"><a xlink:title=" ">
<polygon fill="white" stroke="#bfbfbf" points="931.95,-56.5 931.95,-75.5 980.95,-75.5 980.95,-56.5 931.95,-56.5"/>
<text text-anchor="middle" x="956.45" y="-63.5" font-family="Helvetica,sans-Serif" font-size="10.00">cassert</text>
</a>
</g>
</g>
<!-- Node18&#45;&gt;Node19 -->
<g id="edge29" class="edge">
<title>Node18&#45;&gt;Node19</title>
<path fill="none" stroke="midnightblue" d="M904.42,-112.32C913.58,-104.34 927.39,-92.31 938.48,-82.65"/>
<polygon fill="midnightblue" stroke="midnightblue" points="941.07,-85.04 946.31,-75.83 936.47,-79.76 941.07,-85.04"/>
</g>
<!-- Node20 -->
<g id="node20" class="node">
<title>Node20</title>
<g id="a_node20"><a xlink:title=" ">
<polygon fill="white" stroke="#bfbfbf" points="999.45,-56.5 999.45,-75.5 1039.45,-75.5 1039.45,-56.5 999.45,-56.5"/>
<text text-anchor="middle" x="1019.45" y="-63.5" font-family="Helvetica,sans-Serif" font-size="10.00">limits</text>
</a>
</g>
</g>
<!-- Node18&#45;&gt;Node20 -->
<g id="edge31" class="edge">
<title>Node18&#45;&gt;Node20</title>
<path fill="none" stroke="midnightblue" d="M914.26,-112.44C934.74,-103.6 966.94,-89.69 990.32,-79.59"/>
<polygon fill="midnightblue" stroke="midnightblue" points="991.95,-82.7 999.74,-75.52 989.17,-76.27 991.95,-82.7"/>
</g>
<!-- Node21&#45;&gt;Node4 -->
<g id="edge34" class="edge">
<title>Node21&#45;&gt;Node4</title>
<path fill="none" stroke="midnightblue" d="M107.2,-168.08C99.99,-160.3 89.35,-148.8 80.61,-139.37"/>
<polygon fill="midnightblue" stroke="midnightblue" points="82.92,-136.71 73.56,-131.75 77.78,-141.47 82.92,-136.71"/>
</g>
</g>
</svg>
        <g id="navigator" transform="translate(0 0)" fill="#404254">
                <rect fill="#f2f5e9" fill-opacity="0.5" stroke="#606060" stroke-width=".5" x="0" y="0" width="60" height="60"/>
                <use id="zoomplus" xlink:href="#zoomPlus" x="17" y="9" onmousedown="handleZoom(evt,'in')"/>
                <use id="zoomminus" xlink:href="#zoomMin" x="42" y="9" onmousedown="handleZoom(evt,'out')"/>
                <use id="reset" xlink:href="#resetDef" x="30" y="36" onmousedown="handleReset()"/>
                <g id="arrowUp" xlink:href="#dirArrow" transform="translate(30 24)" onmousedown="handlePan(0,-1)">
                  <use xlink:href="#rim" fill="#404040">
                        <set attributeName="fill" to="#808080" begin="arrowUp.mouseover" end="arrowUp.mouseout"/>
                  </use>
                  <path fill="none" stroke="white" stroke-width="1.5" d="M0,-3.0v7 M-2.5,-0.5L0,-3.0L2.5,-0.5"/>
                </g>
                <g id="arrowRight" xlink:href="#dirArrow" transform="rotate(90) translate(36 -43)" onmousedown="handlePan(1,0)">
                  <use xlink:href="#rim" fill="#404040">
                        <set attributeName="fill" to="#808080" begin="arrowRight.mouseover" end="arrowRight.mouseout"/>
                  </use>
                  <path fill="none" stroke="white" stroke-width="1.5" d="M0,-3.0v7 M-2.5,-0.5L0,-3.0L2.5,-0.5"/>
                </g>
                <g id="arrowDown" xlink:href="#dirArrow" transform="rotate(180) translate(-30 -48)" onmousedown="handlePan(0,1)">
                  <use xlink:href="#rim" fill="#404040">
                        <set attributeName="fill" to="#808080" begin="arrowDown.mouseover" end="arrowDown.mouseout"/>
                  </use>
                  <path fill="none" stroke="white" stroke-width="1.5" d="M0,-3.0v7 M-2.5,-0.5L0,-3.0L2.5,-0.5"/>
                </g>
                <g id="arrowLeft" xlink:href="#dirArrow" transform="rotate(270) translate(-36 17)" onmousedown="handlePan(-1,0)">
                  <use xlink:href="#rim" fill="#404040">
                        <set attributeName="fill" to="#808080" begin="arrowLeft.mouseover" end="arrowLeft.mouseout"/>
                  </use>
                  <path fill="none" stroke="white" stroke-width="1.5" d="M0,-3.0v7 M-2.5,-0.5L0,-3.0L2.5,-0.5"/>
                </g>
        </g>
        <svg viewBox="0 0 15 15" width="100%" height="30px" preserveAspectRatio="xMaxYMin meet">
         <g id="arrow_out" transform="scale(0.3 0.3)">
          <a xlink:href="Atcf_8h__incl_org.svg" target="_base">
           <rect id="button" ry="5" rx="5" y="6" x="6" height="38" width="38"
                fill="#f2f5e9" fill-opacity="0.5" stroke="#606060" stroke-width="1.0"/>
           <path id="arrow"
             d="M 11.500037,31.436501 C 11.940474,20.09759 22.043105,11.32322 32.158766,21.979434 L 37.068811,17.246167 C 37.068811,17.246167 37.088388,32 37.088388,32 L 22.160133,31.978069 C 22.160133,31.978069 26.997745,27.140456 26.997745,27.140456 C 18.528582,18.264221 13.291696,25.230495 11.500037,31.436501 z"
             style="fill:#404040;"/>
          </a>
         </g>
        </svg>
</svg>
