<?xml version="1.0" encoding="UTF-8" standalone="no"?>
<!DOCTYPE svg PUBLIC "-//W3C//DTD SVG 1.1//EN"
 "http://www.w3.org/Graphics/SVG/1.1/DTD/svg11.dtd">
<!-- Generated by graphviz version 2.47.1 (20210417.1919)
 -->
<!-- Title: Atcf.cpp Pages: 1 -->
<!--zoomable 308 -->
<svg id="main" version="1.1" xmlns="http://www.w3.org/2000/svg" xmlns:xlink="http://www.w3.org/1999/xlink" xml:space="preserve" onload="init(evt)">
<style type="text/css"><![CDATA[
.edge:hover path { stroke: red; }
.edge:hover polygon { stroke: red; fill: red; }
]]></style>
<script type="text/javascript"><![CDATA[
var edges = document.getElementsByTagName('g');
if (edges && edges.length) {
  for (var i=0;i<edges.length;i++) {
    if (edges[i].id.substr(0,4)=='edge') {
      edges[i].setAttribute('class','edge');
    }
  }
}
]]></script>
        <defs>
                <circle id="rim" cx="0" cy="0" r="7"/>
                <circle id="rim2" cx="0" cy="0" r="3.5"/>
                <g id="zoomPlus">
                        <use xlink:href="#rim" fill="#404040">
                                <set attributeName="fill" to="#808080" begin="zoomplus.mouseover" end="zoomplus.mouseout"/>
                        </use>
                        <path d="M-4,0h8M0,-4v8" fill="none" stroke="white" stroke-width="1.5" pointer-events="none"/>
                </g>
                <g id="zoomMin">
                        <use xlink:href="#rim" fill="#404040">
                                <set attributeName="fill" to="#808080" begin="zoomminus.mouseover" end="zoomminus.mouseout"/>
                        </use>
                        <path d="M-4,0h8" fill="none" stroke="white" stroke-width="1.5" pointer-events="none"/>
                </g>
                <g id="dirArrow">
                        <path fill="none" stroke="white" stroke-width="1.5" d="M0,-3.0v7 M-2.5,-0.5L0,-3.0L2.5,-0.5"/>
                </g>
               <g id="resetDef">
                       <use xlink:href="#rim2" fill="#404040">
                               <set attributeName="fill" to="#808080" begin="reset.mouseover" end="reset.mouseout"/>
                       </use>
               </g>
        </defs>

<script type="text/javascript">
var viewWidth = 963;
var viewHeight = 308;
var sectionId = 'dynsection-0';
</script>
<script xlink:href="svgpan.js"/>
<svg id="graph" class="graph">
<g id="viewport">
<title>Atcf.cpp</title>
<polygon fill="white" stroke="transparent" points="-4,4 -4,-304 959.11,-304 959.11,4 -4,4"/>
<!-- Node1 -->
<g id="node1" class="node">
<title>Node1</title>
<g id="a_node1"><a xlink:title=" ">
<polygon fill="#bfbfbf" stroke="black" points="704.61,-280.5 704.61,-299.5 757.61,-299.5 757.61,-280.5 704.61,-280.5"/>
<text text-anchor="middle" x="731.11" y="-287.5" font-family="Helvetica,sans-Serif" font-size="10.00">Atcf.cpp</text>
</a>
</g>
</g>
<!-- Node2 -->
<g id="node2" class="node">
<title>Node2</title>
<g id="a_node2"><a xlink:href="Atcf_8h.html" target="_top" xlink:title=" ">
<polygon fill="white" stroke="black" points="184.61,-224.5 184.61,-243.5 227.61,-243.5 227.61,-224.5 184.61,-224.5"/>
<text text-anchor="middle" x="206.11" y="-231.5" font-family="Helvetica,sans-Serif" font-size="10.00">Atcf.h</text>
</a>
</g>
</g>
<!-- Node1&#45;&gt;Node2 -->
<g id="edge1" class="edge">
<title>Node1&#45;&gt;Node2</title>
<path fill="none" stroke="midnightblue" d="M704.36,-286.25C615.93,-277.15 333.29,-248.08 237.9,-238.27"/>
<polygon fill="midnightblue" stroke="midnightblue" points="238.04,-234.77 227.73,-237.22 237.32,-241.73 238.04,-234.77"/>
</g>
<!-- Node19 -->
<g id="node19" class="node">
<title>Node19</title>
<g id="a_node19"><a xlink:title=" ">
<polygon fill="white" stroke="#bfbfbf" points="703.11,-224.5 703.11,-243.5 759.11,-243.5 759.11,-224.5 703.11,-224.5"/>
<text text-anchor="middle" x="731.11" y="-231.5" font-family="Helvetica,sans-Serif" font-size="10.00">algorithm</text>
</a>
</g>
</g>
<!-- Node1&#45;&gt;Node19 -->
<g id="edge29" class="edge">
<title>Node1&#45;&gt;Node19</title>
<path fill="none" stroke="midnightblue" d="M731.11,-280.08C731.11,-273.01 731.11,-262.86 731.11,-253.99"/>
<polygon fill="midnightblue" stroke="midnightblue" points="734.61,-253.75 731.11,-243.75 727.61,-253.75 734.61,-253.75"/>
</g>
<!-- Node20 -->
<g id="node20" class="node">
<title>Node20</title>
<g id="a_node20"><a xlink:title=" ">
<polygon fill="white" stroke="#bfbfbf" points="777.11,-224.5 777.11,-243.5 827.11,-243.5 827.11,-224.5 777.11,-224.5"/>
<text text-anchor="middle" x="802.11" y="-231.5" font-family="Helvetica,sans-Serif" font-size="10.00">fstream</text>
</a>
</g>
</g>
<!-- Node1&#45;&gt;Node20 -->
<g id="edge30" class="edge">
<title>Node1&#45;&gt;Node20</title>
<path fill="none" stroke="midnightblue" d="M742.52,-280.32C753.22,-272.18 769.45,-259.84 782.28,-250.09"/>
<polygon fill="midnightblue" stroke="midnightblue" points="784.66,-252.67 790.5,-243.83 780.42,-247.1 784.66,-252.67"/>
</g>
<!-- Node21 -->
<g id="node21" class="node">
<title>Node21</title>
<g id="a_node21"><a xlink:title=" ">
<polygon fill="white" stroke="#bfbfbf" points="845.61,-224.5 845.61,-243.5 896.61,-243.5 896.61,-224.5 845.61,-224.5"/>
<text text-anchor="middle" x="871.11" y="-231.5" font-family="Helvetica,sans-Serif" font-size="10.00">numeric</text>
</a>
</g>
</g>
<!-- Node1&#45;&gt;Node21 -->
<g id="edge31" class="edge">
<title>Node1&#45;&gt;Node21</title>
<path fill="none" stroke="midnightblue" d="M753.3,-280.44C776.54,-271.48 813.26,-257.31 839.53,-247.18"/>
<polygon fill="midnightblue" stroke="midnightblue" points="840.96,-250.38 849.03,-243.52 838.44,-243.85 840.96,-250.38"/>
</g>
<!-- Node22 -->
<g id="node22" class="node">
<title>Node22</title>
<g id="a_node22"><a xlink:title=" ">
<polygon fill="white" stroke="#bfbfbf" points="915.11,-224.5 915.11,-243.5 955.11,-243.5 955.11,-224.5 915.11,-224.5"/>
<text text-anchor="middle" x="935.11" y="-231.5" font-family="Helvetica,sans-Serif" font-size="10.00">utility</text>
</a>
</g>
</g>
<!-- Node1&#45;&gt;Node22 -->
<g id="edge32" class="edge">
<title>Node1&#45;&gt;Node22</title>
<path fill="none" stroke="midnightblue" d="M757.91,-282.55C790.52,-274.59 847.48,-260.4 905.22,-244.15"/>
<polygon fill="midnightblue" stroke="midnightblue" points="906.2,-247.51 914.87,-241.42 904.29,-240.78 906.2,-247.51"/>
</g>
<!-- Node23 -->
<g id="node23" class="node">
<title>Node23</title>
<g id="a_node23"><a xlink:href="Logging_8h.html" target="_top" xlink:title=" ">
<polygon fill="white" stroke="black" points="607.61,-112.5 607.61,-131.5 666.61,-131.5 666.61,-112.5 607.61,-112.5"/>
<text text-anchor="middle" x="637.11" y="-119.5" font-family="Helvetica,sans-Serif" font-size="10.00">Logging.h</text>
</a>
</g>
</g>
<!-- Node1&#45;&gt;Node23 -->
<g id="edge33" class="edge">
<title>Node1&#45;&gt;Node23</title>
<path fill="none" stroke="midnightblue" d="M720.4,-280.23C710.54,-271.75 695.99,-258.13 686.11,-244 663.26,-211.3 648.66,-166.35 641.78,-141.47"/>
<polygon fill="midnightblue" stroke="midnightblue" points="645.1,-140.33 639.15,-131.56 638.33,-142.13 645.1,-140.33"/>
</g>
<!-- Node24 -->
<g id="node24" class="node">
<title>Node24</title>
<g id="a_node24"><a xlink:href="Physical_8h.html" target="_top" xlink:title=" ">
<polygon fill="white" stroke="black" points="669.11,-168.5 669.11,-187.5 731.11,-187.5 731.11,-168.5 669.11,-168.5"/>
<text text-anchor="middle" x="700.11" y="-175.5" font-family="Helvetica,sans-Serif" font-size="10.00">Physical.h</text>
</a>
</g>
</g>
<!-- Node1&#45;&gt;Node24 -->
<g id="edge36" class="edge">
<title>Node1&#45;&gt;Node24</title>
<path fill="none" stroke="midnightblue" d="M720.67,-280.24C711.69,-271.97 699.37,-258.66 694.11,-244 688.74,-229 691.08,-210.86 694.28,-197.57"/>
<polygon fill="midnightblue" stroke="midnightblue" points="697.71,-198.28 697.02,-187.71 690.97,-196.4 697.71,-198.28"/>
</g>
<!-- Node3 -->
<g id="node3" class="node">
<title>Node3</title>
<g id="a_node3"><a xlink:title=" ">
<polygon fill="white" stroke="#bfbfbf" points="270.61,-0.5 270.61,-19.5 311.61,-19.5 311.61,-0.5 270.61,-0.5"/>
<text text-anchor="middle" x="291.11" y="-7.5" font-family="Helvetica,sans-Serif" font-size="10.00">string</text>
</a>
</g>
</g>
<!-- Node2&#45;&gt;Node3 -->
<g id="edge2" class="edge">
<title>Node2&#45;&gt;Node3</title>
<path fill="none" stroke="midnightblue" d="M184.61,-230.24C144.58,-224.61 61.16,-210.43 44.11,-188 22.5,-159.56 -48.68,-169.81 56.11,-56 83.21,-26.57 202.53,-15.95 259.99,-12.5"/>
<polygon fill="midnightblue" stroke="midnightblue" points="260.5,-15.98 270.28,-11.92 260.1,-8.99 260.5,-15.98"/>
</g>
<!-- Node4 -->
<g id="node4" class="node">
<title>Node4</title>
<g id="a_node4"><a xlink:title=" ">
<polygon fill="white" stroke="#bfbfbf" points="269.11,-56.5 269.11,-75.5 313.11,-75.5 313.11,-56.5 269.11,-56.5"/>
<text text-anchor="middle" x="291.11" y="-63.5" font-family="Helvetica,sans-Serif" font-size="10.00">vector</text>
</a>
</g>
</g>
<!-- Node2&#45;&gt;Node4 -->
<g id="edge3" class="edge">
<title>Node2&#45;&gt;Node4</title>
<path fill="none" stroke="midnightblue" d="M207.4,-224.49C210.83,-203.86 221.54,-150.1 245.11,-112 252.04,-100.8 262.35,-90.37 271.45,-82.38"/>
<polygon fill="midnightblue" stroke="midnightblue" points="273.92,-84.88 279.34,-75.77 269.42,-79.51 273.92,-84.88"/>
</g>
<!-- Node5 -->
<g id="node5" class="node">
<title>Node5</title>
<g id="a_node5"><a xlink:href="Assumptions_8h.html" target="_top" xlink:title=" ">
<polygon fill="white" stroke="black" points="90.11,-112.5 90.11,-131.5 172.11,-131.5 172.11,-112.5 90.11,-112.5"/>
<text text-anchor="middle" x="131.11" y="-119.5" font-family="Helvetica,sans-Serif" font-size="10.00">Assumptions.h</text>
</a>
</g>
</g>
<!-- Node2&#45;&gt;Node5 -->
<g id="edge4" class="edge">
<title>Node2&#45;&gt;Node5</title>
<path fill="none" stroke="midnightblue" d="M201.61,-224.32C194.89,-211.6 181.56,-187.3 168.11,-168 161.25,-158.15 152.79,-147.75 145.69,-139.44"/>
<polygon fill="midnightblue" stroke="midnightblue" points="148.12,-136.89 138.92,-131.64 142.83,-141.48 148.12,-136.89"/>
</g>
<!-- Node7 -->
<g id="node7" class="node">
<title>Node7</title>
<g id="a_node7"><a xlink:href="AtcfLine_8h.html" target="_top" xlink:title=" ">
<polygon fill="white" stroke="black" points="365.61,-168.5 365.61,-187.5 426.61,-187.5 426.61,-168.5 365.61,-168.5"/>
<text text-anchor="middle" x="396.11" y="-175.5" font-family="Helvetica,sans-Serif" font-size="10.00">AtcfLine.h</text>
</a>
</g>
</g>
<!-- Node2&#45;&gt;Node7 -->
<g id="edge8" class="edge">
<title>Node2&#45;&gt;Node7</title>
<path fill="none" stroke="midnightblue" d="M227.91,-226.81C259.14,-217.93 317.14,-201.44 356.19,-190.35"/>
<polygon fill="midnightblue" stroke="midnightblue" points="357.51,-193.61 366.17,-187.51 355.59,-186.88 357.51,-193.61"/>
</g>
<!-- Node18 -->
<g id="node18" class="node">
<title>Node18</title>
<g id="a_node18"><a xlink:href="HurricanePressure_8h.html" target="_top" xlink:title=" ">
<polygon fill="white" stroke="black" points="53.11,-168.5 53.11,-187.5 159.11,-187.5 159.11,-168.5 53.11,-168.5"/>
<text text-anchor="middle" x="106.11" y="-175.5" font-family="Helvetica,sans-Serif" font-size="10.00">HurricanePressure.h</text>
</a>
</g>
</g>
<!-- Node2&#45;&gt;Node18 -->
<g id="edge27" class="edge">
<title>Node2&#45;&gt;Node18</title>
<path fill="none" stroke="midnightblue" d="M190.05,-224.32C174.16,-215.74 149.61,-202.49 131.15,-192.52"/>
<polygon fill="midnightblue" stroke="midnightblue" points="132.6,-189.33 122.14,-187.65 129.28,-195.49 132.6,-189.33"/>
</g>
<!-- Node5&#45;&gt;Node4 -->
<g id="edge5" class="edge">
<title>Node5&#45;&gt;Node4</title>
<path fill="none" stroke="midnightblue" d="M156.47,-112.44C184.33,-103.04 229.15,-87.91 259.34,-77.72"/>
<polygon fill="midnightblue" stroke="midnightblue" points="260.62,-80.99 268.97,-74.47 258.38,-74.35 260.62,-80.99"/>
</g>
<!-- Node6 -->
<g id="node6" class="node">
<title>Node6</title>
<g id="a_node6"><a xlink:href="Assumption_8h.html" target="_top" xlink:title=" ">
<polygon fill="white" stroke="black" points="65.61,-56.5 65.61,-75.5 142.61,-75.5 142.61,-56.5 65.61,-56.5"/>
<text text-anchor="middle" x="104.11" y="-63.5" font-family="Helvetica,sans-Serif" font-size="10.00">Assumption.h</text>
</a>
</g>
</g>
<!-- Node5&#45;&gt;Node6 -->
<g id="edge6" class="edge">
<title>Node5&#45;&gt;Node6</title>
<path fill="none" stroke="midnightblue" d="M126.65,-112.08C122.96,-104.69 117.59,-93.95 113.02,-84.81"/>
<polygon fill="midnightblue" stroke="midnightblue" points="116.09,-83.13 108.49,-75.75 109.83,-86.26 116.09,-83.13"/>
</g>
<!-- Node6&#45;&gt;Node3 -->
<g id="edge7" class="edge">
<title>Node6&#45;&gt;Node3</title>
<path fill="none" stroke="midnightblue" d="M133.74,-56.44C168.52,-46.4 225.87,-29.84 260.9,-19.73"/>
<polygon fill="midnightblue" stroke="midnightblue" points="261.94,-23.07 270.57,-16.93 260,-16.34 261.94,-23.07"/>
</g>
<!-- Node7&#45;&gt;Node3 -->
<g id="edge11" class="edge">
<title>Node7&#45;&gt;Node3</title>
<path fill="none" stroke="midnightblue" d="M391.09,-168.37C379.4,-148.37 349.27,-97.38 322.11,-56 315.92,-46.57 308.79,-36.18 302.93,-27.77"/>
<polygon fill="midnightblue" stroke="midnightblue" points="305.77,-25.73 297.17,-19.55 300.04,-29.75 305.77,-25.73"/>
</g>
<!-- Node7&#45;&gt;Node4 -->
<g id="edge13" class="edge">
<title>Node7&#45;&gt;Node4</title>
<path fill="none" stroke="midnightblue" d="M387.87,-168.37C370.32,-149.97 328.98,-106.67 306.44,-83.05"/>
<polygon fill="midnightblue" stroke="midnightblue" points="308.75,-80.41 299.31,-75.59 303.69,-85.24 308.75,-80.41"/>
</g>
<!-- Node8 -->
<g id="node8" class="node">
<title>Node8</title>
<g id="a_node8"><a xlink:title=" ">
<polygon fill="white" stroke="#bfbfbf" points="369.11,-56.5 369.11,-75.5 407.11,-75.5 407.11,-56.5 369.11,-56.5"/>
<text text-anchor="middle" x="388.11" y="-63.5" font-family="Helvetica,sans-Serif" font-size="10.00">array</text>
</a>
</g>
</g>
<!-- Node7&#45;&gt;Node8 -->
<g id="edge9" class="edge">
<title>Node7&#45;&gt;Node8</title>
<path fill="none" stroke="midnightblue" d="M395.49,-168.37C394.19,-150.62 391.22,-109.67 389.47,-85.6"/>
<polygon fill="midnightblue" stroke="midnightblue" points="392.95,-85.31 388.74,-75.59 385.97,-85.82 392.95,-85.31"/>
</g>
<!-- Node9 -->
<g id="node9" class="node">
<title>Node9</title>
<g id="a_node9"><a xlink:title=" ">
<polygon fill="white" stroke="#bfbfbf" points="559.11,-56.5 559.11,-75.5 613.11,-75.5 613.11,-56.5 559.11,-56.5"/>
<text text-anchor="middle" x="586.11" y="-63.5" font-family="Helvetica,sans-Serif" font-size="10.00">iostream</text>
</a>
</g>
</g>
<!-- Node7&#45;&gt;Node9 -->
<g id="edge10" class="edge">
<title>Node7&#45;&gt;Node9</title>
<path fill="none" stroke="midnightblue" d="M405.09,-168.49C419.55,-155.13 449.32,-128.97 478.11,-112 501.03,-98.5 528.76,-87.03 550.38,-79.06"/>
<polygon fill="midnightblue" stroke="midnightblue" points="551.63,-82.33 559.85,-75.64 549.25,-75.74 551.63,-82.33"/>
</g>
<!-- Node10 -->
<g id="node10" class="node">
<title>Node10</title>
<g id="a_node10"><a xlink:title=" ">
<polygon fill="white" stroke="#bfbfbf" points="551.11,-112.5 551.11,-131.5 589.11,-131.5 589.11,-112.5 551.11,-112.5"/>
<text text-anchor="middle" x="570.11" y="-119.5" font-family="Helvetica,sans-Serif" font-size="10.00">tuple</text>
</a>
</g>
</g>
<!-- Node7&#45;&gt;Node10 -->
<g id="edge12" class="edge">
<title>Node7&#45;&gt;Node10</title>
<path fill="none" stroke="midnightblue" d="M424.13,-168.47C451.65,-160.07 495.07,-146.76 541.26,-132.24"/>
<polygon fill="midnightblue" stroke="midnightblue" points="542.36,-135.57 550.84,-129.23 540.25,-128.89 542.36,-135.57"/>
</g>
<!-- Node11 -->
<g id="node11" class="node">
<title>Node11</title>
<g id="a_node11"><a xlink:href="Date_8h.html" target="_top" xlink:title=" ">
<polygon fill="white" stroke="black" points="487.11,-112.5 487.11,-131.5 533.11,-131.5 533.11,-112.5 487.11,-112.5"/>
<text text-anchor="middle" x="510.11" y="-119.5" font-family="Helvetica,sans-Serif" font-size="10.00">Date.h</text>
</a>
</g>
</g>
<!-- Node7&#45;&gt;Node11 -->
<g id="edge14" class="edge">
<title>Node7&#45;&gt;Node11</title>
<path fill="none" stroke="midnightblue" d="M414.18,-168.44C432.69,-159.68 461.69,-145.94 482.97,-135.86"/>
<polygon fill="midnightblue" stroke="midnightblue" points="484.59,-138.96 492.13,-131.52 481.6,-132.63 484.59,-138.96"/>
</g>
<!-- Node16 -->
<g id="node16" class="node">
<title>Node16</title>
<g id="a_node16"><a xlink:href="Isotach_8h.html" target="_top" xlink:title=" ">
<polygon fill="white" stroke="black" points="253.61,-112.5 253.61,-131.5 310.61,-131.5 310.61,-112.5 253.61,-112.5"/>
<text text-anchor="middle" x="282.11" y="-119.5" font-family="Helvetica,sans-Serif" font-size="10.00">Isotach.h</text>
</a>
</g>
</g>
<!-- Node7&#45;&gt;Node16 -->
<g id="edge22" class="edge">
<title>Node7&#45;&gt;Node16</title>
<path fill="none" stroke="midnightblue" d="M378.05,-168.44C359.54,-159.68 330.53,-145.94 309.26,-135.86"/>
<polygon fill="midnightblue" stroke="midnightblue" points="310.63,-132.63 300.09,-131.52 307.63,-138.96 310.63,-132.63"/>
</g>
<!-- Node11&#45;&gt;Node3 -->
<g id="edge19" class="edge">
<title>Node11&#45;&gt;Node3</title>
<path fill="none" stroke="midnightblue" d="M533.25,-113.25C564.49,-102.57 616.88,-83.75 622.11,-76 627.09,-68.64 627.96,-62.7 622.11,-56 583.21,-11.45 396.18,-9.32 321.75,-10.3"/>
<polygon fill="midnightblue" stroke="midnightblue" points="321.56,-6.8 311.62,-10.46 321.68,-13.8 321.56,-6.8"/>
</g>
<!-- Node11&#45;&gt;Node4 -->
<g id="edge21" class="edge">
<title>Node11&#45;&gt;Node4</title>
<path fill="none" stroke="midnightblue" d="M487.09,-115.32C447.76,-105.63 367.58,-85.85 322.93,-74.84"/>
<polygon fill="midnightblue" stroke="midnightblue" points="323.72,-71.44 313.18,-72.44 322.05,-78.23 323.72,-71.44"/>
</g>
<!-- Node11&#45;&gt;Node9 -->
<g id="edge17" class="edge">
<title>Node11&#45;&gt;Node9</title>
<path fill="none" stroke="midnightblue" d="M522.32,-112.32C533.89,-104.11 551.49,-91.6 565.27,-81.81"/>
<polygon fill="midnightblue" stroke="midnightblue" points="567.56,-84.48 573.68,-75.83 563.5,-78.77 567.56,-84.48"/>
</g>
<!-- Node12 -->
<g id="node12" class="node">
<title>Node12</title>
<g id="a_node12"><a xlink:title=" ">
<polygon fill="white" stroke="#bfbfbf" points="669.11,-56.5 669.11,-75.5 715.11,-75.5 715.11,-56.5 669.11,-56.5"/>
<text text-anchor="middle" x="692.11" y="-63.5" font-family="Helvetica,sans-Serif" font-size="10.00">chrono</text>
</a>
</g>
</g>
<!-- Node11&#45;&gt;Node12 -->
<g id="edge15" class="edge">
<title>Node11&#45;&gt;Node12</title>
<path fill="none" stroke="midnightblue" d="M533.16,-114.16C565.08,-104.69 622.89,-87.54 659.3,-76.74"/>
<polygon fill="midnightblue" stroke="midnightblue" points="660.37,-80.07 668.96,-73.87 658.38,-73.36 660.37,-80.07"/>
</g>
<!-- Node13 -->
<g id="node13" class="node">
<title>Node13</title>
<g id="a_node13"><a xlink:title=" ">
<polygon fill="white" stroke="#bfbfbf" points="771.11,-56.5 771.11,-75.5 815.11,-75.5 815.11,-56.5 771.11,-56.5"/>
<text text-anchor="middle" x="793.11" y="-63.5" font-family="Helvetica,sans-Serif" font-size="10.00">cmath</text>
</a>
</g>
</g>
<!-- Node11&#45;&gt;Node13 -->
<g id="edge16" class="edge">
<title>Node11&#45;&gt;Node13</title>
<path fill="none" stroke="midnightblue" d="M533.12,-114.24C536.13,-113.44 539.19,-112.67 542.11,-112 619.93,-94.12 712.69,-79.1 760.71,-71.78"/>
<polygon fill="midnightblue" stroke="midnightblue" points="761.44,-75.21 770.81,-70.26 760.4,-68.29 761.44,-75.21"/>
</g>
<!-- Node14 -->
<g id="node14" class="node">
<title>Node14</title>
<g id="a_node14"><a xlink:title=" ">
<polygon fill="white" stroke="#bfbfbf" points="425.61,-56.5 425.61,-75.5 460.61,-75.5 460.61,-56.5 425.61,-56.5"/>
<text text-anchor="middle" x="443.11" y="-63.5" font-family="Helvetica,sans-Serif" font-size="10.00">ratio</text>
</a>
</g>
</g>
<!-- Node11&#45;&gt;Node14 -->
<g id="edge18" class="edge">
<title>Node11&#45;&gt;Node14</title>
<path fill="none" stroke="midnightblue" d="M499.35,-112.32C489.35,-104.26 474.23,-92.08 462.18,-82.37"/>
<polygon fill="midnightblue" stroke="midnightblue" points="464.06,-79.38 454.07,-75.83 459.66,-84.83 464.06,-79.38"/>
</g>
<!-- Node15 -->
<g id="node15" class="node">
<title>Node15</title>
<g id="a_node15"><a xlink:title=" ">
<polygon fill="white" stroke="#bfbfbf" points="479.11,-56.5 479.11,-75.5 541.11,-75.5 541.11,-56.5 479.11,-56.5"/>
<text text-anchor="middle" x="510.11" y="-63.5" font-family="Helvetica,sans-Serif" font-size="10.00">type_traits</text>
</a>
</g>
</g>
<!-- Node11&#45;&gt;Node15 -->
<g id="edge20" class="edge">
<title>Node11&#45;&gt;Node15</title>
<path fill="none" stroke="midnightblue" d="M510.11,-112.08C510.11,-105.01 510.11,-94.86 510.11,-85.99"/>
<polygon fill="midnightblue" stroke="midnightblue" points="513.61,-85.75 510.11,-75.75 506.61,-85.75 513.61,-85.75"/>
</g>
<!-- Node16&#45;&gt;Node3 -->
<g id="edge25" class="edge">
<title>Node16&#45;&gt;Node3</title>
<path fill="none" stroke="midnightblue" d="M275.48,-112.21C266.91,-99.76 253.81,-76.25 260.11,-56 263.34,-45.62 269.89,-35.52 276.14,-27.53"/>
<polygon fill="midnightblue" stroke="midnightblue" points="278.9,-29.68 282.63,-19.77 273.53,-25.19 278.9,-29.68"/>
</g>
<!-- Node16&#45;&gt;Node4 -->
<g id="edge26" class="edge">
<title>Node16&#45;&gt;Node4</title>
<path fill="none" stroke="midnightblue" d="M283.6,-112.08C284.79,-104.93 286.51,-94.64 288,-85.69"/>
<polygon fill="midnightblue" stroke="midnightblue" points="291.46,-86.19 289.65,-75.75 284.56,-85.04 291.46,-86.19"/>
</g>
<!-- Node16&#45;&gt;Node8 -->
<g id="edge23" class="edge">
<title>Node16&#45;&gt;Node8</title>
<path fill="none" stroke="midnightblue" d="M299.14,-112.32C316.14,-103.66 342.49,-90.24 362.11,-80.25"/>
<polygon fill="midnightblue" stroke="midnightblue" points="363.8,-83.31 371.12,-75.65 360.63,-77.08 363.8,-83.31"/>
</g>
<!-- Node17 -->
<g id="node17" class="node">
<title>Node17</title>
<g id="a_node17"><a xlink:title=" ">
<polygon fill="white" stroke="#bfbfbf" points="161.11,-56.5 161.11,-75.5 213.11,-75.5 213.11,-56.5 161.11,-56.5"/>
<text text-anchor="middle" x="187.11" y="-63.5" font-family="Helvetica,sans-Serif" font-size="10.00">ostream</text>
</a>
</g>
</g>
<!-- Node16&#45;&gt;Node17 -->
<g id="edge24" class="edge">
<title>Node16&#45;&gt;Node17</title>
<path fill="none" stroke="midnightblue" d="M266.85,-112.32C251.89,-103.82 228.86,-90.73 211.39,-80.8"/>
<polygon fill="midnightblue" stroke="midnightblue" points="212.76,-77.55 202.34,-75.65 209.3,-83.64 212.76,-77.55"/>
</g>
<!-- Node18&#45;&gt;Node5 -->
<g id="edge28" class="edge">
<title>Node18&#45;&gt;Node5</title>
<path fill="none" stroke="midnightblue" d="M110.24,-168.08C113.63,-160.77 118.53,-150.18 122.73,-141.1"/>
<polygon fill="midnightblue" stroke="midnightblue" points="126.04,-142.3 127.06,-131.75 119.68,-139.36 126.04,-142.3"/>
</g>
<!-- Node23&#45;&gt;Node3 -->
<g id="edge35" class="edge">
<title>Node23&#45;&gt;Node3</title>
<path fill="none" stroke="midnightblue" d="M665.79,-112.48C698.82,-101.27 745.89,-80.16 724.11,-56 697.22,-26.17 416.47,-14.85 321.96,-11.87"/>
<polygon fill="midnightblue" stroke="midnightblue" points="322,-8.37 311.89,-11.56 321.78,-15.37 322,-8.37"/>
</g>
<!-- Node23&#45;&gt;Node9 -->
<g id="edge34" class="edge">
<title>Node23&#45;&gt;Node9</title>
<path fill="none" stroke="midnightblue" d="M628.69,-112.08C621.26,-104.22 610.26,-92.57 601.3,-83.08"/>
<polygon fill="midnightblue" stroke="midnightblue" points="603.79,-80.62 594.38,-75.75 598.7,-85.42 603.79,-80.62"/>
</g>
<!-- Node24&#45;&gt;Node10 -->
<g id="edge39" class="edge">
<title>Node24&#45;&gt;Node10</title>
<path fill="none" stroke="midnightblue" d="M679.51,-168.44C657.74,-159.4 623.24,-145.07 598.81,-134.92"/>
<polygon fill="midnightblue" stroke="midnightblue" points="599.92,-131.59 589.34,-130.99 597.24,-138.06 599.92,-131.59"/>
</g>
<!-- Node24&#45;&gt;Node13 -->
<g id="edge37" class="edge">
<title>Node24&#45;&gt;Node13</title>
<path fill="none" stroke="midnightblue" d="M707.41,-168.37C722.89,-150.05 759.25,-107.05 779.28,-83.36"/>
<polygon fill="midnightblue" stroke="midnightblue" points="782.07,-85.49 785.85,-75.59 776.72,-80.97 782.07,-85.49"/>
</g>
<!-- Node25 -->
<g id="node25" class="node">
<title>Node25</title>
<g id="a_node25"><a xlink:title=" ">
<polygon fill="white" stroke="#bfbfbf" points="685.11,-112.5 685.11,-131.5 725.11,-131.5 725.11,-112.5 685.11,-112.5"/>
<text text-anchor="middle" x="705.11" y="-119.5" font-family="Helvetica,sans-Serif" font-size="10.00">limits</text>
</a>
</g>
</g>
<!-- Node24&#45;&gt;Node25 -->
<g id="edge38" class="edge">
<title>Node24&#45;&gt;Node25</title>
<path fill="none" stroke="midnightblue" d="M700.94,-168.08C701.59,-161.01 702.53,-150.86 703.36,-141.99"/>
<polygon fill="midnightblue" stroke="midnightblue" points="706.87,-142.03 704.3,-131.75 699.9,-141.39 706.87,-142.03"/>
</g>
</g>
</svg>
        <g id="navigator" transform="translate(0 0)" fill="#404254">
                <rect fill="#f2f5e9" fill-opacity="0.5" stroke="#606060" stroke-width=".5" x="0" y="0" width="60" height="60"/>
                <use id="zoomplus" xlink:href="#zoomPlus" x="17" y="9" onmousedown="handleZoom(evt,'in')"/>
                <use id="zoomminus" xlink:href="#zoomMin" x="42" y="9" onmousedown="handleZoom(evt,'out')"/>
                <use id="reset" xlink:href="#resetDef" x="30" y="36" onmousedown="handleReset()"/>
                <g id="arrowUp" xlink:href="#dirArrow" transform="translate(30 24)" onmousedown="handlePan(0,-1)">
                  <use xlink:href="#rim" fill="#404040">
                        <set attributeName="fill" to="#808080" begin="arrowUp.mouseover" end="arrowUp.mouseout"/>
                  </use>
                  <path fill="none" stroke="white" stroke-width="1.5" d="M0,-3.0v7 M-2.5,-0.5L0,-3.0L2.5,-0.5"/>
                </g>
                <g id="arrowRight" xlink:href="#dirArrow" transform="rotate(90) translate(36 -43)" onmousedown="handlePan(1,0)">
                  <use xlink:href="#rim" fill="#404040">
                        <set attributeName="fill" to="#808080" begin="arrowRight.mouseover" end="arrowRight.mouseout"/>
                  </use>
                  <path fill="none" stroke="white" stroke-width="1.5" d="M0,-3.0v7 M-2.5,-0.5L0,-3.0L2.5,-0.5"/>
                </g>
                <g id="arrowDown" xlink:href="#dirArrow" transform="rotate(180) translate(-30 -48)" onmousedown="handlePan(0,1)">
                  <use xlink:href="#rim" fill="#404040">
                        <set attributeName="fill" to="#808080" begin="arrowDown.mouseover" end="arrowDown.mouseout"/>
                  </use>
                  <path fill="none" stroke="white" stroke-width="1.5" d="M0,-3.0v7 M-2.5,-0.5L0,-3.0L2.5,-0.5"/>
                </g>
                <g id="arrowLeft" xlink:href="#dirArrow" transform="rotate(270) translate(-36 17)" onmousedown="handlePan(-1,0)">
                  <use xlink:href="#rim" fill="#404040">
                        <set attributeName="fill" to="#808080" begin="arrowLeft.mouseover" end="arrowLeft.mouseout"/>
                  </use>
                  <path fill="none" stroke="white" stroke-width="1.5" d="M0,-3.0v7 M-2.5,-0.5L0,-3.0L2.5,-0.5"/>
                </g>
        </g>
        <svg viewBox="0 0 15 15" width="100%" height="30px" preserveAspectRatio="xMaxYMin meet">
         <g id="arrow_out" transform="scale(0.3 0.3)">
          <a xlink:href="Atcf_8cpp__incl_org.svg" target="_base">
           <rect id="button" ry="5" rx="5" y="6" x="6" height="38" width="38"
                fill="#f2f5e9" fill-opacity="0.5" stroke="#606060" stroke-width="1.0"/>
           <path id="arrow"
             d="M 11.500037,31.436501 C 11.940474,20.09759 22.043105,11.32322 32.158766,21.979434 L 37.068811,17.246167 C 37.068811,17.246167 37.088388,32 37.088388,32 L 22.160133,31.978069 C 22.160133,31.978069 26.997745,27.140456 26.997745,27.140456 C 18.528582,18.264221 13.291696,25.230495 11.500037,31.436501 z"
             style="fill:#404040;"/>
          </a>
         </g>
        </svg>
</svg>
