<?xml version="1.0" encoding="UTF-8" standalone="no"?>
<!DOCTYPE svg PUBLIC "-//W3C//DTD SVG 1.1//EN"
 "http://www.w3.org/Graphics/SVG/1.1/DTD/svg11.dtd">
<!-- Generated by graphviz version 2.47.1 (20210417.1919)
 -->
<!-- Title: Atcf.cpp Pages: 1 -->
<svg width="1191pt" height="308pt"
 viewBox="0.00 0.00 1190.66 308.00" xmlns="http://www.w3.org/2000/svg" xmlns:xlink="http://www.w3.org/1999/xlink">
<g id="graph0" class="graph" transform="scale(1 1) rotate(0) translate(4 304)">
<title>Atcf.cpp</title>
<polygon fill="white" stroke="transparent" points="-4,4 -4,-304 1186.66,-304 1186.66,4 -4,4"/>
<!-- Node1 -->
<g id="node1" class="node">
<title>Node1</title>
<g id="a_node1"><a xlink:title=" ">
<polygon fill="#bfbfbf" stroke="black" points="859.16,-280.5 859.16,-299.5 912.16,-299.5 912.16,-280.5 859.16,-280.5"/>
<text text-anchor="middle" x="885.66" y="-287.5" font-family="Helvetica,sans-Serif" font-size="10.00">Atcf.cpp</text>
</a>
</g>
</g>
<!-- Node2 -->
<g id="node2" class="node">
<title>Node2</title>
<g id="a_node2"><a xlink:href="Atcf_8h.html" target="_top" xlink:title=" ">
<polygon fill="white" stroke="black" points="151.16,-224.5 151.16,-243.5 194.16,-243.5 194.16,-224.5 151.16,-224.5"/>
<text text-anchor="middle" x="172.66" y="-231.5" font-family="Helvetica,sans-Serif" font-size="10.00">Atcf.h</text>
</a>
</g>
</g>
<!-- Node1&#45;&gt;Node2 -->
<g id="edge1" class="edge">
<title>Node1&#45;&gt;Node2</title>
<path fill="none" stroke="midnightblue" d="M859.01,-286.98C748.21,-278.59 324.18,-246.48 204.36,-237.4"/>
<polygon fill="midnightblue" stroke="midnightblue" points="204.59,-233.91 194.36,-236.64 204.07,-240.89 204.59,-233.91"/>
</g>
<!-- Node19 -->
<g id="node19" class="node">
<title>Node19</title>
<g id="a_node19"><a xlink:href="Physical_8h.html" target="_top" xlink:title=" ">
<polygon fill="white" stroke="black" points="950.66,-112.5 950.66,-131.5 1012.66,-131.5 1012.66,-112.5 950.66,-112.5"/>
<text text-anchor="middle" x="981.66" y="-119.5" font-family="Helvetica,sans-Serif" font-size="10.00">Physical.h</text>
</a>
</g>
</g>
<!-- Node1&#45;&gt;Node19 -->
<g id="edge43" class="edge">
<title>Node1&#45;&gt;Node19</title>
<path fill="none" stroke="midnightblue" d="M861.97,-280.36C835.94,-269.41 799.56,-248.92 813.66,-224 840.74,-176.11 900.62,-148.43 941.07,-134.53"/>
<polygon fill="midnightblue" stroke="midnightblue" points="942.25,-137.82 950.65,-131.37 940.05,-131.18 942.25,-137.82"/>
</g>
<!-- Node23 -->
<g id="node23" class="node">
<title>Node23</title>
<g id="a_node23"><a xlink:title=" ">
<polygon fill="white" stroke="#bfbfbf" points="822.66,-224.5 822.66,-243.5 878.66,-243.5 878.66,-224.5 822.66,-224.5"/>
<text text-anchor="middle" x="850.66" y="-231.5" font-family="Helvetica,sans-Serif" font-size="10.00">algorithm</text>
</a>
</g>
</g>
<!-- Node1&#45;&gt;Node23 -->
<g id="edge36" class="edge">
<title>Node1&#45;&gt;Node23</title>
<path fill="none" stroke="midnightblue" d="M879.88,-280.08C874.98,-272.53 867.83,-261.49 861.82,-252.23"/>
<polygon fill="midnightblue" stroke="midnightblue" points="864.7,-250.24 856.33,-243.75 858.83,-254.05 864.7,-250.24"/>
</g>
<!-- Node24 -->
<g id="node24" class="node">
<title>Node24</title>
<g id="a_node24"><a xlink:title=" ">
<polygon fill="white" stroke="#bfbfbf" points="896.66,-224.5 896.66,-243.5 946.66,-243.5 946.66,-224.5 896.66,-224.5"/>
<text text-anchor="middle" x="921.66" y="-231.5" font-family="Helvetica,sans-Serif" font-size="10.00">fstream</text>
</a>
</g>
</g>
<!-- Node1&#45;&gt;Node24 -->
<g id="edge37" class="edge">
<title>Node1&#45;&gt;Node24</title>
<path fill="none" stroke="midnightblue" d="M891.6,-280.08C896.63,-272.53 903.99,-261.49 910.17,-252.23"/>
<polygon fill="midnightblue" stroke="midnightblue" points="913.19,-254.01 915.82,-243.75 907.36,-250.13 913.19,-254.01"/>
</g>
<!-- Node25 -->
<g id="node25" class="node">
<title>Node25</title>
<g id="a_node25"><a xlink:title=" ">
<polygon fill="white" stroke="#bfbfbf" points="965.16,-224.5 965.16,-243.5 1016.16,-243.5 1016.16,-224.5 965.16,-224.5"/>
<text text-anchor="middle" x="990.66" y="-231.5" font-family="Helvetica,sans-Serif" font-size="10.00">numeric</text>
</a>
</g>
</g>
<!-- Node1&#45;&gt;Node25 -->
<g id="edge38" class="edge">
<title>Node1&#45;&gt;Node25</title>
<path fill="none" stroke="midnightblue" d="M902.53,-280.32C919.36,-271.66 945.46,-258.24 964.89,-248.25"/>
<polygon fill="midnightblue" stroke="midnightblue" points="966.53,-251.34 973.83,-243.65 963.33,-245.12 966.53,-251.34"/>
</g>
<!-- Node26 -->
<g id="node26" class="node">
<title>Node26</title>
<g id="a_node26"><a xlink:title=" ">
<polygon fill="white" stroke="#bfbfbf" points="1034.66,-224.5 1034.66,-243.5 1074.66,-243.5 1074.66,-224.5 1034.66,-224.5"/>
<text text-anchor="middle" x="1054.66" y="-231.5" font-family="Helvetica,sans-Serif" font-size="10.00">utility</text>
</a>
</g>
</g>
<!-- Node1&#45;&gt;Node26 -->
<g id="edge39" class="edge">
<title>Node1&#45;&gt;Node26</title>
<path fill="none" stroke="midnightblue" d="M912.43,-280.44C943,-270.68 992.88,-254.74 1024.71,-244.57"/>
<polygon fill="midnightblue" stroke="midnightblue" points="1025.91,-247.86 1034.37,-241.48 1023.78,-241.19 1025.91,-247.86"/>
</g>
<!-- Node27 -->
<g id="node27" class="node">
<title>Node27</title>
<g id="a_node27"><a xlink:href="Logging_8h.html" target="_top" xlink:title=" ">
<polygon fill="white" stroke="black" points="727.16,-112.5 727.16,-131.5 786.16,-131.5 786.16,-112.5 727.16,-112.5"/>
<text text-anchor="middle" x="756.66" y="-119.5" font-family="Helvetica,sans-Serif" font-size="10.00">Logging.h</text>
</a>
</g>
</g>
<!-- Node1&#45;&gt;Node27 -->
<g id="edge40" class="edge">
<title>Node1&#45;&gt;Node27</title>
<path fill="none" stroke="midnightblue" d="M861.45,-280.44C843.91,-273.14 820.71,-261.11 805.66,-244 779.05,-213.76 765.77,-167.2 760.14,-141.55"/>
<polygon fill="midnightblue" stroke="midnightblue" points="763.55,-140.75 758.12,-131.65 756.69,-142.15 763.55,-140.75"/>
</g>
<!-- Node28 -->
<g id="node28" class="node">
<title>Node28</title>
<g id="a_node28"><a xlink:title=" ">
<polygon fill="white" stroke="#bfbfbf" points="1092.66,-224.5 1092.66,-243.5 1182.66,-243.5 1182.66,-224.5 1092.66,-224.5"/>
<text text-anchor="middle" x="1137.66" y="-231.5" font-family="Helvetica,sans-Serif" font-size="10.00">boost/format.hpp</text>
</a>
</g>
</g>
<!-- Node1&#45;&gt;Node28 -->
<g id="edge44" class="edge">
<title>Node1&#45;&gt;Node28</title>
<path fill="none" stroke="midnightblue" d="M912.62,-283.22C954.37,-274.27 1035.31,-256.93 1087.88,-245.67"/>
<polygon fill="midnightblue" stroke="midnightblue" points="1088.63,-249.09 1097.67,-243.57 1087.16,-242.24 1088.63,-249.09"/>
</g>
<!-- Node3 -->
<g id="node3" class="node">
<title>Node3</title>
<g id="a_node3"><a xlink:title=" ">
<polygon fill="white" stroke="#bfbfbf" points="162.16,-0.5 162.16,-19.5 203.16,-19.5 203.16,-0.5 162.16,-0.5"/>
<text text-anchor="middle" x="182.66" y="-7.5" font-family="Helvetica,sans-Serif" font-size="10.00">string</text>
</a>
</g>
</g>
<!-- Node2&#45;&gt;Node3 -->
<g id="edge2" class="edge">
<title>Node2&#45;&gt;Node3</title>
<path fill="none" stroke="midnightblue" d="M150.96,-228.32C126.41,-222.22 86.15,-209.67 57.66,-188 8.86,-150.89 -20.42,-104.04 17.66,-56 34.27,-35.04 109.21,-21.29 152.16,-14.99"/>
<polygon fill="midnightblue" stroke="midnightblue" points="152.67,-18.45 162.08,-13.58 151.68,-11.52 152.67,-18.45"/>
</g>
<!-- Node4 -->
<g id="node4" class="node">
<title>Node4</title>
<g id="a_node4"><a xlink:title=" ">
<polygon fill="white" stroke="#bfbfbf" points="160.66,-56.5 160.66,-75.5 204.66,-75.5 204.66,-56.5 160.66,-56.5"/>
<text text-anchor="middle" x="182.66" y="-63.5" font-family="Helvetica,sans-Serif" font-size="10.00">vector</text>
</a>
</g>
</g>
<!-- Node2&#45;&gt;Node4 -->
<g id="edge3" class="edge">
<title>Node2&#45;&gt;Node4</title>
<path fill="none" stroke="midnightblue" d="M178.04,-224.44C183.21,-215.68 190.67,-201.47 193.66,-188 201.58,-152.27 193.71,-109.38 187.81,-85.46"/>
<polygon fill="midnightblue" stroke="midnightblue" points="191.16,-84.41 185.23,-75.62 184.39,-86.18 191.16,-84.41"/>
</g>
<!-- Node5 -->
<g id="node5" class="node">
<title>Node5</title>
<g id="a_node5"><a xlink:href="Assumptions_8h.html" target="_top" xlink:title=" ">
<polygon fill="white" stroke="black" points="24.66,-112.5 24.66,-131.5 106.66,-131.5 106.66,-112.5 24.66,-112.5"/>
<text text-anchor="middle" x="65.66" y="-119.5" font-family="Helvetica,sans-Serif" font-size="10.00">Assumptions.h</text>
</a>
</g>
</g>
<!-- Node2&#45;&gt;Node5 -->
<g id="edge4" class="edge">
<title>Node2&#45;&gt;Node5</title>
<path fill="none" stroke="midnightblue" d="M150.73,-230.15C126.47,-225.72 88.33,-214.71 69.66,-188 60.35,-174.69 60.23,-155.86 61.91,-141.89"/>
<polygon fill="midnightblue" stroke="midnightblue" points="65.38,-142.35 63.51,-131.93 58.47,-141.25 65.38,-142.35"/>
</g>
<!-- Node7 -->
<g id="node7" class="node">
<title>Node7</title>
<g id="a_node7"><a xlink:href="AtcfLine_8h.html" target="_top" xlink:title=" ">
<polygon fill="white" stroke="black" points="556.16,-168.5 556.16,-187.5 617.16,-187.5 617.16,-168.5 556.16,-168.5"/>
<text text-anchor="middle" x="586.66" y="-175.5" font-family="Helvetica,sans-Serif" font-size="10.00">AtcfLine.h</text>
</a>
</g>
</g>
<!-- Node2&#45;&gt;Node7 -->
<g id="edge8" class="edge">
<title>Node2&#45;&gt;Node7</title>
<path fill="none" stroke="midnightblue" d="M194.33,-230.17C260.36,-221.56 459.75,-195.55 546.08,-184.29"/>
<polygon fill="midnightblue" stroke="midnightblue" points="546.57,-187.76 556.03,-182.99 545.66,-180.82 546.57,-187.76"/>
</g>
<!-- Node22 -->
<g id="node22" class="node">
<title>Node22</title>
<g id="a_node22"><a xlink:href="HurricanePressure_8h.html" target="_top" xlink:title=" ">
<polygon fill="white" stroke="black" points="78.66,-168.5 78.66,-187.5 184.66,-187.5 184.66,-168.5 78.66,-168.5"/>
<text text-anchor="middle" x="131.66" y="-175.5" font-family="Helvetica,sans-Serif" font-size="10.00">HurricanePressure.h</text>
</a>
</g>
</g>
<!-- Node2&#45;&gt;Node22 -->
<g id="edge34" class="edge">
<title>Node2&#45;&gt;Node22</title>
<path fill="none" stroke="midnightblue" d="M165.88,-224.08C160.09,-216.46 151.6,-205.26 144.52,-195.94"/>
<polygon fill="midnightblue" stroke="midnightblue" points="147.13,-193.6 138.3,-187.75 141.56,-197.83 147.13,-193.6"/>
</g>
<!-- Node5&#45;&gt;Node4 -->
<g id="edge5" class="edge">
<title>Node5&#45;&gt;Node4</title>
<path fill="none" stroke="midnightblue" d="M84.19,-112.44C103.28,-103.64 133.23,-89.81 155.09,-79.72"/>
<polygon fill="midnightblue" stroke="midnightblue" points="156.59,-82.88 164.2,-75.52 153.66,-76.53 156.59,-82.88"/>
</g>
<!-- Node6 -->
<g id="node6" class="node">
<title>Node6</title>
<g id="a_node6"><a xlink:href="Assumption_8h.html" target="_top" xlink:title=" ">
<polygon fill="white" stroke="black" points="27.16,-56.5 27.16,-75.5 104.16,-75.5 104.16,-56.5 27.16,-56.5"/>
<text text-anchor="middle" x="65.66" y="-63.5" font-family="Helvetica,sans-Serif" font-size="10.00">Assumption.h</text>
</a>
</g>
</g>
<!-- Node5&#45;&gt;Node6 -->
<g id="edge6" class="edge">
<title>Node5&#45;&gt;Node6</title>
<path fill="none" stroke="midnightblue" d="M65.66,-112.08C65.66,-105.01 65.66,-94.86 65.66,-85.99"/>
<polygon fill="midnightblue" stroke="midnightblue" points="69.16,-85.75 65.66,-75.75 62.16,-85.75 69.16,-85.75"/>
</g>
<!-- Node6&#45;&gt;Node3 -->
<g id="edge7" class="edge">
<title>Node6&#45;&gt;Node3</title>
<path fill="none" stroke="midnightblue" d="M84.19,-56.44C103.28,-47.64 133.23,-33.81 155.09,-23.72"/>
<polygon fill="midnightblue" stroke="midnightblue" points="156.59,-26.88 164.2,-19.52 153.66,-20.53 156.59,-26.88"/>
</g>
<!-- Node7&#45;&gt;Node3 -->
<g id="edge11" class="edge">
<title>Node7&#45;&gt;Node3</title>
<path fill="none" stroke="midnightblue" d="M555.97,-176.58C496.26,-174.95 360.87,-167.32 253.66,-132 204.54,-115.82 177.99,-120.51 151.66,-76 142.16,-59.96 154.24,-40.56 165.98,-27.15"/>
<polygon fill="midnightblue" stroke="midnightblue" points="168.73,-29.34 173.05,-19.66 163.64,-24.53 168.73,-29.34"/>
</g>
<!-- Node7&#45;&gt;Node4 -->
<g id="edge13" class="edge">
<title>Node7&#45;&gt;Node4</title>
<path fill="none" stroke="midnightblue" d="M556,-175.54C503.04,-172.27 391.54,-162.13 302.66,-132 265.77,-119.5 226.79,-96.26 203.6,-81.22"/>
<polygon fill="midnightblue" stroke="midnightblue" points="205.24,-78.11 194.96,-75.52 201.38,-83.95 205.24,-78.11"/>
</g>
<!-- Node8 -->
<g id="node8" class="node">
<title>Node8</title>
<g id="a_node8"><a xlink:title=" ">
<polygon fill="white" stroke="#bfbfbf" points="419.66,-0.5 419.66,-19.5 457.66,-19.5 457.66,-0.5 419.66,-0.5"/>
<text text-anchor="middle" x="438.66" y="-7.5" font-family="Helvetica,sans-Serif" font-size="10.00">array</text>
</a>
</g>
</g>
<!-- Node7&#45;&gt;Node8 -->
<g id="edge9" class="edge">
<title>Node7&#45;&gt;Node8</title>
<path fill="none" stroke="midnightblue" d="M617.32,-174.69C704.01,-167.1 939.92,-138.5 865.66,-56 839.03,-26.42 559.71,-14.88 467.79,-11.86"/>
<polygon fill="midnightblue" stroke="midnightblue" points="467.89,-8.36 457.79,-11.54 467.67,-15.36 467.89,-8.36"/>
</g>
<!-- Node9 -->
<g id="node9" class="node">
<title>Node9</title>
<g id="a_node9"><a xlink:title=" ">
<polygon fill="white" stroke="#bfbfbf" points="702.66,-56.5 702.66,-75.5 756.66,-75.5 756.66,-56.5 702.66,-56.5"/>
<text text-anchor="middle" x="729.66" y="-63.5" font-family="Helvetica,sans-Serif" font-size="10.00">iostream</text>
</a>
</g>
</g>
<!-- Node7&#45;&gt;Node9 -->
<g id="edge10" class="edge">
<title>Node7&#45;&gt;Node9</title>
<path fill="none" stroke="midnightblue" d="M597.88,-168.37C622.21,-149.65 680.06,-105.15 710.37,-81.83"/>
<polygon fill="midnightblue" stroke="midnightblue" points="712.69,-84.46 718.49,-75.59 708.43,-78.91 712.69,-84.46"/>
</g>
<!-- Node10 -->
<g id="node10" class="node">
<title>Node10</title>
<g id="a_node10"><a xlink:title=" ">
<polygon fill="white" stroke="#bfbfbf" points="912.66,-56.5 912.66,-75.5 950.66,-75.5 950.66,-56.5 912.66,-56.5"/>
<text text-anchor="middle" x="931.66" y="-63.5" font-family="Helvetica,sans-Serif" font-size="10.00">tuple</text>
</a>
</g>
</g>
<!-- Node7&#45;&gt;Node10 -->
<g id="edge12" class="edge">
<title>Node7&#45;&gt;Node10</title>
<path fill="none" stroke="midnightblue" d="M617.22,-176.11C686.7,-173.54 853.9,-164.09 898.66,-132 914.05,-120.96 922.72,-100.61 927.27,-85.61"/>
<polygon fill="midnightblue" stroke="midnightblue" points="930.68,-86.41 929.89,-75.84 923.92,-84.6 930.68,-86.41"/>
</g>
<!-- Node11 -->
<g id="node11" class="node">
<title>Node11</title>
<g id="a_node11"><a xlink:href="Date_8h.html" target="_top" xlink:title=" ">
<polygon fill="white" stroke="black" points="563.66,-112.5 563.66,-131.5 609.66,-131.5 609.66,-112.5 563.66,-112.5"/>
<text text-anchor="middle" x="586.66" y="-119.5" font-family="Helvetica,sans-Serif" font-size="10.00">Date.h</text>
</a>
</g>
</g>
<!-- Node7&#45;&gt;Node11 -->
<g id="edge14" class="edge">
<title>Node7&#45;&gt;Node11</title>
<path fill="none" stroke="midnightblue" d="M586.66,-168.08C586.66,-161.01 586.66,-150.86 586.66,-141.99"/>
<polygon fill="midnightblue" stroke="midnightblue" points="590.16,-141.75 586.66,-131.75 583.16,-141.75 590.16,-141.75"/>
</g>
<!-- Node16 -->
<g id="node16" class="node">
<title>Node16</title>
<g id="a_node16"><a xlink:href="Isotach_8h.html" target="_top" xlink:title=" ">
<polygon fill="white" stroke="black" points="311.16,-112.5 311.16,-131.5 368.16,-131.5 368.16,-112.5 311.16,-112.5"/>
<text text-anchor="middle" x="339.66" y="-119.5" font-family="Helvetica,sans-Serif" font-size="10.00">Isotach.h</text>
</a>
</g>
</g>
<!-- Node7&#45;&gt;Node16 -->
<g id="edge22" class="edge">
<title>Node7&#45;&gt;Node16</title>
<path fill="none" stroke="midnightblue" d="M555.87,-170.27C510.96,-160.45 427.49,-142.2 378.44,-131.48"/>
<polygon fill="midnightblue" stroke="midnightblue" points="379.04,-128.03 368.52,-129.31 377.54,-134.87 379.04,-128.03"/>
</g>
<!-- Node7&#45;&gt;Node19 -->
<g id="edge29" class="edge">
<title>Node7&#45;&gt;Node19</title>
<path fill="none" stroke="midnightblue" d="M617.19,-173.8C678.12,-167.25 819.07,-151.29 936.66,-132 937.76,-131.82 938.87,-131.63 940,-131.44"/>
<polygon fill="midnightblue" stroke="midnightblue" points="941.02,-134.81 950.23,-129.57 939.77,-127.92 941.02,-134.81"/>
</g>
<!-- Node11&#45;&gt;Node3 -->
<g id="edge19" class="edge">
<title>Node11&#45;&gt;Node3</title>
<path fill="none" stroke="midnightblue" d="M568.01,-112.44C537.56,-98.75 474.98,-71.87 419.66,-56 346.98,-35.15 258.95,-21.33 213.36,-14.99"/>
<polygon fill="midnightblue" stroke="midnightblue" points="213.62,-11.49 203.24,-13.61 212.68,-18.43 213.62,-11.49"/>
</g>
<!-- Node11&#45;&gt;Node4 -->
<g id="edge21" class="edge">
<title>Node11&#45;&gt;Node4</title>
<path fill="none" stroke="midnightblue" d="M563.48,-117.9C495.11,-108.76 294.04,-81.89 215.05,-71.33"/>
<polygon fill="midnightblue" stroke="midnightblue" points="215.11,-67.81 204.74,-69.95 214.19,-74.75 215.11,-67.81"/>
</g>
<!-- Node11&#45;&gt;Node9 -->
<g id="edge17" class="edge">
<title>Node11&#45;&gt;Node9</title>
<path fill="none" stroke="midnightblue" d="M609.31,-112.44C633.06,-103.48 670.56,-89.31 697.39,-79.18"/>
<polygon fill="midnightblue" stroke="midnightblue" points="698.98,-82.32 707.1,-75.52 696.51,-75.77 698.98,-82.32"/>
</g>
<!-- Node12 -->
<g id="node12" class="node">
<title>Node12</title>
<g id="a_node12"><a xlink:title=" ">
<polygon fill="white" stroke="#bfbfbf" points="504.66,-56.5 504.66,-75.5 550.66,-75.5 550.66,-56.5 504.66,-56.5"/>
<text text-anchor="middle" x="527.66" y="-63.5" font-family="Helvetica,sans-Serif" font-size="10.00">chrono</text>
</a>
</g>
</g>
<!-- Node11&#45;&gt;Node12 -->
<g id="edge15" class="edge">
<title>Node11&#45;&gt;Node12</title>
<path fill="none" stroke="midnightblue" d="M577.18,-112.32C568.45,-104.34 555.31,-92.31 544.76,-82.65"/>
<polygon fill="midnightblue" stroke="midnightblue" points="547.05,-80 537.31,-75.83 542.32,-85.17 547.05,-80"/>
</g>
<!-- Node13 -->
<g id="node13" class="node">
<title>Node13</title>
<g id="a_node13"><a xlink:title=" ">
<polygon fill="white" stroke="#bfbfbf" points="812.66,-56.5 812.66,-75.5 856.66,-75.5 856.66,-56.5 812.66,-56.5"/>
<text text-anchor="middle" x="834.66" y="-63.5" font-family="Helvetica,sans-Serif" font-size="10.00">cmath</text>
</a>
</g>
</g>
<!-- Node11&#45;&gt;Node13 -->
<g id="edge16" class="edge">
<title>Node11&#45;&gt;Node13</title>
<path fill="none" stroke="midnightblue" d="M609.99,-115.92C654.56,-106.21 751.91,-85.02 802.57,-73.99"/>
<polygon fill="midnightblue" stroke="midnightblue" points="803.61,-77.34 812.64,-71.79 802.12,-70.5 803.61,-77.34"/>
</g>
<!-- Node14 -->
<g id="node14" class="node">
<title>Node14</title>
<g id="a_node14"><a xlink:title=" ">
<polygon fill="white" stroke="#bfbfbf" points="569.16,-56.5 569.16,-75.5 604.16,-75.5 604.16,-56.5 569.16,-56.5"/>
<text text-anchor="middle" x="586.66" y="-63.5" font-family="Helvetica,sans-Serif" font-size="10.00">ratio</text>
</a>
</g>
</g>
<!-- Node11&#45;&gt;Node14 -->
<g id="edge18" class="edge">
<title>Node11&#45;&gt;Node14</title>
<path fill="none" stroke="midnightblue" d="M586.66,-112.08C586.66,-105.01 586.66,-94.86 586.66,-85.99"/>
<polygon fill="midnightblue" stroke="midnightblue" points="590.16,-85.75 586.66,-75.75 583.16,-85.75 590.16,-85.75"/>
</g>
<!-- Node15 -->
<g id="node15" class="node">
<title>Node15</title>
<g id="a_node15"><a xlink:title=" ">
<polygon fill="white" stroke="#bfbfbf" points="622.66,-56.5 622.66,-75.5 684.66,-75.5 684.66,-56.5 622.66,-56.5"/>
<text text-anchor="middle" x="653.66" y="-63.5" font-family="Helvetica,sans-Serif" font-size="10.00">type_traits</text>
</a>
</g>
</g>
<!-- Node11&#45;&gt;Node15 -->
<g id="edge20" class="edge">
<title>Node11&#45;&gt;Node15</title>
<path fill="none" stroke="midnightblue" d="M597.42,-112.32C607.42,-104.26 622.54,-92.08 634.59,-82.37"/>
<polygon fill="midnightblue" stroke="midnightblue" points="637.11,-84.83 642.69,-75.83 632.71,-79.38 637.11,-84.83"/>
</g>
<!-- Node16&#45;&gt;Node3 -->
<g id="edge25" class="edge">
<title>Node16&#45;&gt;Node3</title>
<path fill="none" stroke="midnightblue" d="M318.8,-112.36C300.35,-104.25 273.11,-91.13 251.66,-76 231.19,-61.57 210.68,-41.34 197.41,-27.29"/>
<polygon fill="midnightblue" stroke="midnightblue" points="199.85,-24.78 190.48,-19.83 194.72,-29.54 199.85,-24.78"/>
</g>
<!-- Node16&#45;&gt;Node4 -->
<g id="edge26" class="edge">
<title>Node16&#45;&gt;Node4</title>
<path fill="none" stroke="midnightblue" d="M314.78,-112.44C287.59,-103.09 243.96,-88.09 214.34,-77.9"/>
<polygon fill="midnightblue" stroke="midnightblue" points="215.47,-74.59 204.88,-74.64 213.2,-81.21 215.47,-74.59"/>
</g>
<!-- Node16&#45;&gt;Node8 -->
<g id="edge23" class="edge">
<title>Node16&#45;&gt;Node8</title>
<path fill="none" stroke="midnightblue" d="M365.5,-112.41C383.15,-105.29 405.78,-93.47 419.66,-76 430.27,-62.64 434.96,-43.52 437.03,-29.48"/>
<polygon fill="midnightblue" stroke="midnightblue" points="440.51,-29.85 438.19,-19.51 433.55,-29.04 440.51,-29.85"/>
</g>
<!-- Node17 -->
<g id="node17" class="node">
<title>Node17</title>
<g id="a_node17"><a xlink:title=" ">
<polygon fill="white" stroke="#bfbfbf" points="260.66,-56.5 260.66,-75.5 312.66,-75.5 312.66,-56.5 260.66,-56.5"/>
<text text-anchor="middle" x="286.66" y="-63.5" font-family="Helvetica,sans-Serif" font-size="10.00">ostream</text>
</a>
</g>
</g>
<!-- Node16&#45;&gt;Node17 -->
<g id="edge24" class="edge">
<title>Node16&#45;&gt;Node17</title>
<path fill="none" stroke="midnightblue" d="M330.9,-112.08C323.19,-104.22 311.75,-92.57 302.44,-83.08"/>
<polygon fill="midnightblue" stroke="midnightblue" points="304.75,-80.44 295.24,-75.75 299.75,-85.34 304.75,-80.44"/>
</g>
<!-- Node18 -->
<g id="node18" class="node">
<title>Node18</title>
<g id="a_node18"><a xlink:href="CircularArray_8h.html" target="_top" xlink:title=" ">
<polygon fill="white" stroke="black" points="330.66,-56.5 330.66,-75.5 410.66,-75.5 410.66,-56.5 330.66,-56.5"/>
<text text-anchor="middle" x="370.66" y="-63.5" font-family="Helvetica,sans-Serif" font-size="10.00">CircularArray.h</text>
</a>
</g>
</g>
<!-- Node16&#45;&gt;Node18 -->
<g id="edge27" class="edge">
<title>Node16&#45;&gt;Node18</title>
<path fill="none" stroke="midnightblue" d="M344.77,-112.08C349.06,-104.61 355.31,-93.72 360.6,-84.52"/>
<polygon fill="midnightblue" stroke="midnightblue" points="363.69,-86.17 365.63,-75.75 357.62,-82.68 363.69,-86.17"/>
</g>
<!-- Node18&#45;&gt;Node8 -->
<g id="edge28" class="edge">
<title>Node18&#45;&gt;Node8</title>
<path fill="none" stroke="midnightblue" d="M381.58,-56.32C391.83,-48.18 407.38,-35.84 419.66,-26.09"/>
<polygon fill="midnightblue" stroke="midnightblue" points="421.88,-28.79 427.53,-19.83 417.52,-23.31 421.88,-28.79"/>
</g>
<!-- Node19&#45;&gt;Node10 -->
<g id="edge33" class="edge">
<title>Node19&#45;&gt;Node10</title>
<path fill="none" stroke="midnightblue" d="M973.4,-112.08C966.19,-104.3 955.55,-92.8 946.81,-83.37"/>
<polygon fill="midnightblue" stroke="midnightblue" points="949.12,-80.71 939.76,-75.75 943.98,-85.47 949.12,-80.71"/>
</g>
<!-- Node19&#45;&gt;Node13 -->
<g id="edge31" class="edge">
<title>Node19&#45;&gt;Node13</title>
<path fill="none" stroke="midnightblue" d="M958.36,-112.44C933.56,-103.33 894.14,-88.85 866.49,-78.69"/>
<polygon fill="midnightblue" stroke="midnightblue" points="867.47,-75.33 856.88,-75.16 865.06,-81.9 867.47,-75.33"/>
</g>
<!-- Node20 -->
<g id="node20" class="node">
<title>Node20</title>
<g id="a_node20"><a xlink:title=" ">
<polygon fill="white" stroke="#bfbfbf" points="1027.16,-56.5 1027.16,-75.5 1076.16,-75.5 1076.16,-56.5 1027.16,-56.5"/>
<text text-anchor="middle" x="1051.66" y="-63.5" font-family="Helvetica,sans-Serif" font-size="10.00">cassert</text>
</a>
</g>
</g>
<!-- Node19&#45;&gt;Node20 -->
<g id="edge30" class="edge">
<title>Node19&#45;&gt;Node20</title>
<path fill="none" stroke="midnightblue" d="M992.9,-112.32C1003.45,-104.18 1019.46,-91.84 1032.1,-82.09"/>
<polygon fill="midnightblue" stroke="midnightblue" points="1034.42,-84.71 1040.2,-75.83 1030.15,-79.17 1034.42,-84.71"/>
</g>
<!-- Node21 -->
<g id="node21" class="node">
<title>Node21</title>
<g id="a_node21"><a xlink:title=" ">
<polygon fill="white" stroke="#bfbfbf" points="968.66,-56.5 968.66,-75.5 1008.66,-75.5 1008.66,-56.5 968.66,-56.5"/>
<text text-anchor="middle" x="988.66" y="-63.5" font-family="Helvetica,sans-Serif" font-size="10.00">limits</text>
</a>
</g>
</g>
<!-- Node19&#45;&gt;Node21 -->
<g id="edge32" class="edge">
<title>Node19&#45;&gt;Node21</title>
<path fill="none" stroke="midnightblue" d="M982.81,-112.08C983.74,-104.93 985.07,-94.64 986.23,-85.69"/>
<polygon fill="midnightblue" stroke="midnightblue" points="989.71,-86.12 987.52,-75.75 982.76,-85.22 989.71,-86.12"/>
</g>
<!-- Node22&#45;&gt;Node5 -->
<g id="edge35" class="edge">
<title>Node22&#45;&gt;Node5</title>
<path fill="none" stroke="midnightblue" d="M121.05,-168.32C111.2,-160.26 96.3,-148.08 84.44,-138.37"/>
<polygon fill="midnightblue" stroke="midnightblue" points="86.41,-135.46 76.45,-131.83 81.98,-140.88 86.41,-135.46"/>
</g>
<!-- Node27&#45;&gt;Node3 -->
<g id="edge42" class="edge">
<title>Node27&#45;&gt;Node3</title>
<path fill="none" stroke="midnightblue" d="M761.77,-112.12C769.02,-98.23 779.9,-71.38 765.66,-56 746.72,-35.55 331.11,-17.06 213.45,-12.23"/>
<polygon fill="midnightblue" stroke="midnightblue" points="213.45,-8.72 203.32,-11.81 213.17,-15.72 213.45,-8.72"/>
</g>
<!-- Node27&#45;&gt;Node9 -->
<g id="edge41" class="edge">
<title>Node27&#45;&gt;Node9</title>
<path fill="none" stroke="midnightblue" d="M752.2,-112.08C748.5,-104.69 743.13,-93.95 738.56,-84.81"/>
<polygon fill="midnightblue" stroke="midnightblue" points="741.63,-83.13 734.03,-75.75 735.37,-86.26 741.63,-83.13"/>
</g>
</g>
</svg>
