<?xml version="1.0" encoding="UTF-8" standalone="no"?>
<!DOCTYPE svg PUBLIC "-//W3C//DTD SVG 1.1//EN"
 "http://www.w3.org/Graphics/SVG/1.1/DTD/svg11.dtd">
<!-- Generated by graphviz version 2.47.1 (20210417.1919)
 -->
<!-- Title: AtcfLine.cpp Pages: 1 -->
<svg width="1021pt" height="263pt"
 viewBox="0.00 0.00 1021.00 263.00" xmlns="http://www.w3.org/2000/svg" xmlns:xlink="http://www.w3.org/1999/xlink">
<g id="graph0" class="graph" transform="scale(1 1) rotate(0) translate(4 259)">
<title>AtcfLine.cpp</title>
<polygon fill="white" stroke="transparent" points="-4,4 -4,-259 1017,-259 1017,4 -4,4"/>
<!-- Node1 -->
<g id="node1" class="node">
<title>Node1</title>
<g id="a_node1"><a xlink:title=" ">
<polygon fill="#bfbfbf" stroke="black" points="711.5,-235.5 711.5,-254.5 782.5,-254.5 782.5,-235.5 711.5,-235.5"/>
<text text-anchor="middle" x="747" y="-242.5" font-family="Helvetica,sans-Serif" font-size="10.00">AtcfLine.cpp</text>
</a>
</g>
</g>
<!-- Node2 -->
<g id="node2" class="node">
<title>Node2</title>
<g id="a_node2"><a xlink:href="AtcfLine_8h.html" target="_top" xlink:title=" ">
<polygon fill="white" stroke="black" points="333.5,-174 333.5,-193 394.5,-193 394.5,-174 333.5,-174"/>
<text text-anchor="middle" x="364" y="-181" font-family="Helvetica,sans-Serif" font-size="10.00">AtcfLine.h</text>
</a>
</g>
</g>
<!-- Node1&#45;&gt;Node2 -->
<g id="edge1" class="edge">
<title>Node1&#45;&gt;Node2</title>
<path fill="none" stroke="midnightblue" d="M711.31,-238.46C639.92,-227.37 479.95,-202.51 404.65,-190.82"/>
<polygon fill="midnightblue" stroke="midnightblue" points="405.02,-187.33 394.61,-189.25 403.95,-194.25 405.02,-187.33"/>
</g>
<!-- Node16 -->
<g id="node16" class="node">
<title>Node16</title>
<g id="a_node16"><a xlink:href="Physical_8h.html" target="_top" xlink:title=" ">
<polygon fill="white" stroke="black" points="657,-112.5 657,-131.5 719,-131.5 719,-112.5 657,-112.5"/>
<text text-anchor="middle" x="688" y="-119.5" font-family="Helvetica,sans-Serif" font-size="10.00">Physical.h</text>
</a>
</g>
</g>
<!-- Node1&#45;&gt;Node16 -->
<g id="edge28" class="edge">
<title>Node1&#45;&gt;Node16</title>
<path fill="none" stroke="midnightblue" d="M742.76,-235.3C733.15,-215.59 709.56,-167.21 696.7,-140.84"/>
<polygon fill="midnightblue" stroke="midnightblue" points="699.73,-139.08 692.2,-131.62 693.44,-142.15 699.73,-139.08"/>
</g>
<!-- Node17 -->
<g id="node17" class="node">
<title>Node17</title>
<g id="a_node17"><a xlink:title=" ">
<polygon fill="white" stroke="#bfbfbf" points="783.5,-56.5 783.5,-75.5 832.5,-75.5 832.5,-56.5 783.5,-56.5"/>
<text text-anchor="middle" x="808" y="-63.5" font-family="Helvetica,sans-Serif" font-size="10.00">cassert</text>
</a>
</g>
</g>
<!-- Node1&#45;&gt;Node17 -->
<g id="edge27" class="edge">
<title>Node1&#45;&gt;Node17</title>
<path fill="none" stroke="midnightblue" d="M748.7,-235.45C751.62,-221.25 758.05,-192.02 766,-168 775.85,-138.22 790.48,-104.81 799.62,-84.86"/>
<polygon fill="midnightblue" stroke="midnightblue" points="802.81,-86.29 803.84,-75.75 796.46,-83.35 802.81,-86.29"/>
</g>
<!-- Node19 -->
<g id="node19" class="node">
<title>Node19</title>
<g id="a_node19"><a xlink:title=" ">
<polygon fill="white" stroke="#bfbfbf" points="775,-168.5 775,-198.5 885,-198.5 885,-168.5 775,-168.5"/>
<text text-anchor="start" x="783" y="-186.5" font-family="Helvetica,sans-Serif" font-size="10.00">boost/algorithm/string</text>
<text text-anchor="middle" x="830" y="-175.5" font-family="Helvetica,sans-Serif" font-size="10.00">/split.hpp</text>
</a>
</g>
</g>
<!-- Node1&#45;&gt;Node19 -->
<g id="edge29" class="edge">
<title>Node1&#45;&gt;Node19</title>
<path fill="none" stroke="midnightblue" d="M758.89,-235.48C770.13,-227.42 787.42,-215.02 802.14,-204.47"/>
<polygon fill="midnightblue" stroke="midnightblue" points="804.35,-207.19 810.44,-198.52 800.27,-201.5 804.35,-207.19"/>
</g>
<!-- Node20 -->
<g id="node20" class="node">
<title>Node20</title>
<g id="a_node20"><a xlink:title=" ">
<polygon fill="white" stroke="#bfbfbf" points="903,-168.5 903,-198.5 1013,-198.5 1013,-168.5 903,-168.5"/>
<text text-anchor="start" x="911" y="-186.5" font-family="Helvetica,sans-Serif" font-size="10.00">boost/algorithm/string</text>
<text text-anchor="middle" x="958" y="-175.5" font-family="Helvetica,sans-Serif" font-size="10.00">/trim.hpp</text>
</a>
</g>
</g>
<!-- Node1&#45;&gt;Node20 -->
<g id="edge30" class="edge">
<title>Node1&#45;&gt;Node20</title>
<path fill="none" stroke="midnightblue" d="M777.23,-235.48C808.75,-226.59 858.96,-212.43 898.47,-201.29"/>
<polygon fill="midnightblue" stroke="midnightblue" points="899.6,-204.61 908.27,-198.52 897.7,-197.87 899.6,-204.61"/>
</g>
<!-- Node3 -->
<g id="node3" class="node">
<title>Node3</title>
<g id="a_node3"><a xlink:title=" ">
<polygon fill="white" stroke="#bfbfbf" points="0,-0.5 0,-19.5 38,-19.5 38,-0.5 0,-0.5"/>
<text text-anchor="middle" x="19" y="-7.5" font-family="Helvetica,sans-Serif" font-size="10.00">array</text>
</a>
</g>
</g>
<!-- Node2&#45;&gt;Node3 -->
<g id="edge2" class="edge">
<title>Node2&#45;&gt;Node3</title>
<path fill="none" stroke="midnightblue" d="M333.34,-177.8C256.44,-165.3 58.91,-128.55 23,-76 13.84,-62.59 13.7,-43.77 15.34,-29.83"/>
<polygon fill="midnightblue" stroke="midnightblue" points="18.81,-30.32 16.9,-19.89 11.89,-29.23 18.81,-30.32"/>
</g>
<!-- Node4 -->
<g id="node4" class="node">
<title>Node4</title>
<g id="a_node4"><a xlink:title=" ">
<polygon fill="white" stroke="#bfbfbf" points="337,-56.5 337,-75.5 391,-75.5 391,-56.5 337,-56.5"/>
<text text-anchor="middle" x="364" y="-63.5" font-family="Helvetica,sans-Serif" font-size="10.00">iostream</text>
</a>
</g>
</g>
<!-- Node2&#45;&gt;Node4 -->
<g id="edge3" class="edge">
<title>Node2&#45;&gt;Node4</title>
<path fill="none" stroke="midnightblue" d="M364,-173.82C364,-155.26 364,-111.34 364,-85.97"/>
<polygon fill="midnightblue" stroke="midnightblue" points="367.5,-85.78 364,-75.78 360.5,-85.78 367.5,-85.78"/>
</g>
<!-- Node5 -->
<g id="node5" class="node">
<title>Node5</title>
<g id="a_node5"><a xlink:title=" ">
<polygon fill="white" stroke="#bfbfbf" points="215.5,-56.5 215.5,-75.5 256.5,-75.5 256.5,-56.5 215.5,-56.5"/>
<text text-anchor="middle" x="236" y="-63.5" font-family="Helvetica,sans-Serif" font-size="10.00">string</text>
</a>
</g>
</g>
<!-- Node2&#45;&gt;Node5 -->
<g id="edge4" class="edge">
<title>Node2&#45;&gt;Node5</title>
<path fill="none" stroke="midnightblue" d="M354.38,-173.82C332.88,-154.42 280.7,-107.33 253.36,-82.66"/>
<polygon fill="midnightblue" stroke="midnightblue" points="255.5,-79.88 245.73,-75.78 250.81,-85.08 255.5,-79.88"/>
</g>
<!-- Node6 -->
<g id="node6" class="node">
<title>Node6</title>
<g id="a_node6"><a xlink:title=" ">
<polygon fill="white" stroke="#bfbfbf" points="669,-56.5 669,-75.5 707,-75.5 707,-56.5 669,-56.5"/>
<text text-anchor="middle" x="688" y="-63.5" font-family="Helvetica,sans-Serif" font-size="10.00">tuple</text>
</a>
</g>
</g>
<!-- Node2&#45;&gt;Node6 -->
<g id="edge5" class="edge">
<title>Node2&#45;&gt;Node6</title>
<path fill="none" stroke="midnightblue" d="M388.09,-173.91C446.57,-153.06 595.9,-99.83 659.08,-77.31"/>
<polygon fill="midnightblue" stroke="midnightblue" points="660.55,-80.5 668.8,-73.85 658.2,-73.91 660.55,-80.5"/>
</g>
<!-- Node7 -->
<g id="node7" class="node">
<title>Node7</title>
<g id="a_node7"><a xlink:title=" ">
<polygon fill="white" stroke="#bfbfbf" points="275,-56.5 275,-75.5 319,-75.5 319,-56.5 275,-56.5"/>
<text text-anchor="middle" x="297" y="-63.5" font-family="Helvetica,sans-Serif" font-size="10.00">vector</text>
</a>
</g>
</g>
<!-- Node2&#45;&gt;Node7 -->
<g id="edge6" class="edge">
<title>Node2&#45;&gt;Node7</title>
<path fill="none" stroke="midnightblue" d="M358.96,-173.82C348,-154.92 321.8,-109.75 307.22,-84.62"/>
<polygon fill="midnightblue" stroke="midnightblue" points="310.14,-82.68 302.09,-75.78 304.08,-86.19 310.14,-82.68"/>
</g>
<!-- Node8 -->
<g id="node8" class="node">
<title>Node8</title>
<g id="a_node8"><a xlink:href="Date_8h.html" target="_top" xlink:title=" ">
<polygon fill="white" stroke="black" points="401,-112.5 401,-131.5 447,-131.5 447,-112.5 401,-112.5"/>
<text text-anchor="middle" x="424" y="-119.5" font-family="Helvetica,sans-Serif" font-size="10.00">Date.h</text>
</a>
</g>
</g>
<!-- Node2&#45;&gt;Node8 -->
<g id="edge7" class="edge">
<title>Node2&#45;&gt;Node8</title>
<path fill="none" stroke="midnightblue" d="M372.6,-173.98C381.86,-164.78 396.82,-149.96 408.21,-138.66"/>
<polygon fill="midnightblue" stroke="midnightblue" points="410.78,-141.04 415.42,-131.51 405.85,-136.07 410.78,-141.04"/>
</g>
<!-- Node13 -->
<g id="node13" class="node">
<title>Node13</title>
<g id="a_node13"><a xlink:href="Isotach_8h.html" target="_top" xlink:title=" ">
<polygon fill="white" stroke="black" points="152.5,-112.5 152.5,-131.5 209.5,-131.5 209.5,-112.5 152.5,-112.5"/>
<text text-anchor="middle" x="181" y="-119.5" font-family="Helvetica,sans-Serif" font-size="10.00">Isotach.h</text>
</a>
</g>
</g>
<!-- Node2&#45;&gt;Node13 -->
<g id="edge15" class="edge">
<title>Node2&#45;&gt;Node13</title>
<path fill="none" stroke="midnightblue" d="M337.78,-173.98C305.98,-163.64 252.23,-146.16 216.68,-134.6"/>
<polygon fill="midnightblue" stroke="midnightblue" points="217.76,-131.27 207.17,-131.51 215.6,-137.93 217.76,-131.27"/>
</g>
<!-- Node2&#45;&gt;Node16 -->
<g id="edge22" class="edge">
<title>Node2&#45;&gt;Node16</title>
<path fill="none" stroke="midnightblue" d="M394.77,-176.85C453.4,-166.08 581.11,-142.63 646.94,-130.54"/>
<polygon fill="midnightblue" stroke="midnightblue" points="647.75,-133.95 656.96,-128.7 646.49,-127.06 647.75,-133.95"/>
</g>
<!-- Node8&#45;&gt;Node4 -->
<g id="edge10" class="edge">
<title>Node8&#45;&gt;Node4</title>
<path fill="none" stroke="midnightblue" d="M414.36,-112.32C405.49,-104.34 392.13,-92.31 381.39,-82.65"/>
<polygon fill="midnightblue" stroke="midnightblue" points="383.59,-79.92 373.82,-75.83 378.91,-85.13 383.59,-79.92"/>
</g>
<!-- Node8&#45;&gt;Node5 -->
<g id="edge12" class="edge">
<title>Node8&#45;&gt;Node5</title>
<path fill="none" stroke="midnightblue" d="M400.94,-114.54C371.89,-106.38 320.2,-91.78 266.36,-76.08"/>
<polygon fill="midnightblue" stroke="midnightblue" points="267.23,-72.68 256.65,-73.24 265.26,-79.4 267.23,-72.68"/>
</g>
<!-- Node8&#45;&gt;Node7 -->
<g id="edge14" class="edge">
<title>Node8&#45;&gt;Node7</title>
<path fill="none" stroke="midnightblue" d="M403.88,-112.44C382.98,-103.56 350.07,-89.56 326.28,-79.45"/>
<polygon fill="midnightblue" stroke="midnightblue" points="327.6,-76.21 317.03,-75.52 324.86,-82.65 327.6,-76.21"/>
</g>
<!-- Node9 -->
<g id="node9" class="node">
<title>Node9</title>
<g id="a_node9"><a xlink:title=" ">
<polygon fill="white" stroke="#bfbfbf" points="409,-56.5 409,-75.5 455,-75.5 455,-56.5 409,-56.5"/>
<text text-anchor="middle" x="432" y="-63.5" font-family="Helvetica,sans-Serif" font-size="10.00">chrono</text>
</a>
</g>
</g>
<!-- Node8&#45;&gt;Node9 -->
<g id="edge8" class="edge">
<title>Node8&#45;&gt;Node9</title>
<path fill="none" stroke="midnightblue" d="M425.32,-112.08C426.38,-104.93 427.91,-94.64 429.23,-85.69"/>
<polygon fill="midnightblue" stroke="midnightblue" points="432.7,-86.16 430.7,-75.75 425.78,-85.13 432.7,-86.16"/>
</g>
<!-- Node10 -->
<g id="node10" class="node">
<title>Node10</title>
<g id="a_node10"><a xlink:title=" ">
<polygon fill="white" stroke="#bfbfbf" points="607,-56.5 607,-75.5 651,-75.5 651,-56.5 607,-56.5"/>
<text text-anchor="middle" x="629" y="-63.5" font-family="Helvetica,sans-Serif" font-size="10.00">cmath</text>
</a>
</g>
</g>
<!-- Node8&#45;&gt;Node10 -->
<g id="edge9" class="edge">
<title>Node8&#45;&gt;Node10</title>
<path fill="none" stroke="midnightblue" d="M447.14,-115.25C478.77,-107.33 537.51,-92.46 596.77,-76.28"/>
<polygon fill="midnightblue" stroke="midnightblue" points="597.95,-79.59 606.67,-73.57 596.1,-72.84 597.95,-79.59"/>
</g>
<!-- Node11 -->
<g id="node11" class="node">
<title>Node11</title>
<g id="a_node11"><a xlink:title=" ">
<polygon fill="white" stroke="#bfbfbf" points="473.5,-56.5 473.5,-75.5 508.5,-75.5 508.5,-56.5 473.5,-56.5"/>
<text text-anchor="middle" x="491" y="-63.5" font-family="Helvetica,sans-Serif" font-size="10.00">ratio</text>
</a>
</g>
</g>
<!-- Node8&#45;&gt;Node11 -->
<g id="edge11" class="edge">
<title>Node8&#45;&gt;Node11</title>
<path fill="none" stroke="midnightblue" d="M434.76,-112.32C444.77,-104.26 459.89,-92.08 471.93,-82.37"/>
<polygon fill="midnightblue" stroke="midnightblue" points="474.45,-84.83 480.04,-75.83 470.06,-79.38 474.45,-84.83"/>
</g>
<!-- Node12 -->
<g id="node12" class="node">
<title>Node12</title>
<g id="a_node12"><a xlink:title=" ">
<polygon fill="white" stroke="#bfbfbf" points="527,-56.5 527,-75.5 589,-75.5 589,-56.5 527,-56.5"/>
<text text-anchor="middle" x="558" y="-63.5" font-family="Helvetica,sans-Serif" font-size="10.00">type_traits</text>
</a>
</g>
</g>
<!-- Node8&#45;&gt;Node12 -->
<g id="edge13" class="edge">
<title>Node8&#45;&gt;Node12</title>
<path fill="none" stroke="midnightblue" d="M445.23,-112.44C467.38,-103.52 502.32,-89.44 527.44,-79.32"/>
<polygon fill="midnightblue" stroke="midnightblue" points="528.9,-82.5 536.87,-75.52 526.28,-76.01 528.9,-82.5"/>
</g>
<!-- Node13&#45;&gt;Node3 -->
<g id="edge16" class="edge">
<title>Node13&#45;&gt;Node3</title>
<path fill="none" stroke="midnightblue" d="M152.48,-119.75C120.31,-116.8 68.51,-107.14 38,-76 26.05,-63.81 21.55,-44.54 19.88,-30.14"/>
<polygon fill="midnightblue" stroke="midnightblue" points="23.35,-29.56 19.07,-19.87 16.37,-30.11 23.35,-29.56"/>
</g>
<!-- Node13&#45;&gt;Node5 -->
<g id="edge18" class="edge">
<title>Node13&#45;&gt;Node5</title>
<path fill="none" stroke="midnightblue" d="M190.08,-112.08C198.17,-104.14 210.2,-92.34 219.91,-82.8"/>
<polygon fill="midnightblue" stroke="midnightblue" points="222.4,-85.25 227.09,-75.75 217.5,-80.26 222.4,-85.25"/>
</g>
<!-- Node13&#45;&gt;Node7 -->
<g id="edge19" class="edge">
<title>Node13&#45;&gt;Node7</title>
<path fill="none" stroke="midnightblue" d="M199.38,-112.44C218.22,-103.68 247.73,-89.94 269.38,-79.86"/>
<polygon fill="midnightblue" stroke="midnightblue" points="271.12,-82.91 278.71,-75.52 268.16,-76.56 271.12,-82.91"/>
</g>
<!-- Node14 -->
<g id="node14" class="node">
<title>Node14</title>
<g id="a_node14"><a xlink:title=" ">
<polygon fill="white" stroke="#bfbfbf" points="145,-56.5 145,-75.5 197,-75.5 197,-56.5 145,-56.5"/>
<text text-anchor="middle" x="171" y="-63.5" font-family="Helvetica,sans-Serif" font-size="10.00">ostream</text>
</a>
</g>
</g>
<!-- Node13&#45;&gt;Node14 -->
<g id="edge17" class="edge">
<title>Node13&#45;&gt;Node14</title>
<path fill="none" stroke="midnightblue" d="M179.35,-112.08C178.02,-104.93 176.12,-94.64 174.46,-85.69"/>
<polygon fill="midnightblue" stroke="midnightblue" points="177.88,-84.95 172.62,-75.75 171,-86.22 177.88,-84.95"/>
</g>
<!-- Node15 -->
<g id="node15" class="node">
<title>Node15</title>
<g id="a_node15"><a xlink:href="CircularArray_8h.html" target="_top" xlink:title=" ">
<polygon fill="white" stroke="black" points="47,-56.5 47,-75.5 127,-75.5 127,-56.5 47,-56.5"/>
<text text-anchor="middle" x="87" y="-63.5" font-family="Helvetica,sans-Serif" font-size="10.00">CircularArray.h</text>
</a>
</g>
</g>
<!-- Node13&#45;&gt;Node15 -->
<g id="edge20" class="edge">
<title>Node13&#45;&gt;Node15</title>
<path fill="none" stroke="midnightblue" d="M165.9,-112.32C151.1,-103.82 128.31,-90.73 111.02,-80.8"/>
<polygon fill="midnightblue" stroke="midnightblue" points="112.48,-77.6 102.07,-75.65 108.99,-83.67 112.48,-77.6"/>
</g>
<!-- Node15&#45;&gt;Node3 -->
<g id="edge21" class="edge">
<title>Node15&#45;&gt;Node3</title>
<path fill="none" stroke="midnightblue" d="M76.07,-56.32C65.83,-48.18 50.28,-35.84 38,-26.09"/>
<polygon fill="midnightblue" stroke="midnightblue" points="40.13,-23.31 30.12,-19.83 35.78,-28.79 40.13,-23.31"/>
</g>
<!-- Node16&#45;&gt;Node6 -->
<g id="edge26" class="edge">
<title>Node16&#45;&gt;Node6</title>
<path fill="none" stroke="midnightblue" d="M688,-112.08C688,-105.01 688,-94.86 688,-85.99"/>
<polygon fill="midnightblue" stroke="midnightblue" points="691.5,-85.75 688,-75.75 684.5,-85.75 691.5,-85.75"/>
</g>
<!-- Node16&#45;&gt;Node10 -->
<g id="edge24" class="edge">
<title>Node16&#45;&gt;Node10</title>
<path fill="none" stroke="midnightblue" d="M678.52,-112.32C669.8,-104.34 656.66,-92.31 646.1,-82.65"/>
<polygon fill="midnightblue" stroke="midnightblue" points="648.39,-80 638.65,-75.83 643.67,-85.17 648.39,-80"/>
</g>
<!-- Node16&#45;&gt;Node17 -->
<g id="edge23" class="edge">
<title>Node16&#45;&gt;Node17</title>
<path fill="none" stroke="midnightblue" d="M707.01,-112.44C726.59,-103.64 757.31,-89.81 779.73,-79.72"/>
<polygon fill="midnightblue" stroke="midnightblue" points="781.39,-82.81 789.07,-75.52 778.52,-76.43 781.39,-82.81"/>
</g>
<!-- Node18 -->
<g id="node18" class="node">
<title>Node18</title>
<g id="a_node18"><a xlink:title=" ">
<polygon fill="white" stroke="#bfbfbf" points="725,-56.5 725,-75.5 765,-75.5 765,-56.5 725,-56.5"/>
<text text-anchor="middle" x="745" y="-63.5" font-family="Helvetica,sans-Serif" font-size="10.00">limits</text>
</a>
</g>
</g>
<!-- Node16&#45;&gt;Node18 -->
<g id="edge25" class="edge">
<title>Node16&#45;&gt;Node18</title>
<path fill="none" stroke="midnightblue" d="M697.16,-112.32C705.5,-104.42 718.03,-92.55 728.18,-82.94"/>
<polygon fill="midnightblue" stroke="midnightblue" points="730.82,-85.25 735.68,-75.83 726.01,-80.17 730.82,-85.25"/>
</g>
</g>
</svg>
