<?xml version="1.0" encoding="UTF-8" standalone="no"?>
<!DOCTYPE svg PUBLIC "-//W3C//DTD SVG 1.1//EN"
 "http://www.w3.org/Graphics/SVG/1.1/DTD/svg11.dtd">
<!-- Generated by graphviz version 2.47.1 (20210417.1919)
 -->
<!-- Title: CircularArray.h Pages: 1 -->
<svg width="251pt" height="308pt"
 viewBox="0.00 0.00 250.50 308.00" xmlns="http://www.w3.org/2000/svg" xmlns:xlink="http://www.w3.org/1999/xlink">
<g id="graph0" class="graph" transform="scale(1 1) rotate(0) translate(4 304)">
<title>CircularArray.h</title>
<polygon fill="white" stroke="transparent" points="-4,4 -4,-304 246.5,-304 246.5,4 -4,4"/>
<!-- Node1 -->
<g id="node1" class="node">
<title>Node1</title>
<g id="a_node1"><a xlink:title=" ">
<polygon fill="#bfbfbf" stroke="black" points="116.5,-280.5 116.5,-299.5 196.5,-299.5 196.5,-280.5 116.5,-280.5"/>
<text text-anchor="middle" x="156.5" y="-287.5" font-family="Helvetica,sans-Serif" font-size="10.00">CircularArray.h</text>
</a>
</g>
</g>
<!-- Node2 -->
<g id="node2" class="node">
<title>Node2</title>
<g id="a_node2"><a xlink:href="Isotach_8h.html" target="_top" xlink:title=" ">
<polygon fill="white" stroke="black" points="128,-224.5 128,-243.5 185,-243.5 185,-224.5 128,-224.5"/>
<text text-anchor="middle" x="156.5" y="-231.5" font-family="Helvetica,sans-Serif" font-size="10.00">Isotach.h</text>
</a>
</g>
</g>
<!-- Node1&#45;&gt;Node2 -->
<g id="edge1" class="edge">
<title>Node1&#45;&gt;Node2</title>
<path fill="none" stroke="midnightblue" d="M156.5,-269.8C156.5,-260.91 156.5,-250.78 156.5,-243.75"/>
<polygon fill="midnightblue" stroke="midnightblue" points="153,-270.08 156.5,-280.08 160,-270.08 153,-270.08"/>
</g>
<!-- Node3 -->
<g id="node3" class="node">
<title>Node3</title>
<g id="a_node3"><a xlink:href="AtcfLine_8h.html" target="_top" xlink:title=" ">
<polygon fill="white" stroke="black" points="85,-168.5 85,-187.5 146,-187.5 146,-168.5 85,-168.5"/>
<text text-anchor="middle" x="115.5" y="-175.5" font-family="Helvetica,sans-Serif" font-size="10.00">AtcfLine.h</text>
</a>
</g>
</g>
<!-- Node2&#45;&gt;Node3 -->
<g id="edge2" class="edge">
<title>Node2&#45;&gt;Node3</title>
<path fill="none" stroke="midnightblue" d="M143.48,-215.86C136.38,-206.5 127.9,-195.33 122.14,-187.75"/>
<polygon fill="midnightblue" stroke="midnightblue" points="140.89,-218.24 149.73,-224.08 146.47,-214 140.89,-218.24"/>
</g>
<!-- Node11 -->
<g id="node11" class="node">
<title>Node11</title>
<g id="a_node11"><a xlink:href="Isotach_8cpp.html" target="_top" xlink:title=" ">
<polygon fill="white" stroke="black" points="164.5,-168.5 164.5,-187.5 232.5,-187.5 232.5,-168.5 164.5,-168.5"/>
<text text-anchor="middle" x="198.5" y="-175.5" font-family="Helvetica,sans-Serif" font-size="10.00">Isotach.cpp</text>
</a>
</g>
</g>
<!-- Node2&#45;&gt;Node11 -->
<g id="edge11" class="edge">
<title>Node2&#45;&gt;Node11</title>
<path fill="none" stroke="midnightblue" d="M169.61,-216.14C176.93,-206.74 185.74,-195.4 191.69,-187.75"/>
<polygon fill="midnightblue" stroke="midnightblue" points="166.81,-214.04 163.44,-224.08 172.34,-218.34 166.81,-214.04"/>
</g>
<!-- Node4 -->
<g id="node4" class="node">
<title>Node4</title>
<g id="a_node4"><a xlink:href="Atcf_8h.html" target="_top" xlink:title=" ">
<polygon fill="white" stroke="black" points="19,-112.5 19,-131.5 62,-131.5 62,-112.5 19,-112.5"/>
<text text-anchor="middle" x="40.5" y="-119.5" font-family="Helvetica,sans-Serif" font-size="10.00">Atcf.h</text>
</a>
</g>
</g>
<!-- Node3&#45;&gt;Node4 -->
<g id="edge3" class="edge">
<title>Node3&#45;&gt;Node4</title>
<path fill="none" stroke="midnightblue" d="M95.19,-162.38C81.64,-152.62 64.26,-140.11 52.77,-131.83"/>
<polygon fill="midnightblue" stroke="midnightblue" points="93.29,-165.32 103.45,-168.32 97.38,-159.64 93.29,-165.32"/>
</g>
<!-- Node8 -->
<g id="node8" class="node">
<title>Node8</title>
<g id="a_node8"><a xlink:href="AtcfLine_8cpp.html" target="_top" xlink:title=" ">
<polygon fill="white" stroke="black" points="80,-112.5 80,-131.5 151,-131.5 151,-112.5 80,-112.5"/>
<text text-anchor="middle" x="115.5" y="-119.5" font-family="Helvetica,sans-Serif" font-size="10.00">AtcfLine.cpp</text>
</a>
</g>
</g>
<!-- Node3&#45;&gt;Node8 -->
<g id="edge7" class="edge">
<title>Node3&#45;&gt;Node8</title>
<path fill="none" stroke="midnightblue" d="M115.5,-157.8C115.5,-148.91 115.5,-138.78 115.5,-131.75"/>
<polygon fill="midnightblue" stroke="midnightblue" points="112,-158.08 115.5,-168.08 119,-158.08 112,-158.08"/>
</g>
<!-- Node9 -->
<g id="node9" class="node">
<title>Node9</title>
<g id="a_node9"><a xlink:href="Vortex_8h.html" target="_top" xlink:title=" ">
<polygon fill="white" stroke="black" points="169,-112.5 169,-131.5 222,-131.5 222,-112.5 169,-112.5"/>
<text text-anchor="middle" x="195.5" y="-119.5" font-family="Helvetica,sans-Serif" font-size="10.00">Vortex.h</text>
</a>
</g>
</g>
<!-- Node3&#45;&gt;Node9 -->
<g id="edge8" class="edge">
<title>Node3&#45;&gt;Node9</title>
<path fill="none" stroke="midnightblue" d="M136.8,-162.62C151.42,-152.76 170.33,-139.99 182.68,-131.65"/>
<polygon fill="midnightblue" stroke="midnightblue" points="134.68,-159.83 128.35,-168.32 138.6,-165.63 134.68,-159.83"/>
</g>
<!-- Node5 -->
<g id="node5" class="node">
<title>Node5</title>
<g id="a_node5"><a xlink:href="Atcf_8cpp.html" target="_top" xlink:title=" ">
<polygon fill="white" stroke="black" points="0,-56.5 0,-75.5 53,-75.5 53,-56.5 0,-56.5"/>
<text text-anchor="middle" x="26.5" y="-63.5" font-family="Helvetica,sans-Serif" font-size="10.00">Atcf.cpp</text>
</a>
</g>
</g>
<!-- Node4&#45;&gt;Node5 -->
<g id="edge4" class="edge">
<title>Node4&#45;&gt;Node5</title>
<path fill="none" stroke="midnightblue" d="M35.68,-102.4C33.33,-93.36 30.63,-82.94 28.77,-75.75"/>
<polygon fill="midnightblue" stroke="midnightblue" points="32.29,-103.28 38.19,-112.08 39.07,-101.52 32.29,-103.28"/>
</g>
<!-- Node6 -->
<g id="node6" class="node">
<title>Node6</title>
<g id="a_node6"><a xlink:href="Gahm_8h.html" target="_top" xlink:title=" ">
<polygon fill="white" stroke="black" points="71,-56.5 71,-75.5 122,-75.5 122,-56.5 71,-56.5"/>
<text text-anchor="middle" x="96.5" y="-63.5" font-family="Helvetica,sans-Serif" font-size="10.00">Gahm.h</text>
</a>
</g>
</g>
<!-- Node4&#45;&gt;Node6 -->
<g id="edge5" class="edge">
<title>Node4&#45;&gt;Node6</title>
<path fill="none" stroke="midnightblue" d="M56.83,-105.25C66.76,-95.67 79.09,-83.79 87.34,-75.83"/>
<polygon fill="midnightblue" stroke="midnightblue" points="54.27,-102.86 49.5,-112.32 59.13,-107.9 54.27,-102.86"/>
</g>
<!-- Node7 -->
<g id="node7" class="node">
<title>Node7</title>
<g id="a_node7"><a xlink:href="Gahm_8cpp.html" target="_top" xlink:title=" ">
<polygon fill="white" stroke="black" points="92.5,-0.5 92.5,-19.5 154.5,-19.5 154.5,-0.5 92.5,-0.5"/>
<text text-anchor="middle" x="123.5" y="-7.5" font-family="Helvetica,sans-Serif" font-size="10.00">Gahm.cpp</text>
</a>
</g>
</g>
<!-- Node6&#45;&gt;Node7 -->
<g id="edge6" class="edge">
<title>Node6&#45;&gt;Node7</title>
<path fill="none" stroke="midnightblue" d="M105.51,-46.98C110.09,-37.82 115.45,-27.09 119.12,-19.75"/>
<polygon fill="midnightblue" stroke="midnightblue" points="102.3,-45.57 100.96,-56.08 108.56,-48.7 102.3,-45.57"/>
</g>
<!-- Node9&#45;&gt;Node7 -->
<g id="edge9" class="edge">
<title>Node9&#45;&gt;Node7</title>
<path fill="none" stroke="midnightblue" d="M184.34,-103.96C168.74,-80.12 140.98,-37.71 129.12,-19.59"/>
<polygon fill="midnightblue" stroke="midnightblue" points="181.45,-105.92 189.85,-112.37 187.3,-102.08 181.45,-105.92"/>
</g>
<!-- Node10 -->
<g id="node10" class="node">
<title>Node10</title>
<g id="a_node10"><a xlink:href="Vortex_8cpp.html" target="_top" xlink:title=" ">
<polygon fill="white" stroke="black" points="178.5,-56.5 178.5,-75.5 242.5,-75.5 242.5,-56.5 178.5,-56.5"/>
<text text-anchor="middle" x="210.5" y="-63.5" font-family="Helvetica,sans-Serif" font-size="10.00">Vortex.cpp</text>
</a>
</g>
</g>
<!-- Node9&#45;&gt;Node10 -->
<g id="edge10" class="edge">
<title>Node9&#45;&gt;Node10</title>
<path fill="none" stroke="midnightblue" d="M200.67,-102.4C203.18,-93.36 206.07,-82.94 208.07,-75.75"/>
<polygon fill="midnightblue" stroke="midnightblue" points="197.28,-101.51 197.98,-112.08 204.03,-103.38 197.28,-101.51"/>
</g>
</g>
</svg>
