<?xml version="1.0" encoding="UTF-8" standalone="no"?>
<!DOCTYPE svg PUBLIC "-//W3C//DTD SVG 1.1//EN"
 "http://www.w3.org/Graphics/SVG/1.1/DTD/svg11.dtd">
<!-- Generated by graphviz version 2.47.1 (20210417.1919)
 -->
<!-- Title: rotateWinds Pages: 1 -->
<svg width="312pt" height="28pt"
 viewBox="0.00 0.00 312.00 28.00" xmlns="http://www.w3.org/2000/svg" xmlns:xlink="http://www.w3.org/1999/xlink">
<g id="graph0" class="graph" transform="scale(1 1) rotate(0) translate(4 24)">
<title>rotateWinds</title>
<polygon fill="white" stroke="transparent" points="-4,4 -4,-24 308,-24 308,4 -4,4"/>
<!-- Node1 -->
<g id="node1" class="node">
<title>Node1</title>
<g id="a_node1"><a xlink:title=" ">
<polygon fill="#bfbfbf" stroke="black" points="0,-0.5 0,-19.5 69,-19.5 69,-0.5 0,-0.5"/>
<text text-anchor="middle" x="34.5" y="-7.5" font-family="Helvetica,sans-Serif" font-size="10.00">rotateWinds</text>
</a>
</g>
</g>
<!-- Node2 -->
<g id="node2" class="node">
<title>Node2</title>
<g id="a_node2"><a xlink:href="classPhysical.html#ae43063ac7bf556cb933a0206301b9748" target="_top" xlink:title=" ">
<polygon fill="white" stroke="black" points="105,-0.5 105,-19.5 200,-19.5 200,-0.5 105,-0.5"/>
<text text-anchor="middle" x="152.5" y="-7.5" font-family="Helvetica,sans-Serif" font-size="10.00">Physical::deg2rad</text>
</a>
</g>
</g>
<!-- Node1&#45;&gt;Node2 -->
<g id="edge1" class="edge">
<title>Node1&#45;&gt;Node2</title>
<path fill="none" stroke="midnightblue" d="M69.05,-10C77.04,-10 85.78,-10 94.49,-10"/>
<polygon fill="midnightblue" stroke="midnightblue" points="94.65,-13.5 104.65,-10 94.65,-6.5 94.65,-13.5"/>
</g>
<!-- Node3 -->
<g id="node3" class="node">
<title>Node3</title>
<g id="a_node3"><a xlink:href="classPhysical.html#a8916e00cc71692658a0a355b2f142274" target="_top" xlink:title=" ">
<polygon fill="white" stroke="black" points="236,-0.5 236,-19.5 304,-19.5 304,-0.5 236,-0.5"/>
<text text-anchor="middle" x="270" y="-7.5" font-family="Helvetica,sans-Serif" font-size="10.00">Physical::pi</text>
</a>
</g>
</g>
<!-- Node2&#45;&gt;Node3 -->
<g id="edge2" class="edge">
<title>Node2&#45;&gt;Node3</title>
<path fill="none" stroke="midnightblue" d="M200.15,-10C208.51,-10 217.2,-10 225.47,-10"/>
<polygon fill="midnightblue" stroke="midnightblue" points="225.67,-13.5 235.67,-10 225.67,-6.5 225.67,-13.5"/>
</g>
</g>
</svg>
