<?xml version="1.0" encoding="UTF-8" standalone="no"?>
<!DOCTYPE svg PUBLIC "-//W3C//DTD SVG 1.1//EN"
 "http://www.w3.org/Graphics/SVG/1.1/DTD/svg11.dtd">
<!-- Generated by graphviz version 2.47.1 (20210417.1919)
 -->
<!-- Title: computeQuadrantVectorAngle Pages: 1 -->
<svg width="514pt" height="66pt"
 viewBox="0.00 0.00 514.00 66.00" xmlns="http://www.w3.org/2000/svg" xmlns:xlink="http://www.w3.org/1999/xlink">
<g id="graph0" class="graph" transform="scale(1 1) rotate(0) translate(4 62)">
<title>computeQuadrantVectorAngle</title>
<polygon fill="white" stroke="transparent" points="-4,4 -4,-62 510,-62 510,4 -4,4"/>
<!-- Node1 -->
<g id="node1" class="node">
<title>Node1</title>
<g id="a_node1"><a xlink:title=" ">
<polygon fill="#bfbfbf" stroke="black" points="359,-19.5 359,-38.5 506,-38.5 506,-19.5 359,-19.5"/>
<text text-anchor="middle" x="432.5" y="-26.5" font-family="Helvetica,sans-Serif" font-size="10.00">computeQuadrantVectorAngle</text>
</a>
</g>
</g>
<!-- Node2 -->
<g id="node2" class="node">
<title>Node2</title>
<g id="a_node2"><a xlink:href="classAtcf.html#a80d9683a370e561492db8a0f6d795c5d" target="_top" xlink:title=" ">
<polygon fill="white" stroke="black" points="215,-38.5 215,-57.5 319,-57.5 319,-38.5 215,-38.5"/>
<text text-anchor="middle" x="267" y="-45.5" font-family="Helvetica,sans-Serif" font-size="10.00">computeQuadrantVr</text>
</a>
</g>
</g>
<!-- Node1&#45;&gt;Node2 -->
<g id="edge1" class="edge">
<title>Node1&#45;&gt;Node2</title>
<path fill="none" stroke="midnightblue" d="M348.82,-38.61C338.78,-39.77 328.77,-40.94 319.38,-42.03"/>
<polygon fill="midnightblue" stroke="midnightblue" points="349.31,-42.08 358.83,-37.44 348.5,-35.12 349.31,-42.08"/>
</g>
<!-- Node5 -->
<g id="node5" class="node">
<title>Node5</title>
<g id="a_node5"><a xlink:href="classAtcf.html#adfe6ef35c351380ba863090d4fec04bb" target="_top" xlink:title=" ">
<polygon fill="white" stroke="black" points="211,-0.5 211,-19.5 323,-19.5 323,-0.5 211,-0.5"/>
<text text-anchor="middle" x="267" y="-7.5" font-family="Helvetica,sans-Serif" font-size="10.00">recomputeQuadrantVr</text>
</a>
</g>
</g>
<!-- Node1&#45;&gt;Node5 -->
<g id="edge4" class="edge">
<title>Node1&#45;&gt;Node5</title>
<path fill="none" stroke="midnightblue" d="M348.72,-19.38C340.09,-18.38 331.48,-17.38 323.26,-16.42"/>
<polygon fill="midnightblue" stroke="midnightblue" points="348.5,-22.88 358.83,-20.56 349.31,-15.92 348.5,-22.88"/>
</g>
<!-- Node3 -->
<g id="node3" class="node">
<title>Node3</title>
<g id="a_node3"><a xlink:href="classAtcf.html#ada693ebe0f0ee4be52b01fd3fe83963a" target="_top" xlink:title=" ">
<polygon fill="white" stroke="black" points="71,-19.5 71,-38.5 175,-38.5 175,-19.5 71,-19.5"/>
<text text-anchor="middle" x="123" y="-26.5" font-family="Helvetica,sans-Serif" font-size="10.00">computeParameters</text>
</a>
</g>
</g>
<!-- Node2&#45;&gt;Node3 -->
<g id="edge2" class="edge">
<title>Node2&#45;&gt;Node3</title>
<path fill="none" stroke="midnightblue" d="M204.63,-39.79C194.81,-38.47 184.74,-37.13 175.19,-35.85"/>
<polygon fill="midnightblue" stroke="midnightblue" points="204.36,-43.28 214.73,-41.14 205.29,-36.35 204.36,-43.28"/>
</g>
<!-- Node4 -->
<g id="node4" class="node">
<title>Node4</title>
<g id="a_node4"><a xlink:href="classAtcf.html#aaab5dab5b969a87f538242e524431637" target="_top" xlink:title=" ">
<polygon fill="white" stroke="black" points="0,-19.5 0,-38.5 35,-38.5 35,-19.5 0,-19.5"/>
<text text-anchor="middle" x="17.5" y="-26.5" font-family="Helvetica,sans-Serif" font-size="10.00">read</text>
</a>
</g>
</g>
<!-- Node3&#45;&gt;Node4 -->
<g id="edge3" class="edge">
<title>Node3&#45;&gt;Node4</title>
<path fill="none" stroke="midnightblue" d="M60.68,-29C51.4,-29 42.54,-29 35.36,-29"/>
<polygon fill="midnightblue" stroke="midnightblue" points="60.86,-32.5 70.86,-29 60.86,-25.5 60.86,-32.5"/>
</g>
<!-- Node5&#45;&gt;Node3 -->
<g id="edge5" class="edge">
<title>Node5&#45;&gt;Node3</title>
<path fill="none" stroke="midnightblue" d="M200.73,-18.73C192.17,-19.88 183.49,-21.04 175.21,-22.15"/>
<polygon fill="midnightblue" stroke="midnightblue" points="201.25,-22.2 210.69,-17.4 200.32,-15.26 201.25,-22.2"/>
</g>
</g>
</svg>
