<?xml version="1.0" encoding="UTF-8" standalone="no"?>
<!DOCTYPE svg PUBLIC "-//W3C//DTD SVG 1.1//EN"
 "http://www.w3.org/Graphics/SVG/1.1/DTD/svg11.dtd">
<!-- Generated by graphviz version 2.47.1 (20210417.1919)
 -->
<!-- Title: calculateOverlandTranslationVelocity Pages: 1 -->
<svg width="326pt" height="39pt"
 viewBox="0.00 0.00 326.00 39.00" xmlns="http://www.w3.org/2000/svg" xmlns:xlink="http://www.w3.org/1999/xlink">
<g id="graph0" class="graph" transform="scale(1 1) rotate(0) translate(4 35)">
<title>calculateOverlandTranslationVelocity</title>
<polygon fill="white" stroke="transparent" points="-4,4 -4,-35 322,-35 322,4 -4,4"/>
<!-- Node1 -->
<g id="node1" class="node">
<title>Node1</title>
<g id="a_node1"><a xlink:title=" ">
<polygon fill="#bfbfbf" stroke="black" points="175,-0.5 175,-30.5 318,-30.5 318,-0.5 175,-0.5"/>
<text text-anchor="start" x="183" y="-18.5" font-family="Helvetica,sans-Serif" font-size="10.00">calculateOverlandTranslation</text>
<text text-anchor="middle" x="246.5" y="-7.5" font-family="Helvetica,sans-Serif" font-size="10.00">Velocity</text>
</a>
</g>
</g>
<!-- Node2 -->
<g id="node2" class="node">
<title>Node2</title>
<g id="a_node2"><a xlink:href="classAtcf.html#aaab5dab5b969a87f538242e524431637" target="_top" xlink:title=" ">
<polygon fill="white" stroke="black" points="104,-6 104,-25 139,-25 139,-6 104,-6"/>
<text text-anchor="middle" x="121.5" y="-13" font-family="Helvetica,sans-Serif" font-size="10.00">read</text>
</a>
</g>
</g>
<!-- Node1&#45;&gt;Node2 -->
<g id="edge1" class="edge">
<title>Node1&#45;&gt;Node2</title>
<path fill="none" stroke="midnightblue" d="M164.58,-15.5C155.1,-15.5 146.31,-15.5 139.24,-15.5"/>
<polygon fill="midnightblue" stroke="midnightblue" points="164.66,-19 174.66,-15.5 164.66,-12 164.66,-19"/>
</g>
<!-- Node3 -->
<g id="node3" class="node">
<title>Node3</title>
<g id="a_node3"><a xlink:href="classGahm.html#aaab5dab5b969a87f538242e524431637" target="_top" xlink:title=" ">
<polygon fill="white" stroke="black" points="0,-6 0,-25 68,-25 68,-6 0,-6"/>
<text text-anchor="middle" x="34" y="-13" font-family="Helvetica,sans-Serif" font-size="10.00">Gahm::read</text>
</a>
</g>
</g>
<!-- Node2&#45;&gt;Node3 -->
<g id="edge2" class="edge">
<title>Node2&#45;&gt;Node3</title>
<path fill="none" stroke="midnightblue" d="M93.34,-15.5C85.33,-15.5 76.47,-15.5 68.13,-15.5"/>
<polygon fill="midnightblue" stroke="midnightblue" points="93.61,-19 103.61,-15.5 93.61,-12 93.61,-19"/>
</g>
</g>
</svg>
