<?xml version="1.0" encoding="UTF-8" standalone="no"?>
<!DOCTYPE svg PUBLIC "-//W3C//DTD SVG 1.1//EN"
 "http://www.w3.org/Graphics/SVG/1.1/DTD/svg11.dtd">
<!-- Generated by graphviz version 2.47.1 (20210417.1919)
 -->
<!-- Title: setSecond Pages: 1 -->
<svg width="345pt" height="256pt"
 viewBox="0.00 0.00 345.00 256.00" xmlns="http://www.w3.org/2000/svg" xmlns:xlink="http://www.w3.org/1999/xlink">
<g id="graph0" class="graph" transform="scale(1 1) rotate(0) translate(4 252)">
<title>setSecond</title>
<polygon fill="white" stroke="transparent" points="-4,4 -4,-252 341,-252 341,4 -4,4"/>
<!-- Node1 -->
<g id="node1" class="node">
<title>Node1</title>
<g id="a_node1"><a xlink:title=" ">
<polygon fill="#bfbfbf" stroke="black" points="0,-114.5 0,-133.5 63,-133.5 63,-114.5 0,-114.5"/>
<text text-anchor="middle" x="31.5" y="-121.5" font-family="Helvetica,sans-Serif" font-size="10.00">setSecond</text>
</a>
</g>
</g>
<!-- Node2 -->
<g id="node2" class="node">
<title>Node2</title>
<g id="a_node2"><a xlink:href="structs__datetime.html#a5a496ea2e6017fd4b43081f4317f96ce" target="_top" xlink:title=" ">
<polygon fill="white" stroke="black" points="106,-228.5 106,-247.5 192,-247.5 192,-228.5 106,-228.5"/>
<text text-anchor="middle" x="149" y="-235.5" font-family="Helvetica,sans-Serif" font-size="10.00">s_datetime::day</text>
</a>
</g>
</g>
<!-- Node1&#45;&gt;Node2 -->
<g id="edge1" class="edge">
<title>Node1&#45;&gt;Node2</title>
<path fill="none" stroke="midnightblue" d="M36.9,-133.78C45.92,-152.77 68.27,-194.9 99,-219 101.25,-220.77 103.69,-222.39 106.24,-223.87"/>
<polygon fill="midnightblue" stroke="midnightblue" points="104.67,-227 115.18,-228.39 107.83,-220.76 104.67,-227"/>
</g>
<!-- Node3 -->
<g id="node3" class="node">
<title>Node3</title>
<g id="a_node3"><a xlink:href="structs__datetime.html#a110d566ff7f9edf7cbfe15355f8c637c" target="_top" xlink:title=" ">
<polygon fill="white" stroke="black" points="104.5,-190.5 104.5,-209.5 193.5,-209.5 193.5,-190.5 104.5,-190.5"/>
<text text-anchor="middle" x="149" y="-197.5" font-family="Helvetica,sans-Serif" font-size="10.00">s_datetime::hour</text>
</a>
</g>
</g>
<!-- Node1&#45;&gt;Node3 -->
<g id="edge2" class="edge">
<title>Node1&#45;&gt;Node3</title>
<path fill="none" stroke="midnightblue" d="M41.61,-133.62C53.73,-145.96 76.3,-167.41 99,-181 102.2,-182.92 105.63,-184.71 109.14,-186.36"/>
<polygon fill="midnightblue" stroke="midnightblue" points="107.91,-189.64 118.47,-190.41 110.7,-183.22 107.91,-189.64"/>
</g>
<!-- Node4 -->
<g id="node4" class="node">
<title>Node4</title>
<g id="a_node4"><a xlink:href="structs__datetime.html#ae91256ab81b246d3f40eddbd4c016f5f" target="_top" xlink:title=" ">
<polygon fill="white" stroke="black" points="99,-152.5 99,-171.5 199,-171.5 199,-152.5 99,-152.5"/>
<text text-anchor="middle" x="149" y="-159.5" font-family="Helvetica,sans-Serif" font-size="10.00">s_datetime::minute</text>
</a>
</g>
</g>
<!-- Node1&#45;&gt;Node4 -->
<g id="edge3" class="edge">
<title>Node1&#45;&gt;Node4</title>
<path fill="none" stroke="midnightblue" d="M61.65,-133.59C76.01,-138.31 93.53,-144.08 109.03,-149.18"/>
<polygon fill="midnightblue" stroke="midnightblue" points="108.27,-152.61 118.86,-152.41 110.46,-145.96 108.27,-152.61"/>
</g>
<!-- Node5 -->
<g id="node5" class="node">
<title>Node5</title>
<g id="a_node5"><a xlink:href="structs__datetime.html#a1d85d7b09eedec3fb734532c164f2f27" target="_top" xlink:title=" ">
<polygon fill="white" stroke="black" points="100,-114.5 100,-133.5 198,-133.5 198,-114.5 100,-114.5"/>
<text text-anchor="middle" x="149" y="-121.5" font-family="Helvetica,sans-Serif" font-size="10.00">s_datetime::month</text>
</a>
</g>
</g>
<!-- Node1&#45;&gt;Node5 -->
<g id="edge4" class="edge">
<title>Node1&#45;&gt;Node5</title>
<path fill="none" stroke="midnightblue" d="M63.15,-124C71.31,-124 80.4,-124 89.51,-124"/>
<polygon fill="midnightblue" stroke="midnightblue" points="89.77,-127.5 99.77,-124 89.77,-120.5 89.77,-127.5"/>
</g>
<!-- Node6 -->
<g id="node6" class="node">
<title>Node6</title>
<g id="a_node6"><a xlink:href="classDate.html#a48e9ba1096b933927acac1f97d57f97c" target="_top" xlink:title=" ">
<polygon fill="white" stroke="black" points="125,-76.5 125,-95.5 173,-95.5 173,-76.5 125,-76.5"/>
<text text-anchor="middle" x="149" y="-83.5" font-family="Helvetica,sans-Serif" font-size="10.00">second</text>
</a>
</g>
</g>
<!-- Node1&#45;&gt;Node6 -->
<g id="edge5" class="edge">
<title>Node1&#45;&gt;Node6</title>
<path fill="none" stroke="midnightblue" d="M61.65,-114.41C77.81,-109.09 97.96,-102.46 114.74,-96.94"/>
<polygon fill="midnightblue" stroke="midnightblue" points="116.27,-100.12 124.68,-93.67 114.09,-93.47 116.27,-100.12"/>
</g>
<!-- Node8 -->
<g id="node8" class="node">
<title>Node8</title>
<g id="a_node8"><a xlink:href="classDate.html#ad1762f5051124b0a842e0cd1e94c6237" target="_top" xlink:title=" ">
<polygon fill="white" stroke="black" points="134,-38.5 134,-57.5 164,-57.5 164,-38.5 134,-38.5"/>
<text text-anchor="middle" x="149" y="-45.5" font-family="Helvetica,sans-Serif" font-size="10.00">set</text>
</a>
</g>
</g>
<!-- Node1&#45;&gt;Node8 -->
<g id="edge7" class="edge">
<title>Node1&#45;&gt;Node8</title>
<path fill="none" stroke="midnightblue" d="M41.61,-114.38C53.73,-102.04 76.3,-80.59 99,-67 106.79,-62.34 115.93,-58.43 124.19,-55.39"/>
<polygon fill="midnightblue" stroke="midnightblue" points="125.37,-58.69 133.69,-52.13 123.09,-52.07 125.37,-58.69"/>
</g>
<!-- Node9 -->
<g id="node9" class="node">
<title>Node9</title>
<g id="a_node9"><a xlink:href="structs__datetime.html#a1b5cb174b9b809888ca1cadfb32791f4" target="_top" xlink:title=" ">
<polygon fill="white" stroke="black" points="104.5,-0.5 104.5,-19.5 193.5,-19.5 193.5,-0.5 104.5,-0.5"/>
<text text-anchor="middle" x="149" y="-7.5" font-family="Helvetica,sans-Serif" font-size="10.00">s_datetime::year</text>
</a>
</g>
</g>
<!-- Node1&#45;&gt;Node9 -->
<g id="edge8" class="edge">
<title>Node1&#45;&gt;Node9</title>
<path fill="none" stroke="midnightblue" d="M36.9,-114.22C45.92,-95.23 68.27,-53.1 99,-29 101.25,-27.23 103.69,-25.61 106.24,-24.13"/>
<polygon fill="midnightblue" stroke="midnightblue" points="107.83,-27.24 115.18,-19.61 104.67,-21 107.83,-27.24"/>
</g>
<!-- Node7 -->
<g id="node7" class="node">
<title>Node7</title>
<g id="a_node7"><a xlink:href="structs__datetime.html#aa0cba22e21d8081f564e6a68edab1ae0" target="_top" xlink:title=" ">
<polygon fill="white" stroke="black" points="235,-76.5 235,-95.5 337,-95.5 337,-76.5 235,-76.5"/>
<text text-anchor="middle" x="286" y="-83.5" font-family="Helvetica,sans-Serif" font-size="10.00">s_datetime::second</text>
</a>
</g>
</g>
<!-- Node6&#45;&gt;Node7 -->
<g id="edge6" class="edge">
<title>Node6&#45;&gt;Node7</title>
<path fill="none" stroke="midnightblue" d="M173.21,-86C187.52,-86 206.59,-86 224.92,-86"/>
<polygon fill="midnightblue" stroke="midnightblue" points="224.99,-89.5 234.99,-86 224.99,-82.5 224.99,-89.5"/>
</g>
</g>
</svg>
