<?xml version="1.0" encoding="UTF-8" standalone="no"?>
<!DOCTYPE svg PUBLIC "-//W3C//DTD SVG 1.1//EN"
 "http://www.w3.org/Graphics/SVG/1.1/DTD/svg11.dtd">
<!-- Generated by graphviz version 2.47.1 (20210417.1919)
 -->
<!-- Title: e Pages: 1 -->
<svg width="182pt" height="66pt"
 viewBox="0.00 0.00 182.00 66.00" xmlns="http://www.w3.org/2000/svg" xmlns:xlink="http://www.w3.org/1999/xlink">
<g id="graph0" class="graph" transform="scale(1 1) rotate(0) translate(4 62)">
<title>e</title>
<polygon fill="white" stroke="transparent" points="-4,4 -4,-62 178,-62 178,4 -4,4"/>
<!-- Node1 -->
<g id="node1" class="node">
<title>Node1</title>
<g id="a_node1"><a xlink:title=" ">
<polygon fill="#bfbfbf" stroke="black" points="145,-19.5 145,-38.5 174,-38.5 174,-19.5 145,-19.5"/>
<text text-anchor="middle" x="159.5" y="-26.5" font-family="Helvetica,sans-Serif" font-size="10.00">e</text>
</a>
</g>
</g>
<!-- Node2 -->
<g id="node2" class="node">
<title>Node2</title>
<g id="a_node2"><a xlink:href="classVortex.html#a3d3d41c13add60885c9ab06ba3ca6815" target="_top" xlink:title=" ">
<polygon fill="white" stroke="black" points="0,-38.5 0,-57.5 109,-57.5 109,-38.5 0,-38.5"/>
<text text-anchor="middle" x="54.5" y="-45.5" font-family="Helvetica,sans-Serif" font-size="10.00">Vortex::calcHollandB</text>
</a>
</g>
</g>
<!-- Node1&#45;&gt;Node2 -->
<g id="edge1" class="edge">
<title>Node1&#45;&gt;Node2</title>
<path fill="none" stroke="midnightblue" d="M134.68,-33.39C126.45,-34.91 116.89,-36.68 107.31,-38.44"/>
<polygon fill="midnightblue" stroke="midnightblue" points="135.41,-36.82 144.61,-31.56 134.14,-29.93 135.41,-36.82"/>
</g>
<!-- Node3 -->
<g id="node3" class="node">
<title>Node3</title>
<g id="a_node3"><a xlink:href="classPhysical.html#acbf23a54b4a872a5c1a3ca9f9423d882" target="_top" xlink:title=" ">
<polygon fill="white" stroke="black" points="16.5,-0.5 16.5,-19.5 92.5,-19.5 92.5,-0.5 16.5,-0.5"/>
<text text-anchor="middle" x="54.5" y="-7.5" font-family="Helvetica,sans-Serif" font-size="10.00">rotation_earth</text>
</a>
</g>
</g>
<!-- Node1&#45;&gt;Node3 -->
<g id="edge2" class="edge">
<title>Node1&#45;&gt;Node3</title>
<path fill="none" stroke="midnightblue" d="M134.56,-24.58C122.1,-22.29 106.59,-19.42 92.62,-16.85"/>
<polygon fill="midnightblue" stroke="midnightblue" points="134.14,-28.07 144.61,-26.44 135.41,-21.18 134.14,-28.07"/>
</g>
</g>
</svg>
