<?xml version="1.0" encoding="UTF-8" standalone="no"?>
<!DOCTYPE svg PUBLIC "-//W3C//DTD SVG 1.1//EN"
 "http://www.w3.org/Graphics/SVG/1.1/DTD/svg11.dtd">
<!-- Generated by graphviz version 2.47.1 (20210417.1919)
 -->
<!-- Title: interpolateParameter Pages: 1 -->
<svg width="699pt" height="140pt"
 viewBox="0.00 0.00 699.00 139.50" xmlns="http://www.w3.org/2000/svg" xmlns:xlink="http://www.w3.org/1999/xlink">
<g id="graph0" class="graph" transform="scale(1 1) rotate(0) translate(4 135.5)">
<title>interpolateParameter</title>
<polygon fill="white" stroke="transparent" points="-4,4 -4,-135.5 695,-135.5 695,4 -4,4"/>
<!-- Node1 -->
<g id="node1" class="node">
<title>Node1</title>
<g id="a_node1"><a xlink:title=" ">
<polygon fill="#bfbfbf" stroke="black" points="0,-81.5 0,-100.5 107,-100.5 107,-81.5 0,-81.5"/>
<text text-anchor="middle" x="53.5" y="-88.5" font-family="Helvetica,sans-Serif" font-size="10.00">interpolateParameter</text>
</a>
</g>
</g>
<!-- Node2 -->
<g id="node2" class="node">
<title>Node2</title>
<g id="a_node2"><a xlink:href="namespacePhysical.html#a91dad53e6fb51e27776a895703d6c17a" target="_top" xlink:title=" ">
<polygon fill="white" stroke="black" points="143,-81.5 143,-100.5 240,-100.5 240,-81.5 143,-81.5"/>
<text text-anchor="middle" x="191.5" y="-88.5" font-family="Helvetica,sans-Serif" font-size="10.00">Physical::distance</text>
</a>
</g>
</g>
<!-- Node1&#45;&gt;Node2 -->
<g id="edge1" class="edge">
<title>Node1&#45;&gt;Node2</title>
<path fill="none" stroke="midnightblue" d="M107.08,-91C115.48,-91 124.2,-91 132.71,-91"/>
<polygon fill="midnightblue" stroke="midnightblue" points="132.95,-94.5 142.95,-91 132.95,-87.5 132.95,-94.5"/>
</g>
<!-- Node3 -->
<g id="node3" class="node">
<title>Node3</title>
<g id="a_node3"><a xlink:href="namespacePhysical.html#a5cd90415008c6f2196b425d2a524062b" target="_top" xlink:title=" ">
<polygon fill="white" stroke="black" points="276,-101 276,-131 376,-131 376,-101 276,-101"/>
<text text-anchor="start" x="284" y="-119" font-family="Helvetica,sans-Serif" font-size="10.00">Physical::cartesian</text>
<text text-anchor="middle" x="326" y="-108" font-family="Helvetica,sans-Serif" font-size="10.00">_distance</text>
</a>
</g>
</g>
<!-- Node2&#45;&gt;Node3 -->
<g id="edge2" class="edge">
<title>Node2&#45;&gt;Node3</title>
<path fill="none" stroke="midnightblue" d="M240.34,-100.03C248.65,-101.59 257.38,-103.24 265.95,-104.86"/>
<polygon fill="midnightblue" stroke="midnightblue" points="265.42,-108.32 275.9,-106.74 266.72,-101.44 265.42,-108.32"/>
</g>
<!-- Node4 -->
<g id="node4" class="node">
<title>Node4</title>
<g id="a_node4"><a xlink:href="namespacePhysical.html#aa9f4487d4613a1f2b0a6f4c12d564e2c" target="_top" xlink:title=" ">
<polygon fill="white" stroke="black" points="276.5,-52 276.5,-82 375.5,-82 375.5,-52 276.5,-52"/>
<text text-anchor="start" x="284.5" y="-70" font-family="Helvetica,sans-Serif" font-size="10.00">Physical::geodesic</text>
<text text-anchor="middle" x="326" y="-59" font-family="Helvetica,sans-Serif" font-size="10.00">_distance</text>
</a>
</g>
</g>
<!-- Node2&#45;&gt;Node4 -->
<g id="edge3" class="edge">
<title>Node2&#45;&gt;Node4</title>
<path fill="none" stroke="midnightblue" d="M240.34,-82.34C248.75,-80.81 257.6,-79.21 266.28,-77.64"/>
<polygon fill="midnightblue" stroke="midnightblue" points="267.13,-81.04 276.34,-75.81 265.88,-74.15 267.13,-81.04"/>
</g>
<!-- Node5 -->
<g id="node5" class="node">
<title>Node5</title>
<g id="a_node5"><a xlink:href="namespacePhysical.html#aedb77f347557f2942e99437f55e976a8" target="_top" xlink:title=" ">
<polygon fill="white" stroke="black" points="577,-76.5 577,-95.5 672,-95.5 672,-76.5 577,-76.5"/>
<text text-anchor="middle" x="624.5" y="-83.5" font-family="Helvetica,sans-Serif" font-size="10.00">Physical::deg2rad</text>
</a>
</g>
</g>
<!-- Node4&#45;&gt;Node5 -->
<g id="edge4" class="edge">
<title>Node4&#45;&gt;Node5</title>
<path fill="none" stroke="midnightblue" d="M375.63,-70.12C428.06,-73.48 511.43,-78.82 566.8,-82.37"/>
<polygon fill="midnightblue" stroke="midnightblue" points="566.6,-85.86 576.8,-83.01 567.05,-78.88 566.6,-85.86"/>
</g>
<!-- Node6 -->
<g id="node6" class="node">
<title>Node6</title>
<g id="a_node6"><a xlink:href="namespacePhysical.html#a54d120caf204e2c8e9b5c646442f0aaf" target="_top" xlink:title=" ">
<polygon fill="white" stroke="black" points="412,-38.5 412,-57.5 522,-57.5 522,-38.5 412,-38.5"/>
<text text-anchor="middle" x="467" y="-45.5" font-family="Helvetica,sans-Serif" font-size="10.00">Physical::radiusEarth</text>
</a>
</g>
</g>
<!-- Node4&#45;&gt;Node6 -->
<g id="edge5" class="edge">
<title>Node4&#45;&gt;Node6</title>
<path fill="none" stroke="midnightblue" d="M375.62,-60.35C384.15,-59.19 393.14,-57.96 402.02,-56.75"/>
<polygon fill="midnightblue" stroke="midnightblue" points="402.52,-60.21 411.95,-55.39 401.57,-53.27 402.52,-60.21"/>
</g>
<!-- Node6&#45;&gt;Node5 -->
<g id="edge6" class="edge">
<title>Node6&#45;&gt;Node5</title>
<path fill="none" stroke="midnightblue" d="M507.24,-57.59C527.76,-62.6 553.07,-68.79 574.83,-74.11"/>
<polygon fill="midnightblue" stroke="midnightblue" points="574,-77.51 584.54,-76.48 575.66,-70.71 574,-77.51"/>
</g>
<!-- Node7 -->
<g id="node7" class="node">
<title>Node7</title>
<g id="a_node7"><a xlink:href="namespacePhysical.html#a6c13e82a46905cdfbf1647591d8935ed" target="_top" xlink:title=" ">
<polygon fill="white" stroke="black" points="558,-38.5 558,-57.5 691,-57.5 691,-38.5 558,-38.5"/>
<text text-anchor="middle" x="624.5" y="-45.5" font-family="Helvetica,sans-Serif" font-size="10.00">Physical::equatorialRadius</text>
</a>
</g>
</g>
<!-- Node6&#45;&gt;Node7 -->
<g id="edge7" class="edge">
<title>Node6&#45;&gt;Node7</title>
<path fill="none" stroke="midnightblue" d="M522.39,-48C530.63,-48 539.27,-48 547.86,-48"/>
<polygon fill="midnightblue" stroke="midnightblue" points="547.92,-51.5 557.92,-48 547.92,-44.5 547.92,-51.5"/>
</g>
<!-- Node8 -->
<g id="node8" class="node">
<title>Node8</title>
<g id="a_node8"><a xlink:href="namespacePhysical.html#acbba7b727274b2f016499f85b0b3d2f7" target="_top" xlink:title=" ">
<polygon fill="white" stroke="black" points="568.5,-0.5 568.5,-19.5 680.5,-19.5 680.5,-0.5 568.5,-0.5"/>
<text text-anchor="middle" x="624.5" y="-7.5" font-family="Helvetica,sans-Serif" font-size="10.00">Physical::polarRadius</text>
</a>
</g>
</g>
<!-- Node6&#45;&gt;Node8 -->
<g id="edge8" class="edge">
<title>Node6&#45;&gt;Node8</title>
<path fill="none" stroke="midnightblue" d="M507.24,-38.41C527.76,-33.4 553.07,-27.21 574.83,-21.89"/>
<polygon fill="midnightblue" stroke="midnightblue" points="575.66,-25.29 584.54,-19.52 574,-18.49 575.66,-25.29"/>
</g>
</g>
</svg>
