<?xml version="1.0" encoding="UTF-8" standalone="no"?>
<!DOCTYPE svg PUBLIC "-//W3C//DTD SVG 1.1//EN"
 "http://www.w3.org/Graphics/SVG/1.1/DTD/svg11.dtd">
<!-- Generated by graphviz version 2.47.1 (20210417.1919)
 -->
<!-- Title: generateQuadFlag Pages: 1 -->
<svg width="372pt" height="72pt"
 viewBox="0.00 0.00 372.00 71.50" xmlns="http://www.w3.org/2000/svg" xmlns:xlink="http://www.w3.org/1999/xlink">
<g id="graph0" class="graph" transform="scale(1 1) rotate(0) translate(4 67.5)">
<title>generateQuadFlag</title>
<polygon fill="white" stroke="transparent" points="-4,4 -4,-67.5 368,-67.5 368,4 -4,4"/>
<!-- Node1 -->
<g id="node1" class="node">
<title>Node1</title>
<g id="a_node1"><a xlink:title=" ">
<polygon fill="#bfbfbf" stroke="black" points="0,-19.5 0,-38.5 96,-38.5 96,-19.5 0,-19.5"/>
<text text-anchor="middle" x="48" y="-26.5" font-family="Helvetica,sans-Serif" font-size="10.00">generateQuadFlag</text>
</a>
</g>
</g>
<!-- Node2 -->
<g id="node2" class="node">
<title>Node2</title>
<g id="a_node2"><a xlink:href="classCircularArray.html#a0642b8def16b83c1fff8f93326d2c842" target="_top" xlink:title=" ">
<polygon fill="white" stroke="black" points="137,-38.5 137,-57.5 225,-57.5 225,-38.5 137,-38.5"/>
<text text-anchor="middle" x="181" y="-45.5" font-family="Helvetica,sans-Serif" font-size="10.00">CircularArray::at</text>
</a>
</g>
</g>
<!-- Node1&#45;&gt;Node2 -->
<g id="edge1" class="edge">
<title>Node1&#45;&gt;Node2</title>
<path fill="none" stroke="midnightblue" d="M96.29,-35.86C106.19,-37.29 116.68,-38.82 126.78,-40.28"/>
<polygon fill="midnightblue" stroke="midnightblue" points="126.3,-43.75 136.7,-41.72 127.3,-36.82 126.3,-43.75"/>
</g>
<!-- Node4 -->
<g id="node4" class="node">
<title>Node4</title>
<g id="a_node4"><a xlink:href="classCircularArray.html#af837dccb72214bb010abc276fb618c36" target="_top" xlink:title=" ">
<polygon fill="white" stroke="black" points="132,-0.5 132,-19.5 230,-19.5 230,-0.5 132,-0.5"/>
<text text-anchor="middle" x="181" y="-7.5" font-family="Helvetica,sans-Serif" font-size="10.00">CircularArray::size</text>
</a>
</g>
</g>
<!-- Node1&#45;&gt;Node4 -->
<g id="edge3" class="edge">
<title>Node1&#45;&gt;Node4</title>
<path fill="none" stroke="midnightblue" d="M96.29,-22.14C104.62,-20.93 113.37,-19.66 121.94,-18.42"/>
<polygon fill="midnightblue" stroke="midnightblue" points="122.5,-21.88 131.89,-16.98 121.5,-14.95 122.5,-21.88"/>
</g>
<!-- Node3 -->
<g id="node3" class="node">
<title>Node3</title>
<g id="a_node3"><a xlink:href="classCircularArray.html#ae9ee07d89dc4196acefc5b290b9275b8" target="_top" xlink:title=" ">
<polygon fill="white" stroke="black" points="266,-33 266,-63 364,-63 364,-33 266,-33"/>
<text text-anchor="start" x="274" y="-51" font-family="Helvetica,sans-Serif" font-size="10.00">CircularArray::mod</text>
<text text-anchor="middle" x="315" y="-40" font-family="Helvetica,sans-Serif" font-size="10.00">_floor</text>
</a>
</g>
</g>
<!-- Node2&#45;&gt;Node3 -->
<g id="edge2" class="edge">
<title>Node2&#45;&gt;Node3</title>
<path fill="none" stroke="midnightblue" d="M225.22,-48C234.92,-48 245.37,-48 255.57,-48"/>
<polygon fill="midnightblue" stroke="midnightblue" points="255.66,-51.5 265.66,-48 255.66,-44.5 255.66,-51.5"/>
</g>
</g>
</svg>
