<?xml version="1.0" encoding="UTF-8" standalone="no"?>
<!DOCTYPE svg PUBLIC "-//W3C//DTD SVG 1.1//EN"
 "http://www.w3.org/Graphics/SVG/1.1/DTD/svg11.dtd">
<!-- Generated by graphviz version 2.47.1 (20210417.1919)
 -->
<!-- Title: getUvpr Pages: 1 -->
<svg width="671pt" height="325pt"
 viewBox="0.00 0.00 671.00 325.00" xmlns="http://www.w3.org/2000/svg" xmlns:xlink="http://www.w3.org/1999/xlink">
<g id="graph0" class="graph" transform="scale(1 1) rotate(0) translate(4 321)">
<title>getUvpr</title>
<polygon fill="white" stroke="transparent" points="-4,4 -4,-321 667,-321 667,4 -4,4"/>
<!-- Node1 -->
<g id="node1" class="node">
<title>Node1</title>
<g id="a_node1"><a xlink:title=" ">
<polygon fill="#bfbfbf" stroke="black" points="0,-114.5 0,-133.5 51,-133.5 51,-114.5 0,-114.5"/>
<text text-anchor="middle" x="25.5" y="-121.5" font-family="Helvetica,sans-Serif" font-size="10.00">getUvpr</text>
</a>
</g>
</g>
<!-- Node2 -->
<g id="node2" class="node">
<title>Node2</title>
<g id="a_node2"><a xlink:href="namespacePhysical.html#aa6f9f6768fb27a3751a74b7e43b4a45a" target="_top" xlink:title=" ">
<polygon fill="white" stroke="black" points="104,-190.5 104,-209.5 195,-209.5 195,-190.5 104,-190.5"/>
<text text-anchor="middle" x="149.5" y="-197.5" font-family="Helvetica,sans-Serif" font-size="10.00">Physical::coriolis</text>
</a>
</g>
</g>
<!-- Node1&#45;&gt;Node2 -->
<g id="edge1" class="edge">
<title>Node1&#45;&gt;Node2</title>
<path fill="none" stroke="midnightblue" d="M34.47,-133.91C45.15,-146.57 65.31,-168.36 87,-181 90.69,-183.15 94.66,-185.09 98.72,-186.82"/>
<polygon fill="midnightblue" stroke="midnightblue" points="97.74,-190.19 108.34,-190.5 100.25,-183.65 97.74,-190.19"/>
</g>
<!-- Node6 -->
<g id="node6" class="node">
<title>Node6</title>
<g id="a_node6"><a xlink:href="namespacePhysical.html#a91dad53e6fb51e27776a895703d6c17a" target="_top" xlink:title=" ">
<polygon fill="white" stroke="black" points="101,-234.5 101,-253.5 198,-253.5 198,-234.5 101,-234.5"/>
<text text-anchor="middle" x="149.5" y="-241.5" font-family="Helvetica,sans-Serif" font-size="10.00">Physical::distance</text>
</a>
</g>
</g>
<!-- Node1&#45;&gt;Node6 -->
<g id="edge5" class="edge">
<title>Node1&#45;&gt;Node6</title>
<path fill="none" stroke="midnightblue" d="M30.3,-133.74C38.14,-152.68 57.86,-194.71 87,-219 92.35,-223.46 98.61,-227.21 105.04,-230.34"/>
<polygon fill="midnightblue" stroke="midnightblue" points="103.94,-233.68 114.51,-234.48 106.75,-227.26 103.94,-233.68"/>
</g>
<!-- Node12 -->
<g id="node12" class="node">
<title>Node12</title>
<g id="a_node12"><a xlink:href="namespacePhysical.html#aa169b36a001af3b6ea0590bc0ffd6fa8" target="_top" xlink:title=" ">
<polygon fill="white" stroke="black" points="92.5,-152.5 92.5,-171.5 206.5,-171.5 206.5,-152.5 92.5,-152.5"/>
<text text-anchor="middle" x="149.5" y="-159.5" font-family="Helvetica,sans-Serif" font-size="10.00">Physical::frictionAngle</text>
</a>
</g>
</g>
<!-- Node1&#45;&gt;Node12 -->
<g id="edge13" class="edge">
<title>Node1&#45;&gt;Node12</title>
<path fill="none" stroke="midnightblue" d="M51.22,-131.79C62.18,-135.24 75.23,-139.33 87,-143 93.67,-145.08 100.74,-147.27 107.63,-149.4"/>
<polygon fill="midnightblue" stroke="midnightblue" points="106.93,-152.85 117.52,-152.46 109,-146.16 106.93,-152.85"/>
</g>
<!-- Node13 -->
<g id="node13" class="node">
<title>Node13</title>
<g id="a_node13"><a xlink:href="namespacePhysical.html#a8f26784ba5fa860689f1dcaf50e062bb" target="_top" xlink:title=" ">
<polygon fill="white" stroke="black" points="102,-114.5 102,-133.5 197,-133.5 197,-114.5 102,-114.5"/>
<text text-anchor="middle" x="149.5" y="-121.5" font-family="Helvetica,sans-Serif" font-size="10.00">Physical::nmi2km</text>
</a>
</g>
</g>
<!-- Node1&#45;&gt;Node13 -->
<g id="edge14" class="edge">
<title>Node1&#45;&gt;Node13</title>
<path fill="none" stroke="midnightblue" d="M51.19,-124C62.84,-124 77.28,-124 91.43,-124"/>
<polygon fill="midnightblue" stroke="midnightblue" points="91.64,-127.5 101.64,-124 91.64,-120.5 91.64,-127.5"/>
</g>
<!-- Node15 -->
<g id="node15" class="node">
<title>Node15</title>
<g id="a_node15"><a xlink:href="namespacePhysical.html#a10686d4103de8f9b2a043962d3725802" target="_top" xlink:title=" ">
<polygon fill="white" stroke="black" points="102,-76.5 102,-95.5 197,-95.5 197,-76.5 102,-76.5"/>
<text text-anchor="middle" x="149.5" y="-83.5" font-family="Helvetica,sans-Serif" font-size="10.00">Physical::one2ten</text>
</a>
</g>
</g>
<!-- Node1&#45;&gt;Node15 -->
<g id="edge16" class="edge">
<title>Node1&#45;&gt;Node15</title>
<path fill="none" stroke="midnightblue" d="M51.22,-116.21C62.18,-112.76 75.23,-108.67 87,-105 93.67,-102.92 100.74,-100.73 107.63,-98.6"/>
<polygon fill="midnightblue" stroke="midnightblue" points="109,-101.84 117.52,-95.54 106.93,-95.15 109,-101.84"/>
</g>
<!-- Node16 -->
<g id="node16" class="node">
<title>Node16</title>
<g id="a_node16"><a xlink:href="classVortex.html#ae8ae0a3d4ce49e437c521815b907ea13" target="_top" xlink:title=" ">
<polygon fill="white" stroke="black" points="387,-76.5 387,-95.5 491,-95.5 491,-76.5 387,-76.5"/>
<text text-anchor="middle" x="439" y="-83.5" font-family="Helvetica,sans-Serif" font-size="10.00">Vortex::rotateWinds</text>
</a>
</g>
</g>
<!-- Node1&#45;&gt;Node16 -->
<g id="edge17" class="edge">
<title>Node1&#45;&gt;Node16</title>
<path fill="none" stroke="midnightblue" d="M32.95,-114.45C42.75,-100.87 62.86,-76.58 87,-67 193.29,-24.82 332.03,-54.57 398.77,-73.54"/>
<polygon fill="midnightblue" stroke="midnightblue" points="397.89,-76.93 408.47,-76.37 399.85,-70.21 397.89,-76.93"/>
</g>
<!-- Node17 -->
<g id="node17" class="node">
<title>Node17</title>
<g id="a_node17"><a xlink:href="namespacePhysical.html#a7a0e10124e38dbffecaa523c97b21e4a" target="_top" xlink:title=" ">
<polygon fill="white" stroke="black" points="87,-0.5 87,-19.5 212,-19.5 212,-0.5 87,-0.5"/>
<text text-anchor="middle" x="149.5" y="-7.5" font-family="Helvetica,sans-Serif" font-size="10.00">Physical::windReduction</text>
</a>
</g>
</g>
<!-- Node1&#45;&gt;Node17 -->
<g id="edge19" class="edge">
<title>Node1&#45;&gt;Node17</title>
<path fill="none" stroke="midnightblue" d="M30.54,-114.46C38.66,-96.34 58.64,-56.72 87,-34 92.05,-29.96 97.86,-26.53 103.85,-23.64"/>
<polygon fill="midnightblue" stroke="midnightblue" points="105.55,-26.72 113.33,-19.54 102.77,-20.3 105.55,-26.72"/>
</g>
<!-- Node3 -->
<g id="node3" class="node">
<title>Node3</title>
<g id="a_node3"><a xlink:href="namespacePhysical.html#aedb77f347557f2942e99437f55e976a8" target="_top" xlink:title=" ">
<polygon fill="white" stroke="black" points="549,-202.5 549,-221.5 644,-221.5 644,-202.5 549,-202.5"/>
<text text-anchor="middle" x="596.5" y="-209.5" font-family="Helvetica,sans-Serif" font-size="10.00">Physical::deg2rad</text>
</a>
</g>
</g>
<!-- Node2&#45;&gt;Node3 -->
<g id="edge2" class="edge">
<title>Node2&#45;&gt;Node3</title>
<path fill="none" stroke="midnightblue" d="M190.09,-190.49C207.71,-186.72 228.77,-182.86 248,-181 356.83,-170.5 385.87,-164.85 494,-181 517.12,-184.45 542.26,-192.1 561.73,-198.93"/>
<polygon fill="midnightblue" stroke="midnightblue" points="560.76,-202.3 571.36,-202.4 563.14,-195.72 560.76,-202.3"/>
</g>
<!-- Node4 -->
<g id="node4" class="node">
<title>Node4</title>
<g id="a_node4"><a xlink:href="namespacePhysical.html#a70d4ca8d5ef6f3097277170502431f7b" target="_top" xlink:title=" ">
<polygon fill="white" stroke="black" points="253.5,-190.5 253.5,-209.5 342.5,-209.5 342.5,-190.5 253.5,-190.5"/>
<text text-anchor="middle" x="298" y="-197.5" font-family="Helvetica,sans-Serif" font-size="10.00">Physical::omega</text>
</a>
</g>
</g>
<!-- Node2&#45;&gt;Node4 -->
<g id="edge3" class="edge">
<title>Node2&#45;&gt;Node4</title>
<path fill="none" stroke="midnightblue" d="M195.25,-200C210.37,-200 227.4,-200 243.15,-200"/>
<polygon fill="midnightblue" stroke="midnightblue" points="243.28,-203.5 253.28,-200 243.28,-196.5 243.28,-203.5"/>
</g>
<!-- Node5 -->
<g id="node5" class="node">
<title>Node5</title>
<g id="a_node5"><a xlink:href="namespacePhysical.html#aceeafe6dfcafc1ccd35aee635c075f09" target="_top" xlink:title=" ">
<polygon fill="white" stroke="black" points="405,-190.5 405,-209.5 473,-209.5 473,-190.5 405,-190.5"/>
<text text-anchor="middle" x="439" y="-197.5" font-family="Helvetica,sans-Serif" font-size="10.00">Physical::pi</text>
</a>
</g>
</g>
<!-- Node4&#45;&gt;Node5 -->
<g id="edge4" class="edge">
<title>Node4&#45;&gt;Node5</title>
<path fill="none" stroke="midnightblue" d="M342.6,-200C359.06,-200 377.78,-200 394.25,-200"/>
<polygon fill="midnightblue" stroke="midnightblue" points="394.7,-203.5 404.7,-200 394.7,-196.5 394.7,-203.5"/>
</g>
<!-- Node7 -->
<g id="node7" class="node">
<title>Node7</title>
<g id="a_node7"><a xlink:href="namespacePhysical.html#a5cd90415008c6f2196b425d2a524062b" target="_top" xlink:title=" ">
<polygon fill="white" stroke="black" points="248,-229 248,-259 348,-259 348,-229 248,-229"/>
<text text-anchor="start" x="256" y="-247" font-family="Helvetica,sans-Serif" font-size="10.00">Physical::cartesian</text>
<text text-anchor="middle" x="298" y="-236" font-family="Helvetica,sans-Serif" font-size="10.00">_distance</text>
</a>
</g>
</g>
<!-- Node6&#45;&gt;Node7 -->
<g id="edge6" class="edge">
<title>Node6&#45;&gt;Node7</title>
<path fill="none" stroke="midnightblue" d="M198.06,-244C210.66,-244 224.41,-244 237.54,-244"/>
<polygon fill="midnightblue" stroke="midnightblue" points="237.91,-247.5 247.91,-244 237.91,-240.5 237.91,-247.5"/>
</g>
<!-- Node8 -->
<g id="node8" class="node">
<title>Node8</title>
<g id="a_node8"><a xlink:href="namespacePhysical.html#aa9f4487d4613a1f2b0a6f4c12d564e2c" target="_top" xlink:title=" ">
<polygon fill="white" stroke="black" points="248.5,-278 248.5,-308 347.5,-308 347.5,-278 248.5,-278"/>
<text text-anchor="start" x="256.5" y="-296" font-family="Helvetica,sans-Serif" font-size="10.00">Physical::geodesic</text>
<text text-anchor="middle" x="298" y="-285" font-family="Helvetica,sans-Serif" font-size="10.00">_distance</text>
</a>
</g>
</g>
<!-- Node6&#45;&gt;Node8 -->
<g id="edge7" class="edge">
<title>Node6&#45;&gt;Node8</title>
<path fill="none" stroke="midnightblue" d="M179.09,-253.56C197.07,-259.58 220.86,-267.53 242.36,-274.72"/>
<polygon fill="midnightblue" stroke="midnightblue" points="241.45,-278.11 252.04,-277.96 243.67,-271.47 241.45,-278.11"/>
</g>
<!-- Node8&#45;&gt;Node3 -->
<g id="edge8" class="edge">
<title>Node8&#45;&gt;Node3</title>
<path fill="none" stroke="midnightblue" d="M347.52,-279.19C359.44,-275.83 372.17,-272.26 384,-269 441.02,-253.27 506.82,-235.61 549.69,-224.18"/>
<polygon fill="midnightblue" stroke="midnightblue" points="550.78,-227.51 559.54,-221.55 548.97,-220.75 550.78,-227.51"/>
</g>
<!-- Node9 -->
<g id="node9" class="node">
<title>Node9</title>
<g id="a_node9"><a xlink:href="namespacePhysical.html#a54d120caf204e2c8e9b5c646442f0aaf" target="_top" xlink:title=" ">
<polygon fill="white" stroke="black" points="384,-278.5 384,-297.5 494,-297.5 494,-278.5 384,-278.5"/>
<text text-anchor="middle" x="439" y="-285.5" font-family="Helvetica,sans-Serif" font-size="10.00">Physical::radiusEarth</text>
</a>
</g>
</g>
<!-- Node8&#45;&gt;Node9 -->
<g id="edge9" class="edge">
<title>Node8&#45;&gt;Node9</title>
<path fill="none" stroke="midnightblue" d="M347.62,-291.25C356.06,-290.95 364.95,-290.63 373.73,-290.31"/>
<polygon fill="midnightblue" stroke="midnightblue" points="374.09,-293.8 383.95,-289.94 373.83,-286.81 374.09,-293.8"/>
</g>
<!-- Node9&#45;&gt;Node3 -->
<g id="edge10" class="edge">
<title>Node9&#45;&gt;Node3</title>
<path fill="none" stroke="midnightblue" d="M459.69,-278.37C486.8,-265.13 535.78,-241.19 566.92,-225.97"/>
<polygon fill="midnightblue" stroke="midnightblue" points="568.52,-229.08 575.97,-221.55 565.44,-222.79 568.52,-229.08"/>
</g>
<!-- Node10 -->
<g id="node10" class="node">
<title>Node10</title>
<g id="a_node10"><a xlink:href="namespacePhysical.html#a6c13e82a46905cdfbf1647591d8935ed" target="_top" xlink:title=" ">
<polygon fill="white" stroke="black" points="530,-259.5 530,-278.5 663,-278.5 663,-259.5 530,-259.5"/>
<text text-anchor="middle" x="596.5" y="-266.5" font-family="Helvetica,sans-Serif" font-size="10.00">Physical::equatorialRadius</text>
</a>
</g>
</g>
<!-- Node9&#45;&gt;Node10 -->
<g id="edge11" class="edge">
<title>Node9&#45;&gt;Node10</title>
<path fill="none" stroke="midnightblue" d="M494.39,-281.35C502.63,-280.35 511.27,-279.29 519.86,-278.24"/>
<polygon fill="midnightblue" stroke="midnightblue" points="520.42,-281.7 529.92,-277.01 519.57,-274.75 520.42,-281.7"/>
</g>
<!-- Node11 -->
<g id="node11" class="node">
<title>Node11</title>
<g id="a_node11"><a xlink:href="namespacePhysical.html#acbba7b727274b2f016499f85b0b3d2f7" target="_top" xlink:title=" ">
<polygon fill="white" stroke="black" points="540.5,-297.5 540.5,-316.5 652.5,-316.5 652.5,-297.5 540.5,-297.5"/>
<text text-anchor="middle" x="596.5" y="-304.5" font-family="Helvetica,sans-Serif" font-size="10.00">Physical::polarRadius</text>
</a>
</g>
</g>
<!-- Node9&#45;&gt;Node11 -->
<g id="edge12" class="edge">
<title>Node9&#45;&gt;Node11</title>
<path fill="none" stroke="midnightblue" d="M494.39,-294.65C506.02,-296.07 518.42,-297.58 530.41,-299.05"/>
<polygon fill="midnightblue" stroke="midnightblue" points="530,-302.52 540.36,-300.26 530.85,-295.57 530,-302.52"/>
</g>
<!-- Node14 -->
<g id="node14" class="node">
<title>Node14</title>
<g id="a_node14"><a xlink:href="namespacePhysical.html#a4a42ec86e2054ee5fdcfbef26042513b" target="_top" xlink:title=" ">
<polygon fill="white" stroke="black" points="250.5,-114.5 250.5,-133.5 345.5,-133.5 345.5,-114.5 250.5,-114.5"/>
<text text-anchor="middle" x="298" y="-121.5" font-family="Helvetica,sans-Serif" font-size="10.00">Physical::km2nmi</text>
</a>
</g>
</g>
<!-- Node13&#45;&gt;Node14 -->
<g id="edge15" class="edge">
<title>Node13&#45;&gt;Node14</title>
<path fill="none" stroke="midnightblue" d="M197.26,-124C210.94,-124 226.04,-124 240.27,-124"/>
<polygon fill="midnightblue" stroke="midnightblue" points="240.44,-127.5 250.44,-124 240.44,-120.5 240.44,-127.5"/>
</g>
<!-- Node16&#45;&gt;Node3 -->
<g id="edge18" class="edge">
<title>Node16&#45;&gt;Node3</title>
<path fill="none" stroke="midnightblue" d="M451.94,-95.68C478.58,-117.26 543.06,-169.51 575.77,-196.01"/>
<polygon fill="midnightblue" stroke="midnightblue" points="573.76,-198.89 583.73,-202.46 578.16,-193.45 573.76,-198.89"/>
</g>
</g>
</svg>
