<?xml version="1.0" encoding="UTF-8" standalone="no"?>
<!DOCTYPE svg PUBLIC "-//W3C//DTD SVG 1.1//EN"
 "http://www.w3.org/Graphics/SVG/1.1/DTD/svg11.dtd">
<!-- Generated by graphviz version 2.47.1 (20210417.1919)
 -->
<!-- Title: isNull Pages: 1 -->
<svg width="307pt" height="148pt"
 viewBox="0.00 0.00 307.00 147.50" xmlns="http://www.w3.org/2000/svg" xmlns:xlink="http://www.w3.org/1999/xlink">
<g id="graph0" class="graph" transform="scale(1 1) rotate(0) translate(4 143.5)">
<title>isNull</title>
<polygon fill="white" stroke="transparent" points="-4,4 -4,-143.5 303,-143.5 303,4 -4,4"/>
<!-- Node1 -->
<g id="node1" class="node">
<title>Node1</title>
<g id="a_node1"><a xlink:title=" ">
<polygon fill="#bfbfbf" stroke="black" points="0,-57.5 0,-76.5 41,-76.5 41,-57.5 0,-57.5"/>
<text text-anchor="middle" x="20.5" y="-64.5" font-family="Helvetica,sans-Serif" font-size="10.00">isNull</text>
</a>
</g>
</g>
<!-- Node2 -->
<g id="node2" class="node">
<title>Node2</title>
<g id="a_node2"><a xlink:href="classCircularArray.html#a0642b8def16b83c1fff8f93326d2c842" target="_top" xlink:title=" ">
<polygon fill="white" stroke="black" points="77,-114.5 77,-133.5 165,-133.5 165,-114.5 77,-114.5"/>
<text text-anchor="middle" x="121" y="-121.5" font-family="Helvetica,sans-Serif" font-size="10.00">CircularArray::at</text>
</a>
</g>
</g>
<!-- Node1&#45;&gt;Node2 -->
<g id="edge1" class="edge">
<title>Node1&#45;&gt;Node2</title>
<path fill="none" stroke="midnightblue" d="M34.3,-76.77C45.27,-84.89 61.7,-96.48 77,-105 80.09,-106.72 83.36,-108.4 86.67,-110.01"/>
<polygon fill="midnightblue" stroke="midnightblue" points="85.42,-113.29 95.96,-114.31 88.36,-106.93 85.42,-113.29"/>
</g>
<!-- Node4 -->
<g id="node4" class="node">
<title>Node4</title>
<g id="a_node4"><a xlink:href="classIsotach.html#af93a6e1bb9f15faae4793d8205637e40" target="_top" xlink:title=" ">
<polygon fill="white" stroke="black" points="79,-76.5 79,-95.5 163,-95.5 163,-76.5 79,-76.5"/>
<text text-anchor="middle" x="121" y="-83.5" font-family="Helvetica,sans-Serif" font-size="10.00">cisotachRadius</text>
</a>
</g>
</g>
<!-- Node1&#45;&gt;Node4 -->
<g id="edge3" class="edge">
<title>Node1&#45;&gt;Node4</title>
<path fill="none" stroke="midnightblue" d="M41.43,-70.84C49.44,-72.39 59.08,-74.25 68.82,-76.13"/>
<polygon fill="midnightblue" stroke="midnightblue" points="68.46,-79.62 78.94,-78.08 69.78,-72.75 68.46,-79.62"/>
</g>
<!-- Node5 -->
<g id="node5" class="node">
<title>Node5</title>
<g id="a_node5"><a xlink:href="classIsotach.html#a60ce77aeb249510471495cc63a7793da" target="_top" xlink:title=" ">
<polygon fill="white" stroke="black" points="102,-38.5 102,-57.5 140,-57.5 140,-38.5 102,-38.5"/>
<text text-anchor="middle" x="121" y="-45.5" font-family="Helvetica,sans-Serif" font-size="10.00">code</text>
</a>
</g>
</g>
<!-- Node1&#45;&gt;Node5 -->
<g id="edge4" class="edge">
<title>Node1&#45;&gt;Node5</title>
<path fill="none" stroke="midnightblue" d="M41.43,-63.16C55.91,-60.36 75.71,-56.54 91.81,-53.44"/>
<polygon fill="midnightblue" stroke="midnightblue" points="92.6,-56.85 101.76,-51.52 91.28,-49.98 92.6,-56.85"/>
</g>
<!-- Node6 -->
<g id="node6" class="node">
<title>Node6</title>
<g id="a_node6"><a xlink:href="classIsotach.html#a90b55241f6d0ff34cfb78229a7ffacf7" target="_top" xlink:title=" ">
<polygon fill="white" stroke="black" points="88.5,-0.5 88.5,-19.5 153.5,-19.5 153.5,-0.5 88.5,-0.5"/>
<text text-anchor="middle" x="121" y="-7.5" font-family="Helvetica,sans-Serif" font-size="10.00">windSpeed</text>
</a>
</g>
</g>
<!-- Node1&#45;&gt;Node6 -->
<g id="edge5" class="edge">
<title>Node1&#45;&gt;Node6</title>
<path fill="none" stroke="midnightblue" d="M34.3,-57.23C45.27,-49.11 61.7,-37.52 77,-29 80.09,-27.28 83.36,-25.6 86.67,-23.99"/>
<polygon fill="midnightblue" stroke="midnightblue" points="88.36,-27.07 95.96,-19.69 85.42,-20.71 88.36,-27.07"/>
</g>
<!-- Node3 -->
<g id="node3" class="node">
<title>Node3</title>
<g id="a_node3"><a xlink:href="classCircularArray.html#ae9ee07d89dc4196acefc5b290b9275b8" target="_top" xlink:title=" ">
<polygon fill="white" stroke="black" points="201,-109 201,-139 299,-139 299,-109 201,-109"/>
<text text-anchor="start" x="209" y="-127" font-family="Helvetica,sans-Serif" font-size="10.00">CircularArray::mod</text>
<text text-anchor="middle" x="250" y="-116" font-family="Helvetica,sans-Serif" font-size="10.00">_floor</text>
</a>
</g>
</g>
<!-- Node2&#45;&gt;Node3 -->
<g id="edge2" class="edge">
<title>Node2&#45;&gt;Node3</title>
<path fill="none" stroke="midnightblue" d="M165.35,-124C173.42,-124 181.98,-124 190.42,-124"/>
<polygon fill="midnightblue" stroke="midnightblue" points="190.61,-127.5 200.61,-124 190.61,-120.5 190.61,-127.5"/>
</g>
</g>
</svg>
