<?xml version="1.0" encoding="UTF-8" standalone="no"?>
<!DOCTYPE svg PUBLIC "-//W3C//DTD SVG 1.1//EN"
 "http://www.w3.org/Graphics/SVG/1.1/DTD/svg11.dtd">
<!-- Generated by graphviz version 2.47.1 (20210417.1919)
 -->
<!-- Title: pressureMethod Pages: 1 -->
<svg width="501pt" height="28pt"
 viewBox="0.00 0.00 501.00 28.00" xmlns="http://www.w3.org/2000/svg" xmlns:xlink="http://www.w3.org/1999/xlink">
<g id="graph0" class="graph" transform="scale(1 1) rotate(0) translate(4 24)">
<title>pressureMethod</title>
<polygon fill="white" stroke="transparent" points="-4,4 -4,-24 497,-24 497,4 -4,4"/>
<!-- Node1 -->
<g id="node1" class="node">
<title>Node1</title>
<g id="a_node1"><a xlink:title=" ">
<polygon fill="#bfbfbf" stroke="black" points="407,-0.5 407,-19.5 493,-19.5 493,-0.5 407,-0.5"/>
<text text-anchor="middle" x="450" y="-7.5" font-family="Helvetica,sans-Serif" font-size="10.00">pressureMethod</text>
</a>
</g>
</g>
<!-- Node2 -->
<g id="node2" class="node">
<title>Node2</title>
<g id="a_node2"><a xlink:href="classAtcf.html#a2c8fb312c911c7d35cc921e303cac875" target="_top" xlink:title=" ">
<polygon fill="white" stroke="black" points="199,-0.5 199,-19.5 371,-19.5 371,-0.5 199,-0.5"/>
<text text-anchor="middle" x="285" y="-7.5" font-family="Helvetica,sans-Serif" font-size="10.00">Atcf::generateMissingPressureData</text>
</a>
</g>
</g>
<!-- Node1&#45;&gt;Node2 -->
<g id="edge1" class="edge">
<title>Node1&#45;&gt;Node2</title>
<path fill="none" stroke="midnightblue" d="M396.56,-10C388.42,-10 379.84,-10 371.2,-10"/>
<polygon fill="midnightblue" stroke="midnightblue" points="396.6,-13.5 406.6,-10 396.6,-6.5 396.6,-13.5"/>
</g>
<!-- Node3 -->
<g id="node3" class="node">
<title>Node3</title>
<g id="a_node3"><a xlink:href="classAtcf.html#aaab5dab5b969a87f538242e524431637" target="_top" xlink:title=" ">
<polygon fill="white" stroke="black" points="104,-0.5 104,-19.5 163,-19.5 163,-0.5 104,-0.5"/>
<text text-anchor="middle" x="133.5" y="-7.5" font-family="Helvetica,sans-Serif" font-size="10.00">Atcf::read</text>
</a>
</g>
</g>
<!-- Node2&#45;&gt;Node3 -->
<g id="edge2" class="edge">
<title>Node2&#45;&gt;Node3</title>
<path fill="none" stroke="midnightblue" d="M188.65,-10C179.45,-10 170.71,-10 163.04,-10"/>
<polygon fill="midnightblue" stroke="midnightblue" points="188.77,-13.5 198.77,-10 188.77,-6.5 188.77,-13.5"/>
</g>
<!-- Node4 -->
<g id="node4" class="node">
<title>Node4</title>
<g id="a_node4"><a xlink:href="classGahm.html#aaab5dab5b969a87f538242e524431637" target="_top" xlink:title=" ">
<polygon fill="white" stroke="black" points="0,-0.5 0,-19.5 68,-19.5 68,-0.5 0,-0.5"/>
<text text-anchor="middle" x="34" y="-7.5" font-family="Helvetica,sans-Serif" font-size="10.00">Gahm::read</text>
</a>
</g>
</g>
<!-- Node3&#45;&gt;Node4 -->
<g id="edge3" class="edge">
<title>Node3&#45;&gt;Node4</title>
<path fill="none" stroke="midnightblue" d="M93.5,-10C85.16,-10 76.43,-10 68.32,-10"/>
<polygon fill="midnightblue" stroke="midnightblue" points="93.77,-13.5 103.77,-10 93.77,-6.5 93.77,-13.5"/>
</g>
</g>
</svg>
