<?xml version="1.0" encoding="UTF-8" standalone="no"?>
<!DOCTYPE svg PUBLIC "-//W3C//DTD SVG 1.1//EN"
 "http://www.w3.org/Graphics/SVG/1.1/DTD/svg11.dtd">
<!-- Generated by graphviz version 2.47.1 (20210417.1919)
 -->
<!-- Title: Atcf Pages: 1 -->
<svg width="928pt" height="1659pt"
 viewBox="0.00 0.00 928.00 1659.00" xmlns="http://www.w3.org/2000/svg" xmlns:xlink="http://www.w3.org/1999/xlink">
<g id="graph0" class="graph" transform="scale(1 1) rotate(0) translate(4 1655)">
<title>Atcf</title>
<polygon fill="white" stroke="transparent" points="-4,4 -4,-1655 924,-1655 924,4 -4,4"/>
<!-- Node1 -->
<g id="node1" class="node">
<title>Node1</title>
<g id="a_node1"><a xlink:title="Class that handles operations on Atcf format files.">
<polygon fill="#bfbfbf" stroke="black" points="618.5,-0.5 618.5,-288.5 785.5,-288.5 785.5,-0.5 618.5,-0.5"/>
<text text-anchor="middle" x="702" y="-276.5" font-family="Helvetica,sans-Serif" font-size="10.00">Atcf</text>
<polyline fill="none" stroke="black" points="618.5,-269.5 785.5,-269.5 "/>
<text text-anchor="middle" x="702" y="-257.5" font-family="Helvetica,sans-Serif" font-size="10.00"> </text>
<polyline fill="none" stroke="black" points="618.5,-250.5 785.5,-250.5 "/>
<text text-anchor="start" x="626.5" y="-238.5" font-family="Helvetica,sans-Serif" font-size="10.00">+ Atcf()</text>
<text text-anchor="start" x="626.5" y="-227.5" font-family="Helvetica,sans-Serif" font-size="10.00">+ calculateRadii()</text>
<text text-anchor="start" x="626.5" y="-216.5" font-family="Helvetica,sans-Serif" font-size="10.00">+ crecord()</text>
<text text-anchor="start" x="626.5" y="-205.5" font-family="Helvetica,sans-Serif" font-size="10.00">+ filename()</text>
<text text-anchor="start" x="626.5" y="-194.5" font-family="Helvetica,sans-Serif" font-size="10.00">+ getStormParameters()</text>
<text text-anchor="start" x="626.5" y="-183.5" font-family="Helvetica,sans-Serif" font-size="10.00">+ nRecords()</text>
<text text-anchor="start" x="626.5" y="-172.5" font-family="Helvetica,sans-Serif" font-size="10.00">+ read()</text>
<text text-anchor="start" x="626.5" y="-161.5" font-family="Helvetica,sans-Serif" font-size="10.00">+ record()</text>
<text text-anchor="start" x="626.5" y="-150.5" font-family="Helvetica,sans-Serif" font-size="10.00">+ setFilename()</text>
<text text-anchor="start" x="626.5" y="-139.5" font-family="Helvetica,sans-Serif" font-size="10.00">&#45; calculateOverlandTranslation</text>
<text text-anchor="start" x="626.5" y="-128.5" font-family="Helvetica,sans-Serif" font-size="10.00">Velocity()</text>
<text text-anchor="start" x="626.5" y="-117.5" font-family="Helvetica,sans-Serif" font-size="10.00">&#45; generateMissingPressureData()</text>
<text text-anchor="start" x="626.5" y="-106.5" font-family="Helvetica,sans-Serif" font-size="10.00">&#45; getCycleNumber()</text>
<text text-anchor="start" x="626.5" y="-95.5" font-family="Helvetica,sans-Serif" font-size="10.00">&#45; setAllRadiiToRmax()</text>
<text text-anchor="start" x="626.5" y="-84.5" font-family="Helvetica,sans-Serif" font-size="10.00">&#45; setMissingRadiiToAverage</text>
<text text-anchor="start" x="626.5" y="-73.5" font-family="Helvetica,sans-Serif" font-size="10.00">OfAdjacentRadii()</text>
<text text-anchor="start" x="626.5" y="-62.5" font-family="Helvetica,sans-Serif" font-size="10.00">&#45; setMissingRadiiToHalfNonzero</text>
<text text-anchor="start" x="626.5" y="-51.5" font-family="Helvetica,sans-Serif" font-size="10.00">Radii()</text>
<text text-anchor="start" x="626.5" y="-40.5" font-family="Helvetica,sans-Serif" font-size="10.00">&#45; setMissingRadiiToHalfOfAverage</text>
<text text-anchor="start" x="626.5" y="-29.5" font-family="Helvetica,sans-Serif" font-size="10.00">SpecifiedRadii()</text>
<text text-anchor="start" x="626.5" y="-18.5" font-family="Helvetica,sans-Serif" font-size="10.00">&#45; linearInterp()</text>
<text text-anchor="start" x="626.5" y="-7.5" font-family="Helvetica,sans-Serif" font-size="10.00">&#45; uvTrans()</text>
</a>
</g>
</g>
<!-- Node2 -->
<g id="node2" class="node">
<title>Node2</title>
<g id="a_node2"><a xlink:href="classAssumptions.html" target="_top" xlink:title=" ">
<polygon fill="white" stroke="black" points="658,-336.5 658,-437.5 746,-437.5 746,-336.5 658,-336.5"/>
<text text-anchor="middle" x="702" y="-425.5" font-family="Helvetica,sans-Serif" font-size="10.00">Assumptions</text>
<polyline fill="none" stroke="black" points="658,-418.5 746,-418.5 "/>
<text text-anchor="middle" x="702" y="-406.5" font-family="Helvetica,sans-Serif" font-size="10.00"> </text>
<polyline fill="none" stroke="black" points="658,-399.5 746,-399.5 "/>
<text text-anchor="start" x="666" y="-387.5" font-family="Helvetica,sans-Serif" font-size="10.00">+ Assumptions()</text>
<text text-anchor="start" x="666" y="-376.5" font-family="Helvetica,sans-Serif" font-size="10.00">+ add()</text>
<text text-anchor="start" x="666" y="-365.5" font-family="Helvetica,sans-Serif" font-size="10.00">+ count()</text>
<text text-anchor="start" x="666" y="-354.5" font-family="Helvetica,sans-Serif" font-size="10.00">+ get()</text>
<text text-anchor="start" x="666" y="-343.5" font-family="Helvetica,sans-Serif" font-size="10.00">+ log()</text>
</a>
</g>
</g>
<!-- Node2&#45;&gt;Node1 -->
<g id="edge1" class="edge">
<title>Node2&#45;&gt;Node1</title>
<path fill="none" stroke="#404040" d="M702,-336.46C702,-325.62 702,-313.6 702,-301.01"/>
<polygon fill="none" stroke="#404040" points="702,-300.78 698,-294.78 702,-288.78 706,-294.78 702,-300.78"/>
<text text-anchor="middle" x="740" y="-310" font-family="Helvetica,sans-Serif" font-size="10.00"> &#45;m_assumptions</text>
</g>
<!-- Node3 -->
<g id="node3" class="node">
<title>Node3</title>
<g id="a_node3"><a xlink:title=" ">
<polygon fill="white" stroke="#bfbfbf" points="645.5,-617.5 645.5,-674.5 758.5,-674.5 758.5,-617.5 645.5,-617.5"/>
<text text-anchor="middle" x="702" y="-662.5" font-family="Helvetica,sans-Serif" font-size="10.00">vector&lt; Assumption &gt;</text>
<polyline fill="none" stroke="#bfbfbf" points="645.5,-655.5 758.5,-655.5 "/>
<text text-anchor="middle" x="702" y="-643.5" font-family="Helvetica,sans-Serif" font-size="10.00"> </text>
<polyline fill="none" stroke="#bfbfbf" points="645.5,-636.5 758.5,-636.5 "/>
<text text-anchor="middle" x="702" y="-624.5" font-family="Helvetica,sans-Serif" font-size="10.00"> </text>
</a>
</g>
</g>
<!-- Node3&#45;&gt;Node2 -->
<g id="edge2" class="edge">
<title>Node3&#45;&gt;Node2</title>
<path fill="none" stroke="#404040" d="M702,-617.5C702,-577.73 702,-503.11 702,-449.75"/>
<polygon fill="none" stroke="#404040" points="702,-449.69 698,-443.69 702,-437.69 706,-443.69 702,-449.69"/>
<text text-anchor="middle" x="740" y="-459" font-family="Helvetica,sans-Serif" font-size="10.00"> &#45;m_assumptions</text>
</g>
<!-- Node4 -->
<g id="node4" class="node">
<title>Node4</title>
<g id="a_node4"><a xlink:href="classAssumption.html" target="_top" xlink:title=" ">
<polygon fill="white" stroke="black" points="743,-898.5 743,-1032.5 835,-1032.5 835,-898.5 743,-898.5"/>
<text text-anchor="middle" x="789" y="-1020.5" font-family="Helvetica,sans-Serif" font-size="10.00">Assumption</text>
<polyline fill="none" stroke="black" points="743,-1013.5 835,-1013.5 "/>
<text text-anchor="start" x="751" y="-1001.5" font-family="Helvetica,sans-Serif" font-size="10.00">&#45; m_line</text>
<text text-anchor="start" x="751" y="-990.5" font-family="Helvetica,sans-Serif" font-size="10.00">&#45; m_severity</text>
<polyline fill="none" stroke="black" points="743,-983.5 835,-983.5 "/>
<text text-anchor="start" x="751" y="-971.5" font-family="Helvetica,sans-Serif" font-size="10.00">+ Assumption()</text>
<text text-anchor="start" x="751" y="-960.5" font-family="Helvetica,sans-Serif" font-size="10.00">+ filename()</text>
<text text-anchor="start" x="751" y="-949.5" font-family="Helvetica,sans-Serif" font-size="10.00">+ line()</text>
<text text-anchor="start" x="751" y="-938.5" font-family="Helvetica,sans-Serif" font-size="10.00">+ message()</text>
<text text-anchor="start" x="751" y="-927.5" font-family="Helvetica,sans-Serif" font-size="10.00">+ severity()</text>
<text text-anchor="start" x="751" y="-916.5" font-family="Helvetica,sans-Serif" font-size="10.00">+ toString()</text>
<text text-anchor="start" x="751" y="-905.5" font-family="Helvetica,sans-Serif" font-size="10.00">+ severityString()</text>
</a>
</g>
</g>
<!-- Node4&#45;&gt;Node3 -->
<g id="edge3" class="edge">
<title>Node4&#45;&gt;Node3</title>
<path fill="none" stroke="#404040" d="M770.87,-898.33C753.31,-834.26 727.28,-739.26 712.77,-686.31"/>
<polygon fill="none" stroke="#404040" points="712.77,-686.3 707.33,-681.57 709.6,-674.73 715.04,-679.46 712.77,-686.3"/>
<text text-anchor="middle" x="779.5" y="-833.5" font-family="Helvetica,sans-Serif" font-size="10.00"> +elements</text>
</g>
<!-- Node5 -->
<g id="node5" class="node">
<title>Node5</title>
<g id="a_node5"><a xlink:title=" ">
<polygon fill="white" stroke="#bfbfbf" points="768.5,-1201.5 768.5,-1258.5 809.5,-1258.5 809.5,-1201.5 768.5,-1201.5"/>
<text text-anchor="middle" x="789" y="-1246.5" font-family="Helvetica,sans-Serif" font-size="10.00">string</text>
<polyline fill="none" stroke="#bfbfbf" points="768.5,-1239.5 809.5,-1239.5 "/>
<text text-anchor="middle" x="789" y="-1227.5" font-family="Helvetica,sans-Serif" font-size="10.00"> </text>
<polyline fill="none" stroke="#bfbfbf" points="768.5,-1220.5 809.5,-1220.5 "/>
<text text-anchor="middle" x="789" y="-1208.5" font-family="Helvetica,sans-Serif" font-size="10.00"> </text>
</a>
</g>
</g>
<!-- Node5&#45;&gt;Node1 -->
<g id="edge8" class="edge">
<title>Node5&#45;&gt;Node1</title>
<path fill="none" stroke="#404040" d="M806.05,-1201.31C820.08,-1177.1 839.19,-1140.51 849,-1106 866.04,-1046.06 863,-1028.81 863,-966.5 863,-966.5 863,-966.5 863,-386 863,-327.6 829.82,-272.66 793.58,-230.07"/>
<polygon fill="none" stroke="#404040" points="793.46,-229.94 786.5,-228.05 785.57,-220.9 792.53,-222.79 793.46,-229.94"/>
<text text-anchor="middle" x="891.5" y="-643.5" font-family="Helvetica,sans-Serif" font-size="10.00"> &#45;m_filename</text>
</g>
<!-- Node5&#45;&gt;Node4 -->
<g id="edge4" class="edge">
<title>Node5&#45;&gt;Node4</title>
<path fill="none" stroke="#404040" d="M789,-1201.4C789,-1164.52 789,-1097.67 789,-1044.68"/>
<polygon fill="none" stroke="#404040" points="789,-1044.57 785,-1038.57 789,-1032.57 793,-1038.57 789,-1044.57"/>
<text text-anchor="middle" x="817.5" y="-1098" font-family="Helvetica,sans-Serif" font-size="10.00"> &#45;m_filename</text>
<text text-anchor="middle" x="817.5" y="-1087" font-family="Helvetica,sans-Serif" font-size="10.00">&#45;m_message</text>
</g>
<!-- Node10 -->
<g id="node10" class="node">
<title>Node10</title>
<g id="a_node10"><a xlink:href="classAtcfLine.html" target="_top" xlink:title=" ">
<polygon fill="white" stroke="black" points="350.5,-485.5 350.5,-806.5 481.5,-806.5 481.5,-485.5 350.5,-485.5"/>
<text text-anchor="middle" x="416" y="-794.5" font-family="Helvetica,sans-Serif" font-size="10.00">AtcfLine</text>
<polyline fill="none" stroke="black" points="350.5,-787.5 481.5,-787.5 "/>
<text text-anchor="start" x="358.5" y="-775.5" font-family="Helvetica,sans-Serif" font-size="10.00">&#45; m_cycloneNumber</text>
<text text-anchor="start" x="358.5" y="-764.5" font-family="Helvetica,sans-Serif" font-size="10.00">&#45; m_eyeDiameter</text>
<text text-anchor="start" x="358.5" y="-753.5" font-family="Helvetica,sans-Serif" font-size="10.00">&#45; m_gusts</text>
<text text-anchor="start" x="358.5" y="-742.5" font-family="Helvetica,sans-Serif" font-size="10.00">&#45; m_lat</text>
<text text-anchor="start" x="358.5" y="-731.5" font-family="Helvetica,sans-Serif" font-size="10.00">&#45; m_lon</text>
<text text-anchor="start" x="358.5" y="-720.5" font-family="Helvetica,sans-Serif" font-size="10.00">&#45; m_maxSeas</text>
<text text-anchor="start" x="358.5" y="-709.5" font-family="Helvetica,sans-Serif" font-size="10.00">&#45; m_mslp</text>
<text text-anchor="start" x="358.5" y="-698.5" font-family="Helvetica,sans-Serif" font-size="10.00">&#45; m_null</text>
<text text-anchor="start" x="358.5" y="-687.5" font-family="Helvetica,sans-Serif" font-size="10.00">&#45; m_pouter</text>
<text text-anchor="start" x="358.5" y="-676.5" font-family="Helvetica,sans-Serif" font-size="10.00">&#45; m_radiusMaxWinds</text>
<text text-anchor="start" x="358.5" y="-665.5" font-family="Helvetica,sans-Serif" font-size="10.00">and 10 more...</text>
<polyline fill="none" stroke="black" points="350.5,-658.5 481.5,-658.5 "/>
<text text-anchor="start" x="358.5" y="-646.5" font-family="Helvetica,sans-Serif" font-size="10.00">+ AtcfLine()</text>
<text text-anchor="start" x="358.5" y="-635.5" font-family="Helvetica,sans-Serif" font-size="10.00">+ addIsotach()</text>
<text text-anchor="start" x="358.5" y="-624.5" font-family="Helvetica,sans-Serif" font-size="10.00">+ basin()</text>
<text text-anchor="start" x="358.5" y="-613.5" font-family="Helvetica,sans-Serif" font-size="10.00">+ cisotach()</text>
<text text-anchor="start" x="358.5" y="-602.5" font-family="Helvetica,sans-Serif" font-size="10.00">+ cseas()</text>
<text text-anchor="start" x="358.5" y="-591.5" font-family="Helvetica,sans-Serif" font-size="10.00">+ cycloneNumber()</text>
<text text-anchor="start" x="358.5" y="-580.5" font-family="Helvetica,sans-Serif" font-size="10.00">+ datetime()</text>
<text text-anchor="start" x="358.5" y="-569.5" font-family="Helvetica,sans-Serif" font-size="10.00">+ eyeDiameter()</text>
<text text-anchor="start" x="358.5" y="-558.5" font-family="Helvetica,sans-Serif" font-size="10.00">+ gusts()</text>
<text text-anchor="start" x="358.5" y="-547.5" font-family="Helvetica,sans-Serif" font-size="10.00">+ initials()</text>
<text text-anchor="start" x="358.5" y="-536.5" font-family="Helvetica,sans-Serif" font-size="10.00">and 57 more...</text>
<text text-anchor="start" x="358.5" y="-525.5" font-family="Helvetica,sans-Serif" font-size="10.00">+ isSameForecastPeriod()</text>
<text text-anchor="start" x="358.5" y="-514.5" font-family="Helvetica,sans-Serif" font-size="10.00">+ parseAtcfLine()</text>
<text text-anchor="start" x="358.5" y="-503.5" font-family="Helvetica,sans-Serif" font-size="10.00">&#45; readValueCheckBlank()</text>
<text text-anchor="start" x="358.5" y="-492.5" font-family="Helvetica,sans-Serif" font-size="10.00">&#45; splitString()</text>
</a>
</g>
</g>
<!-- Node5&#45;&gt;Node10 -->
<g id="edge21" class="edge">
<title>Node5&#45;&gt;Node10</title>
<path fill="none" stroke="#404040" d="M768.42,-1216.27C731.26,-1192.08 653.47,-1135.6 617,-1066 575.05,-985.94 621.84,-947.98 586,-865 563.28,-812.38 524.76,-761.41 490.12,-722.01"/>
<polygon fill="none" stroke="#404040" points="489.87,-721.71 482.89,-719.9 481.88,-712.76 488.86,-714.57 489.87,-721.71"/>
<text text-anchor="middle" x="675.5" y="-990.5" font-family="Helvetica,sans-Serif" font-size="10.00"> &#45;m_basin</text>
<text text-anchor="middle" x="675.5" y="-979.5" font-family="Helvetica,sans-Serif" font-size="10.00">&#45;m_initials</text>
<text text-anchor="middle" x="675.5" y="-968.5" font-family="Helvetica,sans-Serif" font-size="10.00">&#45;m_maxDevelopmentLevel</text>
<text text-anchor="middle" x="675.5" y="-957.5" font-family="Helvetica,sans-Serif" font-size="10.00">&#45;m_stormName</text>
<text text-anchor="middle" x="675.5" y="-946.5" font-family="Helvetica,sans-Serif" font-size="10.00">&#45;m_systemDepth</text>
<text text-anchor="middle" x="675.5" y="-935.5" font-family="Helvetica,sans-Serif" font-size="10.00">&#45;m_techstring</text>
</g>
<!-- Node6 -->
<g id="node6" class="node">
<title>Node6</title>
<g id="a_node6"><a xlink:title=" ">
<polygon fill="white" stroke="#bfbfbf" points="735,-1383.5 735,-1440.5 843,-1440.5 843,-1383.5 735,-1383.5"/>
<text text-anchor="middle" x="789" y="-1428.5" font-family="Helvetica,sans-Serif" font-size="10.00">basic_string&lt; Char &gt;</text>
<polyline fill="none" stroke="#bfbfbf" points="735,-1421.5 843,-1421.5 "/>
<text text-anchor="middle" x="789" y="-1409.5" font-family="Helvetica,sans-Serif" font-size="10.00"> </text>
<polyline fill="none" stroke="#bfbfbf" points="735,-1402.5 843,-1402.5 "/>
<text text-anchor="middle" x="789" y="-1390.5" font-family="Helvetica,sans-Serif" font-size="10.00"> </text>
</a>
</g>
</g>
<!-- Node6&#45;&gt;Node5 -->
<g id="edge5" class="edge">
<title>Node6&#45;&gt;Node5</title>
<path fill="none" stroke="midnightblue" d="M789,-1373.19C789,-1338.99 789,-1289.43 789,-1258.76"/>
<polygon fill="none" stroke="midnightblue" points="785.5,-1373.27 789,-1383.27 792.5,-1373.27 785.5,-1373.27"/>
</g>
<!-- Node7 -->
<g id="node7" class="node">
<title>Node7</title>
<g id="a_node7"><a xlink:title=" ">
<polygon fill="white" stroke="#bfbfbf" points="299,-1201.5 299,-1258.5 367,-1258.5 367,-1201.5 299,-1201.5"/>
<text text-anchor="middle" x="333" y="-1246.5" font-family="Helvetica,sans-Serif" font-size="10.00">vector&lt; T &gt;</text>
<polyline fill="none" stroke="#bfbfbf" points="299,-1239.5 367,-1239.5 "/>
<text text-anchor="middle" x="333" y="-1227.5" font-family="Helvetica,sans-Serif" font-size="10.00"> </text>
<polyline fill="none" stroke="#bfbfbf" points="299,-1220.5 367,-1220.5 "/>
<text text-anchor="middle" x="333" y="-1208.5" font-family="Helvetica,sans-Serif" font-size="10.00"> </text>
</a>
</g>
</g>
<!-- Node7&#45;&gt;Node3 -->
<g id="edge6" class="edge">
<title>Node7&#45;&gt;Node3</title>
<path fill="none" stroke="orange" d="M371.9,-1194.36C403.78,-1163.76 447.48,-1116.29 472,-1066 511.96,-984.05 472.71,-946.79 513,-865 551.85,-786.14 626.26,-712.95 669.21,-674.72"/>
<polygon fill="orange" stroke="orange" points="369.34,-1191.97 364.48,-1201.39 374.15,-1197.06 369.34,-1191.97"/>
<text text-anchor="middle" x="549.5" y="-963" font-family="Helvetica,sans-Serif" font-size="10.00"> &lt; Assumption &gt;</text>
</g>
<!-- Node9 -->
<g id="node9" class="node">
<title>Node9</title>
<g id="a_node9"><a xlink:title=" ">
<polygon fill="white" stroke="#bfbfbf" points="367.5,-358.5 367.5,-415.5 464.5,-415.5 464.5,-358.5 367.5,-358.5"/>
<text text-anchor="middle" x="416" y="-403.5" font-family="Helvetica,sans-Serif" font-size="10.00">vector&lt; AtcfLine &gt;</text>
<polyline fill="none" stroke="#bfbfbf" points="367.5,-396.5 464.5,-396.5 "/>
<text text-anchor="middle" x="416" y="-384.5" font-family="Helvetica,sans-Serif" font-size="10.00"> </text>
<polyline fill="none" stroke="#bfbfbf" points="367.5,-377.5 464.5,-377.5 "/>
<text text-anchor="middle" x="416" y="-365.5" font-family="Helvetica,sans-Serif" font-size="10.00"> </text>
</a>
</g>
</g>
<!-- Node7&#45;&gt;Node9 -->
<g id="edge23" class="edge">
<title>Node7&#45;&gt;Node9</title>
<path fill="none" stroke="orange" d="M311.2,-1192.39C293.45,-1160.32 269.79,-1111.81 260,-1066 241.33,-978.64 250.64,-953.84 260,-865 278.1,-693.27 268.37,-641.67 341,-485 352.91,-459.31 372.69,-434.14 388.94,-415.87"/>
<polygon fill="orange" stroke="orange" points="308.31,-1194.39 316.26,-1201.39 314.41,-1190.96 308.31,-1194.39"/>
<text text-anchor="middle" x="292.5" y="-833.5" font-family="Helvetica,sans-Serif" font-size="10.00"> &lt; AtcfLine &gt;</text>
</g>
<!-- Node11 -->
<g id="node11" class="node">
<title>Node11</title>
<g id="a_node11"><a xlink:title=" ">
<polygon fill="white" stroke="#bfbfbf" points="269,-937 269,-994 363,-994 363,-937 269,-937"/>
<text text-anchor="middle" x="316" y="-982" font-family="Helvetica,sans-Serif" font-size="10.00">vector&lt; Isotach &gt;</text>
<polyline fill="none" stroke="#bfbfbf" points="269,-975 363,-975 "/>
<text text-anchor="middle" x="316" y="-963" font-family="Helvetica,sans-Serif" font-size="10.00"> </text>
<polyline fill="none" stroke="#bfbfbf" points="269,-956 363,-956 "/>
<text text-anchor="middle" x="316" y="-944" font-family="Helvetica,sans-Serif" font-size="10.00"> </text>
</a>
</g>
</g>
<!-- Node7&#45;&gt;Node11 -->
<g id="edge20" class="edge">
<title>Node7&#45;&gt;Node11</title>
<path fill="none" stroke="orange" d="M330.56,-1191.32C327.1,-1137.9 320.85,-1041.4 317.79,-994.12"/>
<polygon fill="orange" stroke="orange" points="327.07,-1191.65 331.21,-1201.4 334.06,-1191.2 327.07,-1191.65"/>
<text text-anchor="middle" x="353" y="-1092.5" font-family="Helvetica,sans-Serif" font-size="10.00"> &lt; Isotach &gt;</text>
</g>
<!-- Node8 -->
<g id="node8" class="node">
<title>Node8</title>
<g id="a_node8"><a xlink:title=" ">
<polygon fill="white" stroke="#bfbfbf" points="259.5,-1593.5 259.5,-1650.5 288.5,-1650.5 288.5,-1593.5 259.5,-1593.5"/>
<text text-anchor="middle" x="274" y="-1638.5" font-family="Helvetica,sans-Serif" font-size="10.00">T</text>
<polyline fill="none" stroke="#bfbfbf" points="259.5,-1631.5 288.5,-1631.5 "/>
<text text-anchor="middle" x="274" y="-1619.5" font-family="Helvetica,sans-Serif" font-size="10.00"> </text>
<polyline fill="none" stroke="#bfbfbf" points="259.5,-1612.5 288.5,-1612.5 "/>
<text text-anchor="middle" x="274" y="-1600.5" font-family="Helvetica,sans-Serif" font-size="10.00"> </text>
</a>
</g>
</g>
<!-- Node8&#45;&gt;Node7 -->
<g id="edge7" class="edge">
<title>Node8&#45;&gt;Node7</title>
<path fill="none" stroke="#404040" d="M288.64,-1601.36C293.73,-1593.55 298.93,-1584.22 302,-1575 337.2,-1469.4 337.65,-1336.08 335.24,-1270.76"/>
<polygon fill="none" stroke="#404040" points="335.23,-1270.62 330.99,-1264.79 334.73,-1258.63 338.98,-1264.45 335.23,-1270.62"/>
<text text-anchor="middle" x="352.5" y="-1462" font-family="Helvetica,sans-Serif" font-size="10.00"> +elements</text>
</g>
<!-- Node14 -->
<g id="node14" class="node">
<title>Node14</title>
<g id="a_node14"><a xlink:title=" ">
<polygon fill="white" stroke="#bfbfbf" points="188,-1488.5 188,-1545.5 250,-1545.5 250,-1488.5 188,-1488.5"/>
<text text-anchor="middle" x="219" y="-1533.5" font-family="Helvetica,sans-Serif" font-size="10.00">array&lt; T &gt;</text>
<polyline fill="none" stroke="#bfbfbf" points="188,-1526.5 250,-1526.5 "/>
<text text-anchor="middle" x="219" y="-1514.5" font-family="Helvetica,sans-Serif" font-size="10.00"> </text>
<polyline fill="none" stroke="#bfbfbf" points="188,-1507.5 250,-1507.5 "/>
<text text-anchor="middle" x="219" y="-1495.5" font-family="Helvetica,sans-Serif" font-size="10.00"> </text>
</a>
</g>
</g>
<!-- Node8&#45;&gt;Node14 -->
<g id="edge15" class="edge">
<title>Node8&#45;&gt;Node14</title>
<path fill="none" stroke="#404040" d="M259.41,-1593.67C253.36,-1582.35 246.25,-1569.02 239.68,-1556.73"/>
<polygon fill="none" stroke="#404040" points="239.51,-1556.4 233.15,-1552.99 233.85,-1545.82 240.21,-1549.23 239.51,-1556.4"/>
<text text-anchor="middle" x="273.5" y="-1567" font-family="Helvetica,sans-Serif" font-size="10.00"> +elements</text>
</g>
<!-- Node9&#45;&gt;Node1 -->
<g id="edge9" class="edge">
<title>Node9&#45;&gt;Node1</title>
<path fill="none" stroke="#404040" d="M448.81,-358.41C487.64,-325.75 553.99,-269.96 609.03,-223.68"/>
<polygon fill="none" stroke="#404040" points="609.28,-223.47 611.29,-216.55 618.46,-215.75 616.44,-222.67 609.28,-223.47"/>
<text text-anchor="middle" x="538" y="-310" font-family="Helvetica,sans-Serif" font-size="10.00"> &#45;m_atcfData</text>
</g>
<!-- Node10&#45;&gt;Node9 -->
<g id="edge10" class="edge">
<title>Node10&#45;&gt;Node9</title>
<path fill="none" stroke="#404040" d="M416,-485.16C416,-464.06 416,-444.16 416,-427.93"/>
<polygon fill="none" stroke="#404040" points="416,-427.74 412,-421.74 416,-415.74 420,-421.74 416,-427.74"/>
<text text-anchor="middle" x="440.5" y="-459" font-family="Helvetica,sans-Serif" font-size="10.00"> +elements</text>
</g>
<!-- Node11&#45;&gt;Node10 -->
<g id="edge11" class="edge">
<title>Node11&#45;&gt;Node10</title>
<path fill="none" stroke="#404040" d="M324.7,-936.88C333.39,-909.28 347.53,-864.41 362.1,-818.12"/>
<polygon fill="none" stroke="#404040" points="362.11,-818.09 360.1,-811.17 365.72,-806.65 367.73,-813.57 362.11,-818.09"/>
<text text-anchor="middle" x="384" y="-839" font-family="Helvetica,sans-Serif" font-size="10.00"> &#45;m_isotach</text>
<text text-anchor="middle" x="384" y="-828" font-family="Helvetica,sans-Serif" font-size="10.00">&#45;m_seas</text>
</g>
<!-- Node12 -->
<g id="node12" class="node">
<title>Node12</title>
<g id="a_node12"><a xlink:href="classIsotach.html" target="_top" xlink:title=" ">
<polygon fill="white" stroke="black" points="114.5,-1124.5 114.5,-1335.5 215.5,-1335.5 215.5,-1124.5 114.5,-1124.5"/>
<text text-anchor="middle" x="165" y="-1323.5" font-family="Helvetica,sans-Serif" font-size="10.00">Isotach</text>
<polyline fill="none" stroke="black" points="114.5,-1316.5 215.5,-1316.5 "/>
<text text-anchor="start" x="122.5" y="-1304.5" font-family="Helvetica,sans-Serif" font-size="10.00">&#45; m_radiusCode</text>
<text text-anchor="start" x="122.5" y="-1293.5" font-family="Helvetica,sans-Serif" font-size="10.00">&#45; m_windSpeed</text>
<polyline fill="none" stroke="black" points="114.5,-1286.5 215.5,-1286.5 "/>
<text text-anchor="start" x="122.5" y="-1274.5" font-family="Helvetica,sans-Serif" font-size="10.00">+ Isotach()</text>
<text text-anchor="start" x="122.5" y="-1263.5" font-family="Helvetica,sans-Serif" font-size="10.00">+ Isotach()</text>
<text text-anchor="start" x="122.5" y="-1252.5" font-family="Helvetica,sans-Serif" font-size="10.00">+ code()</text>
<text text-anchor="start" x="122.5" y="-1241.5" font-family="Helvetica,sans-Serif" font-size="10.00">+ lookupRadii()</text>
<text text-anchor="start" x="122.5" y="-1230.5" font-family="Helvetica,sans-Serif" font-size="10.00">+ quadflag()</text>
<text text-anchor="start" x="122.5" y="-1219.5" font-family="Helvetica,sans-Serif" font-size="10.00">+ radii()</text>
<text text-anchor="start" x="122.5" y="-1208.5" font-family="Helvetica,sans-Serif" font-size="10.00">+ radiusCode()</text>
<text text-anchor="start" x="122.5" y="-1197.5" font-family="Helvetica,sans-Serif" font-size="10.00">+ radiusQ1()</text>
<text text-anchor="start" x="122.5" y="-1186.5" font-family="Helvetica,sans-Serif" font-size="10.00">+ radiusQ2()</text>
<text text-anchor="start" x="122.5" y="-1175.5" font-family="Helvetica,sans-Serif" font-size="10.00">+ radiusQ3()</text>
<text text-anchor="start" x="122.5" y="-1164.5" font-family="Helvetica,sans-Serif" font-size="10.00">and 14 more...</text>
<text text-anchor="start" x="122.5" y="-1153.5" font-family="Helvetica,sans-Serif" font-size="10.00">+ codeFromString()</text>
<text text-anchor="start" x="122.5" y="-1142.5" font-family="Helvetica,sans-Serif" font-size="10.00">+ isNull()</text>
<text text-anchor="start" x="122.5" y="-1131.5" font-family="Helvetica,sans-Serif" font-size="10.00">+ stringFromCode()</text>
</a>
</g>
</g>
<!-- Node12&#45;&gt;Node11 -->
<g id="edge12" class="edge">
<title>Node12&#45;&gt;Node11</title>
<path fill="none" stroke="#404040" d="M215.7,-1140.86C242.33,-1094.56 273.6,-1040.21 294.05,-1004.65"/>
<polygon fill="none" stroke="#404040" points="294.05,-1004.65 293.58,-997.46 300.04,-994.25 300.51,-1001.45 294.05,-1004.65"/>
<text text-anchor="middle" x="270.5" y="-1092.5" font-family="Helvetica,sans-Serif" font-size="10.00"> +elements</text>
</g>
<!-- Node13 -->
<g id="node13" class="node">
<title>Node13</title>
<g id="a_node13"><a xlink:title=" ">
<polygon fill="white" stroke="#bfbfbf" points="114,-1383.5 114,-1440.5 210,-1440.5 210,-1383.5 114,-1383.5"/>
<text text-anchor="middle" x="162" y="-1428.5" font-family="Helvetica,sans-Serif" font-size="10.00">array&lt; double, 6 &gt;</text>
<polyline fill="none" stroke="#bfbfbf" points="114,-1421.5 210,-1421.5 "/>
<text text-anchor="start" x="122" y="-1409.5" font-family="Helvetica,sans-Serif" font-size="10.00">+ elements</text>
<polyline fill="none" stroke="#bfbfbf" points="114,-1402.5 210,-1402.5 "/>
<text text-anchor="middle" x="162" y="-1390.5" font-family="Helvetica,sans-Serif" font-size="10.00"> </text>
</a>
</g>
</g>
<!-- Node13&#45;&gt;Node12 -->
<g id="edge13" class="edge">
<title>Node13&#45;&gt;Node12</title>
<path fill="none" stroke="#404040" d="M162.46,-1383.27C162.63,-1373.15 162.83,-1360.98 163.05,-1347.97"/>
<polygon fill="none" stroke="#404040" points="163.05,-1347.83 159.15,-1341.76 163.25,-1335.83 167.15,-1341.9 163.05,-1347.83"/>
<text text-anchor="middle" x="199" y="-1357" font-family="Helvetica,sans-Serif" font-size="10.00"> &#45;m_lookup_radii</text>
</g>
<!-- Node14&#45;&gt;Node13 -->
<g id="edge14" class="edge">
<title>Node14&#45;&gt;Node13</title>
<path fill="none" stroke="orange" d="M183.62,-1480.37C181.17,-1477.01 178.92,-1473.53 177,-1470 172.11,-1461.01 168.75,-1450.35 166.47,-1440.69"/>
<polygon fill="orange" stroke="orange" points="181.06,-1482.78 190.01,-1488.46 186.55,-1478.44 181.06,-1482.78"/>
<text text-anchor="middle" x="207.5" y="-1462" font-family="Helvetica,sans-Serif" font-size="10.00"> &lt; double, 6 &gt;</text>
</g>
<!-- Node15 -->
<g id="node15" class="node">
<title>Node15</title>
<g id="a_node15"><a xlink:title=" ">
<polygon fill="white" stroke="#bfbfbf" points="228,-1383.5 228,-1440.5 306,-1440.5 306,-1383.5 228,-1383.5"/>
<text text-anchor="middle" x="267" y="-1428.5" font-family="Helvetica,sans-Serif" font-size="10.00">array&lt; int, 4 &gt;</text>
<polyline fill="none" stroke="#bfbfbf" points="228,-1421.5 306,-1421.5 "/>
<text text-anchor="start" x="236" y="-1409.5" font-family="Helvetica,sans-Serif" font-size="10.00">+ elements</text>
<polyline fill="none" stroke="#bfbfbf" points="228,-1402.5 306,-1402.5 "/>
<text text-anchor="middle" x="267" y="-1390.5" font-family="Helvetica,sans-Serif" font-size="10.00"> </text>
</a>
</g>
</g>
<!-- Node14&#45;&gt;Node15 -->
<g id="edge17" class="edge">
<title>Node14&#45;&gt;Node15</title>
<path fill="none" stroke="orange" d="M236.23,-1479.03C242.12,-1466.38 248.61,-1452.46 254.1,-1440.68"/>
<polygon fill="orange" stroke="orange" points="232.91,-1477.86 231.86,-1488.4 239.26,-1480.81 232.91,-1477.86"/>
<text text-anchor="middle" x="266.5" y="-1462" font-family="Helvetica,sans-Serif" font-size="10.00"> &lt; int, 4 &gt;</text>
</g>
<!-- Node16 -->
<g id="node16" class="node">
<title>Node16</title>
<g id="a_node16"><a xlink:title=" ">
<polygon fill="white" stroke="#bfbfbf" points="0,-1383.5 0,-1440.5 96,-1440.5 96,-1383.5 0,-1383.5"/>
<text text-anchor="middle" x="48" y="-1428.5" font-family="Helvetica,sans-Serif" font-size="10.00">array&lt; double, 4 &gt;</text>
<polyline fill="none" stroke="#bfbfbf" points="0,-1421.5 96,-1421.5 "/>
<text text-anchor="start" x="8" y="-1409.5" font-family="Helvetica,sans-Serif" font-size="10.00">+ elements</text>
<polyline fill="none" stroke="#bfbfbf" points="0,-1402.5 96,-1402.5 "/>
<text text-anchor="middle" x="48" y="-1390.5" font-family="Helvetica,sans-Serif" font-size="10.00"> </text>
</a>
</g>
</g>
<!-- Node14&#45;&gt;Node16 -->
<g id="edge19" class="edge">
<title>Node14&#45;&gt;Node16</title>
<path fill="none" stroke="orange" d="M178.2,-1503.17C156.41,-1495.33 129.69,-1484.1 108,-1470 95.35,-1461.78 82.98,-1450.71 72.8,-1440.52"/>
<polygon fill="orange" stroke="orange" points="177.24,-1506.54 187.83,-1506.53 179.54,-1499.93 177.24,-1506.54"/>
<text text-anchor="middle" x="138.5" y="-1462" font-family="Helvetica,sans-Serif" font-size="10.00"> &lt; double, 4 &gt;</text>
</g>
<!-- Node15&#45;&gt;Node12 -->
<g id="edge16" class="edge">
<title>Node15&#45;&gt;Node12</title>
<path fill="none" stroke="#404040" d="M253.35,-1383.27C248.61,-1373.9 243.19,-1363.44 238,-1354 232.81,-1344.57 227.29,-1334.82 221.69,-1325.11"/>
<polygon fill="none" stroke="#404040" points="221.63,-1324.99 215.16,-1321.81 215.61,-1314.61 222.08,-1317.79 221.63,-1324.99"/>
<text text-anchor="middle" x="272.5" y="-1357" font-family="Helvetica,sans-Serif" font-size="10.00"> &#45;m_quadflag</text>
</g>
<!-- Node16&#45;&gt;Node12 -->
<g id="edge18" class="edge">
<title>Node16&#45;&gt;Node12</title>
<path fill="none" stroke="#404040" d="M66.02,-1383.27C77.3,-1365.92 92.52,-1342.51 107.64,-1319.25"/>
<polygon fill="none" stroke="#404040" points="107.79,-1319.02 107.7,-1311.81 114.33,-1308.96 114.41,-1316.17 107.79,-1319.02"/>
<text text-anchor="middle" x="106" y="-1357" font-family="Helvetica,sans-Serif" font-size="10.00"> &#45;m_radius</text>
</g>
<!-- Node17 -->
<g id="node17" class="node">
<title>Node17</title>
<g id="a_node17"><a xlink:href="classDate.html" target="_top" xlink:title=" ">
<polygon fill="white" stroke="black" points="381,-865.5 381,-1065.5 463,-1065.5 463,-865.5 381,-865.5"/>
<text text-anchor="middle" x="422" y="-1053.5" font-family="Helvetica,sans-Serif" font-size="10.00">Date</text>
<polyline fill="none" stroke="black" points="381,-1046.5 463,-1046.5 "/>
<text text-anchor="start" x="389" y="-1034.5" font-family="Helvetica,sans-Serif" font-size="10.00">&#45; m_datetime</text>
<polyline fill="none" stroke="black" points="381,-1027.5 463,-1027.5 "/>
<text text-anchor="start" x="389" y="-1015.5" font-family="Helvetica,sans-Serif" font-size="10.00">+ Date()</text>
<text text-anchor="start" x="389" y="-1004.5" font-family="Helvetica,sans-Serif" font-size="10.00">+ Date()</text>
<text text-anchor="start" x="389" y="-993.5" font-family="Helvetica,sans-Serif" font-size="10.00">+ Date()</text>
<text text-anchor="start" x="389" y="-982.5" font-family="Helvetica,sans-Serif" font-size="10.00">+ Date()</text>
<text text-anchor="start" x="389" y="-971.5" font-family="Helvetica,sans-Serif" font-size="10.00">+ Date()</text>
<text text-anchor="start" x="389" y="-960.5" font-family="Helvetica,sans-Serif" font-size="10.00">+ Date()</text>
<text text-anchor="start" x="389" y="-949.5" font-family="Helvetica,sans-Serif" font-size="10.00">+ addDays()</text>
<text text-anchor="start" x="389" y="-938.5" font-family="Helvetica,sans-Serif" font-size="10.00">+ addHours()</text>
<text text-anchor="start" x="389" y="-927.5" font-family="Helvetica,sans-Serif" font-size="10.00">+ addMinutes()</text>
<text text-anchor="start" x="389" y="-916.5" font-family="Helvetica,sans-Serif" font-size="10.00">+ addMonths()</text>
<text text-anchor="start" x="389" y="-905.5" font-family="Helvetica,sans-Serif" font-size="10.00">and 44 more...</text>
<text text-anchor="start" x="389" y="-894.5" font-family="Helvetica,sans-Serif" font-size="10.00">+ maxDate()</text>
<text text-anchor="start" x="389" y="-883.5" font-family="Helvetica,sans-Serif" font-size="10.00">+ minDate()</text>
<text text-anchor="start" x="389" y="-872.5" font-family="Helvetica,sans-Serif" font-size="10.00">+ now()</text>
</a>
</g>
</g>
<!-- Node17&#45;&gt;Node10 -->
<g id="edge22" class="edge">
<title>Node17&#45;&gt;Node10</title>
<path fill="none" stroke="#404040" d="M417.52,-865.46C417.32,-859.22 417.14,-853.02 417,-847 416.78,-837.79 416.6,-828.33 416.44,-818.79"/>
<polygon fill="none" stroke="#404040" points="416.44,-818.66 412.35,-812.72 416.26,-806.66 420.35,-812.6 416.44,-818.66"/>
<text text-anchor="middle" x="451" y="-839" font-family="Helvetica,sans-Serif" font-size="10.00"> &#45;m_datetime</text>
<text text-anchor="middle" x="451" y="-828" font-family="Helvetica,sans-Serif" font-size="10.00">&#45;m_refDatetime</text>
</g>
</g>
</svg>
