<?xml version="1.0" encoding="UTF-8" standalone="no"?>
<!DOCTYPE svg PUBLIC "-//W3C//DTD SVG 1.1//EN"
 "http://www.w3.org/Graphics/SVG/1.1/DTD/svg11.dtd">
<!-- Generated by graphviz version 2.47.1 (20210417.1919)
 -->
<!-- Title: at Pages: 1 -->
<svg width="489pt" height="404pt"
 viewBox="0.00 0.00 489.00 404.00" xmlns="http://www.w3.org/2000/svg" xmlns:xlink="http://www.w3.org/1999/xlink">
<g id="graph0" class="graph" transform="scale(1 1) rotate(0) translate(4 400)">
<title>at</title>
<polygon fill="white" stroke="transparent" points="-4,4 -4,-400 485,-400 485,4 -4,4"/>
<!-- Node1 -->
<g id="node1" class="node">
<title>Node1</title>
<g id="a_node1"><a xlink:title=" ">
<polygon fill="#bfbfbf" stroke="black" points="452,-202.5 452,-221.5 481,-221.5 481,-202.5 452,-202.5"/>
<text text-anchor="middle" x="466.5" y="-209.5" font-family="Helvetica,sans-Serif" font-size="10.00">at</text>
</a>
</g>
</g>
<!-- Node2 -->
<g id="node2" class="node">
<title>Node2</title>
<g id="a_node2"><a xlink:href="classIsotach.html#a4ae76972e9b895592c48a9063a34196e" target="_top" xlink:title=" ">
<polygon fill="white" stroke="black" points="270.5,-376.5 270.5,-395.5 404.5,-395.5 404.5,-376.5 270.5,-376.5"/>
<text text-anchor="middle" x="337.5" y="-383.5" font-family="Helvetica,sans-Serif" font-size="10.00">Isotach::generateQuadFlag</text>
</a>
</g>
</g>
<!-- Node1&#45;&gt;Node2 -->
<g id="edge1" class="edge">
<title>Node1&#45;&gt;Node2</title>
<path fill="none" stroke="midnightblue" d="M465.06,-231.88C463.22,-264.89 454.6,-330.96 416,-367 411.95,-370.78 407.27,-373.85 402.26,-376.32"/>
<polygon fill="midnightblue" stroke="midnightblue" points="468.57,-231.81 465.47,-221.68 461.58,-231.53 468.57,-231.81"/>
</g>
<!-- Node3 -->
<g id="node3" class="node">
<title>Node3</title>
<g id="a_node3"><a xlink:href="classVortex.html#ada5ebd5311d214fba078d1b3285a4032" target="_top" xlink:title=" ">
<polygon fill="white" stroke="black" points="270.5,-338.5 270.5,-357.5 404.5,-357.5 404.5,-338.5 270.5,-338.5"/>
<text text-anchor="middle" x="337.5" y="-345.5" font-family="Helvetica,sans-Serif" font-size="10.00">Vortex::getParameterValue</text>
</a>
</g>
</g>
<!-- Node1&#45;&gt;Node3 -->
<g id="edge2" class="edge">
<title>Node1&#45;&gt;Node3</title>
<path fill="none" stroke="midnightblue" d="M462.67,-231.78C457.86,-257.99 445.55,-303.84 416,-329 411.47,-332.86 406.27,-335.96 400.76,-338.45"/>
<polygon fill="midnightblue" stroke="midnightblue" points="466.18,-232 464.35,-221.57 459.28,-230.87 466.18,-232"/>
</g>
<!-- Node4 -->
<g id="node4" class="node">
<title>Node4</title>
<g id="a_node4"><a xlink:href="classVortex.html#af45bed77f864fe7cd18e96bcad902c16" target="_top" xlink:title=" ">
<polygon fill="white" stroke="black" points="296,-300.5 296,-319.5 379,-319.5 379,-300.5 296,-300.5"/>
<text text-anchor="middle" x="337.5" y="-307.5" font-family="Helvetica,sans-Serif" font-size="10.00">Vortex::interpR</text>
</a>
</g>
</g>
<!-- Node1&#45;&gt;Node4 -->
<g id="edge3" class="edge">
<title>Node1&#45;&gt;Node4</title>
<path fill="none" stroke="midnightblue" d="M458.51,-231.03C450.85,-249.19 436.82,-275.95 416,-291 405.33,-298.71 391.91,-303.31 379.25,-306.05"/>
<polygon fill="midnightblue" stroke="midnightblue" points="461.77,-232.31 462.2,-221.72 455.26,-229.73 461.77,-232.31"/>
</g>
<!-- Node5 -->
<g id="node5" class="node">
<title>Node5</title>
<g id="a_node5"><a xlink:href="classIsotach.html#a64352a7d018b8161e34e42ae0aad2e32" target="_top" xlink:title=" ">
<polygon fill="white" stroke="black" points="297.5,-262.5 297.5,-281.5 377.5,-281.5 377.5,-262.5 297.5,-262.5"/>
<text text-anchor="middle" x="337.5" y="-269.5" font-family="Helvetica,sans-Serif" font-size="10.00">Isotach::isNull</text>
</a>
</g>
</g>
<!-- Node1&#45;&gt;Node5 -->
<g id="edge4" class="edge">
<title>Node1&#45;&gt;Node5</title>
<path fill="none" stroke="midnightblue" d="M449.12,-228.81C440.07,-237.2 428.21,-246.86 416,-253 404.12,-258.98 390.25,-263.14 377.56,-266.02"/>
<polygon fill="midnightblue" stroke="midnightblue" points="451.82,-231.06 456.57,-221.59 446.95,-226.04 451.82,-231.06"/>
</g>
<!-- Node6 -->
<g id="node6" class="node">
<title>Node6</title>
<g id="a_node6"><a xlink:href="classAtcf.html#adfe6ef35c351380ba863090d4fec04bb" target="_top" xlink:title=" ">
<polygon fill="white" stroke="black" points="269.5,-224.5 269.5,-243.5 405.5,-243.5 405.5,-224.5 269.5,-224.5"/>
<text text-anchor="middle" x="337.5" y="-231.5" font-family="Helvetica,sans-Serif" font-size="10.00">Atcf::recomputeQuadrantVr</text>
</a>
</g>
</g>
<!-- Node1&#45;&gt;Node6 -->
<g id="edge5" class="edge">
<title>Node1&#45;&gt;Node6</title>
<path fill="none" stroke="midnightblue" d="M441.92,-216.09C428.22,-218.46 410.36,-221.55 393.35,-224.5"/>
<polygon fill="midnightblue" stroke="midnightblue" points="442.65,-219.51 451.91,-214.35 441.46,-212.61 442.65,-219.51"/>
</g>
<!-- Node9 -->
<g id="node9" class="node">
<title>Node9</title>
<g id="a_node9"><a xlink:href="classAtcf.html#ab2c3d48d4cd01aa2aef9e02f2a199bb1" target="_top" xlink:title=" ">
<polygon fill="white" stroke="black" points="259,-175 259,-205 416,-205 416,-175 259,-175"/>
<text text-anchor="start" x="267" y="-193" font-family="Helvetica,sans-Serif" font-size="10.00">Atcf::setMissingRadiiToAverage</text>
<text text-anchor="middle" x="337.5" y="-182" font-family="Helvetica,sans-Serif" font-size="10.00">OfAdjacentRadii</text>
</a>
</g>
</g>
<!-- Node1&#45;&gt;Node9 -->
<g id="edge8" class="edge">
<title>Node1&#45;&gt;Node9</title>
<path fill="none" stroke="midnightblue" d="M441.79,-207.89C434.2,-206.58 425.34,-205.04 416.05,-203.43"/>
<polygon fill="midnightblue" stroke="midnightblue" points="441.46,-211.39 451.91,-209.65 442.65,-204.49 441.46,-211.39"/>
</g>
<!-- Node11 -->
<g id="node11" class="node">
<title>Node11</title>
<g id="a_node11"><a xlink:href="classAtcf.html#a0f3511e6d9066da7d7af0fe1aab03f79" target="_top" xlink:title=" ">
<polygon fill="white" stroke="black" points="268,-126 268,-156 407,-156 407,-126 268,-126"/>
<text text-anchor="start" x="276" y="-144" font-family="Helvetica,sans-Serif" font-size="10.00">Atcf::setMissingRadiiToHalf</text>
<text text-anchor="middle" x="337.5" y="-133" font-family="Helvetica,sans-Serif" font-size="10.00">NonzeroRadii</text>
</a>
</g>
</g>
<!-- Node1&#45;&gt;Node11 -->
<g id="edge11" class="edge">
<title>Node1&#45;&gt;Node11</title>
<path fill="none" stroke="midnightblue" d="M450.49,-194.73C441.35,-185.12 428.97,-173.6 416,-166 409.54,-162.21 402.43,-158.92 395.22,-156.08"/>
<polygon fill="midnightblue" stroke="midnightblue" points="448.01,-197.2 457.35,-202.22 453.18,-192.48 448.01,-197.2"/>
</g>
<!-- Node12 -->
<g id="node12" class="node">
<title>Node12</title>
<g id="a_node12"><a xlink:href="classAtcf.html#aed2ec117307b05eb72dc3e8e06965923" target="_top" xlink:title=" ">
<polygon fill="white" stroke="black" points="268,-77 268,-107 407,-107 407,-77 268,-77"/>
<text text-anchor="start" x="276" y="-95" font-family="Helvetica,sans-Serif" font-size="10.00">Atcf::setMissingRadiiToHalf</text>
<text text-anchor="middle" x="337.5" y="-84" font-family="Helvetica,sans-Serif" font-size="10.00">OfAverageSpecifiedRadii</text>
</a>
</g>
</g>
<!-- Node1&#45;&gt;Node12 -->
<g id="edge13" class="edge">
<title>Node1&#45;&gt;Node12</title>
<path fill="none" stroke="midnightblue" d="M460.29,-192.73C453.53,-171.28 439.7,-137.02 416,-117 411.46,-113.17 406.33,-109.92 400.92,-107.17"/>
<polygon fill="midnightblue" stroke="midnightblue" points="456.95,-193.77 463.13,-202.37 463.67,-191.79 456.95,-193.77"/>
</g>
<!-- Node13 -->
<g id="node13" class="node">
<title>Node13</title>
<g id="a_node13"><a xlink:href="classVortex.html#a36b321e4164c600950ffe1cc7021146f" target="_top" xlink:title=" ">
<polygon fill="white" stroke="black" points="279.5,-38.5 279.5,-57.5 395.5,-57.5 395.5,-38.5 279.5,-38.5"/>
<text text-anchor="middle" x="337.5" y="-45.5" font-family="Helvetica,sans-Serif" font-size="10.00">Vortex::vgWithCoriFull</text>
</a>
</g>
</g>
<!-- Node1&#45;&gt;Node13 -->
<g id="edge15" class="edge">
<title>Node1&#45;&gt;Node13</title>
<path fill="none" stroke="midnightblue" d="M464.45,-192.25C461.7,-161.2 451.79,-101.08 416,-68 410.18,-62.62 403.12,-58.65 395.64,-55.72"/>
<polygon fill="midnightblue" stroke="midnightblue" points="460.96,-192.55 465.17,-202.28 467.94,-192.05 460.96,-192.55"/>
</g>
<!-- Node15 -->
<g id="node15" class="node">
<title>Node15</title>
<g id="a_node15"><a xlink:href="classVortex.html#ae476777bb80581d4af28e4c2ce3a0b99" target="_top" xlink:title=" ">
<polygon fill="white" stroke="black" points="291.5,-0.5 291.5,-19.5 383.5,-19.5 383.5,-0.5 291.5,-0.5"/>
<text text-anchor="middle" x="337.5" y="-7.5" font-family="Helvetica,sans-Serif" font-size="10.00">Vortex::vhNoCori</text>
</a>
</g>
</g>
<!-- Node1&#45;&gt;Node15 -->
<g id="edge17" class="edge">
<title>Node1&#45;&gt;Node15</title>
<path fill="none" stroke="midnightblue" d="M466.24,-192.29C466.5,-154.88 461.45,-73.39 416,-29 407.28,-20.48 395.39,-15.58 383.55,-12.8"/>
<polygon fill="midnightblue" stroke="midnightblue" points="462.74,-192.32 466.02,-202.39 469.74,-192.47 462.74,-192.32"/>
</g>
<!-- Node7 -->
<g id="node7" class="node">
<title>Node7</title>
<g id="a_node7"><a xlink:href="classAtcf.html#ada693ebe0f0ee4be52b01fd3fe83963a" target="_top" xlink:title=" ">
<polygon fill="white" stroke="black" points="95,-210.5 95,-229.5 223,-229.5 223,-210.5 95,-210.5"/>
<text text-anchor="middle" x="159" y="-217.5" font-family="Helvetica,sans-Serif" font-size="10.00">Atcf::computeParameters</text>
</a>
</g>
</g>
<!-- Node6&#45;&gt;Node7 -->
<g id="edge6" class="edge">
<title>Node6&#45;&gt;Node7</title>
<path fill="none" stroke="midnightblue" d="M259.25,-227.87C247.23,-226.92 234.93,-225.94 223.27,-225.02"/>
<polygon fill="midnightblue" stroke="midnightblue" points="259.02,-231.37 269.27,-228.67 259.58,-224.39 259.02,-231.37"/>
</g>
<!-- Node8 -->
<g id="node8" class="node">
<title>Node8</title>
<g id="a_node8"><a xlink:href="classAtcf.html#aaab5dab5b969a87f538242e524431637" target="_top" xlink:title=" ">
<polygon fill="white" stroke="black" points="0,-177.5 0,-196.5 59,-196.5 59,-177.5 0,-177.5"/>
<text text-anchor="middle" x="29.5" y="-184.5" font-family="Helvetica,sans-Serif" font-size="10.00">Atcf::read</text>
</a>
</g>
</g>
<!-- Node7&#45;&gt;Node8 -->
<g id="edge7" class="edge">
<title>Node7&#45;&gt;Node8</title>
<path fill="none" stroke="midnightblue" d="M111.13,-207.87C93.72,-203.36 74.5,-198.39 59.2,-194.43"/>
<polygon fill="midnightblue" stroke="midnightblue" points="110.56,-211.34 121.12,-210.46 112.32,-204.56 110.56,-211.34"/>
</g>
<!-- Node10 -->
<g id="node10" class="node">
<title>Node10</title>
<g id="a_node10"><a xlink:href="classAtcf.html#a4392a7255cda22dc330a996257216c31" target="_top" xlink:title=" ">
<polygon fill="white" stroke="black" points="108,-145.5 108,-164.5 210,-164.5 210,-145.5 108,-145.5"/>
<text text-anchor="middle" x="159" y="-152.5" font-family="Helvetica,sans-Serif" font-size="10.00">Atcf::calculateRadii</text>
</a>
</g>
</g>
<!-- Node9&#45;&gt;Node10 -->
<g id="edge9" class="edge">
<title>Node9&#45;&gt;Node10</title>
<path fill="none" stroke="midnightblue" d="M250.53,-172.95C235.91,-170.05 221.2,-167.14 208.02,-164.52"/>
<polygon fill="midnightblue" stroke="midnightblue" points="250.13,-176.44 260.62,-174.95 251.5,-169.58 250.13,-176.44"/>
</g>
<!-- Node10&#45;&gt;Node8 -->
<g id="edge10" class="edge">
<title>Node10&#45;&gt;Node8</title>
<path fill="none" stroke="midnightblue" d="M110.21,-167C93.03,-171.31 74.19,-176.03 59.15,-179.81"/>
<polygon fill="midnightblue" stroke="midnightblue" points="111.24,-170.34 120.09,-164.51 109.54,-163.55 111.24,-170.34"/>
</g>
<!-- Node11&#45;&gt;Node10 -->
<g id="edge12" class="edge">
<title>Node11&#45;&gt;Node10</title>
<path fill="none" stroke="midnightblue" d="M257.78,-147.24C241.63,-148.52 225.06,-149.84 210.25,-151.01"/>
<polygon fill="midnightblue" stroke="midnightblue" points="258.06,-150.73 267.76,-146.45 257.51,-143.75 258.06,-150.73"/>
</g>
<!-- Node12&#45;&gt;Node10 -->
<g id="edge14" class="edge">
<title>Node12&#45;&gt;Node10</title>
<path fill="none" stroke="midnightblue" d="M278.7,-110.26C272.04,-112.48 265.36,-114.76 259,-117 233.13,-126.13 203.84,-137.5 183.87,-145.42"/>
<polygon fill="midnightblue" stroke="midnightblue" points="280,-113.52 288.41,-107.06 277.81,-106.87 280,-113.52"/>
</g>
<!-- Node14 -->
<g id="node14" class="node">
<title>Node14</title>
<g id="a_node14"><a xlink:href="classVortex.html#add1b3d68a6adac1887b0175193b6d79e" target="_top" xlink:title=" ">
<polygon fill="white" stroke="black" points="120.5,-19.5 120.5,-38.5 197.5,-38.5 197.5,-19.5 120.5,-19.5"/>
<text text-anchor="middle" x="159" y="-26.5" font-family="Helvetica,sans-Serif" font-size="10.00">Vortex::getVh</text>
</a>
</g>
</g>
<!-- Node13&#45;&gt;Node14 -->
<g id="edge16" class="edge">
<title>Node13&#45;&gt;Node14</title>
<path fill="none" stroke="midnightblue" d="M268.97,-40.73C244.75,-38.12 218.33,-35.28 197.56,-33.04"/>
<polygon fill="midnightblue" stroke="midnightblue" points="268.88,-44.24 279.2,-41.83 269.63,-37.28 268.88,-44.24"/>
</g>
<!-- Node15&#45;&gt;Node14 -->
<g id="edge18" class="edge">
<title>Node15&#45;&gt;Node14</title>
<path fill="none" stroke="midnightblue" d="M280.9,-15.99C253.75,-18.91 221.8,-22.35 197.56,-24.96"/>
<polygon fill="midnightblue" stroke="midnightblue" points="281.48,-19.44 291.05,-14.89 280.73,-12.48 281.48,-19.44"/>
</g>
</g>
</svg>
