<?xml version="1.0" encoding="UTF-8" standalone="no"?>
<!DOCTYPE svg PUBLIC "-//W3C//DTD SVG 1.1//EN"
 "http://www.w3.org/Graphics/SVG/1.1/DTD/svg11.dtd">
<!-- Generated by graphviz version 2.47.1 (20210417.1919)
 -->
<!-- Title: Gahm Pages: 1 -->
<svg width="357pt" height="826pt"
 viewBox="0.00 0.00 356.50 826.00" xmlns="http://www.w3.org/2000/svg" xmlns:xlink="http://www.w3.org/1999/xlink">
<g id="graph0" class="graph" transform="scale(1 1) rotate(0) translate(4 822)">
<title>Gahm</title>
<polygon fill="white" stroke="transparent" points="-4,4 -4,-822 352.5,-822 352.5,4 -4,4"/>
<!-- Node1 -->
<g id="node1" class="node">
<title>Node1</title>
<g id="a_node1"><a xlink:title=" ">
<polygon fill="#bfbfbf" stroke="black" points="135,-0.5 135,-123.5 203,-123.5 203,-0.5 135,-0.5"/>
<text text-anchor="middle" x="169" y="-111.5" font-family="Helvetica,sans-Serif" font-size="10.00">Gahm</text>
<polyline fill="none" stroke="black" points="135,-104.5 203,-104.5 "/>
<text text-anchor="middle" x="169" y="-92.5" font-family="Helvetica,sans-Serif" font-size="10.00"> </text>
<polyline fill="none" stroke="black" points="135,-85.5 203,-85.5 "/>
<text text-anchor="start" x="143" y="-73.5" font-family="Helvetica,sans-Serif" font-size="10.00">+ Gahm()</text>
<text text-anchor="start" x="143" y="-62.5" font-family="Helvetica,sans-Serif" font-size="10.00">+ filename()</text>
<text text-anchor="start" x="143" y="-51.5" font-family="Helvetica,sans-Serif" font-size="10.00">+ get()</text>
<text text-anchor="start" x="143" y="-40.5" font-family="Helvetica,sans-Serif" font-size="10.00">+ read()</text>
<text text-anchor="start" x="143" y="-29.5" font-family="Helvetica,sans-Serif" font-size="10.00">&#45; getUvpr()</text>
<text text-anchor="start" x="143" y="-18.5" font-family="Helvetica,sans-Serif" font-size="10.00">&#45; getUvpr()</text>
<text text-anchor="start" x="143" y="-7.5" font-family="Helvetica,sans-Serif" font-size="10.00">&#45; getUvpr()</text>
</a>
</g>
</g>
<!-- Node2 -->
<g id="node2" class="node">
<title>Node2</title>
<g id="a_node2"><a xlink:href="classAssumptions.html" target="_top" xlink:title=" ">
<polygon fill="white" stroke="black" points="125,-171.5 125,-272.5 213,-272.5 213,-171.5 125,-171.5"/>
<text text-anchor="middle" x="169" y="-260.5" font-family="Helvetica,sans-Serif" font-size="10.00">Assumptions</text>
<polyline fill="none" stroke="black" points="125,-253.5 213,-253.5 "/>
<text text-anchor="middle" x="169" y="-241.5" font-family="Helvetica,sans-Serif" font-size="10.00"> </text>
<polyline fill="none" stroke="black" points="125,-234.5 213,-234.5 "/>
<text text-anchor="start" x="133" y="-222.5" font-family="Helvetica,sans-Serif" font-size="10.00">+ Assumptions()</text>
<text text-anchor="start" x="133" y="-211.5" font-family="Helvetica,sans-Serif" font-size="10.00">+ add()</text>
<text text-anchor="start" x="133" y="-200.5" font-family="Helvetica,sans-Serif" font-size="10.00">+ count()</text>
<text text-anchor="start" x="133" y="-189.5" font-family="Helvetica,sans-Serif" font-size="10.00">+ get()</text>
<text text-anchor="start" x="133" y="-178.5" font-family="Helvetica,sans-Serif" font-size="10.00">+ log()</text>
</a>
</g>
</g>
<!-- Node2&#45;&gt;Node1 -->
<g id="edge1" class="edge">
<title>Node2&#45;&gt;Node1</title>
<path fill="none" stroke="#404040" d="M169,-171.44C169,-160.22 169,-148.08 169,-136.12"/>
<polygon fill="none" stroke="#404040" points="169,-135.77 165,-129.77 169,-123.77 173,-129.77 169,-135.77"/>
<text text-anchor="middle" x="207" y="-145" font-family="Helvetica,sans-Serif" font-size="10.00"> &#45;m_assumptions</text>
</g>
<!-- Node3 -->
<g id="node3" class="node">
<title>Node3</title>
<g id="a_node3"><a xlink:title=" ">
<polygon fill="white" stroke="#bfbfbf" points="112.5,-367.5 112.5,-424.5 225.5,-424.5 225.5,-367.5 112.5,-367.5"/>
<text text-anchor="middle" x="169" y="-412.5" font-family="Helvetica,sans-Serif" font-size="10.00">vector&lt; Assumption &gt;</text>
<polyline fill="none" stroke="#bfbfbf" points="112.5,-405.5 225.5,-405.5 "/>
<text text-anchor="middle" x="169" y="-393.5" font-family="Helvetica,sans-Serif" font-size="10.00"> </text>
<polyline fill="none" stroke="#bfbfbf" points="112.5,-386.5 225.5,-386.5 "/>
<text text-anchor="middle" x="169" y="-374.5" font-family="Helvetica,sans-Serif" font-size="10.00"> </text>
</a>
</g>
</g>
<!-- Node3&#45;&gt;Node2 -->
<g id="edge2" class="edge">
<title>Node3&#45;&gt;Node2</title>
<path fill="none" stroke="#404040" d="M166.9,-367.28C166.52,-361.26 166.19,-354.92 166,-349 165.32,-328.07 165.57,-305.19 166.14,-284.73"/>
<polygon fill="none" stroke="#404040" points="166.14,-284.67 162.34,-278.55 166.53,-272.68 170.33,-278.8 166.14,-284.67"/>
<text text-anchor="middle" x="204" y="-317.5" font-family="Helvetica,sans-Serif" font-size="10.00"> &#45;m_assumptions</text>
</g>
<!-- Node4 -->
<g id="node4" class="node">
<title>Node4</title>
<g id="a_node4"><a xlink:href="classAssumption.html" target="_top" xlink:title=" ">
<polygon fill="white" stroke="black" points="63,-472.5 63,-606.5 155,-606.5 155,-472.5 63,-472.5"/>
<text text-anchor="middle" x="109" y="-594.5" font-family="Helvetica,sans-Serif" font-size="10.00">Assumption</text>
<polyline fill="none" stroke="black" points="63,-587.5 155,-587.5 "/>
<text text-anchor="start" x="71" y="-575.5" font-family="Helvetica,sans-Serif" font-size="10.00">&#45; m_line</text>
<text text-anchor="start" x="71" y="-564.5" font-family="Helvetica,sans-Serif" font-size="10.00">&#45; m_severity</text>
<polyline fill="none" stroke="black" points="63,-557.5 155,-557.5 "/>
<text text-anchor="start" x="71" y="-545.5" font-family="Helvetica,sans-Serif" font-size="10.00">+ Assumption()</text>
<text text-anchor="start" x="71" y="-534.5" font-family="Helvetica,sans-Serif" font-size="10.00">+ filename()</text>
<text text-anchor="start" x="71" y="-523.5" font-family="Helvetica,sans-Serif" font-size="10.00">+ line()</text>
<text text-anchor="start" x="71" y="-512.5" font-family="Helvetica,sans-Serif" font-size="10.00">+ message()</text>
<text text-anchor="start" x="71" y="-501.5" font-family="Helvetica,sans-Serif" font-size="10.00">+ severity()</text>
<text text-anchor="start" x="71" y="-490.5" font-family="Helvetica,sans-Serif" font-size="10.00">+ toString()</text>
<text text-anchor="start" x="71" y="-479.5" font-family="Helvetica,sans-Serif" font-size="10.00">+ severityString()</text>
</a>
</g>
</g>
<!-- Node4&#45;&gt;Node3 -->
<g id="edge3" class="edge">
<title>Node4&#45;&gt;Node3</title>
<path fill="none" stroke="#404040" d="M119.13,-472.33C121.92,-462.22 125.48,-452.13 130,-443 131.43,-440.11 133.08,-437.25 134.88,-434.45"/>
<polygon fill="none" stroke="#404040" points="134.91,-434.41 135.16,-427.21 141.91,-424.66 141.66,-431.87 134.91,-434.41"/>
<text text-anchor="middle" x="154.5" y="-446" font-family="Helvetica,sans-Serif" font-size="10.00"> +elements</text>
</g>
<!-- Node5 -->
<g id="node5" class="node">
<title>Node5</title>
<g id="a_node5"><a xlink:title=" ">
<polygon fill="white" stroke="#bfbfbf" points="33.5,-665.5 33.5,-722.5 74.5,-722.5 74.5,-665.5 33.5,-665.5"/>
<text text-anchor="middle" x="54" y="-710.5" font-family="Helvetica,sans-Serif" font-size="10.00">string</text>
<polyline fill="none" stroke="#bfbfbf" points="33.5,-703.5 74.5,-703.5 "/>
<text text-anchor="middle" x="54" y="-691.5" font-family="Helvetica,sans-Serif" font-size="10.00"> </text>
<polyline fill="none" stroke="#bfbfbf" points="33.5,-684.5 74.5,-684.5 "/>
<text text-anchor="middle" x="54" y="-672.5" font-family="Helvetica,sans-Serif" font-size="10.00"> </text>
</a>
</g>
</g>
<!-- Node5&#45;&gt;Node1 -->
<g id="edge11" class="edge">
<title>Node5&#45;&gt;Node1</title>
<path fill="none" stroke="#404040" d="M48.45,-665.3C42.85,-634.84 35,-584.39 35,-540.5 35,-540.5 35,-540.5 35,-221 35,-164.38 85.68,-117.64 124.7,-90.05"/>
<polygon fill="none" stroke="#404040" points="124.93,-89.89 127.63,-83.2 134.84,-83.12 132.14,-89.81 124.93,-89.89"/>
<text text-anchor="middle" x="63.5" y="-393.5" font-family="Helvetica,sans-Serif" font-size="10.00"> &#45;m_filename</text>
</g>
<!-- Node5&#45;&gt;Node4 -->
<g id="edge4" class="edge">
<title>Node5&#45;&gt;Node4</title>
<path fill="none" stroke="#404040" d="M63.96,-665.38C68.79,-651.99 74.86,-635.17 80.96,-618.25"/>
<polygon fill="none" stroke="#404040" points="81.1,-617.85 79.38,-610.84 85.18,-606.56 86.9,-613.56 81.1,-617.85"/>
<text text-anchor="middle" x="107.5" y="-639" font-family="Helvetica,sans-Serif" font-size="10.00"> &#45;m_filename</text>
<text text-anchor="middle" x="107.5" y="-628" font-family="Helvetica,sans-Serif" font-size="10.00">&#45;m_message</text>
</g>
<!-- Node6 -->
<g id="node6" class="node">
<title>Node6</title>
<g id="a_node6"><a xlink:title=" ">
<polygon fill="white" stroke="#bfbfbf" points="0,-760.5 0,-817.5 108,-817.5 108,-760.5 0,-760.5"/>
<text text-anchor="middle" x="54" y="-805.5" font-family="Helvetica,sans-Serif" font-size="10.00">basic_string&lt; Char &gt;</text>
<polyline fill="none" stroke="#bfbfbf" points="0,-798.5 108,-798.5 "/>
<text text-anchor="middle" x="54" y="-786.5" font-family="Helvetica,sans-Serif" font-size="10.00"> </text>
<polyline fill="none" stroke="#bfbfbf" points="0,-779.5 108,-779.5 "/>
<text text-anchor="middle" x="54" y="-767.5" font-family="Helvetica,sans-Serif" font-size="10.00"> </text>
</a>
</g>
</g>
<!-- Node6&#45;&gt;Node5 -->
<g id="edge5" class="edge">
<title>Node6&#45;&gt;Node5</title>
<path fill="none" stroke="midnightblue" d="M54,-750.24C54,-741.03 54,-731.35 54,-722.71"/>
<polygon fill="none" stroke="midnightblue" points="50.5,-750.35 54,-760.35 57.5,-750.35 50.5,-750.35"/>
</g>
<!-- Node7 -->
<g id="node7" class="node">
<title>Node7</title>
<g id="a_node7"><a xlink:title=" ">
<polygon fill="white" stroke="#bfbfbf" points="173,-511 173,-568 241,-568 241,-511 173,-511"/>
<text text-anchor="middle" x="207" y="-556" font-family="Helvetica,sans-Serif" font-size="10.00">vector&lt; T &gt;</text>
<polyline fill="none" stroke="#bfbfbf" points="173,-549 241,-549 "/>
<text text-anchor="middle" x="207" y="-537" font-family="Helvetica,sans-Serif" font-size="10.00"> </text>
<polyline fill="none" stroke="#bfbfbf" points="173,-530 241,-530 "/>
<text text-anchor="middle" x="207" y="-518" font-family="Helvetica,sans-Serif" font-size="10.00"> </text>
</a>
</g>
</g>
<!-- Node7&#45;&gt;Node3 -->
<g id="edge6" class="edge">
<title>Node7&#45;&gt;Node3</title>
<path fill="none" stroke="orange" d="M196.94,-501.04C190.49,-477.01 182.25,-446.35 176.4,-424.55"/>
<polygon fill="orange" stroke="orange" points="193.61,-502.13 199.58,-510.88 200.37,-500.32 193.61,-502.13"/>
<text text-anchor="middle" x="220.5" y="-446" font-family="Helvetica,sans-Serif" font-size="10.00"> &lt; Assumption &gt;</text>
</g>
<!-- Node8 -->
<g id="node8" class="node">
<title>Node8</title>
<g id="a_node8"><a xlink:title=" ">
<polygon fill="white" stroke="#bfbfbf" points="239.5,-665.5 239.5,-722.5 268.5,-722.5 268.5,-665.5 239.5,-665.5"/>
<text text-anchor="middle" x="254" y="-710.5" font-family="Helvetica,sans-Serif" font-size="10.00">T</text>
<polyline fill="none" stroke="#bfbfbf" points="239.5,-703.5 268.5,-703.5 "/>
<text text-anchor="middle" x="254" y="-691.5" font-family="Helvetica,sans-Serif" font-size="10.00"> </text>
<polyline fill="none" stroke="#bfbfbf" points="239.5,-684.5 268.5,-684.5 "/>
<text text-anchor="middle" x="254" y="-672.5" font-family="Helvetica,sans-Serif" font-size="10.00"> </text>
</a>
</g>
</g>
<!-- Node8&#45;&gt;Node7 -->
<g id="edge7" class="edge">
<title>Node8&#45;&gt;Node7</title>
<path fill="none" stroke="#404040" d="M239.48,-673.76C234.16,-665.84 228.57,-656.35 225,-647 216.91,-625.82 212.44,-600.89 209.99,-580.48"/>
<polygon fill="none" stroke="#404040" points="209.97,-580.36 205.36,-574.82 208.7,-568.43 213.32,-573.97 209.97,-580.36"/>
<text text-anchor="middle" x="249.5" y="-633.5" font-family="Helvetica,sans-Serif" font-size="10.00"> +elements</text>
</g>
<!-- Node10 -->
<g id="node10" class="node">
<title>Node10</title>
<g id="a_node10"><a xlink:title=" ">
<polygon fill="white" stroke="#bfbfbf" points="259,-511 259,-568 345,-568 345,-511 259,-511"/>
<text text-anchor="middle" x="302" y="-556" font-family="Helvetica,sans-Serif" font-size="10.00">unique_ptr&lt; T &gt;</text>
<polyline fill="none" stroke="#bfbfbf" points="259,-549 345,-549 "/>
<text text-anchor="middle" x="302" y="-537" font-family="Helvetica,sans-Serif" font-size="10.00"> </text>
<polyline fill="none" stroke="#bfbfbf" points="259,-530 345,-530 "/>
<text text-anchor="start" x="267" y="-518" font-family="Helvetica,sans-Serif" font-size="10.00">+ operator&#45;&gt;()</text>
</a>
</g>
</g>
<!-- Node8&#45;&gt;Node10 -->
<g id="edge10" class="edge">
<title>Node8&#45;&gt;Node10</title>
<path fill="none" stroke="#404040" d="M266.96,-665.05C269.47,-659.15 271.95,-652.92 274,-647 281.52,-625.31 288.14,-600.54 293.06,-580.34"/>
<polygon fill="none" stroke="#404040" points="293.12,-580.11 290.61,-573.34 295.89,-568.43 298.4,-575.19 293.12,-580.11"/>
<text text-anchor="middle" x="291.5" y="-633.5" font-family="Helvetica,sans-Serif" font-size="10.00"> +ptr</text>
</g>
<!-- Node9 -->
<g id="node9" class="node">
<title>Node9</title>
<g id="a_node9"><a xlink:title=" ">
<polygon fill="white" stroke="#bfbfbf" points="251.5,-291.5 251.5,-348.5 348.5,-348.5 348.5,-291.5 251.5,-291.5"/>
<text text-anchor="middle" x="300" y="-336.5" font-family="Helvetica,sans-Serif" font-size="10.00">unique_ptr&lt; Atcf &gt;</text>
<polyline fill="none" stroke="#bfbfbf" points="251.5,-329.5 348.5,-329.5 "/>
<text text-anchor="start" x="259.5" y="-317.5" font-family="Helvetica,sans-Serif" font-size="10.00">+ ptr</text>
<polyline fill="none" stroke="#bfbfbf" points="251.5,-310.5 348.5,-310.5 "/>
<text text-anchor="start" x="259.5" y="-298.5" font-family="Helvetica,sans-Serif" font-size="10.00">+ operator&#45;&gt;()</text>
</a>
</g>
</g>
<!-- Node9&#45;&gt;Node1 -->
<g id="edge8" class="edge">
<title>Node9&#45;&gt;Node1</title>
<path fill="none" stroke="#404040" d="M296.45,-291.19C290.85,-254.79 277.5,-189.97 249,-142 239.36,-125.77 225.59,-110.54 212.18,-97.85"/>
<polygon fill="none" stroke="#404040" points="211.89,-97.58 204.76,-96.5 203.02,-89.5 210.15,-90.59 211.89,-97.58"/>
<text text-anchor="middle" x="311.5" y="-219.5" font-family="Helvetica,sans-Serif" font-size="10.00"> &#45;m_atcf</text>
</g>
<!-- Node10&#45;&gt;Node9 -->
<g id="edge9" class="edge">
<title>Node10&#45;&gt;Node9</title>
<path fill="none" stroke="orange" d="M301.65,-500.81C301.25,-457.44 300.61,-387.28 300.25,-348.67"/>
<polygon fill="orange" stroke="orange" points="298.15,-500.99 301.75,-510.95 305.15,-500.92 298.15,-500.99"/>
<text text-anchor="middle" x="320.5" y="-446" font-family="Helvetica,sans-Serif" font-size="10.00"> &lt; Atcf &gt;</text>
</g>
</g>
</svg>
