<?xml version="1.0" encoding="UTF-8" standalone="no"?>
<!DOCTYPE svg PUBLIC "-//W3C//DTD SVG 1.1//EN"
 "http://www.w3.org/Graphics/SVG/1.1/DTD/svg11.dtd">
<!-- Generated by graphviz version 2.47.1 (20210417.1919)
 -->
<!-- Title: mod_floor Pages: 1 -->
<!--zoomable 442 -->
<svg id="main" version="1.1" xmlns="http://www.w3.org/2000/svg" xmlns:xlink="http://www.w3.org/1999/xlink" xml:space="preserve" onload="init(evt)">
<style type="text/css"><![CDATA[
.edge:hover path { stroke: red; }
.edge:hover polygon { stroke: red; fill: red; }
]]></style>
<script type="text/javascript"><![CDATA[
var edges = document.getElementsByTagName('g');
if (edges && edges.length) {
  for (var i=0;i<edges.length;i++) {
    if (edges[i].id.substr(0,4)=='edge') {
      edges[i].setAttribute('class','edge');
    }
  }
}
]]></script>
        <defs>
                <circle id="rim" cx="0" cy="0" r="7"/>
                <circle id="rim2" cx="0" cy="0" r="3.5"/>
                <g id="zoomPlus">
                        <use xlink:href="#rim" fill="#404040">
                                <set attributeName="fill" to="#808080" begin="zoomplus.mouseover" end="zoomplus.mouseout"/>
                        </use>
                        <path d="M-4,0h8M0,-4v8" fill="none" stroke="white" stroke-width="1.5" pointer-events="none"/>
                </g>
                <g id="zoomMin">
                        <use xlink:href="#rim" fill="#404040">
                                <set attributeName="fill" to="#808080" begin="zoomminus.mouseover" end="zoomminus.mouseout"/>
                        </use>
                        <path d="M-4,0h8" fill="none" stroke="white" stroke-width="1.5" pointer-events="none"/>
                </g>
                <g id="dirArrow">
                        <path fill="none" stroke="white" stroke-width="1.5" d="M0,-3.0v7 M-2.5,-0.5L0,-3.0L2.5,-0.5"/>
                </g>
               <g id="resetDef">
                       <use xlink:href="#rim2" fill="#404040">
                               <set attributeName="fill" to="#808080" begin="reset.mouseover" end="reset.mouseout"/>
                       </use>
               </g>
        </defs>

<script type="text/javascript">
var viewWidth = 613;
var viewHeight = 442;
var sectionId = 'dynsection-6';
</script>
<script xlink:href="svgpan.js"/>
<svg id="graph" class="graph">
<g id="viewport">
<title>mod_floor</title>
<polygon fill="white" stroke="transparent" points="-4,4 -4,-438 609,-438 609,4 -4,4"/>
<!-- Node1 -->
<g id="node1" class="node">
<title>Node1</title>
<g id="a_node1"><a xlink:title=" ">
<polygon fill="#bfbfbf" stroke="black" points="546,-106.5 546,-125.5 605,-125.5 605,-106.5 546,-106.5"/>
<text text-anchor="middle" x="575.5" y="-113.5" font-family="Helvetica,sans-Serif" font-size="10.00">mod_floor</text>
</a>
</g>
</g>
<!-- Node2 -->
<g id="node2" class="node">
<title>Node2</title>
<g id="a_node2"><a xlink:href="classCircularArray.html#a0642b8def16b83c1fff8f93326d2c842" target="_top" xlink:title=" ">
<polygon fill="white" stroke="black" points="466.5,-224.5 466.5,-243.5 495.5,-243.5 495.5,-224.5 466.5,-224.5"/>
<text text-anchor="middle" x="481" y="-231.5" font-family="Helvetica,sans-Serif" font-size="10.00">at</text>
</a>
</g>
</g>
<!-- Node1&#45;&gt;Node2 -->
<g id="edge1" class="edge">
<title>Node1&#45;&gt;Node2</title>
<path fill="none" stroke="midnightblue" d="M560.66,-133.65C540.91,-158.86 505.28,-204.3 489.67,-224.21"/>
<polygon fill="midnightblue" stroke="midnightblue" points="563.52,-135.69 566.93,-125.66 558.01,-131.37 563.52,-135.69"/>
</g>
<!-- Node17 -->
<g id="node17" class="node">
<title>Node17</title>
<g id="a_node17"><a xlink:href="classCircularArray.html#a4a126eafbd74157a9e7cebe893af7d27" target="_top" xlink:title=" ">
<polygon fill="white" stroke="black" points="452,-68.5 452,-87.5 510,-87.5 510,-68.5 452,-68.5"/>
<text text-anchor="middle" x="481" y="-75.5" font-family="Helvetica,sans-Serif" font-size="10.00">operator[]</text>
</a>
</g>
</g>
<!-- Node1&#45;&gt;Node17 -->
<g id="edge20" class="edge">
<title>Node1&#45;&gt;Node17</title>
<path fill="none" stroke="midnightblue" d="M541.85,-102.59C529.8,-97.64 516.4,-92.13 505.33,-87.59"/>
<polygon fill="midnightblue" stroke="midnightblue" points="540.58,-105.85 551.16,-106.41 543.24,-99.37 540.58,-105.85"/>
</g>
<!-- Node18 -->
<g id="node18" class="node">
<title>Node18</title>
<g id="a_node18"><a xlink:href="classCircularArray.html#a43241fcadbf56b0a7c3f7242acf46eed" target="_top" xlink:title=" ">
<polygon fill="white" stroke="black" points="466,-106.5 466,-125.5 496,-125.5 496,-106.5 466,-106.5"/>
<text text-anchor="middle" x="481" y="-113.5" font-family="Helvetica,sans-Serif" font-size="10.00">set</text>
</a>
</g>
</g>
<!-- Node1&#45;&gt;Node18 -->
<g id="edge21" class="edge">
<title>Node1&#45;&gt;Node18</title>
<path fill="none" stroke="midnightblue" d="M535.96,-116C521.83,-116 506.71,-116 496.08,-116"/>
<polygon fill="midnightblue" stroke="midnightblue" points="535.99,-119.5 545.99,-116 535.99,-112.5 535.99,-119.5"/>
</g>
<!-- Node3 -->
<g id="node3" class="node">
<title>Node3</title>
<g id="a_node3"><a xlink:href="classIsotach.html#a4ae76972e9b895592c48a9063a34196e" target="_top" xlink:title=" ">
<polygon fill="white" stroke="black" points="270.5,-300.5 270.5,-319.5 404.5,-319.5 404.5,-300.5 270.5,-300.5"/>
<text text-anchor="middle" x="337.5" y="-307.5" font-family="Helvetica,sans-Serif" font-size="10.00">Isotach::generateQuadFlag</text>
</a>
</g>
</g>
<!-- Node2&#45;&gt;Node3 -->
<g id="edge2" class="edge">
<title>Node2&#45;&gt;Node3</title>
<path fill="none" stroke="midnightblue" d="M464.95,-251.36C452.94,-264.15 435.01,-281 416,-291 408.64,-294.87 400.48,-297.97 392.29,-300.44"/>
<polygon fill="midnightblue" stroke="midnightblue" points="467.82,-253.41 471.95,-243.65 462.64,-248.7 467.82,-253.41"/>
</g>
<!-- Node4 -->
<g id="node4" class="node">
<title>Node4</title>
<g id="a_node4"><a xlink:href="classVortex.html#ada5ebd5311d214fba078d1b3285a4032" target="_top" xlink:title=" ">
<polygon fill="white" stroke="black" points="270.5,-262.5 270.5,-281.5 404.5,-281.5 404.5,-262.5 270.5,-262.5"/>
<text text-anchor="middle" x="337.5" y="-269.5" font-family="Helvetica,sans-Serif" font-size="10.00">Vortex::getParameterValue</text>
</a>
</g>
</g>
<!-- Node2&#45;&gt;Node4 -->
<g id="edge3" class="edge">
<title>Node2&#45;&gt;Node4</title>
<path fill="none" stroke="midnightblue" d="M456.57,-241.25C444.49,-244.91 429.5,-249.34 416,-253 404.1,-256.22 391.11,-259.5 379.22,-262.41"/>
<polygon fill="midnightblue" stroke="midnightblue" points="457.78,-244.54 466.32,-238.27 455.74,-237.85 457.78,-244.54"/>
</g>
<!-- Node5 -->
<g id="node5" class="node">
<title>Node5</title>
<g id="a_node5"><a xlink:href="classVortex.html#af45bed77f864fe7cd18e96bcad902c16" target="_top" xlink:title=" ">
<polygon fill="white" stroke="black" points="296,-224.5 296,-243.5 379,-243.5 379,-224.5 296,-224.5"/>
<text text-anchor="middle" x="337.5" y="-231.5" font-family="Helvetica,sans-Serif" font-size="10.00">Vortex::interpR</text>
</a>
</g>
</g>
<!-- Node2&#45;&gt;Node5 -->
<g id="edge4" class="edge">
<title>Node2&#45;&gt;Node5</title>
<path fill="none" stroke="midnightblue" d="M456.16,-234C435.13,-234 404.04,-234 379.1,-234"/>
<polygon fill="midnightblue" stroke="midnightblue" points="456.43,-237.5 466.43,-234 456.43,-230.5 456.43,-237.5"/>
</g>
<!-- Node6 -->
<g id="node6" class="node">
<title>Node6</title>
<g id="a_node6"><a xlink:href="classIsotach.html#a64352a7d018b8161e34e42ae0aad2e32" target="_top" xlink:title=" ">
<polygon fill="white" stroke="black" points="297.5,-414.5 297.5,-433.5 377.5,-433.5 377.5,-414.5 297.5,-414.5"/>
<text text-anchor="middle" x="337.5" y="-421.5" font-family="Helvetica,sans-Serif" font-size="10.00">Isotach::isNull</text>
</a>
</g>
</g>
<!-- Node2&#45;&gt;Node6 -->
<g id="edge5" class="edge">
<title>Node2&#45;&gt;Node6</title>
<path fill="none" stroke="midnightblue" d="M478.43,-254.04C474.52,-289.87 461.11,-364.91 416,-405 405.54,-414.29 391.27,-419.21 377.83,-421.76"/>
<polygon fill="midnightblue" stroke="midnightblue" points="481.94,-254.16 479.4,-243.88 474.97,-253.5 481.94,-254.16"/>
</g>
<!-- Node7 -->
<g id="node7" class="node">
<title>Node7</title>
<g id="a_node7"><a xlink:href="classAtcf.html#adfe6ef35c351380ba863090d4fec04bb" target="_top" xlink:title=" ">
<polygon fill="white" stroke="black" points="269.5,-38.5 269.5,-57.5 405.5,-57.5 405.5,-38.5 269.5,-38.5"/>
<text text-anchor="middle" x="337.5" y="-45.5" font-family="Helvetica,sans-Serif" font-size="10.00">Atcf::recomputeQuadrantVr</text>
</a>
</g>
</g>
<!-- Node2&#45;&gt;Node7 -->
<g id="edge6" class="edge">
<title>Node2&#45;&gt;Node7</title>
<path fill="none" stroke="midnightblue" d="M474.95,-214.41C464.35,-174.79 438.88,-87.18 416,-67 411.64,-63.15 406.62,-60.06 401.28,-57.57"/>
<polygon fill="midnightblue" stroke="midnightblue" points="471.6,-215.44 477.53,-224.22 478.37,-213.66 471.6,-215.44"/>
</g>
<!-- Node10 -->
<g id="node10" class="node">
<title>Node10</title>
<g id="a_node10"><a xlink:href="classAtcf.html#ab2c3d48d4cd01aa2aef9e02f2a199bb1" target="_top" xlink:title=" ">
<polygon fill="white" stroke="black" points="259,-126 259,-156 416,-156 416,-126 259,-126"/>
<text text-anchor="start" x="267" y="-144" font-family="Helvetica,sans-Serif" font-size="10.00">Atcf::setMissingRadiiToAverage</text>
<text text-anchor="middle" x="337.5" y="-133" font-family="Helvetica,sans-Serif" font-size="10.00">OfAdjacentRadii</text>
</a>
</g>
</g>
<!-- Node2&#45;&gt;Node10 -->
<g id="edge9" class="edge">
<title>Node2&#45;&gt;Node10</title>
<path fill="none" stroke="midnightblue" d="M467.72,-216.19C456.08,-200.59 437.27,-178.38 416,-165 410.64,-161.62 404.76,-158.69 398.72,-156.16"/>
<polygon fill="midnightblue" stroke="midnightblue" points="465.01,-218.43 473.7,-224.5 470.69,-214.34 465.01,-218.43"/>
</g>
<!-- Node12 -->
<g id="node12" class="node">
<title>Node12</title>
<g id="a_node12"><a xlink:href="classAtcf.html#a0f3511e6d9066da7d7af0fe1aab03f79" target="_top" xlink:title=" ">
<polygon fill="white" stroke="black" points="268,-77 268,-107 407,-107 407,-77 268,-77"/>
<text text-anchor="start" x="276" y="-95" font-family="Helvetica,sans-Serif" font-size="10.00">Atcf::setMissingRadiiToHalf</text>
<text text-anchor="middle" x="337.5" y="-84" font-family="Helvetica,sans-Serif" font-size="10.00">NonzeroRadii</text>
</a>
</g>
</g>
<!-- Node2&#45;&gt;Node12 -->
<g id="edge12" class="edge">
<title>Node2&#45;&gt;Node12</title>
<path fill="none" stroke="midnightblue" d="M474.55,-214.59C466.23,-188.43 447.85,-142.13 416,-116 411.86,-112.61 407.24,-109.69 402.38,-107.19"/>
<polygon fill="midnightblue" stroke="midnightblue" points="471.29,-215.88 477.52,-224.45 477.99,-213.87 471.29,-215.88"/>
</g>
<!-- Node13 -->
<g id="node13" class="node">
<title>Node13</title>
<g id="a_node13"><a xlink:href="classAtcf.html#aed2ec117307b05eb72dc3e8e06965923" target="_top" xlink:title=" ">
<polygon fill="white" stroke="black" points="268,-175 268,-205 407,-205 407,-175 268,-175"/>
<text text-anchor="start" x="276" y="-193" font-family="Helvetica,sans-Serif" font-size="10.00">Atcf::setMissingRadiiToHalf</text>
<text text-anchor="middle" x="337.5" y="-182" font-family="Helvetica,sans-Serif" font-size="10.00">OfAverageSpecifiedRadii</text>
</a>
</g>
</g>
<!-- Node2&#45;&gt;Node13 -->
<g id="edge14" class="edge">
<title>Node2&#45;&gt;Node13</title>
<path fill="none" stroke="midnightblue" d="M456.88,-226.81C437.97,-220.93 410.6,-212.42 386.93,-205.06"/>
<polygon fill="midnightblue" stroke="midnightblue" points="455.84,-230.15 466.43,-229.78 457.92,-223.47 455.84,-230.15"/>
</g>
<!-- Node14 -->
<g id="node14" class="node">
<title>Node14</title>
<g id="a_node14"><a xlink:href="classVortex.html#a36b321e4164c600950ffe1cc7021146f" target="_top" xlink:title=" ">
<polygon fill="white" stroke="black" points="279.5,-338.5 279.5,-357.5 395.5,-357.5 395.5,-338.5 279.5,-338.5"/>
<text text-anchor="middle" x="337.5" y="-345.5" font-family="Helvetica,sans-Serif" font-size="10.00">Vortex::vgWithCoriFull</text>
</a>
</g>
</g>
<!-- Node2&#45;&gt;Node14 -->
<g id="edge16" class="edge">
<title>Node2&#45;&gt;Node14</title>
<path fill="none" stroke="midnightblue" d="M472.3,-253.01C462.5,-274.76 443.47,-309.83 416,-329 409.86,-333.28 402.87,-336.6 395.65,-339.17"/>
<polygon fill="midnightblue" stroke="midnightblue" points="475.64,-254.1 476.37,-243.53 469.21,-251.34 475.64,-254.1"/>
</g>
<!-- Node16 -->
<g id="node16" class="node">
<title>Node16</title>
<g id="a_node16"><a xlink:href="classVortex.html#ae476777bb80581d4af28e4c2ce3a0b99" target="_top" xlink:title=" ">
<polygon fill="white" stroke="black" points="291.5,-376.5 291.5,-395.5 383.5,-395.5 383.5,-376.5 291.5,-376.5"/>
<text text-anchor="middle" x="337.5" y="-383.5" font-family="Helvetica,sans-Serif" font-size="10.00">Vortex::vhNoCori</text>
</a>
</g>
</g>
<!-- Node2&#45;&gt;Node16 -->
<g id="edge18" class="edge">
<title>Node2&#45;&gt;Node16</title>
<path fill="none" stroke="midnightblue" d="M476.1,-253.66C469.25,-282.93 452.18,-337.66 416,-367 406.85,-374.42 395.24,-379 383.8,-381.82"/>
<polygon fill="midnightblue" stroke="midnightblue" points="479.54,-254.31 478.25,-243.79 472.7,-252.82 479.54,-254.31"/>
</g>
<!-- Node8 -->
<g id="node8" class="node">
<title>Node8</title>
<g id="a_node8"><a xlink:href="classAtcf.html#ada693ebe0f0ee4be52b01fd3fe83963a" target="_top" xlink:title=" ">
<polygon fill="white" stroke="black" points="95,-38.5 95,-57.5 223,-57.5 223,-38.5 95,-38.5"/>
<text text-anchor="middle" x="159" y="-45.5" font-family="Helvetica,sans-Serif" font-size="10.00">Atcf::computeParameters</text>
</a>
</g>
</g>
<!-- Node7&#45;&gt;Node8 -->
<g id="edge7" class="edge">
<title>Node7&#45;&gt;Node8</title>
<path fill="none" stroke="midnightblue" d="M259.25,-48C247.23,-48 234.93,-48 223.27,-48"/>
<polygon fill="midnightblue" stroke="midnightblue" points="259.27,-51.5 269.27,-48 259.27,-44.5 259.27,-51.5"/>
</g>
<!-- Node9 -->
<g id="node9" class="node">
<title>Node9</title>
<g id="a_node9"><a xlink:href="classAtcf.html#aaab5dab5b969a87f538242e524431637" target="_top" xlink:title=" ">
<polygon fill="white" stroke="black" points="0,-60.5 0,-79.5 59,-79.5 59,-60.5 0,-60.5"/>
<text text-anchor="middle" x="29.5" y="-67.5" font-family="Helvetica,sans-Serif" font-size="10.00">Atcf::read</text>
</a>
</g>
</g>
<!-- Node8&#45;&gt;Node9 -->
<g id="edge8" class="edge">
<title>Node8&#45;&gt;Node9</title>
<path fill="none" stroke="midnightblue" d="M92.87,-59.24C81,-61.29 69.19,-63.32 59.09,-65.07"/>
<polygon fill="midnightblue" stroke="midnightblue" points="93.56,-62.67 102.82,-57.52 92.37,-55.77 93.56,-62.67"/>
</g>
<!-- Node11 -->
<g id="node11" class="node">
<title>Node11</title>
<g id="a_node11"><a xlink:href="classAtcf.html#a4392a7255cda22dc330a996257216c31" target="_top" xlink:title=" ">
<polygon fill="white" stroke="black" points="108,-106.5 108,-125.5 210,-125.5 210,-106.5 108,-106.5"/>
<text text-anchor="middle" x="159" y="-113.5" font-family="Helvetica,sans-Serif" font-size="10.00">Atcf::calculateRadii</text>
</a>
</g>
</g>
<!-- Node10&#45;&gt;Node11 -->
<g id="edge10" class="edge">
<title>Node10&#45;&gt;Node11</title>
<path fill="none" stroke="midnightblue" d="M248.7,-128.56C235.42,-126.68 222.13,-124.8 210.03,-123.09"/>
<polygon fill="midnightblue" stroke="midnightblue" points="248.44,-132.06 258.83,-130 249.42,-125.13 248.44,-132.06"/>
</g>
<!-- Node11&#45;&gt;Node9 -->
<g id="edge11" class="edge">
<title>Node11&#45;&gt;Node9</title>
<path fill="none" stroke="midnightblue" d="M122.15,-103.06C101.41,-95.58 75.77,-86.33 56.88,-79.52"/>
<polygon fill="midnightblue" stroke="midnightblue" points="120.99,-106.37 131.58,-106.47 123.36,-99.78 120.99,-106.37"/>
</g>
<!-- Node12&#45;&gt;Node11 -->
<g id="edge13" class="edge">
<title>Node12&#45;&gt;Node11</title>
<path fill="none" stroke="midnightblue" d="M257.78,-102.7C241.63,-104.9 225.06,-107.15 210.25,-109.17"/>
<polygon fill="midnightblue" stroke="midnightblue" points="258.32,-106.16 267.76,-101.35 257.37,-99.23 258.32,-106.16"/>
</g>
<!-- Node13&#45;&gt;Node11 -->
<g id="edge15" class="edge">
<title>Node13&#45;&gt;Node11</title>
<path fill="none" stroke="midnightblue" d="M276.22,-171.52C270.36,-169.44 264.54,-167.25 259,-165 229.68,-153.09 197.03,-136.18 177.52,-125.66"/>
<polygon fill="midnightblue" stroke="midnightblue" points="275.49,-174.97 286.08,-174.93 277.77,-168.36 275.49,-174.97"/>
</g>
<!-- Node15 -->
<g id="node15" class="node">
<title>Node15</title>
<g id="a_node15"><a xlink:href="classVortex.html#add1b3d68a6adac1887b0175193b6d79e" target="_top" xlink:title=" ">
<polygon fill="white" stroke="black" points="120.5,-357.5 120.5,-376.5 197.5,-376.5 197.5,-357.5 120.5,-357.5"/>
<text text-anchor="middle" x="159" y="-364.5" font-family="Helvetica,sans-Serif" font-size="10.00">Vortex::getVh</text>
</a>
</g>
</g>
<!-- Node14&#45;&gt;Node15 -->
<g id="edge17" class="edge">
<title>Node14&#45;&gt;Node15</title>
<path fill="none" stroke="midnightblue" d="M268.97,-355.27C244.75,-357.88 218.33,-360.72 197.56,-362.96"/>
<polygon fill="midnightblue" stroke="midnightblue" points="269.63,-358.72 279.2,-354.17 268.88,-351.76 269.63,-358.72"/>
</g>
<!-- Node16&#45;&gt;Node15 -->
<g id="edge19" class="edge">
<title>Node16&#45;&gt;Node15</title>
<path fill="none" stroke="midnightblue" d="M280.9,-380.01C253.75,-377.09 221.8,-373.65 197.56,-371.04"/>
<polygon fill="midnightblue" stroke="midnightblue" points="280.73,-383.52 291.05,-381.11 281.48,-376.56 280.73,-383.52"/>
</g>
<!-- Node18&#45;&gt;Node7 -->
<g id="edge24" class="edge">
<title>Node18&#45;&gt;Node7</title>
<path fill="none" stroke="midnightblue" d="M457.58,-101.07C455.67,-99.72 453.79,-98.35 452,-97 435.36,-84.47 434.59,-76.39 416,-67 408.33,-63.13 399.83,-60.02 391.36,-57.53"/>
<polygon fill="midnightblue" stroke="midnightblue" points="455.64,-103.99 465.85,-106.79 459.62,-98.23 455.64,-103.99"/>
</g>
<!-- Node18&#45;&gt;Node10 -->
<g id="edge25" class="edge">
<title>Node18&#45;&gt;Node10</title>
<path fill="none" stroke="midnightblue" d="M455.74,-120.29C444.54,-122.26 430.57,-124.73 416.2,-127.27"/>
<polygon fill="midnightblue" stroke="midnightblue" points="456.68,-123.68 465.92,-118.49 455.46,-116.78 456.68,-123.68"/>
</g>
<!-- Node18&#45;&gt;Node12 -->
<g id="edge26" class="edge">
<title>Node18&#45;&gt;Node12</title>
<path fill="none" stroke="midnightblue" d="M456.01,-111.93C442.45,-109.63 424.74,-106.63 407.2,-103.65"/>
<polygon fill="midnightblue" stroke="midnightblue" points="455.47,-115.39 465.92,-113.61 456.64,-108.49 455.47,-115.39"/>
</g>
<!-- Node18&#45;&gt;Node13 -->
<g id="edge27" class="edge">
<title>Node18&#45;&gt;Node13</title>
<path fill="none" stroke="midnightblue" d="M462.24,-132.27C449.99,-142.79 432.92,-156.13 416,-165 408.86,-168.74 401.06,-172.06 393.25,-174.95"/>
<polygon fill="midnightblue" stroke="midnightblue" points="464.71,-134.76 469.89,-125.52 460.08,-129.51 464.71,-134.76"/>
</g>
<!-- Node19 -->
<g id="node19" class="node">
<title>Node19</title>
<g id="a_node19"><a xlink:href="classAtcf.html#a80d9683a370e561492db8a0f6d795c5d" target="_top" xlink:title=" ">
<polygon fill="white" stroke="black" points="273.5,-0.5 273.5,-19.5 401.5,-19.5 401.5,-0.5 273.5,-0.5"/>
<text text-anchor="middle" x="337.5" y="-7.5" font-family="Helvetica,sans-Serif" font-size="10.00">Atcf::computeQuadrantVr</text>
</a>
</g>
</g>
<!-- Node18&#45;&gt;Node19 -->
<g id="edge22" class="edge">
<title>Node18&#45;&gt;Node19</title>
<path fill="none" stroke="midnightblue" d="M457.71,-102.42C455.66,-100.73 453.72,-98.91 452,-97 429.18,-71.53 442.97,-50.02 416,-29 411.08,-25.17 405.5,-22.09 399.64,-19.63"/>
<polygon fill="midnightblue" stroke="midnightblue" points="455.69,-105.28 465.85,-108.31 459.8,-99.61 455.69,-105.28"/>
</g>
<!-- Node19&#45;&gt;Node8 -->
<g id="edge23" class="edge">
<title>Node19&#45;&gt;Node8</title>
<path fill="none" stroke="midnightblue" d="M281.91,-21.75C256.96,-27.13 227.77,-33.41 204.22,-38.48"/>
<polygon fill="midnightblue" stroke="midnightblue" points="282.92,-25.12 291.96,-19.59 281.45,-18.27 282.92,-25.12"/>
</g>
</g>
</svg>
        <g id="navigator" transform="translate(0 0)" fill="#404254">
                <rect fill="#f2f5e9" fill-opacity="0.5" stroke="#606060" stroke-width=".5" x="0" y="0" width="60" height="60"/>
                <use id="zoomplus" xlink:href="#zoomPlus" x="17" y="9" onmousedown="handleZoom(evt,'in')"/>
                <use id="zoomminus" xlink:href="#zoomMin" x="42" y="9" onmousedown="handleZoom(evt,'out')"/>
                <use id="reset" xlink:href="#resetDef" x="30" y="36" onmousedown="handleReset()"/>
                <g id="arrowUp" xlink:href="#dirArrow" transform="translate(30 24)" onmousedown="handlePan(0,-1)">
                  <use xlink:href="#rim" fill="#404040">
                        <set attributeName="fill" to="#808080" begin="arrowUp.mouseover" end="arrowUp.mouseout"/>
                  </use>
                  <path fill="none" stroke="white" stroke-width="1.5" d="M0,-3.0v7 M-2.5,-0.5L0,-3.0L2.5,-0.5"/>
                </g>
                <g id="arrowRight" xlink:href="#dirArrow" transform="rotate(90) translate(36 -43)" onmousedown="handlePan(1,0)">
                  <use xlink:href="#rim" fill="#404040">
                        <set attributeName="fill" to="#808080" begin="arrowRight.mouseover" end="arrowRight.mouseout"/>
                  </use>
                  <path fill="none" stroke="white" stroke-width="1.5" d="M0,-3.0v7 M-2.5,-0.5L0,-3.0L2.5,-0.5"/>
                </g>
                <g id="arrowDown" xlink:href="#dirArrow" transform="rotate(180) translate(-30 -48)" onmousedown="handlePan(0,1)">
                  <use xlink:href="#rim" fill="#404040">
                        <set attributeName="fill" to="#808080" begin="arrowDown.mouseover" end="arrowDown.mouseout"/>
                  </use>
                  <path fill="none" stroke="white" stroke-width="1.5" d="M0,-3.0v7 M-2.5,-0.5L0,-3.0L2.5,-0.5"/>
                </g>
                <g id="arrowLeft" xlink:href="#dirArrow" transform="rotate(270) translate(-36 17)" onmousedown="handlePan(-1,0)">
                  <use xlink:href="#rim" fill="#404040">
                        <set attributeName="fill" to="#808080" begin="arrowLeft.mouseover" end="arrowLeft.mouseout"/>
                  </use>
                  <path fill="none" stroke="white" stroke-width="1.5" d="M0,-3.0v7 M-2.5,-0.5L0,-3.0L2.5,-0.5"/>
                </g>
        </g>
        <svg viewBox="0 0 15 15" width="100%" height="30px" preserveAspectRatio="xMaxYMin meet">
         <g id="arrow_out" transform="scale(0.3 0.3)">
          <a xlink:href="classCircularArray_ae9ee07d89dc4196acefc5b290b9275b8_icgraph_org.svg" target="_base">
           <rect id="button" ry="5" rx="5" y="6" x="6" height="38" width="38"
                fill="#f2f5e9" fill-opacity="0.5" stroke="#606060" stroke-width="1.0"/>
           <path id="arrow"
             d="M 11.500037,31.436501 C 11.940474,20.09759 22.043105,11.32322 32.158766,21.979434 L 37.068811,17.246167 C 37.068811,17.246167 37.088388,32 37.088388,32 L 22.160133,31.978069 C 22.160133,31.978069 26.997745,27.140456 26.997745,27.140456 C 18.528582,18.264221 13.291696,25.230495 11.500037,31.436501 z"
             style="fill:#404040;"/>
          </a>
         </g>
        </svg>
</svg>
