<?xml version="1.0" encoding="UTF-8" standalone="no"?>
<!DOCTYPE svg PUBLIC "-//W3C//DTD SVG 1.1//EN"
 "http://www.w3.org/Graphics/SVG/1.1/DTD/svg11.dtd">
<!-- Generated by graphviz version 2.47.1 (20210417.1919)
 -->
<!-- Title: getStormParameters Pages: 1 -->
<svg width="461pt" height="104pt"
 viewBox="0.00 0.00 461.00 104.00" xmlns="http://www.w3.org/2000/svg" xmlns:xlink="http://www.w3.org/1999/xlink">
<g id="graph0" class="graph" transform="scale(1 1) rotate(0) translate(4 100)">
<title>getStormParameters</title>
<polygon fill="white" stroke="transparent" points="-4,4 -4,-100 457,-100 457,4 -4,4"/>
<!-- Node1 -->
<g id="node1" class="node">
<title>Node1</title>
<g id="a_node1"><a xlink:title=" ">
<polygon fill="#bfbfbf" stroke="black" points="0,-19.5 0,-38.5 107,-38.5 107,-19.5 0,-19.5"/>
<text text-anchor="middle" x="53.5" y="-26.5" font-family="Helvetica,sans-Serif" font-size="10.00">getStormParameters</text>
</a>
</g>
</g>
<!-- Node2 -->
<g id="node2" class="node">
<title>Node2</title>
<g id="a_node2"><a xlink:href="classAtcf.html#a288aec5ac021ac483da71812a26dc9c3" target="_top" xlink:title=" ">
<polygon fill="white" stroke="black" points="143,-38.5 143,-57.5 233,-57.5 233,-38.5 143,-38.5"/>
<text text-anchor="middle" x="188" y="-45.5" font-family="Helvetica,sans-Serif" font-size="10.00">getCycleNumber</text>
</a>
</g>
</g>
<!-- Node1&#45;&gt;Node2 -->
<g id="edge1" class="edge">
<title>Node1&#45;&gt;Node2</title>
<path fill="none" stroke="midnightblue" d="M107.25,-36.56C115.66,-37.77 124.38,-39.02 132.83,-40.23"/>
<polygon fill="midnightblue" stroke="midnightblue" points="132.56,-43.73 142.96,-41.68 133.56,-36.8 132.56,-43.73"/>
</g>
<!-- Node7 -->
<g id="node7" class="node">
<title>Node7</title>
<g id="a_node7"><a xlink:href="classAtcf.html#ac775141fc311e59db12fdba1a913f8e2" target="_top" xlink:title=" ">
<polygon fill="white" stroke="black" points="155.5,-0.5 155.5,-19.5 220.5,-19.5 220.5,-0.5 155.5,-0.5"/>
<text text-anchor="middle" x="188" y="-7.5" font-family="Helvetica,sans-Serif" font-size="10.00">linearInterp</text>
</a>
</g>
</g>
<!-- Node1&#45;&gt;Node7 -->
<g id="edge6" class="edge">
<title>Node1&#45;&gt;Node7</title>
<path fill="none" stroke="midnightblue" d="M107.25,-21.44C119.86,-19.63 133.16,-17.72 145.2,-15.99"/>
<polygon fill="midnightblue" stroke="midnightblue" points="146.01,-19.41 155.41,-14.53 145.02,-12.48 146.01,-19.41"/>
</g>
<!-- Node3 -->
<g id="node3" class="node">
<title>Node3</title>
<g id="a_node3"><a xlink:href="classAssumptions.html#a20319f7261289f879d667fe91034d503" target="_top" xlink:title=" ">
<polygon fill="white" stroke="black" points="269,-76.5 269,-95.5 364,-95.5 364,-76.5 269,-76.5"/>
<text text-anchor="middle" x="316.5" y="-83.5" font-family="Helvetica,sans-Serif" font-size="10.00">Assumptions::add</text>
</a>
</g>
</g>
<!-- Node2&#45;&gt;Node3 -->
<g id="edge2" class="edge">
<title>Node2&#45;&gt;Node3</title>
<path fill="none" stroke="midnightblue" d="M220.92,-57.59C236.95,-62.4 256.57,-68.3 273.78,-73.47"/>
<polygon fill="midnightblue" stroke="midnightblue" points="273,-76.89 283.59,-76.41 275.02,-70.19 273,-76.89"/>
</g>
<!-- Node4 -->
<g id="node4" class="node">
<title>Node4</title>
<g id="a_node4"><a xlink:href="classDate.html#a1fa70aa48f749203df9a600eb190dd7b" target="_top" xlink:title=" ">
<polygon fill="white" stroke="black" points="271.5,-38.5 271.5,-57.5 361.5,-57.5 361.5,-38.5 271.5,-38.5"/>
<text text-anchor="middle" x="316.5" y="-45.5" font-family="Helvetica,sans-Serif" font-size="10.00">Date::toSeconds</text>
</a>
</g>
</g>
<!-- Node2&#45;&gt;Node4 -->
<g id="edge3" class="edge">
<title>Node2&#45;&gt;Node4</title>
<path fill="none" stroke="midnightblue" d="M233.24,-48C242.35,-48 252.03,-48 261.44,-48"/>
<polygon fill="midnightblue" stroke="midnightblue" points="261.5,-51.5 271.5,-48 261.49,-44.5 261.5,-51.5"/>
</g>
<!-- Node6 -->
<g id="node6" class="node">
<title>Node6</title>
<g id="a_node6"><a xlink:href="classDate.html#aeb00139940a15f0cfea95dce5f01613f" target="_top" xlink:title=" ">
<polygon fill="white" stroke="black" points="278,-0.5 278,-19.5 355,-19.5 355,-0.5 278,-0.5"/>
<text text-anchor="middle" x="316.5" y="-7.5" font-family="Helvetica,sans-Serif" font-size="10.00">Date::toString</text>
</a>
</g>
</g>
<!-- Node2&#45;&gt;Node6 -->
<g id="edge5" class="edge">
<title>Node2&#45;&gt;Node6</title>
<path fill="none" stroke="midnightblue" d="M220.92,-38.41C236.95,-33.6 256.57,-27.7 273.78,-22.53"/>
<polygon fill="midnightblue" stroke="midnightblue" points="275.02,-25.81 283.59,-19.59 273,-19.11 275.02,-25.81"/>
</g>
<!-- Node5 -->
<g id="node5" class="node">
<title>Node5</title>
<g id="a_node5"><a xlink:href="Date_8cpp.html#a45ca5db09a1ee8d14a196628d506d4bf" target="_top" xlink:title=" ">
<polygon fill="white" stroke="black" points="400,-38.5 400,-57.5 453,-57.5 453,-38.5 400,-38.5"/>
<text text-anchor="middle" x="426.5" y="-45.5" font-family="Helvetica,sans-Serif" font-size="10.00">c_epoch</text>
</a>
</g>
</g>
<!-- Node4&#45;&gt;Node5 -->
<g id="edge4" class="edge">
<title>Node4&#45;&gt;Node5</title>
<path fill="none" stroke="midnightblue" d="M361.74,-48C371.03,-48 380.73,-48 389.67,-48"/>
<polygon fill="midnightblue" stroke="midnightblue" points="389.75,-51.5 399.75,-48 389.75,-44.5 389.75,-51.5"/>
</g>
</g>
</svg>
