<?xml version="1.0" encoding="UTF-8" standalone="no"?>
<!DOCTYPE svg PUBLIC "-//W3C//DTD SVG 1.1//EN"
 "http://www.w3.org/Graphics/SVG/1.1/DTD/svg11.dtd">
<!-- Generated by graphviz version 2.47.1 (20210417.1919)
 -->
<!-- Title: code Pages: 1 -->
<svg width="418pt" height="142pt"
 viewBox="0.00 0.00 418.00 142.00" xmlns="http://www.w3.org/2000/svg" xmlns:xlink="http://www.w3.org/1999/xlink">
<g id="graph0" class="graph" transform="scale(1 1) rotate(0) translate(4 138)">
<title>code</title>
<polygon fill="white" stroke="transparent" points="-4,4 -4,-138 414,-138 414,4 -4,4"/>
<!-- Node1 -->
<g id="node1" class="node">
<title>Node1</title>
<g id="a_node1"><a xlink:title=" ">
<polygon fill="#bfbfbf" stroke="black" points="372,-57.5 372,-76.5 410,-76.5 410,-57.5 372,-57.5"/>
<text text-anchor="middle" x="391" y="-64.5" font-family="Helvetica,sans-Serif" font-size="10.00">code</text>
</a>
</g>
</g>
<!-- Node2 -->
<g id="node2" class="node">
<title>Node2</title>
<g id="a_node2"><a xlink:href="classIsotach.html#ad8db29d5da4482e0ac19ece84e108947" target="_top" xlink:title=" ">
<polygon fill="white" stroke="black" points="250,-114.5 250,-133.5 336,-133.5 336,-114.5 250,-114.5"/>
<text text-anchor="middle" x="293" y="-121.5" font-family="Helvetica,sans-Serif" font-size="10.00">codeFromString</text>
</a>
</g>
</g>
<!-- Node1&#45;&gt;Node2 -->
<g id="edge1" class="edge">
<title>Node1&#45;&gt;Node2</title>
<path fill="none" stroke="midnightblue" d="M369.28,-82.96C359.47,-90.15 347.43,-98.47 336,-105 330.16,-108.33 323.63,-111.53 317.5,-114.31"/>
<polygon fill="midnightblue" stroke="midnightblue" points="371.66,-85.55 377.57,-76.76 367.47,-79.95 371.66,-85.55"/>
</g>
<!-- Node5 -->
<g id="node5" class="node">
<title>Node5</title>
<g id="a_node5"><a xlink:href="classIsotach.html#a64352a7d018b8161e34e42ae0aad2e32" target="_top" xlink:title=" ">
<polygon fill="white" stroke="black" points="272.5,-76.5 272.5,-95.5 313.5,-95.5 313.5,-76.5 272.5,-76.5"/>
<text text-anchor="middle" x="293" y="-83.5" font-family="Helvetica,sans-Serif" font-size="10.00">isNull</text>
</a>
</g>
</g>
<!-- Node1&#45;&gt;Node5 -->
<g id="edge4" class="edge">
<title>Node1&#45;&gt;Node5</title>
<path fill="none" stroke="midnightblue" d="M361.86,-72.57C346.36,-75.64 327.52,-79.37 313.63,-82.12"/>
<polygon fill="midnightblue" stroke="midnightblue" points="362.81,-75.95 371.94,-70.57 361.45,-69.08 362.81,-75.95"/>
</g>
<!-- Node6 -->
<g id="node6" class="node">
<title>Node6</title>
<g id="a_node6"><a xlink:href="classIsotach.html#a9eccf0a80d868dc67d497f40a98227ce" target="_top" xlink:title=" ">
<polygon fill="white" stroke="black" points="266.5,-38.5 266.5,-57.5 319.5,-57.5 319.5,-38.5 266.5,-38.5"/>
<text text-anchor="middle" x="293" y="-45.5" font-family="Helvetica,sans-Serif" font-size="10.00">setCode</text>
</a>
</g>
</g>
<!-- Node1&#45;&gt;Node6 -->
<g id="edge5" class="edge">
<title>Node1&#45;&gt;Node6</title>
<path fill="none" stroke="midnightblue" d="M361.86,-61.43C348.48,-58.78 332.61,-55.64 319.58,-53.06"/>
<polygon fill="midnightblue" stroke="midnightblue" points="361.45,-64.92 371.94,-63.43 362.81,-58.05 361.45,-64.92"/>
</g>
<!-- Node7 -->
<g id="node7" class="node">
<title>Node7</title>
<g id="a_node7"><a xlink:href="classIsotach.html#a107f943d740f337a47238f2265924174" target="_top" xlink:title=" ">
<polygon fill="white" stroke="black" points="250,-0.5 250,-19.5 336,-19.5 336,-0.5 250,-0.5"/>
<text text-anchor="middle" x="293" y="-7.5" font-family="Helvetica,sans-Serif" font-size="10.00">stringFromCode</text>
</a>
</g>
</g>
<!-- Node1&#45;&gt;Node7 -->
<g id="edge6" class="edge">
<title>Node1&#45;&gt;Node7</title>
<path fill="none" stroke="midnightblue" d="M369.28,-51.04C359.47,-43.85 347.43,-35.53 336,-29 330.16,-25.67 323.63,-22.47 317.5,-19.69"/>
<polygon fill="midnightblue" stroke="midnightblue" points="367.47,-54.05 377.57,-57.24 371.66,-48.45 367.47,-54.05"/>
</g>
<!-- Node3 -->
<g id="node3" class="node">
<title>Node3</title>
<g id="a_node3"><a xlink:href="classAtcfLine.html#a669437f8facd47f46097adc21d0d497b" target="_top" xlink:title=" ">
<polygon fill="white" stroke="black" points="95,-114.5 95,-133.5 214,-133.5 214,-114.5 95,-114.5"/>
<text text-anchor="middle" x="154.5" y="-121.5" font-family="Helvetica,sans-Serif" font-size="10.00">AtcfLine::parseAtcfLine</text>
</a>
</g>
</g>
<!-- Node2&#45;&gt;Node3 -->
<g id="edge2" class="edge">
<title>Node2&#45;&gt;Node3</title>
<path fill="none" stroke="midnightblue" d="M239.9,-124C231.51,-124 222.78,-124 214.24,-124"/>
<polygon fill="midnightblue" stroke="midnightblue" points="239.93,-127.5 249.93,-124 239.93,-120.5 239.93,-127.5"/>
</g>
<!-- Node4 -->
<g id="node4" class="node">
<title>Node4</title>
<g id="a_node4"><a xlink:href="classAtcf.html#aaab5dab5b969a87f538242e524431637" target="_top" xlink:title=" ">
<polygon fill="white" stroke="black" points="0,-114.5 0,-133.5 59,-133.5 59,-114.5 0,-114.5"/>
<text text-anchor="middle" x="29.5" y="-121.5" font-family="Helvetica,sans-Serif" font-size="10.00">Atcf::read</text>
</a>
</g>
</g>
<!-- Node3&#45;&gt;Node4 -->
<g id="edge3" class="edge">
<title>Node3&#45;&gt;Node4</title>
<path fill="none" stroke="midnightblue" d="M84.74,-124C75.79,-124 67.06,-124 59.3,-124"/>
<polygon fill="midnightblue" stroke="midnightblue" points="84.88,-127.5 94.88,-124 84.88,-120.5 84.88,-127.5"/>
</g>
<!-- Node8 -->
<g id="node8" class="node">
<title>Node8</title>
<g id="a_node8"><a xlink:href="classAtcf.html#aec35454de676b1f68288d59612b572ee" target="_top" xlink:title=" ">
<polygon fill="white" stroke="black" points="123.5,-0.5 123.5,-19.5 185.5,-19.5 185.5,-0.5 123.5,-0.5"/>
<text text-anchor="middle" x="154.5" y="-7.5" font-family="Helvetica,sans-Serif" font-size="10.00">Atcf::write</text>
</a>
</g>
</g>
<!-- Node7&#45;&gt;Node8 -->
<g id="edge7" class="edge">
<title>Node7&#45;&gt;Node8</title>
<path fill="none" stroke="midnightblue" d="M239.92,-10C221.53,-10 201.47,-10 185.52,-10"/>
<polygon fill="midnightblue" stroke="midnightblue" points="239.93,-13.5 249.93,-10 239.93,-6.5 239.93,-13.5"/>
</g>
</g>
</svg>
