<?xml version="1.0" encoding="UTF-8" standalone="no"?>
<!DOCTYPE svg PUBLIC "-//W3C//DTD SVG 1.1//EN"
 "http://www.w3.org/Graphics/SVG/1.1/DTD/svg11.dtd">
<!-- Generated by graphviz version 2.47.1 (20210417.1919)
 -->
<!-- Title: setMissingRadiiToHalfOfAverageSpecifiedRadii Pages: 1 -->
<svg width="437pt" height="180pt"
 viewBox="0.00 0.00 437.00 180.00" xmlns="http://www.w3.org/2000/svg" xmlns:xlink="http://www.w3.org/1999/xlink">
<g id="graph0" class="graph" transform="scale(1 1) rotate(0) translate(4 176)">
<title>setMissingRadiiToHalfOfAverageSpecifiedRadii</title>
<polygon fill="white" stroke="transparent" points="-4,4 -4,-176 433,-176 433,4 -4,4"/>
<!-- Node1 -->
<g id="node1" class="node">
<title>Node1</title>
<g id="a_node1"><a xlink:title=" ">
<polygon fill="#bfbfbf" stroke="black" points="0,-71 0,-101 161,-101 161,-71 0,-71"/>
<text text-anchor="start" x="8" y="-89" font-family="Helvetica,sans-Serif" font-size="10.00">setMissingRadiiToHalfOfAverage</text>
<text text-anchor="middle" x="80.5" y="-78" font-family="Helvetica,sans-Serif" font-size="10.00">SpecifiedRadii</text>
</a>
</g>
</g>
<!-- Node2 -->
<g id="node2" class="node">
<title>Node2</title>
<g id="a_node2"><a xlink:href="classAssumptions.html#a20319f7261289f879d667fe91034d503" target="_top" xlink:title=" ">
<polygon fill="white" stroke="black" points="198.5,-152.5 198.5,-171.5 293.5,-171.5 293.5,-152.5 198.5,-152.5"/>
<text text-anchor="middle" x="246" y="-159.5" font-family="Helvetica,sans-Serif" font-size="10.00">Assumptions::add</text>
</a>
</g>
</g>
<!-- Node1&#45;&gt;Node2 -->
<g id="edge1" class="edge">
<title>Node1&#45;&gt;Node2</title>
<path fill="none" stroke="midnightblue" d="M110.62,-101.19C133.79,-113.08 167.16,-129.76 197,-143 201.17,-144.85 205.57,-146.71 209.96,-148.52"/>
<polygon fill="midnightblue" stroke="midnightblue" points="208.85,-151.84 219.43,-152.33 211.46,-145.35 208.85,-151.84"/>
</g>
<!-- Node3 -->
<g id="node3" class="node">
<title>Node3</title>
<g id="a_node3"><a xlink:href="classCircularArray.html#a0642b8def16b83c1fff8f93326d2c842" target="_top" xlink:title=" ">
<polygon fill="white" stroke="black" points="202,-114.5 202,-133.5 290,-133.5 290,-114.5 202,-114.5"/>
<text text-anchor="middle" x="246" y="-121.5" font-family="Helvetica,sans-Serif" font-size="10.00">CircularArray::at</text>
</a>
</g>
</g>
<!-- Node1&#45;&gt;Node3 -->
<g id="edge2" class="edge">
<title>Node1&#45;&gt;Node3</title>
<path fill="none" stroke="midnightblue" d="M146.12,-101.02C161.93,-104.69 178.63,-108.58 193.72,-112.08"/>
<polygon fill="midnightblue" stroke="midnightblue" points="193.35,-115.59 203.88,-114.44 194.93,-108.77 193.35,-115.59"/>
</g>
<!-- Node5 -->
<g id="node5" class="node">
<title>Node5</title>
<g id="a_node5"><a xlink:href="classAtcf.html#a2c3a3d17067e7d0d53018ec96531bd3d" target="_top" xlink:title=" ">
<polygon fill="white" stroke="black" points="224,-76.5 224,-95.5 268,-95.5 268,-76.5 224,-76.5"/>
<text text-anchor="middle" x="246" y="-83.5" font-family="Helvetica,sans-Serif" font-size="10.00">record</text>
</a>
</g>
</g>
<!-- Node1&#45;&gt;Node5 -->
<g id="edge4" class="edge">
<title>Node1&#45;&gt;Node5</title>
<path fill="none" stroke="midnightblue" d="M161.33,-86C179.86,-86 198.52,-86 213.5,-86"/>
<polygon fill="midnightblue" stroke="midnightblue" points="213.7,-89.5 223.7,-86 213.7,-82.5 213.7,-89.5"/>
</g>
<!-- Node6 -->
<g id="node6" class="node">
<title>Node6</title>
<g id="a_node6"><a xlink:href="classCircularArray.html#a43241fcadbf56b0a7c3f7242acf46eed" target="_top" xlink:title=" ">
<polygon fill="white" stroke="black" points="199.5,-38.5 199.5,-57.5 292.5,-57.5 292.5,-38.5 199.5,-38.5"/>
<text text-anchor="middle" x="246" y="-45.5" font-family="Helvetica,sans-Serif" font-size="10.00">CircularArray::set</text>
</a>
</g>
</g>
<!-- Node1&#45;&gt;Node6 -->
<g id="edge5" class="edge">
<title>Node1&#45;&gt;Node6</title>
<path fill="none" stroke="midnightblue" d="M146.12,-70.98C161.93,-67.31 178.63,-63.42 193.72,-59.92"/>
<polygon fill="midnightblue" stroke="midnightblue" points="194.93,-63.23 203.88,-57.56 193.35,-56.41 194.93,-63.23"/>
</g>
<!-- Node7 -->
<g id="node7" class="node">
<title>Node7</title>
<g id="a_node7"><a xlink:href="classCircularArray.html#af837dccb72214bb010abc276fb618c36" target="_top" xlink:title=" ">
<polygon fill="white" stroke="black" points="197,-0.5 197,-19.5 295,-19.5 295,-0.5 197,-0.5"/>
<text text-anchor="middle" x="246" y="-7.5" font-family="Helvetica,sans-Serif" font-size="10.00">CircularArray::size</text>
</a>
</g>
</g>
<!-- Node1&#45;&gt;Node7 -->
<g id="edge7" class="edge">
<title>Node1&#45;&gt;Node7</title>
<path fill="none" stroke="midnightblue" d="M110.62,-70.81C133.79,-58.92 167.16,-42.24 197,-29 201.17,-27.15 205.57,-25.29 209.96,-23.48"/>
<polygon fill="midnightblue" stroke="midnightblue" points="211.46,-26.65 219.43,-19.67 208.85,-20.16 211.46,-26.65"/>
</g>
<!-- Node4 -->
<g id="node4" class="node">
<title>Node4</title>
<g id="a_node4"><a xlink:href="classCircularArray.html#ae9ee07d89dc4196acefc5b290b9275b8" target="_top" xlink:title=" ">
<polygon fill="white" stroke="black" points="331,-71 331,-101 429,-101 429,-71 331,-71"/>
<text text-anchor="start" x="339" y="-89" font-family="Helvetica,sans-Serif" font-size="10.00">CircularArray::mod</text>
<text text-anchor="middle" x="380" y="-78" font-family="Helvetica,sans-Serif" font-size="10.00">_floor</text>
</a>
</g>
</g>
<!-- Node3&#45;&gt;Node4 -->
<g id="edge3" class="edge">
<title>Node3&#45;&gt;Node4</title>
<path fill="none" stroke="midnightblue" d="M280.31,-114.41C292.66,-110.85 307.06,-106.71 320.98,-102.7"/>
<polygon fill="midnightblue" stroke="midnightblue" points="322.35,-105.95 330.99,-99.82 320.41,-99.22 322.35,-105.95"/>
</g>
<!-- Node6&#45;&gt;Node4 -->
<g id="edge6" class="edge">
<title>Node6&#45;&gt;Node4</title>
<path fill="none" stroke="midnightblue" d="M280.31,-57.59C292.66,-61.15 307.06,-65.29 320.98,-69.3"/>
<polygon fill="midnightblue" stroke="midnightblue" points="320.41,-72.78 330.99,-72.18 322.35,-66.05 320.41,-72.78"/>
</g>
</g>
</svg>
