<?xml version="1.0" encoding="UTF-8" standalone="no"?>
<!DOCTYPE svg PUBLIC "-//W3C//DTD SVG 1.1//EN"
 "http://www.w3.org/Graphics/SVG/1.1/DTD/svg11.dtd">
<!-- Generated by graphviz version 2.47.1 (20210417.1919)
 -->
<!-- Title: radiusEarth Pages: 1 -->
<svg width="722pt" height="104pt"
 viewBox="0.00 0.00 722.00 104.00" xmlns="http://www.w3.org/2000/svg" xmlns:xlink="http://www.w3.org/1999/xlink">
<g id="graph0" class="graph" transform="scale(1 1) rotate(0) translate(4 100)">
<title>radiusEarth</title>
<polygon fill="white" stroke="transparent" points="-4,4 -4,-100 718,-100 718,4 -4,4"/>
<!-- Node1 -->
<g id="node1" class="node">
<title>Node1</title>
<g id="a_node1"><a xlink:title=" ">
<polygon fill="#bfbfbf" stroke="black" points="648,-38.5 648,-57.5 714,-57.5 714,-38.5 648,-38.5"/>
<text text-anchor="middle" x="681" y="-45.5" font-family="Helvetica,sans-Serif" font-size="10.00">radiusEarth</text>
</a>
</g>
</g>
<!-- Node2 -->
<g id="node2" class="node">
<title>Node2</title>
<g id="a_node2"><a xlink:href="classPhysical.html#afbb6375214fefd00a0489b5373f480b8" target="_top" xlink:title=" ">
<polygon fill="white" stroke="black" points="526,-76.5 526,-95.5 600,-95.5 600,-76.5 526,-76.5"/>
<text text-anchor="middle" x="563" y="-83.5" font-family="Helvetica,sans-Serif" font-size="10.00">azimuthEarth</text>
</a>
</g>
</g>
<!-- Node1&#45;&gt;Node2 -->
<g id="edge1" class="edge">
<title>Node1&#45;&gt;Node2</title>
<path fill="none" stroke="midnightblue" d="M640.85,-60.83C625.28,-65.92 607.69,-71.69 593.26,-76.41"/>
<polygon fill="midnightblue" stroke="midnightblue" points="642.31,-64.03 650.73,-57.59 640.14,-57.38 642.31,-64.03"/>
</g>
<!-- Node3 -->
<g id="node3" class="node">
<title>Node3</title>
<g id="a_node3"><a xlink:href="classPhysical.html#a46933b0960a506f3532ab42d02b84030" target="_top" xlink:title=" ">
<polygon fill="white" stroke="black" points="514,-38.5 514,-57.5 612,-57.5 612,-38.5 514,-38.5"/>
<text text-anchor="middle" x="563" y="-45.5" font-family="Helvetica,sans-Serif" font-size="10.00">geodesic_distance</text>
</a>
</g>
</g>
<!-- Node1&#45;&gt;Node3 -->
<g id="edge2" class="edge">
<title>Node1&#45;&gt;Node3</title>
<path fill="none" stroke="midnightblue" d="M637.84,-48C629.58,-48 620.86,-48 612.42,-48"/>
<polygon fill="midnightblue" stroke="midnightblue" points="638,-51.5 648,-48 638,-44.5 638,-51.5"/>
</g>
<!-- Node9 -->
<g id="node9" class="node">
<title>Node9</title>
<g id="a_node9"><a xlink:href="classPhysical.html#a9ebd20411025eccc634afb460a75df72" target="_top" xlink:title=" ">
<polygon fill="white" stroke="black" points="530,-0.5 530,-19.5 596,-19.5 596,-0.5 530,-0.5"/>
<text text-anchor="middle" x="563" y="-7.5" font-family="Helvetica,sans-Serif" font-size="10.00">radiusEarth</text>
</a>
</g>
</g>
<!-- Node1&#45;&gt;Node9 -->
<g id="edge8" class="edge">
<title>Node1&#45;&gt;Node9</title>
<path fill="none" stroke="midnightblue" d="M640.85,-35.17C625.28,-30.08 607.69,-24.31 593.26,-19.59"/>
<polygon fill="midnightblue" stroke="midnightblue" points="640.14,-38.62 650.73,-38.41 642.31,-31.97 640.14,-38.62"/>
</g>
<!-- Node4 -->
<g id="node4" class="node">
<title>Node4</title>
<g id="a_node4"><a xlink:href="classPhysical.html#a0d5a798f989b297250dec7184c34840a" target="_top" xlink:title=" ">
<polygon fill="white" stroke="black" points="417.5,-57.5 417.5,-76.5 470.5,-76.5 470.5,-57.5 417.5,-57.5"/>
<text text-anchor="middle" x="444" y="-64.5" font-family="Helvetica,sans-Serif" font-size="10.00">distance</text>
</a>
</g>
</g>
<!-- Node3&#45;&gt;Node4 -->
<g id="edge3" class="edge">
<title>Node3&#45;&gt;Node4</title>
<path fill="none" stroke="midnightblue" d="M503.63,-57.48C492.08,-59.35 480.52,-61.23 470.76,-62.82"/>
<polygon fill="midnightblue" stroke="midnightblue" points="504.43,-60.9 513.74,-55.84 503.3,-53.99 504.43,-60.9"/>
</g>
<!-- Node5 -->
<g id="node5" class="node">
<title>Node5</title>
<g id="a_node5"><a xlink:href="classPhysical.html#ac6d713f1908e7e0538db20f88b34f639" target="_top" xlink:title=" ">
<polygon fill="white" stroke="black" points="410,-19.5 410,-38.5 478,-38.5 478,-19.5 410,-19.5"/>
<text text-anchor="middle" x="444" y="-26.5" font-family="Helvetica,sans-Serif" font-size="10.00">sphericalDx</text>
</a>
</g>
</g>
<!-- Node3&#45;&gt;Node5 -->
<g id="edge4" class="edge">
<title>Node3&#45;&gt;Node5</title>
<path fill="none" stroke="midnightblue" d="M503.84,-38.55C495.03,-37.12 486.2,-35.69 478.17,-34.39"/>
<polygon fill="midnightblue" stroke="midnightblue" points="503.3,-42.01 513.74,-40.16 504.43,-35.1 503.3,-42.01"/>
</g>
<!-- Node6 -->
<g id="node6" class="node">
<title>Node6</title>
<g id="a_node6"><a xlink:href="classAtcf.html#a4fce87a97b674a5bbb54f01a8dd5c55e" target="_top" xlink:title=" ">
<polygon fill="white" stroke="black" points="298,-19.5 298,-38.5 374,-38.5 374,-19.5 298,-19.5"/>
<text text-anchor="middle" x="336" y="-26.5" font-family="Helvetica,sans-Serif" font-size="10.00">Atcf::uvTrans</text>
</a>
</g>
</g>
<!-- Node5&#45;&gt;Node6 -->
<g id="edge5" class="edge">
<title>Node5&#45;&gt;Node6</title>
<path fill="none" stroke="midnightblue" d="M399.67,-29C391.22,-29 382.42,-29 374.19,-29"/>
<polygon fill="midnightblue" stroke="midnightblue" points="399.75,-32.5 409.75,-29 399.75,-25.5 399.75,-32.5"/>
</g>
<!-- Node7 -->
<g id="node7" class="node">
<title>Node7</title>
<g id="a_node7"><a xlink:href="classAtcf.html#a4bec7c75f41a2643be3bccf63921dfa1" target="_top" xlink:title=" ">
<polygon fill="white" stroke="black" points="95,-14 95,-44 262,-44 262,-14 95,-14"/>
<text text-anchor="start" x="103" y="-32" font-family="Helvetica,sans-Serif" font-size="10.00">Atcf::calculateOverlandTranslation</text>
<text text-anchor="middle" x="178.5" y="-21" font-family="Helvetica,sans-Serif" font-size="10.00">Velocity</text>
</a>
</g>
</g>
<!-- Node6&#45;&gt;Node7 -->
<g id="edge6" class="edge">
<title>Node6&#45;&gt;Node7</title>
<path fill="none" stroke="midnightblue" d="M287.72,-29C279.54,-29 270.83,-29 262.04,-29"/>
<polygon fill="midnightblue" stroke="midnightblue" points="287.75,-32.5 297.75,-29 287.75,-25.5 287.75,-32.5"/>
</g>
<!-- Node8 -->
<g id="node8" class="node">
<title>Node8</title>
<g id="a_node8"><a xlink:href="classAtcf.html#aaab5dab5b969a87f538242e524431637" target="_top" xlink:title=" ">
<polygon fill="white" stroke="black" points="0,-19.5 0,-38.5 59,-38.5 59,-19.5 0,-19.5"/>
<text text-anchor="middle" x="29.5" y="-26.5" font-family="Helvetica,sans-Serif" font-size="10.00">Atcf::read</text>
</a>
</g>
</g>
<!-- Node7&#45;&gt;Node8 -->
<g id="edge7" class="edge">
<title>Node7&#45;&gt;Node8</title>
<path fill="none" stroke="midnightblue" d="M84.86,-29C75.67,-29 66.91,-29 59.21,-29"/>
<polygon fill="midnightblue" stroke="midnightblue" points="84.98,-32.5 94.98,-29 84.98,-25.5 84.98,-32.5"/>
</g>
</g>
</svg>
