<?xml version="1.0" encoding="UTF-8" standalone="no"?>
<!DOCTYPE svg PUBLIC "-//W3C//DTD SVG 1.1//EN"
 "http://www.w3.org/Graphics/SVG/1.1/DTD/svg11.dtd">
<!-- Generated by graphviz version 2.47.1 (20210417.1919)
 -->
<!-- Title: calculateRadii Pages: 1 -->
<!--zoomable 258 -->
<svg id="main" version="1.1" xmlns="http://www.w3.org/2000/svg" xmlns:xlink="http://www.w3.org/1999/xlink" xml:space="preserve" onload="init(evt)">
<style type="text/css"><![CDATA[
.edge:hover path { stroke: red; }
.edge:hover polygon { stroke: red; fill: red; }
]]></style>
<script type="text/javascript"><![CDATA[
var edges = document.getElementsByTagName('g');
if (edges && edges.length) {
  for (var i=0;i<edges.length;i++) {
    if (edges[i].id.substr(0,4)=='edge') {
      edges[i].setAttribute('class','edge');
    }
  }
}
]]></script>
        <defs>
                <circle id="rim" cx="0" cy="0" r="7"/>
                <circle id="rim2" cx="0" cy="0" r="3.5"/>
                <g id="zoomPlus">
                        <use xlink:href="#rim" fill="#404040">
                                <set attributeName="fill" to="#808080" begin="zoomplus.mouseover" end="zoomplus.mouseout"/>
                        </use>
                        <path d="M-4,0h8M0,-4v8" fill="none" stroke="white" stroke-width="1.5" pointer-events="none"/>
                </g>
                <g id="zoomMin">
                        <use xlink:href="#rim" fill="#404040">
                                <set attributeName="fill" to="#808080" begin="zoomminus.mouseover" end="zoomminus.mouseout"/>
                        </use>
                        <path d="M-4,0h8" fill="none" stroke="white" stroke-width="1.5" pointer-events="none"/>
                </g>
                <g id="dirArrow">
                        <path fill="none" stroke="white" stroke-width="1.5" d="M0,-3.0v7 M-2.5,-0.5L0,-3.0L2.5,-0.5"/>
                </g>
               <g id="resetDef">
                       <use xlink:href="#rim2" fill="#404040">
                               <set attributeName="fill" to="#808080" begin="reset.mouseover" end="reset.mouseout"/>
                       </use>
               </g>
        </defs>

<script type="text/javascript">
var viewWidth = 556;
var viewHeight = 258;
var sectionId = 'dynsection-4';
</script>
<script xlink:href="svgpan.js"/>
<svg id="graph" class="graph">
<g id="viewport">
<title>calculateRadii</title>
<polygon fill="white" stroke="transparent" points="-4,4 -4,-254 552,-254 552,4 -4,4"/>
<!-- Node1 -->
<g id="node1" class="node">
<title>Node1</title>
<g id="a_node1"><a xlink:title=" ">
<polygon fill="#bfbfbf" stroke="black" points="0,-111.5 0,-130.5 78,-130.5 78,-111.5 0,-111.5"/>
<text text-anchor="middle" x="39" y="-118.5" font-family="Helvetica,sans-Serif" font-size="10.00">calculateRadii</text>
</a>
</g>
</g>
<!-- Node2 -->
<g id="node2" class="node">
<title>Node2</title>
<g id="a_node2"><a xlink:href="classAtcf.html#a2c3a3d17067e7d0d53018ec96531bd3d" target="_top" xlink:title=" ">
<polygon fill="white" stroke="black" points="340.5,-152.5 340.5,-171.5 384.5,-171.5 384.5,-152.5 340.5,-152.5"/>
<text text-anchor="middle" x="362.5" y="-159.5" font-family="Helvetica,sans-Serif" font-size="10.00">record</text>
</a>
</g>
</g>
<!-- Node1&#45;&gt;Node2 -->
<g id="edge1" class="edge">
<title>Node1&#45;&gt;Node2</title>
<path fill="none" stroke="midnightblue" d="M63.23,-130.6C77.6,-136.09 96.57,-142.55 114,-146 190.61,-161.15 282.9,-162.86 330.2,-162.58"/>
<polygon fill="midnightblue" stroke="midnightblue" points="330.44,-166.07 340.4,-162.48 330.37,-159.07 330.44,-166.07"/>
</g>
<!-- Node3 -->
<g id="node3" class="node">
<title>Node3</title>
<g id="a_node3"><a xlink:href="classAtcf.html#a72001443de9ce0ebd8e0c668fe5caf9f" target="_top" xlink:title=" ">
<polygon fill="white" stroke="black" points="144,-193.5 144,-212.5 245,-212.5 245,-193.5 144,-193.5"/>
<text text-anchor="middle" x="194.5" y="-200.5" font-family="Helvetica,sans-Serif" font-size="10.00">setAllRadiiToRmax</text>
</a>
</g>
</g>
<!-- Node1&#45;&gt;Node3 -->
<g id="edge2" class="edge">
<title>Node1&#45;&gt;Node3</title>
<path fill="none" stroke="midnightblue" d="M49.69,-130.57C63.09,-143.31 88.5,-165.76 114,-179 122.64,-183.49 132.26,-187.28 141.73,-190.43"/>
<polygon fill="midnightblue" stroke="midnightblue" points="140.92,-193.84 151.51,-193.48 143,-187.16 140.92,-193.84"/>
</g>
<!-- Node7 -->
<g id="node7" class="node">
<title>Node7</title>
<g id="a_node7"><a xlink:href="classAtcf.html#ab2c3d48d4cd01aa2aef9e02f2a199bb1" target="_top" xlink:title=" ">
<polygon fill="white" stroke="black" points="128,-106 128,-136 261,-136 261,-106 128,-106"/>
<text text-anchor="start" x="136" y="-124" font-family="Helvetica,sans-Serif" font-size="10.00">setMissingRadiiToAverage</text>
<text text-anchor="middle" x="194.5" y="-113" font-family="Helvetica,sans-Serif" font-size="10.00">OfAdjacentRadii</text>
</a>
</g>
</g>
<!-- Node1&#45;&gt;Node7 -->
<g id="edge7" class="edge">
<title>Node1&#45;&gt;Node7</title>
<path fill="none" stroke="midnightblue" d="M78.34,-121C90.3,-121 103.93,-121 117.54,-121"/>
<polygon fill="midnightblue" stroke="midnightblue" points="117.9,-124.5 127.9,-121 117.9,-117.5 117.9,-124.5"/>
</g>
<!-- Node12 -->
<g id="node12" class="node">
<title>Node12</title>
<g id="a_node12"><a xlink:href="classAtcf.html#a0f3511e6d9066da7d7af0fe1aab03f79" target="_top" xlink:title=" ">
<polygon fill="white" stroke="black" points="118.5,-57 118.5,-87 270.5,-87 270.5,-57 118.5,-57"/>
<text text-anchor="start" x="126.5" y="-75" font-family="Helvetica,sans-Serif" font-size="10.00">setMissingRadiiToHalfNonzero</text>
<text text-anchor="middle" x="194.5" y="-64" font-family="Helvetica,sans-Serif" font-size="10.00">Radii</text>
</a>
</g>
</g>
<!-- Node1&#45;&gt;Node12 -->
<g id="edge15" class="edge">
<title>Node1&#45;&gt;Node12</title>
<path fill="none" stroke="midnightblue" d="M69.15,-111.48C82.77,-107.05 99.2,-101.73 114,-97 121.01,-94.76 128.38,-92.42 135.68,-90.12"/>
<polygon fill="midnightblue" stroke="midnightblue" points="137.07,-93.35 145.55,-87 134.96,-86.67 137.07,-93.35"/>
</g>
<!-- Node13 -->
<g id="node13" class="node">
<title>Node13</title>
<g id="a_node13"><a xlink:href="classAtcf.html#aed2ec117307b05eb72dc3e8e06965923" target="_top" xlink:title=" ">
<polygon fill="white" stroke="black" points="114,-8 114,-38 275,-38 275,-8 114,-8"/>
<text text-anchor="start" x="122" y="-26" font-family="Helvetica,sans-Serif" font-size="10.00">setMissingRadiiToHalfOfAverage</text>
<text text-anchor="middle" x="194.5" y="-15" font-family="Helvetica,sans-Serif" font-size="10.00">SpecifiedRadii</text>
</a>
</g>
</g>
<!-- Node1&#45;&gt;Node13 -->
<g id="edge21" class="edge">
<title>Node1&#45;&gt;Node13</title>
<path fill="none" stroke="midnightblue" d="M47.07,-111.32C59.08,-95.55 85,-64.35 114,-47 116.85,-45.3 119.82,-43.71 122.88,-42.22"/>
<polygon fill="midnightblue" stroke="midnightblue" points="124.53,-45.32 132.27,-38.08 121.7,-38.92 124.53,-45.32"/>
</g>
<!-- Node3&#45;&gt;Node2 -->
<g id="edge6" class="edge">
<title>Node3&#45;&gt;Node2</title>
<path fill="none" stroke="midnightblue" d="M234,-193.49C263.39,-186.23 303.34,-176.37 330.64,-169.62"/>
<polygon fill="midnightblue" stroke="midnightblue" points="331.56,-173 340.43,-167.2 329.89,-166.2 331.56,-173"/>
</g>
<!-- Node4 -->
<g id="node4" class="node">
<title>Node4</title>
<g id="a_node4"><a xlink:href="classAssumptions.html#a20319f7261289f879d667fe91034d503" target="_top" xlink:title=" ">
<polygon fill="white" stroke="black" points="315,-114.5 315,-133.5 410,-133.5 410,-114.5 315,-114.5"/>
<text text-anchor="middle" x="362.5" y="-121.5" font-family="Helvetica,sans-Serif" font-size="10.00">Assumptions::add</text>
</a>
</g>
</g>
<!-- Node3&#45;&gt;Node4 -->
<g id="edge3" class="edge">
<title>Node3&#45;&gt;Node4</title>
<path fill="none" stroke="midnightblue" d="M212.41,-193.4C234.64,-180.98 275.09,-159.01 311,-143 315.42,-141.03 320.11,-139.08 324.79,-137.22"/>
<polygon fill="midnightblue" stroke="midnightblue" points="326.19,-140.43 334.26,-133.57 323.67,-133.9 326.19,-140.43"/>
</g>
<!-- Node5 -->
<g id="node5" class="node">
<title>Node5</title>
<g id="a_node5"><a xlink:href="classCircularArray.html#a58421475bd4cf60dfd7af8d01448c6d8" target="_top" xlink:title=" ">
<polygon fill="white" stroke="black" points="311,-192.5 311,-211.5 414,-211.5 414,-192.5 311,-192.5"/>
<text text-anchor="middle" x="362.5" y="-199.5" font-family="Helvetica,sans-Serif" font-size="10.00">CircularArray::begin</text>
</a>
</g>
</g>
<!-- Node3&#45;&gt;Node5 -->
<g id="edge4" class="edge">
<title>Node3&#45;&gt;Node5</title>
<path fill="none" stroke="midnightblue" d="M245.31,-202.7C262.71,-202.6 282.45,-202.48 300.65,-202.37"/>
<polygon fill="midnightblue" stroke="midnightblue" points="300.89,-205.87 310.87,-202.31 300.85,-198.87 300.89,-205.87"/>
</g>
<!-- Node6 -->
<g id="node6" class="node">
<title>Node6</title>
<g id="a_node6"><a xlink:href="classCircularArray.html#aae80d7cf5cd85b47834fb8752d7b1712" target="_top" xlink:title=" ">
<polygon fill="white" stroke="black" points="315,-230.5 315,-249.5 410,-249.5 410,-230.5 315,-230.5"/>
<text text-anchor="middle" x="362.5" y="-237.5" font-family="Helvetica,sans-Serif" font-size="10.00">CircularArray::end</text>
</a>
</g>
</g>
<!-- Node3&#45;&gt;Node6 -->
<g id="edge5" class="edge">
<title>Node3&#45;&gt;Node6</title>
<path fill="none" stroke="midnightblue" d="M238.25,-212.53C259.76,-217.32 286.02,-223.18 308.77,-228.25"/>
<polygon fill="midnightblue" stroke="midnightblue" points="308.09,-231.68 318.61,-230.44 309.61,-224.85 308.09,-231.68"/>
</g>
<!-- Node7&#45;&gt;Node2 -->
<g id="edge11" class="edge">
<title>Node7&#45;&gt;Node2</title>
<path fill="none" stroke="midnightblue" d="M256.37,-136.03C281.54,-142.25 309.64,-149.19 330.46,-154.33"/>
<polygon fill="midnightblue" stroke="midnightblue" points="329.78,-157.77 340.33,-156.77 331.46,-150.98 329.78,-157.77"/>
</g>
<!-- Node7&#45;&gt;Node4 -->
<g id="edge8" class="edge">
<title>Node7&#45;&gt;Node4</title>
<path fill="none" stroke="midnightblue" d="M261.11,-122.19C275.55,-122.45 290.72,-122.72 304.77,-122.97"/>
<polygon fill="midnightblue" stroke="midnightblue" points="304.72,-126.47 314.78,-123.16 304.85,-119.48 304.72,-126.47"/>
</g>
<!-- Node8 -->
<g id="node8" class="node">
<title>Node8</title>
<g id="a_node8"><a xlink:href="classCircularArray.html#a0642b8def16b83c1fff8f93326d2c842" target="_top" xlink:title=" ">
<polygon fill="white" stroke="black" points="318.5,-38.5 318.5,-57.5 406.5,-57.5 406.5,-38.5 318.5,-38.5"/>
<text text-anchor="middle" x="362.5" y="-45.5" font-family="Helvetica,sans-Serif" font-size="10.00">CircularArray::at</text>
</a>
</g>
</g>
<!-- Node7&#45;&gt;Node8 -->
<g id="edge9" class="edge">
<title>Node7&#45;&gt;Node8</title>
<path fill="none" stroke="midnightblue" d="M255.18,-105.87C262.03,-103.3 268.78,-100.35 275,-97 293.34,-87.13 293,-77.48 311,-67 314.41,-65.02 318.06,-63.17 321.79,-61.47"/>
<polygon fill="midnightblue" stroke="midnightblue" points="323.24,-64.66 331.1,-57.55 320.53,-58.2 323.24,-64.66"/>
</g>
<!-- Node10 -->
<g id="node10" class="node">
<title>Node10</title>
<g id="a_node10"><a xlink:href="classCircularArray.html#a43241fcadbf56b0a7c3f7242acf46eed" target="_top" xlink:title=" ">
<polygon fill="white" stroke="black" points="316,-76.5 316,-95.5 409,-95.5 409,-76.5 316,-76.5"/>
<text text-anchor="middle" x="362.5" y="-83.5" font-family="Helvetica,sans-Serif" font-size="10.00">CircularArray::set</text>
</a>
</g>
</g>
<!-- Node7&#45;&gt;Node10 -->
<g id="edge12" class="edge">
<title>Node7&#45;&gt;Node10</title>
<path fill="none" stroke="midnightblue" d="M261.11,-107.17C276.13,-104 291.95,-100.67 306.47,-97.6"/>
<polygon fill="midnightblue" stroke="midnightblue" points="307.23,-101.02 316.29,-95.53 305.78,-94.17 307.23,-101.02"/>
</g>
<!-- Node11 -->
<g id="node11" class="node">
<title>Node11</title>
<g id="a_node11"><a xlink:href="classCircularArray.html#af837dccb72214bb010abc276fb618c36" target="_top" xlink:title=" ">
<polygon fill="white" stroke="black" points="313.5,-0.5 313.5,-19.5 411.5,-19.5 411.5,-0.5 313.5,-0.5"/>
<text text-anchor="middle" x="362.5" y="-7.5" font-family="Helvetica,sans-Serif" font-size="10.00">CircularArray::size</text>
</a>
</g>
</g>
<!-- Node7&#45;&gt;Node11 -->
<g id="edge14" class="edge">
<title>Node7&#45;&gt;Node11</title>
<path fill="none" stroke="midnightblue" d="M261.06,-106C266.04,-103.46 270.77,-100.48 275,-97 301.41,-75.27 285.33,-51.6 311,-29 312.91,-27.32 314.98,-25.78 317.15,-24.38"/>
<polygon fill="midnightblue" stroke="midnightblue" points="318.85,-27.44 325.96,-19.58 315.51,-21.29 318.85,-27.44"/>
</g>
<!-- Node9 -->
<g id="node9" class="node">
<title>Node9</title>
<g id="a_node9"><a xlink:href="classCircularArray.html#ae9ee07d89dc4196acefc5b290b9275b8" target="_top" xlink:title=" ">
<polygon fill="white" stroke="black" points="450,-52 450,-82 548,-82 548,-52 450,-52"/>
<text text-anchor="start" x="458" y="-70" font-family="Helvetica,sans-Serif" font-size="10.00">CircularArray::mod</text>
<text text-anchor="middle" x="499" y="-59" font-family="Helvetica,sans-Serif" font-size="10.00">_floor</text>
</a>
</g>
</g>
<!-- Node8&#45;&gt;Node9 -->
<g id="edge10" class="edge">
<title>Node8&#45;&gt;Node9</title>
<path fill="none" stroke="midnightblue" d="M406.8,-54.12C417.26,-55.59 428.62,-57.2 439.65,-58.76"/>
<polygon fill="midnightblue" stroke="midnightblue" points="439.26,-62.24 449.65,-60.17 440.24,-55.31 439.26,-62.24"/>
</g>
<!-- Node10&#45;&gt;Node9 -->
<g id="edge13" class="edge">
<title>Node10&#45;&gt;Node9</title>
<path fill="none" stroke="midnightblue" d="M409.04,-79.57C418.87,-78.18 429.39,-76.69 439.64,-75.24"/>
<polygon fill="midnightblue" stroke="midnightblue" points="440.34,-78.68 449.75,-73.82 439.36,-71.75 440.34,-78.68"/>
</g>
<!-- Node12&#45;&gt;Node2 -->
<g id="edge18" class="edge">
<title>Node12&#45;&gt;Node2</title>
<path fill="none" stroke="midnightblue" d="M256.77,-87.04C263.19,-89.84 269.41,-93.13 275,-97 296.34,-111.78 290.07,-127.64 311,-143 316.78,-147.25 323.63,-150.65 330.38,-153.34"/>
<polygon fill="midnightblue" stroke="midnightblue" points="329.47,-156.73 340.07,-156.78 331.82,-150.14 329.47,-156.73"/>
</g>
<!-- Node12&#45;&gt;Node4 -->
<g id="edge16" class="edge">
<title>Node12&#45;&gt;Node4</title>
<path fill="none" stroke="midnightblue" d="M243.51,-87.04C268.23,-94.78 298.01,-104.11 321.47,-111.46"/>
<polygon fill="midnightblue" stroke="midnightblue" points="320.52,-114.83 331.11,-114.48 322.61,-108.15 320.52,-114.83"/>
</g>
<!-- Node12&#45;&gt;Node8 -->
<g id="edge17" class="edge">
<title>Node12&#45;&gt;Node8</title>
<path fill="none" stroke="midnightblue" d="M270.73,-61.12C283.34,-59.3 296.18,-57.44 308.09,-55.72"/>
<polygon fill="midnightblue" stroke="midnightblue" points="308.9,-59.14 318.29,-54.25 307.89,-52.21 308.9,-59.14"/>
</g>
<!-- Node12&#45;&gt;Node10 -->
<g id="edge19" class="edge">
<title>Node12&#45;&gt;Node10</title>
<path fill="none" stroke="midnightblue" d="M270.73,-78.34C282.55,-79.34 294.59,-80.36 305.86,-81.31"/>
<polygon fill="midnightblue" stroke="midnightblue" points="305.72,-84.81 315.98,-82.16 306.3,-77.83 305.72,-84.81"/>
</g>
<!-- Node12&#45;&gt;Node11 -->
<g id="edge20" class="edge">
<title>Node12&#45;&gt;Node11</title>
<path fill="none" stroke="midnightblue" d="M247.67,-56.9C256.86,-53.87 266.28,-50.52 275,-47 291.58,-40.3 294.61,-36.16 311,-29 315.49,-27.04 320.24,-25.09 324.98,-23.23"/>
<polygon fill="midnightblue" stroke="midnightblue" points="326.48,-26.4 334.56,-19.55 323.97,-19.86 326.48,-26.4"/>
</g>
<!-- Node13&#45;&gt;Node2 -->
<g id="edge24" class="edge">
<title>Node13&#45;&gt;Node2</title>
<path fill="none" stroke="midnightblue" d="M262.71,-38.07C267.15,-40.6 271.32,-43.55 275,-47 308.26,-78.15 278.8,-110.76 311,-143 316.42,-148.42 323.53,-152.32 330.7,-155.11"/>
<polygon fill="midnightblue" stroke="midnightblue" points="329.77,-158.49 340.36,-158.28 331.95,-151.84 329.77,-158.49"/>
</g>
<!-- Node13&#45;&gt;Node4 -->
<g id="edge22" class="edge">
<title>Node13&#45;&gt;Node4</title>
<path fill="none" stroke="midnightblue" d="M260.41,-38.12C265.59,-40.64 270.54,-43.58 275,-47 299.07,-65.46 287.55,-85.74 311,-105 313.03,-106.66 315.21,-108.19 317.5,-109.59"/>
<polygon fill="midnightblue" stroke="midnightblue" points="316.22,-112.87 326.71,-114.39 319.46,-106.66 316.22,-112.87"/>
</g>
<!-- Node13&#45;&gt;Node8 -->
<g id="edge23" class="edge">
<title>Node13&#45;&gt;Node8</title>
<path fill="none" stroke="midnightblue" d="M275.1,-34.99C286.2,-36.66 297.39,-38.35 307.87,-39.92"/>
<polygon fill="midnightblue" stroke="midnightblue" points="307.66,-43.43 318.07,-41.46 308.71,-36.51 307.66,-43.43"/>
</g>
<!-- Node13&#45;&gt;Node10 -->
<g id="edge25" class="edge">
<title>Node13&#45;&gt;Node10</title>
<path fill="none" stroke="midnightblue" d="M250.79,-38.02C259.01,-40.73 267.3,-43.74 275,-47 291.86,-54.13 294.39,-59.31 311,-67 315.34,-69.01 319.96,-70.97 324.57,-72.83"/>
<polygon fill="midnightblue" stroke="midnightblue" points="323.35,-76.11 333.94,-76.47 325.89,-69.58 323.35,-76.11"/>
</g>
<!-- Node13&#45;&gt;Node11 -->
<g id="edge26" class="edge">
<title>Node13&#45;&gt;Node11</title>
<path fill="none" stroke="midnightblue" d="M275.1,-16.77C284.53,-16.03 294.02,-15.28 303.08,-14.58"/>
<polygon fill="midnightblue" stroke="midnightblue" points="303.4,-18.06 313.1,-13.79 302.86,-11.08 303.4,-18.06"/>
</g>
</g>
</svg>
        <g id="navigator" transform="translate(0 0)" fill="#404254">
                <rect fill="#f2f5e9" fill-opacity="0.5" stroke="#606060" stroke-width=".5" x="0" y="0" width="60" height="60"/>
                <use id="zoomplus" xlink:href="#zoomPlus" x="17" y="9" onmousedown="handleZoom(evt,'in')"/>
                <use id="zoomminus" xlink:href="#zoomMin" x="42" y="9" onmousedown="handleZoom(evt,'out')"/>
                <use id="reset" xlink:href="#resetDef" x="30" y="36" onmousedown="handleReset()"/>
                <g id="arrowUp" xlink:href="#dirArrow" transform="translate(30 24)" onmousedown="handlePan(0,-1)">
                  <use xlink:href="#rim" fill="#404040">
                        <set attributeName="fill" to="#808080" begin="arrowUp.mouseover" end="arrowUp.mouseout"/>
                  </use>
                  <path fill="none" stroke="white" stroke-width="1.5" d="M0,-3.0v7 M-2.5,-0.5L0,-3.0L2.5,-0.5"/>
                </g>
                <g id="arrowRight" xlink:href="#dirArrow" transform="rotate(90) translate(36 -43)" onmousedown="handlePan(1,0)">
                  <use xlink:href="#rim" fill="#404040">
                        <set attributeName="fill" to="#808080" begin="arrowRight.mouseover" end="arrowRight.mouseout"/>
                  </use>
                  <path fill="none" stroke="white" stroke-width="1.5" d="M0,-3.0v7 M-2.5,-0.5L0,-3.0L2.5,-0.5"/>
                </g>
                <g id="arrowDown" xlink:href="#dirArrow" transform="rotate(180) translate(-30 -48)" onmousedown="handlePan(0,1)">
                  <use xlink:href="#rim" fill="#404040">
                        <set attributeName="fill" to="#808080" begin="arrowDown.mouseover" end="arrowDown.mouseout"/>
                  </use>
                  <path fill="none" stroke="white" stroke-width="1.5" d="M0,-3.0v7 M-2.5,-0.5L0,-3.0L2.5,-0.5"/>
                </g>
                <g id="arrowLeft" xlink:href="#dirArrow" transform="rotate(270) translate(-36 17)" onmousedown="handlePan(-1,0)">
                  <use xlink:href="#rim" fill="#404040">
                        <set attributeName="fill" to="#808080" begin="arrowLeft.mouseover" end="arrowLeft.mouseout"/>
                  </use>
                  <path fill="none" stroke="white" stroke-width="1.5" d="M0,-3.0v7 M-2.5,-0.5L0,-3.0L2.5,-0.5"/>
                </g>
        </g>
        <svg viewBox="0 0 15 15" width="100%" height="30px" preserveAspectRatio="xMaxYMin meet">
         <g id="arrow_out" transform="scale(0.3 0.3)">
          <a xlink:href="classAtcf_a4392a7255cda22dc330a996257216c31_cgraph_org.svg" target="_base">
           <rect id="button" ry="5" rx="5" y="6" x="6" height="38" width="38"
                fill="#f2f5e9" fill-opacity="0.5" stroke="#606060" stroke-width="1.0"/>
           <path id="arrow"
             d="M 11.500037,31.436501 C 11.940474,20.09759 22.043105,11.32322 32.158766,21.979434 L 37.068811,17.246167 C 37.068811,17.246167 37.088388,32 37.088388,32 L 22.160133,31.978069 C 22.160133,31.978069 26.997745,27.140456 26.997745,27.140456 C 18.528582,18.264221 13.291696,25.230495 11.500037,31.436501 z"
             style="fill:#404040;"/>
          </a>
         </g>
        </svg>
</svg>
