<?xml version="1.0" encoding="UTF-8" standalone="no"?>
<!DOCTYPE svg PUBLIC "-//W3C//DTD SVG 1.1//EN"
 "http://www.w3.org/Graphics/SVG/1.1/DTD/svg11.dtd">
<!-- Generated by graphviz version 2.47.1 (20210417.1919)
 -->
<!-- Title: computePressureCurveFit Pages: 1 -->
<svg width="760pt" height="218pt"
 viewBox="0.00 0.00 760.00 218.00" xmlns="http://www.w3.org/2000/svg" xmlns:xlink="http://www.w3.org/1999/xlink">
<g id="graph0" class="graph" transform="scale(1 1) rotate(0) translate(4 214)">
<title>computePressureCurveFit</title>
<polygon fill="white" stroke="transparent" points="-4,4 -4,-214 756,-214 756,4 -4,4"/>
<!-- Node1 -->
<g id="node1" class="node">
<title>Node1</title>
<g id="a_node1"><a xlink:title=" ">
<polygon fill="#bfbfbf" stroke="black" points="621,-152.5 621,-171.5 752,-171.5 752,-152.5 621,-152.5"/>
<text text-anchor="middle" x="686.5" y="-159.5" font-family="Helvetica,sans-Serif" font-size="10.00">computePressureCurveFit</text>
</a>
</g>
</g>
<!-- Node2 -->
<g id="node2" class="node">
<title>Node2</title>
<g id="a_node2"><a xlink:href="classHurricanePressure.html#a8fe3b2f4c3f668dde9652e1bce29be6b" target="_top" xlink:title=" ">
<polygon fill="white" stroke="black" points="395.5,-152.5 395.5,-171.5 433.5,-171.5 433.5,-152.5 395.5,-152.5"/>
<text text-anchor="middle" x="414.5" y="-159.5" font-family="Helvetica,sans-Serif" font-size="10.00">ah77</text>
</a>
</g>
</g>
<!-- Node1&#45;&gt;Node2 -->
<g id="edge1" class="edge">
<title>Node1&#45;&gt;Node2</title>
<path fill="none" stroke="midnightblue" d="M610.54,-162C550.02,-162 469.29,-162 433.68,-162"/>
<polygon fill="midnightblue" stroke="midnightblue" points="610.83,-165.5 620.83,-162 610.83,-158.5 610.83,-165.5"/>
</g>
<!-- Node5 -->
<g id="node5" class="node">
<title>Node5</title>
<g id="a_node5"><a xlink:href="classHurricanePressure.html#acb482ff2d606abe160f6a0bb36db82fa" target="_top" xlink:title=" ">
<polygon fill="white" stroke="black" points="533.5,-95.5 533.5,-114.5 579.5,-114.5 579.5,-95.5 533.5,-95.5"/>
<text text-anchor="middle" x="556.5" y="-102.5" font-family="Helvetica,sans-Serif" font-size="10.00">dvorak</text>
</a>
</g>
</g>
<!-- Node1&#45;&gt;Node5 -->
<g id="edge5" class="edge">
<title>Node1&#45;&gt;Node5</title>
<path fill="none" stroke="midnightblue" d="M654.92,-148.38C631.5,-137.95 599.79,-123.83 578.99,-114.57"/>
<polygon fill="midnightblue" stroke="midnightblue" points="653.52,-151.59 664.08,-152.46 656.36,-145.19 653.52,-151.59"/>
</g>
<!-- Node10 -->
<g id="node10" class="node">
<title>Node10</title>
<g id="a_node10"><a xlink:href="classHurricanePressure.html#a75ccc7589e43a81294c756bc6b4f6ba3" target="_top" xlink:title=" ">
<polygon fill="white" stroke="black" points="528,-190.5 528,-209.5 585,-209.5 585,-190.5 528,-190.5"/>
<text text-anchor="middle" x="556.5" y="-197.5" font-family="Helvetica,sans-Serif" font-size="10.00">knaffzehr</text>
</a>
</g>
</g>
<!-- Node1&#45;&gt;Node10 -->
<g id="edge14" class="edge">
<title>Node1&#45;&gt;Node10</title>
<path fill="none" stroke="midnightblue" d="M643.47,-174.48C624.27,-180.18 602.05,-186.77 585.02,-191.83"/>
<polygon fill="midnightblue" stroke="midnightblue" points="644.61,-177.79 653.2,-171.59 642.62,-171.08 644.61,-177.79"/>
</g>
<!-- Node3 -->
<g id="node3" class="node">
<title>Node3</title>
<g id="a_node3"><a xlink:href="classHurricanePressure.html#abd75a10e6f9ef19bfd4296a6c9584f7b" target="_top" xlink:title=" ">
<polygon fill="white" stroke="black" points="185.5,-76.5 185.5,-95.5 244.5,-95.5 244.5,-76.5 185.5,-76.5"/>
<text text-anchor="middle" x="215" y="-83.5" font-family="Helvetica,sans-Serif" font-size="10.00">asgs2012</text>
</a>
</g>
</g>
<!-- Node2&#45;&gt;Node3 -->
<g id="edge2" class="edge">
<title>Node2&#45;&gt;Node3</title>
<path fill="none" stroke="midnightblue" d="M385.71,-151.31C347.12,-136.46 277.9,-109.82 240.91,-95.59"/>
<polygon fill="midnightblue" stroke="midnightblue" points="384.68,-154.66 395.27,-154.99 387.2,-148.13 384.68,-154.66"/>
</g>
<!-- Node4 -->
<g id="node4" class="node">
<title>Node4</title>
<g id="a_node4"><a xlink:href="classHurricanePressure.html#a716f4bb7417738b6ba825432ec75eb2a" target="_top" xlink:title=" ">
<polygon fill="white" stroke="black" points="0,-114.5 0,-133.5 93,-133.5 93,-114.5 0,-114.5"/>
<text text-anchor="middle" x="46.5" y="-121.5" font-family="Helvetica,sans-Serif" font-size="10.00">computePressure</text>
</a>
</g>
</g>
<!-- Node2&#45;&gt;Node4 -->
<g id="edge4" class="edge">
<title>Node2&#45;&gt;Node4</title>
<path fill="none" stroke="midnightblue" d="M385.19,-160.42C333.95,-157.38 222.45,-149.95 129,-138 117.32,-136.51 104.76,-134.53 93.09,-132.54"/>
<polygon fill="midnightblue" stroke="midnightblue" points="385.28,-163.93 395.47,-161.02 385.69,-156.94 385.28,-163.93"/>
</g>
<!-- Node3&#45;&gt;Node4 -->
<g id="edge3" class="edge">
<title>Node3&#45;&gt;Node4</title>
<path fill="none" stroke="midnightblue" d="M175.55,-94.77C149.7,-100.67 115.64,-108.45 89.15,-114.49"/>
<polygon fill="midnightblue" stroke="midnightblue" points="176.41,-98.17 185.38,-92.53 174.85,-91.35 176.41,-98.17"/>
</g>
<!-- Node5&#45;&gt;Node3 -->
<g id="edge6" class="edge">
<title>Node5&#45;&gt;Node3</title>
<path fill="none" stroke="midnightblue" d="M523.28,-103.2C457.38,-99.51 308.07,-91.15 244.99,-87.62"/>
<polygon fill="midnightblue" stroke="midnightblue" points="523.31,-106.7 533.49,-103.77 523.7,-99.71 523.31,-106.7"/>
</g>
<!-- Node5&#45;&gt;Node4 -->
<g id="edge13" class="edge">
<title>Node5&#45;&gt;Node4</title>
<path fill="none" stroke="midnightblue" d="M523.47,-107.82C513.4,-108.62 502.24,-109.44 492,-110 346.49,-118.02 173.91,-121.82 93.28,-123.27"/>
<polygon fill="midnightblue" stroke="midnightblue" points="523.8,-111.3 533.48,-106.99 523.22,-104.33 523.8,-111.3"/>
</g>
<!-- Node6 -->
<g id="node6" class="node">
<title>Node6</title>
<g id="a_node6"><a xlink:href="classHurricanePressure.html#a6e093920e46b7c9326e027f7c17082e2" target="_top" xlink:title=" ">
<polygon fill="white" stroke="black" points="337,-38.5 337,-57.5 492,-57.5 492,-38.5 337,-38.5"/>
<text text-anchor="middle" x="414.5" y="-45.5" font-family="Helvetica,sans-Serif" font-size="10.00">computeInitialPressureEstimate</text>
</a>
</g>
</g>
<!-- Node5&#45;&gt;Node6 -->
<g id="edge7" class="edge">
<title>Node5&#45;&gt;Node6</title>
<path fill="none" stroke="midnightblue" d="M530.19,-90.55C518.75,-84.35 504.92,-77.34 492,-72 478.75,-66.53 463.78,-61.57 450.61,-57.61"/>
<polygon fill="midnightblue" stroke="midnightblue" points="528.72,-93.73 539.17,-95.5 532.1,-87.6 528.72,-93.73"/>
</g>
<!-- Node6&#45;&gt;Node3 -->
<g id="edge8" class="edge">
<title>Node6&#45;&gt;Node3</title>
<path fill="none" stroke="midnightblue" d="M353.96,-59.46C317.81,-66.41 273.29,-74.98 244.77,-80.46"/>
<polygon fill="midnightblue" stroke="midnightblue" points="354.76,-62.87 363.92,-57.54 353.44,-55.99 354.76,-62.87"/>
</g>
<!-- Node7 -->
<g id="node7" class="node">
<title>Node7</title>
<g id="a_node7"><a xlink:href="classAtcf.html#a2c8fb312c911c7d35cc921e303cac875" target="_top" xlink:title=" ">
<polygon fill="white" stroke="black" points="129,-0.5 129,-19.5 301,-19.5 301,-0.5 129,-0.5"/>
<text text-anchor="middle" x="215" y="-7.5" font-family="Helvetica,sans-Serif" font-size="10.00">Atcf::generateMissingPressureData</text>
</a>
</g>
</g>
<!-- Node6&#45;&gt;Node7 -->
<g id="edge9" class="edge">
<title>Node6&#45;&gt;Node7</title>
<path fill="none" stroke="midnightblue" d="M353.79,-36.51C325.61,-31.09 292.37,-24.69 265.6,-19.54"/>
<polygon fill="midnightblue" stroke="midnightblue" points="353.44,-40.01 363.92,-38.46 354.76,-33.13 353.44,-40.01"/>
</g>
<!-- Node9 -->
<g id="node9" class="node">
<title>Node9</title>
<g id="a_node9"><a xlink:href="classHurricanePressure.html#a4916b7f06af118c7c6f471b7a67672fb" target="_top" xlink:title=" ">
<polygon fill="white" stroke="black" points="187,-38.5 187,-57.5 243,-57.5 243,-38.5 187,-38.5"/>
<text text-anchor="middle" x="215" y="-45.5" font-family="Helvetica,sans-Serif" font-size="10.00">twoslope</text>
</a>
</g>
</g>
<!-- Node6&#45;&gt;Node9 -->
<g id="edge11" class="edge">
<title>Node6&#45;&gt;Node9</title>
<path fill="none" stroke="midnightblue" d="M326.72,-48C296.62,-48 265.02,-48 243.31,-48"/>
<polygon fill="midnightblue" stroke="midnightblue" points="326.86,-51.5 336.86,-48 326.86,-44.5 326.86,-51.5"/>
</g>
<!-- Node8 -->
<g id="node8" class="node">
<title>Node8</title>
<g id="a_node8"><a xlink:href="classAtcf.html#aaab5dab5b969a87f538242e524431637" target="_top" xlink:title=" ">
<polygon fill="white" stroke="black" points="17,-0.5 17,-19.5 76,-19.5 76,-0.5 17,-0.5"/>
<text text-anchor="middle" x="46.5" y="-7.5" font-family="Helvetica,sans-Serif" font-size="10.00">Atcf::read</text>
</a>
</g>
</g>
<!-- Node7&#45;&gt;Node8 -->
<g id="edge10" class="edge">
<title>Node7&#45;&gt;Node8</title>
<path fill="none" stroke="midnightblue" d="M118.57,-10C103.1,-10 88.19,-10 76.07,-10"/>
<polygon fill="midnightblue" stroke="midnightblue" points="118.8,-13.5 128.8,-10 118.8,-6.5 118.8,-13.5"/>
</g>
<!-- Node9&#45;&gt;Node4 -->
<g id="edge12" class="edge">
<title>Node9&#45;&gt;Node4</title>
<path fill="none" stroke="midnightblue" d="M176.63,-53.1C161.43,-56 143.95,-60.41 129,-67 101.19,-79.26 73.1,-101.6 58.26,-114.37"/>
<polygon fill="midnightblue" stroke="midnightblue" points="177.49,-56.5 186.73,-51.33 176.28,-49.61 177.49,-56.5"/>
</g>
<!-- Node10&#45;&gt;Node4 -->
<g id="edge15" class="edge">
<title>Node10&#45;&gt;Node4</title>
<path fill="none" stroke="midnightblue" d="M517.35,-200.58C441.85,-200.83 268.64,-196.89 129,-160 105.82,-153.88 80.83,-141.97 64.72,-133.53"/>
<polygon fill="midnightblue" stroke="midnightblue" points="517.78,-204.08 527.76,-200.52 517.74,-197.08 517.78,-204.08"/>
</g>
</g>
</svg>
