<?xml version="1.0" encoding="UTF-8" standalone="no"?>
<!DOCTYPE svg PUBLIC "-//W3C//DTD SVG 1.1//EN"
 "http://www.w3.org/Graphics/SVG/1.1/DTD/svg11.dtd">
<!-- Generated by graphviz version 2.47.1 (20210417.1919)
 -->
<!-- Title: cycloneNumber Pages: 1 -->
<svg width="477pt" height="66pt"
 viewBox="0.00 0.00 477.00 66.00" xmlns="http://www.w3.org/2000/svg" xmlns:xlink="http://www.w3.org/1999/xlink">
<g id="graph0" class="graph" transform="scale(1 1) rotate(0) translate(4 62)">
<title>cycloneNumber</title>
<polygon fill="white" stroke="transparent" points="-4,4 -4,-62 473,-62 473,4 -4,4"/>
<!-- Node1 -->
<g id="node1" class="node">
<title>Node1</title>
<g id="a_node1"><a xlink:title=" ">
<polygon fill="#bfbfbf" stroke="black" points="384,-19.5 384,-38.5 469,-38.5 469,-19.5 384,-19.5"/>
<text text-anchor="middle" x="426.5" y="-26.5" font-family="Helvetica,sans-Serif" font-size="10.00">cycloneNumber</text>
</a>
</g>
</g>
<!-- Node2 -->
<g id="node2" class="node">
<title>Node2</title>
<g id="a_node2"><a xlink:href="classAtcfLine.html#a3554190fe6a66d73743a6aa7407be529" target="_top" xlink:title=" ">
<polygon fill="white" stroke="black" points="95,-38.5 95,-57.5 211,-57.5 211,-38.5 95,-38.5"/>
<text text-anchor="middle" x="153" y="-45.5" font-family="Helvetica,sans-Serif" font-size="10.00">isSameForecastPeriod</text>
</a>
</g>
</g>
<!-- Node1&#45;&gt;Node2 -->
<g id="edge1" class="edge">
<title>Node1&#45;&gt;Node2</title>
<path fill="none" stroke="midnightblue" d="M373.82,-32.62C327.35,-35.87 259.21,-40.64 211.14,-44"/>
<polygon fill="midnightblue" stroke="midnightblue" points="374.24,-36.1 383.97,-31.91 373.75,-29.11 374.24,-36.1"/>
</g>
<!-- Node4 -->
<g id="node4" class="node">
<title>Node4</title>
<g id="a_node4"><a xlink:href="classAtcfLine.html#ae955293026a90f5e5288b507deebdcac" target="_top" xlink:title=" ">
<polygon fill="white" stroke="black" points="247,-0.5 247,-19.5 348,-19.5 348,-0.5 247,-0.5"/>
<text text-anchor="middle" x="297.5" y="-7.5" font-family="Helvetica,sans-Serif" font-size="10.00">setCycloneNumber</text>
</a>
</g>
</g>
<!-- Node1&#45;&gt;Node4 -->
<g id="edge3" class="edge">
<title>Node1&#45;&gt;Node4</title>
<path fill="none" stroke="midnightblue" d="M373.78,-21.26C365.31,-20 356.56,-18.69 348.14,-17.43"/>
<polygon fill="midnightblue" stroke="midnightblue" points="373.51,-24.76 383.92,-22.78 374.54,-17.84 373.51,-24.76"/>
</g>
<!-- Node3 -->
<g id="node3" class="node">
<title>Node3</title>
<g id="a_node3"><a xlink:href="classAtcf.html#aaab5dab5b969a87f538242e524431637" target="_top" xlink:title=" ">
<polygon fill="white" stroke="black" points="0,-19.5 0,-38.5 59,-38.5 59,-19.5 0,-19.5"/>
<text text-anchor="middle" x="29.5" y="-26.5" font-family="Helvetica,sans-Serif" font-size="10.00">Atcf::read</text>
</a>
</g>
</g>
<!-- Node2&#45;&gt;Node3 -->
<g id="edge2" class="edge">
<title>Node2&#45;&gt;Node3</title>
<path fill="none" stroke="midnightblue" d="M84.9,-37.51C75.8,-36.08 66.89,-34.69 59,-33.46"/>
<polygon fill="midnightblue" stroke="midnightblue" points="84.39,-40.97 94.81,-39.06 85.47,-34.05 84.39,-40.97"/>
</g>
<!-- Node5 -->
<g id="node5" class="node">
<title>Node5</title>
<g id="a_node5"><a xlink:href="classAtcfLine.html#a669437f8facd47f46097adc21d0d497b" target="_top" xlink:title=" ">
<polygon fill="white" stroke="black" points="114.5,-0.5 114.5,-19.5 191.5,-19.5 191.5,-0.5 114.5,-0.5"/>
<text text-anchor="middle" x="153" y="-7.5" font-family="Helvetica,sans-Serif" font-size="10.00">parseAtcfLine</text>
</a>
</g>
</g>
<!-- Node4&#45;&gt;Node5 -->
<g id="edge4" class="edge">
<title>Node4&#45;&gt;Node5</title>
<path fill="none" stroke="midnightblue" d="M236.37,-10C221.3,-10 205.55,-10 191.91,-10"/>
<polygon fill="midnightblue" stroke="midnightblue" points="236.66,-13.5 246.66,-10 236.66,-6.5 236.66,-13.5"/>
</g>
<!-- Node5&#45;&gt;Node3 -->
<g id="edge5" class="edge">
<title>Node5&#45;&gt;Node3</title>
<path fill="none" stroke="midnightblue" d="M104,-17.51C88.9,-19.87 72.71,-22.4 59.37,-24.48"/>
<polygon fill="midnightblue" stroke="midnightblue" points="104.88,-20.91 114.22,-15.91 103.8,-13.99 104.88,-20.91"/>
</g>
</g>
</svg>
