<?xml version="1.0" encoding="UTF-8" standalone="no"?>
<!DOCTYPE svg PUBLIC "-//W3C//DTD SVG 1.1//EN"
 "http://www.w3.org/Graphics/SVG/1.1/DTD/svg11.dtd">
<!-- Generated by graphviz version 2.47.1 (20210417.1919)
 -->
<!-- Title: operator+= Pages: 1 -->
<svg width="197pt" height="104pt"
 viewBox="0.00 0.00 197.00 104.00" xmlns="http://www.w3.org/2000/svg" xmlns:xlink="http://www.w3.org/1999/xlink">
<g id="graph0" class="graph" transform="scale(1 1) rotate(0) translate(4 100)">
<title>operator+=</title>
<polygon fill="white" stroke="transparent" points="-4,4 -4,-100 193,-100 193,4 -4,4"/>
<!-- Node1 -->
<g id="node1" class="node">
<title>Node1</title>
<g id="a_node1"><a xlink:title=" ">
<polygon fill="#bfbfbf" stroke="black" points="0,-38.5 0,-57.5 64,-57.5 64,-38.5 0,-38.5"/>
<text text-anchor="middle" x="32" y="-45.5" font-family="Helvetica,sans-Serif" font-size="10.00">operator+=</text>
</a>
</g>
</g>
<!-- Node2 -->
<g id="node2" class="node">
<title>Node2</title>
<g id="a_node2"><a xlink:href="Date_8cpp.html#aa8d9401feb74a00cd0dcb8aaaa247348" target="_top" xlink:title=" ">
<polygon fill="white" stroke="black" points="115,-76.5 115,-95.5 174,-95.5 174,-76.5 115,-76.5"/>
<text text-anchor="middle" x="144.5" y="-83.5" font-family="Helvetica,sans-Serif" font-size="10.00">normalize</text>
</a>
</g>
</g>
<!-- Node1&#45;&gt;Node2 -->
<g id="edge1" class="edge">
<title>Node1&#45;&gt;Node2</title>
<path fill="none" stroke="midnightblue" d="M60.88,-57.59C74.49,-62.27 91.07,-67.97 105.79,-73.03"/>
<polygon fill="midnightblue" stroke="midnightblue" points="105.03,-76.47 115.63,-76.41 107.31,-69.85 105.03,-76.47"/>
</g>
<!-- Node3 -->
<g id="node3" class="node">
<title>Node3</title>
<g id="a_node3"><a xlink:href="classDate.html#ad1762f5051124b0a842e0cd1e94c6237" target="_top" xlink:title=" ">
<polygon fill="white" stroke="black" points="129.5,-38.5 129.5,-57.5 159.5,-57.5 159.5,-38.5 129.5,-38.5"/>
<text text-anchor="middle" x="144.5" y="-45.5" font-family="Helvetica,sans-Serif" font-size="10.00">set</text>
</a>
</g>
</g>
<!-- Node1&#45;&gt;Node3 -->
<g id="edge2" class="edge">
<title>Node1&#45;&gt;Node3</title>
<path fill="none" stroke="midnightblue" d="M64.07,-48C81.5,-48 102.93,-48 119.13,-48"/>
<polygon fill="midnightblue" stroke="midnightblue" points="119.4,-51.5 129.4,-48 119.4,-44.5 119.4,-51.5"/>
</g>
<!-- Node4 -->
<g id="node4" class="node">
<title>Node4</title>
<g id="a_node4"><a xlink:href="structs__datetime.html#a7ac6400eb8d23cc4b988ba5832a72c02" target="_top" xlink:title=" ">
<polygon fill="white" stroke="black" points="100,-0.5 100,-19.5 189,-19.5 189,-0.5 100,-0.5"/>
<text text-anchor="middle" x="144.5" y="-7.5" font-family="Helvetica,sans-Serif" font-size="10.00">s_datetime::ymd</text>
</a>
</g>
</g>
<!-- Node1&#45;&gt;Node4 -->
<g id="edge3" class="edge">
<title>Node1&#45;&gt;Node4</title>
<path fill="none" stroke="midnightblue" d="M60.88,-38.41C74.49,-33.73 91.07,-28.03 105.79,-22.97"/>
<polygon fill="midnightblue" stroke="midnightblue" points="107.31,-26.15 115.63,-19.59 105.03,-19.53 107.31,-26.15"/>
</g>
</g>
</svg>
