<?xml version="1.0" encoding="UTF-8" standalone="no"?>
<!DOCTYPE svg PUBLIC "-//W3C//DTD SVG 1.1//EN"
 "http://www.w3.org/Graphics/SVG/1.1/DTD/svg11.dtd">
<!-- Generated by graphviz version 2.47.1 (20210417.1919)
 -->
<!-- Title: interpolateParameter Pages: 1 -->
<svg width="331pt" height="66pt"
 viewBox="0.00 0.00 331.00 66.00" xmlns="http://www.w3.org/2000/svg" xmlns:xlink="http://www.w3.org/1999/xlink">
<g id="graph0" class="graph" transform="scale(1 1) rotate(0) translate(4 62)">
<title>interpolateParameter</title>
<polygon fill="white" stroke="transparent" points="-4,4 -4,-62 327,-62 327,4 -4,4"/>
<!-- Node1 -->
<g id="node1" class="node">
<title>Node1</title>
<g id="a_node1"><a xlink:title=" ">
<polygon fill="#bfbfbf" stroke="black" points="0,-19.5 0,-38.5 107,-38.5 107,-19.5 0,-19.5"/>
<text text-anchor="middle" x="53.5" y="-26.5" font-family="Helvetica,sans-Serif" font-size="10.00">interpolateParameter</text>
</a>
</g>
</g>
<!-- Node2 -->
<g id="node2" class="node">
<title>Node2</title>
<g id="a_node2"><a xlink:href="classVortex.html#ad32c573698fbb788efee81699e65e624" target="_top" xlink:title=" ">
<polygon fill="white" stroke="black" points="143,-19.5 143,-38.5 195,-38.5 195,-19.5 143,-19.5"/>
<text text-anchor="middle" x="169" y="-26.5" font-family="Helvetica,sans-Serif" font-size="10.00">spInterp</text>
</a>
</g>
</g>
<!-- Node1&#45;&gt;Node2 -->
<g id="edge1" class="edge">
<title>Node1&#45;&gt;Node2</title>
<path fill="none" stroke="midnightblue" d="M107.26,-29C115.88,-29 124.61,-29 132.67,-29"/>
<polygon fill="midnightblue" stroke="midnightblue" points="132.82,-32.5 142.82,-29 132.82,-25.5 132.82,-32.5"/>
</g>
<!-- Node3 -->
<g id="node3" class="node">
<title>Node3</title>
<g id="a_node3"><a xlink:href="classVortex.html#ac6cc0dffbc1abd13fc6b212cf701a464" target="_top" xlink:title=" ">
<polygon fill="white" stroke="black" points="231,-38.5 231,-57.5 323,-57.5 323,-38.5 231,-38.5"/>
<text text-anchor="middle" x="277" y="-45.5" font-family="Helvetica,sans-Serif" font-size="10.00">getBaseQuadrant</text>
</a>
</g>
</g>
<!-- Node2&#45;&gt;Node3 -->
<g id="edge2" class="edge">
<title>Node2&#45;&gt;Node3</title>
<path fill="none" stroke="midnightblue" d="M195.12,-33.5C202.86,-34.89 211.71,-36.48 220.65,-38.08"/>
<polygon fill="midnightblue" stroke="midnightblue" points="220.26,-41.56 230.72,-39.88 221.5,-34.67 220.26,-41.56"/>
</g>
<!-- Node4 -->
<g id="node4" class="node">
<title>Node4</title>
<g id="a_node4"><a xlink:href="classVortex.html#a7dd6dceb1f90086d5b214607b79d7816" target="_top" xlink:title=" ">
<polygon fill="white" stroke="black" points="253,-0.5 253,-19.5 301,-19.5 301,-0.5 253,-0.5"/>
<text text-anchor="middle" x="277" y="-7.5" font-family="Helvetica,sans-Serif" font-size="10.00">interpR</text>
</a>
</g>
</g>
<!-- Node2&#45;&gt;Node4 -->
<g id="edge3" class="edge">
<title>Node2&#45;&gt;Node4</title>
<path fill="none" stroke="midnightblue" d="M195.12,-24.5C209.35,-21.95 227.32,-18.73 242.71,-15.97"/>
<polygon fill="midnightblue" stroke="midnightblue" points="243.65,-19.36 252.87,-14.15 242.41,-12.47 243.65,-19.36"/>
</g>
</g>
</svg>
