<?xml version="1.0" encoding="UTF-8" standalone="no"?>
<!DOCTYPE svg PUBLIC "-//W3C//DTD SVG 1.1//EN"
 "http://www.w3.org/Graphics/SVG/1.1/DTD/svg11.dtd">
<!-- Generated by graphviz version 2.47.1 (20210417.1919)
 -->
<!-- Title: asgs2012 Pages: 1 -->
<svg width="507pt" height="83pt"
 viewBox="0.00 0.00 507.00 82.82" xmlns="http://www.w3.org/2000/svg" xmlns:xlink="http://www.w3.org/1999/xlink">
<g id="graph0" class="graph" transform="scale(1 1) rotate(0) translate(4 78.82)">
<title>asgs2012</title>
<polygon fill="white" stroke="transparent" points="-4,4 -4,-78.82 503,-78.82 503,4 -4,4"/>
<!-- Node1 -->
<g id="node1" class="node">
<title>Node1</title>
<g id="a_node1"><a xlink:title=" ">
<polygon fill="#bfbfbf" stroke="black" points="0,-17.32 0,-36.32 59,-36.32 59,-17.32 0,-17.32"/>
<text text-anchor="middle" x="29.5" y="-24.32" font-family="Helvetica,sans-Serif" font-size="10.00">asgs2012</text>
</a>
</g>
</g>
<!-- Node2 -->
<g id="node2" class="node">
<title>Node2</title>
<g id="a_node2"><a xlink:href="classHurricanePressure.html#a8fe3b2f4c3f668dde9652e1bce29be6b" target="_top" xlink:title=" ">
<polygon fill="white" stroke="black" points="290,-55.32 290,-74.32 328,-74.32 328,-55.32 290,-55.32"/>
<text text-anchor="middle" x="309" y="-62.32" font-family="Helvetica,sans-Serif" font-size="10.00">ah77</text>
</a>
</g>
</g>
<!-- Node1&#45;&gt;Node2 -->
<g id="edge1" class="edge">
<title>Node1&#45;&gt;Node2</title>
<path fill="none" stroke="midnightblue" d="M58.46,-36.37C69.7,-39.86 82.84,-43.51 95,-45.82 160.46,-58.26 238.82,-62.6 279.82,-64.08"/>
<polygon fill="midnightblue" stroke="midnightblue" points="279.77,-67.58 289.88,-64.41 280,-60.58 279.77,-67.58"/>
</g>
<!-- Node4 -->
<g id="node4" class="node">
<title>Node4</title>
<g id="a_node4"><a xlink:href="classHurricanePressure.html#a6e093920e46b7c9326e027f7c17082e2" target="_top" xlink:title=" ">
<polygon fill="white" stroke="black" points="95,-17.32 95,-36.32 250,-36.32 250,-17.32 95,-17.32"/>
<text text-anchor="middle" x="172.5" y="-24.32" font-family="Helvetica,sans-Serif" font-size="10.00">computeInitialPressureEstimate</text>
</a>
</g>
</g>
<!-- Node1&#45;&gt;Node4 -->
<g id="edge3" class="edge">
<title>Node1&#45;&gt;Node4</title>
<path fill="none" stroke="midnightblue" d="M59.03,-26.82C66.77,-26.82 75.58,-26.82 84.77,-26.82"/>
<polygon fill="midnightblue" stroke="midnightblue" points="84.87,-30.32 94.87,-26.82 84.87,-23.32 84.87,-30.32"/>
</g>
<!-- Node5 -->
<g id="node5" class="node">
<title>Node5</title>
<g id="a_node5"><a xlink:href="classHurricanePressure.html#acb482ff2d606abe160f6a0bb36db82fa" target="_top" xlink:title=" ">
<polygon fill="white" stroke="black" points="286,-17.32 286,-36.32 332,-36.32 332,-17.32 286,-17.32"/>
<text text-anchor="middle" x="309" y="-24.32" font-family="Helvetica,sans-Serif" font-size="10.00">dvorak</text>
</a>
</g>
</g>
<!-- Node1&#45;&gt;Node5 -->
<g id="edge6" class="edge">
<title>Node1&#45;&gt;Node5</title>
<path fill="none" stroke="midnightblue" d="M56.48,-17.32C68.1,-13.56 82.06,-9.69 95,-7.82 163.18,2.01 181.97,3.03 250,-7.82 258.72,-9.22 267.92,-11.72 276.35,-14.46"/>
<polygon fill="midnightblue" stroke="midnightblue" points="275.23,-17.77 285.82,-17.73 277.52,-11.16 275.23,-17.77"/>
</g>
<!-- Node3 -->
<g id="node3" class="node">
<title>Node3</title>
<g id="a_node3"><a xlink:href="classHurricanePressure.html#aa362d792f8129556a6ade346136f4a3d" target="_top" xlink:title=" ">
<polygon fill="white" stroke="black" points="368,-36.32 368,-55.32 499,-55.32 499,-36.32 368,-36.32"/>
<text text-anchor="middle" x="433.5" y="-43.32" font-family="Helvetica,sans-Serif" font-size="10.00">computePressureCurveFit</text>
</a>
</g>
</g>
<!-- Node2&#45;&gt;Node3 -->
<g id="edge2" class="edge">
<title>Node2&#45;&gt;Node3</title>
<path fill="none" stroke="midnightblue" d="M328.08,-62.02C337.21,-60.6 348.96,-58.78 361.26,-56.87"/>
<polygon fill="midnightblue" stroke="midnightblue" points="361.85,-60.32 371.2,-55.33 360.78,-53.41 361.85,-60.32"/>
</g>
<!-- Node4&#45;&gt;Node5 -->
<g id="edge4" class="edge">
<title>Node4&#45;&gt;Node5</title>
<path fill="none" stroke="midnightblue" d="M250.18,-26.82C259.18,-26.82 267.96,-26.82 275.84,-26.82"/>
<polygon fill="midnightblue" stroke="midnightblue" points="275.97,-30.32 285.97,-26.82 275.97,-23.32 275.97,-30.32"/>
</g>
<!-- Node5&#45;&gt;Node3 -->
<g id="edge5" class="edge">
<title>Node5&#45;&gt;Node3</title>
<path fill="none" stroke="midnightblue" d="M332.18,-30.26C340.54,-31.56 350.57,-33.12 361,-34.73"/>
<polygon fill="midnightblue" stroke="midnightblue" points="360.67,-38.23 371.09,-36.3 361.75,-31.31 360.67,-38.23"/>
</g>
</g>
</svg>
