<?xml version="1.0" encoding="UTF-8" standalone="no"?>
<!DOCTYPE svg PUBLIC "-//W3C//DTD SVG 1.1//EN"
 "http://www.w3.org/Graphics/SVG/1.1/DTD/svg11.dtd">
<!-- Generated by graphviz version 2.47.1 (20210417.1919)
 -->
<!-- Title: write Pages: 1 -->
<svg width="343pt" height="180pt"
 viewBox="0.00 0.00 343.00 180.00" xmlns="http://www.w3.org/2000/svg" xmlns:xlink="http://www.w3.org/1999/xlink">
<g id="graph0" class="graph" transform="scale(1 1) rotate(0) translate(4 176)">
<title>write</title>
<polygon fill="white" stroke="transparent" points="-4,4 -4,-176 339,-176 339,4 -4,4"/>
<!-- Node1 -->
<g id="node1" class="node">
<title>Node1</title>
<g id="a_node1"><a xlink:title=" ">
<polygon fill="#bfbfbf" stroke="black" points="0,-76.5 0,-95.5 38,-95.5 38,-76.5 0,-76.5"/>
<text text-anchor="middle" x="19" y="-83.5" font-family="Helvetica,sans-Serif" font-size="10.00">write</text>
</a>
</g>
</g>
<!-- Node2 -->
<g id="node2" class="node">
<title>Node2</title>
<g id="a_node2"><a xlink:href="namespacePhysical.html#aef0a2db6b310233825b6791ff8e67050" target="_top" xlink:title=" ">
<polygon fill="white" stroke="black" points="74,-152.5 74,-171.5 223,-171.5 223,-152.5 74,-152.5"/>
<text text-anchor="middle" x="148.5" y="-159.5" font-family="Helvetica,sans-Serif" font-size="10.00">Physical::backgroundPressure</text>
</a>
</g>
</g>
<!-- Node1&#45;&gt;Node2 -->
<g id="edge1" class="edge">
<title>Node1&#45;&gt;Node2</title>
<path fill="none" stroke="midnightblue" d="M26.47,-95.65C35.56,-108.44 53.33,-130.82 74,-143 77.7,-145.18 81.66,-147.12 85.74,-148.83"/>
<polygon fill="midnightblue" stroke="midnightblue" points="84.83,-152.23 95.43,-152.45 87.28,-145.68 84.83,-152.23"/>
</g>
<!-- Node3 -->
<g id="node3" class="node">
<title>Node3</title>
<g id="a_node3"><a xlink:href="classAtcf.html#a94c732bb0f167eab349228237a8fbe3c" target="_top" xlink:title=" ">
<polygon fill="white" stroke="black" points="122,-114.5 122,-133.5 175,-133.5 175,-114.5 122,-114.5"/>
<text text-anchor="middle" x="148.5" y="-121.5" font-family="Helvetica,sans-Serif" font-size="10.00">filename</text>
</a>
</g>
</g>
<!-- Node1&#45;&gt;Node3 -->
<g id="edge2" class="edge">
<title>Node1&#45;&gt;Node3</title>
<path fill="none" stroke="midnightblue" d="M38.37,-92.9C48.75,-96.69 62.02,-101.35 74,-105 86.31,-108.75 99.93,-112.4 112.06,-115.49"/>
<polygon fill="midnightblue" stroke="midnightblue" points="111.29,-118.9 121.84,-117.94 112.99,-112.11 111.29,-118.9"/>
</g>
<!-- Node4 -->
<g id="node4" class="node">
<title>Node4</title>
<g id="a_node4"><a xlink:href="namespacePhysical.html#a4a42ec86e2054ee5fdcfbef26042513b" target="_top" xlink:title=" ">
<polygon fill="white" stroke="black" points="101,-76.5 101,-95.5 196,-95.5 196,-76.5 101,-76.5"/>
<text text-anchor="middle" x="148.5" y="-83.5" font-family="Helvetica,sans-Serif" font-size="10.00">Physical::km2nmi</text>
</a>
</g>
</g>
<!-- Node1&#45;&gt;Node4 -->
<g id="edge3" class="edge">
<title>Node1&#45;&gt;Node4</title>
<path fill="none" stroke="midnightblue" d="M38.27,-86C52.1,-86 71.9,-86 90.84,-86"/>
<polygon fill="midnightblue" stroke="midnightblue" points="90.94,-89.5 100.94,-86 90.94,-82.5 90.94,-89.5"/>
</g>
<!-- Node5 -->
<g id="node5" class="node">
<title>Node5</title>
<g id="a_node5"><a xlink:href="namespacePhysical.html#ac3ebcf4f7617c5c5a57bc9bd2b95e0db" target="_top" xlink:title=" ">
<polygon fill="white" stroke="black" points="105,-38.5 105,-57.5 192,-57.5 192,-38.5 105,-38.5"/>
<text text-anchor="middle" x="148.5" y="-45.5" font-family="Helvetica,sans-Serif" font-size="10.00">Physical::ms2kt</text>
</a>
</g>
</g>
<!-- Node1&#45;&gt;Node5 -->
<g id="edge4" class="edge">
<title>Node1&#45;&gt;Node5</title>
<path fill="none" stroke="midnightblue" d="M38.37,-79.1C48.75,-75.31 62.02,-70.65 74,-67 81.8,-64.62 90.12,-62.29 98.25,-60.11"/>
<polygon fill="midnightblue" stroke="midnightblue" points="99.26,-63.47 108.04,-57.54 97.48,-56.7 99.26,-63.47"/>
</g>
<!-- Node6 -->
<g id="node6" class="node">
<title>Node6</title>
<g id="a_node6"><a xlink:href="classIsotach.html#a107f943d740f337a47238f2265924174" target="_top" xlink:title=" ">
<polygon fill="white" stroke="black" points="86,-0.5 86,-19.5 211,-19.5 211,-0.5 86,-0.5"/>
<text text-anchor="middle" x="148.5" y="-7.5" font-family="Helvetica,sans-Serif" font-size="10.00">Isotach::stringFromCode</text>
</a>
</g>
</g>
<!-- Node1&#45;&gt;Node6 -->
<g id="edge5" class="edge">
<title>Node1&#45;&gt;Node6</title>
<path fill="none" stroke="midnightblue" d="M26.47,-76.35C35.56,-63.56 53.33,-41.18 74,-29 77.7,-26.82 81.66,-24.88 85.74,-23.17"/>
<polygon fill="midnightblue" stroke="midnightblue" points="87.28,-26.32 95.43,-19.55 84.83,-19.77 87.28,-26.32"/>
</g>
<!-- Node7 -->
<g id="node7" class="node">
<title>Node7</title>
<g id="a_node7"><a xlink:href="classIsotach.html#a60ce77aeb249510471495cc63a7793da" target="_top" xlink:title=" ">
<polygon fill="white" stroke="black" points="259,-0.5 259,-19.5 335,-19.5 335,-0.5 259,-0.5"/>
<text text-anchor="middle" x="297" y="-7.5" font-family="Helvetica,sans-Serif" font-size="10.00">Isotach::code</text>
</a>
</g>
</g>
<!-- Node6&#45;&gt;Node7 -->
<g id="edge6" class="edge">
<title>Node6&#45;&gt;Node7</title>
<path fill="none" stroke="midnightblue" d="M211.2,-10C223.66,-10 236.58,-10 248.46,-10"/>
<polygon fill="midnightblue" stroke="midnightblue" points="248.6,-13.5 258.6,-10 248.6,-6.5 248.6,-13.5"/>
</g>
</g>
</svg>
