<?xml version="1.0" encoding="UTF-8" standalone="no"?>
<!DOCTYPE svg PUBLIC "-//W3C//DTD SVG 1.1//EN"
 "http://www.w3.org/Graphics/SVG/1.1/DTD/svg11.dtd">
<!-- Generated by graphviz version 2.47.1 (20210417.1919)
 -->
<!-- Title: radiusEarth Pages: 1 -->
<svg width="264pt" height="104pt"
 viewBox="0.00 0.00 264.00 104.00" xmlns="http://www.w3.org/2000/svg" xmlns:xlink="http://www.w3.org/1999/xlink">
<g id="graph0" class="graph" transform="scale(1 1) rotate(0) translate(4 100)">
<title>radiusEarth</title>
<polygon fill="white" stroke="transparent" points="-4,4 -4,-100 260,-100 260,4 -4,4"/>
<!-- Node1 -->
<g id="node1" class="node">
<title>Node1</title>
<g id="a_node1"><a xlink:title=" ">
<polygon fill="#bfbfbf" stroke="black" points="0,-38.5 0,-57.5 66,-57.5 66,-38.5 0,-38.5"/>
<text text-anchor="middle" x="33" y="-45.5" font-family="Helvetica,sans-Serif" font-size="10.00">radiusEarth</text>
</a>
</g>
</g>
<!-- Node2 -->
<g id="node2" class="node">
<title>Node2</title>
<g id="a_node2"><a xlink:href="classPhysical.html#ae43063ac7bf556cb933a0206301b9748" target="_top" xlink:title=" ">
<polygon fill="white" stroke="black" points="121,-76.5 121,-95.5 172,-95.5 172,-76.5 121,-76.5"/>
<text text-anchor="middle" x="146.5" y="-83.5" font-family="Helvetica,sans-Serif" font-size="10.00">deg2rad</text>
</a>
</g>
</g>
<!-- Node1&#45;&gt;Node2 -->
<g id="edge1" class="edge">
<title>Node1&#45;&gt;Node2</title>
<path fill="none" stroke="midnightblue" d="M62.14,-57.59C76.95,-62.64 95.25,-68.88 110.93,-74.22"/>
<polygon fill="midnightblue" stroke="midnightblue" points="110.19,-77.67 120.79,-77.58 112.45,-71.04 110.19,-77.67"/>
</g>
<!-- Node4 -->
<g id="node4" class="node">
<title>Node4</title>
<g id="a_node4"><a xlink:href="classPhysical.html#af1acc32bfbde7fb61a53d9e5d33c4699" target="_top" xlink:title=" ">
<polygon fill="white" stroke="black" points="102,-38.5 102,-57.5 191,-57.5 191,-38.5 102,-38.5"/>
<text text-anchor="middle" x="146.5" y="-45.5" font-family="Helvetica,sans-Serif" font-size="10.00">equatorialRadius</text>
</a>
</g>
</g>
<!-- Node1&#45;&gt;Node4 -->
<g id="edge3" class="edge">
<title>Node1&#45;&gt;Node4</title>
<path fill="none" stroke="midnightblue" d="M66.25,-48C74.2,-48 82.93,-48 91.61,-48"/>
<polygon fill="midnightblue" stroke="midnightblue" points="91.71,-51.5 101.71,-48 91.71,-44.5 91.71,-51.5"/>
</g>
<!-- Node5 -->
<g id="node5" class="node">
<title>Node5</title>
<g id="a_node5"><a xlink:href="classPhysical.html#a1b684ff37a85f7e328c6b027ee95bc10" target="_top" xlink:title=" ">
<polygon fill="white" stroke="black" points="112.5,-0.5 112.5,-19.5 180.5,-19.5 180.5,-0.5 112.5,-0.5"/>
<text text-anchor="middle" x="146.5" y="-7.5" font-family="Helvetica,sans-Serif" font-size="10.00">polarRadius</text>
</a>
</g>
</g>
<!-- Node1&#45;&gt;Node5 -->
<g id="edge4" class="edge">
<title>Node1&#45;&gt;Node5</title>
<path fill="none" stroke="midnightblue" d="M62.14,-38.41C76,-33.69 92.92,-27.92 107.88,-22.82"/>
<polygon fill="midnightblue" stroke="midnightblue" points="109.04,-26.12 117.37,-19.59 106.78,-19.5 109.04,-26.12"/>
</g>
<!-- Node3 -->
<g id="node3" class="node">
<title>Node3</title>
<g id="a_node3"><a xlink:href="classPhysical.html#a8916e00cc71692658a0a355b2f142274" target="_top" xlink:title=" ">
<polygon fill="white" stroke="black" points="227,-76.5 227,-95.5 256,-95.5 256,-76.5 227,-76.5"/>
<text text-anchor="middle" x="241.5" y="-83.5" font-family="Helvetica,sans-Serif" font-size="10.00">pi</text>
</a>
</g>
</g>
<!-- Node2&#45;&gt;Node3 -->
<g id="edge2" class="edge">
<title>Node2&#45;&gt;Node3</title>
<path fill="none" stroke="midnightblue" d="M172.42,-86C186.18,-86 203.17,-86 216.74,-86"/>
<polygon fill="midnightblue" stroke="midnightblue" points="216.76,-89.5 226.76,-86 216.76,-82.5 216.76,-89.5"/>
</g>
</g>
</svg>
