<?xml version="1.0" encoding="UTF-8" standalone="no"?>
<!DOCTYPE svg PUBLIC "-//W3C//DTD SVG 1.1//EN"
 "http://www.w3.org/Graphics/SVG/1.1/DTD/svg11.dtd">
<!-- Generated by graphviz version 2.47.1 (20210417.1919)
 -->
<!-- Title: setMinute Pages: 1 -->
<svg width="341pt" height="256pt"
 viewBox="0.00 0.00 341.00 256.00" xmlns="http://www.w3.org/2000/svg" xmlns:xlink="http://www.w3.org/1999/xlink">
<g id="graph0" class="graph" transform="scale(1 1) rotate(0) translate(4 252)">
<title>setMinute</title>
<polygon fill="white" stroke="transparent" points="-4,4 -4,-252 337,-252 337,4 -4,4"/>
<!-- Node1 -->
<g id="node1" class="node">
<title>Node1</title>
<g id="a_node1"><a xlink:title=" ">
<polygon fill="#bfbfbf" stroke="black" points="0,-114.5 0,-133.5 59,-133.5 59,-114.5 0,-114.5"/>
<text text-anchor="middle" x="29.5" y="-121.5" font-family="Helvetica,sans-Serif" font-size="10.00">setMinute</text>
</a>
</g>
</g>
<!-- Node2 -->
<g id="node2" class="node">
<title>Node2</title>
<g id="a_node2"><a xlink:href="structs__datetime.html#a5a496ea2e6017fd4b43081f4317f96ce" target="_top" xlink:title=" ">
<polygon fill="white" stroke="black" points="103,-228.5 103,-247.5 189,-247.5 189,-228.5 103,-228.5"/>
<text text-anchor="middle" x="146" y="-235.5" font-family="Helvetica,sans-Serif" font-size="10.00">s_datetime::day</text>
</a>
</g>
</g>
<!-- Node1&#45;&gt;Node2 -->
<g id="edge1" class="edge">
<title>Node1&#45;&gt;Node2</title>
<path fill="none" stroke="midnightblue" d="M34.55,-133.51C43.04,-152.39 64.5,-194.9 95,-219 97.25,-220.78 99.69,-222.41 102.24,-223.9"/>
<polygon fill="midnightblue" stroke="midnightblue" points="100.7,-227.04 111.2,-228.42 103.85,-220.79 100.7,-227.04"/>
</g>
<!-- Node3 -->
<g id="node3" class="node">
<title>Node3</title>
<g id="a_node3"><a xlink:href="structs__datetime.html#a110d566ff7f9edf7cbfe15355f8c637c" target="_top" xlink:title=" ">
<polygon fill="white" stroke="black" points="101.5,-190.5 101.5,-209.5 190.5,-209.5 190.5,-190.5 101.5,-190.5"/>
<text text-anchor="middle" x="146" y="-197.5" font-family="Helvetica,sans-Serif" font-size="10.00">s_datetime::hour</text>
</a>
</g>
</g>
<!-- Node1&#45;&gt;Node3 -->
<g id="edge2" class="edge">
<title>Node1&#45;&gt;Node3</title>
<path fill="none" stroke="midnightblue" d="M39.26,-133.66C50.94,-146.05 72.74,-167.55 95,-181 98.21,-182.94 101.65,-184.74 105.17,-186.39"/>
<polygon fill="midnightblue" stroke="midnightblue" points="103.99,-189.7 114.56,-190.44 106.76,-183.27 103.99,-189.7"/>
</g>
<!-- Node4 -->
<g id="node4" class="node">
<title>Node4</title>
<g id="a_node4"><a xlink:href="classDate.html#abf8dbbfc49f4fa14c1caee03c29125f1" target="_top" xlink:title=" ">
<polygon fill="white" stroke="black" points="123,-152.5 123,-171.5 169,-171.5 169,-152.5 123,-152.5"/>
<text text-anchor="middle" x="146" y="-159.5" font-family="Helvetica,sans-Serif" font-size="10.00">minute</text>
</a>
</g>
</g>
<!-- Node1&#45;&gt;Node4 -->
<g id="edge3" class="edge">
<title>Node1&#45;&gt;Node4</title>
<path fill="none" stroke="midnightblue" d="M59.1,-133.49C75.6,-138.97 96.38,-145.86 113.37,-151.5"/>
<polygon fill="midnightblue" stroke="midnightblue" points="112.28,-154.83 122.87,-154.66 114.48,-148.18 112.28,-154.83"/>
</g>
<!-- Node6 -->
<g id="node6" class="node">
<title>Node6</title>
<g id="a_node6"><a xlink:href="structs__datetime.html#a1d85d7b09eedec3fb734532c164f2f27" target="_top" xlink:title=" ">
<polygon fill="white" stroke="black" points="97,-114.5 97,-133.5 195,-133.5 195,-114.5 97,-114.5"/>
<text text-anchor="middle" x="146" y="-121.5" font-family="Helvetica,sans-Serif" font-size="10.00">s_datetime::month</text>
</a>
</g>
</g>
<!-- Node1&#45;&gt;Node6 -->
<g id="edge5" class="edge">
<title>Node1&#45;&gt;Node6</title>
<path fill="none" stroke="midnightblue" d="M59.1,-124C67.46,-124 76.93,-124 86.45,-124"/>
<polygon fill="midnightblue" stroke="midnightblue" points="86.74,-127.5 96.74,-124 86.74,-120.5 86.74,-127.5"/>
</g>
<!-- Node7 -->
<g id="node7" class="node">
<title>Node7</title>
<g id="a_node7"><a xlink:href="structs__datetime.html#aa0cba22e21d8081f564e6a68edab1ae0" target="_top" xlink:title=" ">
<polygon fill="white" stroke="black" points="95,-76.5 95,-95.5 197,-95.5 197,-76.5 95,-76.5"/>
<text text-anchor="middle" x="146" y="-83.5" font-family="Helvetica,sans-Serif" font-size="10.00">s_datetime::second</text>
</a>
</g>
</g>
<!-- Node1&#45;&gt;Node7 -->
<g id="edge6" class="edge">
<title>Node1&#45;&gt;Node7</title>
<path fill="none" stroke="midnightblue" d="M59.1,-114.51C73.44,-109.75 91.02,-103.91 106.53,-98.77"/>
<polygon fill="midnightblue" stroke="midnightblue" points="107.98,-101.97 116.37,-95.5 105.78,-95.33 107.98,-101.97"/>
</g>
<!-- Node8 -->
<g id="node8" class="node">
<title>Node8</title>
<g id="a_node8"><a xlink:href="classDate.html#ad1762f5051124b0a842e0cd1e94c6237" target="_top" xlink:title=" ">
<polygon fill="white" stroke="black" points="131,-38.5 131,-57.5 161,-57.5 161,-38.5 131,-38.5"/>
<text text-anchor="middle" x="146" y="-45.5" font-family="Helvetica,sans-Serif" font-size="10.00">set</text>
</a>
</g>
</g>
<!-- Node1&#45;&gt;Node8 -->
<g id="edge7" class="edge">
<title>Node1&#45;&gt;Node8</title>
<path fill="none" stroke="midnightblue" d="M39.26,-114.34C50.94,-101.95 72.74,-80.45 95,-67 103.11,-62.1 112.7,-58.09 121.3,-55.03"/>
<polygon fill="midnightblue" stroke="midnightblue" points="122.4,-58.35 130.8,-51.89 120.21,-51.71 122.4,-58.35"/>
</g>
<!-- Node9 -->
<g id="node9" class="node">
<title>Node9</title>
<g id="a_node9"><a xlink:href="structs__datetime.html#a1b5cb174b9b809888ca1cadfb32791f4" target="_top" xlink:title=" ">
<polygon fill="white" stroke="black" points="101.5,-0.5 101.5,-19.5 190.5,-19.5 190.5,-0.5 101.5,-0.5"/>
<text text-anchor="middle" x="146" y="-7.5" font-family="Helvetica,sans-Serif" font-size="10.00">s_datetime::year</text>
</a>
</g>
</g>
<!-- Node1&#45;&gt;Node9 -->
<g id="edge8" class="edge">
<title>Node1&#45;&gt;Node9</title>
<path fill="none" stroke="midnightblue" d="M34.55,-114.49C43.04,-95.61 64.5,-53.1 95,-29 97.25,-27.22 99.69,-25.59 102.24,-24.1"/>
<polygon fill="midnightblue" stroke="midnightblue" points="103.85,-27.21 111.2,-19.58 100.7,-20.96 103.85,-27.21"/>
</g>
<!-- Node5 -->
<g id="node5" class="node">
<title>Node5</title>
<g id="a_node5"><a xlink:href="structs__datetime.html#ae91256ab81b246d3f40eddbd4c016f5f" target="_top" xlink:title=" ">
<polygon fill="white" stroke="black" points="233,-152.5 233,-171.5 333,-171.5 333,-152.5 233,-152.5"/>
<text text-anchor="middle" x="283" y="-159.5" font-family="Helvetica,sans-Serif" font-size="10.00">s_datetime::minute</text>
</a>
</g>
</g>
<!-- Node4&#45;&gt;Node5 -->
<g id="edge4" class="edge">
<title>Node4&#45;&gt;Node5</title>
<path fill="none" stroke="midnightblue" d="M169.29,-162C183.89,-162 203.72,-162 222.67,-162"/>
<polygon fill="midnightblue" stroke="midnightblue" points="222.77,-165.5 232.77,-162 222.77,-158.5 222.77,-165.5"/>
</g>
</g>
</svg>
