<?xml version="1.0" encoding="UTF-8" standalone="no"?>
<!DOCTYPE svg PUBLIC "-//W3C//DTD SVG 1.1//EN"
 "http://www.w3.org/Graphics/SVG/1.1/DTD/svg11.dtd">
<!-- Generated by graphviz version 2.47.1 (20210417.1919)
 -->
<!-- Title: isNull Pages: 1 -->
<svg width="150pt" height="218pt"
 viewBox="0.00 0.00 150.00 218.00" xmlns="http://www.w3.org/2000/svg" xmlns:xlink="http://www.w3.org/1999/xlink">
<g id="graph0" class="graph" transform="scale(1 1) rotate(0) translate(4 214)">
<title>isNull</title>
<polygon fill="white" stroke="transparent" points="-4,4 -4,-214 146,-214 146,4 -4,4"/>
<!-- Node1 -->
<g id="node1" class="node">
<title>Node1</title>
<g id="a_node1"><a xlink:title=" ">
<polygon fill="#bfbfbf" stroke="black" points="0,-95.5 0,-114.5 41,-114.5 41,-95.5 0,-95.5"/>
<text text-anchor="middle" x="20.5" y="-102.5" font-family="Helvetica,sans-Serif" font-size="10.00">isNull</text>
</a>
</g>
</g>
<!-- Node2 -->
<g id="node2" class="node">
<title>Node2</title>
<g id="a_node2"><a xlink:href="classIsotach.html#a60ce77aeb249510471495cc63a7793da" target="_top" xlink:title=" ">
<polygon fill="white" stroke="black" points="90.5,-190.5 90.5,-209.5 128.5,-209.5 128.5,-190.5 90.5,-190.5"/>
<text text-anchor="middle" x="109.5" y="-197.5" font-family="Helvetica,sans-Serif" font-size="10.00">code</text>
</a>
</g>
</g>
<!-- Node1&#45;&gt;Node2 -->
<g id="edge1" class="edge">
<title>Node1&#45;&gt;Node2</title>
<path fill="none" stroke="midnightblue" d="M26.94,-114.84C35.86,-130.32 54.83,-160.7 77,-181 78.48,-182.36 80.08,-183.67 81.74,-184.93"/>
<polygon fill="midnightblue" stroke="midnightblue" points="80.06,-188.02 90.31,-190.7 83.97,-182.21 80.06,-188.02"/>
</g>
<!-- Node3 -->
<g id="node3" class="node">
<title>Node3</title>
<g id="a_node3"><a xlink:href="classIsotach.html#af2e3f0146879ed0b3931babbce2f52aa" target="_top" xlink:title=" ">
<polygon fill="white" stroke="black" points="81.5,-152.5 81.5,-171.5 137.5,-171.5 137.5,-152.5 81.5,-152.5"/>
<text text-anchor="middle" x="109.5" y="-159.5" font-family="Helvetica,sans-Serif" font-size="10.00">radiusQ1</text>
</a>
</g>
</g>
<!-- Node1&#45;&gt;Node3 -->
<g id="edge2" class="edge">
<title>Node1&#45;&gt;Node3</title>
<path fill="none" stroke="midnightblue" d="M35.04,-114.59C46.19,-122.41 62.46,-133.65 77,-143 78.96,-144.26 81.01,-145.55 83.07,-146.84"/>
<polygon fill="midnightblue" stroke="midnightblue" points="81.68,-150.09 92.04,-152.32 85.33,-144.12 81.68,-150.09"/>
</g>
<!-- Node4 -->
<g id="node4" class="node">
<title>Node4</title>
<g id="a_node4"><a xlink:href="classIsotach.html#aae2d287c0bbcdadf4d575d3dcb56262b" target="_top" xlink:title=" ">
<polygon fill="white" stroke="black" points="81.5,-114.5 81.5,-133.5 137.5,-133.5 137.5,-114.5 81.5,-114.5"/>
<text text-anchor="middle" x="109.5" y="-121.5" font-family="Helvetica,sans-Serif" font-size="10.00">radiusQ2</text>
</a>
</g>
</g>
<!-- Node1&#45;&gt;Node4 -->
<g id="edge3" class="edge">
<title>Node1&#45;&gt;Node4</title>
<path fill="none" stroke="midnightblue" d="M41.24,-109.31C50.12,-111.25 60.89,-113.6 71.19,-115.85"/>
<polygon fill="midnightblue" stroke="midnightblue" points="70.74,-119.34 81.25,-118.05 72.23,-112.5 70.74,-119.34"/>
</g>
<!-- Node5 -->
<g id="node5" class="node">
<title>Node5</title>
<g id="a_node5"><a xlink:href="classIsotach.html#a7e99456757e19f77165951570530ffd3" target="_top" xlink:title=" ">
<polygon fill="white" stroke="black" points="81.5,-76.5 81.5,-95.5 137.5,-95.5 137.5,-76.5 81.5,-76.5"/>
<text text-anchor="middle" x="109.5" y="-83.5" font-family="Helvetica,sans-Serif" font-size="10.00">radiusQ3</text>
</a>
</g>
</g>
<!-- Node1&#45;&gt;Node5 -->
<g id="edge4" class="edge">
<title>Node1&#45;&gt;Node5</title>
<path fill="none" stroke="midnightblue" d="M41.24,-100.69C50.12,-98.75 60.89,-96.4 71.19,-94.15"/>
<polygon fill="midnightblue" stroke="midnightblue" points="72.23,-97.5 81.25,-91.95 70.74,-90.66 72.23,-97.5"/>
</g>
<!-- Node6 -->
<g id="node6" class="node">
<title>Node6</title>
<g id="a_node6"><a xlink:href="classIsotach.html#a0300c2e50b1e7dc86805acea5c32f472" target="_top" xlink:title=" ">
<polygon fill="white" stroke="black" points="81.5,-38.5 81.5,-57.5 137.5,-57.5 137.5,-38.5 81.5,-38.5"/>
<text text-anchor="middle" x="109.5" y="-45.5" font-family="Helvetica,sans-Serif" font-size="10.00">radiusQ4</text>
</a>
</g>
</g>
<!-- Node1&#45;&gt;Node6 -->
<g id="edge5" class="edge">
<title>Node1&#45;&gt;Node6</title>
<path fill="none" stroke="midnightblue" d="M35.04,-95.41C46.19,-87.59 62.46,-76.35 77,-67 78.96,-65.74 81.01,-64.45 83.07,-63.16"/>
<polygon fill="midnightblue" stroke="midnightblue" points="85.33,-65.88 92.04,-57.68 81.68,-59.91 85.33,-65.88"/>
</g>
<!-- Node7 -->
<g id="node7" class="node">
<title>Node7</title>
<g id="a_node7"><a xlink:href="classIsotach.html#a90b55241f6d0ff34cfb78229a7ffacf7" target="_top" xlink:title=" ">
<polygon fill="white" stroke="black" points="77,-0.5 77,-19.5 142,-19.5 142,-0.5 77,-0.5"/>
<text text-anchor="middle" x="109.5" y="-7.5" font-family="Helvetica,sans-Serif" font-size="10.00">windSpeed</text>
</a>
</g>
</g>
<!-- Node1&#45;&gt;Node7 -->
<g id="edge6" class="edge">
<title>Node1&#45;&gt;Node7</title>
<path fill="none" stroke="midnightblue" d="M26.94,-95.16C35.86,-79.68 54.83,-49.3 77,-29 78.3,-27.81 79.68,-26.66 81.11,-25.55"/>
<polygon fill="midnightblue" stroke="midnightblue" points="83.38,-28.24 89.65,-19.7 79.42,-22.47 83.38,-28.24"/>
</g>
</g>
</svg>
