<?xml version="1.0" encoding="UTF-8" standalone="no"?>
<!DOCTYPE svg PUBLIC "-//W3C//DTD SVG 1.1//EN"
 "http://www.w3.org/Graphics/SVG/1.1/DTD/svg11.dtd">
<!-- Generated by graphviz version 2.47.1 (20210417.1919)
 -->
<!-- Title: getUvpr Pages: 1 -->
<svg width="455pt" height="180pt"
 viewBox="0.00 0.00 455.00 180.00" xmlns="http://www.w3.org/2000/svg" xmlns:xlink="http://www.w3.org/1999/xlink">
<g id="graph0" class="graph" transform="scale(1 1) rotate(0) translate(4 176)">
<title>getUvpr</title>
<polygon fill="white" stroke="transparent" points="-4,4 -4,-176 451,-176 451,4 -4,4"/>
<!-- Node1 -->
<g id="node1" class="node">
<title>Node1</title>
<g id="a_node1"><a xlink:title=" ">
<polygon fill="#bfbfbf" stroke="black" points="0,-76.5 0,-95.5 51,-95.5 51,-76.5 0,-76.5"/>
<text text-anchor="middle" x="25.5" y="-83.5" font-family="Helvetica,sans-Serif" font-size="10.00">getUvpr</text>
</a>
</g>
</g>
<!-- Node2 -->
<g id="node2" class="node">
<title>Node2</title>
<g id="a_node2"><a xlink:href="classVortex.html#a88a6f4217035305fd70ff969f77a6ef5" target="_top" xlink:title=" ">
<polygon fill="white" stroke="black" points="97,-152.5 97,-171.5 202,-171.5 202,-152.5 97,-152.5"/>
<text text-anchor="middle" x="149.5" y="-159.5" font-family="Helvetica,sans-Serif" font-size="10.00">Vortex::frictionAngle</text>
</a>
</g>
</g>
<!-- Node1&#45;&gt;Node2 -->
<g id="edge1" class="edge">
<title>Node1&#45;&gt;Node2</title>
<path fill="none" stroke="midnightblue" d="M34.47,-95.91C45.15,-108.57 65.31,-130.36 87,-143 90.69,-145.15 94.66,-147.09 98.72,-148.82"/>
<polygon fill="midnightblue" stroke="midnightblue" points="97.74,-152.19 108.34,-152.5 100.25,-145.65 97.74,-152.19"/>
</g>
<!-- Node3 -->
<g id="node3" class="node">
<title>Node3</title>
<g id="a_node3"><a xlink:href="classPhysical.html#a758801eb99ef705bace966b7133d0621" target="_top" xlink:title=" ">
<polygon fill="white" stroke="black" points="102,-114.5 102,-133.5 197,-133.5 197,-114.5 102,-114.5"/>
<text text-anchor="middle" x="149.5" y="-121.5" font-family="Helvetica,sans-Serif" font-size="10.00">Physical::nmi2km</text>
</a>
</g>
</g>
<!-- Node1&#45;&gt;Node3 -->
<g id="edge2" class="edge">
<title>Node1&#45;&gt;Node3</title>
<path fill="none" stroke="midnightblue" d="M51.22,-93.79C62.18,-97.24 75.23,-101.33 87,-105 93.67,-107.08 100.74,-109.27 107.63,-111.4"/>
<polygon fill="midnightblue" stroke="midnightblue" points="106.93,-114.85 117.52,-114.46 109,-108.16 106.93,-114.85"/>
</g>
<!-- Node5 -->
<g id="node5" class="node">
<title>Node5</title>
<g id="a_node5"><a xlink:href="classPhysical.html#a86c55a29601269553ae1e4908f13431b" target="_top" xlink:title=" ">
<polygon fill="white" stroke="black" points="102,-76.5 102,-95.5 197,-95.5 197,-76.5 102,-76.5"/>
<text text-anchor="middle" x="149.5" y="-83.5" font-family="Helvetica,sans-Serif" font-size="10.00">Physical::one2ten</text>
</a>
</g>
</g>
<!-- Node1&#45;&gt;Node5 -->
<g id="edge4" class="edge">
<title>Node1&#45;&gt;Node5</title>
<path fill="none" stroke="midnightblue" d="M51.19,-86C62.84,-86 77.28,-86 91.43,-86"/>
<polygon fill="midnightblue" stroke="midnightblue" points="91.64,-89.5 101.64,-86 91.64,-82.5 91.64,-89.5"/>
</g>
<!-- Node6 -->
<g id="node6" class="node">
<title>Node6</title>
<g id="a_node6"><a xlink:href="classVortex.html#a1c4d01b0ee5b7e612fee5f49b17e8816" target="_top" xlink:title=" ">
<polygon fill="white" stroke="black" points="97.5,-38.5 97.5,-57.5 201.5,-57.5 201.5,-38.5 97.5,-38.5"/>
<text text-anchor="middle" x="149.5" y="-45.5" font-family="Helvetica,sans-Serif" font-size="10.00">Vortex::rotateWinds</text>
</a>
</g>
</g>
<!-- Node1&#45;&gt;Node6 -->
<g id="edge5" class="edge">
<title>Node1&#45;&gt;Node6</title>
<path fill="none" stroke="midnightblue" d="M51.22,-78.21C62.18,-74.76 75.23,-70.67 87,-67 93.67,-64.92 100.74,-62.73 107.63,-60.6"/>
<polygon fill="midnightblue" stroke="midnightblue" points="109,-63.84 117.52,-57.54 106.93,-57.15 109,-63.84"/>
</g>
<!-- Node9 -->
<g id="node9" class="node">
<title>Node9</title>
<g id="a_node9"><a xlink:href="classPhysical.html#aa611aac3f44816aeddb5ffc722f33c35" target="_top" xlink:title=" ">
<polygon fill="white" stroke="black" points="87,-0.5 87,-19.5 212,-19.5 212,-0.5 87,-0.5"/>
<text text-anchor="middle" x="149.5" y="-7.5" font-family="Helvetica,sans-Serif" font-size="10.00">Physical::windReduction</text>
</a>
</g>
</g>
<!-- Node1&#45;&gt;Node9 -->
<g id="edge8" class="edge">
<title>Node1&#45;&gt;Node9</title>
<path fill="none" stroke="midnightblue" d="M34.47,-76.09C45.15,-63.43 65.31,-41.64 87,-29 90.69,-26.85 94.66,-24.91 98.72,-23.18"/>
<polygon fill="midnightblue" stroke="midnightblue" points="100.25,-26.35 108.34,-19.5 97.74,-19.81 100.25,-26.35"/>
</g>
<!-- Node4 -->
<g id="node4" class="node">
<title>Node4</title>
<g id="a_node4"><a xlink:href="classPhysical.html#a27fa412be519621c7f7d32bea2be825a" target="_top" xlink:title=" ">
<polygon fill="white" stroke="black" points="248,-114.5 248,-133.5 343,-133.5 343,-114.5 248,-114.5"/>
<text text-anchor="middle" x="295.5" y="-121.5" font-family="Helvetica,sans-Serif" font-size="10.00">Physical::km2nmi</text>
</a>
</g>
</g>
<!-- Node3&#45;&gt;Node4 -->
<g id="edge3" class="edge">
<title>Node3&#45;&gt;Node4</title>
<path fill="none" stroke="midnightblue" d="M197.25,-124C210.21,-124 224.42,-124 237.87,-124"/>
<polygon fill="midnightblue" stroke="midnightblue" points="237.98,-127.5 247.98,-124 237.98,-120.5 237.98,-127.5"/>
</g>
<!-- Node7 -->
<g id="node7" class="node">
<title>Node7</title>
<g id="a_node7"><a xlink:href="classPhysical.html#ae43063ac7bf556cb933a0206301b9748" target="_top" xlink:title=" ">
<polygon fill="white" stroke="black" points="248,-38.5 248,-57.5 343,-57.5 343,-38.5 248,-38.5"/>
<text text-anchor="middle" x="295.5" y="-45.5" font-family="Helvetica,sans-Serif" font-size="10.00">Physical::deg2rad</text>
</a>
</g>
</g>
<!-- Node6&#45;&gt;Node7 -->
<g id="edge6" class="edge">
<title>Node6&#45;&gt;Node7</title>
<path fill="none" stroke="midnightblue" d="M201.67,-48C213.3,-48 225.73,-48 237.58,-48"/>
<polygon fill="midnightblue" stroke="midnightblue" points="237.81,-51.5 247.81,-48 237.81,-44.5 237.81,-51.5"/>
</g>
<!-- Node8 -->
<g id="node8" class="node">
<title>Node8</title>
<g id="a_node8"><a xlink:href="classPhysical.html#a8916e00cc71692658a0a355b2f142274" target="_top" xlink:title=" ">
<polygon fill="white" stroke="black" points="379,-38.5 379,-57.5 447,-57.5 447,-38.5 379,-38.5"/>
<text text-anchor="middle" x="413" y="-45.5" font-family="Helvetica,sans-Serif" font-size="10.00">Physical::pi</text>
</a>
</g>
</g>
<!-- Node7&#45;&gt;Node8 -->
<g id="edge7" class="edge">
<title>Node7&#45;&gt;Node8</title>
<path fill="none" stroke="midnightblue" d="M343.15,-48C351.51,-48 360.2,-48 368.47,-48"/>
<polygon fill="midnightblue" stroke="midnightblue" points="368.67,-51.5 378.67,-48 368.67,-44.5 368.67,-51.5"/>
</g>
</g>
</svg>
