<?xml version="1.0" encoding="UTF-8" standalone="no"?>
<!DOCTYPE svg PUBLIC "-//W3C//DTD SVG 1.1//EN"
 "http://www.w3.org/Graphics/SVG/1.1/DTD/svg11.dtd">
<!-- Generated by graphviz version 2.47.1 (20210417.1919)
 -->
<!-- Title: millisecond Pages: 1 -->
<svg width="372pt" height="256pt"
 viewBox="0.00 0.00 372.00 256.00" xmlns="http://www.w3.org/2000/svg" xmlns:xlink="http://www.w3.org/1999/xlink">
<g id="graph0" class="graph" transform="scale(1 1) rotate(0) translate(4 252)">
<title>millisecond</title>
<polygon fill="white" stroke="transparent" points="-4,4 -4,-252 368,-252 368,4 -4,4"/>
<!-- Node1 -->
<g id="node1" class="node">
<title>Node1</title>
<g id="a_node1"><a xlink:title=" ">
<polygon fill="#bfbfbf" stroke="black" points="0,-114.5 0,-133.5 65,-133.5 65,-114.5 0,-114.5"/>
<text text-anchor="middle" x="32.5" y="-121.5" font-family="Helvetica,sans-Serif" font-size="10.00">millisecond</text>
</a>
</g>
</g>
<!-- Node2 -->
<g id="node2" class="node">
<title>Node2</title>
<g id="a_node2"><a xlink:href="structs__datetime.html#a32205231a1a2e9f16cd9866d06c90b22" target="_top" xlink:title=" ">
<polygon fill="white" stroke="black" points="101,-114.5 101,-133.5 226,-133.5 226,-114.5 101,-114.5"/>
<text text-anchor="middle" x="163.5" y="-121.5" font-family="Helvetica,sans-Serif" font-size="10.00">s_datetime::milliseconds</text>
</a>
</g>
</g>
<!-- Node1&#45;&gt;Node2 -->
<g id="edge1" class="edge">
<title>Node1&#45;&gt;Node2</title>
<path fill="none" stroke="midnightblue" d="M65.06,-124C72.92,-124 81.67,-124 90.61,-124"/>
<polygon fill="midnightblue" stroke="midnightblue" points="90.75,-127.5 100.75,-124 90.75,-120.5 90.75,-127.5"/>
</g>
<!-- Node3 -->
<g id="node3" class="node">
<title>Node3</title>
<g id="a_node3"><a xlink:href="structs__datetime.html#a5a496ea2e6017fd4b43081f4317f96ce" target="_top" xlink:title=" ">
<polygon fill="white" stroke="black" points="270,-228.5 270,-247.5 356,-247.5 356,-228.5 270,-228.5"/>
<text text-anchor="middle" x="313" y="-235.5" font-family="Helvetica,sans-Serif" font-size="10.00">s_datetime::day</text>
</a>
</g>
</g>
<!-- Node2&#45;&gt;Node3 -->
<g id="edge2" class="edge">
<title>Node2&#45;&gt;Node3</title>
<path fill="none" stroke="midnightblue" d="M172.08,-133.68C187.28,-152.5 223.34,-194.34 262,-219 264.99,-220.91 268.19,-222.66 271.49,-224.28"/>
<polygon fill="midnightblue" stroke="midnightblue" points="270.34,-227.6 280.9,-228.45 273.18,-221.2 270.34,-227.6"/>
</g>
<!-- Node4 -->
<g id="node4" class="node">
<title>Node4</title>
<g id="a_node4"><a xlink:href="structs__datetime.html#a110d566ff7f9edf7cbfe15355f8c637c" target="_top" xlink:title=" ">
<polygon fill="white" stroke="black" points="268.5,-190.5 268.5,-209.5 357.5,-209.5 357.5,-190.5 268.5,-190.5"/>
<text text-anchor="middle" x="313" y="-197.5" font-family="Helvetica,sans-Serif" font-size="10.00">s_datetime::hour</text>
</a>
</g>
</g>
<!-- Node2&#45;&gt;Node4 -->
<g id="edge3" class="edge">
<title>Node2&#45;&gt;Node4</title>
<path fill="none" stroke="midnightblue" d="M179.28,-133.68C198.02,-145.72 231.58,-166.45 262,-181 266.12,-182.97 270.5,-184.88 274.88,-186.69"/>
<polygon fill="midnightblue" stroke="midnightblue" points="273.82,-190.03 284.41,-190.45 276.39,-183.52 273.82,-190.03"/>
</g>
<!-- Node5 -->
<g id="node5" class="node">
<title>Node5</title>
<g id="a_node5"><a xlink:href="structs__datetime.html#ae91256ab81b246d3f40eddbd4c016f5f" target="_top" xlink:title=" ">
<polygon fill="white" stroke="black" points="263,-152.5 263,-171.5 363,-171.5 363,-152.5 263,-152.5"/>
<text text-anchor="middle" x="313" y="-159.5" font-family="Helvetica,sans-Serif" font-size="10.00">s_datetime::minute</text>
</a>
</g>
</g>
<!-- Node2&#45;&gt;Node5 -->
<g id="edge4" class="edge">
<title>Node2&#45;&gt;Node5</title>
<path fill="none" stroke="midnightblue" d="M201.72,-133.59C221.01,-138.56 244.76,-144.68 265.27,-149.96"/>
<polygon fill="midnightblue" stroke="midnightblue" points="264.49,-153.37 275.05,-152.48 266.24,-146.6 264.49,-153.37"/>
</g>
<!-- Node6 -->
<g id="node6" class="node">
<title>Node6</title>
<g id="a_node6"><a xlink:href="structs__datetime.html#a1d85d7b09eedec3fb734532c164f2f27" target="_top" xlink:title=" ">
<polygon fill="white" stroke="black" points="264,-114.5 264,-133.5 362,-133.5 362,-114.5 264,-114.5"/>
<text text-anchor="middle" x="313" y="-121.5" font-family="Helvetica,sans-Serif" font-size="10.00">s_datetime::month</text>
</a>
</g>
</g>
<!-- Node2&#45;&gt;Node6 -->
<g id="edge5" class="edge">
<title>Node2&#45;&gt;Node6</title>
<path fill="none" stroke="midnightblue" d="M226.2,-124C235.16,-124 244.37,-124 253.28,-124"/>
<polygon fill="midnightblue" stroke="midnightblue" points="253.56,-127.5 263.56,-124 253.56,-120.5 253.56,-127.5"/>
</g>
<!-- Node7 -->
<g id="node7" class="node">
<title>Node7</title>
<g id="a_node7"><a xlink:href="structs__datetime.html#aa0cba22e21d8081f564e6a68edab1ae0" target="_top" xlink:title=" ">
<polygon fill="white" stroke="black" points="262,-76.5 262,-95.5 364,-95.5 364,-76.5 262,-76.5"/>
<text text-anchor="middle" x="313" y="-83.5" font-family="Helvetica,sans-Serif" font-size="10.00">s_datetime::second</text>
</a>
</g>
</g>
<!-- Node2&#45;&gt;Node7 -->
<g id="edge6" class="edge">
<title>Node2&#45;&gt;Node7</title>
<path fill="none" stroke="midnightblue" d="M201.72,-114.41C221.01,-109.44 244.76,-103.32 265.27,-98.04"/>
<polygon fill="midnightblue" stroke="midnightblue" points="266.24,-101.4 275.05,-95.52 264.49,-94.63 266.24,-101.4"/>
</g>
<!-- Node8 -->
<g id="node8" class="node">
<title>Node8</title>
<g id="a_node8"><a xlink:href="classDate.html#aa1dec3e6a706a77691a3c49a0fe82e3d" target="_top" xlink:title=" ">
<polygon fill="white" stroke="black" points="282,-38.5 282,-57.5 344,-57.5 344,-38.5 282,-38.5"/>
<text text-anchor="middle" x="313" y="-45.5" font-family="Helvetica,sans-Serif" font-size="10.00">time_point</text>
</a>
</g>
</g>
<!-- Node2&#45;&gt;Node8 -->
<g id="edge7" class="edge">
<title>Node2&#45;&gt;Node8</title>
<path fill="none" stroke="midnightblue" d="M179.28,-114.32C198.02,-102.28 231.58,-81.55 262,-67 266.12,-65.03 270.5,-63.12 274.88,-61.31"/>
<polygon fill="midnightblue" stroke="midnightblue" points="276.39,-64.48 284.41,-57.55 273.82,-57.97 276.39,-64.48"/>
</g>
<!-- Node9 -->
<g id="node9" class="node">
<title>Node9</title>
<g id="a_node9"><a xlink:href="structs__datetime.html#a1b5cb174b9b809888ca1cadfb32791f4" target="_top" xlink:title=" ">
<polygon fill="white" stroke="black" points="268.5,-0.5 268.5,-19.5 357.5,-19.5 357.5,-0.5 268.5,-0.5"/>
<text text-anchor="middle" x="313" y="-7.5" font-family="Helvetica,sans-Serif" font-size="10.00">s_datetime::year</text>
</a>
</g>
</g>
<!-- Node2&#45;&gt;Node9 -->
<g id="edge8" class="edge">
<title>Node2&#45;&gt;Node9</title>
<path fill="none" stroke="midnightblue" d="M172.08,-114.32C187.28,-95.5 223.34,-53.66 262,-29 264.99,-27.09 268.19,-25.34 271.49,-23.72"/>
<polygon fill="midnightblue" stroke="midnightblue" points="273.18,-26.8 280.9,-19.55 270.34,-20.4 273.18,-26.8"/>
</g>
</g>
</svg>
