<?xml version="1.0" encoding="UTF-8" standalone="no"?>
<!DOCTYPE svg PUBLIC "-//W3C//DTD SVG 1.1//EN"
 "http://www.w3.org/Graphics/SVG/1.1/DTD/svg11.dtd">
<!-- Generated by graphviz version 2.47.1 (20210417.1919)
 -->
<!-- Title: computeQuadrantVr Pages: 1 -->
<svg width="729pt" height="268pt"
 viewBox="0.00 0.00 729.00 267.50" xmlns="http://www.w3.org/2000/svg" xmlns:xlink="http://www.w3.org/1999/xlink">
<g id="graph0" class="graph" transform="scale(1 1) rotate(0) translate(4 263.5)">
<title>computeQuadrantVr</title>
<polygon fill="white" stroke="transparent" points="-4,4 -4,-263.5 725,-263.5 725,4 -4,4"/>
<!-- Node1 -->
<g id="node1" class="node">
<title>Node1</title>
<g id="a_node1"><a xlink:title=" ">
<polygon fill="#bfbfbf" stroke="black" points="0,-88 0,-107 104,-107 104,-88 0,-88"/>
<text text-anchor="middle" x="52" y="-95" font-family="Helvetica,sans-Serif" font-size="10.00">computeQuadrantVr</text>
</a>
</g>
</g>
<!-- Node2 -->
<g id="node2" class="node">
<title>Node2</title>
<g id="a_node2"><a xlink:href="classAtcf.html#adccea6c4ad7108a14f86b833f3f94f6d" target="_top" xlink:title=" ">
<polygon fill="white" stroke="black" points="145.5,-202 145.5,-221 292.5,-221 292.5,-202 145.5,-202"/>
<text text-anchor="middle" x="219" y="-209" font-family="Helvetica,sans-Serif" font-size="10.00">computeQuadrantVectorAngle</text>
</a>
</g>
</g>
<!-- Node1&#45;&gt;Node2 -->
<g id="edge1" class="edge">
<title>Node1&#45;&gt;Node2</title>
<path fill="none" stroke="midnightblue" d="M66.78,-107.02C95.22,-126.67 160.65,-171.87 195.38,-195.87"/>
<polygon fill="midnightblue" stroke="midnightblue" points="193.69,-198.96 203.91,-201.76 197.67,-193.2 193.69,-198.96"/>
</g>
<!-- Node6 -->
<g id="node6" class="node">
<title>Node6</title>
<g id="a_node6"><a xlink:href="classAtcf.html#a12d26ed5e74ce562bd78a28662bceb75" target="_top" xlink:title=" ">
<polygon fill="white" stroke="black" points="140,-107 140,-126 298,-126 298,-107 140,-107"/>
<text text-anchor="middle" x="219" y="-114" font-family="Helvetica,sans-Serif" font-size="10.00">computeQuadrantVrWithGamma</text>
</a>
</g>
</g>
<!-- Node1&#45;&gt;Node6 -->
<g id="edge5" class="edge">
<title>Node1&#45;&gt;Node6</title>
<path fill="none" stroke="midnightblue" d="M104.3,-103.41C112.39,-104.34 120.95,-105.33 129.6,-106.32"/>
<polygon fill="midnightblue" stroke="midnightblue" points="129.44,-109.82 139.77,-107.49 130.24,-102.87 129.44,-109.82"/>
</g>
<!-- Node14 -->
<g id="node14" class="node">
<title>Node14</title>
<g id="a_node14"><a xlink:href="classIsotach.html#a32d11b9542f172cb4e06b65950c704bf" target="_top" xlink:title=" ">
<polygon fill="white" stroke="black" points="168,-69 168,-88 270,-88 270,-69 168,-69"/>
<text text-anchor="middle" x="219" y="-76" font-family="Helvetica,sans-Serif" font-size="10.00">Isotach::quadrantVr</text>
</a>
</g>
</g>
<!-- Node1&#45;&gt;Node14 -->
<g id="edge16" class="edge">
<title>Node1&#45;&gt;Node14</title>
<path fill="none" stroke="midnightblue" d="M104.3,-91.59C121.23,-89.64 140.2,-87.46 157.73,-85.44"/>
<polygon fill="midnightblue" stroke="midnightblue" points="158.33,-88.89 167.86,-84.27 157.53,-81.94 158.33,-88.89"/>
</g>
<!-- Node15 -->
<g id="node15" class="node">
<title>Node15</title>
<g id="a_node15"><a xlink:href="classCircularArray.html#a43241fcadbf56b0a7c3f7242acf46eed" target="_top" xlink:title=" ">
<polygon fill="white" stroke="black" points="172.5,-28 172.5,-47 265.5,-47 265.5,-28 172.5,-28"/>
<text text-anchor="middle" x="219" y="-35" font-family="Helvetica,sans-Serif" font-size="10.00">CircularArray::set</text>
</a>
</g>
</g>
<!-- Node1&#45;&gt;Node15 -->
<g id="edge17" class="edge">
<title>Node1&#45;&gt;Node15</title>
<path fill="none" stroke="midnightblue" d="M72.73,-87.96C90.16,-79.75 116.41,-67.93 140,-59.5 149.64,-56.05 160.1,-52.79 170.13,-49.88"/>
<polygon fill="midnightblue" stroke="midnightblue" points="171.31,-53.19 179.98,-47.1 169.41,-46.45 171.31,-53.19"/>
</g>
<!-- Node3 -->
<g id="node3" class="node">
<title>Node3</title>
<g id="a_node3"><a xlink:href="namespacePhysical.html#a92b1fc7520d88e5945e2e7e8c8bc006e" target="_top" xlink:title=" ">
<polygon fill="white" stroke="black" points="353.5,-202 353.5,-221 436.5,-221 436.5,-202 353.5,-202"/>
<text text-anchor="middle" x="395" y="-209" font-family="Helvetica,sans-Serif" font-size="10.00">Physical::halfpi</text>
</a>
</g>
</g>
<!-- Node2&#45;&gt;Node3 -->
<g id="edge2" class="edge">
<title>Node2&#45;&gt;Node3</title>
<path fill="none" stroke="midnightblue" d="M292.53,-211.5C309.51,-211.5 327.25,-211.5 343.06,-211.5"/>
<polygon fill="midnightblue" stroke="midnightblue" points="343.14,-215 353.14,-211.5 343.14,-208 343.14,-215"/>
</g>
<!-- Node5 -->
<g id="node5" class="node">
<title>Node5</title>
<g id="a_node5"><a xlink:href="namespacePhysical.html#a8b95a30e294bd7aa1169d0a92c65a009" target="_top" xlink:title=" ">
<polygon fill="white" stroke="black" points="334,-240 334,-259 456,-259 456,-240 334,-240"/>
<text text-anchor="middle" x="395" y="-247" font-family="Helvetica,sans-Serif" font-size="10.00">Physical::quadrantAngle</text>
</a>
</g>
</g>
<!-- Node2&#45;&gt;Node5 -->
<g id="edge4" class="edge">
<title>Node2&#45;&gt;Node5</title>
<path fill="none" stroke="midnightblue" d="M263.91,-221.09C287.18,-226.17 315.95,-232.46 340.52,-237.82"/>
<polygon fill="midnightblue" stroke="midnightblue" points="339.89,-241.27 350.41,-239.98 341.39,-234.43 339.89,-241.27"/>
</g>
<!-- Node4 -->
<g id="node4" class="node">
<title>Node4</title>
<g id="a_node4"><a xlink:href="namespacePhysical.html#aceeafe6dfcafc1ccd35aee635c075f09" target="_top" xlink:title=" ">
<polygon fill="white" stroke="black" points="653,-126 653,-145 721,-145 721,-126 653,-126"/>
<text text-anchor="middle" x="687" y="-133" font-family="Helvetica,sans-Serif" font-size="10.00">Physical::pi</text>
</a>
</g>
</g>
<!-- Node3&#45;&gt;Node4 -->
<g id="edge3" class="edge">
<title>Node3&#45;&gt;Node4</title>
<path fill="none" stroke="midnightblue" d="M436.8,-215.08C482.47,-217.5 557.83,-216.69 617,-192.5 638.2,-183.83 657.86,-166.25 670.73,-152.89"/>
<polygon fill="midnightblue" stroke="midnightblue" points="673.59,-154.95 677.82,-145.24 668.45,-150.2 673.59,-154.95"/>
</g>
<!-- Node7 -->
<g id="node7" class="node">
<title>Node7</title>
<g id="a_node7"><a xlink:href="classAtcf.html#a8feed32ff84fb9f6e1bba8526b05d00b" target="_top" xlink:title=" ">
<polygon fill="white" stroke="black" points="339.5,-50 339.5,-69 450.5,-69 450.5,-50 339.5,-50"/>
<text text-anchor="middle" x="395" y="-57" font-family="Helvetica,sans-Serif" font-size="10.00">computeEpsilonAngle</text>
</a>
</g>
</g>
<!-- Node6&#45;&gt;Node7 -->
<g id="edge6" class="edge">
<title>Node6&#45;&gt;Node7</title>
<path fill="none" stroke="midnightblue" d="M264.02,-106.9C275.19,-104.16 287.11,-100.96 298,-97.5 301.23,-96.47 334.22,-83.37 360.64,-72.83"/>
<polygon fill="midnightblue" stroke="midnightblue" points="362.02,-76.05 370.01,-69.09 359.42,-69.55 362.02,-76.05"/>
</g>
<!-- Node10 -->
<g id="node10" class="node">
<title>Node10</title>
<g id="a_node10"><a xlink:href="classAtcf.html#a2742efd0b6b28a51a11a0d74e713f222" target="_top" xlink:title=" ">
<polygon fill="white" stroke="black" points="350.5,-126 350.5,-145 439.5,-145 439.5,-126 350.5,-126"/>
<text text-anchor="middle" x="395" y="-133" font-family="Helvetica,sans-Serif" font-size="10.00">computeGamma</text>
</a>
</g>
</g>
<!-- Node6&#45;&gt;Node10 -->
<g id="edge10" class="edge">
<title>Node6&#45;&gt;Node10</title>
<path fill="none" stroke="midnightblue" d="M298.09,-125.03C312.35,-126.58 326.92,-128.18 340.27,-129.63"/>
<polygon fill="midnightblue" stroke="midnightblue" points="339.89,-133.11 350.21,-130.72 340.65,-126.15 339.89,-133.11"/>
</g>
<!-- Node12 -->
<g id="node12" class="node">
<title>Node12</title>
<g id="a_node12"><a xlink:href="namespacePhysical.html#ac3ebcf4f7617c5c5a57bc9bd2b95e0db" target="_top" xlink:title=" ">
<polygon fill="white" stroke="black" points="511,-164 511,-183 598,-183 598,-164 511,-164"/>
<text text-anchor="middle" x="554.5" y="-171" font-family="Helvetica,sans-Serif" font-size="10.00">Physical::ms2kt</text>
</a>
</g>
</g>
<!-- Node6&#45;&gt;Node12 -->
<g id="edge14" class="edge">
<title>Node6&#45;&gt;Node12</title>
<path fill="none" stroke="midnightblue" d="M243.14,-126.01C265.86,-134.91 301.72,-147.82 334,-154.5 390.29,-166.15 456.14,-170.67 500.93,-172.42"/>
<polygon fill="midnightblue" stroke="midnightblue" points="500.88,-175.92 510.99,-172.77 501.13,-168.92 500.88,-175.92"/>
</g>
<!-- Node13 -->
<g id="node13" class="node">
<title>Node13</title>
<g id="a_node13"><a xlink:href="namespacePhysical.html#a7a0e10124e38dbffecaa523c97b21e4a" target="_top" xlink:title=" ">
<polygon fill="white" stroke="black" points="492,-88 492,-107 617,-107 617,-88 492,-88"/>
<text text-anchor="middle" x="554.5" y="-95" font-family="Helvetica,sans-Serif" font-size="10.00">Physical::windReduction</text>
</a>
</g>
</g>
<!-- Node6&#45;&gt;Node13 -->
<g id="edge15" class="edge">
<title>Node6&#45;&gt;Node13</title>
<path fill="none" stroke="midnightblue" d="M298.19,-112.05C353.72,-108.88 427.7,-104.67 481.73,-101.59"/>
<polygon fill="midnightblue" stroke="midnightblue" points="482.13,-105.07 491.91,-101.01 481.73,-98.08 482.13,-105.07"/>
</g>
<!-- Node8 -->
<g id="node8" class="node">
<title>Node8</title>
<g id="a_node8"><a xlink:href="namespacePhysical.html#a5753cd084d1e96b108e96f8694b4a8a1" target="_top" xlink:title=" ">
<polygon fill="white" stroke="black" points="522,-12 522,-31 587,-31 587,-12 522,-12"/>
<text text-anchor="middle" x="554.5" y="-19" font-family="Helvetica,sans-Serif" font-size="10.00">Physical::e</text>
</a>
</g>
</g>
<!-- Node7&#45;&gt;Node8 -->
<g id="edge7" class="edge">
<title>Node7&#45;&gt;Node8</title>
<path fill="none" stroke="midnightblue" d="M435.74,-49.91C459.11,-44.27 488.6,-37.16 512.22,-31.46"/>
<polygon fill="midnightblue" stroke="midnightblue" points="513.05,-34.86 521.95,-29.11 511.41,-28.05 513.05,-34.86"/>
</g>
<!-- Node9 -->
<g id="node9" class="node">
<title>Node9</title>
<g id="a_node9"><a xlink:href="namespacePhysical.html#a3fccff272b0fae8ead3c2c05f62b3620" target="_top" xlink:title=" ">
<polygon fill="white" stroke="black" points="513,-50 513,-69 596,-69 596,-50 513,-50"/>
<text text-anchor="middle" x="554.5" y="-57" font-family="Helvetica,sans-Serif" font-size="10.00">Physical::twopi</text>
</a>
</g>
</g>
<!-- Node7&#45;&gt;Node9 -->
<g id="edge8" class="edge">
<title>Node7&#45;&gt;Node9</title>
<path fill="none" stroke="midnightblue" d="M450.64,-59.5C467.57,-59.5 486.13,-59.5 502.78,-59.5"/>
<polygon fill="midnightblue" stroke="midnightblue" points="502.86,-63 512.86,-59.5 502.86,-56 502.86,-63"/>
</g>
<!-- Node9&#45;&gt;Node4 -->
<g id="edge9" class="edge">
<title>Node9&#45;&gt;Node4</title>
<path fill="none" stroke="midnightblue" d="M594.49,-69.02C602.18,-71.59 610.02,-74.73 617,-78.5 636.7,-89.14 656.08,-105.86 669.27,-118.44"/>
<polygon fill="midnightblue" stroke="midnightblue" points="667.03,-121.15 676.62,-125.66 671.93,-116.15 667.03,-121.15"/>
</g>
<!-- Node11 -->
<g id="node11" class="node">
<title>Node11</title>
<g id="a_node11"><a xlink:href="namespacePhysical.html#a60d38d3c6b34c99aa2bc57a78149a3e1" target="_top" xlink:title=" ">
<polygon fill="white" stroke="black" points="522,-126 522,-145 587,-145 587,-126 522,-126"/>
<text text-anchor="middle" x="554.5" y="-133" font-family="Helvetica,sans-Serif" font-size="10.00">Physical::g</text>
</a>
</g>
</g>
<!-- Node10&#45;&gt;Node11 -->
<g id="edge11" class="edge">
<title>Node10&#45;&gt;Node11</title>
<path fill="none" stroke="midnightblue" d="M439.87,-135.5C462.35,-135.5 489.57,-135.5 511.73,-135.5"/>
<polygon fill="midnightblue" stroke="midnightblue" points="511.84,-139 521.84,-135.5 511.84,-132 511.84,-139"/>
</g>
<!-- Node10&#45;&gt;Node12 -->
<g id="edge12" class="edge">
<title>Node10&#45;&gt;Node12</title>
<path fill="none" stroke="midnightblue" d="M435.74,-145.09C456.53,-150.1 482.16,-156.29 504.2,-161.61"/>
<polygon fill="midnightblue" stroke="midnightblue" points="503.5,-165.04 514.04,-163.98 505.14,-158.23 503.5,-165.04"/>
</g>
<!-- Node10&#45;&gt;Node13 -->
<g id="edge13" class="edge">
<title>Node10&#45;&gt;Node13</title>
<path fill="none" stroke="midnightblue" d="M435.74,-125.91C456.53,-120.9 482.16,-114.71 504.2,-109.39"/>
<polygon fill="midnightblue" stroke="midnightblue" points="505.14,-112.77 514.04,-107.02 503.5,-105.96 505.14,-112.77"/>
</g>
<!-- Node16 -->
<g id="node16" class="node">
<title>Node16</title>
<g id="a_node16"><a xlink:href="classCircularArray.html#ae9ee07d89dc4196acefc5b290b9275b8" target="_top" xlink:title=" ">
<polygon fill="white" stroke="black" points="346,-0.5 346,-30.5 444,-30.5 444,-0.5 346,-0.5"/>
<text text-anchor="start" x="354" y="-18.5" font-family="Helvetica,sans-Serif" font-size="10.00">CircularArray::mod</text>
<text text-anchor="middle" x="395" y="-7.5" font-family="Helvetica,sans-Serif" font-size="10.00">_floor</text>
</a>
</g>
</g>
<!-- Node15&#45;&gt;Node16 -->
<g id="edge18" class="edge">
<title>Node15&#45;&gt;Node16</title>
<path fill="none" stroke="midnightblue" d="M265.72,-31.72C287.21,-29 313.07,-25.73 335.93,-22.84"/>
<polygon fill="midnightblue" stroke="midnightblue" points="336.37,-26.31 345.85,-21.59 335.49,-19.37 336.37,-26.31"/>
</g>
</g>
</svg>
