<?xml version="1.0" encoding="UTF-8" standalone="no"?>
<!DOCTYPE svg PUBLIC "-//W3C//DTD SVG 1.1//EN"
 "http://www.w3.org/Graphics/SVG/1.1/DTD/svg11.dtd">
<!-- Generated by graphviz version 2.47.1 (20210417.1919)
 -->
<!-- Title: deg2rad Pages: 1 -->
<svg width="951pt" height="180pt"
 viewBox="0.00 0.00 951.00 180.00" xmlns="http://www.w3.org/2000/svg" xmlns:xlink="http://www.w3.org/1999/xlink">
<g id="graph0" class="graph" transform="scale(1 1) rotate(0) translate(4 176)">
<title>deg2rad</title>
<polygon fill="white" stroke="transparent" points="-4,4 -4,-176 947,-176 947,4 -4,4"/>
<!-- Node1 -->
<g id="node1" class="node">
<title>Node1</title>
<g id="a_node1"><a xlink:title=" ">
<polygon fill="#bfbfbf" stroke="black" points="892,-76.5 892,-95.5 943,-95.5 943,-76.5 892,-76.5"/>
<text text-anchor="middle" x="917.5" y="-83.5" font-family="Helvetica,sans-Serif" font-size="10.00">deg2rad</text>
</a>
</g>
</g>
<!-- Node2 -->
<g id="node2" class="node">
<title>Node2</title>
<g id="a_node2"><a xlink:href="classPhysical.html#afbb6375214fefd00a0489b5373f480b8" target="_top" xlink:title=" ">
<polygon fill="white" stroke="black" points="630,-114.5 630,-133.5 704,-133.5 704,-114.5 630,-114.5"/>
<text text-anchor="middle" x="667" y="-121.5" font-family="Helvetica,sans-Serif" font-size="10.00">azimuthEarth</text>
</a>
</g>
</g>
<!-- Node1&#45;&gt;Node2 -->
<g id="edge1" class="edge">
<title>Node1&#45;&gt;Node2</title>
<path fill="none" stroke="midnightblue" d="M882.2,-98.1C873.72,-100.72 864.6,-103.23 856,-105 803.78,-115.72 742.11,-120.49 704.02,-122.54"/>
<polygon fill="midnightblue" stroke="midnightblue" points="883.33,-101.41 891.78,-95.02 881.19,-94.75 883.33,-101.41"/>
</g>
<!-- Node3 -->
<g id="node3" class="node">
<title>Node3</title>
<g id="a_node3"><a xlink:href="classVortex.html#aebe7a0f05d05690f9b112693c29f07f1" target="_top" xlink:title=" ">
<polygon fill="white" stroke="black" points="763,-152.5 763,-171.5 845,-171.5 845,-152.5 763,-152.5"/>
<text text-anchor="middle" x="804" y="-159.5" font-family="Helvetica,sans-Serif" font-size="10.00">Vortex::coriolis</text>
</a>
</g>
</g>
<!-- Node1&#45;&gt;Node3 -->
<g id="edge2" class="edge">
<title>Node1&#45;&gt;Node3</title>
<path fill="none" stroke="midnightblue" d="M899.63,-102.69C888.01,-113.62 871.87,-127.72 856,-138 847.54,-143.48 837.63,-148.44 828.81,-152.4"/>
<polygon fill="midnightblue" stroke="midnightblue" points="902.1,-105.17 906.89,-95.72 897.25,-100.12 902.1,-105.17"/>
</g>
<!-- Node5 -->
<g id="node5" class="node">
<title>Node5</title>
<g id="a_node5"><a xlink:href="classPhysical.html#a46933b0960a506f3532ab42d02b84030" target="_top" xlink:title=" ">
<polygon fill="white" stroke="black" points="618,-38.5 618,-57.5 716,-57.5 716,-38.5 618,-38.5"/>
<text text-anchor="middle" x="667" y="-45.5" font-family="Helvetica,sans-Serif" font-size="10.00">geodesic_distance</text>
</a>
</g>
</g>
<!-- Node1&#45;&gt;Node5 -->
<g id="edge4" class="edge">
<title>Node1&#45;&gt;Node5</title>
<path fill="none" stroke="midnightblue" d="M882.2,-73.9C873.72,-71.28 864.6,-68.77 856,-67 809.08,-57.37 754.53,-52.54 716.32,-50.17"/>
<polygon fill="midnightblue" stroke="midnightblue" points="881.19,-77.25 891.78,-76.98 883.33,-70.59 881.19,-77.25"/>
</g>
<!-- Node12 -->
<g id="node12" class="node">
<title>Node12</title>
<g id="a_node12"><a xlink:href="classPhysical.html#a0af6386ea46179fb49f33ea168613246" target="_top" xlink:title=" ">
<polygon fill="white" stroke="black" points="771,-76.5 771,-95.5 837,-95.5 837,-76.5 771,-76.5"/>
<text text-anchor="middle" x="804" y="-83.5" font-family="Helvetica,sans-Serif" font-size="10.00">radiusEarth</text>
</a>
</g>
</g>
<!-- Node1&#45;&gt;Node12 -->
<g id="edge11" class="edge">
<title>Node1&#45;&gt;Node12</title>
<path fill="none" stroke="midnightblue" d="M881.43,-86C867.31,-86 851.13,-86 837.3,-86"/>
<polygon fill="midnightblue" stroke="midnightblue" points="881.75,-89.5 891.75,-86 881.75,-82.5 881.75,-89.5"/>
</g>
<!-- Node14 -->
<g id="node14" class="node">
<title>Node14</title>
<g id="a_node14"><a xlink:href="classVortex.html#a1c4d01b0ee5b7e612fee5f49b17e8816" target="_top" xlink:title=" ">
<polygon fill="white" stroke="black" points="752,-0.5 752,-19.5 856,-19.5 856,-0.5 752,-0.5"/>
<text text-anchor="middle" x="804" y="-7.5" font-family="Helvetica,sans-Serif" font-size="10.00">Vortex::rotateWinds</text>
</a>
</g>
</g>
<!-- Node1&#45;&gt;Node14 -->
<g id="edge15" class="edge">
<title>Node1&#45;&gt;Node14</title>
<path fill="none" stroke="midnightblue" d="M899.63,-69.31C888.01,-58.38 871.87,-44.28 856,-34 847.54,-28.52 837.63,-23.56 828.81,-19.6"/>
<polygon fill="midnightblue" stroke="midnightblue" points="897.25,-71.88 906.89,-76.28 902.1,-66.83 897.25,-71.88"/>
</g>
<!-- Node4 -->
<g id="node4" class="node">
<title>Node4</title>
<g id="a_node4"><a xlink:href="classVortex.html#a0ac693bb2d65ec6cf3e5b632e6af4152" target="_top" xlink:title=" ">
<polygon fill="white" stroke="black" points="620.5,-152.5 620.5,-171.5 713.5,-171.5 713.5,-152.5 620.5,-152.5"/>
<text text-anchor="middle" x="667" y="-159.5" font-family="Helvetica,sans-Serif" font-size="10.00">Vortex::setVortex</text>
</a>
</g>
</g>
<!-- Node3&#45;&gt;Node4 -->
<g id="edge3" class="edge">
<title>Node3&#45;&gt;Node4</title>
<path fill="none" stroke="midnightblue" d="M752.86,-162C740.1,-162 726.45,-162 713.91,-162"/>
<polygon fill="midnightblue" stroke="midnightblue" points="752.86,-165.5 762.86,-162 752.86,-158.5 752.86,-165.5"/>
</g>
<!-- Node6 -->
<g id="node6" class="node">
<title>Node6</title>
<g id="a_node6"><a xlink:href="classPhysical.html#a0d5a798f989b297250dec7184c34840a" target="_top" xlink:title=" ">
<polygon fill="white" stroke="black" points="521.5,-57.5 521.5,-76.5 574.5,-76.5 574.5,-57.5 521.5,-57.5"/>
<text text-anchor="middle" x="548" y="-64.5" font-family="Helvetica,sans-Serif" font-size="10.00">distance</text>
</a>
</g>
</g>
<!-- Node5&#45;&gt;Node6 -->
<g id="edge5" class="edge">
<title>Node5&#45;&gt;Node6</title>
<path fill="none" stroke="midnightblue" d="M607.63,-57.48C596.08,-59.35 584.52,-61.23 574.76,-62.82"/>
<polygon fill="midnightblue" stroke="midnightblue" points="608.43,-60.9 617.74,-55.84 607.3,-53.99 608.43,-60.9"/>
</g>
<!-- Node7 -->
<g id="node7" class="node">
<title>Node7</title>
<g id="a_node7"><a xlink:href="classPhysical.html#ac6d713f1908e7e0538db20f88b34f639" target="_top" xlink:title=" ">
<polygon fill="white" stroke="black" points="514,-19.5 514,-38.5 582,-38.5 582,-19.5 514,-19.5"/>
<text text-anchor="middle" x="548" y="-26.5" font-family="Helvetica,sans-Serif" font-size="10.00">sphericalDx</text>
</a>
</g>
</g>
<!-- Node5&#45;&gt;Node7 -->
<g id="edge6" class="edge">
<title>Node5&#45;&gt;Node7</title>
<path fill="none" stroke="midnightblue" d="M607.84,-38.55C599.03,-37.12 590.2,-35.69 582.17,-34.39"/>
<polygon fill="midnightblue" stroke="midnightblue" points="607.3,-42.01 617.74,-40.16 608.43,-35.1 607.3,-42.01"/>
</g>
<!-- Node8 -->
<g id="node8" class="node">
<title>Node8</title>
<g id="a_node8"><a xlink:href="classAtcf.html#a4fce87a97b674a5bbb54f01a8dd5c55e" target="_top" xlink:title=" ">
<polygon fill="white" stroke="black" points="402,-19.5 402,-38.5 478,-38.5 478,-19.5 402,-19.5"/>
<text text-anchor="middle" x="440" y="-26.5" font-family="Helvetica,sans-Serif" font-size="10.00">Atcf::uvTrans</text>
</a>
</g>
</g>
<!-- Node7&#45;&gt;Node8 -->
<g id="edge7" class="edge">
<title>Node7&#45;&gt;Node8</title>
<path fill="none" stroke="midnightblue" d="M503.67,-29C495.22,-29 486.42,-29 478.19,-29"/>
<polygon fill="midnightblue" stroke="midnightblue" points="503.75,-32.5 513.75,-29 503.75,-25.5 503.75,-32.5"/>
</g>
<!-- Node9 -->
<g id="node9" class="node">
<title>Node9</title>
<g id="a_node9"><a xlink:href="classAtcf.html#a4bec7c75f41a2643be3bccf63921dfa1" target="_top" xlink:title=" ">
<polygon fill="white" stroke="black" points="199,-14 199,-44 366,-44 366,-14 199,-14"/>
<text text-anchor="start" x="207" y="-32" font-family="Helvetica,sans-Serif" font-size="10.00">Atcf::calculateOverlandTranslation</text>
<text text-anchor="middle" x="282.5" y="-21" font-family="Helvetica,sans-Serif" font-size="10.00">Velocity</text>
</a>
</g>
</g>
<!-- Node8&#45;&gt;Node9 -->
<g id="edge8" class="edge">
<title>Node8&#45;&gt;Node9</title>
<path fill="none" stroke="midnightblue" d="M391.72,-29C383.54,-29 374.83,-29 366.04,-29"/>
<polygon fill="midnightblue" stroke="midnightblue" points="391.75,-32.5 401.75,-29 391.75,-25.5 391.75,-32.5"/>
</g>
<!-- Node10 -->
<g id="node10" class="node">
<title>Node10</title>
<g id="a_node10"><a xlink:href="classAtcf.html#aaab5dab5b969a87f538242e524431637" target="_top" xlink:title=" ">
<polygon fill="white" stroke="black" points="104,-19.5 104,-38.5 163,-38.5 163,-19.5 104,-19.5"/>
<text text-anchor="middle" x="133.5" y="-26.5" font-family="Helvetica,sans-Serif" font-size="10.00">Atcf::read</text>
</a>
</g>
</g>
<!-- Node9&#45;&gt;Node10 -->
<g id="edge9" class="edge">
<title>Node9&#45;&gt;Node10</title>
<path fill="none" stroke="midnightblue" d="M188.86,-29C179.67,-29 170.91,-29 163.21,-29"/>
<polygon fill="midnightblue" stroke="midnightblue" points="188.98,-32.5 198.98,-29 188.98,-25.5 188.98,-32.5"/>
</g>
<!-- Node11 -->
<g id="node11" class="node">
<title>Node11</title>
<g id="a_node11"><a xlink:href="classGahm.html#aaab5dab5b969a87f538242e524431637" target="_top" xlink:title=" ">
<polygon fill="white" stroke="black" points="0,-19.5 0,-38.5 68,-38.5 68,-19.5 0,-19.5"/>
<text text-anchor="middle" x="34" y="-26.5" font-family="Helvetica,sans-Serif" font-size="10.00">Gahm::read</text>
</a>
</g>
</g>
<!-- Node10&#45;&gt;Node11 -->
<g id="edge10" class="edge">
<title>Node10&#45;&gt;Node11</title>
<path fill="none" stroke="midnightblue" d="M93.5,-29C85.16,-29 76.43,-29 68.32,-29"/>
<polygon fill="midnightblue" stroke="midnightblue" points="93.77,-32.5 103.77,-29 93.77,-25.5 93.77,-32.5"/>
</g>
<!-- Node12&#45;&gt;Node2 -->
<g id="edge12" class="edge">
<title>Node12&#45;&gt;Node2</title>
<path fill="none" stroke="midnightblue" d="M760.8,-97.88C741.85,-103.21 719.81,-109.42 701.96,-114.44"/>
<polygon fill="midnightblue" stroke="midnightblue" points="761.99,-101.18 770.66,-95.1 760.09,-94.44 761.99,-101.18"/>
</g>
<!-- Node12&#45;&gt;Node5 -->
<g id="edge13" class="edge">
<title>Node12&#45;&gt;Node5</title>
<path fill="none" stroke="midnightblue" d="M760.8,-74.12C741.85,-68.79 719.81,-62.58 701.96,-57.56"/>
<polygon fill="midnightblue" stroke="midnightblue" points="760.09,-77.56 770.66,-76.9 761.99,-70.82 760.09,-77.56"/>
</g>
<!-- Node13 -->
<g id="node13" class="node">
<title>Node13</title>
<g id="a_node13"><a xlink:href="classPhysical.html#a9ebd20411025eccc634afb460a75df72" target="_top" xlink:title=" ">
<polygon fill="white" stroke="black" points="634,-76.5 634,-95.5 700,-95.5 700,-76.5 634,-76.5"/>
<text text-anchor="middle" x="667" y="-83.5" font-family="Helvetica,sans-Serif" font-size="10.00">radiusEarth</text>
</a>
</g>
</g>
<!-- Node12&#45;&gt;Node13 -->
<g id="edge14" class="edge">
<title>Node12&#45;&gt;Node13</title>
<path fill="none" stroke="midnightblue" d="M760.49,-86C740.94,-86 718.14,-86 700.07,-86"/>
<polygon fill="midnightblue" stroke="midnightblue" points="760.66,-89.5 770.66,-86 760.66,-82.5 760.66,-89.5"/>
</g>
<!-- Node15 -->
<g id="node15" class="node">
<title>Node15</title>
<g id="a_node15"><a xlink:href="classGahm.html#abd838ada495dbe369ae8b2cae185e063" target="_top" xlink:title=" ">
<polygon fill="white" stroke="black" points="625.5,-0.5 625.5,-19.5 708.5,-19.5 708.5,-0.5 625.5,-0.5"/>
<text text-anchor="middle" x="667" y="-7.5" font-family="Helvetica,sans-Serif" font-size="10.00">Gahm::getUvpr</text>
</a>
</g>
</g>
<!-- Node14&#45;&gt;Node15 -->
<g id="edge16" class="edge">
<title>Node14&#45;&gt;Node15</title>
<path fill="none" stroke="midnightblue" d="M741.74,-10C730.51,-10 719.04,-10 708.6,-10"/>
<polygon fill="midnightblue" stroke="midnightblue" points="741.96,-13.5 751.96,-10 741.96,-6.5 741.96,-13.5"/>
</g>
</g>
</svg>
