<?xml version="1.0" encoding="UTF-8" standalone="no"?>
<!DOCTYPE svg PUBLIC "-//W3C//DTD SVG 1.1//EN"
 "http://www.w3.org/Graphics/SVG/1.1/DTD/svg11.dtd">
<!-- Generated by graphviz version 2.47.1 (20210417.1919)
 -->
<!-- Title: setMissingRadiiToHalfNonzeroRadii Pages: 1 -->
<svg width="428pt" height="180pt"
 viewBox="0.00 0.00 428.00 180.00" xmlns="http://www.w3.org/2000/svg" xmlns:xlink="http://www.w3.org/1999/xlink">
<g id="graph0" class="graph" transform="scale(1 1) rotate(0) translate(4 176)">
<title>setMissingRadiiToHalfNonzeroRadii</title>
<polygon fill="white" stroke="transparent" points="-4,4 -4,-176 424,-176 424,4 -4,4"/>
<!-- Node1 -->
<g id="node1" class="node">
<title>Node1</title>
<g id="a_node1"><a xlink:title=" ">
<polygon fill="#bfbfbf" stroke="black" points="0,-71 0,-101 152,-101 152,-71 0,-71"/>
<text text-anchor="start" x="8" y="-89" font-family="Helvetica,sans-Serif" font-size="10.00">setMissingRadiiToHalfNonzero</text>
<text text-anchor="middle" x="76" y="-78" font-family="Helvetica,sans-Serif" font-size="10.00">Radii</text>
</a>
</g>
</g>
<!-- Node2 -->
<g id="node2" class="node">
<title>Node2</title>
<g id="a_node2"><a xlink:href="classAssumptions.html#a20319f7261289f879d667fe91034d503" target="_top" xlink:title=" ">
<polygon fill="white" stroke="black" points="189.5,-152.5 189.5,-171.5 284.5,-171.5 284.5,-152.5 189.5,-152.5"/>
<text text-anchor="middle" x="237" y="-159.5" font-family="Helvetica,sans-Serif" font-size="10.00">Assumptions::add</text>
</a>
</g>
</g>
<!-- Node1&#45;&gt;Node2 -->
<g id="edge1" class="edge">
<title>Node1&#45;&gt;Node2</title>
<path fill="none" stroke="midnightblue" d="M104.46,-101.05C126.7,-113.01 159,-129.85 188,-143 192.15,-144.88 196.55,-146.77 200.93,-148.58"/>
<polygon fill="midnightblue" stroke="midnightblue" points="199.81,-151.9 210.4,-152.4 202.43,-145.41 199.81,-151.9"/>
</g>
<!-- Node3 -->
<g id="node3" class="node">
<title>Node3</title>
<g id="a_node3"><a xlink:href="classCircularArray.html#a0642b8def16b83c1fff8f93326d2c842" target="_top" xlink:title=" ">
<polygon fill="white" stroke="black" points="193,-114.5 193,-133.5 281,-133.5 281,-114.5 193,-114.5"/>
<text text-anchor="middle" x="237" y="-121.5" font-family="Helvetica,sans-Serif" font-size="10.00">CircularArray::at</text>
</a>
</g>
</g>
<!-- Node1&#45;&gt;Node3 -->
<g id="edge2" class="edge">
<title>Node1&#45;&gt;Node3</title>
<path fill="none" stroke="midnightblue" d="M139.84,-101.02C155.22,-104.69 171.46,-108.58 186.13,-112.08"/>
<polygon fill="midnightblue" stroke="midnightblue" points="185.47,-115.52 196.01,-114.44 187.1,-108.71 185.47,-115.52"/>
</g>
<!-- Node5 -->
<g id="node5" class="node">
<title>Node5</title>
<g id="a_node5"><a xlink:href="classAtcf.html#a2c3a3d17067e7d0d53018ec96531bd3d" target="_top" xlink:title=" ">
<polygon fill="white" stroke="black" points="215,-76.5 215,-95.5 259,-95.5 259,-76.5 215,-76.5"/>
<text text-anchor="middle" x="237" y="-83.5" font-family="Helvetica,sans-Serif" font-size="10.00">record</text>
</a>
</g>
</g>
<!-- Node1&#45;&gt;Node5 -->
<g id="edge4" class="edge">
<title>Node1&#45;&gt;Node5</title>
<path fill="none" stroke="midnightblue" d="M152.31,-86C170.78,-86 189.56,-86 204.63,-86"/>
<polygon fill="midnightblue" stroke="midnightblue" points="204.9,-89.5 214.9,-86 204.89,-82.5 204.9,-89.5"/>
</g>
<!-- Node6 -->
<g id="node6" class="node">
<title>Node6</title>
<g id="a_node6"><a xlink:href="classCircularArray.html#a43241fcadbf56b0a7c3f7242acf46eed" target="_top" xlink:title=" ">
<polygon fill="white" stroke="black" points="190.5,-38.5 190.5,-57.5 283.5,-57.5 283.5,-38.5 190.5,-38.5"/>
<text text-anchor="middle" x="237" y="-45.5" font-family="Helvetica,sans-Serif" font-size="10.00">CircularArray::set</text>
</a>
</g>
</g>
<!-- Node1&#45;&gt;Node6 -->
<g id="edge5" class="edge">
<title>Node1&#45;&gt;Node6</title>
<path fill="none" stroke="midnightblue" d="M139.84,-70.98C155.22,-67.31 171.46,-63.42 186.13,-59.92"/>
<polygon fill="midnightblue" stroke="midnightblue" points="187.1,-63.29 196.01,-57.56 185.47,-56.48 187.1,-63.29"/>
</g>
<!-- Node7 -->
<g id="node7" class="node">
<title>Node7</title>
<g id="a_node7"><a xlink:href="classCircularArray.html#af837dccb72214bb010abc276fb618c36" target="_top" xlink:title=" ">
<polygon fill="white" stroke="black" points="188,-0.5 188,-19.5 286,-19.5 286,-0.5 188,-0.5"/>
<text text-anchor="middle" x="237" y="-7.5" font-family="Helvetica,sans-Serif" font-size="10.00">CircularArray::size</text>
</a>
</g>
</g>
<!-- Node1&#45;&gt;Node7 -->
<g id="edge7" class="edge">
<title>Node1&#45;&gt;Node7</title>
<path fill="none" stroke="midnightblue" d="M104.46,-70.95C126.7,-58.99 159,-42.15 188,-29 192.15,-27.12 196.55,-25.23 200.93,-23.42"/>
<polygon fill="midnightblue" stroke="midnightblue" points="202.43,-26.59 210.4,-19.6 199.81,-20.1 202.43,-26.59"/>
</g>
<!-- Node4 -->
<g id="node4" class="node">
<title>Node4</title>
<g id="a_node4"><a xlink:href="classCircularArray.html#ae9ee07d89dc4196acefc5b290b9275b8" target="_top" xlink:title=" ">
<polygon fill="white" stroke="black" points="322,-71 322,-101 420,-101 420,-71 322,-71"/>
<text text-anchor="start" x="330" y="-89" font-family="Helvetica,sans-Serif" font-size="10.00">CircularArray::mod</text>
<text text-anchor="middle" x="371" y="-78" font-family="Helvetica,sans-Serif" font-size="10.00">_floor</text>
</a>
</g>
</g>
<!-- Node3&#45;&gt;Node4 -->
<g id="edge3" class="edge">
<title>Node3&#45;&gt;Node4</title>
<path fill="none" stroke="midnightblue" d="M271.31,-114.41C283.66,-110.85 298.06,-106.71 311.98,-102.7"/>
<polygon fill="midnightblue" stroke="midnightblue" points="313.35,-105.95 321.99,-99.82 311.41,-99.22 313.35,-105.95"/>
</g>
<!-- Node6&#45;&gt;Node4 -->
<g id="edge6" class="edge">
<title>Node6&#45;&gt;Node4</title>
<path fill="none" stroke="midnightblue" d="M271.31,-57.59C283.66,-61.15 298.06,-65.29 311.98,-69.3"/>
<polygon fill="midnightblue" stroke="midnightblue" points="311.41,-72.78 321.99,-72.18 313.35,-66.05 311.41,-72.78"/>
</g>
</g>
</svg>
