<?xml version="1.0" encoding="UTF-8" standalone="no"?>
<!DOCTYPE svg PUBLIC "-//W3C//DTD SVG 1.1//EN"
 "http://www.w3.org/Graphics/SVG/1.1/DTD/svg11.dtd">
<!-- Generated by graphviz version 2.47.1 (20210417.1919)
 -->
<!-- Title: get Pages: 1 -->
<svg width="303pt" height="180pt"
 viewBox="0.00 0.00 303.00 180.00" xmlns="http://www.w3.org/2000/svg" xmlns:xlink="http://www.w3.org/1999/xlink">
<g id="graph0" class="graph" transform="scale(1 1) rotate(0) translate(4 176)">
<title>get</title>
<polygon fill="white" stroke="transparent" points="-4,4 -4,-176 299,-176 299,4 -4,4"/>
<!-- Node1 -->
<g id="node1" class="node">
<title>Node1</title>
<g id="a_node1"><a xlink:title=" ">
<polygon fill="#bfbfbf" stroke="black" points="0,-76.5 0,-95.5 30,-95.5 30,-76.5 0,-76.5"/>
<text text-anchor="middle" x="15" y="-83.5" font-family="Helvetica,sans-Serif" font-size="10.00">get</text>
</a>
</g>
</g>
<!-- Node2 -->
<g id="node2" class="node">
<title>Node2</title>
<g id="a_node2"><a xlink:href="namespacePhysical.html#aedb77f347557f2942e99437f55e976a8" target="_top" xlink:title=" ">
<polygon fill="white" stroke="black" points="81,-152.5 81,-171.5 176,-171.5 176,-152.5 81,-152.5"/>
<text text-anchor="middle" x="128.5" y="-159.5" font-family="Helvetica,sans-Serif" font-size="10.00">Physical::deg2rad</text>
</a>
</g>
</g>
<!-- Node1&#45;&gt;Node2 -->
<g id="edge1" class="edge">
<title>Node1&#45;&gt;Node2</title>
<path fill="none" stroke="midnightblue" d="M21.9,-95.53C30.22,-108.18 46.56,-130.4 66,-143 69.14,-145.03 72.51,-146.86 75.99,-148.5"/>
<polygon fill="midnightblue" stroke="midnightblue" points="74.84,-151.81 85.41,-152.42 77.52,-145.35 74.84,-151.81"/>
</g>
<!-- Node3 -->
<g id="node3" class="node">
<title>Node3</title>
<g id="a_node3"><a xlink:href="namespacePhysical.html#a8b95a30e294bd7aa1169d0a92c65a009" target="_top" xlink:title=" ">
<polygon fill="white" stroke="black" points="67.5,-114.5 67.5,-133.5 189.5,-133.5 189.5,-114.5 67.5,-114.5"/>
<text text-anchor="middle" x="128.5" y="-121.5" font-family="Helvetica,sans-Serif" font-size="10.00">Physical::quadrantAngle</text>
</a>
</g>
</g>
<!-- Node1&#45;&gt;Node3 -->
<g id="edge2" class="edge">
<title>Node1&#45;&gt;Node3</title>
<path fill="none" stroke="midnightblue" d="M30.35,-91.73C40.3,-95.64 53.88,-100.83 66,-105 72.17,-107.12 78.73,-109.27 85.17,-111.31"/>
<polygon fill="midnightblue" stroke="midnightblue" points="84.55,-114.78 95.14,-114.42 86.64,-108.1 84.55,-114.78"/>
</g>
<!-- Node4 -->
<g id="node4" class="node">
<title>Node4</title>
<g id="a_node4"><a xlink:href="classVortex.html#ae388b86da66acaa92e09cdf7167b8bc0" target="_top" xlink:title=" ">
<polygon fill="white" stroke="black" points="72.5,-76.5 72.5,-95.5 184.5,-95.5 184.5,-76.5 72.5,-76.5"/>
<text text-anchor="middle" x="128.5" y="-83.5" font-family="Helvetica,sans-Serif" font-size="10.00">Vortex::setStormData</text>
</a>
</g>
</g>
<!-- Node1&#45;&gt;Node4 -->
<g id="edge3" class="edge">
<title>Node1&#45;&gt;Node4</title>
<path fill="none" stroke="midnightblue" d="M30.12,-86C38.59,-86 50.04,-86 62.11,-86"/>
<polygon fill="midnightblue" stroke="midnightblue" points="62.34,-89.5 72.34,-86 62.34,-82.5 62.34,-89.5"/>
</g>
<!-- Node5 -->
<g id="node5" class="node">
<title>Node5</title>
<g id="a_node5"><a xlink:href="namespacePhysical.html#a3fccff272b0fae8ead3c2c05f62b3620" target="_top" xlink:title=" ">
<polygon fill="white" stroke="black" points="87,-38.5 87,-57.5 170,-57.5 170,-38.5 87,-38.5"/>
<text text-anchor="middle" x="128.5" y="-45.5" font-family="Helvetica,sans-Serif" font-size="10.00">Physical::twopi</text>
</a>
</g>
</g>
<!-- Node1&#45;&gt;Node5 -->
<g id="edge4" class="edge">
<title>Node1&#45;&gt;Node5</title>
<path fill="none" stroke="midnightblue" d="M30.35,-80.27C40.3,-76.36 53.88,-71.17 66,-67 72.17,-64.88 78.73,-62.73 85.17,-60.69"/>
<polygon fill="midnightblue" stroke="midnightblue" points="86.64,-63.9 95.14,-57.58 84.55,-57.22 86.64,-63.9"/>
</g>
<!-- Node7 -->
<g id="node7" class="node">
<title>Node7</title>
<g id="a_node7"><a xlink:href="namespacePhysical.html#a7a0e10124e38dbffecaa523c97b21e4a" target="_top" xlink:title=" ">
<polygon fill="white" stroke="black" points="66,-0.5 66,-19.5 191,-19.5 191,-0.5 66,-0.5"/>
<text text-anchor="middle" x="128.5" y="-7.5" font-family="Helvetica,sans-Serif" font-size="10.00">Physical::windReduction</text>
</a>
</g>
</g>
<!-- Node1&#45;&gt;Node7 -->
<g id="edge6" class="edge">
<title>Node1&#45;&gt;Node7</title>
<path fill="none" stroke="midnightblue" d="M21.9,-76.47C30.22,-63.82 46.56,-41.6 66,-29 69.14,-26.97 72.51,-25.14 75.99,-23.5"/>
<polygon fill="midnightblue" stroke="midnightblue" points="77.52,-26.65 85.41,-19.58 74.84,-20.19 77.52,-26.65"/>
</g>
<!-- Node6 -->
<g id="node6" class="node">
<title>Node6</title>
<g id="a_node6"><a xlink:href="namespacePhysical.html#aceeafe6dfcafc1ccd35aee635c075f09" target="_top" xlink:title=" ">
<polygon fill="white" stroke="black" points="227,-38.5 227,-57.5 295,-57.5 295,-38.5 227,-38.5"/>
<text text-anchor="middle" x="261" y="-45.5" font-family="Helvetica,sans-Serif" font-size="10.00">Physical::pi</text>
</a>
</g>
</g>
<!-- Node5&#45;&gt;Node6 -->
<g id="edge5" class="edge">
<title>Node5&#45;&gt;Node6</title>
<path fill="none" stroke="midnightblue" d="M170.08,-48C184.91,-48 201.74,-48 216.79,-48"/>
<polygon fill="midnightblue" stroke="midnightblue" points="216.88,-51.5 226.88,-48 216.88,-44.5 216.88,-51.5"/>
</g>
</g>
</svg>
