<?xml version="1.0" encoding="UTF-8" standalone="no"?>
<!DOCTYPE svg PUBLIC "-//W3C//DTD SVG 1.1//EN"
 "http://www.w3.org/Graphics/SVG/1.1/DTD/svg11.dtd">
<!-- Generated by graphviz version 2.47.1 (20210417.1919)
 -->
<!-- Title: computeQuadrantVectorAngle Pages: 1 -->
<svg width="417pt" height="66pt"
 viewBox="0.00 0.00 417.00 66.00" xmlns="http://www.w3.org/2000/svg" xmlns:xlink="http://www.w3.org/1999/xlink">
<g id="graph0" class="graph" transform="scale(1 1) rotate(0) translate(4 62)">
<title>computeQuadrantVectorAngle</title>
<polygon fill="white" stroke="transparent" points="-4,4 -4,-62 413,-62 413,4 -4,4"/>
<!-- Node1 -->
<g id="node1" class="node">
<title>Node1</title>
<g id="a_node1"><a xlink:title=" ">
<polygon fill="#bfbfbf" stroke="black" points="0,-19.5 0,-38.5 147,-38.5 147,-19.5 0,-19.5"/>
<text text-anchor="middle" x="73.5" y="-26.5" font-family="Helvetica,sans-Serif" font-size="10.00">computeQuadrantVectorAngle</text>
</a>
</g>
</g>
<!-- Node2 -->
<g id="node2" class="node">
<title>Node2</title>
<g id="a_node2"><a xlink:href="namespacePhysical.html#a92b1fc7520d88e5945e2e7e8c8bc006e" target="_top" xlink:title=" ">
<polygon fill="white" stroke="black" points="202.5,-38.5 202.5,-57.5 285.5,-57.5 285.5,-38.5 202.5,-38.5"/>
<text text-anchor="middle" x="244" y="-45.5" font-family="Helvetica,sans-Serif" font-size="10.00">Physical::halfpi</text>
</a>
</g>
</g>
<!-- Node1&#45;&gt;Node2 -->
<g id="edge1" class="edge">
<title>Node1&#45;&gt;Node2</title>
<path fill="none" stroke="midnightblue" d="M147.43,-37.22C162.6,-38.93 178.27,-40.7 192.43,-42.3"/>
<polygon fill="midnightblue" stroke="midnightblue" points="192.11,-45.78 202.44,-43.43 192.89,-38.83 192.11,-45.78"/>
</g>
<!-- Node4 -->
<g id="node4" class="node">
<title>Node4</title>
<g id="a_node4"><a xlink:href="namespacePhysical.html#a8b95a30e294bd7aa1169d0a92c65a009" target="_top" xlink:title=" ">
<polygon fill="white" stroke="black" points="183,-0.5 183,-19.5 305,-19.5 305,-0.5 183,-0.5"/>
<text text-anchor="middle" x="244" y="-7.5" font-family="Helvetica,sans-Serif" font-size="10.00">Physical::quadrantAngle</text>
</a>
</g>
</g>
<!-- Node1&#45;&gt;Node4 -->
<g id="edge3" class="edge">
<title>Node1&#45;&gt;Node4</title>
<path fill="none" stroke="midnightblue" d="M147.43,-20.78C155.84,-19.83 164.4,-18.86 172.77,-17.92"/>
<polygon fill="midnightblue" stroke="midnightblue" points="173.32,-21.38 182.87,-16.78 172.54,-14.42 173.32,-21.38"/>
</g>
<!-- Node3 -->
<g id="node3" class="node">
<title>Node3</title>
<g id="a_node3"><a xlink:href="namespacePhysical.html#aceeafe6dfcafc1ccd35aee635c075f09" target="_top" xlink:title=" ">
<polygon fill="white" stroke="black" points="341,-38.5 341,-57.5 409,-57.5 409,-38.5 341,-38.5"/>
<text text-anchor="middle" x="375" y="-45.5" font-family="Helvetica,sans-Serif" font-size="10.00">Physical::pi</text>
</a>
</g>
</g>
<!-- Node2&#45;&gt;Node3 -->
<g id="edge2" class="edge">
<title>Node2&#45;&gt;Node3</title>
<path fill="none" stroke="midnightblue" d="M285.82,-48C300.07,-48 316.12,-48 330.58,-48"/>
<polygon fill="midnightblue" stroke="midnightblue" points="330.78,-51.5 340.78,-48 330.78,-44.5 330.78,-51.5"/>
</g>
</g>
</svg>
