<?xml version="1.0" encoding="UTF-8" standalone="no"?>
<!DOCTYPE svg PUBLIC "-//W3C//DTD SVG 1.1//EN"
 "http://www.w3.org/Graphics/SVG/1.1/DTD/svg11.dtd">
<!-- Generated by graphviz version 2.47.1 (20210417.1919)
 -->
<!-- Title: parseAtcfLine Pages: 1 -->
<!--zoomable 864 -->
<svg id="main" version="1.1" xmlns="http://www.w3.org/2000/svg" xmlns:xlink="http://www.w3.org/1999/xlink" xml:space="preserve" onload="init(evt)">
<style type="text/css"><![CDATA[
.edge:hover path { stroke: red; }
.edge:hover polygon { stroke: red; fill: red; }
]]></style>
<script type="text/javascript"><![CDATA[
var edges = document.getElementsByTagName('g');
if (edges && edges.length) {
  for (var i=0;i<edges.length;i++) {
    if (edges[i].id.substr(0,4)=='edge') {
      edges[i].setAttribute('class','edge');
    }
  }
}
]]></script>
        <defs>
                <circle id="rim" cx="0" cy="0" r="7"/>
                <circle id="rim2" cx="0" cy="0" r="3.5"/>
                <g id="zoomPlus">
                        <use xlink:href="#rim" fill="#404040">
                                <set attributeName="fill" to="#808080" begin="zoomplus.mouseover" end="zoomplus.mouseout"/>
                        </use>
                        <path d="M-4,0h8M0,-4v8" fill="none" stroke="white" stroke-width="1.5" pointer-events="none"/>
                </g>
                <g id="zoomMin">
                        <use xlink:href="#rim" fill="#404040">
                                <set attributeName="fill" to="#808080" begin="zoomminus.mouseover" end="zoomminus.mouseout"/>
                        </use>
                        <path d="M-4,0h8" fill="none" stroke="white" stroke-width="1.5" pointer-events="none"/>
                </g>
                <g id="dirArrow">
                        <path fill="none" stroke="white" stroke-width="1.5" d="M0,-3.0v7 M-2.5,-0.5L0,-3.0L2.5,-0.5"/>
                </g>
               <g id="resetDef">
                       <use xlink:href="#rim2" fill="#404040">
                               <set attributeName="fill" to="#808080" begin="reset.mouseover" end="reset.mouseout"/>
                       </use>
               </g>
        </defs>

<script type="text/javascript">
var viewWidth = 376;
var viewHeight = 864;
var sectionId = 'dynsection-20';
</script>
<script xlink:href="svgpan.js"/>
<svg id="graph" class="graph">
<g id="viewport">
<title>parseAtcfLine</title>
<polygon fill="white" stroke="transparent" points="-4,4 -4,-860 372,-860 372,4 -4,4"/>
<!-- Node1 -->
<g id="node1" class="node">
<title>Node1</title>
<g id="a_node1"><a xlink:title=" ">
<polygon fill="#bfbfbf" stroke="black" points="0,-418.5 0,-437.5 77,-437.5 77,-418.5 0,-418.5"/>
<text text-anchor="middle" x="38.5" y="-425.5" font-family="Helvetica,sans-Serif" font-size="10.00">parseAtcfLine</text>
</a>
</g>
</g>
<!-- Node2 -->
<g id="node2" class="node">
<title>Node2</title>
<g id="a_node2"><a xlink:href="classAtcfLine.html#a35c13e37b2ea718539aa5f54b88eb55b" target="_top" xlink:title=" ">
<polygon fill="white" stroke="black" points="148.5,-836.5 148.5,-855.5 201.5,-855.5 201.5,-836.5 148.5,-836.5"/>
<text text-anchor="middle" x="175" y="-843.5" font-family="Helvetica,sans-Serif" font-size="10.00">AtcfLine</text>
</a>
</g>
</g>
<!-- Node1&#45;&gt;Node2 -->
<g id="edge1" class="edge">
<title>Node1&#45;&gt;Node2</title>
<path fill="none" stroke="midnightblue" d="M39.96,-437.64C42.75,-492.62 59.25,-766.4 113,-827 119.61,-834.45 129.09,-839.01 138.61,-841.8"/>
<polygon fill="midnightblue" stroke="midnightblue" points="137.9,-845.22 148.43,-844.1 139.49,-838.41 137.9,-845.22"/>
</g>
<!-- Node3 -->
<g id="node3" class="node">
<title>Node3</title>
<g id="a_node3"><a xlink:href="classAtcfLine.html#acc738a7f1329678309e649d09156d29c" target="_top" xlink:title=" ">
<polygon fill="white" stroke="black" points="142.5,-798.5 142.5,-817.5 207.5,-817.5 207.5,-798.5 142.5,-798.5"/>
<text text-anchor="middle" x="175" y="-805.5" font-family="Helvetica,sans-Serif" font-size="10.00">addIsotach</text>
</a>
</g>
</g>
<!-- Node1&#45;&gt;Node3 -->
<g id="edge2" class="edge">
<title>Node1&#45;&gt;Node3</title>
<path fill="none" stroke="midnightblue" d="M40.17,-437.73C43.92,-489.74 64.01,-734.78 113,-789 118.16,-794.71 125.01,-798.73 132.26,-801.54"/>
<polygon fill="midnightblue" stroke="midnightblue" points="131.66,-805.02 142.25,-804.68 133.76,-798.34 131.66,-805.02"/>
</g>
<!-- Node4 -->
<g id="node4" class="node">
<title>Node4</title>
<g id="a_node4"><a xlink:href="classIsotach.html#ad8db29d5da4482e0ac19ece84e108947" target="_top" xlink:title=" ">
<polygon fill="white" stroke="black" points="113,-760.5 113,-779.5 237,-779.5 237,-760.5 113,-760.5"/>
<text text-anchor="middle" x="175" y="-767.5" font-family="Helvetica,sans-Serif" font-size="10.00">Isotach::codeFromString</text>
</a>
</g>
</g>
<!-- Node1&#45;&gt;Node4 -->
<g id="edge3" class="edge">
<title>Node1&#45;&gt;Node4</title>
<path fill="none" stroke="midnightblue" d="M40.41,-437.65C45.17,-486.18 68.68,-703.08 113,-751 114.36,-752.47 115.82,-753.82 117.38,-755.07"/>
<polygon fill="midnightblue" stroke="midnightblue" points="115.49,-758.02 125.79,-760.5 119.28,-752.13 115.49,-758.02"/>
</g>
<!-- Node6 -->
<g id="node6" class="node">
<title>Node6</title>
<g id="a_node6"><a xlink:href="classPhysical.html#a446b34a690f7a1f10433e477ad0ac973" target="_top" xlink:title=" ">
<polygon fill="white" stroke="black" points="131.5,-722.5 131.5,-741.5 218.5,-741.5 218.5,-722.5 131.5,-722.5"/>
<text text-anchor="middle" x="175" y="-729.5" font-family="Helvetica,sans-Serif" font-size="10.00">Physical::kt2ms</text>
</a>
</g>
</g>
<!-- Node1&#45;&gt;Node6 -->
<g id="edge5" class="edge">
<title>Node1&#45;&gt;Node6</title>
<path fill="none" stroke="midnightblue" d="M40.73,-437.69C46.63,-482.76 73.37,-671.36 113,-713 115.76,-715.9 118.95,-718.36 122.41,-720.45"/>
<polygon fill="midnightblue" stroke="midnightblue" points="120.9,-723.61 131.41,-724.9 124,-717.33 120.9,-723.61"/>
</g>
<!-- Node8 -->
<g id="node8" class="node">
<title>Node8</title>
<g id="a_node8"><a xlink:href="classAtcfLine.html#af473414f523913837f7ee7520fa9e63d" target="_top" xlink:title=" ">
<polygon fill="white" stroke="black" points="306,-627.5 306,-646.5 335,-646.5 335,-627.5 306,-627.5"/>
<text text-anchor="middle" x="320.5" y="-634.5" font-family="Helvetica,sans-Serif" font-size="10.00">lat</text>
</a>
</g>
</g>
<!-- Node1&#45;&gt;Node8 -->
<g id="edge7" class="edge">
<title>Node1&#45;&gt;Node8</title>
<path fill="none" stroke="midnightblue" d="M40.52,-437.63C44.19,-467.04 59.45,-556.28 113,-599 141.02,-621.36 247.87,-631.79 295.89,-635.43"/>
<polygon fill="midnightblue" stroke="midnightblue" points="295.75,-638.92 305.97,-636.15 296.25,-631.94 295.75,-638.92"/>
</g>
<!-- Node9 -->
<g id="node9" class="node">
<title>Node9</title>
<g id="a_node9"><a xlink:href="classAtcfLine.html#abf1373f021c76c8df3ab03e92eddc42f" target="_top" xlink:title=" ">
<polygon fill="white" stroke="black" points="306,-513.5 306,-532.5 335,-532.5 335,-513.5 306,-513.5"/>
<text text-anchor="middle" x="320.5" y="-520.5" font-family="Helvetica,sans-Serif" font-size="10.00">lon</text>
</a>
</g>
</g>
<!-- Node1&#45;&gt;Node9 -->
<g id="edge8" class="edge">
<title>Node1&#45;&gt;Node9</title>
<path fill="none" stroke="midnightblue" d="M43.4,-437.62C52.24,-457.93 75.93,-504.81 113,-523 173.14,-552.51 255.51,-538.94 295.61,-529.46"/>
<polygon fill="midnightblue" stroke="midnightblue" points="296.67,-532.8 305.53,-526.99 294.98,-526.01 296.67,-532.8"/>
</g>
<!-- Node10 -->
<g id="node10" class="node">
<title>Node10</title>
<g id="a_node10"><a xlink:href="classPhysical.html#a758801eb99ef705bace966b7133d0621" target="_top" xlink:title=" ">
<polygon fill="white" stroke="black" points="127.5,-684.5 127.5,-703.5 222.5,-703.5 222.5,-684.5 127.5,-684.5"/>
<text text-anchor="middle" x="175" y="-691.5" font-family="Helvetica,sans-Serif" font-size="10.00">Physical::nmi2km</text>
</a>
</g>
</g>
<!-- Node1&#45;&gt;Node10 -->
<g id="edge9" class="edge">
<title>Node1&#45;&gt;Node10</title>
<path fill="none" stroke="midnightblue" d="M39.35,-437.62C39.31,-474.08 44.16,-605.28 113,-675 114.65,-676.67 116.44,-678.19 118.34,-679.58"/>
<polygon fill="midnightblue" stroke="midnightblue" points="116.86,-682.77 127.25,-684.85 120.42,-676.75 116.86,-682.77"/>
</g>
<!-- Node12 -->
<g id="node12" class="node">
<title>Node12</title>
<g id="a_node12"><a xlink:href="classAtcfLine.html#aed5531012579283c189c8bafe7738fc9" target="_top" xlink:title=" ">
<polygon fill="white" stroke="black" points="126.5,-570.5 126.5,-589.5 223.5,-589.5 223.5,-570.5 126.5,-570.5"/>
<text text-anchor="middle" x="175" y="-577.5" font-family="Helvetica,sans-Serif" font-size="10.00">referenceDatetime</text>
</a>
</g>
</g>
<!-- Node1&#45;&gt;Node12 -->
<g id="edge11" class="edge">
<title>Node1&#45;&gt;Node12</title>
<path fill="none" stroke="midnightblue" d="M42.58,-437.82C50.48,-461.44 73.63,-522.01 113,-556 117.58,-559.95 122.89,-563.3 128.43,-566.12"/>
<polygon fill="midnightblue" stroke="midnightblue" points="127.32,-569.46 137.87,-570.39 130.2,-563.08 127.32,-569.46"/>
</g>
<!-- Node13 -->
<g id="node13" class="node">
<title>Node13</title>
<g id="a_node13"><a xlink:href="classAtcfLine.html#a10cf0c5bc3997b3342597aa7ebee21b9" target="_top" xlink:title=" ">
<polygon fill="white" stroke="black" points="147.5,-456.5 147.5,-475.5 202.5,-475.5 202.5,-456.5 147.5,-456.5"/>
<text text-anchor="middle" x="175" y="-463.5" font-family="Helvetica,sans-Serif" font-size="10.00">setBasin</text>
</a>
</g>
</g>
<!-- Node1&#45;&gt;Node13 -->
<g id="edge12" class="edge">
<title>Node1&#45;&gt;Node13</title>
<path fill="none" stroke="midnightblue" d="M73.44,-437.59C93.01,-443.12 117.62,-450.07 137.6,-455.71"/>
<polygon fill="midnightblue" stroke="midnightblue" points="136.7,-459.1 147.28,-458.45 138.6,-452.36 136.7,-459.1"/>
</g>
<!-- Node15 -->
<g id="node15" class="node">
<title>Node15</title>
<g id="a_node15"><a xlink:href="classAtcfLine.html#ae955293026a90f5e5288b507deebdcac" target="_top" xlink:title=" ">
<polygon fill="white" stroke="black" points="124.5,-418.5 124.5,-437.5 225.5,-437.5 225.5,-418.5 124.5,-418.5"/>
<text text-anchor="middle" x="175" y="-425.5" font-family="Helvetica,sans-Serif" font-size="10.00">setCycloneNumber</text>
</a>
</g>
</g>
<!-- Node1&#45;&gt;Node15 -->
<g id="edge14" class="edge">
<title>Node1&#45;&gt;Node15</title>
<path fill="none" stroke="midnightblue" d="M77.32,-428C88.74,-428 101.56,-428 114.04,-428"/>
<polygon fill="midnightblue" stroke="midnightblue" points="114.4,-431.5 124.4,-428 114.4,-424.5 114.4,-431.5"/>
</g>
<!-- Node17 -->
<g id="node17" class="node">
<title>Node17</title>
<g id="a_node17"><a xlink:href="classAtcfLine.html#a0bad5c6c920656697893a8ddc09076de" target="_top" xlink:title=" ">
<polygon fill="white" stroke="black" points="140,-342.5 140,-361.5 210,-361.5 210,-342.5 140,-342.5"/>
<text text-anchor="middle" x="175" y="-349.5" font-family="Helvetica,sans-Serif" font-size="10.00">setDatetime</text>
</a>
</g>
</g>
<!-- Node1&#45;&gt;Node17 -->
<g id="edge16" class="edge">
<title>Node1&#45;&gt;Node17</title>
<path fill="none" stroke="midnightblue" d="M49.62,-418.2C63.09,-405.66 88.09,-383.99 113,-371 118.36,-368.21 124.19,-365.74 130.06,-363.59"/>
<polygon fill="midnightblue" stroke="midnightblue" points="131.54,-366.79 139.9,-360.27 129.3,-360.15 131.54,-366.79"/>
</g>
<!-- Node19 -->
<g id="node19" class="node">
<title>Node19</title>
<g id="a_node19"><a xlink:href="classAtcfLine.html#ae6665099efc25d2f067359712c403a28" target="_top" xlink:title=" ">
<polygon fill="white" stroke="black" points="153,-646.5 153,-665.5 197,-665.5 197,-646.5 153,-646.5"/>
<text text-anchor="middle" x="175" y="-653.5" font-family="Helvetica,sans-Serif" font-size="10.00">setLat</text>
</a>
</g>
</g>
<!-- Node1&#45;&gt;Node19 -->
<g id="edge18" class="edge">
<title>Node1&#45;&gt;Node19</title>
<path fill="none" stroke="midnightblue" d="M40.21,-437.55C43.09,-469.52 56.61,-573.94 113,-632 121.05,-640.29 132.31,-645.78 142.97,-649.39"/>
<polygon fill="midnightblue" stroke="midnightblue" points="142.3,-652.84 152.88,-652.3 144.27,-646.12 142.3,-652.84"/>
</g>
<!-- Node20 -->
<g id="node20" class="node">
<title>Node20</title>
<g id="a_node20"><a xlink:href="classAtcfLine.html#a820d2d4a882e977cc3e1a4e543067428" target="_top" xlink:title=" ">
<polygon fill="white" stroke="black" points="152,-494.5 152,-513.5 198,-513.5 198,-494.5 152,-494.5"/>
<text text-anchor="middle" x="175" y="-501.5" font-family="Helvetica,sans-Serif" font-size="10.00">setLon</text>
</a>
</g>
</g>
<!-- Node1&#45;&gt;Node20 -->
<g id="edge20" class="edge">
<title>Node1&#45;&gt;Node20</title>
<path fill="none" stroke="midnightblue" d="M49.62,-437.8C63.09,-450.34 88.09,-472.01 113,-485 122.05,-489.72 132.48,-493.5 142.12,-496.41"/>
<polygon fill="midnightblue" stroke="midnightblue" points="141.22,-499.79 151.8,-499.13 143.12,-493.06 141.22,-499.79"/>
</g>
<!-- Node21 -->
<g id="node21" class="node">
<title>Node21</title>
<g id="a_node21"><a xlink:href="classAtcfLine.html#a70386cf97cc13ad4eccb2556d0339f0a" target="_top" xlink:title=" ">
<polygon fill="white" stroke="black" points="149.5,-304.5 149.5,-323.5 200.5,-323.5 200.5,-304.5 149.5,-304.5"/>
<text text-anchor="middle" x="175" y="-311.5" font-family="Helvetica,sans-Serif" font-size="10.00">setMslp</text>
</a>
</g>
</g>
<!-- Node1&#45;&gt;Node21 -->
<g id="edge22" class="edge">
<title>Node1&#45;&gt;Node21</title>
<path fill="none" stroke="midnightblue" d="M44.34,-418.34C54.44,-399.18 79.6,-356.2 113,-333 120.89,-327.52 130.43,-323.57 139.6,-320.74"/>
<polygon fill="midnightblue" stroke="midnightblue" points="140.58,-324.11 149.3,-318.1 138.74,-317.35 140.58,-324.11"/>
</g>
<!-- Node23 -->
<g id="node23" class="node">
<title>Node23</title>
<g id="a_node23"><a xlink:href="classAtcfLine.html#ae091671d04a10571b3788f0e2877ee32" target="_top" xlink:title=" ">
<polygon fill="white" stroke="black" points="145.5,-266.5 145.5,-285.5 204.5,-285.5 204.5,-266.5 145.5,-266.5"/>
<text text-anchor="middle" x="175" y="-273.5" font-family="Helvetica,sans-Serif" font-size="10.00">setPouter</text>
</a>
</g>
</g>
<!-- Node1&#45;&gt;Node23 -->
<g id="edge24" class="edge">
<title>Node1&#45;&gt;Node23</title>
<path fill="none" stroke="midnightblue" d="M42.1,-418.34C49.17,-393.9 71.08,-329.17 113,-295 119.54,-289.67 127.58,-285.83 135.65,-283.06"/>
<polygon fill="midnightblue" stroke="midnightblue" points="136.8,-286.37 145.41,-280.2 134.83,-279.66 136.8,-286.37"/>
</g>
<!-- Node25 -->
<g id="node25" class="node">
<title>Node25</title>
<g id="a_node25"><a xlink:href="classAtcfLine.html#a34c654291dd08cde0d1de4fb6d0a3704" target="_top" xlink:title=" ">
<polygon fill="white" stroke="black" points="130.5,-228.5 130.5,-247.5 219.5,-247.5 219.5,-228.5 130.5,-228.5"/>
<text text-anchor="middle" x="175" y="-235.5" font-family="Helvetica,sans-Serif" font-size="10.00">setRadiusPouter</text>
</a>
</g>
</g>
<!-- Node1&#45;&gt;Node25 -->
<g id="edge26" class="edge">
<title>Node1&#45;&gt;Node25</title>
<path fill="none" stroke="midnightblue" d="M40.82,-418.24C45.26,-389.21 62.35,-302.64 113,-257 115.59,-254.66 118.47,-252.62 121.52,-250.82"/>
<polygon fill="midnightblue" stroke="midnightblue" points="123.07,-253.96 130.49,-246.39 119.97,-247.68 123.07,-253.96"/>
</g>
<!-- Node27 -->
<g id="node27" class="node">
<title>Node27</title>
<g id="a_node27"><a xlink:href="classAtcfLine.html#a0fc89ec97a25a3e2a23bbc3c2b4bda56" target="_top" xlink:title=" ">
<polygon fill="white" stroke="black" points="117.5,-380.5 117.5,-399.5 232.5,-399.5 232.5,-380.5 117.5,-380.5"/>
<text text-anchor="middle" x="175" y="-387.5" font-family="Helvetica,sans-Serif" font-size="10.00">setReferenceDatetime</text>
</a>
</g>
</g>
<!-- Node1&#45;&gt;Node27 -->
<g id="edge28" class="edge">
<title>Node1&#45;&gt;Node27</title>
<path fill="none" stroke="midnightblue" d="M73.44,-418.41C90.72,-413.53 111.93,-407.54 130.41,-402.32"/>
<polygon fill="midnightblue" stroke="midnightblue" points="131.4,-405.67 140.07,-399.59 129.5,-398.94 131.4,-405.67"/>
</g>
<!-- Node28 -->
<g id="node28" class="node">
<title>Node28</title>
<g id="a_node28"><a xlink:href="classAtcfLine.html#ad57a2b2bb9a17190f60c202bcc91f7c1" target="_top" xlink:title=" ">
<polygon fill="white" stroke="black" points="152,-152.5 152,-171.5 198,-171.5 198,-152.5 152,-152.5"/>
<text text-anchor="middle" x="175" y="-159.5" font-family="Helvetica,sans-Serif" font-size="10.00">setTau</text>
</a>
</g>
</g>
<!-- Node1&#45;&gt;Node28 -->
<g id="edge30" class="edge">
<title>Node1&#45;&gt;Node28</title>
<path fill="none" stroke="midnightblue" d="M39.59,-418.24C40.43,-382.37 48.07,-256.34 113,-186 120.66,-177.7 131.56,-172.23 142.02,-168.64"/>
<polygon fill="midnightblue" stroke="midnightblue" points="143.21,-171.94 151.8,-165.74 141.22,-165.22 143.21,-171.94"/>
</g>
<!-- Node29 -->
<g id="node29" class="node">
<title>Node29</title>
<g id="a_node29"><a xlink:href="classAtcfLine.html#a70da9c9b2893017befb42f0692c0de03" target="_top" xlink:title=" ">
<polygon fill="white" stroke="black" points="305.5,-171.5 305.5,-190.5 335.5,-190.5 335.5,-171.5 305.5,-171.5"/>
<text text-anchor="middle" x="320.5" y="-178.5" font-family="Helvetica,sans-Serif" font-size="10.00">tau</text>
</a>
</g>
</g>
<!-- Node1&#45;&gt;Node29 -->
<g id="edge39" class="edge">
<title>Node1&#45;&gt;Node29</title>
<path fill="none" stroke="midnightblue" d="M39.7,-418.24C40.94,-384.66 49.85,-272.98 113,-219 140.12,-195.82 246.51,-185.87 295.08,-182.47"/>
<polygon fill="midnightblue" stroke="midnightblue" points="295.56,-185.95 305.31,-181.79 295.1,-178.96 295.56,-185.95"/>
</g>
<!-- Node30 -->
<g id="node30" class="node">
<title>Node30</title>
<g id="a_node30"><a xlink:href="classAtcfLine.html#a4fa34cd3a6f778e4403e176ea1f3541f" target="_top" xlink:title=" ">
<polygon fill="white" stroke="black" points="140,-114.5 140,-133.5 210,-133.5 210,-114.5 140,-114.5"/>
<text text-anchor="middle" x="175" y="-121.5" font-family="Helvetica,sans-Serif" font-size="10.00">setTechnum</text>
</a>
</g>
</g>
<!-- Node1&#45;&gt;Node30 -->
<g id="edge32" class="edge">
<title>Node1&#45;&gt;Node30</title>
<path fill="none" stroke="midnightblue" d="M40.73,-418.31C46.63,-373.24 73.37,-184.64 113,-143 117.78,-137.98 123.86,-134.28 130.32,-131.55"/>
<polygon fill="midnightblue" stroke="midnightblue" points="131.65,-134.79 139.95,-128.21 129.36,-128.18 131.65,-134.79"/>
</g>
<!-- Node32 -->
<g id="node32" class="node">
<title>Node32</title>
<g id="a_node32"><a xlink:href="classAtcfLine.html#abdb3c2bffc3702fa3e4f9536d9f541f3" target="_top" xlink:title=" ">
<polygon fill="white" stroke="black" points="137.5,-76.5 137.5,-95.5 212.5,-95.5 212.5,-76.5 137.5,-76.5"/>
<text text-anchor="middle" x="175" y="-83.5" font-family="Helvetica,sans-Serif" font-size="10.00">setTechstring</text>
</a>
</g>
</g>
<!-- Node1&#45;&gt;Node32 -->
<g id="edge34" class="edge">
<title>Node1&#45;&gt;Node32</title>
<path fill="none" stroke="midnightblue" d="M40.41,-418.35C45.17,-369.82 68.68,-152.92 113,-105 117.1,-100.57 122.22,-97.16 127.73,-94.54"/>
<polygon fill="midnightblue" stroke="midnightblue" points="129.22,-97.72 137.28,-90.84 126.69,-91.19 129.22,-97.72"/>
</g>
<!-- Node34 -->
<g id="node34" class="node">
<title>Node34</title>
<g id="a_node34"><a xlink:href="classAtcfLine.html#a946c6bb3652bb5510a52cd7e7f22fac7" target="_top" xlink:title=" ">
<polygon fill="white" stroke="black" points="147,-38.5 147,-57.5 203,-57.5 203,-38.5 147,-38.5"/>
<text text-anchor="middle" x="175" y="-45.5" font-family="Helvetica,sans-Serif" font-size="10.00">setVmax</text>
</a>
</g>
</g>
<!-- Node1&#45;&gt;Node34 -->
<g id="edge36" class="edge">
<title>Node1&#45;&gt;Node34</title>
<path fill="none" stroke="midnightblue" d="M40.17,-418.27C43.92,-366.26 64.01,-121.22 113,-67 119.34,-59.99 128.21,-55.54 137.23,-52.73"/>
<polygon fill="midnightblue" stroke="midnightblue" points="138.13,-56.11 146.96,-50.27 136.41,-49.32 138.13,-56.11"/>
</g>
<!-- Node36 -->
<g id="node36" class="node">
<title>Node36</title>
<g id="a_node36"><a xlink:href="classAtcfLine.html#a86d591997eedb1660c07467b712d6bbc" target="_top" xlink:title=" ">
<polygon fill="white" stroke="black" points="145,-0.5 145,-19.5 205,-19.5 205,-0.5 145,-0.5"/>
<text text-anchor="middle" x="175" y="-7.5" font-family="Helvetica,sans-Serif" font-size="10.00">splitString</text>
</a>
</g>
</g>
<!-- Node1&#45;&gt;Node36 -->
<g id="edge38" class="edge">
<title>Node1&#45;&gt;Node36</title>
<path fill="none" stroke="midnightblue" d="M39.96,-418.36C42.75,-363.38 59.25,-89.6 113,-29 118.77,-22.5 126.72,-18.2 134.97,-15.36"/>
<polygon fill="midnightblue" stroke="midnightblue" points="136,-18.71 144.69,-12.65 134.12,-11.96 136,-18.71"/>
</g>
<!-- Node5 -->
<g id="node5" class="node">
<title>Node5</title>
<g id="a_node5"><a xlink:href="classIsotach.html#a60ce77aeb249510471495cc63a7793da" target="_top" xlink:title=" ">
<polygon fill="white" stroke="black" points="282.5,-760.5 282.5,-779.5 358.5,-779.5 358.5,-760.5 282.5,-760.5"/>
<text text-anchor="middle" x="320.5" y="-767.5" font-family="Helvetica,sans-Serif" font-size="10.00">Isotach::code</text>
</a>
</g>
</g>
<!-- Node4&#45;&gt;Node5 -->
<g id="edge4" class="edge">
<title>Node4&#45;&gt;Node5</title>
<path fill="none" stroke="midnightblue" d="M237.27,-770C249.05,-770 261.22,-770 272.46,-770"/>
<polygon fill="midnightblue" stroke="midnightblue" points="272.49,-773.5 282.49,-770 272.49,-766.5 272.49,-773.5"/>
</g>
<!-- Node7 -->
<g id="node7" class="node">
<title>Node7</title>
<g id="a_node7"><a xlink:href="classPhysical.html#aec8d798f5701bd9c2e131410022ec8f7" target="_top" xlink:title=" ">
<polygon fill="white" stroke="black" points="277,-722.5 277,-741.5 364,-741.5 364,-722.5 277,-722.5"/>
<text text-anchor="middle" x="320.5" y="-729.5" font-family="Helvetica,sans-Serif" font-size="10.00">Physical::ms2kt</text>
</a>
</g>
</g>
<!-- Node6&#45;&gt;Node7 -->
<g id="edge6" class="edge">
<title>Node6&#45;&gt;Node7</title>
<path fill="none" stroke="midnightblue" d="M218.67,-732C233.71,-732 250.81,-732 266.6,-732"/>
<polygon fill="midnightblue" stroke="midnightblue" points="266.75,-735.5 276.75,-732 266.75,-728.5 266.75,-735.5"/>
</g>
<!-- Node11 -->
<g id="node11" class="node">
<title>Node11</title>
<g id="a_node11"><a xlink:href="classPhysical.html#a27fa412be519621c7f7d32bea2be825a" target="_top" xlink:title=" ">
<polygon fill="white" stroke="black" points="273,-684.5 273,-703.5 368,-703.5 368,-684.5 273,-684.5"/>
<text text-anchor="middle" x="320.5" y="-691.5" font-family="Helvetica,sans-Serif" font-size="10.00">Physical::km2nmi</text>
</a>
</g>
</g>
<!-- Node10&#45;&gt;Node11 -->
<g id="edge10" class="edge">
<title>Node10&#45;&gt;Node11</title>
<path fill="none" stroke="midnightblue" d="M222.59,-694C235.25,-694 249.1,-694 262.27,-694"/>
<polygon fill="midnightblue" stroke="midnightblue" points="262.65,-697.5 272.65,-694 262.65,-690.5 262.65,-697.5"/>
</g>
<!-- Node14 -->
<g id="node14" class="node">
<title>Node14</title>
<g id="a_node14"><a xlink:href="classAtcfLine.html#a757a667960cf8420a7d565899ba74dd5" target="_top" xlink:title=" ">
<polygon fill="white" stroke="black" points="300.5,-456.5 300.5,-475.5 340.5,-475.5 340.5,-456.5 300.5,-456.5"/>
<text text-anchor="middle" x="320.5" y="-463.5" font-family="Helvetica,sans-Serif" font-size="10.00">basin</text>
</a>
</g>
</g>
<!-- Node13&#45;&gt;Node14 -->
<g id="edge13" class="edge">
<title>Node13&#45;&gt;Node14</title>
<path fill="none" stroke="midnightblue" d="M202.65,-466C227.48,-466 264.41,-466 290.08,-466"/>
<polygon fill="midnightblue" stroke="midnightblue" points="290.33,-469.5 300.33,-466 290.33,-462.5 290.33,-469.5"/>
</g>
<!-- Node16 -->
<g id="node16" class="node">
<title>Node16</title>
<g id="a_node16"><a xlink:href="classAtcfLine.html#afcbce102d14966134f6a19e60597c61c" target="_top" xlink:title=" ">
<polygon fill="white" stroke="black" points="278,-418.5 278,-437.5 363,-437.5 363,-418.5 278,-418.5"/>
<text text-anchor="middle" x="320.5" y="-425.5" font-family="Helvetica,sans-Serif" font-size="10.00">cycloneNumber</text>
</a>
</g>
</g>
<!-- Node15&#45;&gt;Node16 -->
<g id="edge15" class="edge">
<title>Node15&#45;&gt;Node16</title>
<path fill="none" stroke="midnightblue" d="M225.79,-428C239.33,-428 254.04,-428 267.69,-428"/>
<polygon fill="midnightblue" stroke="midnightblue" points="267.89,-431.5 277.89,-428 267.89,-424.5 267.89,-431.5"/>
</g>
<!-- Node18 -->
<g id="node18" class="node">
<title>Node18</title>
<g id="a_node18"><a xlink:href="classAtcfLine.html#a31f99dd6bb56e7b2cb4ebbc3a850a8f5" target="_top" xlink:title=" ">
<polygon fill="white" stroke="black" points="293.5,-361.5 293.5,-380.5 347.5,-380.5 347.5,-361.5 293.5,-361.5"/>
<text text-anchor="middle" x="320.5" y="-368.5" font-family="Helvetica,sans-Serif" font-size="10.00">datetime</text>
</a>
</g>
</g>
<!-- Node17&#45;&gt;Node18 -->
<g id="edge17" class="edge">
<title>Node17&#45;&gt;Node18</title>
<path fill="none" stroke="midnightblue" d="M210.01,-356.5C232.04,-359.42 260.72,-363.22 283.2,-366.19"/>
<polygon fill="midnightblue" stroke="midnightblue" points="282.99,-369.7 293.36,-367.54 283.91,-362.76 282.99,-369.7"/>
</g>
<!-- Node19&#45;&gt;Node8 -->
<g id="edge19" class="edge">
<title>Node19&#45;&gt;Node8</title>
<path fill="none" stroke="midnightblue" d="M197.17,-653.2C223.49,-649.71 268.26,-643.78 295.73,-640.15"/>
<polygon fill="midnightblue" stroke="midnightblue" points="296.55,-643.57 306,-638.79 295.63,-636.63 296.55,-643.57"/>
</g>
<!-- Node20&#45;&gt;Node9 -->
<g id="edge21" class="edge">
<title>Node20&#45;&gt;Node9</title>
<path fill="none" stroke="midnightblue" d="M198.11,-506.93C224.5,-510.42 268.48,-516.24 295.63,-519.84"/>
<polygon fill="midnightblue" stroke="midnightblue" points="295.43,-523.34 305.8,-521.19 296.35,-516.4 295.43,-523.34"/>
</g>
<!-- Node22 -->
<g id="node22" class="node">
<title>Node22</title>
<g id="a_node22"><a xlink:href="classAtcfLine.html#a3edde0bc6afb6f2de5faed719ca41b52" target="_top" xlink:title=" ">
<polygon fill="white" stroke="black" points="301.5,-304.5 301.5,-323.5 339.5,-323.5 339.5,-304.5 301.5,-304.5"/>
<text text-anchor="middle" x="320.5" y="-311.5" font-family="Helvetica,sans-Serif" font-size="10.00">mslp</text>
</a>
</g>
</g>
<!-- Node21&#45;&gt;Node22 -->
<g id="edge23" class="edge">
<title>Node21&#45;&gt;Node22</title>
<path fill="none" stroke="midnightblue" d="M200.67,-314C225.74,-314 264.55,-314 290.94,-314"/>
<polygon fill="midnightblue" stroke="midnightblue" points="291.07,-317.5 301.07,-314 291.07,-310.5 291.07,-317.5"/>
</g>
<!-- Node24 -->
<g id="node24" class="node">
<title>Node24</title>
<g id="a_node24"><a xlink:href="classAtcfLine.html#a666b44934c6c535221a830365097c42d" target="_top" xlink:title=" ">
<polygon fill="white" stroke="black" points="298.5,-266.5 298.5,-285.5 342.5,-285.5 342.5,-266.5 298.5,-266.5"/>
<text text-anchor="middle" x="320.5" y="-273.5" font-family="Helvetica,sans-Serif" font-size="10.00">pouter</text>
</a>
</g>
</g>
<!-- Node23&#45;&gt;Node24 -->
<g id="edge25" class="edge">
<title>Node23&#45;&gt;Node24</title>
<path fill="none" stroke="midnightblue" d="M204.69,-276C228.88,-276 263.43,-276 288.31,-276"/>
<polygon fill="midnightblue" stroke="midnightblue" points="288.31,-279.5 298.31,-276 288.31,-272.5 288.31,-279.5"/>
</g>
<!-- Node26 -->
<g id="node26" class="node">
<title>Node26</title>
<g id="a_node26"><a xlink:href="classAtcfLine.html#a6ac5cb831a411289763eecc6f40e7722" target="_top" xlink:title=" ">
<polygon fill="white" stroke="black" points="285,-228.5 285,-247.5 356,-247.5 356,-228.5 285,-228.5"/>
<text text-anchor="middle" x="320.5" y="-235.5" font-family="Helvetica,sans-Serif" font-size="10.00">radiusPouter</text>
</a>
</g>
</g>
<!-- Node25&#45;&gt;Node26 -->
<g id="edge27" class="edge">
<title>Node25&#45;&gt;Node26</title>
<path fill="none" stroke="midnightblue" d="M219.83,-238C237.04,-238 256.77,-238 274.12,-238"/>
<polygon fill="midnightblue" stroke="midnightblue" points="274.57,-241.5 284.57,-238 274.57,-234.5 274.57,-241.5"/>
</g>
<!-- Node27&#45;&gt;Node18 -->
<g id="edge29" class="edge">
<title>Node27&#45;&gt;Node18</title>
<path fill="none" stroke="midnightblue" d="M232.71,-382.49C249.77,-380.23 268.02,-377.82 283.36,-375.79"/>
<polygon fill="midnightblue" stroke="midnightblue" points="284.01,-379.23 293.46,-374.45 283.09,-372.29 284.01,-379.23"/>
</g>
<!-- Node28&#45;&gt;Node29 -->
<g id="edge31" class="edge">
<title>Node28&#45;&gt;Node29</title>
<path fill="none" stroke="midnightblue" d="M198.11,-164.93C224.36,-168.4 268.02,-174.18 295.2,-177.78"/>
<polygon fill="midnightblue" stroke="midnightblue" points="295.04,-181.29 305.41,-179.13 295.96,-174.35 295.04,-181.29"/>
</g>
<!-- Node31 -->
<g id="node31" class="node">
<title>Node31</title>
<g id="a_node31"><a xlink:href="classAtcfLine.html#a04d3a69396be284937b47a975ea8e179" target="_top" xlink:title=" ">
<polygon fill="white" stroke="black" points="293.5,-114.5 293.5,-133.5 347.5,-133.5 347.5,-114.5 293.5,-114.5"/>
<text text-anchor="middle" x="320.5" y="-121.5" font-family="Helvetica,sans-Serif" font-size="10.00">technum</text>
</a>
</g>
</g>
<!-- Node30&#45;&gt;Node31 -->
<g id="edge33" class="edge">
<title>Node30&#45;&gt;Node31</title>
<path fill="none" stroke="midnightblue" d="M210.01,-124C232.04,-124 260.72,-124 283.2,-124"/>
<polygon fill="midnightblue" stroke="midnightblue" points="283.36,-127.5 293.36,-124 283.36,-120.5 283.36,-127.5"/>
</g>
<!-- Node33 -->
<g id="node33" class="node">
<title>Node33</title>
<g id="a_node33"><a xlink:href="classAtcfLine.html#ac66e05fdb0a5d757bf0e7d34ecfe6b4b" target="_top" xlink:title=" ">
<polygon fill="white" stroke="black" points="291,-76.5 291,-95.5 350,-95.5 350,-76.5 291,-76.5"/>
<text text-anchor="middle" x="320.5" y="-83.5" font-family="Helvetica,sans-Serif" font-size="10.00">techstring</text>
</a>
</g>
</g>
<!-- Node32&#45;&gt;Node33 -->
<g id="edge35" class="edge">
<title>Node32&#45;&gt;Node33</title>
<path fill="none" stroke="midnightblue" d="M212.58,-86C233.33,-86 259.28,-86 280.42,-86"/>
<polygon fill="midnightblue" stroke="midnightblue" points="280.67,-89.5 290.67,-86 280.67,-82.5 280.67,-89.5"/>
</g>
<!-- Node35 -->
<g id="node35" class="node">
<title>Node35</title>
<g id="a_node35"><a xlink:href="classAtcfLine.html#a0ab834110d8e43facd39af7df53c8c22" target="_top" xlink:title=" ">
<polygon fill="white" stroke="black" points="300,-38.5 300,-57.5 341,-57.5 341,-38.5 300,-38.5"/>
<text text-anchor="middle" x="320.5" y="-45.5" font-family="Helvetica,sans-Serif" font-size="10.00">vmax</text>
</a>
</g>
</g>
<!-- Node34&#45;&gt;Node35 -->
<g id="edge37" class="edge">
<title>Node34&#45;&gt;Node35</title>
<path fill="none" stroke="midnightblue" d="M203.33,-48C227.95,-48 264.07,-48 289.49,-48"/>
<polygon fill="midnightblue" stroke="midnightblue" points="289.66,-51.5 299.66,-48 289.66,-44.5 289.66,-51.5"/>
</g>
</g>
</svg>
        <g id="navigator" transform="translate(0 0)" fill="#404254">
                <rect fill="#f2f5e9" fill-opacity="0.5" stroke="#606060" stroke-width=".5" x="0" y="0" width="60" height="60"/>
                <use id="zoomplus" xlink:href="#zoomPlus" x="17" y="9" onmousedown="handleZoom(evt,'in')"/>
                <use id="zoomminus" xlink:href="#zoomMin" x="42" y="9" onmousedown="handleZoom(evt,'out')"/>
                <use id="reset" xlink:href="#resetDef" x="30" y="36" onmousedown="handleReset()"/>
                <g id="arrowUp" xlink:href="#dirArrow" transform="translate(30 24)" onmousedown="handlePan(0,-1)">
                  <use xlink:href="#rim" fill="#404040">
                        <set attributeName="fill" to="#808080" begin="arrowUp.mouseover" end="arrowUp.mouseout"/>
                  </use>
                  <path fill="none" stroke="white" stroke-width="1.5" d="M0,-3.0v7 M-2.5,-0.5L0,-3.0L2.5,-0.5"/>
                </g>
                <g id="arrowRight" xlink:href="#dirArrow" transform="rotate(90) translate(36 -43)" onmousedown="handlePan(1,0)">
                  <use xlink:href="#rim" fill="#404040">
                        <set attributeName="fill" to="#808080" begin="arrowRight.mouseover" end="arrowRight.mouseout"/>
                  </use>
                  <path fill="none" stroke="white" stroke-width="1.5" d="M0,-3.0v7 M-2.5,-0.5L0,-3.0L2.5,-0.5"/>
                </g>
                <g id="arrowDown" xlink:href="#dirArrow" transform="rotate(180) translate(-30 -48)" onmousedown="handlePan(0,1)">
                  <use xlink:href="#rim" fill="#404040">
                        <set attributeName="fill" to="#808080" begin="arrowDown.mouseover" end="arrowDown.mouseout"/>
                  </use>
                  <path fill="none" stroke="white" stroke-width="1.5" d="M0,-3.0v7 M-2.5,-0.5L0,-3.0L2.5,-0.5"/>
                </g>
                <g id="arrowLeft" xlink:href="#dirArrow" transform="rotate(270) translate(-36 17)" onmousedown="handlePan(-1,0)">
                  <use xlink:href="#rim" fill="#404040">
                        <set attributeName="fill" to="#808080" begin="arrowLeft.mouseover" end="arrowLeft.mouseout"/>
                  </use>
                  <path fill="none" stroke="white" stroke-width="1.5" d="M0,-3.0v7 M-2.5,-0.5L0,-3.0L2.5,-0.5"/>
                </g>
        </g>
        <svg viewBox="0 0 15 15" width="100%" height="30px" preserveAspectRatio="xMaxYMin meet">
         <g id="arrow_out" transform="scale(0.3 0.3)">
          <a xlink:href="classAtcfLine_a669437f8facd47f46097adc21d0d497b_cgraph_org.svg" target="_base">
           <rect id="button" ry="5" rx="5" y="6" x="6" height="38" width="38"
                fill="#f2f5e9" fill-opacity="0.5" stroke="#606060" stroke-width="1.0"/>
           <path id="arrow"
             d="M 11.500037,31.436501 C 11.940474,20.09759 22.043105,11.32322 32.158766,21.979434 L 37.068811,17.246167 C 37.068811,17.246167 37.088388,32 37.088388,32 L 22.160133,31.978069 C 22.160133,31.978069 26.997745,27.140456 26.997745,27.140456 C 18.528582,18.264221 13.291696,25.230495 11.500037,31.436501 z"
             style="fill:#404040;"/>
          </a>
         </g>
        </svg>
</svg>
