<?xml version="1.0" encoding="UTF-8" standalone="no"?>
<!DOCTYPE svg PUBLIC "-//W3C//DTD SVG 1.1//EN"
 "http://www.w3.org/Graphics/SVG/1.1/DTD/svg11.dtd">
<!-- Generated by graphviz version 2.47.1 (20210417.1919)
 -->
<!-- Title: set Pages: 1 -->
<svg width="136pt" height="66pt"
 viewBox="0.00 0.00 136.00 66.00" xmlns="http://www.w3.org/2000/svg" xmlns:xlink="http://www.w3.org/1999/xlink">
<g id="graph0" class="graph" transform="scale(1 1) rotate(0) translate(4 62)">
<title>set</title>
<polygon fill="white" stroke="transparent" points="-4,4 -4,-62 132,-62 132,4 -4,4"/>
<!-- Node1 -->
<g id="node1" class="node">
<title>Node1</title>
<g id="a_node1"><a xlink:title=" ">
<polygon fill="#bfbfbf" stroke="black" points="0,-19.5 0,-38.5 30,-38.5 30,-19.5 0,-19.5"/>
<text text-anchor="middle" x="15" y="-26.5" font-family="Helvetica,sans-Serif" font-size="10.00">set</text>
</a>
</g>
</g>
<!-- Node2 -->
<g id="node2" class="node">
<title>Node2</title>
<g id="a_node2"><a xlink:href="classDate.html#ad1762f5051124b0a842e0cd1e94c6237" target="_top" xlink:title=" ">
<polygon fill="white" stroke="black" points="82,-38.5 82,-57.5 112,-57.5 112,-38.5 82,-38.5"/>
<text text-anchor="middle" x="97" y="-45.5" font-family="Helvetica,sans-Serif" font-size="10.00">set</text>
</a>
</g>
</g>
<!-- Node1&#45;&gt;Node2 -->
<g id="edge1" class="edge">
<title>Node1&#45;&gt;Node2</title>
<path fill="none" stroke="midnightblue" d="M30.3,-32.4C41.79,-35.13 58.19,-39.02 71.73,-42.23"/>
<polygon fill="midnightblue" stroke="midnightblue" points="71.28,-45.73 81.82,-44.63 72.9,-38.92 71.28,-45.73"/>
</g>
<!-- Node3 -->
<g id="node3" class="node">
<title>Node3</title>
<g id="a_node3"><a xlink:href="classDate.html#aa1dec3e6a706a77691a3c49a0fe82e3d" target="_top" xlink:title=" ">
<polygon fill="white" stroke="black" points="66,-0.5 66,-19.5 128,-19.5 128,-0.5 66,-0.5"/>
<text text-anchor="middle" x="97" y="-7.5" font-family="Helvetica,sans-Serif" font-size="10.00">time_point</text>
</a>
</g>
</g>
<!-- Node1&#45;&gt;Node3 -->
<g id="edge2" class="edge">
<title>Node1&#45;&gt;Node3</title>
<path fill="none" stroke="midnightblue" d="M30.3,-25.6C37.56,-23.88 46.78,-21.69 56,-19.5"/>
<polygon fill="midnightblue" stroke="midnightblue" points="57,-22.86 65.92,-17.15 55.38,-16.05 57,-22.86"/>
</g>
</g>
</svg>
