<?xml version="1.0" encoding="UTF-8" standalone="no"?>
<!DOCTYPE svg PUBLIC "-//W3C//DTD SVG 1.1//EN"
 "http://www.w3.org/Graphics/SVG/1.1/DTD/svg11.dtd">
<!-- Generated by graphviz version 2.47.1 (20210417.1919)
 -->
<!-- Title: Atcf Pages: 1 -->
<svg width="926pt" height="2375pt"
 viewBox="0.00 0.00 925.50 2375.00" xmlns="http://www.w3.org/2000/svg" xmlns:xlink="http://www.w3.org/1999/xlink">
<g id="graph0" class="graph" transform="scale(1 1) rotate(0) translate(4 2371)">
<title>Atcf</title>
<polygon fill="white" stroke="transparent" points="-4,4 -4,-2371 921.5,-2371 921.5,4 -4,4"/>
<!-- Node1 -->
<g id="node1" class="node">
<title>Node1</title>
<g id="a_node1"><a xlink:title="Class that handles operations on Atcf format files.">
<polygon fill="#bfbfbf" stroke="black" points="614.5,-0.5 614.5,-420.5 784.5,-420.5 784.5,-0.5 614.5,-0.5"/>
<text text-anchor="middle" x="699.5" y="-408.5" font-family="Helvetica,sans-Serif" font-size="10.00">Atcf</text>
<polyline fill="none" stroke="black" points="614.5,-401.5 784.5,-401.5 "/>
<text text-anchor="middle" x="699.5" y="-389.5" font-family="Helvetica,sans-Serif" font-size="10.00"> </text>
<polyline fill="none" stroke="black" points="614.5,-382.5 784.5,-382.5 "/>
<text text-anchor="start" x="622.5" y="-370.5" font-family="Helvetica,sans-Serif" font-size="10.00">+ Atcf()</text>
<text text-anchor="start" x="622.5" y="-359.5" font-family="Helvetica,sans-Serif" font-size="10.00">+ calculateRadii()</text>
<text text-anchor="start" x="622.5" y="-348.5" font-family="Helvetica,sans-Serif" font-size="10.00">+ crecord()</text>
<text text-anchor="start" x="622.5" y="-337.5" font-family="Helvetica,sans-Serif" font-size="10.00">+ filename()</text>
<text text-anchor="start" x="622.5" y="-326.5" font-family="Helvetica,sans-Serif" font-size="10.00">+ getStormParameters()</text>
<text text-anchor="start" x="622.5" y="-315.5" font-family="Helvetica,sans-Serif" font-size="10.00">+ nRecords()</text>
<text text-anchor="start" x="622.5" y="-304.5" font-family="Helvetica,sans-Serif" font-size="10.00">+ read()</text>
<text text-anchor="start" x="622.5" y="-293.5" font-family="Helvetica,sans-Serif" font-size="10.00">+ record()</text>
<text text-anchor="start" x="622.5" y="-282.5" font-family="Helvetica,sans-Serif" font-size="10.00">+ setFilename()</text>
<text text-anchor="start" x="622.5" y="-271.5" font-family="Helvetica,sans-Serif" font-size="10.00">+ write()</text>
<text text-anchor="start" x="622.5" y="-260.5" font-family="Helvetica,sans-Serif" font-size="10.00">&#45; calculateOverlandTranslation</text>
<text text-anchor="start" x="622.5" y="-249.5" font-family="Helvetica,sans-Serif" font-size="10.00">Velocity()</text>
<text text-anchor="start" x="622.5" y="-238.5" font-family="Helvetica,sans-Serif" font-size="10.00">&#45; computeParameters()</text>
<text text-anchor="start" x="622.5" y="-227.5" font-family="Helvetica,sans-Serif" font-size="10.00">&#45; generateMissingPressureData()</text>
<text text-anchor="start" x="622.5" y="-216.5" font-family="Helvetica,sans-Serif" font-size="10.00">&#45; getCycleNumber()</text>
<text text-anchor="start" x="622.5" y="-205.5" font-family="Helvetica,sans-Serif" font-size="10.00">&#45; setAllRadiiToRmax()</text>
<text text-anchor="start" x="622.5" y="-194.5" font-family="Helvetica,sans-Serif" font-size="10.00">&#45; setMissingRadiiToAverage</text>
<text text-anchor="start" x="622.5" y="-183.5" font-family="Helvetica,sans-Serif" font-size="10.00">OfAdjacentRadii()</text>
<text text-anchor="start" x="622.5" y="-172.5" font-family="Helvetica,sans-Serif" font-size="10.00">&#45; setMissingRadiiToHalfNonzero</text>
<text text-anchor="start" x="622.5" y="-161.5" font-family="Helvetica,sans-Serif" font-size="10.00">Radii()</text>
<text text-anchor="start" x="622.5" y="-150.5" font-family="Helvetica,sans-Serif" font-size="10.00">&#45; setMissingRadiiToHalfOfAverage</text>
<text text-anchor="start" x="622.5" y="-139.5" font-family="Helvetica,sans-Serif" font-size="10.00">SpecifiedRadii()</text>
<text text-anchor="start" x="622.5" y="-128.5" font-family="Helvetica,sans-Serif" font-size="10.00">&#45; computeEpsilonAngle()</text>
<text text-anchor="start" x="622.5" y="-117.5" font-family="Helvetica,sans-Serif" font-size="10.00">&#45; computeGamma()</text>
<text text-anchor="start" x="622.5" y="-106.5" font-family="Helvetica,sans-Serif" font-size="10.00">&#45; computeQuadrantVectorAngle()</text>
<text text-anchor="start" x="622.5" y="-95.5" font-family="Helvetica,sans-Serif" font-size="10.00">&#45; computeQuadrantVr()</text>
<text text-anchor="start" x="622.5" y="-84.5" font-family="Helvetica,sans-Serif" font-size="10.00">&#45; computeQuadrantVrWithGamma()</text>
<text text-anchor="start" x="622.5" y="-73.5" font-family="Helvetica,sans-Serif" font-size="10.00">&#45; computeQuadrantVrWithout</text>
<text text-anchor="start" x="622.5" y="-62.5" font-family="Helvetica,sans-Serif" font-size="10.00">Gamma()</text>
<text text-anchor="start" x="622.5" y="-51.5" font-family="Helvetica,sans-Serif" font-size="10.00">&#45; computeStormMotion()</text>
<text text-anchor="start" x="622.5" y="-40.5" font-family="Helvetica,sans-Serif" font-size="10.00">&#45; computeVMaxBL()</text>
<text text-anchor="start" x="622.5" y="-29.5" font-family="Helvetica,sans-Serif" font-size="10.00">&#45; linearInterp()</text>
<text text-anchor="start" x="622.5" y="-18.5" font-family="Helvetica,sans-Serif" font-size="10.00">&#45; recomputeQuadrantVr()</text>
<text text-anchor="start" x="622.5" y="-7.5" font-family="Helvetica,sans-Serif" font-size="10.00">&#45; uvTrans()</text>
</a>
</g>
</g>
<!-- Node2 -->
<g id="node2" class="node">
<title>Node2</title>
<g id="a_node2"><a xlink:href="classAssumptions.html" target="_top" xlink:title=" ">
<polygon fill="white" stroke="black" points="655.5,-468.5 655.5,-569.5 743.5,-569.5 743.5,-468.5 655.5,-468.5"/>
<text text-anchor="middle" x="699.5" y="-557.5" font-family="Helvetica,sans-Serif" font-size="10.00">Assumptions</text>
<polyline fill="none" stroke="black" points="655.5,-550.5 743.5,-550.5 "/>
<text text-anchor="middle" x="699.5" y="-538.5" font-family="Helvetica,sans-Serif" font-size="10.00"> </text>
<polyline fill="none" stroke="black" points="655.5,-531.5 743.5,-531.5 "/>
<text text-anchor="start" x="663.5" y="-519.5" font-family="Helvetica,sans-Serif" font-size="10.00">+ Assumptions()</text>
<text text-anchor="start" x="663.5" y="-508.5" font-family="Helvetica,sans-Serif" font-size="10.00">+ add()</text>
<text text-anchor="start" x="663.5" y="-497.5" font-family="Helvetica,sans-Serif" font-size="10.00">+ count()</text>
<text text-anchor="start" x="663.5" y="-486.5" font-family="Helvetica,sans-Serif" font-size="10.00">+ get()</text>
<text text-anchor="start" x="663.5" y="-475.5" font-family="Helvetica,sans-Serif" font-size="10.00">+ log()</text>
</a>
</g>
</g>
<!-- Node2&#45;&gt;Node1 -->
<g id="edge1" class="edge">
<title>Node2&#45;&gt;Node1</title>
<path fill="none" stroke="#404040" d="M699.5,-468.41C699.5,-457.65 699.5,-445.6 699.5,-432.74"/>
<polygon fill="none" stroke="#404040" points="699.5,-432.73 695.5,-426.73 699.5,-420.73 703.5,-426.73 699.5,-432.73"/>
<text text-anchor="middle" x="737.5" y="-442" font-family="Helvetica,sans-Serif" font-size="10.00"> &#45;m_assumptions</text>
</g>
<!-- Node3 -->
<g id="node3" class="node">
<title>Node3</title>
<g id="a_node3"><a xlink:title=" ">
<polygon fill="white" stroke="#bfbfbf" points="643,-749.5 643,-806.5 756,-806.5 756,-749.5 643,-749.5"/>
<text text-anchor="middle" x="699.5" y="-794.5" font-family="Helvetica,sans-Serif" font-size="10.00">vector&lt; Assumption &gt;</text>
<polyline fill="none" stroke="#bfbfbf" points="643,-787.5 756,-787.5 "/>
<text text-anchor="middle" x="699.5" y="-775.5" font-family="Helvetica,sans-Serif" font-size="10.00"> </text>
<polyline fill="none" stroke="#bfbfbf" points="643,-768.5 756,-768.5 "/>
<text text-anchor="middle" x="699.5" y="-756.5" font-family="Helvetica,sans-Serif" font-size="10.00"> </text>
</a>
</g>
</g>
<!-- Node3&#45;&gt;Node2 -->
<g id="edge2" class="edge">
<title>Node3&#45;&gt;Node2</title>
<path fill="none" stroke="#404040" d="M699.5,-749.5C699.5,-709.73 699.5,-635.11 699.5,-581.75"/>
<polygon fill="none" stroke="#404040" points="699.5,-581.69 695.5,-575.69 699.5,-569.69 703.5,-575.69 699.5,-581.69"/>
<text text-anchor="middle" x="737.5" y="-591" font-family="Helvetica,sans-Serif" font-size="10.00"> &#45;m_assumptions</text>
</g>
<!-- Node4 -->
<g id="node4" class="node">
<title>Node4</title>
<g id="a_node4"><a xlink:href="classAssumption.html" target="_top" xlink:title=" ">
<polygon fill="white" stroke="black" points="740.5,-1030.5 740.5,-1164.5 832.5,-1164.5 832.5,-1030.5 740.5,-1030.5"/>
<text text-anchor="middle" x="786.5" y="-1152.5" font-family="Helvetica,sans-Serif" font-size="10.00">Assumption</text>
<polyline fill="none" stroke="black" points="740.5,-1145.5 832.5,-1145.5 "/>
<text text-anchor="start" x="748.5" y="-1133.5" font-family="Helvetica,sans-Serif" font-size="10.00">&#45; m_line</text>
<text text-anchor="start" x="748.5" y="-1122.5" font-family="Helvetica,sans-Serif" font-size="10.00">&#45; m_severity</text>
<polyline fill="none" stroke="black" points="740.5,-1115.5 832.5,-1115.5 "/>
<text text-anchor="start" x="748.5" y="-1103.5" font-family="Helvetica,sans-Serif" font-size="10.00">+ Assumption()</text>
<text text-anchor="start" x="748.5" y="-1092.5" font-family="Helvetica,sans-Serif" font-size="10.00">+ filename()</text>
<text text-anchor="start" x="748.5" y="-1081.5" font-family="Helvetica,sans-Serif" font-size="10.00">+ line()</text>
<text text-anchor="start" x="748.5" y="-1070.5" font-family="Helvetica,sans-Serif" font-size="10.00">+ message()</text>
<text text-anchor="start" x="748.5" y="-1059.5" font-family="Helvetica,sans-Serif" font-size="10.00">+ severity()</text>
<text text-anchor="start" x="748.5" y="-1048.5" font-family="Helvetica,sans-Serif" font-size="10.00">+ toString()</text>
<text text-anchor="start" x="748.5" y="-1037.5" font-family="Helvetica,sans-Serif" font-size="10.00">+ severityString()</text>
</a>
</g>
</g>
<!-- Node4&#45;&gt;Node3 -->
<g id="edge3" class="edge">
<title>Node4&#45;&gt;Node3</title>
<path fill="none" stroke="#404040" d="M768.37,-1030.33C750.81,-966.26 724.78,-871.26 710.27,-818.31"/>
<polygon fill="none" stroke="#404040" points="710.27,-818.3 704.83,-813.57 707.1,-806.73 712.54,-811.46 710.27,-818.3"/>
<text text-anchor="middle" x="778" y="-965.5" font-family="Helvetica,sans-Serif" font-size="10.00"> +elements</text>
</g>
<!-- Node5 -->
<g id="node5" class="node">
<title>Node5</title>
<g id="a_node5"><a xlink:title=" ">
<polygon fill="white" stroke="#bfbfbf" points="766,-1333.5 766,-1390.5 807,-1390.5 807,-1333.5 766,-1333.5"/>
<text text-anchor="middle" x="786.5" y="-1378.5" font-family="Helvetica,sans-Serif" font-size="10.00">string</text>
<polyline fill="none" stroke="#bfbfbf" points="766,-1371.5 807,-1371.5 "/>
<text text-anchor="middle" x="786.5" y="-1359.5" font-family="Helvetica,sans-Serif" font-size="10.00"> </text>
<polyline fill="none" stroke="#bfbfbf" points="766,-1352.5 807,-1352.5 "/>
<text text-anchor="middle" x="786.5" y="-1340.5" font-family="Helvetica,sans-Serif" font-size="10.00"> </text>
</a>
</g>
</g>
<!-- Node5&#45;&gt;Node1 -->
<g id="edge8" class="edge">
<title>Node5&#45;&gt;Node1</title>
<path fill="none" stroke="#404040" d="M803.55,-1333.31C817.58,-1309.1 836.69,-1272.51 846.5,-1238 863.54,-1178.06 860.5,-1160.81 860.5,-1098.5 860.5,-1098.5 860.5,-1098.5 860.5,-518 860.5,-448.4 827.56,-379.06 791.48,-323.98"/>
<polygon fill="none" stroke="#404040" points="791.39,-323.83 784.73,-321.07 784.71,-313.86 791.38,-316.62 791.39,-323.83"/>
<text text-anchor="middle" x="889" y="-775.5" font-family="Helvetica,sans-Serif" font-size="10.00"> &#45;m_filename</text>
</g>
<!-- Node5&#45;&gt;Node4 -->
<g id="edge4" class="edge">
<title>Node5&#45;&gt;Node4</title>
<path fill="none" stroke="#404040" d="M786.5,-1333.4C786.5,-1296.52 786.5,-1229.67 786.5,-1176.68"/>
<polygon fill="none" stroke="#404040" points="786.5,-1176.57 782.5,-1170.57 786.5,-1164.57 790.5,-1170.57 786.5,-1176.57"/>
<text text-anchor="middle" x="815" y="-1230" font-family="Helvetica,sans-Serif" font-size="10.00"> &#45;m_filename</text>
<text text-anchor="middle" x="815" y="-1219" font-family="Helvetica,sans-Serif" font-size="10.00">&#45;m_message</text>
</g>
<!-- Node10 -->
<g id="node10" class="node">
<title>Node10</title>
<g id="a_node10"><a xlink:href="classAtcfLine.html" target="_top" xlink:title=" ">
<polygon fill="white" stroke="black" points="348,-617.5 348,-938.5 479,-938.5 479,-617.5 348,-617.5"/>
<text text-anchor="middle" x="413.5" y="-926.5" font-family="Helvetica,sans-Serif" font-size="10.00">AtcfLine</text>
<polyline fill="none" stroke="black" points="348,-919.5 479,-919.5 "/>
<text text-anchor="start" x="356" y="-907.5" font-family="Helvetica,sans-Serif" font-size="10.00">&#45; m_coriolis</text>
<text text-anchor="start" x="356" y="-896.5" font-family="Helvetica,sans-Serif" font-size="10.00">&#45; m_cycloneNumber</text>
<text text-anchor="start" x="356" y="-885.5" font-family="Helvetica,sans-Serif" font-size="10.00">&#45; m_eyeDiameter</text>
<text text-anchor="start" x="356" y="-874.5" font-family="Helvetica,sans-Serif" font-size="10.00">&#45; m_gusts</text>
<text text-anchor="start" x="356" y="-863.5" font-family="Helvetica,sans-Serif" font-size="10.00">&#45; m_lat</text>
<text text-anchor="start" x="356" y="-852.5" font-family="Helvetica,sans-Serif" font-size="10.00">&#45; m_lon</text>
<text text-anchor="start" x="356" y="-841.5" font-family="Helvetica,sans-Serif" font-size="10.00">&#45; m_mslp</text>
<text text-anchor="start" x="356" y="-830.5" font-family="Helvetica,sans-Serif" font-size="10.00">&#45; m_null</text>
<text text-anchor="start" x="356" y="-819.5" font-family="Helvetica,sans-Serif" font-size="10.00">&#45; m_pouter</text>
<text text-anchor="start" x="356" y="-808.5" font-family="Helvetica,sans-Serif" font-size="10.00">&#45; m_radiusMaxWinds</text>
<text text-anchor="start" x="356" y="-797.5" font-family="Helvetica,sans-Serif" font-size="10.00">and 10 more...</text>
<polyline fill="none" stroke="black" points="348,-790.5 479,-790.5 "/>
<text text-anchor="start" x="356" y="-778.5" font-family="Helvetica,sans-Serif" font-size="10.00">+ AtcfLine()</text>
<text text-anchor="start" x="356" y="-767.5" font-family="Helvetica,sans-Serif" font-size="10.00">+ addIsotach()</text>
<text text-anchor="start" x="356" y="-756.5" font-family="Helvetica,sans-Serif" font-size="10.00">+ basin()</text>
<text text-anchor="start" x="356" y="-745.5" font-family="Helvetica,sans-Serif" font-size="10.00">+ cisotach()</text>
<text text-anchor="start" x="356" y="-734.5" font-family="Helvetica,sans-Serif" font-size="10.00">+ coriolis()</text>
<text text-anchor="start" x="356" y="-723.5" font-family="Helvetica,sans-Serif" font-size="10.00">+ cycloneNumber()</text>
<text text-anchor="start" x="356" y="-712.5" font-family="Helvetica,sans-Serif" font-size="10.00">+ datetime()</text>
<text text-anchor="start" x="356" y="-701.5" font-family="Helvetica,sans-Serif" font-size="10.00">+ eyeDiameter()</text>
<text text-anchor="start" x="356" y="-690.5" font-family="Helvetica,sans-Serif" font-size="10.00">+ gusts()</text>
<text text-anchor="start" x="356" y="-679.5" font-family="Helvetica,sans-Serif" font-size="10.00">+ initials()</text>
<text text-anchor="start" x="356" y="-668.5" font-family="Helvetica,sans-Serif" font-size="10.00">and 59 more...</text>
<text text-anchor="start" x="356" y="-657.5" font-family="Helvetica,sans-Serif" font-size="10.00">+ isSameForecastPeriod()</text>
<text text-anchor="start" x="356" y="-646.5" font-family="Helvetica,sans-Serif" font-size="10.00">+ parseAtcfLine()</text>
<text text-anchor="start" x="356" y="-635.5" font-family="Helvetica,sans-Serif" font-size="10.00">&#45; readValueCheckBlank()</text>
<text text-anchor="start" x="356" y="-624.5" font-family="Helvetica,sans-Serif" font-size="10.00">&#45; splitString()</text>
</a>
</g>
</g>
<!-- Node5&#45;&gt;Node10 -->
<g id="edge22" class="edge">
<title>Node5&#45;&gt;Node10</title>
<path fill="none" stroke="#404040" d="M765.95,-1347.91C729.21,-1323.32 652.54,-1266.52 614.5,-1198 570.25,-1118.28 610.44,-1080.35 573.5,-997 551.93,-948.33 518.08,-900.01 487.06,-861.27"/>
<polygon fill="none" stroke="#404040" points="486.8,-860.95 479.91,-858.82 479.24,-851.64 486.13,-853.78 486.8,-860.95"/>
<text text-anchor="middle" x="673" y="-1122.5" font-family="Helvetica,sans-Serif" font-size="10.00"> &#45;m_basin</text>
<text text-anchor="middle" x="673" y="-1111.5" font-family="Helvetica,sans-Serif" font-size="10.00">&#45;m_initials</text>
<text text-anchor="middle" x="673" y="-1100.5" font-family="Helvetica,sans-Serif" font-size="10.00">&#45;m_maxDevelopmentLevel</text>
<text text-anchor="middle" x="673" y="-1089.5" font-family="Helvetica,sans-Serif" font-size="10.00">&#45;m_stormName</text>
<text text-anchor="middle" x="673" y="-1078.5" font-family="Helvetica,sans-Serif" font-size="10.00">&#45;m_systemDepth</text>
<text text-anchor="middle" x="673" y="-1067.5" font-family="Helvetica,sans-Serif" font-size="10.00">&#45;m_techstring</text>
</g>
<!-- Node6 -->
<g id="node6" class="node">
<title>Node6</title>
<g id="a_node6"><a xlink:title=" ">
<polygon fill="white" stroke="#bfbfbf" points="732.5,-1647.5 732.5,-1704.5 840.5,-1704.5 840.5,-1647.5 732.5,-1647.5"/>
<text text-anchor="middle" x="786.5" y="-1692.5" font-family="Helvetica,sans-Serif" font-size="10.00">basic_string&lt; Char &gt;</text>
<polyline fill="none" stroke="#bfbfbf" points="732.5,-1685.5 840.5,-1685.5 "/>
<text text-anchor="middle" x="786.5" y="-1673.5" font-family="Helvetica,sans-Serif" font-size="10.00"> </text>
<polyline fill="none" stroke="#bfbfbf" points="732.5,-1666.5 840.5,-1666.5 "/>
<text text-anchor="middle" x="786.5" y="-1654.5" font-family="Helvetica,sans-Serif" font-size="10.00"> </text>
</a>
</g>
</g>
<!-- Node6&#45;&gt;Node5 -->
<g id="edge5" class="edge">
<title>Node6&#45;&gt;Node5</title>
<path fill="none" stroke="midnightblue" d="M786.5,-1637.31C786.5,-1573.74 786.5,-1446.66 786.5,-1390.63"/>
<polygon fill="none" stroke="midnightblue" points="783,-1637.31 786.5,-1647.31 790,-1637.31 783,-1637.31"/>
</g>
<!-- Node7 -->
<g id="node7" class="node">
<title>Node7</title>
<g id="a_node7"><a xlink:title=" ">
<polygon fill="white" stroke="#bfbfbf" points="279.5,-1333.5 279.5,-1390.5 347.5,-1390.5 347.5,-1333.5 279.5,-1333.5"/>
<text text-anchor="middle" x="313.5" y="-1378.5" font-family="Helvetica,sans-Serif" font-size="10.00">vector&lt; T &gt;</text>
<polyline fill="none" stroke="#bfbfbf" points="279.5,-1371.5 347.5,-1371.5 "/>
<text text-anchor="middle" x="313.5" y="-1359.5" font-family="Helvetica,sans-Serif" font-size="10.00"> </text>
<polyline fill="none" stroke="#bfbfbf" points="279.5,-1352.5 347.5,-1352.5 "/>
<text text-anchor="middle" x="313.5" y="-1340.5" font-family="Helvetica,sans-Serif" font-size="10.00"> </text>
</a>
</g>
</g>
<!-- Node7&#45;&gt;Node3 -->
<g id="edge6" class="edge">
<title>Node7&#45;&gt;Node3</title>
<path fill="none" stroke="orange" d="M355.7,-1329.8C392.29,-1300.22 443.37,-1252.31 469.5,-1198 508.58,-1116.78 457.97,-1078.49 496.5,-997 534.96,-915.65 614.92,-844.17 662.2,-806.73"/>
<polygon fill="orange" stroke="orange" points="353.31,-1327.23 347.66,-1336.19 357.67,-1332.71 353.31,-1327.23"/>
<text text-anchor="middle" x="533" y="-1095" font-family="Helvetica,sans-Serif" font-size="10.00"> &lt; Assumption &gt;</text>
</g>
<!-- Node9 -->
<g id="node9" class="node">
<title>Node9</title>
<g id="a_node9"><a xlink:title=" ">
<polygon fill="white" stroke="#bfbfbf" points="365,-490.5 365,-547.5 462,-547.5 462,-490.5 365,-490.5"/>
<text text-anchor="middle" x="413.5" y="-535.5" font-family="Helvetica,sans-Serif" font-size="10.00">vector&lt; AtcfLine &gt;</text>
<polyline fill="none" stroke="#bfbfbf" points="365,-528.5 462,-528.5 "/>
<text text-anchor="middle" x="413.5" y="-516.5" font-family="Helvetica,sans-Serif" font-size="10.00"> </text>
<polyline fill="none" stroke="#bfbfbf" points="365,-509.5 462,-509.5 "/>
<text text-anchor="middle" x="413.5" y="-497.5" font-family="Helvetica,sans-Serif" font-size="10.00"> </text>
</a>
</g>
</g>
<!-- Node7&#45;&gt;Node9 -->
<g id="edge24" class="edge">
<title>Node7&#45;&gt;Node9</title>
<path fill="none" stroke="orange" d="M296.81,-1323.94C283.17,-1291.49 264.96,-1242.67 257.5,-1198 214.56,-940.84 228.84,-853.54 338.5,-617 350.41,-591.31 370.19,-566.14 386.44,-547.87"/>
<polygon fill="orange" stroke="orange" points="293.74,-1325.65 300.89,-1333.47 300.17,-1322.9 293.74,-1325.65"/>
<text text-anchor="middle" x="265" y="-965.5" font-family="Helvetica,sans-Serif" font-size="10.00"> &lt; AtcfLine &gt;</text>
</g>
<!-- Node11 -->
<g id="node11" class="node">
<title>Node11</title>
<g id="a_node11"><a xlink:title=" ">
<polygon fill="white" stroke="#bfbfbf" points="266.5,-1069 266.5,-1126 360.5,-1126 360.5,-1069 266.5,-1069"/>
<text text-anchor="middle" x="313.5" y="-1114" font-family="Helvetica,sans-Serif" font-size="10.00">vector&lt; Isotach &gt;</text>
<polyline fill="none" stroke="#bfbfbf" points="266.5,-1107 360.5,-1107 "/>
<text text-anchor="middle" x="313.5" y="-1095" font-family="Helvetica,sans-Serif" font-size="10.00"> </text>
<polyline fill="none" stroke="#bfbfbf" points="266.5,-1088 360.5,-1088 "/>
<text text-anchor="middle" x="313.5" y="-1076" font-family="Helvetica,sans-Serif" font-size="10.00"> </text>
</a>
</g>
</g>
<!-- Node7&#45;&gt;Node11 -->
<g id="edge21" class="edge">
<title>Node7&#45;&gt;Node11</title>
<path fill="none" stroke="orange" d="M313.5,-1323.32C313.5,-1269.9 313.5,-1173.4 313.5,-1126.12"/>
<polygon fill="orange" stroke="orange" points="310,-1323.4 313.5,-1333.4 317,-1323.4 310,-1323.4"/>
<text text-anchor="middle" x="340.5" y="-1224.5" font-family="Helvetica,sans-Serif" font-size="10.00"> &lt; Isotach &gt;</text>
</g>
<!-- Node8 -->
<g id="node8" class="node">
<title>Node8</title>
<g id="a_node8"><a xlink:title=" ">
<polygon fill="white" stroke="#bfbfbf" points="235,-2309.5 235,-2366.5 264,-2366.5 264,-2309.5 235,-2309.5"/>
<text text-anchor="middle" x="249.5" y="-2354.5" font-family="Helvetica,sans-Serif" font-size="10.00">T</text>
<polyline fill="none" stroke="#bfbfbf" points="235,-2347.5 264,-2347.5 "/>
<text text-anchor="middle" x="249.5" y="-2335.5" font-family="Helvetica,sans-Serif" font-size="10.00"> </text>
<polyline fill="none" stroke="#bfbfbf" points="235,-2328.5 264,-2328.5 "/>
<text text-anchor="middle" x="249.5" y="-2316.5" font-family="Helvetica,sans-Serif" font-size="10.00"> </text>
</a>
</g>
</g>
<!-- Node8&#45;&gt;Node7 -->
<g id="edge7" class="edge">
<title>Node8&#45;&gt;Node7</title>
<path fill="none" stroke="#404040" d="M264.41,-2327.03C275.71,-2318.7 290.74,-2305.82 299.5,-2291 312.78,-2268.54 313.5,-2260.09 313.5,-2234 313.5,-2234 313.5,-2234 313.5,-1675 313.5,-1577.1 313.5,-1461.92 313.5,-1402.66"/>
<polygon fill="none" stroke="#404040" points="313.5,-1402.55 309.5,-1396.55 313.5,-1390.55 317.5,-1396.55 313.5,-1402.55"/>
<text text-anchor="middle" x="338" y="-2073" font-family="Helvetica,sans-Serif" font-size="10.00"> +elements</text>
</g>
<!-- Node15 -->
<g id="node15" class="node">
<title>Node15</title>
<g id="a_node15"><a xlink:title=" ">
<polygon fill="white" stroke="#bfbfbf" points="106.5,-2099.5 106.5,-2156.5 218.5,-2156.5 218.5,-2099.5 106.5,-2099.5"/>
<text text-anchor="middle" x="162.5" y="-2144.5" font-family="Helvetica,sans-Serif" font-size="10.00">array&lt; T, array_size &gt;</text>
<polyline fill="none" stroke="#bfbfbf" points="106.5,-2137.5 218.5,-2137.5 "/>
<text text-anchor="middle" x="162.5" y="-2125.5" font-family="Helvetica,sans-Serif" font-size="10.00"> </text>
<polyline fill="none" stroke="#bfbfbf" points="106.5,-2118.5 218.5,-2118.5 "/>
<text text-anchor="middle" x="162.5" y="-2106.5" font-family="Helvetica,sans-Serif" font-size="10.00"> </text>
</a>
</g>
</g>
<!-- Node8&#45;&gt;Node15 -->
<g id="edge16" class="edge">
<title>Node8&#45;&gt;Node15</title>
<path fill="none" stroke="#404040" d="M234.86,-2329.47C214.45,-2318.05 178.3,-2294.22 163.5,-2262 150.09,-2232.79 150.96,-2196.03 154.56,-2168.56"/>
<polygon fill="none" stroke="#404040" points="154.56,-2168.52 151.5,-2161.99 156.36,-2156.66 159.41,-2163.19 154.56,-2168.52"/>
<text text-anchor="middle" x="188" y="-2230.5" font-family="Helvetica,sans-Serif" font-size="10.00"> +elements</text>
</g>
<!-- Node16 -->
<g id="node16" class="node">
<title>Node16</title>
<g id="a_node16"><a xlink:title=" ">
<polygon fill="white" stroke="#bfbfbf" points="221.5,-2204.5 221.5,-2261.5 283.5,-2261.5 283.5,-2204.5 221.5,-2204.5"/>
<text text-anchor="middle" x="252.5" y="-2249.5" font-family="Helvetica,sans-Serif" font-size="10.00">array&lt; T &gt;</text>
<polyline fill="none" stroke="#bfbfbf" points="221.5,-2242.5 283.5,-2242.5 "/>
<text text-anchor="middle" x="252.5" y="-2230.5" font-family="Helvetica,sans-Serif" font-size="10.00"> </text>
<polyline fill="none" stroke="#bfbfbf" points="221.5,-2223.5 283.5,-2223.5 "/>
<text text-anchor="middle" x="252.5" y="-2211.5" font-family="Helvetica,sans-Serif" font-size="10.00"> </text>
</a>
</g>
</g>
<!-- Node8&#45;&gt;Node16 -->
<g id="edge18" class="edge">
<title>Node8&#45;&gt;Node16</title>
<path fill="none" stroke="#404040" d="M249.84,-2309.45C249.99,-2300.1 250.21,-2289.6 250.5,-2280 250.56,-2277.97 250.63,-2275.88 250.71,-2273.78"/>
<polygon fill="none" stroke="#404040" points="250.71,-2273.72 246.95,-2267.56 251.18,-2261.73 254.94,-2267.88 250.71,-2273.72"/>
<text text-anchor="middle" x="275" y="-2283" font-family="Helvetica,sans-Serif" font-size="10.00"> +elements</text>
</g>
<!-- Node9&#45;&gt;Node1 -->
<g id="edge9" class="edge">
<title>Node9&#45;&gt;Node1</title>
<path fill="none" stroke="#404040" d="M439.39,-490.26C476.67,-450.3 547.42,-374.48 605.73,-311.99"/>
<polygon fill="none" stroke="#404040" points="606.06,-311.64 607.22,-304.53 614.24,-302.87 613.07,-309.98 606.06,-311.64"/>
<text text-anchor="middle" x="512.5" y="-442" font-family="Helvetica,sans-Serif" font-size="10.00"> &#45;m_atcfData</text>
</g>
<!-- Node10&#45;&gt;Node9 -->
<g id="edge10" class="edge">
<title>Node10&#45;&gt;Node9</title>
<path fill="none" stroke="#404040" d="M413.5,-617.16C413.5,-596.06 413.5,-576.16 413.5,-559.93"/>
<polygon fill="none" stroke="#404040" points="413.5,-559.74 409.5,-553.74 413.5,-547.74 417.5,-553.74 413.5,-559.74"/>
<text text-anchor="middle" x="438" y="-591" font-family="Helvetica,sans-Serif" font-size="10.00"> +elements</text>
</g>
<!-- Node11&#45;&gt;Node10 -->
<g id="edge11" class="edge">
<title>Node11&#45;&gt;Node10</title>
<path fill="none" stroke="#404040" d="M322.2,-1068.88C330.89,-1041.28 345.03,-996.41 359.6,-950.12"/>
<polygon fill="none" stroke="#404040" points="359.61,-950.09 357.6,-943.17 363.22,-938.65 365.23,-945.57 359.61,-950.09"/>
<text text-anchor="middle" x="381.5" y="-965.5" font-family="Helvetica,sans-Serif" font-size="10.00"> &#45;m_isotach</text>
</g>
<!-- Node12 -->
<g id="node12" class="node">
<title>Node12</title>
<g id="a_node12"><a xlink:href="classIsotach.html" target="_top" xlink:title=" ">
<polygon fill="white" stroke="black" points="124,-1256.5 124,-1467.5 225,-1467.5 225,-1256.5 124,-1256.5"/>
<text text-anchor="middle" x="174.5" y="-1455.5" font-family="Helvetica,sans-Serif" font-size="10.00">Isotach</text>
<polyline fill="none" stroke="black" points="124,-1448.5 225,-1448.5 "/>
<text text-anchor="start" x="132" y="-1436.5" font-family="Helvetica,sans-Serif" font-size="10.00">&#45; m_radiusCode</text>
<text text-anchor="start" x="132" y="-1425.5" font-family="Helvetica,sans-Serif" font-size="10.00">&#45; m_windSpeed</text>
<polyline fill="none" stroke="black" points="124,-1418.5 225,-1418.5 "/>
<text text-anchor="start" x="132" y="-1406.5" font-family="Helvetica,sans-Serif" font-size="10.00">+ Isotach()</text>
<text text-anchor="start" x="132" y="-1395.5" font-family="Helvetica,sans-Serif" font-size="10.00">+ Isotach()</text>
<text text-anchor="start" x="132" y="-1384.5" font-family="Helvetica,sans-Serif" font-size="10.00">+ chollandB()</text>
<text text-anchor="start" x="132" y="-1373.5" font-family="Helvetica,sans-Serif" font-size="10.00">+ cisotachRadius()</text>
<text text-anchor="start" x="132" y="-1362.5" font-family="Helvetica,sans-Serif" font-size="10.00">+ code()</text>
<text text-anchor="start" x="132" y="-1351.5" font-family="Helvetica,sans-Serif" font-size="10.00">+ cphi()</text>
<text text-anchor="start" x="132" y="-1340.5" font-family="Helvetica,sans-Serif" font-size="10.00">+ cquadFlag()</text>
<text text-anchor="start" x="132" y="-1329.5" font-family="Helvetica,sans-Serif" font-size="10.00">+ cquadrantVr()</text>
<text text-anchor="start" x="132" y="-1318.5" font-family="Helvetica,sans-Serif" font-size="10.00">+ crmax()</text>
<text text-anchor="start" x="132" y="-1307.5" font-family="Helvetica,sans-Serif" font-size="10.00">+ cvmaxBl()</text>
<text text-anchor="start" x="132" y="-1296.5" font-family="Helvetica,sans-Serif" font-size="10.00">and 13 more...</text>
<text text-anchor="start" x="132" y="-1285.5" font-family="Helvetica,sans-Serif" font-size="10.00">+ codeFromString()</text>
<text text-anchor="start" x="132" y="-1274.5" font-family="Helvetica,sans-Serif" font-size="10.00">+ isNull()</text>
<text text-anchor="start" x="132" y="-1263.5" font-family="Helvetica,sans-Serif" font-size="10.00">+ stringFromCode()</text>
</a>
</g>
</g>
<!-- Node12&#45;&gt;Node11 -->
<g id="edge12" class="edge">
<title>Node12&#45;&gt;Node11</title>
<path fill="none" stroke="#404040" d="M225.08,-1265.49C248.65,-1220.97 275.36,-1170.52 293.2,-1136.83"/>
<polygon fill="none" stroke="#404040" points="293.28,-1136.69 292.55,-1129.51 298.89,-1126.08 299.62,-1133.26 293.28,-1136.69"/>
<text text-anchor="middle" x="273" y="-1224.5" font-family="Helvetica,sans-Serif" font-size="10.00"> +elements</text>
</g>
<!-- Node13 -->
<g id="node13" class="node">
<title>Node13</title>
<g id="a_node13"><a xlink:href="classCircularArray.html" target="_top" xlink:title=" ">
<polygon fill="white" stroke="black" points="0,-1570.5 0,-1781.5 121,-1781.5 121,-1570.5 0,-1570.5"/>
<text text-anchor="middle" x="60.5" y="-1769.5" font-family="Helvetica,sans-Serif" font-size="10.00">CircularArray&lt; bool, 4 &gt;</text>
<polyline fill="none" stroke="black" points="0,-1762.5 121,-1762.5 "/>
<text text-anchor="start" x="8" y="-1750.5" font-family="Helvetica,sans-Serif" font-size="10.00">&#45; m_data</text>
<polyline fill="none" stroke="black" points="0,-1743.5 121,-1743.5 "/>
<text text-anchor="start" x="8" y="-1731.5" font-family="Helvetica,sans-Serif" font-size="10.00">+ CircularArray()</text>
<text text-anchor="start" x="8" y="-1720.5" font-family="Helvetica,sans-Serif" font-size="10.00">+ CircularArray()</text>
<text text-anchor="start" x="8" y="-1709.5" font-family="Helvetica,sans-Serif" font-size="10.00">+ at()</text>
<text text-anchor="start" x="8" y="-1698.5" font-family="Helvetica,sans-Serif" font-size="10.00">+ begin()</text>
<text text-anchor="start" x="8" y="-1687.5" font-family="Helvetica,sans-Serif" font-size="10.00">+ cbegin()</text>
<text text-anchor="start" x="8" y="-1676.5" font-family="Helvetica,sans-Serif" font-size="10.00">+ cdata()</text>
<text text-anchor="start" x="8" y="-1665.5" font-family="Helvetica,sans-Serif" font-size="10.00">+ cend()</text>
<text text-anchor="start" x="8" y="-1654.5" font-family="Helvetica,sans-Serif" font-size="10.00">+ data()</text>
<text text-anchor="start" x="8" y="-1643.5" font-family="Helvetica,sans-Serif" font-size="10.00">+ end()</text>
<text text-anchor="start" x="8" y="-1632.5" font-family="Helvetica,sans-Serif" font-size="10.00">+ operator=()</text>
<text text-anchor="start" x="8" y="-1621.5" font-family="Helvetica,sans-Serif" font-size="10.00">+ operator[]()</text>
<text text-anchor="start" x="8" y="-1610.5" font-family="Helvetica,sans-Serif" font-size="10.00">+ operator[]()</text>
<text text-anchor="start" x="8" y="-1599.5" font-family="Helvetica,sans-Serif" font-size="10.00">+ set()</text>
<text text-anchor="start" x="8" y="-1588.5" font-family="Helvetica,sans-Serif" font-size="10.00">+ size()</text>
<text text-anchor="start" x="8" y="-1577.5" font-family="Helvetica,sans-Serif" font-size="10.00">&#45; mod_floor()</text>
</a>
</g>
</g>
<!-- Node13&#45;&gt;Node12 -->
<g id="edge13" class="edge">
<title>Node13&#45;&gt;Node12</title>
<path fill="none" stroke="#404040" d="M94,-1570.06C103.18,-1542.57 113.4,-1513.06 123.5,-1486 124.33,-1483.77 125.18,-1481.51 126.05,-1479.25"/>
<polygon fill="none" stroke="#404040" points="126.14,-1479.01 124.56,-1471.97 130.45,-1467.81 132.03,-1474.85 126.14,-1479.01"/>
<text text-anchor="middle" x="153.5" y="-1516.5" font-family="Helvetica,sans-Serif" font-size="10.00"> &#45;m_quadFlag</text>
</g>
<!-- Node14 -->
<g id="node14" class="node">
<title>Node14</title>
<g id="a_node14"><a xlink:href="classCircularArray.html" target="_top" xlink:title=" ">
<polygon fill="white" stroke="black" points="105,-1829.5 105,-2051.5 220,-2051.5 220,-1829.5 105,-1829.5"/>
<text text-anchor="start" x="113" y="-2039.5" font-family="Helvetica,sans-Serif" font-size="10.00">CircularArray&lt; T, array</text>
<text text-anchor="middle" x="162.5" y="-2028.5" font-family="Helvetica,sans-Serif" font-size="10.00">_size &gt;</text>
<polyline fill="none" stroke="black" points="105,-2021.5 220,-2021.5 "/>
<text text-anchor="middle" x="162.5" y="-2009.5" font-family="Helvetica,sans-Serif" font-size="10.00"> </text>
<polyline fill="none" stroke="black" points="105,-2002.5 220,-2002.5 "/>
<text text-anchor="start" x="113" y="-1990.5" font-family="Helvetica,sans-Serif" font-size="10.00">+ CircularArray()</text>
<text text-anchor="start" x="113" y="-1979.5" font-family="Helvetica,sans-Serif" font-size="10.00">+ CircularArray()</text>
<text text-anchor="start" x="113" y="-1968.5" font-family="Helvetica,sans-Serif" font-size="10.00">+ at()</text>
<text text-anchor="start" x="113" y="-1957.5" font-family="Helvetica,sans-Serif" font-size="10.00">+ begin()</text>
<text text-anchor="start" x="113" y="-1946.5" font-family="Helvetica,sans-Serif" font-size="10.00">+ cbegin()</text>
<text text-anchor="start" x="113" y="-1935.5" font-family="Helvetica,sans-Serif" font-size="10.00">+ cdata()</text>
<text text-anchor="start" x="113" y="-1924.5" font-family="Helvetica,sans-Serif" font-size="10.00">+ cend()</text>
<text text-anchor="start" x="113" y="-1913.5" font-family="Helvetica,sans-Serif" font-size="10.00">+ data()</text>
<text text-anchor="start" x="113" y="-1902.5" font-family="Helvetica,sans-Serif" font-size="10.00">+ end()</text>
<text text-anchor="start" x="113" y="-1891.5" font-family="Helvetica,sans-Serif" font-size="10.00">+ operator=()</text>
<text text-anchor="start" x="113" y="-1880.5" font-family="Helvetica,sans-Serif" font-size="10.00">+ operator[]()</text>
<text text-anchor="start" x="113" y="-1869.5" font-family="Helvetica,sans-Serif" font-size="10.00">+ operator[]()</text>
<text text-anchor="start" x="113" y="-1858.5" font-family="Helvetica,sans-Serif" font-size="10.00">+ set()</text>
<text text-anchor="start" x="113" y="-1847.5" font-family="Helvetica,sans-Serif" font-size="10.00">+ size()</text>
<text text-anchor="start" x="113" y="-1836.5" font-family="Helvetica,sans-Serif" font-size="10.00">&#45; mod_floor()</text>
</a>
</g>
</g>
<!-- Node14&#45;&gt;Node13 -->
<g id="edge14" class="edge">
<title>Node14&#45;&gt;Node13</title>
<path fill="none" stroke="orange" d="M115.95,-1819.7C111.04,-1807.07 106.08,-1794.3 101.25,-1781.87"/>
<polygon fill="orange" stroke="orange" points="112.8,-1821.26 119.69,-1829.32 119.33,-1818.73 112.8,-1821.26"/>
<text text-anchor="middle" x="137" y="-1803" font-family="Helvetica,sans-Serif" font-size="10.00"> &lt; bool, 4 &gt;</text>
</g>
<!-- Node17 -->
<g id="node17" class="node">
<title>Node17</title>
<g id="a_node17"><a xlink:href="classCircularArray.html" target="_top" xlink:title=" ">
<polygon fill="white" stroke="black" points="139,-1570.5 139,-1781.5 270,-1781.5 270,-1570.5 139,-1570.5"/>
<text text-anchor="middle" x="204.5" y="-1769.5" font-family="Helvetica,sans-Serif" font-size="10.00">CircularArray&lt; double, 4 &gt;</text>
<polyline fill="none" stroke="black" points="139,-1762.5 270,-1762.5 "/>
<text text-anchor="start" x="147" y="-1750.5" font-family="Helvetica,sans-Serif" font-size="10.00">&#45; m_data</text>
<polyline fill="none" stroke="black" points="139,-1743.5 270,-1743.5 "/>
<text text-anchor="start" x="147" y="-1731.5" font-family="Helvetica,sans-Serif" font-size="10.00">+ CircularArray()</text>
<text text-anchor="start" x="147" y="-1720.5" font-family="Helvetica,sans-Serif" font-size="10.00">+ CircularArray()</text>
<text text-anchor="start" x="147" y="-1709.5" font-family="Helvetica,sans-Serif" font-size="10.00">+ at()</text>
<text text-anchor="start" x="147" y="-1698.5" font-family="Helvetica,sans-Serif" font-size="10.00">+ begin()</text>
<text text-anchor="start" x="147" y="-1687.5" font-family="Helvetica,sans-Serif" font-size="10.00">+ cbegin()</text>
<text text-anchor="start" x="147" y="-1676.5" font-family="Helvetica,sans-Serif" font-size="10.00">+ cdata()</text>
<text text-anchor="start" x="147" y="-1665.5" font-family="Helvetica,sans-Serif" font-size="10.00">+ cend()</text>
<text text-anchor="start" x="147" y="-1654.5" font-family="Helvetica,sans-Serif" font-size="10.00">+ data()</text>
<text text-anchor="start" x="147" y="-1643.5" font-family="Helvetica,sans-Serif" font-size="10.00">+ end()</text>
<text text-anchor="start" x="147" y="-1632.5" font-family="Helvetica,sans-Serif" font-size="10.00">+ operator=()</text>
<text text-anchor="start" x="147" y="-1621.5" font-family="Helvetica,sans-Serif" font-size="10.00">+ operator[]()</text>
<text text-anchor="start" x="147" y="-1610.5" font-family="Helvetica,sans-Serif" font-size="10.00">+ operator[]()</text>
<text text-anchor="start" x="147" y="-1599.5" font-family="Helvetica,sans-Serif" font-size="10.00">+ set()</text>
<text text-anchor="start" x="147" y="-1588.5" font-family="Helvetica,sans-Serif" font-size="10.00">+ size()</text>
<text text-anchor="start" x="147" y="-1577.5" font-family="Helvetica,sans-Serif" font-size="10.00">&#45; mod_floor()</text>
</a>
</g>
</g>
<!-- Node14&#45;&gt;Node17 -->
<g id="edge20" class="edge">
<title>Node14&#45;&gt;Node17</title>
<path fill="none" stroke="orange" d="M181.73,-1819.33C183.73,-1806.82 185.75,-1794.18 187.72,-1781.87"/>
<polygon fill="orange" stroke="orange" points="178.25,-1818.89 180.13,-1829.32 185.17,-1820 178.25,-1818.89"/>
<text text-anchor="middle" x="216" y="-1803" font-family="Helvetica,sans-Serif" font-size="10.00"> &lt; double, 4 &gt;</text>
</g>
<!-- Node15&#45;&gt;Node14 -->
<g id="edge15" class="edge">
<title>Node15&#45;&gt;Node14</title>
<path fill="none" stroke="#404040" d="M162.5,-2099.23C162.5,-2089.09 162.5,-2076.87 162.5,-2063.78"/>
<polygon fill="none" stroke="#404040" points="162.5,-2063.54 158.5,-2057.54 162.5,-2051.54 166.5,-2057.54 162.5,-2063.54"/>
<text text-anchor="middle" x="182" y="-2073" font-family="Helvetica,sans-Serif" font-size="10.00"> &#45;m_data</text>
</g>
<!-- Node16&#45;&gt;Node15 -->
<g id="edge17" class="edge">
<title>Node16&#45;&gt;Node15</title>
<path fill="none" stroke="orange" d="M221.49,-2196.51C210.1,-2183.48 197.39,-2168.93 186.68,-2156.68"/>
<polygon fill="orange" stroke="orange" points="219.17,-2199.17 228.38,-2204.4 224.44,-2194.56 219.17,-2199.17"/>
<text text-anchor="middle" x="249" y="-2178" font-family="Helvetica,sans-Serif" font-size="10.00"> &lt; T, array_size &gt;</text>
</g>
<!-- Node17&#45;&gt;Node12 -->
<g id="edge19" class="edge">
<title>Node17&#45;&gt;Node12</title>
<path fill="none" stroke="#404040" d="M194.43,-1570.24C191.64,-1541.22 188.59,-1509.54 185.74,-1479.88"/>
<polygon fill="none" stroke="#404040" points="185.72,-1479.69 181.16,-1474.1 184.57,-1467.75 189.13,-1473.34 185.72,-1479.69"/>
<text text-anchor="middle" x="232" y="-1544" font-family="Helvetica,sans-Serif" font-size="10.00"> &#45;m_hollandB</text>
<text text-anchor="middle" x="232" y="-1533" font-family="Helvetica,sans-Serif" font-size="10.00">&#45;m_isotachRadius</text>
<text text-anchor="middle" x="232" y="-1522" font-family="Helvetica,sans-Serif" font-size="10.00">&#45;m_phi</text>
<text text-anchor="middle" x="232" y="-1511" font-family="Helvetica,sans-Serif" font-size="10.00">&#45;m_quadrantVr</text>
<text text-anchor="middle" x="232" y="-1500" font-family="Helvetica,sans-Serif" font-size="10.00">&#45;m_rmax</text>
<text text-anchor="middle" x="232" y="-1489" font-family="Helvetica,sans-Serif" font-size="10.00">&#45;m_vmaxBL</text>
</g>
<!-- Node18 -->
<g id="node18" class="node">
<title>Node18</title>
<g id="a_node18"><a xlink:href="classDate.html" target="_top" xlink:title=" ">
<polygon fill="white" stroke="black" points="378.5,-997.5 378.5,-1197.5 460.5,-1197.5 460.5,-997.5 378.5,-997.5"/>
<text text-anchor="middle" x="419.5" y="-1185.5" font-family="Helvetica,sans-Serif" font-size="10.00">Date</text>
<polyline fill="none" stroke="black" points="378.5,-1178.5 460.5,-1178.5 "/>
<text text-anchor="start" x="386.5" y="-1166.5" font-family="Helvetica,sans-Serif" font-size="10.00">&#45; m_datetime</text>
<polyline fill="none" stroke="black" points="378.5,-1159.5 460.5,-1159.5 "/>
<text text-anchor="start" x="386.5" y="-1147.5" font-family="Helvetica,sans-Serif" font-size="10.00">+ Date()</text>
<text text-anchor="start" x="386.5" y="-1136.5" font-family="Helvetica,sans-Serif" font-size="10.00">+ Date()</text>
<text text-anchor="start" x="386.5" y="-1125.5" font-family="Helvetica,sans-Serif" font-size="10.00">+ Date()</text>
<text text-anchor="start" x="386.5" y="-1114.5" font-family="Helvetica,sans-Serif" font-size="10.00">+ Date()</text>
<text text-anchor="start" x="386.5" y="-1103.5" font-family="Helvetica,sans-Serif" font-size="10.00">+ Date()</text>
<text text-anchor="start" x="386.5" y="-1092.5" font-family="Helvetica,sans-Serif" font-size="10.00">+ Date()</text>
<text text-anchor="start" x="386.5" y="-1081.5" font-family="Helvetica,sans-Serif" font-size="10.00">+ addDays()</text>
<text text-anchor="start" x="386.5" y="-1070.5" font-family="Helvetica,sans-Serif" font-size="10.00">+ addHours()</text>
<text text-anchor="start" x="386.5" y="-1059.5" font-family="Helvetica,sans-Serif" font-size="10.00">+ addMinutes()</text>
<text text-anchor="start" x="386.5" y="-1048.5" font-family="Helvetica,sans-Serif" font-size="10.00">+ addMonths()</text>
<text text-anchor="start" x="386.5" y="-1037.5" font-family="Helvetica,sans-Serif" font-size="10.00">and 44 more...</text>
<text text-anchor="start" x="386.5" y="-1026.5" font-family="Helvetica,sans-Serif" font-size="10.00">+ maxDate()</text>
<text text-anchor="start" x="386.5" y="-1015.5" font-family="Helvetica,sans-Serif" font-size="10.00">+ minDate()</text>
<text text-anchor="start" x="386.5" y="-1004.5" font-family="Helvetica,sans-Serif" font-size="10.00">+ now()</text>
</a>
</g>
</g>
<!-- Node18&#45;&gt;Node10 -->
<g id="edge23" class="edge">
<title>Node18&#45;&gt;Node10</title>
<path fill="none" stroke="#404040" d="M415.02,-997.46C414.82,-991.22 414.64,-985.02 414.5,-979 414.28,-969.79 414.1,-960.33 413.94,-950.79"/>
<polygon fill="none" stroke="#404040" points="413.94,-950.66 409.85,-944.72 413.76,-938.66 417.85,-944.6 413.94,-950.66"/>
<text text-anchor="middle" x="448.5" y="-971" font-family="Helvetica,sans-Serif" font-size="10.00"> &#45;m_datetime</text>
<text text-anchor="middle" x="448.5" y="-960" font-family="Helvetica,sans-Serif" font-size="10.00">&#45;m_refDatetime</text>
</g>
</g>
</svg>
