<?xml version="1.0" encoding="UTF-8" standalone="no"?>
<!DOCTYPE svg PUBLIC "-//W3C//DTD SVG 1.1//EN"
 "http://www.w3.org/Graphics/SVG/1.1/DTD/svg11.dtd">
<!-- Generated by graphviz version 2.47.1 (20210417.1919)
 -->
<!-- Title: Atcf Pages: 1 -->
<!--zoomable 1670 -->
<svg id="main" version="1.1" xmlns="http://www.w3.org/2000/svg" xmlns:xlink="http://www.w3.org/1999/xlink" xml:space="preserve" onload="init(evt)">
<style type="text/css"><![CDATA[
.edge:hover path { stroke: red; }
.edge:hover polygon { stroke: red; fill: red; }
]]></style>
<script type="text/javascript"><![CDATA[
var edges = document.getElementsByTagName('g');
if (edges && edges.length) {
  for (var i=0;i<edges.length;i++) {
    if (edges[i].id.substr(0,4)=='edge') {
      edges[i].setAttribute('class','edge');
    }
  }
}
]]></script>
        <defs>
                <circle id="rim" cx="0" cy="0" r="7"/>
                <circle id="rim2" cx="0" cy="0" r="3.5"/>
                <g id="zoomPlus">
                        <use xlink:href="#rim" fill="#404040">
                                <set attributeName="fill" to="#808080" begin="zoomplus.mouseover" end="zoomplus.mouseout"/>
                        </use>
                        <path d="M-4,0h8M0,-4v8" fill="none" stroke="white" stroke-width="1.5" pointer-events="none"/>
                </g>
                <g id="zoomMin">
                        <use xlink:href="#rim" fill="#404040">
                                <set attributeName="fill" to="#808080" begin="zoomminus.mouseover" end="zoomminus.mouseout"/>
                        </use>
                        <path d="M-4,0h8" fill="none" stroke="white" stroke-width="1.5" pointer-events="none"/>
                </g>
                <g id="dirArrow">
                        <path fill="none" stroke="white" stroke-width="1.5" d="M0,-3.0v7 M-2.5,-0.5L0,-3.0L2.5,-0.5"/>
                </g>
               <g id="resetDef">
                       <use xlink:href="#rim2" fill="#404040">
                               <set attributeName="fill" to="#808080" begin="reset.mouseover" end="reset.mouseout"/>
                       </use>
               </g>
        </defs>

<script type="text/javascript">
var viewWidth = 928;
var viewHeight = 1670;
var sectionId = 'dynsection-0';
</script>
<script xlink:href="svgpan.js"/>
<svg id="graph" class="graph">
<g id="viewport">
<title>Atcf</title>
<polygon fill="white" stroke="transparent" points="-4,4 -4,-1666 924,-1666 924,4 -4,4"/>
<!-- Node1 -->
<g id="node1" class="node">
<title>Node1</title>
<g id="a_node1"><a xlink:title="Class that handles operations on Atcf format files.">
<polygon fill="#bfbfbf" stroke="black" points="618.5,-0.5 618.5,-299.5 785.5,-299.5 785.5,-0.5 618.5,-0.5"/>
<text text-anchor="middle" x="702" y="-287.5" font-family="Helvetica,sans-Serif" font-size="10.00">Atcf</text>
<polyline fill="none" stroke="black" points="618.5,-280.5 785.5,-280.5 "/>
<text text-anchor="middle" x="702" y="-268.5" font-family="Helvetica,sans-Serif" font-size="10.00"> </text>
<polyline fill="none" stroke="black" points="618.5,-261.5 785.5,-261.5 "/>
<text text-anchor="start" x="626.5" y="-249.5" font-family="Helvetica,sans-Serif" font-size="10.00">+ Atcf()</text>
<text text-anchor="start" x="626.5" y="-238.5" font-family="Helvetica,sans-Serif" font-size="10.00">+ calculateRadii()</text>
<text text-anchor="start" x="626.5" y="-227.5" font-family="Helvetica,sans-Serif" font-size="10.00">+ crecord()</text>
<text text-anchor="start" x="626.5" y="-216.5" font-family="Helvetica,sans-Serif" font-size="10.00">+ filename()</text>
<text text-anchor="start" x="626.5" y="-205.5" font-family="Helvetica,sans-Serif" font-size="10.00">+ getStormParameters()</text>
<text text-anchor="start" x="626.5" y="-194.5" font-family="Helvetica,sans-Serif" font-size="10.00">+ nRecords()</text>
<text text-anchor="start" x="626.5" y="-183.5" font-family="Helvetica,sans-Serif" font-size="10.00">+ read()</text>
<text text-anchor="start" x="626.5" y="-172.5" font-family="Helvetica,sans-Serif" font-size="10.00">+ record()</text>
<text text-anchor="start" x="626.5" y="-161.5" font-family="Helvetica,sans-Serif" font-size="10.00">+ setFilename()</text>
<text text-anchor="start" x="626.5" y="-150.5" font-family="Helvetica,sans-Serif" font-size="10.00">&#45; calculateOverlandTranslation</text>
<text text-anchor="start" x="626.5" y="-139.5" font-family="Helvetica,sans-Serif" font-size="10.00">Velocity()</text>
<text text-anchor="start" x="626.5" y="-128.5" font-family="Helvetica,sans-Serif" font-size="10.00">&#45; generateMissingPressureData()</text>
<text text-anchor="start" x="626.5" y="-117.5" font-family="Helvetica,sans-Serif" font-size="10.00">&#45; getCycleNumber()</text>
<text text-anchor="start" x="626.5" y="-106.5" font-family="Helvetica,sans-Serif" font-size="10.00">&#45; setAllRadiiToRmax()</text>
<text text-anchor="start" x="626.5" y="-95.5" font-family="Helvetica,sans-Serif" font-size="10.00">&#45; setInitialHollandB()</text>
<text text-anchor="start" x="626.5" y="-84.5" font-family="Helvetica,sans-Serif" font-size="10.00">&#45; setMissingRadiiToAverage</text>
<text text-anchor="start" x="626.5" y="-73.5" font-family="Helvetica,sans-Serif" font-size="10.00">OfAdjacentRadii()</text>
<text text-anchor="start" x="626.5" y="-62.5" font-family="Helvetica,sans-Serif" font-size="10.00">&#45; setMissingRadiiToHalfNonzero</text>
<text text-anchor="start" x="626.5" y="-51.5" font-family="Helvetica,sans-Serif" font-size="10.00">Radii()</text>
<text text-anchor="start" x="626.5" y="-40.5" font-family="Helvetica,sans-Serif" font-size="10.00">&#45; setMissingRadiiToHalfOfAverage</text>
<text text-anchor="start" x="626.5" y="-29.5" font-family="Helvetica,sans-Serif" font-size="10.00">SpecifiedRadii()</text>
<text text-anchor="start" x="626.5" y="-18.5" font-family="Helvetica,sans-Serif" font-size="10.00">&#45; linearInterp()</text>
<text text-anchor="start" x="626.5" y="-7.5" font-family="Helvetica,sans-Serif" font-size="10.00">&#45; uvTrans()</text>
</a>
</g>
</g>
<!-- Node2 -->
<g id="node2" class="node">
<title>Node2</title>
<g id="a_node2"><a xlink:href="classAssumptions.html" target="_top" xlink:title=" ">
<polygon fill="white" stroke="black" points="658,-347.5 658,-448.5 746,-448.5 746,-347.5 658,-347.5"/>
<text text-anchor="middle" x="702" y="-436.5" font-family="Helvetica,sans-Serif" font-size="10.00">Assumptions</text>
<polyline fill="none" stroke="black" points="658,-429.5 746,-429.5 "/>
<text text-anchor="middle" x="702" y="-417.5" font-family="Helvetica,sans-Serif" font-size="10.00"> </text>
<polyline fill="none" stroke="black" points="658,-410.5 746,-410.5 "/>
<text text-anchor="start" x="666" y="-398.5" font-family="Helvetica,sans-Serif" font-size="10.00">+ Assumptions()</text>
<text text-anchor="start" x="666" y="-387.5" font-family="Helvetica,sans-Serif" font-size="10.00">+ add()</text>
<text text-anchor="start" x="666" y="-376.5" font-family="Helvetica,sans-Serif" font-size="10.00">+ count()</text>
<text text-anchor="start" x="666" y="-365.5" font-family="Helvetica,sans-Serif" font-size="10.00">+ get()</text>
<text text-anchor="start" x="666" y="-354.5" font-family="Helvetica,sans-Serif" font-size="10.00">+ log()</text>
</a>
</g>
</g>
<!-- Node2&#45;&gt;Node1 -->
<g id="edge1" class="edge">
<title>Node2&#45;&gt;Node1</title>
<path fill="none" stroke="#404040" d="M702,-347.22C702,-336.42 702,-324.44 702,-311.87"/>
<polygon fill="none" stroke="#404040" points="702,-311.66 698,-305.66 702,-299.66 706,-305.66 702,-311.66"/>
<text text-anchor="middle" x="740" y="-321" font-family="Helvetica,sans-Serif" font-size="10.00"> &#45;m_assumptions</text>
</g>
<!-- Node3 -->
<g id="node3" class="node">
<title>Node3</title>
<g id="a_node3"><a xlink:title=" ">
<polygon fill="white" stroke="#bfbfbf" points="645.5,-628.5 645.5,-685.5 758.5,-685.5 758.5,-628.5 645.5,-628.5"/>
<text text-anchor="middle" x="702" y="-673.5" font-family="Helvetica,sans-Serif" font-size="10.00">vector&lt; Assumption &gt;</text>
<polyline fill="none" stroke="#bfbfbf" points="645.5,-666.5 758.5,-666.5 "/>
<text text-anchor="middle" x="702" y="-654.5" font-family="Helvetica,sans-Serif" font-size="10.00"> </text>
<polyline fill="none" stroke="#bfbfbf" points="645.5,-647.5 758.5,-647.5 "/>
<text text-anchor="middle" x="702" y="-635.5" font-family="Helvetica,sans-Serif" font-size="10.00"> </text>
</a>
</g>
</g>
<!-- Node3&#45;&gt;Node2 -->
<g id="edge2" class="edge">
<title>Node3&#45;&gt;Node2</title>
<path fill="none" stroke="#404040" d="M702,-628.5C702,-588.73 702,-514.11 702,-460.75"/>
<polygon fill="none" stroke="#404040" points="702,-460.69 698,-454.69 702,-448.69 706,-454.69 702,-460.69"/>
<text text-anchor="middle" x="740" y="-470" font-family="Helvetica,sans-Serif" font-size="10.00"> &#45;m_assumptions</text>
</g>
<!-- Node4 -->
<g id="node4" class="node">
<title>Node4</title>
<g id="a_node4"><a xlink:href="classAssumption.html" target="_top" xlink:title=" ">
<polygon fill="white" stroke="black" points="743,-909.5 743,-1043.5 835,-1043.5 835,-909.5 743,-909.5"/>
<text text-anchor="middle" x="789" y="-1031.5" font-family="Helvetica,sans-Serif" font-size="10.00">Assumption</text>
<polyline fill="none" stroke="black" points="743,-1024.5 835,-1024.5 "/>
<text text-anchor="start" x="751" y="-1012.5" font-family="Helvetica,sans-Serif" font-size="10.00">&#45; m_line</text>
<text text-anchor="start" x="751" y="-1001.5" font-family="Helvetica,sans-Serif" font-size="10.00">&#45; m_severity</text>
<polyline fill="none" stroke="black" points="743,-994.5 835,-994.5 "/>
<text text-anchor="start" x="751" y="-982.5" font-family="Helvetica,sans-Serif" font-size="10.00">+ Assumption()</text>
<text text-anchor="start" x="751" y="-971.5" font-family="Helvetica,sans-Serif" font-size="10.00">+ filename()</text>
<text text-anchor="start" x="751" y="-960.5" font-family="Helvetica,sans-Serif" font-size="10.00">+ line()</text>
<text text-anchor="start" x="751" y="-949.5" font-family="Helvetica,sans-Serif" font-size="10.00">+ message()</text>
<text text-anchor="start" x="751" y="-938.5" font-family="Helvetica,sans-Serif" font-size="10.00">+ severity()</text>
<text text-anchor="start" x="751" y="-927.5" font-family="Helvetica,sans-Serif" font-size="10.00">+ toString()</text>
<text text-anchor="start" x="751" y="-916.5" font-family="Helvetica,sans-Serif" font-size="10.00">+ severityString()</text>
</a>
</g>
</g>
<!-- Node4&#45;&gt;Node3 -->
<g id="edge3" class="edge">
<title>Node4&#45;&gt;Node3</title>
<path fill="none" stroke="#404040" d="M770.87,-909.33C753.31,-845.26 727.28,-750.26 712.77,-697.31"/>
<polygon fill="none" stroke="#404040" points="712.77,-697.3 707.33,-692.57 709.6,-685.73 715.04,-690.46 712.77,-697.3"/>
<text text-anchor="middle" x="779.5" y="-844.5" font-family="Helvetica,sans-Serif" font-size="10.00"> +elements</text>
</g>
<!-- Node5 -->
<g id="node5" class="node">
<title>Node5</title>
<g id="a_node5"><a xlink:title=" ">
<polygon fill="white" stroke="#bfbfbf" points="768.5,-1212.5 768.5,-1269.5 809.5,-1269.5 809.5,-1212.5 768.5,-1212.5"/>
<text text-anchor="middle" x="789" y="-1257.5" font-family="Helvetica,sans-Serif" font-size="10.00">string</text>
<polyline fill="none" stroke="#bfbfbf" points="768.5,-1250.5 809.5,-1250.5 "/>
<text text-anchor="middle" x="789" y="-1238.5" font-family="Helvetica,sans-Serif" font-size="10.00"> </text>
<polyline fill="none" stroke="#bfbfbf" points="768.5,-1231.5 809.5,-1231.5 "/>
<text text-anchor="middle" x="789" y="-1219.5" font-family="Helvetica,sans-Serif" font-size="10.00"> </text>
</a>
</g>
</g>
<!-- Node5&#45;&gt;Node1 -->
<g id="edge8" class="edge">
<title>Node5&#45;&gt;Node1</title>
<path fill="none" stroke="#404040" d="M806.05,-1212.31C820.08,-1188.1 839.19,-1151.51 849,-1117 866.04,-1057.06 863,-1039.81 863,-977.5 863,-977.5 863,-977.5 863,-397 863,-337.68 829.82,-281.52 793.58,-237.87"/>
<polygon fill="none" stroke="#404040" points="793.35,-237.6 786.41,-235.63 785.57,-228.47 792.5,-230.44 793.35,-237.6"/>
<text text-anchor="middle" x="891.5" y="-654.5" font-family="Helvetica,sans-Serif" font-size="10.00"> &#45;m_filename</text>
</g>
<!-- Node5&#45;&gt;Node4 -->
<g id="edge4" class="edge">
<title>Node5&#45;&gt;Node4</title>
<path fill="none" stroke="#404040" d="M789,-1212.4C789,-1175.52 789,-1108.67 789,-1055.68"/>
<polygon fill="none" stroke="#404040" points="789,-1055.57 785,-1049.57 789,-1043.57 793,-1049.57 789,-1055.57"/>
<text text-anchor="middle" x="817.5" y="-1109" font-family="Helvetica,sans-Serif" font-size="10.00"> &#45;m_filename</text>
<text text-anchor="middle" x="817.5" y="-1098" font-family="Helvetica,sans-Serif" font-size="10.00">&#45;m_message</text>
</g>
<!-- Node10 -->
<g id="node10" class="node">
<title>Node10</title>
<g id="a_node10"><a xlink:href="classAtcfLine.html" target="_top" xlink:title=" ">
<polygon fill="white" stroke="black" points="350.5,-496.5 350.5,-817.5 481.5,-817.5 481.5,-496.5 350.5,-496.5"/>
<text text-anchor="middle" x="416" y="-805.5" font-family="Helvetica,sans-Serif" font-size="10.00">AtcfLine</text>
<polyline fill="none" stroke="black" points="350.5,-798.5 481.5,-798.5 "/>
<text text-anchor="start" x="358.5" y="-786.5" font-family="Helvetica,sans-Serif" font-size="10.00">&#45; m_cycloneNumber</text>
<text text-anchor="start" x="358.5" y="-775.5" font-family="Helvetica,sans-Serif" font-size="10.00">&#45; m_eyeDiameter</text>
<text text-anchor="start" x="358.5" y="-764.5" font-family="Helvetica,sans-Serif" font-size="10.00">&#45; m_gusts</text>
<text text-anchor="start" x="358.5" y="-753.5" font-family="Helvetica,sans-Serif" font-size="10.00">&#45; m_lat</text>
<text text-anchor="start" x="358.5" y="-742.5" font-family="Helvetica,sans-Serif" font-size="10.00">&#45; m_lon</text>
<text text-anchor="start" x="358.5" y="-731.5" font-family="Helvetica,sans-Serif" font-size="10.00">&#45; m_maxSeas</text>
<text text-anchor="start" x="358.5" y="-720.5" font-family="Helvetica,sans-Serif" font-size="10.00">&#45; m_mslp</text>
<text text-anchor="start" x="358.5" y="-709.5" font-family="Helvetica,sans-Serif" font-size="10.00">&#45; m_null</text>
<text text-anchor="start" x="358.5" y="-698.5" font-family="Helvetica,sans-Serif" font-size="10.00">&#45; m_pouter</text>
<text text-anchor="start" x="358.5" y="-687.5" font-family="Helvetica,sans-Serif" font-size="10.00">&#45; m_radiusMaxWinds</text>
<text text-anchor="start" x="358.5" y="-676.5" font-family="Helvetica,sans-Serif" font-size="10.00">and 10 more...</text>
<polyline fill="none" stroke="black" points="350.5,-669.5 481.5,-669.5 "/>
<text text-anchor="start" x="358.5" y="-657.5" font-family="Helvetica,sans-Serif" font-size="10.00">+ AtcfLine()</text>
<text text-anchor="start" x="358.5" y="-646.5" font-family="Helvetica,sans-Serif" font-size="10.00">+ addIsotach()</text>
<text text-anchor="start" x="358.5" y="-635.5" font-family="Helvetica,sans-Serif" font-size="10.00">+ basin()</text>
<text text-anchor="start" x="358.5" y="-624.5" font-family="Helvetica,sans-Serif" font-size="10.00">+ cisotach()</text>
<text text-anchor="start" x="358.5" y="-613.5" font-family="Helvetica,sans-Serif" font-size="10.00">+ cseas()</text>
<text text-anchor="start" x="358.5" y="-602.5" font-family="Helvetica,sans-Serif" font-size="10.00">+ cycloneNumber()</text>
<text text-anchor="start" x="358.5" y="-591.5" font-family="Helvetica,sans-Serif" font-size="10.00">+ datetime()</text>
<text text-anchor="start" x="358.5" y="-580.5" font-family="Helvetica,sans-Serif" font-size="10.00">+ eyeDiameter()</text>
<text text-anchor="start" x="358.5" y="-569.5" font-family="Helvetica,sans-Serif" font-size="10.00">+ gusts()</text>
<text text-anchor="start" x="358.5" y="-558.5" font-family="Helvetica,sans-Serif" font-size="10.00">+ initials()</text>
<text text-anchor="start" x="358.5" y="-547.5" font-family="Helvetica,sans-Serif" font-size="10.00">and 57 more...</text>
<text text-anchor="start" x="358.5" y="-536.5" font-family="Helvetica,sans-Serif" font-size="10.00">+ isSameForecastPeriod()</text>
<text text-anchor="start" x="358.5" y="-525.5" font-family="Helvetica,sans-Serif" font-size="10.00">+ parseAtcfLine()</text>
<text text-anchor="start" x="358.5" y="-514.5" font-family="Helvetica,sans-Serif" font-size="10.00">&#45; readValueCheckBlank()</text>
<text text-anchor="start" x="358.5" y="-503.5" font-family="Helvetica,sans-Serif" font-size="10.00">&#45; splitString()</text>
</a>
</g>
</g>
<!-- Node5&#45;&gt;Node10 -->
<g id="edge21" class="edge">
<title>Node5&#45;&gt;Node10</title>
<path fill="none" stroke="#404040" d="M768.42,-1227.27C731.26,-1203.08 653.47,-1146.6 617,-1077 575.05,-996.94 621.84,-958.98 586,-876 563.28,-823.38 524.76,-772.41 490.12,-733.01"/>
<polygon fill="none" stroke="#404040" points="489.87,-732.71 482.89,-730.9 481.88,-723.76 488.86,-725.57 489.87,-732.71"/>
<text text-anchor="middle" x="675.5" y="-1001.5" font-family="Helvetica,sans-Serif" font-size="10.00"> &#45;m_basin</text>
<text text-anchor="middle" x="675.5" y="-990.5" font-family="Helvetica,sans-Serif" font-size="10.00">&#45;m_initials</text>
<text text-anchor="middle" x="675.5" y="-979.5" font-family="Helvetica,sans-Serif" font-size="10.00">&#45;m_maxDevelopmentLevel</text>
<text text-anchor="middle" x="675.5" y="-968.5" font-family="Helvetica,sans-Serif" font-size="10.00">&#45;m_stormName</text>
<text text-anchor="middle" x="675.5" y="-957.5" font-family="Helvetica,sans-Serif" font-size="10.00">&#45;m_systemDepth</text>
<text text-anchor="middle" x="675.5" y="-946.5" font-family="Helvetica,sans-Serif" font-size="10.00">&#45;m_techstring</text>
</g>
<!-- Node6 -->
<g id="node6" class="node">
<title>Node6</title>
<g id="a_node6"><a xlink:title=" ">
<polygon fill="white" stroke="#bfbfbf" points="735,-1394.5 735,-1451.5 843,-1451.5 843,-1394.5 735,-1394.5"/>
<text text-anchor="middle" x="789" y="-1439.5" font-family="Helvetica,sans-Serif" font-size="10.00">basic_string&lt; Char &gt;</text>
<polyline fill="none" stroke="#bfbfbf" points="735,-1432.5 843,-1432.5 "/>
<text text-anchor="middle" x="789" y="-1420.5" font-family="Helvetica,sans-Serif" font-size="10.00"> </text>
<polyline fill="none" stroke="#bfbfbf" points="735,-1413.5 843,-1413.5 "/>
<text text-anchor="middle" x="789" y="-1401.5" font-family="Helvetica,sans-Serif" font-size="10.00"> </text>
</a>
</g>
</g>
<!-- Node6&#45;&gt;Node5 -->
<g id="edge5" class="edge">
<title>Node6&#45;&gt;Node5</title>
<path fill="none" stroke="midnightblue" d="M789,-1384.19C789,-1349.99 789,-1300.43 789,-1269.76"/>
<polygon fill="none" stroke="midnightblue" points="785.5,-1384.27 789,-1394.27 792.5,-1384.27 785.5,-1384.27"/>
</g>
<!-- Node7 -->
<g id="node7" class="node">
<title>Node7</title>
<g id="a_node7"><a xlink:title=" ">
<polygon fill="white" stroke="#bfbfbf" points="299,-1212.5 299,-1269.5 367,-1269.5 367,-1212.5 299,-1212.5"/>
<text text-anchor="middle" x="333" y="-1257.5" font-family="Helvetica,sans-Serif" font-size="10.00">vector&lt; T &gt;</text>
<polyline fill="none" stroke="#bfbfbf" points="299,-1250.5 367,-1250.5 "/>
<text text-anchor="middle" x="333" y="-1238.5" font-family="Helvetica,sans-Serif" font-size="10.00"> </text>
<polyline fill="none" stroke="#bfbfbf" points="299,-1231.5 367,-1231.5 "/>
<text text-anchor="middle" x="333" y="-1219.5" font-family="Helvetica,sans-Serif" font-size="10.00"> </text>
</a>
</g>
</g>
<!-- Node7&#45;&gt;Node3 -->
<g id="edge6" class="edge">
<title>Node7&#45;&gt;Node3</title>
<path fill="none" stroke="orange" d="M371.9,-1205.36C403.78,-1174.76 447.48,-1127.29 472,-1077 511.96,-995.05 472.71,-957.79 513,-876 551.85,-797.14 626.26,-723.95 669.21,-685.72"/>
<polygon fill="orange" stroke="orange" points="369.34,-1202.97 364.48,-1212.39 374.15,-1208.06 369.34,-1202.97"/>
<text text-anchor="middle" x="549.5" y="-974" font-family="Helvetica,sans-Serif" font-size="10.00"> &lt; Assumption &gt;</text>
</g>
<!-- Node9 -->
<g id="node9" class="node">
<title>Node9</title>
<g id="a_node9"><a xlink:title=" ">
<polygon fill="white" stroke="#bfbfbf" points="367.5,-369.5 367.5,-426.5 464.5,-426.5 464.5,-369.5 367.5,-369.5"/>
<text text-anchor="middle" x="416" y="-414.5" font-family="Helvetica,sans-Serif" font-size="10.00">vector&lt; AtcfLine &gt;</text>
<polyline fill="none" stroke="#bfbfbf" points="367.5,-407.5 464.5,-407.5 "/>
<text text-anchor="middle" x="416" y="-395.5" font-family="Helvetica,sans-Serif" font-size="10.00"> </text>
<polyline fill="none" stroke="#bfbfbf" points="367.5,-388.5 464.5,-388.5 "/>
<text text-anchor="middle" x="416" y="-376.5" font-family="Helvetica,sans-Serif" font-size="10.00"> </text>
</a>
</g>
</g>
<!-- Node7&#45;&gt;Node9 -->
<g id="edge23" class="edge">
<title>Node7&#45;&gt;Node9</title>
<path fill="none" stroke="orange" d="M311.2,-1203.39C293.45,-1171.32 269.79,-1122.81 260,-1077 241.33,-989.64 250.64,-964.84 260,-876 278.1,-704.27 268.37,-652.67 341,-496 352.91,-470.31 372.69,-445.14 388.94,-426.87"/>
<polygon fill="orange" stroke="orange" points="308.31,-1205.39 316.26,-1212.39 314.41,-1201.96 308.31,-1205.39"/>
<text text-anchor="middle" x="292.5" y="-844.5" font-family="Helvetica,sans-Serif" font-size="10.00"> &lt; AtcfLine &gt;</text>
</g>
<!-- Node11 -->
<g id="node11" class="node">
<title>Node11</title>
<g id="a_node11"><a xlink:title=" ">
<polygon fill="white" stroke="#bfbfbf" points="269,-948 269,-1005 363,-1005 363,-948 269,-948"/>
<text text-anchor="middle" x="316" y="-993" font-family="Helvetica,sans-Serif" font-size="10.00">vector&lt; Isotach &gt;</text>
<polyline fill="none" stroke="#bfbfbf" points="269,-986 363,-986 "/>
<text text-anchor="middle" x="316" y="-974" font-family="Helvetica,sans-Serif" font-size="10.00"> </text>
<polyline fill="none" stroke="#bfbfbf" points="269,-967 363,-967 "/>
<text text-anchor="middle" x="316" y="-955" font-family="Helvetica,sans-Serif" font-size="10.00"> </text>
</a>
</g>
</g>
<!-- Node7&#45;&gt;Node11 -->
<g id="edge20" class="edge">
<title>Node7&#45;&gt;Node11</title>
<path fill="none" stroke="orange" d="M330.56,-1202.32C327.1,-1148.9 320.85,-1052.4 317.79,-1005.12"/>
<polygon fill="orange" stroke="orange" points="327.07,-1202.65 331.21,-1212.4 334.06,-1202.2 327.07,-1202.65"/>
<text text-anchor="middle" x="353" y="-1103.5" font-family="Helvetica,sans-Serif" font-size="10.00"> &lt; Isotach &gt;</text>
</g>
<!-- Node8 -->
<g id="node8" class="node">
<title>Node8</title>
<g id="a_node8"><a xlink:title=" ">
<polygon fill="white" stroke="#bfbfbf" points="259.5,-1604.5 259.5,-1661.5 288.5,-1661.5 288.5,-1604.5 259.5,-1604.5"/>
<text text-anchor="middle" x="274" y="-1649.5" font-family="Helvetica,sans-Serif" font-size="10.00">T</text>
<polyline fill="none" stroke="#bfbfbf" points="259.5,-1642.5 288.5,-1642.5 "/>
<text text-anchor="middle" x="274" y="-1630.5" font-family="Helvetica,sans-Serif" font-size="10.00"> </text>
<polyline fill="none" stroke="#bfbfbf" points="259.5,-1623.5 288.5,-1623.5 "/>
<text text-anchor="middle" x="274" y="-1611.5" font-family="Helvetica,sans-Serif" font-size="10.00"> </text>
</a>
</g>
</g>
<!-- Node8&#45;&gt;Node7 -->
<g id="edge7" class="edge">
<title>Node8&#45;&gt;Node7</title>
<path fill="none" stroke="#404040" d="M288.64,-1612.36C293.73,-1604.55 298.93,-1595.22 302,-1586 337.2,-1480.4 337.65,-1347.08 335.24,-1281.76"/>
<polygon fill="none" stroke="#404040" points="335.23,-1281.62 330.99,-1275.79 334.73,-1269.63 338.98,-1275.45 335.23,-1281.62"/>
<text text-anchor="middle" x="352.5" y="-1473" font-family="Helvetica,sans-Serif" font-size="10.00"> +elements</text>
</g>
<!-- Node14 -->
<g id="node14" class="node">
<title>Node14</title>
<g id="a_node14"><a xlink:title=" ">
<polygon fill="white" stroke="#bfbfbf" points="188,-1499.5 188,-1556.5 250,-1556.5 250,-1499.5 188,-1499.5"/>
<text text-anchor="middle" x="219" y="-1544.5" font-family="Helvetica,sans-Serif" font-size="10.00">array&lt; T &gt;</text>
<polyline fill="none" stroke="#bfbfbf" points="188,-1537.5 250,-1537.5 "/>
<text text-anchor="middle" x="219" y="-1525.5" font-family="Helvetica,sans-Serif" font-size="10.00"> </text>
<polyline fill="none" stroke="#bfbfbf" points="188,-1518.5 250,-1518.5 "/>
<text text-anchor="middle" x="219" y="-1506.5" font-family="Helvetica,sans-Serif" font-size="10.00"> </text>
</a>
</g>
</g>
<!-- Node8&#45;&gt;Node14 -->
<g id="edge15" class="edge">
<title>Node8&#45;&gt;Node14</title>
<path fill="none" stroke="#404040" d="M259.41,-1604.67C253.36,-1593.35 246.25,-1580.02 239.68,-1567.73"/>
<polygon fill="none" stroke="#404040" points="239.51,-1567.4 233.15,-1563.99 233.85,-1556.82 240.21,-1560.23 239.51,-1567.4"/>
<text text-anchor="middle" x="273.5" y="-1578" font-family="Helvetica,sans-Serif" font-size="10.00"> +elements</text>
</g>
<!-- Node9&#45;&gt;Node1 -->
<g id="edge9" class="edge">
<title>Node9&#45;&gt;Node1</title>
<path fill="none" stroke="#404040" d="M447.98,-369.5C486.71,-336.18 553.65,-278.6 609.1,-230.91"/>
<polygon fill="none" stroke="#404040" points="609.14,-230.87 611.08,-223.92 618.24,-223.04 616.3,-229.99 609.14,-230.87"/>
<text text-anchor="middle" x="530" y="-321" font-family="Helvetica,sans-Serif" font-size="10.00"> &#45;m_atcfData</text>
</g>
<!-- Node10&#45;&gt;Node9 -->
<g id="edge10" class="edge">
<title>Node10&#45;&gt;Node9</title>
<path fill="none" stroke="#404040" d="M416,-496.16C416,-475.06 416,-455.16 416,-438.93"/>
<polygon fill="none" stroke="#404040" points="416,-438.74 412,-432.74 416,-426.74 420,-432.74 416,-438.74"/>
<text text-anchor="middle" x="440.5" y="-470" font-family="Helvetica,sans-Serif" font-size="10.00"> +elements</text>
</g>
<!-- Node11&#45;&gt;Node10 -->
<g id="edge11" class="edge">
<title>Node11&#45;&gt;Node10</title>
<path fill="none" stroke="#404040" d="M324.7,-947.88C333.39,-920.28 347.53,-875.41 362.1,-829.12"/>
<polygon fill="none" stroke="#404040" points="362.11,-829.09 360.1,-822.17 365.72,-817.65 367.73,-824.57 362.11,-829.09"/>
<text text-anchor="middle" x="384" y="-850" font-family="Helvetica,sans-Serif" font-size="10.00"> &#45;m_isotach</text>
<text text-anchor="middle" x="384" y="-839" font-family="Helvetica,sans-Serif" font-size="10.00">&#45;m_seas</text>
</g>
<!-- Node12 -->
<g id="node12" class="node">
<title>Node12</title>
<g id="a_node12"><a xlink:href="classIsotach.html" target="_top" xlink:title=" ">
<polygon fill="white" stroke="black" points="114.5,-1135.5 114.5,-1346.5 215.5,-1346.5 215.5,-1135.5 114.5,-1135.5"/>
<text text-anchor="middle" x="165" y="-1334.5" font-family="Helvetica,sans-Serif" font-size="10.00">Isotach</text>
<polyline fill="none" stroke="black" points="114.5,-1327.5 215.5,-1327.5 "/>
<text text-anchor="start" x="122.5" y="-1315.5" font-family="Helvetica,sans-Serif" font-size="10.00">&#45; m_radiusCode</text>
<text text-anchor="start" x="122.5" y="-1304.5" font-family="Helvetica,sans-Serif" font-size="10.00">&#45; m_windSpeed</text>
<polyline fill="none" stroke="black" points="114.5,-1297.5 215.5,-1297.5 "/>
<text text-anchor="start" x="122.5" y="-1285.5" font-family="Helvetica,sans-Serif" font-size="10.00">+ Isotach()</text>
<text text-anchor="start" x="122.5" y="-1274.5" font-family="Helvetica,sans-Serif" font-size="10.00">+ Isotach()</text>
<text text-anchor="start" x="122.5" y="-1263.5" font-family="Helvetica,sans-Serif" font-size="10.00">+ code()</text>
<text text-anchor="start" x="122.5" y="-1252.5" font-family="Helvetica,sans-Serif" font-size="10.00">+ lookupRadii()</text>
<text text-anchor="start" x="122.5" y="-1241.5" font-family="Helvetica,sans-Serif" font-size="10.00">+ quadflag()</text>
<text text-anchor="start" x="122.5" y="-1230.5" font-family="Helvetica,sans-Serif" font-size="10.00">+ radii()</text>
<text text-anchor="start" x="122.5" y="-1219.5" font-family="Helvetica,sans-Serif" font-size="10.00">+ radiusCode()</text>
<text text-anchor="start" x="122.5" y="-1208.5" font-family="Helvetica,sans-Serif" font-size="10.00">+ radiusQ1()</text>
<text text-anchor="start" x="122.5" y="-1197.5" font-family="Helvetica,sans-Serif" font-size="10.00">+ radiusQ2()</text>
<text text-anchor="start" x="122.5" y="-1186.5" font-family="Helvetica,sans-Serif" font-size="10.00">+ radiusQ3()</text>
<text text-anchor="start" x="122.5" y="-1175.5" font-family="Helvetica,sans-Serif" font-size="10.00">and 14 more...</text>
<text text-anchor="start" x="122.5" y="-1164.5" font-family="Helvetica,sans-Serif" font-size="10.00">+ codeFromString()</text>
<text text-anchor="start" x="122.5" y="-1153.5" font-family="Helvetica,sans-Serif" font-size="10.00">+ isNull()</text>
<text text-anchor="start" x="122.5" y="-1142.5" font-family="Helvetica,sans-Serif" font-size="10.00">+ stringFromCode()</text>
</a>
</g>
</g>
<!-- Node12&#45;&gt;Node11 -->
<g id="edge12" class="edge">
<title>Node12&#45;&gt;Node11</title>
<path fill="none" stroke="#404040" d="M215.7,-1151.86C242.33,-1105.56 273.6,-1051.21 294.05,-1015.65"/>
<polygon fill="none" stroke="#404040" points="294.05,-1015.65 293.58,-1008.46 300.04,-1005.25 300.51,-1012.45 294.05,-1015.65"/>
<text text-anchor="middle" x="270.5" y="-1103.5" font-family="Helvetica,sans-Serif" font-size="10.00"> +elements</text>
</g>
<!-- Node13 -->
<g id="node13" class="node">
<title>Node13</title>
<g id="a_node13"><a xlink:title=" ">
<polygon fill="white" stroke="#bfbfbf" points="114,-1394.5 114,-1451.5 210,-1451.5 210,-1394.5 114,-1394.5"/>
<text text-anchor="middle" x="162" y="-1439.5" font-family="Helvetica,sans-Serif" font-size="10.00">array&lt; double, 6 &gt;</text>
<polyline fill="none" stroke="#bfbfbf" points="114,-1432.5 210,-1432.5 "/>
<text text-anchor="start" x="122" y="-1420.5" font-family="Helvetica,sans-Serif" font-size="10.00">+ elements</text>
<polyline fill="none" stroke="#bfbfbf" points="114,-1413.5 210,-1413.5 "/>
<text text-anchor="middle" x="162" y="-1401.5" font-family="Helvetica,sans-Serif" font-size="10.00"> </text>
</a>
</g>
</g>
<!-- Node13&#45;&gt;Node12 -->
<g id="edge13" class="edge">
<title>Node13&#45;&gt;Node12</title>
<path fill="none" stroke="#404040" d="M162.46,-1394.27C162.63,-1384.15 162.83,-1371.98 163.05,-1358.97"/>
<polygon fill="none" stroke="#404040" points="163.05,-1358.83 159.15,-1352.76 163.25,-1346.83 167.15,-1352.9 163.05,-1358.83"/>
<text text-anchor="middle" x="199" y="-1368" font-family="Helvetica,sans-Serif" font-size="10.00"> &#45;m_lookup_radii</text>
</g>
<!-- Node14&#45;&gt;Node13 -->
<g id="edge14" class="edge">
<title>Node14&#45;&gt;Node13</title>
<path fill="none" stroke="orange" d="M183.62,-1491.37C181.17,-1488.01 178.92,-1484.53 177,-1481 172.11,-1472.01 168.75,-1461.35 166.47,-1451.69"/>
<polygon fill="orange" stroke="orange" points="181.06,-1493.78 190.01,-1499.46 186.55,-1489.44 181.06,-1493.78"/>
<text text-anchor="middle" x="207.5" y="-1473" font-family="Helvetica,sans-Serif" font-size="10.00"> &lt; double, 6 &gt;</text>
</g>
<!-- Node15 -->
<g id="node15" class="node">
<title>Node15</title>
<g id="a_node15"><a xlink:title=" ">
<polygon fill="white" stroke="#bfbfbf" points="228,-1394.5 228,-1451.5 306,-1451.5 306,-1394.5 228,-1394.5"/>
<text text-anchor="middle" x="267" y="-1439.5" font-family="Helvetica,sans-Serif" font-size="10.00">array&lt; int, 4 &gt;</text>
<polyline fill="none" stroke="#bfbfbf" points="228,-1432.5 306,-1432.5 "/>
<text text-anchor="start" x="236" y="-1420.5" font-family="Helvetica,sans-Serif" font-size="10.00">+ elements</text>
<polyline fill="none" stroke="#bfbfbf" points="228,-1413.5 306,-1413.5 "/>
<text text-anchor="middle" x="267" y="-1401.5" font-family="Helvetica,sans-Serif" font-size="10.00"> </text>
</a>
</g>
</g>
<!-- Node14&#45;&gt;Node15 -->
<g id="edge17" class="edge">
<title>Node14&#45;&gt;Node15</title>
<path fill="none" stroke="orange" d="M236.23,-1490.03C242.12,-1477.38 248.61,-1463.46 254.1,-1451.68"/>
<polygon fill="orange" stroke="orange" points="232.91,-1488.86 231.86,-1499.4 239.26,-1491.81 232.91,-1488.86"/>
<text text-anchor="middle" x="266.5" y="-1473" font-family="Helvetica,sans-Serif" font-size="10.00"> &lt; int, 4 &gt;</text>
</g>
<!-- Node16 -->
<g id="node16" class="node">
<title>Node16</title>
<g id="a_node16"><a xlink:title=" ">
<polygon fill="white" stroke="#bfbfbf" points="0,-1394.5 0,-1451.5 96,-1451.5 96,-1394.5 0,-1394.5"/>
<text text-anchor="middle" x="48" y="-1439.5" font-family="Helvetica,sans-Serif" font-size="10.00">array&lt; double, 4 &gt;</text>
<polyline fill="none" stroke="#bfbfbf" points="0,-1432.5 96,-1432.5 "/>
<text text-anchor="start" x="8" y="-1420.5" font-family="Helvetica,sans-Serif" font-size="10.00">+ elements</text>
<polyline fill="none" stroke="#bfbfbf" points="0,-1413.5 96,-1413.5 "/>
<text text-anchor="middle" x="48" y="-1401.5" font-family="Helvetica,sans-Serif" font-size="10.00"> </text>
</a>
</g>
</g>
<!-- Node14&#45;&gt;Node16 -->
<g id="edge19" class="edge">
<title>Node14&#45;&gt;Node16</title>
<path fill="none" stroke="orange" d="M178.2,-1514.17C156.41,-1506.33 129.69,-1495.1 108,-1481 95.35,-1472.78 82.98,-1461.71 72.8,-1451.52"/>
<polygon fill="orange" stroke="orange" points="177.24,-1517.54 187.83,-1517.53 179.54,-1510.93 177.24,-1517.54"/>
<text text-anchor="middle" x="138.5" y="-1473" font-family="Helvetica,sans-Serif" font-size="10.00"> &lt; double, 4 &gt;</text>
</g>
<!-- Node15&#45;&gt;Node12 -->
<g id="edge16" class="edge">
<title>Node15&#45;&gt;Node12</title>
<path fill="none" stroke="#404040" d="M253.35,-1394.27C248.61,-1384.9 243.19,-1374.44 238,-1365 232.81,-1355.57 227.29,-1345.82 221.69,-1336.11"/>
<polygon fill="none" stroke="#404040" points="221.63,-1335.99 215.16,-1332.81 215.61,-1325.61 222.08,-1328.79 221.63,-1335.99"/>
<text text-anchor="middle" x="272.5" y="-1368" font-family="Helvetica,sans-Serif" font-size="10.00"> &#45;m_quadflag</text>
</g>
<!-- Node16&#45;&gt;Node12 -->
<g id="edge18" class="edge">
<title>Node16&#45;&gt;Node12</title>
<path fill="none" stroke="#404040" d="M66.02,-1394.27C77.3,-1376.92 92.52,-1353.51 107.64,-1330.25"/>
<polygon fill="none" stroke="#404040" points="107.79,-1330.02 107.7,-1322.81 114.33,-1319.96 114.41,-1327.17 107.79,-1330.02"/>
<text text-anchor="middle" x="106" y="-1368" font-family="Helvetica,sans-Serif" font-size="10.00"> &#45;m_radius</text>
</g>
<!-- Node17 -->
<g id="node17" class="node">
<title>Node17</title>
<g id="a_node17"><a xlink:href="classDate.html" target="_top" xlink:title=" ">
<polygon fill="white" stroke="black" points="381,-876.5 381,-1076.5 463,-1076.5 463,-876.5 381,-876.5"/>
<text text-anchor="middle" x="422" y="-1064.5" font-family="Helvetica,sans-Serif" font-size="10.00">Date</text>
<polyline fill="none" stroke="black" points="381,-1057.5 463,-1057.5 "/>
<text text-anchor="start" x="389" y="-1045.5" font-family="Helvetica,sans-Serif" font-size="10.00">&#45; m_datetime</text>
<polyline fill="none" stroke="black" points="381,-1038.5 463,-1038.5 "/>
<text text-anchor="start" x="389" y="-1026.5" font-family="Helvetica,sans-Serif" font-size="10.00">+ Date()</text>
<text text-anchor="start" x="389" y="-1015.5" font-family="Helvetica,sans-Serif" font-size="10.00">+ Date()</text>
<text text-anchor="start" x="389" y="-1004.5" font-family="Helvetica,sans-Serif" font-size="10.00">+ Date()</text>
<text text-anchor="start" x="389" y="-993.5" font-family="Helvetica,sans-Serif" font-size="10.00">+ Date()</text>
<text text-anchor="start" x="389" y="-982.5" font-family="Helvetica,sans-Serif" font-size="10.00">+ Date()</text>
<text text-anchor="start" x="389" y="-971.5" font-family="Helvetica,sans-Serif" font-size="10.00">+ Date()</text>
<text text-anchor="start" x="389" y="-960.5" font-family="Helvetica,sans-Serif" font-size="10.00">+ addDays()</text>
<text text-anchor="start" x="389" y="-949.5" font-family="Helvetica,sans-Serif" font-size="10.00">+ addHours()</text>
<text text-anchor="start" x="389" y="-938.5" font-family="Helvetica,sans-Serif" font-size="10.00">+ addMinutes()</text>
<text text-anchor="start" x="389" y="-927.5" font-family="Helvetica,sans-Serif" font-size="10.00">+ addMonths()</text>
<text text-anchor="start" x="389" y="-916.5" font-family="Helvetica,sans-Serif" font-size="10.00">and 44 more...</text>
<text text-anchor="start" x="389" y="-905.5" font-family="Helvetica,sans-Serif" font-size="10.00">+ maxDate()</text>
<text text-anchor="start" x="389" y="-894.5" font-family="Helvetica,sans-Serif" font-size="10.00">+ minDate()</text>
<text text-anchor="start" x="389" y="-883.5" font-family="Helvetica,sans-Serif" font-size="10.00">+ now()</text>
</a>
</g>
</g>
<!-- Node17&#45;&gt;Node10 -->
<g id="edge22" class="edge">
<title>Node17&#45;&gt;Node10</title>
<path fill="none" stroke="#404040" d="M417.52,-876.46C417.32,-870.22 417.14,-864.02 417,-858 416.78,-848.79 416.6,-839.33 416.44,-829.79"/>
<polygon fill="none" stroke="#404040" points="416.44,-829.66 412.35,-823.72 416.26,-817.66 420.35,-823.6 416.44,-829.66"/>
<text text-anchor="middle" x="451" y="-850" font-family="Helvetica,sans-Serif" font-size="10.00"> &#45;m_datetime</text>
<text text-anchor="middle" x="451" y="-839" font-family="Helvetica,sans-Serif" font-size="10.00">&#45;m_refDatetime</text>
</g>
</g>
</svg>
        <g id="navigator" transform="translate(0 0)" fill="#404254">
                <rect fill="#f2f5e9" fill-opacity="0.5" stroke="#606060" stroke-width=".5" x="0" y="0" width="60" height="60"/>
                <use id="zoomplus" xlink:href="#zoomPlus" x="17" y="9" onmousedown="handleZoom(evt,'in')"/>
                <use id="zoomminus" xlink:href="#zoomMin" x="42" y="9" onmousedown="handleZoom(evt,'out')"/>
                <use id="reset" xlink:href="#resetDef" x="30" y="36" onmousedown="handleReset()"/>
                <g id="arrowUp" xlink:href="#dirArrow" transform="translate(30 24)" onmousedown="handlePan(0,-1)">
                  <use xlink:href="#rim" fill="#404040">
                        <set attributeName="fill" to="#808080" begin="arrowUp.mouseover" end="arrowUp.mouseout"/>
                  </use>
                  <path fill="none" stroke="white" stroke-width="1.5" d="M0,-3.0v7 M-2.5,-0.5L0,-3.0L2.5,-0.5"/>
                </g>
                <g id="arrowRight" xlink:href="#dirArrow" transform="rotate(90) translate(36 -43)" onmousedown="handlePan(1,0)">
                  <use xlink:href="#rim" fill="#404040">
                        <set attributeName="fill" to="#808080" begin="arrowRight.mouseover" end="arrowRight.mouseout"/>
                  </use>
                  <path fill="none" stroke="white" stroke-width="1.5" d="M0,-3.0v7 M-2.5,-0.5L0,-3.0L2.5,-0.5"/>
                </g>
                <g id="arrowDown" xlink:href="#dirArrow" transform="rotate(180) translate(-30 -48)" onmousedown="handlePan(0,1)">
                  <use xlink:href="#rim" fill="#404040">
                        <set attributeName="fill" to="#808080" begin="arrowDown.mouseover" end="arrowDown.mouseout"/>
                  </use>
                  <path fill="none" stroke="white" stroke-width="1.5" d="M0,-3.0v7 M-2.5,-0.5L0,-3.0L2.5,-0.5"/>
                </g>
                <g id="arrowLeft" xlink:href="#dirArrow" transform="rotate(270) translate(-36 17)" onmousedown="handlePan(-1,0)">
                  <use xlink:href="#rim" fill="#404040">
                        <set attributeName="fill" to="#808080" begin="arrowLeft.mouseover" end="arrowLeft.mouseout"/>
                  </use>
                  <path fill="none" stroke="white" stroke-width="1.5" d="M0,-3.0v7 M-2.5,-0.5L0,-3.0L2.5,-0.5"/>
                </g>
        </g>
        <svg viewBox="0 0 15 15" width="100%" height="30px" preserveAspectRatio="xMaxYMin meet">
         <g id="arrow_out" transform="scale(0.3 0.3)">
          <a xlink:href="classAtcf__coll__graph_org.svg" target="_base">
           <rect id="button" ry="5" rx="5" y="6" x="6" height="38" width="38"
                fill="#f2f5e9" fill-opacity="0.5" stroke="#606060" stroke-width="1.0"/>
           <path id="arrow"
             d="M 11.500037,31.436501 C 11.940474,20.09759 22.043105,11.32322 32.158766,21.979434 L 37.068811,17.246167 C 37.068811,17.246167 37.088388,32 37.088388,32 L 22.160133,31.978069 C 22.160133,31.978069 26.997745,27.140456 26.997745,27.140456 C 18.528582,18.264221 13.291696,25.230495 11.500037,31.436501 z"
             style="fill:#404040;"/>
          </a>
         </g>
        </svg>
</svg>
