<?xml version="1.0" encoding="UTF-8" standalone="no"?>
<!DOCTYPE svg PUBLIC "-//W3C//DTD SVG 1.1//EN"
 "http://www.w3.org/Graphics/SVG/1.1/DTD/svg11.dtd">
<!-- Generated by graphviz version 2.47.1 (20210417.1919)
 -->
<!-- Title: get Pages: 1 -->
<svg width="337pt" height="256pt"
 viewBox="0.00 0.00 337.00 256.00" xmlns="http://www.w3.org/2000/svg" xmlns:xlink="http://www.w3.org/1999/xlink">
<g id="graph0" class="graph" transform="scale(1 1) rotate(0) translate(4 252)">
<title>get</title>
<polygon fill="white" stroke="transparent" points="-4,4 -4,-252 333,-252 333,4 -4,4"/>
<!-- Node1 -->
<g id="node1" class="node">
<title>Node1</title>
<g id="a_node1"><a xlink:title=" ">
<polygon fill="#bfbfbf" stroke="black" points="0,-114.5 0,-133.5 30,-133.5 30,-114.5 0,-114.5"/>
<text text-anchor="middle" x="15" y="-121.5" font-family="Helvetica,sans-Serif" font-size="10.00">get</text>
</a>
</g>
</g>
<!-- Node2 -->
<g id="node2" class="node">
<title>Node2</title>
<g id="a_node2"><a xlink:href="structs__datetime.html#a5a496ea2e6017fd4b43081f4317f96ce" target="_top" xlink:title=" ">
<polygon fill="white" stroke="black" points="235,-228.5 235,-247.5 321,-247.5 321,-228.5 235,-228.5"/>
<text text-anchor="middle" x="278" y="-235.5" font-family="Helvetica,sans-Serif" font-size="10.00">s_datetime::day</text>
</a>
</g>
</g>
<!-- Node1&#45;&gt;Node2 -->
<g id="edge1" class="edge">
<title>Node1&#45;&gt;Node2</title>
<path fill="none" stroke="midnightblue" d="M20.18,-133.93C27.22,-149.39 42.99,-178.98 66,-194 113.68,-225.11 179.22,-234.78 224.54,-237.51"/>
<polygon fill="midnightblue" stroke="midnightblue" points="224.58,-241.02 234.75,-238.03 224.94,-234.03 224.58,-241.02"/>
</g>
<!-- Node3 -->
<g id="node3" class="node">
<title>Node3</title>
<g id="a_node3"><a xlink:href="structs__datetime.html#a110d566ff7f9edf7cbfe15355f8c637c" target="_top" xlink:title=" ">
<polygon fill="white" stroke="black" points="233.5,-190.5 233.5,-209.5 322.5,-209.5 322.5,-190.5 233.5,-190.5"/>
<text text-anchor="middle" x="278" y="-197.5" font-family="Helvetica,sans-Serif" font-size="10.00">s_datetime::hour</text>
</a>
</g>
</g>
<!-- Node1&#45;&gt;Node3 -->
<g id="edge2" class="edge">
<title>Node1&#45;&gt;Node3</title>
<path fill="none" stroke="midnightblue" d="M24.92,-133.84C34.2,-143.42 49.64,-157.58 66,-165 116.25,-187.78 179.25,-195.91 223.27,-198.72"/>
<polygon fill="midnightblue" stroke="midnightblue" points="223.3,-202.22 233.48,-199.29 223.69,-195.23 223.3,-202.22"/>
</g>
<!-- Node4 -->
<g id="node4" class="node">
<title>Node4</title>
<g id="a_node4"><a xlink:href="structs__datetime.html#a32205231a1a2e9f16cd9866d06c90b22" target="_top" xlink:title=" ">
<polygon fill="white" stroke="black" points="66,-114.5 66,-133.5 191,-133.5 191,-114.5 66,-114.5"/>
<text text-anchor="middle" x="128.5" y="-121.5" font-family="Helvetica,sans-Serif" font-size="10.00">s_datetime::milliseconds</text>
</a>
</g>
</g>
<!-- Node1&#45;&gt;Node4 -->
<g id="edge3" class="edge">
<title>Node1&#45;&gt;Node4</title>
<path fill="none" stroke="midnightblue" d="M30.12,-124C37.04,-124 45.94,-124 55.54,-124"/>
<polygon fill="midnightblue" stroke="midnightblue" points="55.75,-127.5 65.75,-124 55.75,-120.5 55.75,-127.5"/>
</g>
<!-- Node5 -->
<g id="node5" class="node">
<title>Node5</title>
<g id="a_node5"><a xlink:href="structs__datetime.html#ae91256ab81b246d3f40eddbd4c016f5f" target="_top" xlink:title=" ">
<polygon fill="white" stroke="black" points="228,-152.5 228,-171.5 328,-171.5 328,-152.5 228,-152.5"/>
<text text-anchor="middle" x="278" y="-159.5" font-family="Helvetica,sans-Serif" font-size="10.00">s_datetime::minute</text>
</a>
</g>
</g>
<!-- Node1&#45;&gt;Node5 -->
<g id="edge11" class="edge">
<title>Node1&#45;&gt;Node5</title>
<path fill="none" stroke="midnightblue" d="M30.12,-130.55C39.96,-134.83 53.51,-140.12 66,-143 116.33,-154.6 174.93,-159.19 217.58,-160.97"/>
<polygon fill="midnightblue" stroke="midnightblue" points="217.67,-164.48 227.8,-161.36 217.94,-157.48 217.67,-164.48"/>
</g>
<!-- Node6 -->
<g id="node6" class="node">
<title>Node6</title>
<g id="a_node6"><a xlink:href="structs__datetime.html#a1d85d7b09eedec3fb734532c164f2f27" target="_top" xlink:title=" ">
<polygon fill="white" stroke="black" points="229,-76.5 229,-95.5 327,-95.5 327,-76.5 229,-76.5"/>
<text text-anchor="middle" x="278" y="-83.5" font-family="Helvetica,sans-Serif" font-size="10.00">s_datetime::month</text>
</a>
</g>
</g>
<!-- Node1&#45;&gt;Node6 -->
<g id="edge12" class="edge">
<title>Node1&#45;&gt;Node6</title>
<path fill="none" stroke="midnightblue" d="M30.12,-117.45C39.96,-113.17 53.51,-107.88 66,-105 116.66,-93.33 175.7,-88.75 218.42,-87"/>
<polygon fill="midnightblue" stroke="midnightblue" points="218.78,-90.48 228.65,-86.62 218.52,-83.49 218.78,-90.48"/>
</g>
<!-- Node7 -->
<g id="node7" class="node">
<title>Node7</title>
<g id="a_node7"><a xlink:href="structs__datetime.html#aa0cba22e21d8081f564e6a68edab1ae0" target="_top" xlink:title=" ">
<polygon fill="white" stroke="black" points="227,-38.5 227,-57.5 329,-57.5 329,-38.5 227,-38.5"/>
<text text-anchor="middle" x="278" y="-45.5" font-family="Helvetica,sans-Serif" font-size="10.00">s_datetime::second</text>
</a>
</g>
</g>
<!-- Node1&#45;&gt;Node7 -->
<g id="edge13" class="edge">
<title>Node1&#45;&gt;Node7</title>
<path fill="none" stroke="midnightblue" d="M24.97,-114.42C34.3,-105.09 49.77,-91.28 66,-84 113.87,-62.52 173.11,-53.78 216.62,-50.27"/>
<polygon fill="midnightblue" stroke="midnightblue" points="217.06,-53.74 226.77,-49.52 216.54,-46.76 217.06,-53.74"/>
</g>
<!-- Node9 -->
<g id="node9" class="node">
<title>Node9</title>
<g id="a_node9"><a xlink:href="structs__datetime.html#a1b5cb174b9b809888ca1cadfb32791f4" target="_top" xlink:title=" ">
<polygon fill="white" stroke="black" points="233.5,-0.5 233.5,-19.5 322.5,-19.5 322.5,-0.5 233.5,-0.5"/>
<text text-anchor="middle" x="278" y="-7.5" font-family="Helvetica,sans-Serif" font-size="10.00">s_datetime::year</text>
</a>
</g>
</g>
<!-- Node1&#45;&gt;Node9 -->
<g id="edge14" class="edge">
<title>Node1&#45;&gt;Node9</title>
<path fill="none" stroke="midnightblue" d="M19.51,-114.36C25.99,-98.05 41.44,-65.19 66,-49 112.89,-18.09 177.73,-10.06 223.11,-8.68"/>
<polygon fill="midnightblue" stroke="midnightblue" points="223.42,-12.18 233.35,-8.47 223.28,-5.18 223.42,-12.18"/>
</g>
<!-- Node4&#45;&gt;Node2 -->
<g id="edge4" class="edge">
<title>Node4&#45;&gt;Node2</title>
<path fill="none" stroke="midnightblue" d="M137.08,-133.68C152.28,-152.5 188.34,-194.34 227,-219 229.99,-220.91 233.19,-222.66 236.49,-224.28"/>
<polygon fill="midnightblue" stroke="midnightblue" points="235.34,-227.6 245.9,-228.45 238.18,-221.2 235.34,-227.6"/>
</g>
<!-- Node4&#45;&gt;Node3 -->
<g id="edge5" class="edge">
<title>Node4&#45;&gt;Node3</title>
<path fill="none" stroke="midnightblue" d="M144.28,-133.68C163.02,-145.72 196.58,-166.45 227,-181 231.12,-182.97 235.5,-184.88 239.88,-186.69"/>
<polygon fill="midnightblue" stroke="midnightblue" points="238.82,-190.03 249.41,-190.45 241.39,-183.52 238.82,-190.03"/>
</g>
<!-- Node4&#45;&gt;Node5 -->
<g id="edge6" class="edge">
<title>Node4&#45;&gt;Node5</title>
<path fill="none" stroke="midnightblue" d="M166.72,-133.59C186.01,-138.56 209.76,-144.68 230.27,-149.96"/>
<polygon fill="midnightblue" stroke="midnightblue" points="229.49,-153.37 240.05,-152.48 231.24,-146.6 229.49,-153.37"/>
</g>
<!-- Node4&#45;&gt;Node6 -->
<g id="edge7" class="edge">
<title>Node4&#45;&gt;Node6</title>
<path fill="none" stroke="midnightblue" d="M166.72,-114.41C186.01,-109.44 209.76,-103.32 230.27,-98.04"/>
<polygon fill="midnightblue" stroke="midnightblue" points="231.24,-101.4 240.05,-95.52 229.49,-94.63 231.24,-101.4"/>
</g>
<!-- Node4&#45;&gt;Node7 -->
<g id="edge8" class="edge">
<title>Node4&#45;&gt;Node7</title>
<path fill="none" stroke="midnightblue" d="M144.28,-114.32C163.02,-102.28 196.58,-81.55 227,-67 231.12,-65.03 235.5,-63.12 239.88,-61.31"/>
<polygon fill="midnightblue" stroke="midnightblue" points="241.39,-64.48 249.41,-57.55 238.82,-57.97 241.39,-64.48"/>
</g>
<!-- Node8 -->
<g id="node8" class="node">
<title>Node8</title>
<g id="a_node8"><a xlink:href="classDate.html#aa1dec3e6a706a77691a3c49a0fe82e3d" target="_top" xlink:title=" ">
<polygon fill="white" stroke="black" points="247,-114.5 247,-133.5 309,-133.5 309,-114.5 247,-114.5"/>
<text text-anchor="middle" x="278" y="-121.5" font-family="Helvetica,sans-Serif" font-size="10.00">time_point</text>
</a>
</g>
</g>
<!-- Node4&#45;&gt;Node8 -->
<g id="edge9" class="edge">
<title>Node4&#45;&gt;Node8</title>
<path fill="none" stroke="midnightblue" d="M191.2,-124C206.55,-124 222.61,-124 236.64,-124"/>
<polygon fill="midnightblue" stroke="midnightblue" points="236.92,-127.5 246.92,-124 236.92,-120.5 236.92,-127.5"/>
</g>
<!-- Node4&#45;&gt;Node9 -->
<g id="edge10" class="edge">
<title>Node4&#45;&gt;Node9</title>
<path fill="none" stroke="midnightblue" d="M137.08,-114.32C152.28,-95.5 188.34,-53.66 227,-29 229.99,-27.09 233.19,-25.34 236.49,-23.72"/>
<polygon fill="midnightblue" stroke="midnightblue" points="238.18,-26.8 245.9,-19.55 235.34,-20.4 238.18,-26.8"/>
</g>
</g>
</svg>
