<?xml version="1.0" encoding="UTF-8" standalone="no"?>
<!DOCTYPE svg PUBLIC "-//W3C//DTD SVG 1.1//EN"
 "http://www.w3.org/Graphics/SVG/1.1/DTD/svg11.dtd">
<!-- Generated by graphviz version 2.47.1 (20210417.1919)
 -->
<!-- Title: toSeconds Pages: 1 -->
<svg width="626pt" height="110pt"
 viewBox="0.00 0.00 626.00 109.50" xmlns="http://www.w3.org/2000/svg" xmlns:xlink="http://www.w3.org/1999/xlink">
<g id="graph0" class="graph" transform="scale(1 1) rotate(0) translate(4 105.5)">
<title>toSeconds</title>
<polygon fill="white" stroke="transparent" points="-4,4 -4,-105.5 622,-105.5 622,4 -4,4"/>
<!-- Node1 -->
<g id="node1" class="node">
<title>Node1</title>
<g id="a_node1"><a xlink:title=" ">
<polygon fill="#bfbfbf" stroke="black" points="555,-44 555,-63 618,-63 618,-44 555,-44"/>
<text text-anchor="middle" x="586.5" y="-51" font-family="Helvetica,sans-Serif" font-size="10.00">toSeconds</text>
</a>
</g>
</g>
<!-- Node2 -->
<g id="node2" class="node">
<title>Node2</title>
<g id="a_node2"><a xlink:href="classAtcf.html#a288aec5ac021ac483da71812a26dc9c3" target="_top" xlink:title=" ">
<polygon fill="white" stroke="black" points="405,-82 405,-101 519,-101 519,-82 405,-82"/>
<text text-anchor="middle" x="462" y="-89" font-family="Helvetica,sans-Serif" font-size="10.00">Atcf::getCycleNumber</text>
</a>
</g>
</g>
<!-- Node1&#45;&gt;Node2 -->
<g id="edge1" class="edge">
<title>Node1&#45;&gt;Node2</title>
<path fill="none" stroke="midnightblue" d="M545.33,-65.96C528.51,-71.18 509.28,-77.15 493.63,-82"/>
<polygon fill="midnightblue" stroke="midnightblue" points="546.39,-69.3 554.9,-62.99 544.32,-62.61 546.39,-69.3"/>
</g>
<!-- Node5 -->
<g id="node5" class="node">
<title>Node5</title>
<g id="a_node5"><a xlink:href="classDate.html#a8bc73730c18471da988081ce2725dbab" target="_top" xlink:title=" ">
<polygon fill="white" stroke="black" points="426.5,-44 426.5,-63 497.5,-63 497.5,-44 426.5,-44"/>
<text text-anchor="middle" x="462" y="-51" font-family="Helvetica,sans-Serif" font-size="10.00">toMSeconds</text>
</a>
</g>
</g>
<!-- Node1&#45;&gt;Node5 -->
<g id="edge4" class="edge">
<title>Node1&#45;&gt;Node5</title>
<path fill="none" stroke="midnightblue" d="M544.68,-53.5C529.39,-53.5 512.19,-53.5 497.53,-53.5"/>
<polygon fill="midnightblue" stroke="midnightblue" points="544.9,-57 554.9,-53.5 544.9,-50 544.9,-57"/>
</g>
<!-- Node6 -->
<g id="node6" class="node">
<title>Node6</title>
<g id="a_node6"><a xlink:href="classAtcf.html#a4fce87a97b674a5bbb54f01a8dd5c55e" target="_top" xlink:title=" ">
<polygon fill="white" stroke="black" points="424,-6 424,-25 500,-25 500,-6 424,-6"/>
<text text-anchor="middle" x="462" y="-13" font-family="Helvetica,sans-Serif" font-size="10.00">Atcf::uvTrans</text>
</a>
</g>
</g>
<!-- Node1&#45;&gt;Node6 -->
<g id="edge5" class="edge">
<title>Node1&#45;&gt;Node6</title>
<path fill="none" stroke="midnightblue" d="M545.33,-41.04C528.51,-35.82 509.28,-29.85 493.63,-25"/>
<polygon fill="midnightblue" stroke="midnightblue" points="544.32,-44.39 554.9,-44.01 546.39,-37.7 544.32,-44.39"/>
</g>
<!-- Node3 -->
<g id="node3" class="node">
<title>Node3</title>
<g id="a_node3"><a xlink:href="classAtcf.html#af2619be19171e8e1e2f6b110d18c755a" target="_top" xlink:title=" ">
<polygon fill="white" stroke="black" points="220,-82 220,-101 351,-101 351,-82 220,-82"/>
<text text-anchor="middle" x="285.5" y="-89" font-family="Helvetica,sans-Serif" font-size="10.00">Atcf::getStormParameters</text>
</a>
</g>
</g>
<!-- Node2&#45;&gt;Node3 -->
<g id="edge2" class="edge">
<title>Node2&#45;&gt;Node3</title>
<path fill="none" stroke="midnightblue" d="M394.6,-91.5C380.33,-91.5 365.27,-91.5 351.07,-91.5"/>
<polygon fill="midnightblue" stroke="midnightblue" points="394.83,-95 404.83,-91.5 394.83,-88 394.83,-95"/>
</g>
<!-- Node4 -->
<g id="node4" class="node">
<title>Node4</title>
<g id="a_node4"><a xlink:href="classGahm.html#a6cacdf953e6387e58ca0dc1369e15c00" target="_top" xlink:title=" ">
<polygon fill="white" stroke="black" points="104,-82 104,-101 166,-101 166,-82 104,-82"/>
<text text-anchor="middle" x="135" y="-89" font-family="Helvetica,sans-Serif" font-size="10.00">Gahm::get</text>
</a>
</g>
</g>
<!-- Node3&#45;&gt;Node4 -->
<g id="edge3" class="edge">
<title>Node3&#45;&gt;Node4</title>
<path fill="none" stroke="midnightblue" d="M209.72,-91.5C194.35,-91.5 179,-91.5 166.33,-91.5"/>
<polygon fill="midnightblue" stroke="midnightblue" points="209.8,-95 219.8,-91.5 209.8,-88 209.8,-95"/>
</g>
<!-- Node7 -->
<g id="node7" class="node">
<title>Node7</title>
<g id="a_node7"><a xlink:href="classAtcf.html#a4bec7c75f41a2643be3bccf63921dfa1" target="_top" xlink:title=" ">
<polygon fill="white" stroke="black" points="202,-0.5 202,-30.5 369,-30.5 369,-0.5 202,-0.5"/>
<text text-anchor="start" x="210" y="-18.5" font-family="Helvetica,sans-Serif" font-size="10.00">Atcf::calculateOverlandTranslation</text>
<text text-anchor="middle" x="285.5" y="-7.5" font-family="Helvetica,sans-Serif" font-size="10.00">Velocity</text>
</a>
</g>
</g>
<!-- Node6&#45;&gt;Node7 -->
<g id="edge6" class="edge">
<title>Node6&#45;&gt;Node7</title>
<path fill="none" stroke="midnightblue" d="M413.78,-15.5C399.95,-15.5 384.4,-15.5 369.05,-15.5"/>
<polygon fill="midnightblue" stroke="midnightblue" points="413.99,-19 423.99,-15.5 413.99,-12 413.99,-19"/>
</g>
<!-- Node8 -->
<g id="node8" class="node">
<title>Node8</title>
<g id="a_node8"><a xlink:href="classAtcf.html#aaab5dab5b969a87f538242e524431637" target="_top" xlink:title=" ">
<polygon fill="white" stroke="black" points="105.5,-6 105.5,-25 164.5,-25 164.5,-6 105.5,-6"/>
<text text-anchor="middle" x="135" y="-13" font-family="Helvetica,sans-Serif" font-size="10.00">Atcf::read</text>
</a>
</g>
</g>
<!-- Node7&#45;&gt;Node8 -->
<g id="edge7" class="edge">
<title>Node7&#45;&gt;Node8</title>
<path fill="none" stroke="midnightblue" d="M191.77,-15.5C182.09,-15.5 172.85,-15.5 164.78,-15.5"/>
<polygon fill="midnightblue" stroke="midnightblue" points="192,-19 202,-15.5 192,-12 192,-19"/>
</g>
<!-- Node9 -->
<g id="node9" class="node">
<title>Node9</title>
<g id="a_node9"><a xlink:href="classGahm.html#aaab5dab5b969a87f538242e524431637" target="_top" xlink:title=" ">
<polygon fill="white" stroke="black" points="0,-6 0,-25 68,-25 68,-6 0,-6"/>
<text text-anchor="middle" x="34" y="-13" font-family="Helvetica,sans-Serif" font-size="10.00">Gahm::read</text>
</a>
</g>
</g>
<!-- Node8&#45;&gt;Node9 -->
<g id="edge8" class="edge">
<title>Node8&#45;&gt;Node9</title>
<path fill="none" stroke="midnightblue" d="M95.16,-15.5C86.22,-15.5 76.78,-15.5 68.11,-15.5"/>
<polygon fill="midnightblue" stroke="midnightblue" points="95.37,-19 105.37,-15.5 95.37,-12 95.37,-19"/>
</g>
</g>
</svg>
