<?xml version="1.0" encoding="UTF-8" standalone="no"?>
<!DOCTYPE svg PUBLIC "-//W3C//DTD SVG 1.1//EN"
 "http://www.w3.org/Graphics/SVG/1.1/DTD/svg11.dtd">
<!-- Generated by graphviz version 2.47.1 (20210417.1919)
 -->
<!-- Title: setHour Pages: 1 -->
<svg width="322pt" height="256pt"
 viewBox="0.00 0.00 322.00 256.00" xmlns="http://www.w3.org/2000/svg" xmlns:xlink="http://www.w3.org/1999/xlink">
<g id="graph0" class="graph" transform="scale(1 1) rotate(0) translate(4 252)">
<title>setHour</title>
<polygon fill="white" stroke="transparent" points="-4,4 -4,-252 318,-252 318,4 -4,4"/>
<!-- Node1 -->
<g id="node1" class="node">
<title>Node1</title>
<g id="a_node1"><a xlink:title=" ">
<polygon fill="#bfbfbf" stroke="black" points="0,-114.5 0,-133.5 51,-133.5 51,-114.5 0,-114.5"/>
<text text-anchor="middle" x="25.5" y="-121.5" font-family="Helvetica,sans-Serif" font-size="10.00">setHour</text>
</a>
</g>
</g>
<!-- Node2 -->
<g id="node2" class="node">
<title>Node2</title>
<g id="a_node2"><a xlink:href="structs__datetime.html#a5a496ea2e6017fd4b43081f4317f96ce" target="_top" xlink:title=" ">
<polygon fill="white" stroke="black" points="95,-228.5 95,-247.5 181,-247.5 181,-228.5 95,-228.5"/>
<text text-anchor="middle" x="138" y="-235.5" font-family="Helvetica,sans-Serif" font-size="10.00">s_datetime::day</text>
</a>
</g>
</g>
<!-- Node1&#45;&gt;Node2 -->
<g id="edge1" class="edge">
<title>Node1&#45;&gt;Node2</title>
<path fill="none" stroke="midnightblue" d="M30.13,-133.51C37.81,-152.41 57.43,-194.92 87,-219 89.05,-220.67 91.26,-222.2 93.57,-223.6"/>
<polygon fill="midnightblue" stroke="midnightblue" points="92.36,-226.92 102.85,-228.42 95.58,-220.71 92.36,-226.92"/>
</g>
<!-- Node3 -->
<g id="node3" class="node">
<title>Node3</title>
<g id="a_node3"><a xlink:href="classDate.html#a27cd68f63fa079225649f69b74527323" target="_top" xlink:title=" ">
<polygon fill="white" stroke="black" points="120.5,-190.5 120.5,-209.5 155.5,-209.5 155.5,-190.5 120.5,-190.5"/>
<text text-anchor="middle" x="138" y="-197.5" font-family="Helvetica,sans-Serif" font-size="10.00">hour</text>
</a>
</g>
</g>
<!-- Node1&#45;&gt;Node3 -->
<g id="edge2" class="edge">
<title>Node1&#45;&gt;Node3</title>
<path fill="none" stroke="midnightblue" d="M34.59,-133.7C45.42,-146.13 65.72,-167.68 87,-181 94.31,-185.57 102.89,-189.33 110.86,-192.26"/>
<polygon fill="midnightblue" stroke="midnightblue" points="109.89,-195.62 120.48,-195.52 112.14,-189 109.89,-195.62"/>
</g>
<!-- Node5 -->
<g id="node5" class="node">
<title>Node5</title>
<g id="a_node5"><a xlink:href="structs__datetime.html#ae91256ab81b246d3f40eddbd4c016f5f" target="_top" xlink:title=" ">
<polygon fill="white" stroke="black" points="88,-152.5 88,-171.5 188,-171.5 188,-152.5 88,-152.5"/>
<text text-anchor="middle" x="138" y="-159.5" font-family="Helvetica,sans-Serif" font-size="10.00">s_datetime::minute</text>
</a>
</g>
</g>
<!-- Node1&#45;&gt;Node5 -->
<g id="edge4" class="edge">
<title>Node1&#45;&gt;Node5</title>
<path fill="none" stroke="midnightblue" d="M51.02,-132.43C65.24,-137.32 83.44,-143.58 99.43,-149.08"/>
<polygon fill="midnightblue" stroke="midnightblue" points="98.45,-152.44 109.04,-152.38 100.72,-145.82 98.45,-152.44"/>
</g>
<!-- Node6 -->
<g id="node6" class="node">
<title>Node6</title>
<g id="a_node6"><a xlink:href="structs__datetime.html#a1d85d7b09eedec3fb734532c164f2f27" target="_top" xlink:title=" ">
<polygon fill="white" stroke="black" points="89,-114.5 89,-133.5 187,-133.5 187,-114.5 89,-114.5"/>
<text text-anchor="middle" x="138" y="-121.5" font-family="Helvetica,sans-Serif" font-size="10.00">s_datetime::month</text>
</a>
</g>
</g>
<!-- Node1&#45;&gt;Node6 -->
<g id="edge5" class="edge">
<title>Node1&#45;&gt;Node6</title>
<path fill="none" stroke="midnightblue" d="M51.02,-124C59.33,-124 68.99,-124 78.78,-124"/>
<polygon fill="midnightblue" stroke="midnightblue" points="78.98,-127.5 88.98,-124 78.97,-120.5 78.98,-127.5"/>
</g>
<!-- Node7 -->
<g id="node7" class="node">
<title>Node7</title>
<g id="a_node7"><a xlink:href="structs__datetime.html#aa0cba22e21d8081f564e6a68edab1ae0" target="_top" xlink:title=" ">
<polygon fill="white" stroke="black" points="87,-76.5 87,-95.5 189,-95.5 189,-76.5 87,-76.5"/>
<text text-anchor="middle" x="138" y="-83.5" font-family="Helvetica,sans-Serif" font-size="10.00">s_datetime::second</text>
</a>
</g>
</g>
<!-- Node1&#45;&gt;Node7 -->
<g id="edge6" class="edge">
<title>Node1&#45;&gt;Node7</title>
<path fill="none" stroke="midnightblue" d="M51.02,-115.57C65.24,-110.68 83.44,-104.42 99.43,-98.92"/>
<polygon fill="midnightblue" stroke="midnightblue" points="100.72,-102.18 109.04,-95.62 98.45,-95.56 100.72,-102.18"/>
</g>
<!-- Node8 -->
<g id="node8" class="node">
<title>Node8</title>
<g id="a_node8"><a xlink:href="classDate.html#ad1762f5051124b0a842e0cd1e94c6237" target="_top" xlink:title=" ">
<polygon fill="white" stroke="black" points="123,-38.5 123,-57.5 153,-57.5 153,-38.5 123,-38.5"/>
<text text-anchor="middle" x="138" y="-45.5" font-family="Helvetica,sans-Serif" font-size="10.00">set</text>
</a>
</g>
</g>
<!-- Node1&#45;&gt;Node8 -->
<g id="edge7" class="edge">
<title>Node1&#45;&gt;Node8</title>
<path fill="none" stroke="midnightblue" d="M34.59,-114.3C45.42,-101.87 65.72,-80.32 87,-67 95.03,-61.97 104.61,-57.93 113.22,-54.89"/>
<polygon fill="midnightblue" stroke="midnightblue" points="114.31,-58.22 122.73,-51.78 112.14,-51.56 114.31,-58.22"/>
</g>
<!-- Node9 -->
<g id="node9" class="node">
<title>Node9</title>
<g id="a_node9"><a xlink:href="structs__datetime.html#a1b5cb174b9b809888ca1cadfb32791f4" target="_top" xlink:title=" ">
<polygon fill="white" stroke="black" points="93.5,-0.5 93.5,-19.5 182.5,-19.5 182.5,-0.5 93.5,-0.5"/>
<text text-anchor="middle" x="138" y="-7.5" font-family="Helvetica,sans-Serif" font-size="10.00">s_datetime::year</text>
</a>
</g>
</g>
<!-- Node1&#45;&gt;Node9 -->
<g id="edge8" class="edge">
<title>Node1&#45;&gt;Node9</title>
<path fill="none" stroke="midnightblue" d="M30.13,-114.49C37.81,-95.59 57.43,-53.08 87,-29 89.05,-27.33 91.26,-25.8 93.57,-24.4"/>
<polygon fill="midnightblue" stroke="midnightblue" points="95.58,-27.29 102.85,-19.58 92.36,-21.08 95.58,-27.29"/>
</g>
<!-- Node4 -->
<g id="node4" class="node">
<title>Node4</title>
<g id="a_node4"><a xlink:href="structs__datetime.html#a110d566ff7f9edf7cbfe15355f8c637c" target="_top" xlink:title=" ">
<polygon fill="white" stroke="black" points="225,-190.5 225,-209.5 314,-209.5 314,-190.5 225,-190.5"/>
<text text-anchor="middle" x="269.5" y="-197.5" font-family="Helvetica,sans-Serif" font-size="10.00">s_datetime::hour</text>
</a>
</g>
</g>
<!-- Node3&#45;&gt;Node4 -->
<g id="edge3" class="edge">
<title>Node3&#45;&gt;Node4</title>
<path fill="none" stroke="midnightblue" d="M155.66,-200C170.63,-200 193.46,-200 214.68,-200"/>
<polygon fill="midnightblue" stroke="midnightblue" points="214.92,-203.5 224.92,-200 214.92,-196.5 214.92,-203.5"/>
</g>
</g>
</svg>
