<?xml version="1.0" encoding="UTF-8" standalone="no"?>
<!DOCTYPE svg PUBLIC "-//W3C//DTD SVG 1.1//EN"
 "http://www.w3.org/Graphics/SVG/1.1/DTD/svg11.dtd">
<!-- Generated by graphviz version 2.47.1 (20210417.1919)
 -->
<!-- Title: setMissingRadiiToAverageOfAdjacentRadii Pages: 1 -->
<svg width="409pt" height="180pt"
 viewBox="0.00 0.00 409.00 180.00" xmlns="http://www.w3.org/2000/svg" xmlns:xlink="http://www.w3.org/1999/xlink">
<g id="graph0" class="graph" transform="scale(1 1) rotate(0) translate(4 176)">
<title>setMissingRadiiToAverageOfAdjacentRadii</title>
<polygon fill="white" stroke="transparent" points="-4,4 -4,-176 405,-176 405,4 -4,4"/>
<!-- Node1 -->
<g id="node1" class="node">
<title>Node1</title>
<g id="a_node1"><a xlink:title=" ">
<polygon fill="#bfbfbf" stroke="black" points="0,-71 0,-101 133,-101 133,-71 0,-71"/>
<text text-anchor="start" x="8" y="-89" font-family="Helvetica,sans-Serif" font-size="10.00">setMissingRadiiToAverage</text>
<text text-anchor="middle" x="66.5" y="-78" font-family="Helvetica,sans-Serif" font-size="10.00">OfAdjacentRadii</text>
</a>
</g>
</g>
<!-- Node2 -->
<g id="node2" class="node">
<title>Node2</title>
<g id="a_node2"><a xlink:href="classAssumptions.html#a20319f7261289f879d667fe91034d503" target="_top" xlink:title=" ">
<polygon fill="white" stroke="black" points="170.5,-152.5 170.5,-171.5 265.5,-171.5 265.5,-152.5 170.5,-152.5"/>
<text text-anchor="middle" x="218" y="-159.5" font-family="Helvetica,sans-Serif" font-size="10.00">Assumptions::add</text>
</a>
</g>
</g>
<!-- Node1&#45;&gt;Node2 -->
<g id="edge1" class="edge">
<title>Node1&#45;&gt;Node2</title>
<path fill="none" stroke="midnightblue" d="M92.03,-101.01C112.29,-113.1 141.99,-130.14 169,-143 173.07,-144.94 177.39,-146.85 181.71,-148.67"/>
<polygon fill="midnightblue" stroke="midnightblue" points="180.49,-151.94 191.07,-152.47 183.13,-145.46 180.49,-151.94"/>
</g>
<!-- Node3 -->
<g id="node3" class="node">
<title>Node3</title>
<g id="a_node3"><a xlink:href="classCircularArray.html#a0642b8def16b83c1fff8f93326d2c842" target="_top" xlink:title=" ">
<polygon fill="white" stroke="black" points="174,-114.5 174,-133.5 262,-133.5 262,-114.5 174,-114.5"/>
<text text-anchor="middle" x="218" y="-121.5" font-family="Helvetica,sans-Serif" font-size="10.00">CircularArray::at</text>
</a>
</g>
</g>
<!-- Node1&#45;&gt;Node3 -->
<g id="edge2" class="edge">
<title>Node1&#45;&gt;Node3</title>
<path fill="none" stroke="midnightblue" d="M126.59,-101.02C140.76,-104.62 155.73,-108.43 169.32,-111.88"/>
<polygon fill="midnightblue" stroke="midnightblue" points="168.85,-115.37 179.4,-114.44 170.57,-108.59 168.85,-115.37"/>
</g>
<!-- Node5 -->
<g id="node5" class="node">
<title>Node5</title>
<g id="a_node5"><a xlink:href="classAtcf.html#a2c3a3d17067e7d0d53018ec96531bd3d" target="_top" xlink:title=" ">
<polygon fill="white" stroke="black" points="196,-76.5 196,-95.5 240,-95.5 240,-76.5 196,-76.5"/>
<text text-anchor="middle" x="218" y="-83.5" font-family="Helvetica,sans-Serif" font-size="10.00">record</text>
</a>
</g>
</g>
<!-- Node1&#45;&gt;Node5 -->
<g id="edge4" class="edge">
<title>Node1&#45;&gt;Node5</title>
<path fill="none" stroke="midnightblue" d="M133.07,-86C151.25,-86 170.17,-86 185.43,-86"/>
<polygon fill="midnightblue" stroke="midnightblue" points="185.84,-89.5 195.84,-86 185.84,-82.5 185.84,-89.5"/>
</g>
<!-- Node6 -->
<g id="node6" class="node">
<title>Node6</title>
<g id="a_node6"><a xlink:href="classCircularArray.html#a43241fcadbf56b0a7c3f7242acf46eed" target="_top" xlink:title=" ">
<polygon fill="white" stroke="black" points="171.5,-38.5 171.5,-57.5 264.5,-57.5 264.5,-38.5 171.5,-38.5"/>
<text text-anchor="middle" x="218" y="-45.5" font-family="Helvetica,sans-Serif" font-size="10.00">CircularArray::set</text>
</a>
</g>
</g>
<!-- Node1&#45;&gt;Node6 -->
<g id="edge5" class="edge">
<title>Node1&#45;&gt;Node6</title>
<path fill="none" stroke="midnightblue" d="M126.59,-70.98C140.76,-67.38 155.73,-63.57 169.32,-60.12"/>
<polygon fill="midnightblue" stroke="midnightblue" points="170.57,-63.41 179.4,-57.56 168.85,-56.63 170.57,-63.41"/>
</g>
<!-- Node7 -->
<g id="node7" class="node">
<title>Node7</title>
<g id="a_node7"><a xlink:href="classCircularArray.html#af837dccb72214bb010abc276fb618c36" target="_top" xlink:title=" ">
<polygon fill="white" stroke="black" points="169,-0.5 169,-19.5 267,-19.5 267,-0.5 169,-0.5"/>
<text text-anchor="middle" x="218" y="-7.5" font-family="Helvetica,sans-Serif" font-size="10.00">CircularArray::size</text>
</a>
</g>
</g>
<!-- Node1&#45;&gt;Node7 -->
<g id="edge7" class="edge">
<title>Node1&#45;&gt;Node7</title>
<path fill="none" stroke="midnightblue" d="M92.03,-70.99C112.29,-58.9 141.99,-41.86 169,-29 173.07,-27.06 177.39,-25.15 181.71,-23.33"/>
<polygon fill="midnightblue" stroke="midnightblue" points="183.13,-26.54 191.07,-19.53 180.49,-20.06 183.13,-26.54"/>
</g>
<!-- Node4 -->
<g id="node4" class="node">
<title>Node4</title>
<g id="a_node4"><a xlink:href="classCircularArray.html#ae9ee07d89dc4196acefc5b290b9275b8" target="_top" xlink:title=" ">
<polygon fill="white" stroke="black" points="303,-71 303,-101 401,-101 401,-71 303,-71"/>
<text text-anchor="start" x="311" y="-89" font-family="Helvetica,sans-Serif" font-size="10.00">CircularArray::mod</text>
<text text-anchor="middle" x="352" y="-78" font-family="Helvetica,sans-Serif" font-size="10.00">_floor</text>
</a>
</g>
</g>
<!-- Node3&#45;&gt;Node4 -->
<g id="edge3" class="edge">
<title>Node3&#45;&gt;Node4</title>
<path fill="none" stroke="midnightblue" d="M252.31,-114.41C264.66,-110.85 279.06,-106.71 292.98,-102.7"/>
<polygon fill="midnightblue" stroke="midnightblue" points="294.35,-105.95 302.99,-99.82 292.41,-99.22 294.35,-105.95"/>
</g>
<!-- Node6&#45;&gt;Node4 -->
<g id="edge6" class="edge">
<title>Node6&#45;&gt;Node4</title>
<path fill="none" stroke="midnightblue" d="M252.31,-57.59C264.66,-61.15 279.06,-65.29 292.98,-69.3"/>
<polygon fill="midnightblue" stroke="midnightblue" points="292.41,-72.78 302.99,-72.18 294.35,-66.05 292.41,-72.78"/>
</g>
</g>
</svg>
