<?xml version="1.0" encoding="UTF-8" standalone="no"?>
<!DOCTYPE svg PUBLIC "-//W3C//DTD SVG 1.1//EN"
 "http://www.w3.org/Graphics/SVG/1.1/DTD/svg11.dtd">
<!-- Generated by graphviz version 2.47.1 (20210417.1919)
 -->
<!-- Title: read Pages: 1 -->
<svg width="587pt" height="1473pt"
 viewBox="0.00 0.00 587.00 1473.04" xmlns="http://www.w3.org/2000/svg" xmlns:xlink="http://www.w3.org/1999/xlink">
<g id="graph0" class="graph" transform="scale(1 1) rotate(0) translate(4 1469.04)">
<title>read</title>
<polygon fill="white" stroke="transparent" points="-4,4 -4,-1469.04 583,-1469.04 583,4 -4,4"/>
<!-- Node1 -->
<g id="node1" class="node">
<title>Node1</title>
<g id="a_node1"><a xlink:title=" ">
<polygon fill="#bfbfbf" stroke="black" points="0,-630 0,-649 35,-649 35,-630 0,-630"/>
<text text-anchor="middle" x="17.5" y="-637" font-family="Helvetica,sans-Serif" font-size="10.00">read</text>
</a>
</g>
</g>
<!-- Node2 -->
<g id="node2" class="node">
<title>Node2</title>
<g id="a_node2"><a xlink:href="classAtcf.html#a4bec7c75f41a2643be3bccf63921dfa1" target="_top" xlink:title=" ">
<polygon fill="white" stroke="black" points="73.5,-1358.5 73.5,-1388.5 216.5,-1388.5 216.5,-1358.5 73.5,-1358.5"/>
<text text-anchor="start" x="81.5" y="-1376.5" font-family="Helvetica,sans-Serif" font-size="10.00">calculateOverlandTranslation</text>
<text text-anchor="middle" x="145" y="-1365.5" font-family="Helvetica,sans-Serif" font-size="10.00">Velocity</text>
</a>
</g>
</g>
<!-- Node1&#45;&gt;Node2 -->
<g id="edge1" class="edge">
<title>Node1&#45;&gt;Node2</title>
<path fill="none" stroke="midnightblue" d="M19.36,-649.23C23.52,-695.09 42.39,-894.23 71,-1055.5 90.53,-1165.6 123.35,-1294.98 137.35,-1348.45"/>
<polygon fill="midnightblue" stroke="midnightblue" points="134.03,-1349.61 139.96,-1358.39 140.8,-1347.82 134.03,-1349.61"/>
</g>
<!-- Node18 -->
<g id="node11" class="node">
<title>Node18</title>
<g id="a_node11"><a xlink:href="classAtcf.html#a4392a7255cda22dc330a996257216c31" target="_top" xlink:title=" ">
<polygon fill="white" stroke="black" points="106,-361 106,-380 184,-380 184,-361 106,-361"/>
<text text-anchor="middle" x="145" y="-368" font-family="Helvetica,sans-Serif" font-size="10.00">calculateRadii</text>
</a>
</g>
</g>
<!-- Node1&#45;&gt;Node18 -->
<g id="edge11" class="edge">
<title>Node1&#45;&gt;Node18</title>
<path fill="none" stroke="midnightblue" d="M22.97,-629.93C41.22,-590.79 110.38,-442.56 135.13,-389.52"/>
<polygon fill="midnightblue" stroke="midnightblue" points="138.4,-390.78 139.46,-380.24 132.06,-387.82 138.4,-390.78"/>
</g>
<!-- Node25 -->
<g id="node18" class="node">
<title>Node25</title>
<g id="a_node18"><a xlink:href="classAtcf.html#a2c8fb312c911c7d35cc921e303cac875" target="_top" xlink:title=" ">
<polygon fill="white" stroke="black" points="71,-153 71,-172 219,-172 219,-153 71,-153"/>
<text text-anchor="middle" x="145" y="-160" font-family="Helvetica,sans-Serif" font-size="10.00">generateMissingPressureData</text>
</a>
</g>
</g>
<!-- Node1&#45;&gt;Node25 -->
<g id="edge25" class="edge">
<title>Node1&#45;&gt;Node25</title>
<path fill="none" stroke="midnightblue" d="M19.58,-629.9C23.86,-593.24 40.83,-458.64 71,-351.5 88.98,-287.65 120.09,-215.3 135.22,-181.63"/>
<polygon fill="midnightblue" stroke="midnightblue" points="138.59,-182.67 139.54,-172.12 132.22,-179.78 138.59,-182.67"/>
</g>
<!-- Node32 -->
<g id="node23" class="node">
<title>Node32</title>
<g id="a_node23"><a xlink:href="classAtcfLine.html#abada6dfb33f4cbafe1e443a5cf8dc8d0" target="_top" xlink:title=" ">
<polygon fill="white" stroke="black" points="103.5,-115 103.5,-134 186.5,-134 186.5,-115 103.5,-115"/>
<text text-anchor="middle" x="145" y="-122" font-family="Helvetica,sans-Serif" font-size="10.00">AtcfLine::isNull</text>
</a>
</g>
</g>
<!-- Node1&#45;&gt;Node32 -->
<g id="edge31" class="edge">
<title>Node1&#45;&gt;Node32</title>
<path fill="none" stroke="midnightblue" d="M18.86,-629.99C21.46,-564.51 37.95,-181.89 71,-143.5 76.9,-136.65 84.92,-132.11 93.5,-129.14"/>
<polygon fill="midnightblue" stroke="midnightblue" points="94.63,-132.46 103.33,-126.41 92.76,-125.71 94.63,-132.46"/>
</g>
<!-- Node33 -->
<g id="node24" class="node">
<title>Node33</title>
<g id="a_node24"><a xlink:href="classAtcfLine.html#a3554190fe6a66d73743a6aa7407be529" target="_top" xlink:title=" ">
<polygon fill="white" stroke="black" points="270.5,-1143.5 270.5,-1173.5 400.5,-1173.5 400.5,-1143.5 270.5,-1143.5"/>
<text text-anchor="start" x="278.5" y="-1161.5" font-family="Helvetica,sans-Serif" font-size="10.00">AtcfLine::isSameForecast</text>
<text text-anchor="middle" x="335.5" y="-1150.5" font-family="Helvetica,sans-Serif" font-size="10.00">Period</text>
</a>
</g>
</g>
<!-- Node1&#45;&gt;Node33 -->
<g id="edge32" class="edge">
<title>Node1&#45;&gt;Node33</title>
<path fill="none" stroke="midnightblue" d="M18.76,-649.2C20.04,-685.01 27.58,-812.52 71,-905.5 126.1,-1023.48 147.4,-1060.16 255,-1133.5 257.9,-1135.47 260.96,-1137.3 264.13,-1138.99"/>
<polygon fill="midnightblue" stroke="midnightblue" points="262.76,-1142.21 273.29,-1143.38 265.79,-1135.9 262.76,-1142.21"/>
</g>
<!-- Node38 -->
<g id="node29" class="node">
<title>Node38</title>
<g id="a_node29"><a xlink:href="classAtcfLine.html#a669437f8facd47f46097adc21d0d497b" target="_top" xlink:title="Static function to parse an atcf line text using boost. Places data into an Atcfline object and retur...">
<polygon fill="white" stroke="black" points="85.5,-877 85.5,-896 204.5,-896 204.5,-877 85.5,-877"/>
<text text-anchor="middle" x="145" y="-884" font-family="Helvetica,sans-Serif" font-size="10.00">AtcfLine::parseAtcfLine</text>
</a>
</g>
</g>
<!-- Node1&#45;&gt;Node38 -->
<g id="edge38" class="edge">
<title>Node1&#45;&gt;Node38</title>
<path fill="none" stroke="midnightblue" d="M23.42,-649.18C42.2,-686.15 109.59,-818.77 134.58,-867.96"/>
<polygon fill="midnightblue" stroke="midnightblue" points="131.46,-869.55 139.11,-876.88 137.7,-866.38 131.46,-869.55"/>
</g>
<!-- Node3 -->
<g id="node3" class="node">
<title>Node3</title>
<g id="a_node3"><a xlink:href="classPhysical.html#a446b34a690f7a1f10433e477ad0ac973" target="_top" xlink:title=" ">
<polygon fill="white" stroke="black" points="292,-1421 292,-1440 379,-1440 379,-1421 292,-1421"/>
<text text-anchor="middle" x="335.5" y="-1428" font-family="Helvetica,sans-Serif" font-size="10.00">Physical::kt2ms</text>
</a>
</g>
</g>
<!-- Node2&#45;&gt;Node3 -->
<g id="edge2" class="edge">
<title>Node2&#45;&gt;Node3</title>
<path fill="none" stroke="midnightblue" d="M195.65,-1388.54C214.26,-1394.18 235.6,-1400.64 255,-1406.5 267.29,-1410.22 280.65,-1414.25 292.85,-1417.93"/>
<polygon fill="midnightblue" stroke="midnightblue" points="292.19,-1421.39 302.78,-1420.93 294.21,-1414.69 292.19,-1421.39"/>
</g>
<!-- Node4 -->
<g id="node4" class="node">
<title>Node4</title>
<g id="a_node4"><a xlink:href="classPhysical.html#aec8d798f5701bd9c2e131410022ec8f7" target="_top" xlink:title=" ">
<polygon fill="white" stroke="black" points="472,-1440 472,-1459 559,-1459 559,-1440 472,-1440"/>
<text text-anchor="middle" x="515.5" y="-1447" font-family="Helvetica,sans-Serif" font-size="10.00">Physical::ms2kt</text>
</a>
</g>
</g>
<!-- Node2&#45;&gt;Node4 -->
<g id="edge4" class="edge">
<title>Node2&#45;&gt;Node4</title>
<path fill="none" stroke="midnightblue" d="M160.94,-1388.51C180.53,-1407.03 216.93,-1437.54 255,-1449.5 324.05,-1471.19 408.62,-1465.66 462.05,-1458.53"/>
<polygon fill="midnightblue" stroke="midnightblue" points="462.56,-1461.99 471.98,-1457.14 461.59,-1455.06 462.56,-1461.99"/>
</g>
<!-- Node5 -->
<g id="node5" class="node">
<title>Node5</title>
<g id="a_node5"><a xlink:href="classAtcf.html#a4fce87a97b674a5bbb54f01a8dd5c55e" target="_top" xlink:title=" ">
<polygon fill="white" stroke="black" points="309.5,-1307 309.5,-1326 361.5,-1326 361.5,-1307 309.5,-1307"/>
<text text-anchor="middle" x="335.5" y="-1314" font-family="Helvetica,sans-Serif" font-size="10.00">uvTrans</text>
</a>
</g>
</g>
<!-- Node2&#45;&gt;Node5 -->
<g id="edge5" class="edge">
<title>Node2&#45;&gt;Node5</title>
<path fill="none" stroke="midnightblue" d="M186.06,-1358.45C206.53,-1351.03 231.92,-1342.26 255,-1335.5 269.32,-1331.3 285.3,-1327.35 299.15,-1324.14"/>
<polygon fill="midnightblue" stroke="midnightblue" points="300.29,-1327.47 309.27,-1321.85 298.74,-1320.65 300.29,-1327.47"/>
</g>
<!-- Node3&#45;&gt;Node4 -->
<g id="edge3" class="edge">
<title>Node3&#45;&gt;Node4</title>
<path fill="none" stroke="midnightblue" d="M379.14,-1435.05C403.92,-1437.7 435.37,-1441.05 461.71,-1443.87"/>
<polygon fill="midnightblue" stroke="midnightblue" points="461.59,-1447.37 471.9,-1444.95 462.33,-1440.41 461.59,-1447.37"/>
</g>
<!-- Node6 -->
<g id="node6" class="node">
<title>Node6</title>
<g id="a_node6"><a xlink:href="classAtcfLine.html#a31f99dd6bb56e7b2cb4ebbc3a850a8f5" target="_top" xlink:title=" ">
<polygon fill="white" stroke="black" points="467.5,-1244 467.5,-1263 563.5,-1263 563.5,-1244 467.5,-1244"/>
<text text-anchor="middle" x="515.5" y="-1251" font-family="Helvetica,sans-Serif" font-size="10.00">AtcfLine::datetime</text>
</a>
</g>
</g>
<!-- Node5&#45;&gt;Node6 -->
<g id="edge6" class="edge">
<title>Node5&#45;&gt;Node6</title>
<path fill="none" stroke="midnightblue" d="M361.63,-1312.96C377.67,-1310.11 398.64,-1305.27 416,-1297.5 433.78,-1289.54 434.47,-1280.99 452,-1272.5 456.66,-1270.24 461.66,-1268.18 466.71,-1266.33"/>
<polygon fill="midnightblue" stroke="midnightblue" points="468.1,-1269.55 476.43,-1263 465.84,-1262.92 468.1,-1269.55"/>
</g>
<!-- Node7 -->
<g id="node7" class="node">
<title>Node7</title>
<g id="a_node7"><a xlink:href="classAtcfLine.html#af473414f523913837f7ee7520fa9e63d" target="_top" xlink:title=" ">
<polygon fill="white" stroke="black" points="481,-1358 481,-1377 550,-1377 550,-1358 481,-1358"/>
<text text-anchor="middle" x="515.5" y="-1365" font-family="Helvetica,sans-Serif" font-size="10.00">AtcfLine::lat</text>
</a>
</g>
</g>
<!-- Node5&#45;&gt;Node7 -->
<g id="edge7" class="edge">
<title>Node5&#45;&gt;Node7</title>
<path fill="none" stroke="midnightblue" d="M361.76,-1321.78C377.48,-1325.25 398.05,-1330.13 416,-1335.5 432.3,-1340.37 435.86,-1343.14 452,-1348.5 458.51,-1350.66 465.43,-1352.86 472.2,-1354.96"/>
<polygon fill="midnightblue" stroke="midnightblue" points="471.37,-1358.37 481.96,-1357.95 473.43,-1351.68 471.37,-1358.37"/>
</g>
<!-- Node8 -->
<g id="node8" class="node">
<title>Node8</title>
<g id="a_node8"><a xlink:href="classAtcfLine.html#abf1373f021c76c8df3ab03e92eddc42f" target="_top" xlink:title=" ">
<polygon fill="white" stroke="black" points="480,-1054 480,-1073 551,-1073 551,-1054 480,-1054"/>
<text text-anchor="middle" x="515.5" y="-1061" font-family="Helvetica,sans-Serif" font-size="10.00">AtcfLine::lon</text>
</a>
</g>
</g>
<!-- Node5&#45;&gt;Node8 -->
<g id="edge8" class="edge">
<title>Node5&#45;&gt;Node8</title>
<path fill="none" stroke="midnightblue" d="M361.57,-1317.32C379.29,-1316.46 402.25,-1312.23 416,-1297.5 482.12,-1226.68 388.06,-1155.29 452,-1082.5 456.89,-1076.94 463.35,-1072.97 470.27,-1070.16"/>
<polygon fill="midnightblue" stroke="midnightblue" points="471.47,-1073.45 479.87,-1066.99 469.28,-1066.8 471.47,-1073.45"/>
</g>
<!-- Node9 -->
<g id="node9" class="node">
<title>Node9</title>
<g id="a_node9"><a xlink:href="classPhysical.html#ac6d713f1908e7e0538db20f88b34f639" target="_top" xlink:title=" ">
<polygon fill="white" stroke="red" points="459.5,-1320 459.5,-1339 571.5,-1339 571.5,-1320 459.5,-1320"/>
<text text-anchor="middle" x="515.5" y="-1327" font-family="Helvetica,sans-Serif" font-size="10.00">Physical::sphericalDx</text>
</a>
</g>
</g>
<!-- Node5&#45;&gt;Node9 -->
<g id="edge9" class="edge">
<title>Node5&#45;&gt;Node9</title>
<path fill="none" stroke="midnightblue" d="M361.63,-1318.34C384.36,-1320 418.83,-1322.51 449.3,-1324.74"/>
<polygon fill="midnightblue" stroke="midnightblue" points="449.22,-1328.24 459.45,-1325.48 449.73,-1321.26 449.22,-1328.24"/>
</g>
<!-- Node16 -->
<g id="node10" class="node">
<title>Node16</title>
<g id="a_node10"><a xlink:href="classDate.html#a1fa70aa48f749203df9a600eb190dd7b" target="_top" xlink:title=" ">
<polygon fill="white" stroke="red" points="470.5,-1282 470.5,-1301 560.5,-1301 560.5,-1282 470.5,-1282"/>
<text text-anchor="middle" x="515.5" y="-1289" font-family="Helvetica,sans-Serif" font-size="10.00">Date::toSeconds</text>
</a>
</g>
</g>
<!-- Node5&#45;&gt;Node16 -->
<g id="edge10" class="edge">
<title>Node5&#45;&gt;Node16</title>
<path fill="none" stroke="midnightblue" d="M361.63,-1312.97C387.16,-1309.39 427.52,-1303.72 460.36,-1299.1"/>
<polygon fill="midnightblue" stroke="midnightblue" points="460.86,-1302.57 470.28,-1297.71 459.89,-1295.64 460.86,-1302.57"/>
</g>
<!-- Node19 -->
<g id="node12" class="node">
<title>Node19</title>
<g id="a_node12"><a xlink:href="classAtcf.html#a2c3a3d17067e7d0d53018ec96531bd3d" target="_top" xlink:title=" ">
<polygon fill="white" stroke="black" points="493.5,-339 493.5,-358 537.5,-358 537.5,-339 493.5,-339"/>
<text text-anchor="middle" x="515.5" y="-346" font-family="Helvetica,sans-Serif" font-size="10.00">record</text>
</a>
</g>
</g>
<!-- Node18&#45;&gt;Node19 -->
<g id="edge12" class="edge">
<title>Node18&#45;&gt;Node19</title>
<path fill="none" stroke="midnightblue" d="M165.09,-380.1C186.39,-390.22 222.18,-405.53 255,-411.5 325.4,-424.3 347.32,-431.58 416,-411.5 447.09,-402.41 477.69,-380.18 496.33,-364.71"/>
<polygon fill="midnightblue" stroke="midnightblue" points="498.68,-367.31 504.02,-358.16 494.14,-361.99 498.68,-367.31"/>
</g>
<!-- Node20 -->
<g id="node13" class="node">
<title>Node20</title>
<g id="a_node13"><a xlink:href="classAtcf.html#a4b3387ddd1546cf6bad5444c70ec5cc5" target="_top" xlink:title=" ">
<polygon fill="white" stroke="black" points="285,-383 285,-402 386,-402 386,-383 285,-383"/>
<text text-anchor="middle" x="335.5" y="-390" font-family="Helvetica,sans-Serif" font-size="10.00">setAllRadiiToRmax</text>
</a>
</g>
</g>
<!-- Node18&#45;&gt;Node20 -->
<g id="edge13" class="edge">
<title>Node18&#45;&gt;Node20</title>
<path fill="none" stroke="midnightblue" d="M184.15,-374.95C210.13,-377.98 245.06,-382.06 274.71,-385.52"/>
<polygon fill="midnightblue" stroke="midnightblue" points="274.61,-389.03 284.95,-386.72 275.42,-382.08 274.61,-389.03"/>
</g>
<!-- Node22 -->
<g id="node15" class="node">
<title>Node22</title>
<g id="a_node15"><a xlink:href="classAtcf.html#a71fa11a421dc675f7b8190758fa0b2e6" target="_top" xlink:title=" ">
<polygon fill="white" stroke="black" points="269,-333.5 269,-363.5 402,-363.5 402,-333.5 269,-333.5"/>
<text text-anchor="start" x="277" y="-351.5" font-family="Helvetica,sans-Serif" font-size="10.00">setMissingRadiiToAverage</text>
<text text-anchor="middle" x="335.5" y="-340.5" font-family="Helvetica,sans-Serif" font-size="10.00">OfAdjacentRadii</text>
</a>
</g>
</g>
<!-- Node18&#45;&gt;Node22 -->
<g id="edge16" class="edge">
<title>Node18&#45;&gt;Node22</title>
<path fill="none" stroke="midnightblue" d="M184.15,-366.05C205.61,-363.54 233.18,-360.33 258.83,-357.33"/>
<polygon fill="midnightblue" stroke="midnightblue" points="259.4,-360.79 268.93,-356.15 258.59,-353.84 259.4,-360.79"/>
</g>
<!-- Node23 -->
<g id="node16" class="node">
<title>Node23</title>
<g id="a_node16"><a xlink:href="classAtcf.html#a21717052904854109237917697bd4e73" target="_top" xlink:title=" ">
<polygon fill="white" stroke="black" points="259.5,-284.5 259.5,-314.5 411.5,-314.5 411.5,-284.5 259.5,-284.5"/>
<text text-anchor="start" x="267.5" y="-302.5" font-family="Helvetica,sans-Serif" font-size="10.00">setMissingRadiiToHalfNonzero</text>
<text text-anchor="middle" x="335.5" y="-291.5" font-family="Helvetica,sans-Serif" font-size="10.00">Radii</text>
</a>
</g>
</g>
<!-- Node18&#45;&gt;Node23 -->
<g id="edge19" class="edge">
<title>Node18&#45;&gt;Node23</title>
<path fill="none" stroke="midnightblue" d="M167.07,-360.91C188.85,-351.16 223.96,-335.9 255,-324.5 261.3,-322.19 267.92,-319.89 274.54,-317.68"/>
<polygon fill="midnightblue" stroke="midnightblue" points="275.8,-320.96 284.21,-314.52 273.62,-314.3 275.8,-320.96"/>
</g>
<!-- Node24 -->
<g id="node17" class="node">
<title>Node24</title>
<g id="a_node17"><a xlink:href="classAtcf.html#abfd44c7ce56d9e93b1f3edfb67918ef5" target="_top" xlink:title=" ">
<polygon fill="white" stroke="black" points="255,-235.5 255,-265.5 416,-265.5 416,-235.5 255,-235.5"/>
<text text-anchor="start" x="263" y="-253.5" font-family="Helvetica,sans-Serif" font-size="10.00">setMissingRadiiToHalfOfAverage</text>
<text text-anchor="middle" x="335.5" y="-242.5" font-family="Helvetica,sans-Serif" font-size="10.00">SpecifiedRadii</text>
</a>
</g>
</g>
<!-- Node18&#45;&gt;Node24 -->
<g id="edge22" class="edge">
<title>Node18&#45;&gt;Node24</title>
<path fill="none" stroke="midnightblue" d="M154.34,-360.96C171.41,-342.02 212.3,-299.43 255,-275.5 258.87,-273.33 262.95,-271.33 267.14,-269.47"/>
<polygon fill="midnightblue" stroke="midnightblue" points="268.51,-272.69 276.43,-265.66 265.85,-266.22 268.51,-272.69"/>
</g>
<!-- Node20&#45;&gt;Node19 -->
<g id="edge15" class="edge">
<title>Node20&#45;&gt;Node19</title>
<path fill="none" stroke="midnightblue" d="M376.97,-382.94C389.49,-379.96 403.32,-376.62 416,-373.5 438.65,-367.92 464.18,-361.43 483.58,-356.47"/>
<polygon fill="midnightblue" stroke="midnightblue" points="484.57,-359.83 493.39,-353.95 482.83,-353.04 484.57,-359.83"/>
</g>
<!-- Node21 -->
<g id="node14" class="node">
<title>Node21</title>
<g id="a_node14"><a xlink:href="classAssumptions.html#a20319f7261289f879d667fe91034d503" target="_top" xlink:title=" ">
<polygon fill="white" stroke="black" points="468,-290 468,-309 563,-309 563,-290 468,-290"/>
<text text-anchor="middle" x="515.5" y="-297" font-family="Helvetica,sans-Serif" font-size="10.00">Assumptions::add</text>
</a>
</g>
</g>
<!-- Node20&#45;&gt;Node21 -->
<g id="edge14" class="edge">
<title>Node20&#45;&gt;Node21</title>
<path fill="none" stroke="midnightblue" d="M386,-385.91C396.42,-383.12 406.98,-379.15 416,-373.5 437.41,-360.08 432.14,-345.12 452,-329.5 460.01,-323.21 469.55,-317.8 478.73,-313.37"/>
<polygon fill="midnightblue" stroke="midnightblue" points="480.44,-316.44 488.1,-309.12 477.55,-310.07 480.44,-316.44"/>
</g>
<!-- Node22&#45;&gt;Node19 -->
<g id="edge18" class="edge">
<title>Node22&#45;&gt;Node19</title>
<path fill="none" stroke="midnightblue" d="M402.02,-348.5C429.62,-348.5 460.47,-348.5 482.87,-348.5"/>
<polygon fill="midnightblue" stroke="midnightblue" points="483.13,-352 493.13,-348.5 483.13,-345 483.13,-352"/>
</g>
<!-- Node22&#45;&gt;Node21 -->
<g id="edge17" class="edge">
<title>Node22&#45;&gt;Node21</title>
<path fill="none" stroke="midnightblue" d="M391.36,-333.4C416.65,-326.44 446.28,-318.28 470.14,-311.71"/>
<polygon fill="midnightblue" stroke="midnightblue" points="471.27,-315.03 479.98,-309 469.41,-308.28 471.27,-315.03"/>
</g>
<!-- Node23&#45;&gt;Node19 -->
<g id="edge21" class="edge">
<title>Node23&#45;&gt;Node19</title>
<path fill="none" stroke="midnightblue" d="M391.36,-314.6C421.7,-322.96 458.29,-333.03 483.66,-340.01"/>
<polygon fill="midnightblue" stroke="midnightblue" points="482.89,-343.43 493.46,-342.71 484.75,-336.68 482.89,-343.43"/>
</g>
<!-- Node23&#45;&gt;Node21 -->
<g id="edge20" class="edge">
<title>Node23&#45;&gt;Node21</title>
<path fill="none" stroke="midnightblue" d="M411.73,-299.5C427.08,-299.5 442.98,-299.5 457.56,-299.5"/>
<polygon fill="midnightblue" stroke="midnightblue" points="457.92,-303 467.92,-299.5 457.92,-296 457.92,-303"/>
</g>
<!-- Node24&#45;&gt;Node19 -->
<g id="edge24" class="edge">
<title>Node24&#45;&gt;Node19</title>
<path fill="none" stroke="midnightblue" d="M397.23,-265.55C403.82,-268.35 410.23,-271.64 416,-275.5 436.72,-289.35 432.32,-303.21 452,-318.5 461.53,-325.91 473.19,-332.12 483.84,-336.93"/>
<polygon fill="midnightblue" stroke="midnightblue" points="482.68,-340.24 493.25,-340.95 485.43,-333.8 482.68,-340.24"/>
</g>
<!-- Node24&#45;&gt;Node21 -->
<g id="edge23" class="edge">
<title>Node24&#45;&gt;Node21</title>
<path fill="none" stroke="midnightblue" d="M391.36,-265.6C416.65,-272.56 446.28,-280.72 470.14,-287.29"/>
<polygon fill="midnightblue" stroke="midnightblue" points="469.41,-290.72 479.98,-290 471.27,-283.97 469.41,-290.72"/>
</g>
<!-- Node25&#45;&gt;Node21 -->
<g id="edge26" class="edge">
<title>Node25&#45;&gt;Node21</title>
<path fill="none" stroke="midnightblue" d="M187.2,-172.04C261.5,-189.28 410.76,-224.06 416,-226.5 447.27,-241.04 478.41,-266.42 497.07,-283.09"/>
<polygon fill="midnightblue" stroke="midnightblue" points="494.74,-285.7 504.49,-289.86 499.46,-280.53 494.74,-285.7"/>
</g>
<!-- Node26 -->
<g id="node19" class="node">
<title>Node26</title>
<g id="a_node19"><a xlink:href="classHurricanePressure.html#a6e093920e46b7c9326e027f7c17082e2" target="_top" xlink:title=" ">
<polygon fill="white" stroke="red" points="258,-147.5 258,-177.5 413,-177.5 413,-147.5 258,-147.5"/>
<text text-anchor="start" x="266" y="-165.5" font-family="Helvetica,sans-Serif" font-size="10.00">HurricanePressure::</text>
<text text-anchor="middle" x="335.5" y="-154.5" font-family="Helvetica,sans-Serif" font-size="10.00">computeInitialPressureEstimate</text>
</a>
</g>
</g>
<!-- Node25&#45;&gt;Node26 -->
<g id="edge27" class="edge">
<title>Node25&#45;&gt;Node26</title>
<path fill="none" stroke="midnightblue" d="M219.15,-162.5C228.5,-162.5 238.14,-162.5 247.67,-162.5"/>
<polygon fill="midnightblue" stroke="midnightblue" points="247.97,-166 257.97,-162.5 247.97,-159 247.97,-166"/>
</g>
<!-- Node29 -->
<g id="node20" class="node">
<title>Node29</title>
<g id="a_node20"><a xlink:href="classHurricanePressure.html#ab7f4b85c45ecbd2fdc5b5757f3eb37e6" target="_top" xlink:title=" ">
<polygon fill="white" stroke="black" points="283.5,-98.5 283.5,-128.5 387.5,-128.5 387.5,-98.5 283.5,-98.5"/>
<text text-anchor="start" x="291.5" y="-116.5" font-family="Helvetica,sans-Serif" font-size="10.00">HurricanePressure::</text>
<text text-anchor="middle" x="335.5" y="-105.5" font-family="Helvetica,sans-Serif" font-size="10.00">computePressure</text>
</a>
</g>
</g>
<!-- Node25&#45;&gt;Node29 -->
<g id="edge28" class="edge">
<title>Node25&#45;&gt;Node29</title>
<path fill="none" stroke="midnightblue" d="M182.79,-152.94C208.49,-146.25 243.41,-137.18 273.27,-129.42"/>
<polygon fill="midnightblue" stroke="midnightblue" points="274.39,-132.74 283.18,-126.84 272.62,-125.97 274.39,-132.74"/>
</g>
<!-- Node30 -->
<g id="node21" class="node">
<title>Node30</title>
<g id="a_node21"><a xlink:href="classHurricanePressure.html#aede796baf8d694cdeeef3d2dc2693244" target="_top" xlink:title=" ">
<polygon fill="white" stroke="black" points="283.5,-49.5 283.5,-79.5 387.5,-79.5 387.5,-49.5 283.5,-49.5"/>
<text text-anchor="start" x="291.5" y="-67.5" font-family="Helvetica,sans-Serif" font-size="10.00">HurricanePressure::</text>
<text text-anchor="middle" x="335.5" y="-56.5" font-family="Helvetica,sans-Serif" font-size="10.00">pressureMethod</text>
</a>
</g>
</g>
<!-- Node25&#45;&gt;Node30 -->
<g id="edge29" class="edge">
<title>Node25&#45;&gt;Node30</title>
<path fill="none" stroke="midnightblue" d="M201,-152.91C207.39,-150.46 213.56,-147.37 219,-143.5 242.5,-126.77 231.93,-106.81 255,-89.5 260.6,-85.3 266.92,-81.79 273.49,-78.87"/>
<polygon fill="midnightblue" stroke="midnightblue" points="275.24,-81.94 283.24,-74.99 272.66,-75.43 275.24,-81.94"/>
</g>
<!-- Node31 -->
<g id="node22" class="node">
<title>Node31</title>
<g id="a_node22"><a xlink:href="classHurricanePressure.html#a87f90b0890179ce21401f05f0a5c7ec0" target="_top" xlink:title=" ">
<polygon fill="white" stroke="black" points="279.5,-0.5 279.5,-30.5 391.5,-30.5 391.5,-0.5 279.5,-0.5"/>
<text text-anchor="start" x="287.5" y="-18.5" font-family="Helvetica,sans-Serif" font-size="10.00">HurricanePressure::</text>
<text text-anchor="middle" x="335.5" y="-7.5" font-family="Helvetica,sans-Serif" font-size="10.00">pressureMethodString</text>
</a>
</g>
</g>
<!-- Node25&#45;&gt;Node31 -->
<g id="edge30" class="edge">
<title>Node25&#45;&gt;Node31</title>
<path fill="none" stroke="midnightblue" d="M204.91,-152.85C210.05,-150.39 214.86,-147.32 219,-143.5 254.66,-110.64 220.17,-74.24 255,-40.5 259.39,-36.24 264.5,-32.71 269.98,-29.78"/>
<polygon fill="midnightblue" stroke="midnightblue" points="271.85,-32.77 279.46,-25.39 268.92,-26.41 271.85,-32.77"/>
</g>
<!-- Node33&#45;&gt;Node6 -->
<g id="edge36" class="edge">
<title>Node33&#45;&gt;Node6</title>
<path fill="none" stroke="midnightblue" d="M398.78,-1173.63C404.87,-1176.4 410.74,-1179.66 416,-1183.5 438.41,-1199.85 429.51,-1218.25 452,-1234.5 454.67,-1236.43 457.53,-1238.16 460.51,-1239.72"/>
<polygon fill="midnightblue" stroke="midnightblue" points="459.19,-1242.96 469.74,-1243.9 462.07,-1236.58 459.19,-1242.96"/>
</g>
<!-- Node34 -->
<g id="node25" class="node">
<title>Node34</title>
<g id="a_node25"><a xlink:href="classAtcfLine.html#a757a667960cf8420a7d565899ba74dd5" target="_top" xlink:title=" ">
<polygon fill="white" stroke="black" points="474.5,-1206 474.5,-1225 556.5,-1225 556.5,-1206 474.5,-1206"/>
<text text-anchor="middle" x="515.5" y="-1213" font-family="Helvetica,sans-Serif" font-size="10.00">AtcfLine::basin</text>
</a>
</g>
</g>
<!-- Node33&#45;&gt;Node34 -->
<g id="edge33" class="edge">
<title>Node33&#45;&gt;Node34</title>
<path fill="none" stroke="midnightblue" d="M385.38,-1173.52C395.52,-1176.73 406.13,-1180.17 416,-1183.5 432.12,-1188.94 435.86,-1191.14 452,-1196.5 458.51,-1198.66 465.43,-1200.86 472.2,-1202.96"/>
<polygon fill="midnightblue" stroke="midnightblue" points="471.37,-1206.37 481.96,-1205.95 473.43,-1199.68 471.37,-1206.37"/>
</g>
<!-- Node35 -->
<g id="node26" class="node">
<title>Node35</title>
<g id="a_node26"><a xlink:href="classAtcfLine.html#af02cbe832e0a7a708e691fff2b48ebc4" target="_top" xlink:title=" ">
<polygon fill="white" stroke="black" points="468,-1168 468,-1187 563,-1187 563,-1168 468,-1168"/>
<text text-anchor="middle" x="515.5" y="-1175" font-family="Helvetica,sans-Serif" font-size="10.00">AtcfLine::cisotach</text>
</a>
</g>
</g>
<!-- Node33&#45;&gt;Node35 -->
<g id="edge34" class="edge">
<title>Node33&#45;&gt;Node35</title>
<path fill="none" stroke="midnightblue" d="M400.51,-1165.33C419.18,-1167.33 439.44,-1169.49 457.63,-1171.43"/>
<polygon fill="midnightblue" stroke="midnightblue" points="457.48,-1174.93 467.79,-1172.51 458.22,-1167.97 457.48,-1174.93"/>
</g>
<!-- Node36 -->
<g id="node27" class="node">
<title>Node36</title>
<g id="a_node27"><a xlink:href="classAtcfLine.html#afcbce102d14966134f6a19e60597c61c" target="_top" xlink:title=" ">
<polygon fill="white" stroke="black" points="452,-1092 452,-1111 579,-1111 579,-1092 452,-1092"/>
<text text-anchor="middle" x="515.5" y="-1099" font-family="Helvetica,sans-Serif" font-size="10.00">AtcfLine::cycloneNumber</text>
</a>
</g>
</g>
<!-- Node33&#45;&gt;Node36 -->
<g id="edge35" class="edge">
<title>Node33&#45;&gt;Node36</title>
<path fill="none" stroke="midnightblue" d="M385.38,-1143.48C395.52,-1140.27 406.13,-1136.83 416,-1133.5 432.12,-1128.06 435.86,-1125.86 452,-1120.5 458.51,-1118.34 465.43,-1116.14 472.2,-1114.04"/>
<polygon fill="midnightblue" stroke="midnightblue" points="473.43,-1117.32 481.96,-1111.05 471.37,-1110.63 473.43,-1117.32"/>
</g>
<!-- Node37 -->
<g id="node28" class="node">
<title>Node37</title>
<g id="a_node28"><a xlink:href="classIsotach.html#a90b55241f6d0ff34cfb78229a7ffacf7" target="_top" xlink:title=" ">
<polygon fill="white" stroke="black" points="464,-1130 464,-1149 567,-1149 567,-1130 464,-1130"/>
<text text-anchor="middle" x="515.5" y="-1137" font-family="Helvetica,sans-Serif" font-size="10.00">Isotach::windSpeed</text>
</a>
</g>
</g>
<!-- Node33&#45;&gt;Node37 -->
<g id="edge37" class="edge">
<title>Node33&#45;&gt;Node37</title>
<path fill="none" stroke="midnightblue" d="M400.51,-1151.67C417.76,-1149.83 436.37,-1147.84 453.46,-1146.02"/>
<polygon fill="midnightblue" stroke="midnightblue" points="454.3,-1149.45 463.87,-1144.9 453.56,-1142.49 454.3,-1149.45"/>
</g>
<!-- Node38&#45;&gt;Node3 -->
<g id="edge42" class="edge">
<title>Node38&#45;&gt;Node3</title>
<path fill="none" stroke="midnightblue" d="M146.69,-896.01C151.52,-959.94 182.22,-1327.13 255,-1406.5 262.24,-1414.39 271.96,-1419.72 282.13,-1423.32"/>
<polygon fill="midnightblue" stroke="midnightblue" points="281.36,-1426.74 291.94,-1426.26 283.37,-1420.04 281.36,-1426.74"/>
</g>
<!-- Node38&#45;&gt;Node7 -->
<g id="edge43" class="edge">
<title>Node38&#45;&gt;Node7</title>
<path fill="none" stroke="midnightblue" d="M146.57,-896.06C150.55,-958.74 176.22,-1310.4 255,-1373.5 320.26,-1425.77 427.24,-1399.12 481.18,-1380.49"/>
<polygon fill="midnightblue" stroke="midnightblue" points="482.68,-1383.67 490.92,-1377.01 480.33,-1377.08 482.68,-1383.67"/>
</g>
<!-- Node38&#45;&gt;Node8 -->
<g id="edge44" class="edge">
<title>Node38&#45;&gt;Node8</title>
<path fill="none" stroke="midnightblue" d="M150.73,-896.35C167.05,-929.93 221.88,-1038.83 255,-1057.5 322.12,-1095.33 415.34,-1085.3 469.86,-1074.47"/>
<polygon fill="midnightblue" stroke="midnightblue" points="470.82,-1077.85 479.9,-1072.38 469.39,-1070.99 470.82,-1077.85"/>
</g>
<!-- Node39 -->
<g id="node30" class="node">
<title>Node39</title>
<g id="a_node30"><a xlink:href="classAtcfLine.html#a35c13e37b2ea718539aa5f54b88eb55b" target="_top" xlink:title=" ">
<polygon fill="white" stroke="black" points="288,-991 288,-1010 383,-1010 383,-991 288,-991"/>
<text text-anchor="middle" x="335.5" y="-998" font-family="Helvetica,sans-Serif" font-size="10.00">AtcfLine::AtcfLine</text>
</a>
</g>
</g>
<!-- Node38&#45;&gt;Node39 -->
<g id="edge39" class="edge">
<title>Node38&#45;&gt;Node39</title>
<path fill="none" stroke="midnightblue" d="M154.21,-896.29C171.02,-915.7 211.49,-959.08 255,-981.5 262.17,-985.2 270.09,-988.19 278.05,-990.61"/>
<polygon fill="midnightblue" stroke="midnightblue" points="277.18,-994 287.75,-993.28 279.04,-987.25 277.18,-994"/>
</g>
<!-- Node40 -->
<g id="node31" class="node">
<title>Node40</title>
<g id="a_node31"><a xlink:href="classAtcfLine.html#acc738a7f1329678309e649d09156d29c" target="_top" xlink:title=" ">
<polygon fill="white" stroke="black" points="282,-953 282,-972 389,-972 389,-953 282,-953"/>
<text text-anchor="middle" x="335.5" y="-960" font-family="Helvetica,sans-Serif" font-size="10.00">AtcfLine::addIsotach</text>
</a>
</g>
</g>
<!-- Node38&#45;&gt;Node40 -->
<g id="edge40" class="edge">
<title>Node38&#45;&gt;Node40</title>
<path fill="none" stroke="midnightblue" d="M161.32,-896.07C181.92,-908.57 220,-930.4 255,-943.5 261.76,-946.03 268.98,-948.31 276.19,-950.33"/>
<polygon fill="midnightblue" stroke="midnightblue" points="275.44,-953.75 286,-952.93 277.23,-946.98 275.44,-953.75"/>
</g>
<!-- Node41 -->
<g id="node32" class="node">
<title>Node41</title>
<g id="a_node32"><a xlink:href="classIsotach.html#ad8db29d5da4482e0ac19ece84e108947" target="_top" xlink:title=" ">
<polygon fill="white" stroke="red" points="273.5,-915 273.5,-934 397.5,-934 397.5,-915 273.5,-915"/>
<text text-anchor="middle" x="335.5" y="-922" font-family="Helvetica,sans-Serif" font-size="10.00">Isotach::codeFromString</text>
</a>
</g>
</g>
<!-- Node38&#45;&gt;Node41 -->
<g id="edge41" class="edge">
<title>Node38&#45;&gt;Node41</title>
<path fill="none" stroke="midnightblue" d="M193.57,-896.09C219,-901.22 250.5,-907.57 277.27,-912.96"/>
<polygon fill="midnightblue" stroke="midnightblue" points="276.78,-916.43 287.28,-914.98 278.16,-909.57 276.78,-916.43"/>
</g>
<!-- Node43 -->
<g id="node33" class="node">
<title>Node43</title>
<g id="a_node33"><a xlink:href="classPhysical.html#a758801eb99ef705bace966b7133d0621" target="_top" xlink:title=" ">
<polygon fill="white" stroke="red" points="288,-877 288,-896 383,-896 383,-877 288,-877"/>
<text text-anchor="middle" x="335.5" y="-884" font-family="Helvetica,sans-Serif" font-size="10.00">Physical::nmi2km</text>
</a>
</g>
</g>
<!-- Node38&#45;&gt;Node43 -->
<g id="edge45" class="edge">
<title>Node38&#45;&gt;Node43</title>
<path fill="none" stroke="midnightblue" d="M204.61,-886.5C227.96,-886.5 254.73,-886.5 277.87,-886.5"/>
<polygon fill="midnightblue" stroke="midnightblue" points="277.89,-890 287.89,-886.5 277.89,-883 277.89,-890"/>
</g>
<!-- Node45 -->
<g id="node34" class="node">
<title>Node45</title>
<g id="a_node34"><a xlink:href="classAtcfLine.html#aed5531012579283c189c8bafe7738fc9" target="_top" xlink:title=" ">
<polygon fill="white" stroke="black" points="266,-839 266,-858 405,-858 405,-839 266,-839"/>
<text text-anchor="middle" x="335.5" y="-846" font-family="Helvetica,sans-Serif" font-size="10.00">AtcfLine::referenceDatetime</text>
</a>
</g>
</g>
<!-- Node38&#45;&gt;Node45 -->
<g id="edge46" class="edge">
<title>Node38&#45;&gt;Node45</title>
<path fill="none" stroke="midnightblue" d="M193.57,-876.91C219,-871.78 250.5,-865.43 277.27,-860.04"/>
<polygon fill="midnightblue" stroke="midnightblue" points="278.16,-863.43 287.28,-858.02 276.78,-856.57 278.16,-863.43"/>
</g>
<!-- Node46 -->
<g id="node35" class="node">
<title>Node46</title>
<g id="a_node35"><a xlink:href="classAtcfLine.html#a10cf0c5bc3997b3342597aa7ebee21b9" target="_top" xlink:title=" ">
<polygon fill="white" stroke="black" points="287,-1193 287,-1212 384,-1212 384,-1193 287,-1193"/>
<text text-anchor="middle" x="335.5" y="-1200" font-family="Helvetica,sans-Serif" font-size="10.00">AtcfLine::setBasin</text>
</a>
</g>
</g>
<!-- Node38&#45;&gt;Node46 -->
<g id="edge47" class="edge">
<title>Node38&#45;&gt;Node46</title>
<path fill="none" stroke="midnightblue" d="M146.42,-896.25C148.76,-937.89 163.67,-1102.29 255,-1183.5 261.33,-1189.13 269.02,-1193.16 277.1,-1196.04"/>
<polygon fill="midnightblue" stroke="midnightblue" points="276.13,-1199.4 286.71,-1198.92 278.14,-1192.7 276.13,-1199.4"/>
</g>
<!-- Node47 -->
<g id="node36" class="node">
<title>Node47</title>
<g id="a_node36"><a xlink:href="classAtcfLine.html#ae955293026a90f5e5288b507deebdcac" target="_top" xlink:title=" ">
<polygon fill="white" stroke="black" points="264,-1105 264,-1124 407,-1124 407,-1105 264,-1105"/>
<text text-anchor="middle" x="335.5" y="-1112" font-family="Helvetica,sans-Serif" font-size="10.00">AtcfLine::setCycloneNumber</text>
</a>
</g>
</g>
<!-- Node38&#45;&gt;Node47 -->
<g id="edge49" class="edge">
<title>Node38&#45;&gt;Node47</title>
<path fill="none" stroke="midnightblue" d="M151.03,-896.15C171.89,-936.15 250.69,-1086.97 255,-1090.5 260.05,-1094.64 265.8,-1098.06 271.84,-1100.9"/>
<polygon fill="midnightblue" stroke="midnightblue" points="270.95,-1104.32 281.53,-1104.89 273.61,-1097.84 270.95,-1104.32"/>
</g>
<!-- Node48 -->
<g id="node37" class="node">
<title>Node48</title>
<g id="a_node37"><a xlink:href="classAtcfLine.html#a0bad5c6c920656697893a8ddc09076de" target="_top" xlink:title=" ">
<polygon fill="white" stroke="black" points="279.5,-1269 279.5,-1288 391.5,-1288 391.5,-1269 279.5,-1269"/>
<text text-anchor="middle" x="335.5" y="-1276" font-family="Helvetica,sans-Serif" font-size="10.00">AtcfLine::setDatetime</text>
</a>
</g>
</g>
<!-- Node38&#45;&gt;Node48 -->
<g id="edge51" class="edge">
<title>Node38&#45;&gt;Node48</title>
<path fill="none" stroke="midnightblue" d="M145.6,-896.02C144.16,-943.24 144.3,-1154.17 255,-1259.5 259.35,-1263.64 264.43,-1266.92 269.88,-1269.53"/>
<polygon fill="midnightblue" stroke="midnightblue" points="268.76,-1272.85 279.34,-1273.31 271.35,-1266.35 268.76,-1272.85"/>
</g>
<!-- Node49 -->
<g id="node38" class="node">
<title>Node49</title>
<g id="a_node38"><a xlink:href="classAtcfLine.html#ae6665099efc25d2f067359712c403a28" target="_top" xlink:title=" ">
<polygon fill="white" stroke="black" points="292.5,-1345 292.5,-1364 378.5,-1364 378.5,-1345 292.5,-1345"/>
<text text-anchor="middle" x="335.5" y="-1352" font-family="Helvetica,sans-Serif" font-size="10.00">AtcfLine::setLat</text>
</a>
</g>
</g>
<!-- Node38&#45;&gt;Node49 -->
<g id="edge53" class="edge">
<title>Node38&#45;&gt;Node49</title>
<path fill="none" stroke="midnightblue" d="M147,-896.25C153.28,-955.78 189.23,-1269.96 255,-1335.5 262.47,-1342.94 272.29,-1347.66 282.48,-1350.62"/>
<polygon fill="midnightblue" stroke="midnightblue" points="281.75,-1354.04 292.29,-1352.94 283.36,-1347.23 281.75,-1354.04"/>
</g>
<!-- Node50 -->
<g id="node39" class="node">
<title>Node50</title>
<g id="a_node39"><a xlink:href="classAtcfLine.html#a820d2d4a882e977cc3e1a4e543067428" target="_top" xlink:title=" ">
<polygon fill="white" stroke="black" points="291.5,-1029 291.5,-1048 379.5,-1048 379.5,-1029 291.5,-1029"/>
<text text-anchor="middle" x="335.5" y="-1036" font-family="Helvetica,sans-Serif" font-size="10.00">AtcfLine::setLon</text>
</a>
</g>
</g>
<!-- Node38&#45;&gt;Node50 -->
<g id="edge55" class="edge">
<title>Node38&#45;&gt;Node50</title>
<path fill="none" stroke="midnightblue" d="M150.88,-896C164.06,-920.63 202.88,-986.86 255,-1019.5 262.95,-1024.48 272.09,-1028.15 281.29,-1030.86"/>
<polygon fill="midnightblue" stroke="midnightblue" points="280.66,-1034.32 291.22,-1033.44 282.42,-1027.54 280.66,-1034.32"/>
</g>
<!-- Node51 -->
<g id="node40" class="node">
<title>Node51</title>
<g id="a_node40"><a xlink:href="classAtcfLine.html#a70386cf97cc13ad4eccb2556d0339f0a" target="_top" xlink:title=" ">
<polygon fill="white" stroke="red" points="289,-801 289,-820 382,-820 382,-801 289,-801"/>
<text text-anchor="middle" x="335.5" y="-808" font-family="Helvetica,sans-Serif" font-size="10.00">AtcfLine::setMslp</text>
</a>
</g>
</g>
<!-- Node38&#45;&gt;Node51 -->
<g id="edge57" class="edge">
<title>Node38&#45;&gt;Node51</title>
<path fill="none" stroke="midnightblue" d="M161.32,-876.93C181.92,-864.43 220,-842.6 255,-829.5 262.65,-826.63 270.89,-824.1 279.05,-821.89"/>
<polygon fill="midnightblue" stroke="midnightblue" points="280.12,-825.22 288.93,-819.35 278.38,-818.44 280.12,-825.22"/>
</g>
<!-- Node53 -->
<g id="node41" class="node">
<title>Node53</title>
<g id="a_node41"><a xlink:href="classAtcfLine.html#ae091671d04a10571b3788f0e2877ee32" target="_top" xlink:title=" ">
<polygon fill="white" stroke="red" points="285,-763 285,-782 386,-782 386,-763 285,-763"/>
<text text-anchor="middle" x="335.5" y="-770" font-family="Helvetica,sans-Serif" font-size="10.00">AtcfLine::setPouter</text>
</a>
</g>
</g>
<!-- Node38&#45;&gt;Node53 -->
<g id="edge58" class="edge">
<title>Node38&#45;&gt;Node53</title>
<path fill="none" stroke="midnightblue" d="M154.21,-876.71C171.02,-857.3 211.49,-813.92 255,-791.5 261.19,-788.31 267.92,-785.65 274.77,-783.43"/>
<polygon fill="midnightblue" stroke="midnightblue" points="276.21,-786.65 284.82,-780.47 274.24,-779.93 276.21,-786.65"/>
</g>
<!-- Node55 -->
<g id="node42" class="node">
<title>Node55</title>
<g id="a_node42"><a xlink:href="classAtcfLine.html#afa6b0d2f28cf66264d2be824addf35ad" target="_top" xlink:title=" ">
<polygon fill="white" stroke="red" points="261,-725 261,-744 410,-744 410,-725 261,-725"/>
<text text-anchor="middle" x="335.5" y="-732" font-family="Helvetica,sans-Serif" font-size="10.00">AtcfLine::setRadiusMaxWinds</text>
</a>
</g>
</g>
<!-- Node38&#45;&gt;Node55 -->
<g id="edge59" class="edge">
<title>Node38&#45;&gt;Node55</title>
<path fill="none" stroke="midnightblue" d="M150.88,-877C164.06,-852.37 202.88,-786.14 255,-753.5 258.42,-751.36 262.06,-749.46 265.83,-747.77"/>
<polygon fill="midnightblue" stroke="midnightblue" points="267.39,-750.92 275.42,-744.01 264.84,-744.4 267.39,-750.92"/>
</g>
<!-- Node57 -->
<g id="node43" class="node">
<title>Node57</title>
<g id="a_node43"><a xlink:href="classAtcfLine.html#a34c654291dd08cde0d1de4fb6d0a3704" target="_top" xlink:title=" ">
<polygon fill="white" stroke="red" points="270,-687 270,-706 401,-706 401,-687 270,-687"/>
<text text-anchor="middle" x="335.5" y="-694" font-family="Helvetica,sans-Serif" font-size="10.00">AtcfLine::setRadiusPouter</text>
</a>
</g>
</g>
<!-- Node38&#45;&gt;Node57 -->
<g id="edge60" class="edge">
<title>Node38&#45;&gt;Node57</title>
<path fill="none" stroke="midnightblue" d="M149.17,-876.92C159.35,-847.66 194.21,-758.8 255,-715.5 257.72,-713.57 260.6,-711.83 263.61,-710.26"/>
<polygon fill="midnightblue" stroke="midnightblue" points="265.23,-713.37 272.92,-706.08 262.36,-706.98 265.23,-713.37"/>
</g>
<!-- Node59 -->
<g id="node44" class="node">
<title>Node59</title>
<g id="a_node44"><a xlink:href="classAtcfLine.html#a0fc89ec97a25a3e2a23bbc3c2b4bda56" target="_top" xlink:title=" ">
<polygon fill="white" stroke="black" points="257,-1231 257,-1250 414,-1250 414,-1231 257,-1231"/>
<text text-anchor="middle" x="335.5" y="-1238" font-family="Helvetica,sans-Serif" font-size="10.00">AtcfLine::setReferenceDatetime</text>
</a>
</g>
</g>
<!-- Node38&#45;&gt;Node59 -->
<g id="edge61" class="edge">
<title>Node38&#45;&gt;Node59</title>
<path fill="none" stroke="midnightblue" d="M145.96,-896.24C146.34,-940.95 154.11,-1128.37 255,-1221.5 256.69,-1223.06 258.49,-1224.51 260.38,-1225.84"/>
<polygon fill="midnightblue" stroke="midnightblue" points="258.73,-1228.93 269.12,-1230.97 262.27,-1222.89 258.73,-1228.93"/>
</g>
<!-- Node60 -->
<g id="node45" class="node">
<title>Node60</title>
<g id="a_node45"><a xlink:href="classAtcfLine.html#ad57a2b2bb9a17190f60c202bcc91f7c1" target="_top" xlink:title=" ">
<polygon fill="white" stroke="black" points="291.5,-611 291.5,-630 379.5,-630 379.5,-611 291.5,-611"/>
<text text-anchor="middle" x="335.5" y="-618" font-family="Helvetica,sans-Serif" font-size="10.00">AtcfLine::setTau</text>
</a>
</g>
</g>
<!-- Node38&#45;&gt;Node60 -->
<g id="edge63" class="edge">
<title>Node38&#45;&gt;Node60</title>
<path fill="none" stroke="midnightblue" d="M147.42,-876.97C153.31,-840.85 179.16,-711.07 255,-644.5 262.56,-637.87 271.9,-633.07 281.49,-629.59"/>
<polygon fill="midnightblue" stroke="midnightblue" points="282.63,-632.9 291.11,-626.54 280.52,-626.23 282.63,-632.9"/>
</g>
<!-- Node61 -->
<g id="node46" class="node">
<title>Node61</title>
<g id="a_node46"><a xlink:href="classAtcfLine.html#a70da9c9b2893017befb42f0692c0de03" target="_top" xlink:title=" ">
<polygon fill="white" stroke="black" points="479.5,-630 479.5,-649 551.5,-649 551.5,-630 479.5,-630"/>
<text text-anchor="middle" x="515.5" y="-637" font-family="Helvetica,sans-Serif" font-size="10.00">AtcfLine::tau</text>
</a>
</g>
</g>
<!-- Node38&#45;&gt;Node61 -->
<g id="edge69" class="edge">
<title>Node38&#45;&gt;Node61</title>
<path fill="none" stroke="midnightblue" d="M147.87,-876.54C154.88,-842.29 182.94,-728.7 255,-677.5 288.49,-653.71 403.71,-644.57 468.79,-641.26"/>
<polygon fill="midnightblue" stroke="midnightblue" points="469.35,-644.74 479.17,-640.76 469.02,-637.74 469.35,-644.74"/>
</g>
<!-- Node62 -->
<g id="node47" class="node">
<title>Node62</title>
<g id="a_node47"><a xlink:href="classAtcfLine.html#a4fa34cd3a6f778e4403e176ea1f3541f" target="_top" xlink:title=" ">
<polygon fill="white" stroke="red" points="279.5,-573 279.5,-592 391.5,-592 391.5,-573 279.5,-573"/>
<text text-anchor="middle" x="335.5" y="-580" font-family="Helvetica,sans-Serif" font-size="10.00">AtcfLine::setTechnum</text>
</a>
</g>
</g>
<!-- Node38&#45;&gt;Node62 -->
<g id="edge65" class="edge">
<title>Node38&#45;&gt;Node62</title>
<path fill="none" stroke="midnightblue" d="M146.58,-876.86C149.55,-836.42 166.59,-679.05 255,-601.5 259.44,-597.6 264.54,-594.47 269.97,-591.96"/>
<polygon fill="midnightblue" stroke="midnightblue" points="271.31,-595.19 279.35,-588.29 268.77,-588.67 271.31,-595.19"/>
</g>
<!-- Node64 -->
<g id="node48" class="node">
<title>Node64</title>
<g id="a_node48"><a xlink:href="classAtcfLine.html#abdb3c2bffc3702fa3e4f9536d9f541f3" target="_top" xlink:title=" ">
<polygon fill="white" stroke="red" points="277,-535 277,-554 394,-554 394,-535 277,-535"/>
<text text-anchor="middle" x="335.5" y="-542" font-family="Helvetica,sans-Serif" font-size="10.00">AtcfLine::setTechstring</text>
</a>
</g>
</g>
<!-- Node38&#45;&gt;Node64 -->
<g id="edge66" class="edge">
<title>Node38&#45;&gt;Node64</title>
<path fill="none" stroke="midnightblue" d="M146.09,-876.81C147.07,-833.14 157.1,-652.89 255,-563.5 258.67,-560.15 262.83,-557.36 267.26,-555.04"/>
<polygon fill="midnightblue" stroke="midnightblue" points="268.95,-558.12 276.71,-550.91 266.14,-551.71 268.95,-558.12"/>
</g>
<!-- Node66 -->
<g id="node49" class="node">
<title>Node66</title>
<g id="a_node49"><a xlink:href="classAtcfLine.html#a946c6bb3652bb5510a52cd7e7f22fac7" target="_top" xlink:title=" ">
<polygon fill="white" stroke="red" points="286.5,-497 286.5,-516 384.5,-516 384.5,-497 286.5,-497"/>
<text text-anchor="middle" x="335.5" y="-504" font-family="Helvetica,sans-Serif" font-size="10.00">AtcfLine::setVmax</text>
</a>
</g>
</g>
<!-- Node38&#45;&gt;Node66 -->
<g id="edge67" class="edge">
<title>Node38&#45;&gt;Node66</title>
<path fill="none" stroke="midnightblue" d="M145.71,-876.97C144.82,-830.64 147.36,-627.01 255,-525.5 261.16,-519.69 268.76,-515.56 276.81,-512.64"/>
<polygon fill="midnightblue" stroke="midnightblue" points="277.84,-515.98 286.39,-509.73 275.81,-509.28 277.84,-515.98"/>
</g>
<!-- Node68 -->
<g id="node50" class="node">
<title>Node68</title>
<g id="a_node50"><a xlink:href="classAtcfLine.html#a86d591997eedb1660c07467b712d6bbc" target="_top" xlink:title=" ">
<polygon fill="white" stroke="black" points="284.5,-459 284.5,-478 386.5,-478 386.5,-459 284.5,-459"/>
<text text-anchor="middle" x="335.5" y="-466" font-family="Helvetica,sans-Serif" font-size="10.00">AtcfLine::splitString</text>
</a>
</g>
</g>
<!-- Node38&#45;&gt;Node68 -->
<g id="edge68" class="edge">
<title>Node38&#45;&gt;Node68</title>
<path fill="none" stroke="midnightblue" d="M147.31,-876.77C154.97,-821.24 195.68,-544.95 255,-487.5 260.47,-482.21 267.13,-478.3 274.25,-475.42"/>
<polygon fill="midnightblue" stroke="midnightblue" points="275.8,-478.6 284.18,-472.11 273.58,-471.96 275.8,-478.6"/>
</g>
<!-- Node46&#45;&gt;Node34 -->
<g id="edge48" class="edge">
<title>Node46&#45;&gt;Node34</title>
<path fill="none" stroke="midnightblue" d="M384.2,-1205.98C408.91,-1207.79 439.08,-1209.99 464.16,-1211.82"/>
<polygon fill="midnightblue" stroke="midnightblue" points="463.98,-1215.32 474.21,-1212.56 464.49,-1208.34 463.98,-1215.32"/>
</g>
<!-- Node47&#45;&gt;Node36 -->
<g id="edge50" class="edge">
<title>Node47&#45;&gt;Node36</title>
<path fill="none" stroke="midnightblue" d="M407.11,-1109.34C418.4,-1108.52 430.11,-1107.66 441.46,-1106.83"/>
<polygon fill="midnightblue" stroke="midnightblue" points="442.04,-1110.3 451.76,-1106.08 441.54,-1103.32 442.04,-1110.3"/>
</g>
<!-- Node48&#45;&gt;Node6 -->
<g id="edge52" class="edge">
<title>Node48&#45;&gt;Node6</title>
<path fill="none" stroke="midnightblue" d="M391.84,-1270.73C412.63,-1267.81 436.29,-1264.48 457.24,-1261.54"/>
<polygon fill="midnightblue" stroke="midnightblue" points="457.87,-1264.99 467.29,-1260.13 456.9,-1258.06 457.87,-1264.99"/>
</g>
<!-- Node49&#45;&gt;Node7 -->
<g id="edge54" class="edge">
<title>Node49&#45;&gt;Node7</title>
<path fill="none" stroke="midnightblue" d="M378.68,-1357.58C406.4,-1359.6 442.58,-1362.25 470.62,-1364.3"/>
<polygon fill="midnightblue" stroke="midnightblue" points="470.71,-1367.81 480.94,-1365.05 471.22,-1360.83 470.71,-1367.81"/>
</g>
<!-- Node50&#45;&gt;Node8 -->
<g id="edge56" class="edge">
<title>Node50&#45;&gt;Node8</title>
<path fill="none" stroke="midnightblue" d="M379.59,-1044.55C406.87,-1048.38 442.07,-1053.33 469.68,-1057.2"/>
<polygon fill="midnightblue" stroke="midnightblue" points="469.46,-1060.71 479.85,-1058.63 470.44,-1053.78 469.46,-1060.71"/>
</g>
<!-- Node59&#45;&gt;Node6 -->
<g id="edge62" class="edge">
<title>Node59&#45;&gt;Node6</title>
<path fill="none" stroke="midnightblue" d="M414.06,-1246.16C428.54,-1247.22 443.43,-1248.31 457.17,-1249.31"/>
<polygon fill="midnightblue" stroke="midnightblue" points="457.19,-1252.82 467.42,-1250.06 457.7,-1245.84 457.19,-1252.82"/>
</g>
<!-- Node60&#45;&gt;Node61 -->
<g id="edge64" class="edge">
<title>Node60&#45;&gt;Node61</title>
<path fill="none" stroke="midnightblue" d="M379.59,-625.1C406.69,-627.99 441.6,-631.72 469.12,-634.66"/>
<polygon fill="midnightblue" stroke="midnightblue" points="468.96,-638.16 479.28,-635.74 469.7,-631.2 468.96,-638.16"/>
</g>
</g>
</svg>
