<?xml version="1.0" encoding="UTF-8" standalone="no"?>
<!DOCTYPE svg PUBLIC "-//W3C//DTD SVG 1.1//EN"
 "http://www.w3.org/Graphics/SVG/1.1/DTD/svg11.dtd">
<!-- Generated by graphviz version 2.47.1 (20210417.1919)
 -->
<!-- Title: recomputeQuadrantVr Pages: 1 -->
<!--zoomable 458 -->
<svg id="main" version="1.1" xmlns="http://www.w3.org/2000/svg" xmlns:xlink="http://www.w3.org/1999/xlink" xml:space="preserve" onload="init(evt)">
<style type="text/css"><![CDATA[
.edge:hover path { stroke: red; }
.edge:hover polygon { stroke: red; fill: red; }
]]></style>
<script type="text/javascript"><![CDATA[
var edges = document.getElementsByTagName('g');
if (edges && edges.length) {
  for (var i=0;i<edges.length;i++) {
    if (edges[i].id.substr(0,4)=='edge') {
      edges[i].setAttribute('class','edge');
    }
  }
}
]]></script>
        <defs>
                <circle id="rim" cx="0" cy="0" r="7"/>
                <circle id="rim2" cx="0" cy="0" r="3.5"/>
                <g id="zoomPlus">
                        <use xlink:href="#rim" fill="#404040">
                                <set attributeName="fill" to="#808080" begin="zoomplus.mouseover" end="zoomplus.mouseout"/>
                        </use>
                        <path d="M-4,0h8M0,-4v8" fill="none" stroke="white" stroke-width="1.5" pointer-events="none"/>
                </g>
                <g id="zoomMin">
                        <use xlink:href="#rim" fill="#404040">
                                <set attributeName="fill" to="#808080" begin="zoomminus.mouseover" end="zoomminus.mouseout"/>
                        </use>
                        <path d="M-4,0h8" fill="none" stroke="white" stroke-width="1.5" pointer-events="none"/>
                </g>
                <g id="dirArrow">
                        <path fill="none" stroke="white" stroke-width="1.5" d="M0,-3.0v7 M-2.5,-0.5L0,-3.0L2.5,-0.5"/>
                </g>
               <g id="resetDef">
                       <use xlink:href="#rim2" fill="#404040">
                               <set attributeName="fill" to="#808080" begin="reset.mouseover" end="reset.mouseout"/>
                       </use>
               </g>
        </defs>

<script type="text/javascript">
var viewWidth = 568;
var viewHeight = 458;
var sectionId = 'dynsection-31';
</script>
<script xlink:href="svgpan.js"/>
<svg id="graph" class="graph">
<g id="viewport">
<title>recomputeQuadrantVr</title>
<polygon fill="white" stroke="transparent" points="-4,4 -4,-454 564,-454 564,4 -4,4"/>
<!-- Node1 -->
<g id="node1" class="node">
<title>Node1</title>
<g id="a_node1"><a xlink:title=" ">
<polygon fill="#bfbfbf" stroke="black" points="0,-202.5 0,-221.5 112,-221.5 112,-202.5 0,-202.5"/>
<text text-anchor="middle" x="56" y="-209.5" font-family="Helvetica,sans-Serif" font-size="10.00">recomputeQuadrantVr</text>
</a>
</g>
</g>
<!-- Node2 -->
<g id="node2" class="node">
<title>Node2</title>
<g id="a_node2"><a xlink:href="classCircularArray.html#a0642b8def16b83c1fff8f93326d2c842" target="_top" xlink:title=" ">
<polygon fill="white" stroke="black" points="177.5,-240.5 177.5,-259.5 265.5,-259.5 265.5,-240.5 177.5,-240.5"/>
<text text-anchor="middle" x="221.5" y="-247.5" font-family="Helvetica,sans-Serif" font-size="10.00">CircularArray::at</text>
</a>
</g>
</g>
<!-- Node1&#45;&gt;Node2 -->
<g id="edge1" class="edge">
<title>Node1&#45;&gt;Node2</title>
<path fill="none" stroke="midnightblue" d="M98.26,-221.59C119.93,-226.63 146.68,-232.84 169.63,-238.18"/>
<polygon fill="midnightblue" stroke="midnightblue" points="169.01,-241.63 179.54,-240.48 170.59,-234.81 169.01,-241.63"/>
</g>
<!-- Node4 -->
<g id="node4" class="node">
<title>Node4</title>
<g id="a_node4"><a xlink:href="classIsotach.html#af93a6e1bb9f15faae4793d8205637e40" target="_top" xlink:title=" ">
<polygon fill="white" stroke="black" points="160.5,-354.5 160.5,-373.5 282.5,-373.5 282.5,-354.5 160.5,-354.5"/>
<text text-anchor="middle" x="221.5" y="-361.5" font-family="Helvetica,sans-Serif" font-size="10.00">Isotach::cisotachRadius</text>
</a>
</g>
</g>
<!-- Node1&#45;&gt;Node4 -->
<g id="edge3" class="edge">
<title>Node1&#45;&gt;Node4</title>
<path fill="none" stroke="midnightblue" d="M60.81,-221.8C70.96,-246.56 101.11,-311.98 148,-345 150.85,-347.01 153.9,-348.81 157.08,-350.41"/>
<polygon fill="midnightblue" stroke="midnightblue" points="155.73,-353.64 166.3,-354.45 158.55,-347.23 155.73,-353.64"/>
</g>
<!-- Node5 -->
<g id="node5" class="node">
<title>Node5</title>
<g id="a_node5"><a xlink:href="classAtcf.html#a8feed32ff84fb9f6e1bba8526b05d00b" target="_top" xlink:title=" ">
<polygon fill="white" stroke="black" points="166,-392.5 166,-411.5 277,-411.5 277,-392.5 166,-392.5"/>
<text text-anchor="middle" x="221.5" y="-399.5" font-family="Helvetica,sans-Serif" font-size="10.00">computeEpsilonAngle</text>
</a>
</g>
</g>
<!-- Node1&#45;&gt;Node5 -->
<g id="edge4" class="edge">
<title>Node1&#45;&gt;Node5</title>
<path fill="none" stroke="midnightblue" d="M59.29,-221.91C66.61,-251.36 92.34,-338.99 148,-383 150.74,-385.16 153.7,-387.08 156.8,-388.78"/>
<polygon fill="midnightblue" stroke="midnightblue" points="155.33,-391.96 165.87,-393.03 158.3,-385.62 155.33,-391.96"/>
</g>
<!-- Node9 -->
<g id="node9" class="node">
<title>Node9</title>
<g id="a_node9"><a xlink:href="classAtcf.html#a2742efd0b6b28a51a11a0d74e713f222" target="_top" xlink:title=" ">
<polygon fill="white" stroke="black" points="177,-316.5 177,-335.5 266,-335.5 266,-316.5 177,-316.5"/>
<text text-anchor="middle" x="221.5" y="-323.5" font-family="Helvetica,sans-Serif" font-size="10.00">computeGamma</text>
</a>
</g>
</g>
<!-- Node1&#45;&gt;Node9 -->
<g id="edge8" class="edge">
<title>Node1&#45;&gt;Node9</title>
<path fill="none" stroke="midnightblue" d="M64.18,-221.6C78.28,-239.82 111.43,-279.59 148,-302 155.07,-306.33 163.02,-309.98 170.99,-313.02"/>
<polygon fill="midnightblue" stroke="midnightblue" points="170.07,-316.41 180.66,-316.43 172.4,-309.81 170.07,-316.41"/>
</g>
<!-- Node12 -->
<g id="node12" class="node">
<title>Node12</title>
<g id="a_node12"><a xlink:href="namespacePhysical.html#a7a0e10124e38dbffecaa523c97b21e4a" target="_top" xlink:title=" ">
<polygon fill="white" stroke="black" points="331,-278.5 331,-297.5 456,-297.5 456,-278.5 331,-278.5"/>
<text text-anchor="middle" x="393.5" y="-285.5" font-family="Helvetica,sans-Serif" font-size="10.00">Physical::windReduction</text>
</a>
</g>
</g>
<!-- Node1&#45;&gt;Node12 -->
<g id="edge22" class="edge">
<title>Node1&#45;&gt;Node12</title>
<path fill="none" stroke="midnightblue" d="M68.14,-221.53C84.45,-234.85 116.31,-258.55 148,-269 204.08,-287.5 271.16,-291.53 320.86,-291.34"/>
<polygon fill="midnightblue" stroke="midnightblue" points="320.91,-294.84 330.88,-291.24 320.84,-287.84 320.91,-294.84"/>
</g>
<!-- Node13 -->
<g id="node13" class="node">
<title>Node13</title>
<g id="a_node13"><a xlink:href="classAtcf.html#adccea6c4ad7108a14f86b833f3f94f6d" target="_top" xlink:title=" ">
<polygon fill="white" stroke="black" points="148,-38.5 148,-57.5 295,-57.5 295,-38.5 148,-38.5"/>
<text text-anchor="middle" x="221.5" y="-45.5" font-family="Helvetica,sans-Serif" font-size="10.00">computeQuadrantVectorAngle</text>
</a>
</g>
</g>
<!-- Node1&#45;&gt;Node13 -->
<g id="edge12" class="edge">
<title>Node1&#45;&gt;Node13</title>
<path fill="none" stroke="midnightblue" d="M60.14,-202.48C69.24,-176.44 98.17,-103.59 148,-67 150.54,-65.13 153.25,-63.45 156.07,-61.94"/>
<polygon fill="midnightblue" stroke="midnightblue" points="157.79,-65 165.4,-57.63 154.86,-58.64 157.79,-65"/>
</g>
<!-- Node16 -->
<g id="node16" class="node">
<title>Node16</title>
<g id="a_node16"><a xlink:href="classAtcf.html#a82e46480c966292c69401c0fe85b2a3b" target="_top" xlink:title=" ">
<polygon fill="white" stroke="black" points="153,-153 153,-183 290,-183 290,-153 153,-153"/>
<text text-anchor="start" x="161" y="-171" font-family="Helvetica,sans-Serif" font-size="10.00">computeQuadrantVrWithout</text>
<text text-anchor="middle" x="221.5" y="-160" font-family="Helvetica,sans-Serif" font-size="10.00">Gamma</text>
</a>
</g>
</g>
<!-- Node1&#45;&gt;Node16 -->
<g id="edge16" class="edge">
<title>Node1&#45;&gt;Node16</title>
<path fill="none" stroke="midnightblue" d="M92.48,-202.45C110.72,-197.54 133.55,-191.4 154.86,-185.67"/>
<polygon fill="midnightblue" stroke="midnightblue" points="155.77,-189.04 164.52,-183.07 153.95,-182.28 155.77,-189.04"/>
</g>
<!-- Node17 -->
<g id="node17" class="node">
<title>Node17</title>
<g id="a_node17"><a xlink:href="classIsotach.html#a1bb39878429a6f040f8e6c99102d9eba" target="_top" xlink:title=" ">
<polygon fill="white" stroke="black" points="168,-114.5 168,-133.5 275,-133.5 275,-114.5 168,-114.5"/>
<text text-anchor="middle" x="221.5" y="-121.5" font-family="Helvetica,sans-Serif" font-size="10.00">Isotach::cquadrantVr</text>
</a>
</g>
</g>
<!-- Node1&#45;&gt;Node17 -->
<g id="edge17" class="edge">
<title>Node1&#45;&gt;Node17</title>
<path fill="none" stroke="midnightblue" d="M66.76,-202.48C82.53,-187.62 115.19,-158.95 148,-143 152.9,-140.62 158.14,-138.51 163.47,-136.64"/>
<polygon fill="midnightblue" stroke="midnightblue" points="164.67,-139.93 173.12,-133.54 162.53,-133.27 164.67,-139.93"/>
</g>
<!-- Node18 -->
<g id="node18" class="node">
<title>Node18</title>
<g id="a_node18"><a xlink:href="classIsotach.html#a32d11b9542f172cb4e06b65950c704bf" target="_top" xlink:title=" ">
<polygon fill="white" stroke="black" points="170.5,-76.5 170.5,-95.5 272.5,-95.5 272.5,-76.5 170.5,-76.5"/>
<text text-anchor="middle" x="221.5" y="-83.5" font-family="Helvetica,sans-Serif" font-size="10.00">Isotach::quadrantVr</text>
</a>
</g>
</g>
<!-- Node1&#45;&gt;Node18 -->
<g id="edge18" class="edge">
<title>Node1&#45;&gt;Node18</title>
<path fill="none" stroke="midnightblue" d="M62.41,-202.29C74.72,-181.16 106.91,-130.83 148,-105 152.06,-102.45 156.44,-100.24 160.99,-98.33"/>
<polygon fill="midnightblue" stroke="midnightblue" points="162.31,-101.57 170.46,-94.8 159.87,-95.01 162.31,-101.57"/>
</g>
<!-- Node19 -->
<g id="node19" class="node">
<title>Node19</title>
<g id="a_node19"><a xlink:href="classCircularArray.html#a43241fcadbf56b0a7c3f7242acf46eed" target="_top" xlink:title=" ">
<polygon fill="white" stroke="black" points="175,-202.5 175,-221.5 268,-221.5 268,-202.5 175,-202.5"/>
<text text-anchor="middle" x="221.5" y="-209.5" font-family="Helvetica,sans-Serif" font-size="10.00">CircularArray::set</text>
</a>
</g>
</g>
<!-- Node1&#45;&gt;Node19 -->
<g id="edge19" class="edge">
<title>Node1&#45;&gt;Node19</title>
<path fill="none" stroke="midnightblue" d="M112.35,-212C129.23,-212 147.79,-212 164.7,-212"/>
<polygon fill="midnightblue" stroke="midnightblue" points="164.98,-215.5 174.98,-212 164.98,-208.5 164.98,-215.5"/>
</g>
<!-- Node20 -->
<g id="node20" class="node">
<title>Node20</title>
<g id="a_node20"><a xlink:href="classIsotach.html#a2d06b791604441d536b3f6c578fca40f" target="_top" xlink:title=" ">
<polygon fill="white" stroke="black" points="177.5,-0.5 177.5,-19.5 265.5,-19.5 265.5,-0.5 177.5,-0.5"/>
<text text-anchor="middle" x="221.5" y="-7.5" font-family="Helvetica,sans-Serif" font-size="10.00">Isotach::vmaxBl</text>
</a>
</g>
</g>
<!-- Node1&#45;&gt;Node20 -->
<g id="edge21" class="edge">
<title>Node1&#45;&gt;Node20</title>
<path fill="none" stroke="midnightblue" d="M58.88,-202.28C65.31,-171.71 89.37,-76.69 148,-29 153.76,-24.32 160.55,-20.77 167.64,-18.1"/>
<polygon fill="midnightblue" stroke="midnightblue" points="168.95,-21.36 177.4,-14.97 166.81,-14.69 168.95,-21.36"/>
</g>
<!-- Node3 -->
<g id="node3" class="node">
<title>Node3</title>
<g id="a_node3"><a xlink:href="classCircularArray.html#ae9ee07d89dc4196acefc5b290b9275b8" target="_top" xlink:title=" ">
<polygon fill="white" stroke="black" points="344.5,-213 344.5,-243 442.5,-243 442.5,-213 344.5,-213"/>
<text text-anchor="start" x="352.5" y="-231" font-family="Helvetica,sans-Serif" font-size="10.00">CircularArray::mod</text>
<text text-anchor="middle" x="393.5" y="-220" font-family="Helvetica,sans-Serif" font-size="10.00">_floor</text>
</a>
</g>
</g>
<!-- Node2&#45;&gt;Node3 -->
<g id="edge2" class="edge">
<title>Node2&#45;&gt;Node3</title>
<path fill="none" stroke="midnightblue" d="M265.84,-244.39C286.65,-241.7 311.9,-238.43 334.35,-235.52"/>
<polygon fill="midnightblue" stroke="midnightblue" points="334.98,-238.97 344.45,-234.22 334.08,-232.03 334.98,-238.97"/>
</g>
<!-- Node6 -->
<g id="node6" class="node">
<title>Node6</title>
<g id="a_node6"><a xlink:href="namespacePhysical.html#a5753cd084d1e96b108e96f8694b4a8a1" target="_top" xlink:title=" ">
<polygon fill="white" stroke="black" points="361,-430.5 361,-449.5 426,-449.5 426,-430.5 361,-430.5"/>
<text text-anchor="middle" x="393.5" y="-437.5" font-family="Helvetica,sans-Serif" font-size="10.00">Physical::e</text>
</a>
</g>
</g>
<!-- Node5&#45;&gt;Node6 -->
<g id="edge5" class="edge">
<title>Node5&#45;&gt;Node6</title>
<path fill="none" stroke="midnightblue" d="M265.4,-411.59C291.62,-417.45 325,-424.91 350.97,-430.72"/>
<polygon fill="midnightblue" stroke="midnightblue" points="350.36,-434.17 360.89,-432.93 351.89,-427.34 350.36,-434.17"/>
</g>
<!-- Node7 -->
<g id="node7" class="node">
<title>Node7</title>
<g id="a_node7"><a xlink:href="namespacePhysical.html#a3fccff272b0fae8ead3c2c05f62b3620" target="_top" xlink:title=" ">
<polygon fill="white" stroke="black" points="352,-392.5 352,-411.5 435,-411.5 435,-392.5 352,-392.5"/>
<text text-anchor="middle" x="393.5" y="-399.5" font-family="Helvetica,sans-Serif" font-size="10.00">Physical::twopi</text>
</a>
</g>
</g>
<!-- Node5&#45;&gt;Node7 -->
<g id="edge6" class="edge">
<title>Node5&#45;&gt;Node7</title>
<path fill="none" stroke="midnightblue" d="M277.22,-402C297.98,-402 321.51,-402 341.88,-402"/>
<polygon fill="midnightblue" stroke="midnightblue" points="341.9,-405.5 351.9,-402 341.9,-398.5 341.9,-405.5"/>
</g>
<!-- Node8 -->
<g id="node8" class="node">
<title>Node8</title>
<g id="a_node8"><a xlink:href="namespacePhysical.html#aceeafe6dfcafc1ccd35aee635c075f09" target="_top" xlink:title=" ">
<polygon fill="white" stroke="black" points="492,-270.5 492,-289.5 560,-289.5 560,-270.5 492,-270.5"/>
<text text-anchor="middle" x="526" y="-277.5" font-family="Helvetica,sans-Serif" font-size="10.00">Physical::pi</text>
</a>
</g>
</g>
<!-- Node7&#45;&gt;Node8 -->
<g id="edge7" class="edge">
<title>Node7&#45;&gt;Node8</title>
<path fill="none" stroke="midnightblue" d="M435.11,-393.77C442.5,-391.11 449.82,-387.61 456,-383 485.64,-360.93 506.56,-322.13 517.12,-298.97"/>
<polygon fill="midnightblue" stroke="midnightblue" points="520.44,-300.11 521.24,-289.55 514.03,-297.31 520.44,-300.11"/>
</g>
<!-- Node10 -->
<g id="node10" class="node">
<title>Node10</title>
<g id="a_node10"><a xlink:href="namespacePhysical.html#a60d38d3c6b34c99aa2bc57a78149a3e1" target="_top" xlink:title=" ">
<polygon fill="white" stroke="black" points="361,-354.5 361,-373.5 426,-373.5 426,-354.5 361,-354.5"/>
<text text-anchor="middle" x="393.5" y="-361.5" font-family="Helvetica,sans-Serif" font-size="10.00">Physical::g</text>
</a>
</g>
</g>
<!-- Node9&#45;&gt;Node10 -->
<g id="edge9" class="edge">
<title>Node9&#45;&gt;Node10</title>
<path fill="none" stroke="midnightblue" d="M265.4,-335.59C291.62,-341.45 325,-348.91 350.97,-354.72"/>
<polygon fill="midnightblue" stroke="midnightblue" points="350.36,-358.17 360.89,-356.93 351.89,-351.34 350.36,-358.17"/>
</g>
<!-- Node11 -->
<g id="node11" class="node">
<title>Node11</title>
<g id="a_node11"><a xlink:href="namespacePhysical.html#ac3ebcf4f7617c5c5a57bc9bd2b95e0db" target="_top" xlink:title=" ">
<polygon fill="white" stroke="black" points="350,-316.5 350,-335.5 437,-335.5 437,-316.5 350,-316.5"/>
<text text-anchor="middle" x="393.5" y="-323.5" font-family="Helvetica,sans-Serif" font-size="10.00">Physical::ms2kt</text>
</a>
</g>
</g>
<!-- Node9&#45;&gt;Node11 -->
<g id="edge10" class="edge">
<title>Node9&#45;&gt;Node11</title>
<path fill="none" stroke="midnightblue" d="M266.28,-326C288.65,-326 316.04,-326 339.58,-326"/>
<polygon fill="midnightblue" stroke="midnightblue" points="339.75,-329.5 349.75,-326 339.75,-322.5 339.75,-329.5"/>
</g>
<!-- Node9&#45;&gt;Node12 -->
<g id="edge11" class="edge">
<title>Node9&#45;&gt;Node12</title>
<path fill="none" stroke="midnightblue" d="M265.4,-316.41C288.03,-311.35 316,-305.1 339.93,-299.75"/>
<polygon fill="midnightblue" stroke="midnightblue" points="340.91,-303.12 349.91,-297.52 339.39,-296.29 340.91,-303.12"/>
</g>
<!-- Node14 -->
<g id="node14" class="node">
<title>Node14</title>
<g id="a_node14"><a xlink:href="namespacePhysical.html#a92b1fc7520d88e5945e2e7e8c8bc006e" target="_top" xlink:title=" ">
<polygon fill="white" stroke="black" points="352,-133.5 352,-152.5 435,-152.5 435,-133.5 352,-133.5"/>
<text text-anchor="middle" x="393.5" y="-140.5" font-family="Helvetica,sans-Serif" font-size="10.00">Physical::halfpi</text>
</a>
</g>
</g>
<!-- Node13&#45;&gt;Node14 -->
<g id="edge13" class="edge">
<title>Node13&#45;&gt;Node14</title>
<path fill="none" stroke="midnightblue" d="M270.31,-57.57C278.75,-60.09 287.3,-63.19 295,-67 326.2,-82.43 356.99,-108.8 375.38,-126.07"/>
<polygon fill="midnightblue" stroke="midnightblue" points="373.27,-128.9 382.91,-133.29 378.11,-123.84 373.27,-128.9"/>
</g>
<!-- Node15 -->
<g id="node15" class="node">
<title>Node15</title>
<g id="a_node15"><a xlink:href="namespacePhysical.html#a8b95a30e294bd7aa1169d0a92c65a009" target="_top" xlink:title=" ">
<polygon fill="white" stroke="black" points="332.5,-38.5 332.5,-57.5 454.5,-57.5 454.5,-38.5 332.5,-38.5"/>
<text text-anchor="middle" x="393.5" y="-45.5" font-family="Helvetica,sans-Serif" font-size="10.00">Physical::quadrantAngle</text>
</a>
</g>
</g>
<!-- Node13&#45;&gt;Node15 -->
<g id="edge15" class="edge">
<title>Node13&#45;&gt;Node15</title>
<path fill="none" stroke="midnightblue" d="M295.09,-48C304.14,-48 313.38,-48 322.39,-48"/>
<polygon fill="midnightblue" stroke="midnightblue" points="322.44,-51.5 332.44,-48 322.44,-44.5 322.44,-51.5"/>
</g>
<!-- Node14&#45;&gt;Node8 -->
<g id="edge14" class="edge">
<title>Node14&#45;&gt;Node8</title>
<path fill="none" stroke="midnightblue" d="M404.72,-152.57C417.09,-164.24 438.45,-184.69 456,-203 475.07,-222.9 496.09,-246.63 509.86,-262.44"/>
<polygon fill="midnightblue" stroke="midnightblue" points="507.51,-265.07 516.7,-270.33 512.8,-260.48 507.51,-265.07"/>
</g>
<!-- Node19&#45;&gt;Node3 -->
<g id="edge20" class="edge">
<title>Node19&#45;&gt;Node3</title>
<path fill="none" stroke="midnightblue" d="M268.06,-216.29C288.43,-218.21 312.7,-220.49 334.36,-222.53"/>
<polygon fill="midnightblue" stroke="midnightblue" points="334.15,-226.02 344.44,-223.48 334.81,-219.05 334.15,-226.02"/>
</g>
</g>
</svg>
        <g id="navigator" transform="translate(0 0)" fill="#404254">
                <rect fill="#f2f5e9" fill-opacity="0.5" stroke="#606060" stroke-width=".5" x="0" y="0" width="60" height="60"/>
                <use id="zoomplus" xlink:href="#zoomPlus" x="17" y="9" onmousedown="handleZoom(evt,'in')"/>
                <use id="zoomminus" xlink:href="#zoomMin" x="42" y="9" onmousedown="handleZoom(evt,'out')"/>
                <use id="reset" xlink:href="#resetDef" x="30" y="36" onmousedown="handleReset()"/>
                <g id="arrowUp" xlink:href="#dirArrow" transform="translate(30 24)" onmousedown="handlePan(0,-1)">
                  <use xlink:href="#rim" fill="#404040">
                        <set attributeName="fill" to="#808080" begin="arrowUp.mouseover" end="arrowUp.mouseout"/>
                  </use>
                  <path fill="none" stroke="white" stroke-width="1.5" d="M0,-3.0v7 M-2.5,-0.5L0,-3.0L2.5,-0.5"/>
                </g>
                <g id="arrowRight" xlink:href="#dirArrow" transform="rotate(90) translate(36 -43)" onmousedown="handlePan(1,0)">
                  <use xlink:href="#rim" fill="#404040">
                        <set attributeName="fill" to="#808080" begin="arrowRight.mouseover" end="arrowRight.mouseout"/>
                  </use>
                  <path fill="none" stroke="white" stroke-width="1.5" d="M0,-3.0v7 M-2.5,-0.5L0,-3.0L2.5,-0.5"/>
                </g>
                <g id="arrowDown" xlink:href="#dirArrow" transform="rotate(180) translate(-30 -48)" onmousedown="handlePan(0,1)">
                  <use xlink:href="#rim" fill="#404040">
                        <set attributeName="fill" to="#808080" begin="arrowDown.mouseover" end="arrowDown.mouseout"/>
                  </use>
                  <path fill="none" stroke="white" stroke-width="1.5" d="M0,-3.0v7 M-2.5,-0.5L0,-3.0L2.5,-0.5"/>
                </g>
                <g id="arrowLeft" xlink:href="#dirArrow" transform="rotate(270) translate(-36 17)" onmousedown="handlePan(-1,0)">
                  <use xlink:href="#rim" fill="#404040">
                        <set attributeName="fill" to="#808080" begin="arrowLeft.mouseover" end="arrowLeft.mouseout"/>
                  </use>
                  <path fill="none" stroke="white" stroke-width="1.5" d="M0,-3.0v7 M-2.5,-0.5L0,-3.0L2.5,-0.5"/>
                </g>
        </g>
        <svg viewBox="0 0 15 15" width="100%" height="30px" preserveAspectRatio="xMaxYMin meet">
         <g id="arrow_out" transform="scale(0.3 0.3)">
          <a xlink:href="classAtcf_adfe6ef35c351380ba863090d4fec04bb_cgraph_org.svg" target="_base">
           <rect id="button" ry="5" rx="5" y="6" x="6" height="38" width="38"
                fill="#f2f5e9" fill-opacity="0.5" stroke="#606060" stroke-width="1.0"/>
           <path id="arrow"
             d="M 11.500037,31.436501 C 11.940474,20.09759 22.043105,11.32322 32.158766,21.979434 L 37.068811,17.246167 C 37.068811,17.246167 37.088388,32 37.088388,32 L 22.160133,31.978069 C 22.160133,31.978069 26.997745,27.140456 26.997745,27.140456 C 18.528582,18.264221 13.291696,25.230495 11.500037,31.436501 z"
             style="fill:#404040;"/>
          </a>
         </g>
        </svg>
</svg>
