<?xml version="1.0" encoding="UTF-8" standalone="no"?>
<!DOCTYPE svg PUBLIC "-//W3C//DTD SVG 1.1//EN"
 "http://www.w3.org/Graphics/SVG/1.1/DTD/svg11.dtd">
<!-- Generated by graphviz version 2.47.1 (20210417.1919)
 -->
<!-- Title: dvorak Pages: 1 -->
<svg width="686pt" height="119pt"
 viewBox="0.00 0.00 686.00 119.47" xmlns="http://www.w3.org/2000/svg" xmlns:xlink="http://www.w3.org/1999/xlink">
<g id="graph0" class="graph" transform="scale(1 1) rotate(0) translate(4 115.47)">
<title>dvorak</title>
<polygon fill="white" stroke="transparent" points="-4,4 -4,-115.47 682,-115.47 682,4 -4,4"/>
<!-- Node1 -->
<g id="node1" class="node">
<title>Node1</title>
<g id="a_node1"><a xlink:title=" ">
<polygon fill="#bfbfbf" stroke="black" points="632,-15.97 632,-34.97 678,-34.97 678,-15.97 632,-15.97"/>
<text text-anchor="middle" x="655" y="-22.97" font-family="Helvetica,sans-Serif" font-size="10.00">dvorak</text>
</a>
</g>
</g>
<!-- Node2 -->
<g id="node2" class="node">
<title>Node2</title>
<g id="a_node2"><a xlink:href="classHurricanePressure.html#abd75a10e6f9ef19bfd4296a6c9584f7b" target="_top" xlink:title=" ">
<polygon fill="white" stroke="black" points="289.5,-15.97 289.5,-34.97 348.5,-34.97 348.5,-15.97 289.5,-15.97"/>
<text text-anchor="middle" x="319" y="-22.97" font-family="Helvetica,sans-Serif" font-size="10.00">asgs2012</text>
</a>
</g>
</g>
<!-- Node1&#45;&gt;Node2 -->
<g id="edge1" class="edge">
<title>Node1&#45;&gt;Node2</title>
<path fill="none" stroke="midnightblue" d="M621.75,-25.47C556.76,-25.47 410.97,-25.47 348.88,-25.47"/>
<polygon fill="midnightblue" stroke="midnightblue" points="621.83,-28.97 631.83,-25.47 621.83,-21.97 621.83,-28.97"/>
</g>
<!-- Node3 -->
<g id="node3" class="node">
<title>Node3</title>
<g id="a_node3"><a xlink:href="classHurricanePressure.html#a716f4bb7417738b6ba825432ec75eb2a" target="_top" xlink:title=" ">
<polygon fill="white" stroke="black" points="104,-15.97 104,-34.97 197,-34.97 197,-15.97 104,-15.97"/>
<text text-anchor="middle" x="150.5" y="-22.97" font-family="Helvetica,sans-Serif" font-size="10.00">computePressure</text>
</a>
</g>
</g>
<!-- Node1&#45;&gt;Node3 -->
<g id="edge10" class="edge">
<title>Node1&#45;&gt;Node3</title>
<path fill="none" stroke="midnightblue" d="M621.47,-20.49C550.62,-10.41 377.15,10.11 233,-6.47 216.83,-8.33 199.21,-12.2 184.51,-15.97"/>
<polygon fill="midnightblue" stroke="midnightblue" points="621.15,-23.98 631.55,-21.95 622.16,-17.05 621.15,-23.98"/>
</g>
<!-- Node4 -->
<g id="node4" class="node">
<title>Node4</title>
<g id="a_node4"><a xlink:href="classHurricanePressure.html#a6e093920e46b7c9326e027f7c17082e2" target="_top" xlink:title=" ">
<polygon fill="white" stroke="black" points="441,-53.97 441,-72.97 596,-72.97 596,-53.97 441,-53.97"/>
<text text-anchor="middle" x="518.5" y="-60.97" font-family="Helvetica,sans-Serif" font-size="10.00">computeInitialPressureEstimate</text>
</a>
</g>
</g>
<!-- Node1&#45;&gt;Node4 -->
<g id="edge3" class="edge">
<title>Node1&#45;&gt;Node4</title>
<path fill="none" stroke="midnightblue" d="M621.89,-34.55C601.21,-40.39 574.36,-47.97 553.35,-53.91"/>
<polygon fill="midnightblue" stroke="midnightblue" points="623.12,-37.84 631.79,-31.75 621.22,-31.1 623.12,-37.84"/>
</g>
<!-- Node2&#45;&gt;Node3 -->
<g id="edge2" class="edge">
<title>Node2&#45;&gt;Node3</title>
<path fill="none" stroke="midnightblue" d="M279.37,-25.47C254.88,-25.47 223.08,-25.47 197.31,-25.47"/>
<polygon fill="midnightblue" stroke="midnightblue" points="279.38,-28.97 289.38,-25.47 279.38,-21.97 279.38,-28.97"/>
</g>
<!-- Node4&#45;&gt;Node2 -->
<g id="edge4" class="edge">
<title>Node4&#45;&gt;Node2</title>
<path fill="none" stroke="midnightblue" d="M457.96,-52.02C421.81,-45.06 377.29,-36.5 348.77,-31.01"/>
<polygon fill="midnightblue" stroke="midnightblue" points="457.44,-55.48 467.92,-53.93 458.76,-48.61 457.44,-55.48"/>
</g>
<!-- Node5 -->
<g id="node5" class="node">
<title>Node5</title>
<g id="a_node5"><a xlink:href="classAtcf.html#a2c8fb312c911c7d35cc921e303cac875" target="_top" xlink:title=" ">
<polygon fill="white" stroke="black" points="233,-91.97 233,-110.97 405,-110.97 405,-91.97 233,-91.97"/>
<text text-anchor="middle" x="319" y="-98.97" font-family="Helvetica,sans-Serif" font-size="10.00">Atcf::generateMissingPressureData</text>
</a>
</g>
</g>
<!-- Node4&#45;&gt;Node5 -->
<g id="edge5" class="edge">
<title>Node4&#45;&gt;Node5</title>
<path fill="none" stroke="midnightblue" d="M457.79,-74.96C429.61,-80.39 396.37,-86.78 369.6,-91.93"/>
<polygon fill="midnightblue" stroke="midnightblue" points="458.76,-78.34 467.92,-73.01 457.44,-71.47 458.76,-78.34"/>
</g>
<!-- Node8 -->
<g id="node8" class="node">
<title>Node8</title>
<g id="a_node8"><a xlink:href="classHurricanePressure.html#a4916b7f06af118c7c6f471b7a67672fb" target="_top" xlink:title=" ">
<polygon fill="white" stroke="black" points="291,-53.97 291,-72.97 347,-72.97 347,-53.97 291,-53.97"/>
<text text-anchor="middle" x="319" y="-60.97" font-family="Helvetica,sans-Serif" font-size="10.00">twoslope</text>
</a>
</g>
</g>
<!-- Node4&#45;&gt;Node8 -->
<g id="edge8" class="edge">
<title>Node4&#45;&gt;Node8</title>
<path fill="none" stroke="midnightblue" d="M430.72,-63.47C400.62,-63.47 369.02,-63.47 347.31,-63.47"/>
<polygon fill="midnightblue" stroke="midnightblue" points="430.86,-66.97 440.86,-63.47 430.86,-59.97 430.86,-66.97"/>
</g>
<!-- Node6 -->
<g id="node6" class="node">
<title>Node6</title>
<g id="a_node6"><a xlink:href="classAtcf.html#aaab5dab5b969a87f538242e524431637" target="_top" xlink:title=" ">
<polygon fill="white" stroke="black" points="121,-91.97 121,-110.97 180,-110.97 180,-91.97 121,-91.97"/>
<text text-anchor="middle" x="150.5" y="-98.97" font-family="Helvetica,sans-Serif" font-size="10.00">Atcf::read</text>
</a>
</g>
</g>
<!-- Node5&#45;&gt;Node6 -->
<g id="edge6" class="edge">
<title>Node5&#45;&gt;Node6</title>
<path fill="none" stroke="midnightblue" d="M222.57,-101.47C207.1,-101.47 192.19,-101.47 180.07,-101.47"/>
<polygon fill="midnightblue" stroke="midnightblue" points="222.8,-104.97 232.8,-101.47 222.8,-97.97 222.8,-104.97"/>
</g>
<!-- Node7 -->
<g id="node7" class="node">
<title>Node7</title>
<g id="a_node7"><a xlink:href="classGahm.html#aaab5dab5b969a87f538242e524431637" target="_top" xlink:title=" ">
<polygon fill="white" stroke="black" points="0,-91.97 0,-110.97 68,-110.97 68,-91.97 0,-91.97"/>
<text text-anchor="middle" x="34" y="-98.97" font-family="Helvetica,sans-Serif" font-size="10.00">Gahm::read</text>
</a>
</g>
</g>
<!-- Node6&#45;&gt;Node7 -->
<g id="edge7" class="edge">
<title>Node6&#45;&gt;Node7</title>
<path fill="none" stroke="midnightblue" d="M110.7,-101.47C96.86,-101.47 81.41,-101.47 68.1,-101.47"/>
<polygon fill="midnightblue" stroke="midnightblue" points="110.9,-104.97 120.9,-101.47 110.9,-97.97 110.9,-104.97"/>
</g>
<!-- Node8&#45;&gt;Node3 -->
<g id="edge9" class="edge">
<title>Node8&#45;&gt;Node3</title>
<path fill="none" stroke="midnightblue" d="M280.93,-55.26C266.03,-51.94 248.69,-48.06 233,-44.47 219.69,-41.43 205.16,-38.06 192.11,-35.02"/>
<polygon fill="midnightblue" stroke="midnightblue" points="280.29,-58.71 290.81,-57.46 281.81,-51.87 280.29,-58.71"/>
</g>
</g>
</svg>
