<?xml version="1.0" encoding="UTF-8" standalone="no"?>
<!DOCTYPE svg PUBLIC "-//W3C//DTD SVG 1.1//EN"
 "http://www.w3.org/Graphics/SVG/1.1/DTD/svg11.dtd">
<!-- Generated by graphviz version 2.47.1 (20210417.1919)
 -->
<!-- Title: Date Pages: 1 -->
<svg width="446pt" height="275pt"
 viewBox="0.00 0.00 446.00 275.00" xmlns="http://www.w3.org/2000/svg" xmlns:xlink="http://www.w3.org/1999/xlink">
<g id="graph0" class="graph" transform="scale(1 1) rotate(0) translate(4 271)">
<title>Date</title>
<polygon fill="white" stroke="transparent" points="-4,4 -4,-271 442,-271 442,4 -4,4"/>
<!-- Node1 -->
<g id="node1" class="node">
<title>Node1</title>
<g id="a_node1"><a xlink:title=" ">
<polygon fill="#bfbfbf" stroke="black" points="0,-133.5 0,-152.5 38,-152.5 38,-133.5 0,-133.5"/>
<text text-anchor="middle" x="19" y="-140.5" font-family="Helvetica,sans-Serif" font-size="10.00">Date</text>
</a>
</g>
</g>
<!-- Node2 -->
<g id="node2" class="node">
<title>Node2</title>
<g id="a_node2"><a xlink:href="classDate.html#a5a496ea2e6017fd4b43081f4317f96ce" target="_top" xlink:title=" ">
<polygon fill="white" stroke="black" points="90.5,-247.5 90.5,-266.5 122.5,-266.5 122.5,-247.5 90.5,-247.5"/>
<text text-anchor="middle" x="106.5" y="-254.5" font-family="Helvetica,sans-Serif" font-size="10.00">day</text>
</a>
</g>
</g>
<!-- Node1&#45;&gt;Node2 -->
<g id="edge1" class="edge">
<title>Node1&#45;&gt;Node2</title>
<path fill="none" stroke="midnightblue" d="M24.31,-152.72C32.35,-170.12 50.91,-207.2 74,-233 76.53,-235.83 79.44,-238.56 82.44,-241.09"/>
<polygon fill="midnightblue" stroke="midnightblue" points="80.37,-243.92 90.42,-247.3 84.67,-238.39 80.37,-243.92"/>
</g>
<!-- Node4 -->
<g id="node4" class="node">
<title>Node4</title>
<g id="a_node4"><a xlink:href="classDate.html#a27cd68f63fa079225649f69b74527323" target="_top" xlink:title=" ">
<polygon fill="white" stroke="black" points="220,-209.5 220,-228.5 255,-228.5 255,-209.5 220,-209.5"/>
<text text-anchor="middle" x="237.5" y="-216.5" font-family="Helvetica,sans-Serif" font-size="10.00">hour</text>
</a>
</g>
</g>
<!-- Node1&#45;&gt;Node4 -->
<g id="edge3" class="edge">
<title>Node1&#45;&gt;Node4</title>
<path fill="none" stroke="midnightblue" d="M30.81,-152.52C41.2,-161.17 57.68,-173.68 74,-181 119.13,-201.23 176.33,-211.38 209.43,-215.89"/>
<polygon fill="midnightblue" stroke="midnightblue" points="209.32,-219.41 219.68,-217.22 210.21,-212.47 209.32,-219.41"/>
</g>
<!-- Node6 -->
<g id="node6" class="node">
<title>Node6</title>
<g id="a_node6"><a xlink:href="classDate.html#aa55b19dce110414fe48e4e7d60d8cd79" target="_top" xlink:title=" ">
<polygon fill="white" stroke="black" points="74,-133.5 74,-152.5 139,-152.5 139,-133.5 74,-133.5"/>
<text text-anchor="middle" x="106.5" y="-140.5" font-family="Helvetica,sans-Serif" font-size="10.00">millisecond</text>
</a>
</g>
</g>
<!-- Node1&#45;&gt;Node6 -->
<g id="edge5" class="edge">
<title>Node1&#45;&gt;Node6</title>
<path fill="none" stroke="midnightblue" d="M38.13,-143C45.68,-143 54.79,-143 63.83,-143"/>
<polygon fill="midnightblue" stroke="midnightblue" points="63.92,-146.5 73.92,-143 63.92,-139.5 63.92,-146.5"/>
</g>
<!-- Node14 -->
<g id="node14" class="node">
<title>Node14</title>
<g id="a_node14"><a xlink:href="classDate.html#abf8dbbfc49f4fa14c1caee03c29125f1" target="_top" xlink:title=" ">
<polygon fill="white" stroke="black" points="214.5,-171.5 214.5,-190.5 260.5,-190.5 260.5,-171.5 214.5,-171.5"/>
<text text-anchor="middle" x="237.5" y="-178.5" font-family="Helvetica,sans-Serif" font-size="10.00">minute</text>
</a>
</g>
</g>
<!-- Node1&#45;&gt;Node14 -->
<g id="edge14" class="edge">
<title>Node1&#45;&gt;Node14</title>
<path fill="none" stroke="midnightblue" d="M38.19,-150.54C48.53,-154.53 61.8,-159.18 74,-162 118.57,-172.31 171.38,-177.17 204.42,-179.35"/>
<polygon fill="midnightblue" stroke="midnightblue" points="204.22,-182.85 214.42,-179.97 204.66,-175.86 204.22,-182.85"/>
</g>
<!-- Node15 -->
<g id="node15" class="node">
<title>Node15</title>
<g id="a_node15"><a xlink:href="classDate.html#a1d85d7b09eedec3fb734532c164f2f27" target="_top" xlink:title=" ">
<polygon fill="white" stroke="black" points="84.5,-57.5 84.5,-76.5 128.5,-76.5 128.5,-57.5 84.5,-57.5"/>
<text text-anchor="middle" x="106.5" y="-64.5" font-family="Helvetica,sans-Serif" font-size="10.00">month</text>
</a>
</g>
</g>
<!-- Node1&#45;&gt;Node15 -->
<g id="edge16" class="edge">
<title>Node1&#45;&gt;Node15</title>
<path fill="none" stroke="midnightblue" d="M27.73,-133.36C37.64,-121.38 55.73,-100.7 74,-86 75.57,-84.74 77.23,-83.5 78.93,-82.3"/>
<polygon fill="midnightblue" stroke="midnightblue" points="81.14,-85.04 87.61,-76.65 77.32,-79.17 81.14,-85.04"/>
</g>
<!-- Node17 -->
<g id="node17" class="node">
<title>Node17</title>
<g id="a_node17"><a xlink:href="classDate.html#a48e9ba1096b933927acac1f97d57f97c" target="_top" xlink:title=" ">
<polygon fill="white" stroke="black" points="82.5,-95.5 82.5,-114.5 130.5,-114.5 130.5,-95.5 82.5,-95.5"/>
<text text-anchor="middle" x="106.5" y="-102.5" font-family="Helvetica,sans-Serif" font-size="10.00">second</text>
</a>
</g>
</g>
<!-- Node1&#45;&gt;Node17 -->
<g id="edge18" class="edge">
<title>Node1&#45;&gt;Node17</title>
<path fill="none" stroke="midnightblue" d="M38.13,-134.94C48.73,-130.23 62.39,-124.16 74.64,-118.72"/>
<polygon fill="midnightblue" stroke="midnightblue" points="76.35,-121.78 84.07,-114.52 73.51,-115.39 76.35,-121.78"/>
</g>
<!-- Node18 -->
<g id="node18" class="node">
<title>Node18</title>
<g id="a_node18"><a xlink:href="classDate.html#ad1762f5051124b0a842e0cd1e94c6237" target="_top" xlink:title=" ">
<polygon fill="white" stroke="black" points="91.5,-19.5 91.5,-38.5 121.5,-38.5 121.5,-19.5 91.5,-19.5"/>
<text text-anchor="middle" x="106.5" y="-26.5" font-family="Helvetica,sans-Serif" font-size="10.00">set</text>
</a>
</g>
</g>
<!-- Node1&#45;&gt;Node18 -->
<g id="edge20" class="edge">
<title>Node1&#45;&gt;Node18</title>
<path fill="none" stroke="midnightblue" d="M23.56,-133.34C30.73,-114.9 48.45,-74.22 74,-48 76.53,-45.41 79.48,-43.03 82.55,-40.9"/>
<polygon fill="midnightblue" stroke="midnightblue" points="84.53,-43.79 91.23,-35.58 80.88,-37.82 84.53,-43.79"/>
</g>
<!-- Node3 -->
<g id="node3" class="node">
<title>Node3</title>
<g id="a_node3"><a xlink:href="structs__date.html#a5a496ea2e6017fd4b43081f4317f96ce" target="_top" xlink:title=" ">
<polygon fill="white" stroke="black" points="203.5,-247.5 203.5,-266.5 271.5,-266.5 271.5,-247.5 203.5,-247.5"/>
<text text-anchor="middle" x="237.5" y="-254.5" font-family="Helvetica,sans-Serif" font-size="10.00">s_date::day</text>
</a>
</g>
</g>
<!-- Node2&#45;&gt;Node3 -->
<g id="edge2" class="edge">
<title>Node2&#45;&gt;Node3</title>
<path fill="none" stroke="midnightblue" d="M122.55,-257C139.76,-257 168.72,-257 193.14,-257"/>
<polygon fill="midnightblue" stroke="midnightblue" points="193.27,-260.5 203.27,-257 193.27,-253.5 193.27,-260.5"/>
</g>
<!-- Node5 -->
<g id="node5" class="node">
<title>Node5</title>
<g id="a_node5"><a xlink:href="structs__datetime.html#a110d566ff7f9edf7cbfe15355f8c637c" target="_top" xlink:title=" ">
<polygon fill="white" stroke="black" points="342.5,-228.5 342.5,-247.5 431.5,-247.5 431.5,-228.5 342.5,-228.5"/>
<text text-anchor="middle" x="387" y="-235.5" font-family="Helvetica,sans-Serif" font-size="10.00">s_datetime::hour</text>
</a>
</g>
</g>
<!-- Node4&#45;&gt;Node5 -->
<g id="edge4" class="edge">
<title>Node4&#45;&gt;Node5</title>
<path fill="none" stroke="midnightblue" d="M255.13,-221.14C273.77,-223.54 304.95,-227.56 332.2,-231.07"/>
<polygon fill="midnightblue" stroke="midnightblue" points="332.06,-234.58 342.42,-232.39 332.95,-227.64 332.06,-234.58"/>
</g>
<!-- Node7 -->
<g id="node7" class="node">
<title>Node7</title>
<g id="a_node7"><a xlink:href="structs__datetime.html#a32205231a1a2e9f16cd9866d06c90b22" target="_top" xlink:title=" ">
<polygon fill="white" stroke="black" points="175,-133.5 175,-152.5 300,-152.5 300,-133.5 175,-133.5"/>
<text text-anchor="middle" x="237.5" y="-140.5" font-family="Helvetica,sans-Serif" font-size="10.00">s_datetime::milliseconds</text>
</a>
</g>
</g>
<!-- Node6&#45;&gt;Node7 -->
<g id="edge6" class="edge">
<title>Node6&#45;&gt;Node7</title>
<path fill="none" stroke="midnightblue" d="M139.06,-143C146.92,-143 155.67,-143 164.61,-143"/>
<polygon fill="midnightblue" stroke="midnightblue" points="164.75,-146.5 174.75,-143 164.75,-139.5 164.75,-146.5"/>
</g>
<!-- Node7&#45;&gt;Node5 -->
<g id="edge8" class="edge">
<title>Node7&#45;&gt;Node5</title>
<path fill="none" stroke="midnightblue" d="M283.04,-152.57C289.09,-155.04 294.94,-158.13 300,-162 323.79,-180.22 312.8,-200.04 336,-219 338.04,-220.67 340.25,-222.21 342.56,-223.61"/>
<polygon fill="midnightblue" stroke="midnightblue" points="341.35,-226.93 351.84,-228.43 344.58,-220.72 341.35,-226.93"/>
</g>
<!-- Node8 -->
<g id="node8" class="node">
<title>Node8</title>
<g id="a_node8"><a xlink:href="structs__datetime.html#a5a496ea2e6017fd4b43081f4317f96ce" target="_top" xlink:title=" ">
<polygon fill="white" stroke="black" points="344,-114.5 344,-133.5 430,-133.5 430,-114.5 344,-114.5"/>
<text text-anchor="middle" x="387" y="-121.5" font-family="Helvetica,sans-Serif" font-size="10.00">s_datetime::day</text>
</a>
</g>
</g>
<!-- Node7&#45;&gt;Node8 -->
<g id="edge7" class="edge">
<title>Node7&#45;&gt;Node8</title>
<path fill="none" stroke="midnightblue" d="M300.2,-135.05C311.33,-133.62 322.83,-132.14 333.66,-130.74"/>
<polygon fill="midnightblue" stroke="midnightblue" points="334.33,-134.18 343.8,-129.44 333.44,-127.24 334.33,-134.18"/>
</g>
<!-- Node9 -->
<g id="node9" class="node">
<title>Node9</title>
<g id="a_node9"><a xlink:href="structs__datetime.html#ae91256ab81b246d3f40eddbd4c016f5f" target="_top" xlink:title=" ">
<polygon fill="white" stroke="black" points="337,-190.5 337,-209.5 437,-209.5 437,-190.5 337,-190.5"/>
<text text-anchor="middle" x="387" y="-197.5" font-family="Helvetica,sans-Serif" font-size="10.00">s_datetime::minute</text>
</a>
</g>
</g>
<!-- Node7&#45;&gt;Node9 -->
<g id="edge9" class="edge">
<title>Node7&#45;&gt;Node9</title>
<path fill="none" stroke="midnightblue" d="M273.38,-152.54C282.18,-155.28 291.53,-158.49 300,-162 316.71,-168.92 319.51,-173.55 336,-181 340.37,-182.98 345.01,-184.93 349.64,-186.78"/>
<polygon fill="midnightblue" stroke="midnightblue" points="348.44,-190.07 359.02,-190.44 350.98,-183.55 348.44,-190.07"/>
</g>
<!-- Node10 -->
<g id="node10" class="node">
<title>Node10</title>
<g id="a_node10"><a xlink:href="structs__datetime.html#a1d85d7b09eedec3fb734532c164f2f27" target="_top" xlink:title=" ">
<polygon fill="white" stroke="black" points="338,-76.5 338,-95.5 436,-95.5 436,-76.5 338,-76.5"/>
<text text-anchor="middle" x="387" y="-83.5" font-family="Helvetica,sans-Serif" font-size="10.00">s_datetime::month</text>
</a>
</g>
</g>
<!-- Node7&#45;&gt;Node10 -->
<g id="edge10" class="edge">
<title>Node7&#45;&gt;Node10</title>
<path fill="none" stroke="midnightblue" d="M263.09,-133.4C289.59,-123.07 328.92,-107.72 336,-105 340.91,-103.11 346.1,-101.13 351.2,-99.18"/>
<polygon fill="midnightblue" stroke="midnightblue" points="352.7,-102.35 360.8,-95.53 350.21,-95.81 352.7,-102.35"/>
</g>
<!-- Node11 -->
<g id="node11" class="node">
<title>Node11</title>
<g id="a_node11"><a xlink:href="structs__datetime.html#aa0cba22e21d8081f564e6a68edab1ae0" target="_top" xlink:title=" ">
<polygon fill="white" stroke="black" points="336,-0.5 336,-19.5 438,-19.5 438,-0.5 336,-0.5"/>
<text text-anchor="middle" x="387" y="-7.5" font-family="Helvetica,sans-Serif" font-size="10.00">s_datetime::second</text>
</a>
</g>
</g>
<!-- Node7&#45;&gt;Node11 -->
<g id="edge11" class="edge">
<title>Node7&#45;&gt;Node11</title>
<path fill="none" stroke="midnightblue" d="M277.14,-133.46C285.46,-129.98 293.65,-125.29 300,-119 330.59,-88.67 305.27,-59.2 336,-29 337.47,-27.56 339.05,-26.23 340.72,-24.99"/>
<polygon fill="midnightblue" stroke="midnightblue" points="342.91,-27.76 349.69,-19.62 339.31,-21.76 342.91,-27.76"/>
</g>
<!-- Node12 -->
<g id="node12" class="node">
<title>Node12</title>
<g id="a_node12"><a xlink:href="classDate.html#aa1dec3e6a706a77691a3c49a0fe82e3d" target="_top" xlink:title=" ">
<polygon fill="white" stroke="black" points="356,-38.5 356,-57.5 418,-57.5 418,-38.5 356,-38.5"/>
<text text-anchor="middle" x="387" y="-45.5" font-family="Helvetica,sans-Serif" font-size="10.00">time_point</text>
</a>
</g>
</g>
<!-- Node7&#45;&gt;Node12 -->
<g id="edge12" class="edge">
<title>Node7&#45;&gt;Node12</title>
<path fill="none" stroke="midnightblue" d="M273.61,-133.39C282.79,-129.82 292.27,-125.11 300,-119 322.06,-101.57 313.87,-84.33 336,-67 339.2,-64.5 342.76,-62.29 346.48,-60.36"/>
<polygon fill="midnightblue" stroke="midnightblue" points="348.22,-63.41 355.89,-56.1 345.34,-57.04 348.22,-63.41"/>
</g>
<!-- Node13 -->
<g id="node13" class="node">
<title>Node13</title>
<g id="a_node13"><a xlink:href="structs__datetime.html#a1b5cb174b9b809888ca1cadfb32791f4" target="_top" xlink:title=" ">
<polygon fill="white" stroke="black" points="342.5,-152.5 342.5,-171.5 431.5,-171.5 431.5,-152.5 342.5,-152.5"/>
<text text-anchor="middle" x="387" y="-159.5" font-family="Helvetica,sans-Serif" font-size="10.00">s_datetime::year</text>
</a>
</g>
</g>
<!-- Node7&#45;&gt;Node13 -->
<g id="edge13" class="edge">
<title>Node7&#45;&gt;Node13</title>
<path fill="none" stroke="midnightblue" d="M300.2,-150.95C310.86,-152.32 321.86,-153.74 332.28,-155.08"/>
<polygon fill="midnightblue" stroke="midnightblue" points="332.12,-158.59 342.48,-156.39 333.01,-151.65 332.12,-158.59"/>
</g>
<!-- Node14&#45;&gt;Node9 -->
<g id="edge15" class="edge">
<title>Node14&#45;&gt;Node9</title>
<path fill="none" stroke="midnightblue" d="M260.58,-183.84C278.08,-186.1 303.39,-189.36 326.69,-192.36"/>
<polygon fill="midnightblue" stroke="midnightblue" points="326.5,-195.87 336.87,-193.67 327.4,-188.92 326.5,-195.87"/>
</g>
<!-- Node16 -->
<g id="node16" class="node">
<title>Node16</title>
<g id="a_node16"><a xlink:href="structs__date.html#a1d85d7b09eedec3fb734532c164f2f27" target="_top" xlink:title=" ">
<polygon fill="white" stroke="black" points="198,-57.5 198,-76.5 277,-76.5 277,-57.5 198,-57.5"/>
<text text-anchor="middle" x="237.5" y="-64.5" font-family="Helvetica,sans-Serif" font-size="10.00">s_date::month</text>
</a>
</g>
</g>
<!-- Node15&#45;&gt;Node16 -->
<g id="edge17" class="edge">
<title>Node15&#45;&gt;Node16</title>
<path fill="none" stroke="midnightblue" d="M128.51,-67C144.51,-67 167.2,-67 187.65,-67"/>
<polygon fill="midnightblue" stroke="midnightblue" points="187.78,-70.5 197.78,-67 187.78,-63.5 187.78,-70.5"/>
</g>
<!-- Node17&#45;&gt;Node11 -->
<g id="edge19" class="edge">
<title>Node17&#45;&gt;Node11</title>
<path fill="none" stroke="midnightblue" d="M130.58,-108.83C168.89,-113.94 246.7,-118.89 300,-86 325.5,-70.26 312.8,-47.96 336,-29 338.04,-27.33 340.25,-25.79 342.56,-24.39"/>
<polygon fill="midnightblue" stroke="midnightblue" points="344.58,-27.28 351.84,-19.57 341.35,-21.07 344.58,-27.28"/>
</g>
</g>
</svg>
