<?xml version="1.0" encoding="UTF-8" standalone="no"?>
<!DOCTYPE svg PUBLIC "-//W3C//DTD SVG 1.1//EN"
 "http://www.w3.org/Graphics/SVG/1.1/DTD/svg11.dtd">
<!-- Generated by graphviz version 2.47.1 (20210417.1919)
 -->
<!-- Title: set Pages: 1 -->
<svg width="490pt" height="214pt"
 viewBox="0.00 0.00 490.00 213.50" xmlns="http://www.w3.org/2000/svg" xmlns:xlink="http://www.w3.org/1999/xlink">
<g id="graph0" class="graph" transform="scale(1 1) rotate(0) translate(4 209.5)">
<title>set</title>
<polygon fill="white" stroke="transparent" points="-4,4 -4,-209.5 486,-209.5 486,4 -4,4"/>
<!-- Node1 -->
<g id="node1" class="node">
<title>Node1</title>
<g id="a_node1"><a xlink:title=" ">
<polygon fill="#bfbfbf" stroke="black" points="452,-104 452,-123 482,-123 482,-104 452,-104"/>
<text text-anchor="middle" x="467" y="-111" font-family="Helvetica,sans-Serif" font-size="10.00">set</text>
</a>
</g>
</g>
<!-- Node2 -->
<g id="node2" class="node">
<title>Node2</title>
<g id="a_node2"><a xlink:href="classAtcf.html#a80d9683a370e561492db8a0f6d795c5d" target="_top" xlink:title=" ">
<polygon fill="white" stroke="black" points="273.5,-186 273.5,-205 401.5,-205 401.5,-186 273.5,-186"/>
<text text-anchor="middle" x="337.5" y="-193" font-family="Helvetica,sans-Serif" font-size="10.00">Atcf::computeQuadrantVr</text>
</a>
</g>
</g>
<!-- Node1&#45;&gt;Node2 -->
<g id="edge1" class="edge">
<title>Node1&#45;&gt;Node2</title>
<path fill="none" stroke="midnightblue" d="M455.79,-132.23C447.06,-146.49 433.19,-165.48 416,-176.5 409.94,-180.39 403.14,-183.48 396.15,-185.94"/>
<polygon fill="midnightblue" stroke="midnightblue" points="459,-133.68 460.99,-123.27 452.94,-130.16 459,-133.68"/>
</g>
<!-- Node5 -->
<g id="node5" class="node">
<title>Node5</title>
<g id="a_node5"><a xlink:href="classAtcf.html#adfe6ef35c351380ba863090d4fec04bb" target="_top" xlink:title=" ">
<polygon fill="white" stroke="black" points="269.5,-148 269.5,-167 405.5,-167 405.5,-148 269.5,-148"/>
<text text-anchor="middle" x="337.5" y="-155" font-family="Helvetica,sans-Serif" font-size="10.00">Atcf::recomputeQuadrantVr</text>
</a>
</g>
</g>
<!-- Node1&#45;&gt;Node5 -->
<g id="edge4" class="edge">
<title>Node1&#45;&gt;Node5</title>
<path fill="none" stroke="midnightblue" d="M442.87,-126.41C434.58,-130.68 425.04,-135.18 416,-138.5 406.12,-142.13 395.27,-145.28 384.91,-147.91"/>
<polygon fill="midnightblue" stroke="midnightblue" points="444.75,-129.38 451.94,-121.59 441.46,-123.2 444.75,-129.38"/>
</g>
<!-- Node6 -->
<g id="node6" class="node">
<title>Node6</title>
<g id="a_node6"><a xlink:href="classAtcf.html#ab2c3d48d4cd01aa2aef9e02f2a199bb1" target="_top" xlink:title=" ">
<polygon fill="white" stroke="black" points="259,-98.5 259,-128.5 416,-128.5 416,-98.5 259,-98.5"/>
<text text-anchor="start" x="267" y="-116.5" font-family="Helvetica,sans-Serif" font-size="10.00">Atcf::setMissingRadiiToAverage</text>
<text text-anchor="middle" x="337.5" y="-105.5" font-family="Helvetica,sans-Serif" font-size="10.00">OfAdjacentRadii</text>
</a>
</g>
</g>
<!-- Node1&#45;&gt;Node6 -->
<g id="edge6" class="edge">
<title>Node1&#45;&gt;Node6</title>
<path fill="none" stroke="midnightblue" d="M441.73,-113.5C434.15,-113.5 425.34,-113.5 416.12,-113.5"/>
<polygon fill="midnightblue" stroke="midnightblue" points="441.87,-117 451.87,-113.5 441.87,-110 441.87,-117"/>
</g>
<!-- Node8 -->
<g id="node8" class="node">
<title>Node8</title>
<g id="a_node8"><a xlink:href="classAtcf.html#a0f3511e6d9066da7d7af0fe1aab03f79" target="_top" xlink:title=" ">
<polygon fill="white" stroke="black" points="268,-49.5 268,-79.5 407,-79.5 407,-49.5 268,-49.5"/>
<text text-anchor="start" x="276" y="-67.5" font-family="Helvetica,sans-Serif" font-size="10.00">Atcf::setMissingRadiiToHalf</text>
<text text-anchor="middle" x="337.5" y="-56.5" font-family="Helvetica,sans-Serif" font-size="10.00">NonzeroRadii</text>
</a>
</g>
</g>
<!-- Node1&#45;&gt;Node8 -->
<g id="edge9" class="edge">
<title>Node1&#45;&gt;Node8</title>
<path fill="none" stroke="midnightblue" d="M442.76,-100.89C434.45,-96.65 424.93,-92.09 416,-88.5 408.16,-85.35 399.73,-82.36 391.43,-79.62"/>
<polygon fill="midnightblue" stroke="midnightblue" points="441.36,-104.11 451.85,-105.64 444.61,-97.91 441.36,-104.11"/>
</g>
<!-- Node9 -->
<g id="node9" class="node">
<title>Node9</title>
<g id="a_node9"><a xlink:href="classAtcf.html#aed2ec117307b05eb72dc3e8e06965923" target="_top" xlink:title=" ">
<polygon fill="white" stroke="black" points="268,-0.5 268,-30.5 407,-30.5 407,-0.5 268,-0.5"/>
<text text-anchor="start" x="276" y="-18.5" font-family="Helvetica,sans-Serif" font-size="10.00">Atcf::setMissingRadiiToHalf</text>
<text text-anchor="middle" x="337.5" y="-7.5" font-family="Helvetica,sans-Serif" font-size="10.00">OfAverageSpecifiedRadii</text>
</a>
</g>
</g>
<!-- Node1&#45;&gt;Node9 -->
<g id="edge11" class="edge">
<title>Node1&#45;&gt;Node9</title>
<path fill="none" stroke="midnightblue" d="M457.65,-94.41C449.38,-77.63 435.18,-53.73 416,-39.5 411.36,-36.06 406.22,-33.1 400.86,-30.57"/>
<polygon fill="midnightblue" stroke="midnightblue" points="454.62,-96.2 462.02,-103.78 460.97,-93.24 454.62,-96.2"/>
</g>
<!-- Node3 -->
<g id="node3" class="node">
<title>Node3</title>
<g id="a_node3"><a xlink:href="classAtcf.html#ada693ebe0f0ee4be52b01fd3fe83963a" target="_top" xlink:title=" ">
<polygon fill="white" stroke="black" points="95,-148 95,-167 223,-167 223,-148 95,-148"/>
<text text-anchor="middle" x="159" y="-155" font-family="Helvetica,sans-Serif" font-size="10.00">Atcf::computeParameters</text>
</a>
</g>
</g>
<!-- Node2&#45;&gt;Node3 -->
<g id="edge2" class="edge">
<title>Node2&#45;&gt;Node3</title>
<path fill="none" stroke="midnightblue" d="M281.91,-183.75C256.96,-178.37 227.77,-172.09 204.22,-167.02"/>
<polygon fill="midnightblue" stroke="midnightblue" points="281.45,-187.23 291.96,-185.91 282.92,-180.38 281.45,-187.23"/>
</g>
<!-- Node4 -->
<g id="node4" class="node">
<title>Node4</title>
<g id="a_node4"><a xlink:href="classAtcf.html#aaab5dab5b969a87f538242e524431637" target="_top" xlink:title=" ">
<polygon fill="white" stroke="black" points="0,-102 0,-121 59,-121 59,-102 0,-102"/>
<text text-anchor="middle" x="29.5" y="-109" font-family="Helvetica,sans-Serif" font-size="10.00">Atcf::read</text>
</a>
</g>
</g>
<!-- Node3&#45;&gt;Node4 -->
<g id="edge3" class="edge">
<title>Node3&#45;&gt;Node4</title>
<path fill="none" stroke="midnightblue" d="M122.15,-144.56C101.41,-137.08 75.77,-127.83 56.88,-121.02"/>
<polygon fill="midnightblue" stroke="midnightblue" points="120.99,-147.87 131.58,-147.97 123.36,-141.28 120.99,-147.87"/>
</g>
<!-- Node5&#45;&gt;Node3 -->
<g id="edge5" class="edge">
<title>Node5&#45;&gt;Node3</title>
<path fill="none" stroke="midnightblue" d="M259.25,-157.5C247.23,-157.5 234.93,-157.5 223.27,-157.5"/>
<polygon fill="midnightblue" stroke="midnightblue" points="259.27,-161 269.27,-157.5 259.27,-154 259.27,-161"/>
</g>
<!-- Node7 -->
<g id="node7" class="node">
<title>Node7</title>
<g id="a_node7"><a xlink:href="classAtcf.html#a4392a7255cda22dc330a996257216c31" target="_top" xlink:title=" ">
<polygon fill="white" stroke="black" points="108,-80 108,-99 210,-99 210,-80 108,-80"/>
<text text-anchor="middle" x="159" y="-87" font-family="Helvetica,sans-Serif" font-size="10.00">Atcf::calculateRadii</text>
</a>
</g>
</g>
<!-- Node6&#45;&gt;Node7 -->
<g id="edge7" class="edge">
<title>Node6&#45;&gt;Node7</title>
<path fill="none" stroke="midnightblue" d="M248.7,-101.56C235.42,-99.76 222.13,-97.95 210.03,-96.3"/>
<polygon fill="midnightblue" stroke="midnightblue" points="248.45,-105.06 258.83,-102.94 249.39,-98.12 248.45,-105.06"/>
</g>
<!-- Node7&#45;&gt;Node4 -->
<g id="edge8" class="edge">
<title>Node7&#45;&gt;Node4</title>
<path fill="none" stroke="midnightblue" d="M97.74,-99.9C84.24,-102.23 70.53,-104.59 59.05,-106.57"/>
<polygon fill="midnightblue" stroke="midnightblue" points="98.72,-103.28 107.97,-98.13 97.53,-96.38 98.72,-103.28"/>
</g>
<!-- Node8&#45;&gt;Node7 -->
<g id="edge10" class="edge">
<title>Node8&#45;&gt;Node7</title>
<path fill="none" stroke="midnightblue" d="M257.78,-75.65C241.63,-77.94 225.06,-80.28 210.25,-82.38"/>
<polygon fill="midnightblue" stroke="midnightblue" points="258.34,-79.11 267.76,-74.24 257.36,-72.17 258.34,-79.11"/>
</g>
<!-- Node9&#45;&gt;Node7 -->
<g id="edge12" class="edge">
<title>Node9&#45;&gt;Node7</title>
<path fill="none" stroke="midnightblue" d="M273.82,-33.92C268.77,-35.7 263.77,-37.57 259,-39.5 229.19,-51.55 196.14,-69.15 176.77,-79.94"/>
<polygon fill="midnightblue" stroke="midnightblue" points="275.22,-37.14 283.56,-30.6 272.96,-30.51 275.22,-37.14"/>
</g>
</g>
</svg>
