<?xml version="1.0" encoding="UTF-8" standalone="no"?>
<!DOCTYPE svg PUBLIC "-//W3C//DTD SVG 1.1//EN"
 "http://www.w3.org/Graphics/SVG/1.1/DTD/svg11.dtd">
<!-- Generated by graphviz version 2.47.1 (20210417.1919)
 -->
<!-- Title: vhNoCori Pages: 1 -->
<svg width="358pt" height="224pt"
 viewBox="0.00 0.00 358.00 223.50" xmlns="http://www.w3.org/2000/svg" xmlns:xlink="http://www.w3.org/1999/xlink">
<g id="graph0" class="graph" transform="scale(1 1) rotate(0) translate(4 219.5)">
<title>vhNoCori</title>
<polygon fill="white" stroke="transparent" points="-4,4 -4,-219.5 354,-219.5 354,4 -4,4"/>
<!-- Node1 -->
<g id="node1" class="node">
<title>Node1</title>
<g id="a_node1"><a xlink:title=" ">
<polygon fill="#bfbfbf" stroke="black" points="0,-95.5 0,-114.5 58,-114.5 58,-95.5 0,-95.5"/>
<text text-anchor="middle" x="29" y="-102.5" font-family="Helvetica,sans-Serif" font-size="10.00">vhNoCori</text>
</a>
</g>
</g>
<!-- Node2 -->
<g id="node2" class="node">
<title>Node2</title>
<g id="a_node2"><a xlink:href="classCircularArray.html#a0642b8def16b83c1fff8f93326d2c842" target="_top" xlink:title=" ">
<polygon fill="white" stroke="black" points="111,-190.5 111,-209.5 199,-209.5 199,-190.5 111,-190.5"/>
<text text-anchor="middle" x="155" y="-197.5" font-family="Helvetica,sans-Serif" font-size="10.00">CircularArray::at</text>
</a>
</g>
</g>
<!-- Node1&#45;&gt;Node2 -->
<g id="edge1" class="edge">
<title>Node1&#45;&gt;Node2</title>
<path fill="none" stroke="midnightblue" d="M35.6,-114.68C45.39,-130.79 67.17,-163.09 94,-181 96.95,-182.97 100.12,-184.75 103.4,-186.35"/>
<polygon fill="midnightblue" stroke="midnightblue" points="102.3,-189.68 112.87,-190.4 105.06,-183.25 102.3,-189.68"/>
</g>
<!-- Node4 -->
<g id="node4" class="node">
<title>Node4</title>
<g id="a_node4"><a xlink:href="classIsotach.html#a6d338c7499d8278c978770bd67c1a736" target="_top" xlink:title=" ">
<polygon fill="white" stroke="black" points="106,-152.5 106,-171.5 204,-171.5 204,-152.5 106,-152.5"/>
<text text-anchor="middle" x="155" y="-159.5" font-family="Helvetica,sans-Serif" font-size="10.00">Isotach::chollandB</text>
</a>
</g>
</g>
<!-- Node1&#45;&gt;Node4 -->
<g id="edge3" class="edge">
<title>Node1&#45;&gt;Node4</title>
<path fill="none" stroke="midnightblue" d="M44.23,-114.74C56.87,-123.08 76.08,-134.97 94,-143 98.99,-145.23 104.31,-147.32 109.66,-149.23"/>
<polygon fill="midnightblue" stroke="midnightblue" points="108.63,-152.58 119.23,-152.47 110.88,-145.95 108.63,-152.58"/>
</g>
<!-- Node5 -->
<g id="node5" class="node">
<title>Node5</title>
<g id="a_node5"><a xlink:href="classAtcfLine.html#af02cbe832e0a7a708e691fff2b48ebc4" target="_top" xlink:title=" ">
<polygon fill="white" stroke="black" points="107.5,-114.5 107.5,-133.5 202.5,-133.5 202.5,-114.5 107.5,-114.5"/>
<text text-anchor="middle" x="155" y="-121.5" font-family="Helvetica,sans-Serif" font-size="10.00">AtcfLine::cisotach</text>
</a>
</g>
</g>
<!-- Node1&#45;&gt;Node5 -->
<g id="edge4" class="edge">
<title>Node1&#45;&gt;Node5</title>
<path fill="none" stroke="midnightblue" d="M58.14,-109.31C69.75,-111.09 83.66,-113.22 97.22,-115.3"/>
<polygon fill="midnightblue" stroke="midnightblue" points="97.08,-118.82 107.49,-116.87 98.14,-111.9 97.08,-118.82"/>
</g>
<!-- Node6 -->
<g id="node6" class="node">
<title>Node6</title>
<g id="a_node6"><a xlink:href="classIsotach.html#af93a6e1bb9f15faae4793d8205637e40" target="_top" xlink:title=" ">
<polygon fill="white" stroke="black" points="94,-76.5 94,-95.5 216,-95.5 216,-76.5 94,-76.5"/>
<text text-anchor="middle" x="155" y="-83.5" font-family="Helvetica,sans-Serif" font-size="10.00">Isotach::cisotachRadius</text>
</a>
</g>
</g>
<!-- Node1&#45;&gt;Node6 -->
<g id="edge5" class="edge">
<title>Node1&#45;&gt;Node6</title>
<path fill="none" stroke="midnightblue" d="M58.14,-100.69C65.96,-99.49 74.81,-98.13 83.9,-96.74"/>
<polygon fill="midnightblue" stroke="midnightblue" points="84.47,-100.19 93.82,-95.22 83.41,-93.28 84.47,-100.19"/>
</g>
<!-- Node7 -->
<g id="node7" class="node">
<title>Node7</title>
<g id="a_node7"><a xlink:href="classIsotach.html#ae34699ed432e270b9857a4968684a14e" target="_top" xlink:title=" ">
<polygon fill="white" stroke="black" points="108.5,-38.5 108.5,-57.5 201.5,-57.5 201.5,-38.5 108.5,-38.5"/>
<text text-anchor="middle" x="155" y="-45.5" font-family="Helvetica,sans-Serif" font-size="10.00">Isotach::cvmaxBl</text>
</a>
</g>
</g>
<!-- Node1&#45;&gt;Node7 -->
<g id="edge6" class="edge">
<title>Node1&#45;&gt;Node7</title>
<path fill="none" stroke="midnightblue" d="M44.23,-95.26C56.87,-86.92 76.08,-75.03 94,-67 98.99,-64.77 104.31,-62.68 109.66,-60.77"/>
<polygon fill="midnightblue" stroke="midnightblue" points="110.88,-64.05 119.23,-57.53 108.63,-57.42 110.88,-64.05"/>
</g>
<!-- Node8 -->
<g id="node8" class="node">
<title>Node8</title>
<g id="a_node8"><a xlink:href="classAtcfLine.html#a0ab834110d8e43facd39af7df53c8c22" target="_top" xlink:title=" ">
<polygon fill="white" stroke="black" points="113.5,-0.5 113.5,-19.5 196.5,-19.5 196.5,-0.5 113.5,-0.5"/>
<text text-anchor="middle" x="155" y="-7.5" font-family="Helvetica,sans-Serif" font-size="10.00">AtcfLine::vmax</text>
</a>
</g>
</g>
<!-- Node1&#45;&gt;Node8 -->
<g id="edge7" class="edge">
<title>Node1&#45;&gt;Node8</title>
<path fill="none" stroke="midnightblue" d="M35.6,-95.32C45.39,-79.21 67.17,-46.91 94,-29 97.09,-26.94 100.42,-25.09 103.86,-23.43"/>
<polygon fill="midnightblue" stroke="midnightblue" points="105.35,-26.6 113.19,-19.48 102.62,-20.16 105.35,-26.6"/>
</g>
<!-- Node3 -->
<g id="node3" class="node">
<title>Node3</title>
<g id="a_node3"><a xlink:href="classCircularArray.html#ae9ee07d89dc4196acefc5b290b9275b8" target="_top" xlink:title=" ">
<polygon fill="white" stroke="black" points="252,-185 252,-215 350,-215 350,-185 252,-185"/>
<text text-anchor="start" x="260" y="-203" font-family="Helvetica,sans-Serif" font-size="10.00">CircularArray::mod</text>
<text text-anchor="middle" x="301" y="-192" font-family="Helvetica,sans-Serif" font-size="10.00">_floor</text>
</a>
</g>
</g>
<!-- Node2&#45;&gt;Node3 -->
<g id="edge2" class="edge">
<title>Node2&#45;&gt;Node3</title>
<path fill="none" stroke="midnightblue" d="M199.2,-200C212.54,-200 227.45,-200 241.63,-200"/>
<polygon fill="midnightblue" stroke="midnightblue" points="241.79,-203.5 251.79,-200 241.79,-196.5 241.79,-203.5"/>
</g>
</g>
</svg>
