<?xml version="1.0" encoding="UTF-8" standalone="no"?>
<!DOCTYPE svg PUBLIC "-//W3C//DTD SVG 1.1//EN"
 "http://www.w3.org/Graphics/SVG/1.1/DTD/svg11.dtd">
<!-- Generated by graphviz version 2.47.1 (20210417.1919)
 -->
<!-- Title: Gahm Pages: 1 -->
<!--zoomable 1830 -->
<svg id="main" version="1.1" xmlns="http://www.w3.org/2000/svg" xmlns:xlink="http://www.w3.org/1999/xlink" xml:space="preserve" onload="init(evt)">
<style type="text/css"><![CDATA[
.edge:hover path { stroke: red; }
.edge:hover polygon { stroke: red; fill: red; }
]]></style>
<script type="text/javascript"><![CDATA[
var edges = document.getElementsByTagName('g');
if (edges && edges.length) {
  for (var i=0;i<edges.length;i++) {
    if (edges[i].id.substr(0,4)=='edge') {
      edges[i].setAttribute('class','edge');
    }
  }
}
]]></script>
        <defs>
                <circle id="rim" cx="0" cy="0" r="7"/>
                <circle id="rim2" cx="0" cy="0" r="3.5"/>
                <g id="zoomPlus">
                        <use xlink:href="#rim" fill="#404040">
                                <set attributeName="fill" to="#808080" begin="zoomplus.mouseover" end="zoomplus.mouseout"/>
                        </use>
                        <path d="M-4,0h8M0,-4v8" fill="none" stroke="white" stroke-width="1.5" pointer-events="none"/>
                </g>
                <g id="zoomMin">
                        <use xlink:href="#rim" fill="#404040">
                                <set attributeName="fill" to="#808080" begin="zoomminus.mouseover" end="zoomminus.mouseout"/>
                        </use>
                        <path d="M-4,0h8" fill="none" stroke="white" stroke-width="1.5" pointer-events="none"/>
                </g>
                <g id="dirArrow">
                        <path fill="none" stroke="white" stroke-width="1.5" d="M0,-3.0v7 M-2.5,-0.5L0,-3.0L2.5,-0.5"/>
                </g>
               <g id="resetDef">
                       <use xlink:href="#rim2" fill="#404040">
                               <set attributeName="fill" to="#808080" begin="reset.mouseover" end="reset.mouseout"/>
                       </use>
               </g>
        </defs>

<script type="text/javascript">
var viewWidth = 730;
var viewHeight = 1830;
var sectionId = 'dynsection-0';
</script>
<script xlink:href="svgpan.js"/>
<svg id="graph" class="graph">
<g id="viewport">
<title>Gahm</title>
<polygon fill="white" stroke="transparent" points="-4,4 -4,-1826 725.5,-1826 725.5,4 -4,4"/>
<!-- Node1 -->
<g id="node1" class="node">
<title>Node1</title>
<g id="a_node1"><a xlink:title=" ">
<polygon fill="#bfbfbf" stroke="black" points="229,-0.5 229,-123.5 297,-123.5 297,-0.5 229,-0.5"/>
<text text-anchor="middle" x="263" y="-111.5" font-family="Helvetica,sans-Serif" font-size="10.00">Gahm</text>
<polyline fill="none" stroke="black" points="229,-104.5 297,-104.5 "/>
<text text-anchor="middle" x="263" y="-92.5" font-family="Helvetica,sans-Serif" font-size="10.00"> </text>
<polyline fill="none" stroke="black" points="229,-85.5 297,-85.5 "/>
<text text-anchor="start" x="237" y="-73.5" font-family="Helvetica,sans-Serif" font-size="10.00">+ Gahm()</text>
<text text-anchor="start" x="237" y="-62.5" font-family="Helvetica,sans-Serif" font-size="10.00">+ filename()</text>
<text text-anchor="start" x="237" y="-51.5" font-family="Helvetica,sans-Serif" font-size="10.00">+ get()</text>
<text text-anchor="start" x="237" y="-40.5" font-family="Helvetica,sans-Serif" font-size="10.00">+ read()</text>
<text text-anchor="start" x="237" y="-29.5" font-family="Helvetica,sans-Serif" font-size="10.00">&#45; getUvpr()</text>
<text text-anchor="start" x="237" y="-18.5" font-family="Helvetica,sans-Serif" font-size="10.00">&#45; getUvpr()</text>
<text text-anchor="start" x="237" y="-7.5" font-family="Helvetica,sans-Serif" font-size="10.00">&#45; getUvpr()</text>
</a>
</g>
</g>
<!-- Node2 -->
<g id="node2" class="node">
<title>Node2</title>
<g id="a_node2"><a xlink:href="classAtcf.html" target="_top" xlink:title="Class that handles operations on Atcf format files.">
<polygon fill="white" stroke="black" points="179.5,-171.5 179.5,-459.5 346.5,-459.5 346.5,-171.5 179.5,-171.5"/>
<text text-anchor="middle" x="263" y="-447.5" font-family="Helvetica,sans-Serif" font-size="10.00">Atcf</text>
<polyline fill="none" stroke="black" points="179.5,-440.5 346.5,-440.5 "/>
<text text-anchor="middle" x="263" y="-428.5" font-family="Helvetica,sans-Serif" font-size="10.00"> </text>
<polyline fill="none" stroke="black" points="179.5,-421.5 346.5,-421.5 "/>
<text text-anchor="start" x="187.5" y="-409.5" font-family="Helvetica,sans-Serif" font-size="10.00">+ Atcf()</text>
<text text-anchor="start" x="187.5" y="-398.5" font-family="Helvetica,sans-Serif" font-size="10.00">+ calculateRadii()</text>
<text text-anchor="start" x="187.5" y="-387.5" font-family="Helvetica,sans-Serif" font-size="10.00">+ crecord()</text>
<text text-anchor="start" x="187.5" y="-376.5" font-family="Helvetica,sans-Serif" font-size="10.00">+ filename()</text>
<text text-anchor="start" x="187.5" y="-365.5" font-family="Helvetica,sans-Serif" font-size="10.00">+ getStormParameters()</text>
<text text-anchor="start" x="187.5" y="-354.5" font-family="Helvetica,sans-Serif" font-size="10.00">+ nRecords()</text>
<text text-anchor="start" x="187.5" y="-343.5" font-family="Helvetica,sans-Serif" font-size="10.00">+ read()</text>
<text text-anchor="start" x="187.5" y="-332.5" font-family="Helvetica,sans-Serif" font-size="10.00">+ record()</text>
<text text-anchor="start" x="187.5" y="-321.5" font-family="Helvetica,sans-Serif" font-size="10.00">+ setFilename()</text>
<text text-anchor="start" x="187.5" y="-310.5" font-family="Helvetica,sans-Serif" font-size="10.00">&#45; calculateOverlandTranslation</text>
<text text-anchor="start" x="187.5" y="-299.5" font-family="Helvetica,sans-Serif" font-size="10.00">Velocity()</text>
<text text-anchor="start" x="187.5" y="-288.5" font-family="Helvetica,sans-Serif" font-size="10.00">&#45; generateMissingPressureData()</text>
<text text-anchor="start" x="187.5" y="-277.5" font-family="Helvetica,sans-Serif" font-size="10.00">&#45; getCycleNumber()</text>
<text text-anchor="start" x="187.5" y="-266.5" font-family="Helvetica,sans-Serif" font-size="10.00">&#45; setAllRadiiToRmax()</text>
<text text-anchor="start" x="187.5" y="-255.5" font-family="Helvetica,sans-Serif" font-size="10.00">&#45; setMissingRadiiToAverage</text>
<text text-anchor="start" x="187.5" y="-244.5" font-family="Helvetica,sans-Serif" font-size="10.00">OfAdjacentRadii()</text>
<text text-anchor="start" x="187.5" y="-233.5" font-family="Helvetica,sans-Serif" font-size="10.00">&#45; setMissingRadiiToHalfNonzero</text>
<text text-anchor="start" x="187.5" y="-222.5" font-family="Helvetica,sans-Serif" font-size="10.00">Radii()</text>
<text text-anchor="start" x="187.5" y="-211.5" font-family="Helvetica,sans-Serif" font-size="10.00">&#45; setMissingRadiiToHalfOfAverage</text>
<text text-anchor="start" x="187.5" y="-200.5" font-family="Helvetica,sans-Serif" font-size="10.00">SpecifiedRadii()</text>
<text text-anchor="start" x="187.5" y="-189.5" font-family="Helvetica,sans-Serif" font-size="10.00">&#45; linearInterp()</text>
<text text-anchor="start" x="187.5" y="-178.5" font-family="Helvetica,sans-Serif" font-size="10.00">&#45; uvTrans()</text>
</a>
</g>
</g>
<!-- Node2&#45;&gt;Node1 -->
<g id="edge1" class="edge">
<title>Node2&#45;&gt;Node1</title>
<path fill="none" stroke="#404040" d="M263,-171.48C263,-159.14 263,-147.02 263,-135.62"/>
<polygon fill="none" stroke="#404040" points="263,-135.55 259,-129.55 263,-123.55 267,-129.55 263,-135.55"/>
<text text-anchor="middle" x="281.5" y="-145" font-family="Helvetica,sans-Serif" font-size="10.00"> &#45;m_atcf</text>
</g>
<!-- Node3 -->
<g id="node3" class="node">
<title>Node3</title>
<g id="a_node3"><a xlink:href="classAssumptions.html" target="_top" xlink:title=" ">
<polygon fill="white" stroke="black" points="391,-507.5 391,-608.5 479,-608.5 479,-507.5 391,-507.5"/>
<text text-anchor="middle" x="435" y="-596.5" font-family="Helvetica,sans-Serif" font-size="10.00">Assumptions</text>
<polyline fill="none" stroke="black" points="391,-589.5 479,-589.5 "/>
<text text-anchor="middle" x="435" y="-577.5" font-family="Helvetica,sans-Serif" font-size="10.00"> </text>
<polyline fill="none" stroke="black" points="391,-570.5 479,-570.5 "/>
<text text-anchor="start" x="399" y="-558.5" font-family="Helvetica,sans-Serif" font-size="10.00">+ Assumptions()</text>
<text text-anchor="start" x="399" y="-547.5" font-family="Helvetica,sans-Serif" font-size="10.00">+ add()</text>
<text text-anchor="start" x="399" y="-536.5" font-family="Helvetica,sans-Serif" font-size="10.00">+ count()</text>
<text text-anchor="start" x="399" y="-525.5" font-family="Helvetica,sans-Serif" font-size="10.00">+ get()</text>
<text text-anchor="start" x="399" y="-514.5" font-family="Helvetica,sans-Serif" font-size="10.00">+ log()</text>
</a>
</g>
</g>
<!-- Node3&#45;&gt;Node1 -->
<g id="edge25" class="edge">
<title>Node3&#45;&gt;Node1</title>
<path fill="none" stroke="#404040" d="M432.9,-507.48C427.96,-431.41 411.4,-282.87 356,-171 343.49,-145.73 323.69,-121.56 305.57,-102.51"/>
<polygon fill="none" stroke="#404040" points="305.51,-102.45 298.45,-100.95 297.12,-93.87 304.17,-95.36 305.51,-102.45"/>
<text text-anchor="middle" x="466" y="-313" font-family="Helvetica,sans-Serif" font-size="10.00"> &#45;m_assumptions</text>
</g>
<!-- Node3&#45;&gt;Node2 -->
<g id="edge2" class="edge">
<title>Node3&#45;&gt;Node2</title>
<path fill="none" stroke="#404040" d="M390.64,-529.92C374.8,-518.7 357.74,-504.64 345,-489 340.12,-483.01 335.45,-476.68 330.99,-470.13"/>
<polygon fill="none" stroke="#404040" points="330.71,-469.71 324.09,-466.87 324.16,-459.66 330.79,-462.5 330.71,-469.71"/>
<text text-anchor="middle" x="383" y="-481" font-family="Helvetica,sans-Serif" font-size="10.00"> &#45;m_assumptions</text>
</g>
<!-- Node4 -->
<g id="node4" class="node">
<title>Node4</title>
<g id="a_node4"><a xlink:title=" ">
<polygon fill="white" stroke="#bfbfbf" points="608.5,-788.5 608.5,-845.5 721.5,-845.5 721.5,-788.5 608.5,-788.5"/>
<text text-anchor="middle" x="665" y="-833.5" font-family="Helvetica,sans-Serif" font-size="10.00">vector&lt; Assumption &gt;</text>
<polyline fill="none" stroke="#bfbfbf" points="608.5,-826.5 721.5,-826.5 "/>
<text text-anchor="middle" x="665" y="-814.5" font-family="Helvetica,sans-Serif" font-size="10.00"> </text>
<polyline fill="none" stroke="#bfbfbf" points="608.5,-807.5 721.5,-807.5 "/>
<text text-anchor="middle" x="665" y="-795.5" font-family="Helvetica,sans-Serif" font-size="10.00"> </text>
</a>
</g>
</g>
<!-- Node4&#45;&gt;Node3 -->
<g id="edge3" class="edge">
<title>Node4&#45;&gt;Node3</title>
<path fill="none" stroke="#404040" d="M661.53,-788.31C655.09,-747.93 637.72,-672.73 594,-627 566.44,-598.18 524.67,-580.96 490.86,-571.06"/>
<polygon fill="none" stroke="#404040" points="490.83,-571.05 483.98,-573.31 479.27,-567.86 486.11,-565.6 490.83,-571.05"/>
<text text-anchor="middle" x="639" y="-630" font-family="Helvetica,sans-Serif" font-size="10.00"> &#45;m_assumptions</text>
</g>
<!-- Node5 -->
<g id="node5" class="node">
<title>Node5</title>
<g id="a_node5"><a xlink:href="classAssumption.html" target="_top" xlink:title=" ">
<polygon fill="white" stroke="black" points="465,-1069.5 465,-1203.5 557,-1203.5 557,-1069.5 465,-1069.5"/>
<text text-anchor="middle" x="511" y="-1191.5" font-family="Helvetica,sans-Serif" font-size="10.00">Assumption</text>
<polyline fill="none" stroke="black" points="465,-1184.5 557,-1184.5 "/>
<text text-anchor="start" x="473" y="-1172.5" font-family="Helvetica,sans-Serif" font-size="10.00">&#45; m_line</text>
<text text-anchor="start" x="473" y="-1161.5" font-family="Helvetica,sans-Serif" font-size="10.00">&#45; m_severity</text>
<polyline fill="none" stroke="black" points="465,-1154.5 557,-1154.5 "/>
<text text-anchor="start" x="473" y="-1142.5" font-family="Helvetica,sans-Serif" font-size="10.00">+ Assumption()</text>
<text text-anchor="start" x="473" y="-1131.5" font-family="Helvetica,sans-Serif" font-size="10.00">+ filename()</text>
<text text-anchor="start" x="473" y="-1120.5" font-family="Helvetica,sans-Serif" font-size="10.00">+ line()</text>
<text text-anchor="start" x="473" y="-1109.5" font-family="Helvetica,sans-Serif" font-size="10.00">+ message()</text>
<text text-anchor="start" x="473" y="-1098.5" font-family="Helvetica,sans-Serif" font-size="10.00">+ severity()</text>
<text text-anchor="start" x="473" y="-1087.5" font-family="Helvetica,sans-Serif" font-size="10.00">+ toString()</text>
<text text-anchor="start" x="473" y="-1076.5" font-family="Helvetica,sans-Serif" font-size="10.00">+ severityString()</text>
</a>
</g>
</g>
<!-- Node5&#45;&gt;Node4 -->
<g id="edge4" class="edge">
<title>Node5&#45;&gt;Node4</title>
<path fill="none" stroke="#404040" d="M502.82,-1069.18C502.24,-1045.43 504.37,-1018.89 513,-996 534.71,-938.41 583.94,-886.65 620.53,-853.99"/>
<polygon fill="none" stroke="#404040" points="620.97,-853.6 622.85,-846.64 630,-845.7 628.12,-852.66 620.97,-853.6"/>
<text text-anchor="middle" x="537.5" y="-1004.5" font-family="Helvetica,sans-Serif" font-size="10.00"> +elements</text>
</g>
<!-- Node6 -->
<g id="node6" class="node">
<title>Node6</title>
<g id="a_node6"><a xlink:title=" ">
<polygon fill="white" stroke="#bfbfbf" points="74.5,-1372.5 74.5,-1429.5 115.5,-1429.5 115.5,-1372.5 74.5,-1372.5"/>
<text text-anchor="middle" x="95" y="-1417.5" font-family="Helvetica,sans-Serif" font-size="10.00">string</text>
<polyline fill="none" stroke="#bfbfbf" points="74.5,-1410.5 115.5,-1410.5 "/>
<text text-anchor="middle" x="95" y="-1398.5" font-family="Helvetica,sans-Serif" font-size="10.00"> </text>
<polyline fill="none" stroke="#bfbfbf" points="74.5,-1391.5 115.5,-1391.5 "/>
<text text-anchor="middle" x="95" y="-1379.5" font-family="Helvetica,sans-Serif" font-size="10.00"> </text>
</a>
</g>
</g>
<!-- Node6&#45;&gt;Node1 -->
<g id="edge26" class="edge">
<title>Node6&#45;&gt;Node1</title>
<path fill="none" stroke="#404040" d="M77.8,-1372.45C50.42,-1325.9 0,-1227.89 0,-1137.5 0,-1137.5 0,-1137.5 0,-314.5 0,-195.37 142.7,-115.28 217.87,-81.36"/>
<polygon fill="none" stroke="#404040" points="217.91,-81.34 221.78,-75.26 228.89,-76.5 225.01,-82.58 217.91,-81.34"/>
<text text-anchor="middle" x="28.5" y="-630" font-family="Helvetica,sans-Serif" font-size="10.00"> &#45;m_filename</text>
</g>
<!-- Node6&#45;&gt;Node2 -->
<g id="edge9" class="edge">
<title>Node6&#45;&gt;Node2</title>
<path fill="none" stroke="#404040" d="M90.99,-1372.48C84.4,-1324.76 72,-1223.51 72,-1137.5 72,-1137.5 72,-1137.5 72,-557 72,-487.62 121.34,-426.64 169.87,-383.44"/>
<polygon fill="none" stroke="#404040" points="170.16,-383.18 172.07,-376.23 179.22,-375.32 177.32,-382.27 170.16,-383.18"/>
<text text-anchor="middle" x="100.5" y="-814.5" font-family="Helvetica,sans-Serif" font-size="10.00"> &#45;m_filename</text>
</g>
<!-- Node6&#45;&gt;Node5 -->
<g id="edge5" class="edge">
<title>Node6&#45;&gt;Node5</title>
<path fill="none" stroke="#404040" d="M115.69,-1387.98C155.38,-1365.55 245.62,-1317.54 328,-1295 362.94,-1285.44 463.9,-1302.11 490,-1277 506.46,-1261.17 513.71,-1238.36 516.29,-1215.76"/>
<polygon fill="none" stroke="#404040" points="516.3,-1215.6 512.78,-1209.31 517.24,-1203.64 520.76,-1209.94 516.3,-1215.6"/>
<text text-anchor="middle" x="533.5" y="-1269" font-family="Helvetica,sans-Serif" font-size="10.00"> &#45;m_filename</text>
<text text-anchor="middle" x="533.5" y="-1258" font-family="Helvetica,sans-Serif" font-size="10.00">&#45;m_message</text>
</g>
<!-- Node11 -->
<g id="node11" class="node">
<title>Node11</title>
<g id="a_node11"><a xlink:href="classAtcfLine.html" target="_top" xlink:title=" ">
<polygon fill="white" stroke="black" points="228.5,-656.5 228.5,-977.5 359.5,-977.5 359.5,-656.5 228.5,-656.5"/>
<text text-anchor="middle" x="294" y="-965.5" font-family="Helvetica,sans-Serif" font-size="10.00">AtcfLine</text>
<polyline fill="none" stroke="black" points="228.5,-958.5 359.5,-958.5 "/>
<text text-anchor="start" x="236.5" y="-946.5" font-family="Helvetica,sans-Serif" font-size="10.00">&#45; m_cycloneNumber</text>
<text text-anchor="start" x="236.5" y="-935.5" font-family="Helvetica,sans-Serif" font-size="10.00">&#45; m_eyeDiameter</text>
<text text-anchor="start" x="236.5" y="-924.5" font-family="Helvetica,sans-Serif" font-size="10.00">&#45; m_gusts</text>
<text text-anchor="start" x="236.5" y="-913.5" font-family="Helvetica,sans-Serif" font-size="10.00">&#45; m_lat</text>
<text text-anchor="start" x="236.5" y="-902.5" font-family="Helvetica,sans-Serif" font-size="10.00">&#45; m_lon</text>
<text text-anchor="start" x="236.5" y="-891.5" font-family="Helvetica,sans-Serif" font-size="10.00">&#45; m_maxSeas</text>
<text text-anchor="start" x="236.5" y="-880.5" font-family="Helvetica,sans-Serif" font-size="10.00">&#45; m_mslp</text>
<text text-anchor="start" x="236.5" y="-869.5" font-family="Helvetica,sans-Serif" font-size="10.00">&#45; m_null</text>
<text text-anchor="start" x="236.5" y="-858.5" font-family="Helvetica,sans-Serif" font-size="10.00">&#45; m_pouter</text>
<text text-anchor="start" x="236.5" y="-847.5" font-family="Helvetica,sans-Serif" font-size="10.00">&#45; m_radiusMaxWinds</text>
<text text-anchor="start" x="236.5" y="-836.5" font-family="Helvetica,sans-Serif" font-size="10.00">and 10 more...</text>
<polyline fill="none" stroke="black" points="228.5,-829.5 359.5,-829.5 "/>
<text text-anchor="start" x="236.5" y="-817.5" font-family="Helvetica,sans-Serif" font-size="10.00">+ AtcfLine()</text>
<text text-anchor="start" x="236.5" y="-806.5" font-family="Helvetica,sans-Serif" font-size="10.00">+ addIsotach()</text>
<text text-anchor="start" x="236.5" y="-795.5" font-family="Helvetica,sans-Serif" font-size="10.00">+ basin()</text>
<text text-anchor="start" x="236.5" y="-784.5" font-family="Helvetica,sans-Serif" font-size="10.00">+ cisotach()</text>
<text text-anchor="start" x="236.5" y="-773.5" font-family="Helvetica,sans-Serif" font-size="10.00">+ cseas()</text>
<text text-anchor="start" x="236.5" y="-762.5" font-family="Helvetica,sans-Serif" font-size="10.00">+ cycloneNumber()</text>
<text text-anchor="start" x="236.5" y="-751.5" font-family="Helvetica,sans-Serif" font-size="10.00">+ datetime()</text>
<text text-anchor="start" x="236.5" y="-740.5" font-family="Helvetica,sans-Serif" font-size="10.00">+ eyeDiameter()</text>
<text text-anchor="start" x="236.5" y="-729.5" font-family="Helvetica,sans-Serif" font-size="10.00">+ gusts()</text>
<text text-anchor="start" x="236.5" y="-718.5" font-family="Helvetica,sans-Serif" font-size="10.00">+ initials()</text>
<text text-anchor="start" x="236.5" y="-707.5" font-family="Helvetica,sans-Serif" font-size="10.00">and 57 more...</text>
<text text-anchor="start" x="236.5" y="-696.5" font-family="Helvetica,sans-Serif" font-size="10.00">+ isSameForecastPeriod()</text>
<text text-anchor="start" x="236.5" y="-685.5" font-family="Helvetica,sans-Serif" font-size="10.00">+ parseAtcfLine()</text>
<text text-anchor="start" x="236.5" y="-674.5" font-family="Helvetica,sans-Serif" font-size="10.00">&#45; readValueCheckBlank()</text>
<text text-anchor="start" x="236.5" y="-663.5" font-family="Helvetica,sans-Serif" font-size="10.00">&#45; splitString()</text>
</a>
</g>
</g>
<!-- Node6&#45;&gt;Node11 -->
<g id="edge22" class="edge">
<title>Node6&#45;&gt;Node11</title>
<path fill="none" stroke="#404040" d="M92.33,-1372.34C87.36,-1309.91 81.04,-1154.26 127,-1036 147.71,-982.72 185.64,-931.54 220.13,-892.17"/>
<polygon fill="none" stroke="#404040" points="220.37,-891.89 221.37,-884.75 228.35,-882.93 227.35,-890.07 220.37,-891.89"/>
<text text-anchor="middle" x="185.5" y="-1161.5" font-family="Helvetica,sans-Serif" font-size="10.00"> &#45;m_basin</text>
<text text-anchor="middle" x="185.5" y="-1150.5" font-family="Helvetica,sans-Serif" font-size="10.00">&#45;m_initials</text>
<text text-anchor="middle" x="185.5" y="-1139.5" font-family="Helvetica,sans-Serif" font-size="10.00">&#45;m_maxDevelopmentLevel</text>
<text text-anchor="middle" x="185.5" y="-1128.5" font-family="Helvetica,sans-Serif" font-size="10.00">&#45;m_stormName</text>
<text text-anchor="middle" x="185.5" y="-1117.5" font-family="Helvetica,sans-Serif" font-size="10.00">&#45;m_systemDepth</text>
<text text-anchor="middle" x="185.5" y="-1106.5" font-family="Helvetica,sans-Serif" font-size="10.00">&#45;m_techstring</text>
</g>
<!-- Node7 -->
<g id="node7" class="node">
<title>Node7</title>
<g id="a_node7"><a xlink:title=" ">
<polygon fill="white" stroke="#bfbfbf" points="41,-1554.5 41,-1611.5 149,-1611.5 149,-1554.5 41,-1554.5"/>
<text text-anchor="middle" x="95" y="-1599.5" font-family="Helvetica,sans-Serif" font-size="10.00">basic_string&lt; Char &gt;</text>
<polyline fill="none" stroke="#bfbfbf" points="41,-1592.5 149,-1592.5 "/>
<text text-anchor="middle" x="95" y="-1580.5" font-family="Helvetica,sans-Serif" font-size="10.00"> </text>
<polyline fill="none" stroke="#bfbfbf" points="41,-1573.5 149,-1573.5 "/>
<text text-anchor="middle" x="95" y="-1561.5" font-family="Helvetica,sans-Serif" font-size="10.00"> </text>
</a>
</g>
</g>
<!-- Node7&#45;&gt;Node6 -->
<g id="edge6" class="edge">
<title>Node7&#45;&gt;Node6</title>
<path fill="none" stroke="midnightblue" d="M95,-1544.19C95,-1509.99 95,-1460.43 95,-1429.76"/>
<polygon fill="none" stroke="midnightblue" points="91.5,-1544.27 95,-1554.27 98.5,-1544.27 91.5,-1544.27"/>
</g>
<!-- Node8 -->
<g id="node8" class="node">
<title>Node8</title>
<g id="a_node8"><a xlink:title=" ">
<polygon fill="white" stroke="#bfbfbf" points="548,-1372.5 548,-1429.5 616,-1429.5 616,-1372.5 548,-1372.5"/>
<text text-anchor="middle" x="582" y="-1417.5" font-family="Helvetica,sans-Serif" font-size="10.00">vector&lt; T &gt;</text>
<polyline fill="none" stroke="#bfbfbf" points="548,-1410.5 616,-1410.5 "/>
<text text-anchor="middle" x="582" y="-1398.5" font-family="Helvetica,sans-Serif" font-size="10.00"> </text>
<polyline fill="none" stroke="#bfbfbf" points="548,-1391.5 616,-1391.5 "/>
<text text-anchor="middle" x="582" y="-1379.5" font-family="Helvetica,sans-Serif" font-size="10.00"> </text>
</a>
</g>
</g>
<!-- Node8&#45;&gt;Node4 -->
<g id="edge7" class="edge">
<title>Node8&#45;&gt;Node4</title>
<path fill="none" stroke="orange" d="M589.02,-1362.42C601.59,-1294.07 628.23,-1144.76 645,-1018 653.13,-956.6 659.6,-884.19 662.8,-845.56"/>
<polygon fill="orange" stroke="orange" points="585.57,-1361.82 587.19,-1372.29 592.45,-1363.09 585.57,-1361.82"/>
<text text-anchor="middle" x="677.5" y="-1134" font-family="Helvetica,sans-Serif" font-size="10.00"> &lt; Assumption &gt;</text>
</g>
<!-- Node10 -->
<g id="node10" class="node">
<title>Node10</title>
<g id="a_node10"><a xlink:title=" ">
<polygon fill="white" stroke="#bfbfbf" points="245.5,-529.5 245.5,-586.5 342.5,-586.5 342.5,-529.5 245.5,-529.5"/>
<text text-anchor="middle" x="294" y="-574.5" font-family="Helvetica,sans-Serif" font-size="10.00">vector&lt; AtcfLine &gt;</text>
<polyline fill="none" stroke="#bfbfbf" points="245.5,-567.5 342.5,-567.5 "/>
<text text-anchor="middle" x="294" y="-555.5" font-family="Helvetica,sans-Serif" font-size="10.00"> </text>
<polyline fill="none" stroke="#bfbfbf" points="245.5,-548.5 342.5,-548.5 "/>
<text text-anchor="middle" x="294" y="-536.5" font-family="Helvetica,sans-Serif" font-size="10.00"> </text>
</a>
</g>
</g>
<!-- Node8&#45;&gt;Node10 -->
<g id="edge24" class="edge">
<title>Node8&#45;&gt;Node10</title>
<path fill="none" stroke="orange" d="M586.43,-1362.12C593.59,-1289.21 603.09,-1125.16 562,-996 507.64,-825.11 372.82,-652.5 317.88,-586.75"/>
<polygon fill="orange" stroke="orange" points="582.93,-1361.89 585.39,-1372.2 589.89,-1362.61 582.93,-1361.89"/>
<text text-anchor="middle" x="595.5" y="-1004.5" font-family="Helvetica,sans-Serif" font-size="10.00"> &lt; AtcfLine &gt;</text>
</g>
<!-- Node12 -->
<g id="node12" class="node">
<title>Node12</title>
<g id="a_node12"><a xlink:title=" ">
<polygon fill="white" stroke="#bfbfbf" points="353,-1108 353,-1165 447,-1165 447,-1108 353,-1108"/>
<text text-anchor="middle" x="400" y="-1153" font-family="Helvetica,sans-Serif" font-size="10.00">vector&lt; Isotach &gt;</text>
<polyline fill="none" stroke="#bfbfbf" points="353,-1146 447,-1146 "/>
<text text-anchor="middle" x="400" y="-1134" font-family="Helvetica,sans-Serif" font-size="10.00"> </text>
<polyline fill="none" stroke="#bfbfbf" points="353,-1127 447,-1127 "/>
<text text-anchor="middle" x="400" y="-1115" font-family="Helvetica,sans-Serif" font-size="10.00"> </text>
</a>
</g>
</g>
<!-- Node8&#45;&gt;Node12 -->
<g id="edge21" class="edge">
<title>Node8&#45;&gt;Node12</title>
<path fill="none" stroke="orange" d="M539.16,-1374.46C506.16,-1352.61 461.92,-1318.2 436,-1277 414.15,-1242.28 405.52,-1194.79 402.14,-1165.15"/>
<polygon fill="orange" stroke="orange" points="537.43,-1377.51 547.72,-1380.02 541.24,-1371.64 537.43,-1377.51"/>
<text text-anchor="middle" x="463" y="-1263.5" font-family="Helvetica,sans-Serif" font-size="10.00"> &lt; Isotach &gt;</text>
</g>
<!-- Node9 -->
<g id="node9" class="node">
<title>Node9</title>
<g id="a_node9"><a xlink:title=" ">
<polygon fill="white" stroke="#bfbfbf" points="503.5,-1764.5 503.5,-1821.5 532.5,-1821.5 532.5,-1764.5 503.5,-1764.5"/>
<text text-anchor="middle" x="518" y="-1809.5" font-family="Helvetica,sans-Serif" font-size="10.00">T</text>
<polyline fill="none" stroke="#bfbfbf" points="503.5,-1802.5 532.5,-1802.5 "/>
<text text-anchor="middle" x="518" y="-1790.5" font-family="Helvetica,sans-Serif" font-size="10.00"> </text>
<polyline fill="none" stroke="#bfbfbf" points="503.5,-1783.5 532.5,-1783.5 "/>
<text text-anchor="middle" x="518" y="-1771.5" font-family="Helvetica,sans-Serif" font-size="10.00"> </text>
</a>
</g>
</g>
<!-- Node9&#45;&gt;Node8 -->
<g id="edge8" class="edge">
<title>Node9&#45;&gt;Node8</title>
<path fill="none" stroke="#404040" d="M532.6,-1770.38C536.96,-1762.94 541.29,-1754.38 544,-1746 578.26,-1639.86 582.82,-1506.78 582.73,-1441.63"/>
<polygon fill="none" stroke="#404040" points="582.73,-1441.54 578.7,-1435.56 582.66,-1429.54 586.7,-1435.51 582.73,-1441.54"/>
<text text-anchor="middle" x="593.5" y="-1633" font-family="Helvetica,sans-Serif" font-size="10.00"> +elements</text>
</g>
<!-- Node15 -->
<g id="node15" class="node">
<title>Node15</title>
<g id="a_node15"><a xlink:title=" ">
<polygon fill="white" stroke="#bfbfbf" points="431,-1659.5 431,-1716.5 493,-1716.5 493,-1659.5 431,-1659.5"/>
<text text-anchor="middle" x="462" y="-1704.5" font-family="Helvetica,sans-Serif" font-size="10.00">array&lt; T &gt;</text>
<polyline fill="none" stroke="#bfbfbf" points="431,-1697.5 493,-1697.5 "/>
<text text-anchor="middle" x="462" y="-1685.5" font-family="Helvetica,sans-Serif" font-size="10.00"> </text>
<polyline fill="none" stroke="#bfbfbf" points="431,-1678.5 493,-1678.5 "/>
<text text-anchor="middle" x="462" y="-1666.5" font-family="Helvetica,sans-Serif" font-size="10.00"> </text>
</a>
</g>
</g>
<!-- Node9&#45;&gt;Node15 -->
<g id="edge16" class="edge">
<title>Node9&#45;&gt;Node15</title>
<path fill="none" stroke="#404040" d="M503.43,-1765.21C497.17,-1753.68 489.72,-1739.99 482.89,-1727.42"/>
<polygon fill="none" stroke="#404040" points="482.81,-1727.28 476.43,-1723.92 477.08,-1716.74 483.46,-1720.1 482.81,-1727.28"/>
<text text-anchor="middle" x="515.5" y="-1738" font-family="Helvetica,sans-Serif" font-size="10.00"> +elements</text>
</g>
<!-- Node10&#45;&gt;Node2 -->
<g id="edge10" class="edge">
<title>Node10&#45;&gt;Node2</title>
<path fill="none" stroke="#404040" d="M278.75,-529.42C272.92,-517.39 266.97,-502.88 264,-489 262.79,-483.35 261.76,-477.57 260.88,-471.71"/>
<polygon fill="none" stroke="#404040" points="260.86,-471.5 256.11,-466.07 259.3,-459.6 264.05,-465.03 260.86,-471.5"/>
<text text-anchor="middle" x="293" y="-481" font-family="Helvetica,sans-Serif" font-size="10.00"> &#45;m_atcfData</text>
</g>
<!-- Node11&#45;&gt;Node10 -->
<g id="edge11" class="edge">
<title>Node11&#45;&gt;Node10</title>
<path fill="none" stroke="#404040" d="M294,-656.16C294,-635.06 294,-615.16 294,-598.93"/>
<polygon fill="none" stroke="#404040" points="294,-598.74 290,-592.74 294,-586.74 298,-592.74 294,-598.74"/>
<text text-anchor="middle" x="318.5" y="-630" font-family="Helvetica,sans-Serif" font-size="10.00"> +elements</text>
</g>
<!-- Node12&#45;&gt;Node11 -->
<g id="edge12" class="edge">
<title>Node12&#45;&gt;Node11</title>
<path fill="none" stroke="#404040" d="M394.51,-1107.91C388.58,-1079.53 378.31,-1034.2 366,-996 365.17,-993.42 364.32,-990.83 363.45,-988.22"/>
<polygon fill="none" stroke="#404040" points="363.41,-988.09 357.69,-983.7 359.54,-976.73 365.26,-981.12 363.41,-988.09"/>
<text text-anchor="middle" x="397" y="-1010" font-family="Helvetica,sans-Serif" font-size="10.00"> &#45;m_isotach</text>
<text text-anchor="middle" x="397" y="-999" font-family="Helvetica,sans-Serif" font-size="10.00">&#45;m_seas</text>
</g>
<!-- Node13 -->
<g id="node13" class="node">
<title>Node13</title>
<g id="a_node13"><a xlink:href="classIsotach.html" target="_top" xlink:title=" ">
<polygon fill="white" stroke="black" points="336.5,-1295.5 336.5,-1506.5 437.5,-1506.5 437.5,-1295.5 336.5,-1295.5"/>
<text text-anchor="middle" x="387" y="-1494.5" font-family="Helvetica,sans-Serif" font-size="10.00">Isotach</text>
<polyline fill="none" stroke="black" points="336.5,-1487.5 437.5,-1487.5 "/>
<text text-anchor="start" x="344.5" y="-1475.5" font-family="Helvetica,sans-Serif" font-size="10.00">&#45; m_radiusCode</text>
<text text-anchor="start" x="344.5" y="-1464.5" font-family="Helvetica,sans-Serif" font-size="10.00">&#45; m_windSpeed</text>
<polyline fill="none" stroke="black" points="336.5,-1457.5 437.5,-1457.5 "/>
<text text-anchor="start" x="344.5" y="-1445.5" font-family="Helvetica,sans-Serif" font-size="10.00">+ Isotach()</text>
<text text-anchor="start" x="344.5" y="-1434.5" font-family="Helvetica,sans-Serif" font-size="10.00">+ Isotach()</text>
<text text-anchor="start" x="344.5" y="-1423.5" font-family="Helvetica,sans-Serif" font-size="10.00">+ code()</text>
<text text-anchor="start" x="344.5" y="-1412.5" font-family="Helvetica,sans-Serif" font-size="10.00">+ lookupRadii()</text>
<text text-anchor="start" x="344.5" y="-1401.5" font-family="Helvetica,sans-Serif" font-size="10.00">+ quadflag()</text>
<text text-anchor="start" x="344.5" y="-1390.5" font-family="Helvetica,sans-Serif" font-size="10.00">+ radii()</text>
<text text-anchor="start" x="344.5" y="-1379.5" font-family="Helvetica,sans-Serif" font-size="10.00">+ radiusCode()</text>
<text text-anchor="start" x="344.5" y="-1368.5" font-family="Helvetica,sans-Serif" font-size="10.00">+ radiusQ1()</text>
<text text-anchor="start" x="344.5" y="-1357.5" font-family="Helvetica,sans-Serif" font-size="10.00">+ radiusQ2()</text>
<text text-anchor="start" x="344.5" y="-1346.5" font-family="Helvetica,sans-Serif" font-size="10.00">+ radiusQ3()</text>
<text text-anchor="start" x="344.5" y="-1335.5" font-family="Helvetica,sans-Serif" font-size="10.00">and 14 more...</text>
<text text-anchor="start" x="344.5" y="-1324.5" font-family="Helvetica,sans-Serif" font-size="10.00">+ codeFromString()</text>
<text text-anchor="start" x="344.5" y="-1313.5" font-family="Helvetica,sans-Serif" font-size="10.00">+ isNull()</text>
<text text-anchor="start" x="344.5" y="-1302.5" font-family="Helvetica,sans-Serif" font-size="10.00">+ stringFromCode()</text>
</a>
</g>
</g>
<!-- Node13&#45;&gt;Node12 -->
<g id="edge13" class="edge">
<title>Node13&#45;&gt;Node12</title>
<path fill="none" stroke="#404040" d="M362.72,-1295.49C361.82,-1281.87 362.04,-1268.11 364,-1255 367.99,-1228.35 376.81,-1199.4 384.71,-1176.9"/>
<polygon fill="none" stroke="#404040" points="384.78,-1176.73 383.06,-1169.73 388.86,-1165.44 390.58,-1172.45 384.78,-1176.73"/>
<text text-anchor="middle" x="388.5" y="-1263.5" font-family="Helvetica,sans-Serif" font-size="10.00"> +elements</text>
</g>
<!-- Node14 -->
<g id="node14" class="node">
<title>Node14</title>
<g id="a_node14"><a xlink:title=" ">
<polygon fill="white" stroke="#bfbfbf" points="357,-1554.5 357,-1611.5 453,-1611.5 453,-1554.5 357,-1554.5"/>
<text text-anchor="middle" x="405" y="-1599.5" font-family="Helvetica,sans-Serif" font-size="10.00">array&lt; double, 6 &gt;</text>
<polyline fill="none" stroke="#bfbfbf" points="357,-1592.5 453,-1592.5 "/>
<text text-anchor="start" x="365" y="-1580.5" font-family="Helvetica,sans-Serif" font-size="10.00">+ elements</text>
<polyline fill="none" stroke="#bfbfbf" points="357,-1573.5 453,-1573.5 "/>
<text text-anchor="middle" x="405" y="-1561.5" font-family="Helvetica,sans-Serif" font-size="10.00"> </text>
</a>
</g>
</g>
<!-- Node14&#45;&gt;Node13 -->
<g id="edge14" class="edge">
<title>Node14&#45;&gt;Node13</title>
<path fill="none" stroke="#404040" d="M402.23,-1554.27C401.22,-1544.15 400,-1531.98 398.7,-1518.97"/>
<polygon fill="none" stroke="#404040" points="398.68,-1518.77 394.1,-1513.2 397.48,-1506.83 402.06,-1512.4 398.68,-1518.77"/>
<text text-anchor="middle" x="436" y="-1528" font-family="Helvetica,sans-Serif" font-size="10.00"> &#45;m_lookup_radii</text>
</g>
<!-- Node15&#45;&gt;Node14 -->
<g id="edge15" class="edge">
<title>Node15&#45;&gt;Node14</title>
<path fill="none" stroke="orange" d="M425.59,-1651.32C423.15,-1647.98 420.91,-1644.52 419,-1641 414.15,-1632.04 410.95,-1621.38 408.86,-1611.72"/>
<polygon fill="orange" stroke="orange" points="423.02,-1653.71 432,-1659.34 428.49,-1649.34 423.02,-1653.71"/>
<text text-anchor="middle" x="449.5" y="-1633" font-family="Helvetica,sans-Serif" font-size="10.00"> &lt; double, 6 &gt;</text>
</g>
<!-- Node16 -->
<g id="node16" class="node">
<title>Node16</title>
<g id="a_node16"><a xlink:title=" ">
<polygon fill="white" stroke="#bfbfbf" points="471,-1554.5 471,-1611.5 549,-1611.5 549,-1554.5 471,-1554.5"/>
<text text-anchor="middle" x="510" y="-1599.5" font-family="Helvetica,sans-Serif" font-size="10.00">array&lt; int, 4 &gt;</text>
<polyline fill="none" stroke="#bfbfbf" points="471,-1592.5 549,-1592.5 "/>
<text text-anchor="start" x="479" y="-1580.5" font-family="Helvetica,sans-Serif" font-size="10.00">+ elements</text>
<polyline fill="none" stroke="#bfbfbf" points="471,-1573.5 549,-1573.5 "/>
<text text-anchor="middle" x="510" y="-1561.5" font-family="Helvetica,sans-Serif" font-size="10.00"> </text>
</a>
</g>
</g>
<!-- Node15&#45;&gt;Node16 -->
<g id="edge18" class="edge">
<title>Node15&#45;&gt;Node16</title>
<path fill="none" stroke="orange" d="M479.23,-1650.03C485.12,-1637.38 491.61,-1623.46 497.1,-1611.68"/>
<polygon fill="orange" stroke="orange" points="475.91,-1648.86 474.86,-1659.4 482.26,-1651.81 475.91,-1648.86"/>
<text text-anchor="middle" x="508.5" y="-1633" font-family="Helvetica,sans-Serif" font-size="10.00"> &lt; int, 4 &gt;</text>
</g>
<!-- Node17 -->
<g id="node17" class="node">
<title>Node17</title>
<g id="a_node17"><a xlink:title=" ">
<polygon fill="white" stroke="#bfbfbf" points="243,-1554.5 243,-1611.5 339,-1611.5 339,-1554.5 243,-1554.5"/>
<text text-anchor="middle" x="291" y="-1599.5" font-family="Helvetica,sans-Serif" font-size="10.00">array&lt; double, 4 &gt;</text>
<polyline fill="none" stroke="#bfbfbf" points="243,-1592.5 339,-1592.5 "/>
<text text-anchor="start" x="251" y="-1580.5" font-family="Helvetica,sans-Serif" font-size="10.00">+ elements</text>
<polyline fill="none" stroke="#bfbfbf" points="243,-1573.5 339,-1573.5 "/>
<text text-anchor="middle" x="291" y="-1561.5" font-family="Helvetica,sans-Serif" font-size="10.00"> </text>
</a>
</g>
</g>
<!-- Node15&#45;&gt;Node17 -->
<g id="edge20" class="edge">
<title>Node15&#45;&gt;Node17</title>
<path fill="none" stroke="orange" d="M421.13,-1674.7C398.77,-1666.93 371.2,-1655.6 349,-1641 336.61,-1632.86 324.63,-1621.8 314.8,-1611.6"/>
<polygon fill="orange" stroke="orange" points="420.08,-1678.04 430.67,-1677.91 422.31,-1671.41 420.08,-1678.04"/>
<text text-anchor="middle" x="379.5" y="-1633" font-family="Helvetica,sans-Serif" font-size="10.00"> &lt; double, 4 &gt;</text>
</g>
<!-- Node16&#45;&gt;Node13 -->
<g id="edge17" class="edge">
<title>Node16&#45;&gt;Node13</title>
<path fill="none" stroke="#404040" d="M494.23,-1554.44C488.65,-1545 482.21,-1534.43 476,-1525 466.23,-1510.15 455.43,-1494.59 444.82,-1479.72"/>
<polygon fill="none" stroke="#404040" points="444.52,-1479.31 437.77,-1476.77 437.52,-1469.56 444.27,-1472.1 444.52,-1479.31"/>
<text text-anchor="middle" x="510.5" y="-1528" font-family="Helvetica,sans-Serif" font-size="10.00"> &#45;m_quadflag</text>
</g>
<!-- Node17&#45;&gt;Node13 -->
<g id="edge19" class="edge">
<title>Node17&#45;&gt;Node13</title>
<path fill="none" stroke="#404040" d="M305.79,-1554.27C312.71,-1541.28 321.45,-1524.91 330.6,-1507.74"/>
<polygon fill="none" stroke="#404040" points="330.7,-1507.56 329.99,-1500.39 336.35,-1496.98 337.05,-1504.15 330.7,-1507.56"/>
<text text-anchor="middle" x="342" y="-1528" font-family="Helvetica,sans-Serif" font-size="10.00"> &#45;m_radius</text>
</g>
<!-- Node18 -->
<g id="node18" class="node">
<title>Node18</title>
<g id="a_node18"><a xlink:href="classDate.html" target="_top" xlink:title=" ">
<polygon fill="white" stroke="black" points="253,-1036.5 253,-1236.5 335,-1236.5 335,-1036.5 253,-1036.5"/>
<text text-anchor="middle" x="294" y="-1224.5" font-family="Helvetica,sans-Serif" font-size="10.00">Date</text>
<polyline fill="none" stroke="black" points="253,-1217.5 335,-1217.5 "/>
<text text-anchor="start" x="261" y="-1205.5" font-family="Helvetica,sans-Serif" font-size="10.00">&#45; m_datetime</text>
<polyline fill="none" stroke="black" points="253,-1198.5 335,-1198.5 "/>
<text text-anchor="start" x="261" y="-1186.5" font-family="Helvetica,sans-Serif" font-size="10.00">+ Date()</text>
<text text-anchor="start" x="261" y="-1175.5" font-family="Helvetica,sans-Serif" font-size="10.00">+ Date()</text>
<text text-anchor="start" x="261" y="-1164.5" font-family="Helvetica,sans-Serif" font-size="10.00">+ Date()</text>
<text text-anchor="start" x="261" y="-1153.5" font-family="Helvetica,sans-Serif" font-size="10.00">+ Date()</text>
<text text-anchor="start" x="261" y="-1142.5" font-family="Helvetica,sans-Serif" font-size="10.00">+ Date()</text>
<text text-anchor="start" x="261" y="-1131.5" font-family="Helvetica,sans-Serif" font-size="10.00">+ Date()</text>
<text text-anchor="start" x="261" y="-1120.5" font-family="Helvetica,sans-Serif" font-size="10.00">+ addDays()</text>
<text text-anchor="start" x="261" y="-1109.5" font-family="Helvetica,sans-Serif" font-size="10.00">+ addHours()</text>
<text text-anchor="start" x="261" y="-1098.5" font-family="Helvetica,sans-Serif" font-size="10.00">+ addMinutes()</text>
<text text-anchor="start" x="261" y="-1087.5" font-family="Helvetica,sans-Serif" font-size="10.00">+ addMonths()</text>
<text text-anchor="start" x="261" y="-1076.5" font-family="Helvetica,sans-Serif" font-size="10.00">and 44 more...</text>
<text text-anchor="start" x="261" y="-1065.5" font-family="Helvetica,sans-Serif" font-size="10.00">+ maxDate()</text>
<text text-anchor="start" x="261" y="-1054.5" font-family="Helvetica,sans-Serif" font-size="10.00">+ minDate()</text>
<text text-anchor="start" x="261" y="-1043.5" font-family="Helvetica,sans-Serif" font-size="10.00">+ now()</text>
</a>
</g>
</g>
<!-- Node18&#45;&gt;Node11 -->
<g id="edge23" class="edge">
<title>Node18&#45;&gt;Node11</title>
<path fill="none" stroke="#404040" d="M294,-1036.35C294,-1021.41 294,-1005.66 294,-989.72"/>
<polygon fill="none" stroke="#404040" points="294,-989.52 290,-983.52 294,-977.52 298,-983.52 294,-989.52"/>
<text text-anchor="middle" x="328" y="-1010" font-family="Helvetica,sans-Serif" font-size="10.00"> &#45;m_datetime</text>
<text text-anchor="middle" x="328" y="-999" font-family="Helvetica,sans-Serif" font-size="10.00">&#45;m_refDatetime</text>
</g>
</g>
</svg>
        <g id="navigator" transform="translate(0 0)" fill="#404254">
                <rect fill="#f2f5e9" fill-opacity="0.5" stroke="#606060" stroke-width=".5" x="0" y="0" width="60" height="60"/>
                <use id="zoomplus" xlink:href="#zoomPlus" x="17" y="9" onmousedown="handleZoom(evt,'in')"/>
                <use id="zoomminus" xlink:href="#zoomMin" x="42" y="9" onmousedown="handleZoom(evt,'out')"/>
                <use id="reset" xlink:href="#resetDef" x="30" y="36" onmousedown="handleReset()"/>
                <g id="arrowUp" xlink:href="#dirArrow" transform="translate(30 24)" onmousedown="handlePan(0,-1)">
                  <use xlink:href="#rim" fill="#404040">
                        <set attributeName="fill" to="#808080" begin="arrowUp.mouseover" end="arrowUp.mouseout"/>
                  </use>
                  <path fill="none" stroke="white" stroke-width="1.5" d="M0,-3.0v7 M-2.5,-0.5L0,-3.0L2.5,-0.5"/>
                </g>
                <g id="arrowRight" xlink:href="#dirArrow" transform="rotate(90) translate(36 -43)" onmousedown="handlePan(1,0)">
                  <use xlink:href="#rim" fill="#404040">
                        <set attributeName="fill" to="#808080" begin="arrowRight.mouseover" end="arrowRight.mouseout"/>
                  </use>
                  <path fill="none" stroke="white" stroke-width="1.5" d="M0,-3.0v7 M-2.5,-0.5L0,-3.0L2.5,-0.5"/>
                </g>
                <g id="arrowDown" xlink:href="#dirArrow" transform="rotate(180) translate(-30 -48)" onmousedown="handlePan(0,1)">
                  <use xlink:href="#rim" fill="#404040">
                        <set attributeName="fill" to="#808080" begin="arrowDown.mouseover" end="arrowDown.mouseout"/>
                  </use>
                  <path fill="none" stroke="white" stroke-width="1.5" d="M0,-3.0v7 M-2.5,-0.5L0,-3.0L2.5,-0.5"/>
                </g>
                <g id="arrowLeft" xlink:href="#dirArrow" transform="rotate(270) translate(-36 17)" onmousedown="handlePan(-1,0)">
                  <use xlink:href="#rim" fill="#404040">
                        <set attributeName="fill" to="#808080" begin="arrowLeft.mouseover" end="arrowLeft.mouseout"/>
                  </use>
                  <path fill="none" stroke="white" stroke-width="1.5" d="M0,-3.0v7 M-2.5,-0.5L0,-3.0L2.5,-0.5"/>
                </g>
        </g>
        <svg viewBox="0 0 15 15" width="100%" height="30px" preserveAspectRatio="xMaxYMin meet">
         <g id="arrow_out" transform="scale(0.3 0.3)">
          <a xlink:href="classGahm__coll__graph_org.svg" target="_base">
           <rect id="button" ry="5" rx="5" y="6" x="6" height="38" width="38"
                fill="#f2f5e9" fill-opacity="0.5" stroke="#606060" stroke-width="1.0"/>
           <path id="arrow"
             d="M 11.500037,31.436501 C 11.940474,20.09759 22.043105,11.32322 32.158766,21.979434 L 37.068811,17.246167 C 37.068811,17.246167 37.088388,32 37.088388,32 L 22.160133,31.978069 C 22.160133,31.978069 26.997745,27.140456 26.997745,27.140456 C 18.528582,18.264221 13.291696,25.230495 11.500037,31.436501 z"
             style="fill:#404040;"/>
          </a>
         </g>
        </svg>
</svg>
