<?xml version="1.0" encoding="UTF-8" standalone="no"?>
<!DOCTYPE svg PUBLIC "-//W3C//DTD SVG 1.1//EN"
 "http://www.w3.org/Graphics/SVG/1.1/DTD/svg11.dtd">
<!-- Generated by graphviz version 2.47.1 (20210417.1919)
 -->
<!-- Title: size Pages: 1 -->
<svg width="469pt" height="176pt"
 viewBox="0.00 0.00 469.00 175.50" xmlns="http://www.w3.org/2000/svg" xmlns:xlink="http://www.w3.org/1999/xlink">
<g id="graph0" class="graph" transform="scale(1 1) rotate(0) translate(4 171.5)">
<title>size</title>
<polygon fill="white" stroke="transparent" points="-4,4 -4,-171.5 465,-171.5 465,4 -4,4"/>
<!-- Node1 -->
<g id="node1" class="node">
<title>Node1</title>
<g id="a_node1"><a xlink:title=" ">
<polygon fill="#bfbfbf" stroke="black" points="426,-79 426,-98 461,-98 461,-79 426,-79"/>
<text text-anchor="middle" x="443.5" y="-86" font-family="Helvetica,sans-Serif" font-size="10.00">size</text>
</a>
</g>
</g>
<!-- Node2 -->
<g id="node2" class="node">
<title>Node2</title>
<g id="a_node2"><a xlink:href="classIsotach.html#a4ae76972e9b895592c48a9063a34196e" target="_top" xlink:title=" ">
<polygon fill="white" stroke="black" points="244.5,-148 244.5,-167 378.5,-167 378.5,-148 244.5,-148"/>
<text text-anchor="middle" x="311.5" y="-155" font-family="Helvetica,sans-Serif" font-size="10.00">Isotach::generateQuadFlag</text>
</a>
</g>
</g>
<!-- Node1&#45;&gt;Node2 -->
<g id="edge1" class="edge">
<title>Node1&#45;&gt;Node2</title>
<path fill="none" stroke="midnightblue" d="M428.49,-105.87C418.79,-116.79 404.96,-130.31 390,-138.5 382.95,-142.36 375.12,-145.44 367.22,-147.91"/>
<polygon fill="midnightblue" stroke="midnightblue" points="431.24,-108.04 435.06,-98.16 425.91,-103.5 431.24,-108.04"/>
</g>
<!-- Node3 -->
<g id="node3" class="node">
<title>Node3</title>
<g id="a_node3"><a xlink:href="classAtcf.html#ab2c3d48d4cd01aa2aef9e02f2a199bb1" target="_top" xlink:title=" ">
<polygon fill="white" stroke="black" points="233,-98.5 233,-128.5 390,-128.5 390,-98.5 233,-98.5"/>
<text text-anchor="start" x="241" y="-116.5" font-family="Helvetica,sans-Serif" font-size="10.00">Atcf::setMissingRadiiToAverage</text>
<text text-anchor="middle" x="311.5" y="-105.5" font-family="Helvetica,sans-Serif" font-size="10.00">OfAdjacentRadii</text>
</a>
</g>
</g>
<!-- Node1&#45;&gt;Node3 -->
<g id="edge2" class="edge">
<title>Node1&#45;&gt;Node3</title>
<path fill="none" stroke="midnightblue" d="M415.71,-93.65C408.02,-95.13 399.22,-96.82 390.08,-98.58"/>
<polygon fill="midnightblue" stroke="midnightblue" points="416.61,-97.04 425.77,-91.72 415.29,-90.17 416.61,-97.04"/>
</g>
<!-- Node6 -->
<g id="node6" class="node">
<title>Node6</title>
<g id="a_node6"><a xlink:href="classAtcf.html#a0f3511e6d9066da7d7af0fe1aab03f79" target="_top" xlink:title=" ">
<polygon fill="white" stroke="black" points="242,-49.5 242,-79.5 381,-79.5 381,-49.5 242,-49.5"/>
<text text-anchor="start" x="250" y="-67.5" font-family="Helvetica,sans-Serif" font-size="10.00">Atcf::setMissingRadiiToHalf</text>
<text text-anchor="middle" x="311.5" y="-56.5" font-family="Helvetica,sans-Serif" font-size="10.00">NonzeroRadii</text>
</a>
</g>
</g>
<!-- Node1&#45;&gt;Node6 -->
<g id="edge5" class="edge">
<title>Node1&#45;&gt;Node6</title>
<path fill="none" stroke="midnightblue" d="M415.62,-83.54C405.51,-81.67 393.49,-79.45 381.29,-77.2"/>
<polygon fill="midnightblue" stroke="midnightblue" points="415.3,-87.04 425.77,-85.41 416.57,-80.15 415.3,-87.04"/>
</g>
<!-- Node7 -->
<g id="node7" class="node">
<title>Node7</title>
<g id="a_node7"><a xlink:href="classAtcf.html#aed2ec117307b05eb72dc3e8e06965923" target="_top" xlink:title=" ">
<polygon fill="white" stroke="black" points="242,-0.5 242,-30.5 381,-30.5 381,-0.5 242,-0.5"/>
<text text-anchor="start" x="250" y="-18.5" font-family="Helvetica,sans-Serif" font-size="10.00">Atcf::setMissingRadiiToHalf</text>
<text text-anchor="middle" x="311.5" y="-7.5" font-family="Helvetica,sans-Serif" font-size="10.00">OfAverageSpecifiedRadii</text>
</a>
</g>
</g>
<!-- Node1&#45;&gt;Node7 -->
<g id="edge7" class="edge">
<title>Node1&#45;&gt;Node7</title>
<path fill="none" stroke="midnightblue" d="M427.17,-71.15C417.4,-61 403.99,-48.63 390,-40.5 383.52,-36.74 376.4,-33.46 369.19,-30.63"/>
<polygon fill="midnightblue" stroke="midnightblue" points="424.8,-73.74 434.17,-78.69 429.93,-68.98 424.8,-73.74"/>
</g>
<!-- Node4 -->
<g id="node4" class="node">
<title>Node4</title>
<g id="a_node4"><a xlink:href="classAtcf.html#a4392a7255cda22dc330a996257216c31" target="_top" xlink:title=" ">
<polygon fill="white" stroke="black" points="95,-55 95,-74 197,-74 197,-55 95,-55"/>
<text text-anchor="middle" x="146" y="-62" font-family="Helvetica,sans-Serif" font-size="10.00">Atcf::calculateRadii</text>
</a>
</g>
</g>
<!-- Node3&#45;&gt;Node4 -->
<g id="edge3" class="edge">
<title>Node3&#45;&gt;Node4</title>
<path fill="none" stroke="midnightblue" d="M250.3,-95.46C226.12,-88.21 199.23,-80.15 178.95,-74.08"/>
<polygon fill="midnightblue" stroke="midnightblue" points="249.53,-98.88 260.11,-98.4 251.54,-92.18 249.53,-98.88"/>
</g>
<!-- Node5 -->
<g id="node5" class="node">
<title>Node5</title>
<g id="a_node5"><a xlink:href="classAtcf.html#aaab5dab5b969a87f538242e524431637" target="_top" xlink:title=" ">
<polygon fill="white" stroke="black" points="0,-55 0,-74 59,-74 59,-55 0,-55"/>
<text text-anchor="middle" x="29.5" y="-62" font-family="Helvetica,sans-Serif" font-size="10.00">Atcf::read</text>
</a>
</g>
</g>
<!-- Node4&#45;&gt;Node5 -->
<g id="edge4" class="edge">
<title>Node4&#45;&gt;Node5</title>
<path fill="none" stroke="midnightblue" d="M84.77,-64.5C75.9,-64.5 67.13,-64.5 59.31,-64.5"/>
<polygon fill="midnightblue" stroke="midnightblue" points="84.78,-68 94.78,-64.5 84.78,-61 84.78,-68"/>
</g>
<!-- Node6&#45;&gt;Node4 -->
<g id="edge6" class="edge">
<title>Node6&#45;&gt;Node4</title>
<path fill="none" stroke="midnightblue" d="M231.49,-64.5C219.89,-64.5 208.22,-64.5 197.41,-64.5"/>
<polygon fill="midnightblue" stroke="midnightblue" points="231.64,-68 241.64,-64.5 231.64,-61 231.64,-68"/>
</g>
<!-- Node7&#45;&gt;Node4 -->
<g id="edge8" class="edge">
<title>Node7&#45;&gt;Node4</title>
<path fill="none" stroke="midnightblue" d="M250.3,-33.54C226.12,-40.79 199.23,-48.85 178.95,-54.92"/>
<polygon fill="midnightblue" stroke="midnightblue" points="251.54,-36.82 260.11,-30.6 249.53,-30.12 251.54,-36.82"/>
</g>
</g>
</svg>
