<?xml version="1.0" encoding="UTF-8" standalone="no"?>
<!DOCTYPE svg PUBLIC "-//W3C//DTD SVG 1.1//EN"
 "http://www.w3.org/Graphics/SVG/1.1/DTD/svg11.dtd">
<!-- Generated by graphviz version 2.47.1 (20210417.1919)
 -->
<!-- Title: windSpeed Pages: 1 -->
<svg width="438pt" height="154pt"
 viewBox="0.00 0.00 438.00 154.00" xmlns="http://www.w3.org/2000/svg" xmlns:xlink="http://www.w3.org/1999/xlink">
<g id="graph0" class="graph" transform="scale(1 1) rotate(0) translate(4 150)">
<title>windSpeed</title>
<polygon fill="white" stroke="transparent" points="-4,4 -4,-150 434,-150 434,4 -4,4"/>
<!-- Node1 -->
<g id="node1" class="node">
<title>Node1</title>
<g id="a_node1"><a xlink:title=" ">
<polygon fill="#bfbfbf" stroke="black" points="365,-60.5 365,-79.5 430,-79.5 430,-60.5 365,-60.5"/>
<text text-anchor="middle" x="397.5" y="-67.5" font-family="Helvetica,sans-Serif" font-size="10.00">windSpeed</text>
</a>
</g>
</g>
<!-- Node2 -->
<g id="node2" class="node">
<title>Node2</title>
<g id="a_node2"><a xlink:href="classIsotach.html#a64352a7d018b8161e34e42ae0aad2e32" target="_top" xlink:title=" ">
<polygon fill="white" stroke="black" points="243.5,-126.5 243.5,-145.5 284.5,-145.5 284.5,-126.5 243.5,-126.5"/>
<text text-anchor="middle" x="264" y="-133.5" font-family="Helvetica,sans-Serif" font-size="10.00">isNull</text>
</a>
</g>
</g>
<!-- Node1&#45;&gt;Node2 -->
<g id="edge1" class="edge">
<title>Node1&#45;&gt;Node2</title>
<path fill="none" stroke="midnightblue" d="M377.12,-86C364.16,-96.05 346.36,-108.65 329,-117 314.8,-123.83 297.62,-128.77 284.64,-131.89"/>
<polygon fill="midnightblue" stroke="midnightblue" points="379.61,-88.5 385.26,-79.53 375.25,-83.02 379.61,-88.5"/>
</g>
<!-- Node3 -->
<g id="node3" class="node">
<title>Node3</title>
<g id="a_node3"><a xlink:href="classAtcfLine.html#a3554190fe6a66d73743a6aa7407be529" target="_top" xlink:title=" ">
<polygon fill="white" stroke="black" points="199,-77 199,-107 329,-107 329,-77 199,-77"/>
<text text-anchor="start" x="207" y="-95" font-family="Helvetica,sans-Serif" font-size="10.00">AtcfLine::isSameForecast</text>
<text text-anchor="middle" x="264" y="-84" font-family="Helvetica,sans-Serif" font-size="10.00">Period</text>
</a>
</g>
</g>
<!-- Node1&#45;&gt;Node3 -->
<g id="edge2" class="edge">
<title>Node1&#45;&gt;Node3</title>
<path fill="none" stroke="midnightblue" d="M354.66,-77C346.48,-78.37 337.72,-79.83 329.01,-81.29"/>
<polygon fill="midnightblue" stroke="midnightblue" points="355.38,-80.43 364.67,-75.33 354.23,-73.52 355.38,-80.43"/>
</g>
<!-- Node6 -->
<g id="node6" class="node">
<title>Node6</title>
<g id="a_node6"><a xlink:href="classAtcfLine.html#a724049144ca597838876a0068ff224de" target="_top" xlink:title=" ">
<polygon fill="white" stroke="black" points="214,-38.5 214,-57.5 314,-57.5 314,-38.5 214,-38.5"/>
<text text-anchor="middle" x="264" y="-45.5" font-family="Helvetica,sans-Serif" font-size="10.00">AtcfLine::operator&lt;</text>
</a>
</g>
</g>
<!-- Node1&#45;&gt;Node6 -->
<g id="edge5" class="edge">
<title>Node1&#45;&gt;Node6</title>
<path fill="none" stroke="midnightblue" d="M354.7,-63.01C341.84,-60.85 327.56,-58.47 314.24,-56.24"/>
<polygon fill="midnightblue" stroke="midnightblue" points="354.23,-66.48 364.67,-64.67 355.38,-59.57 354.23,-66.48"/>
</g>
<!-- Node7 -->
<g id="node7" class="node">
<title>Node7</title>
<g id="a_node7"><a xlink:href="classIsotach.html#a5b4ca0a37fa5d07800ef26f35899ae50" target="_top" xlink:title=" ">
<polygon fill="white" stroke="black" points="224,-0.5 224,-19.5 304,-19.5 304,-0.5 224,-0.5"/>
<text text-anchor="middle" x="264" y="-7.5" font-family="Helvetica,sans-Serif" font-size="10.00">setWindSpeed</text>
</a>
</g>
</g>
<!-- Node1&#45;&gt;Node7 -->
<g id="edge6" class="edge">
<title>Node1&#45;&gt;Node7</title>
<path fill="none" stroke="midnightblue" d="M374.52,-54.66C361.69,-46.22 344.94,-36.06 329,-29 320.84,-25.38 311.8,-22.22 303.15,-19.57"/>
<polygon fill="midnightblue" stroke="midnightblue" points="372.85,-57.76 383.11,-60.43 376.76,-51.95 372.85,-57.76"/>
</g>
<!-- Node4 -->
<g id="node4" class="node">
<title>Node4</title>
<g id="a_node4"><a xlink:href="classAtcf.html#aaab5dab5b969a87f538242e524431637" target="_top" xlink:title=" ">
<polygon fill="white" stroke="black" points="104,-82.5 104,-101.5 163,-101.5 163,-82.5 104,-82.5"/>
<text text-anchor="middle" x="133.5" y="-89.5" font-family="Helvetica,sans-Serif" font-size="10.00">Atcf::read</text>
</a>
</g>
</g>
<!-- Node3&#45;&gt;Node4 -->
<g id="edge3" class="edge">
<title>Node3&#45;&gt;Node4</title>
<path fill="none" stroke="midnightblue" d="M188.5,-92C179.48,-92 170.74,-92 163.02,-92"/>
<polygon fill="midnightblue" stroke="midnightblue" points="188.75,-95.5 198.75,-92 188.75,-88.5 188.75,-95.5"/>
</g>
<!-- Node5 -->
<g id="node5" class="node">
<title>Node5</title>
<g id="a_node5"><a xlink:href="classGahm.html#aaab5dab5b969a87f538242e524431637" target="_top" xlink:title=" ">
<polygon fill="white" stroke="black" points="0,-82.5 0,-101.5 68,-101.5 68,-82.5 0,-82.5"/>
<text text-anchor="middle" x="34" y="-89.5" font-family="Helvetica,sans-Serif" font-size="10.00">Gahm::read</text>
</a>
</g>
</g>
<!-- Node4&#45;&gt;Node5 -->
<g id="edge4" class="edge">
<title>Node4&#45;&gt;Node5</title>
<path fill="none" stroke="midnightblue" d="M93.5,-92C85.16,-92 76.43,-92 68.32,-92"/>
<polygon fill="midnightblue" stroke="midnightblue" points="93.77,-95.5 103.77,-92 93.77,-88.5 93.77,-95.5"/>
</g>
</g>
</svg>
