<?xml version="1.0" encoding="UTF-8" standalone="no"?>
<!DOCTYPE svg PUBLIC "-//W3C//DTD SVG 1.1//EN"
 "http://www.w3.org/Graphics/SVG/1.1/DTD/svg11.dtd">
<!-- Generated by graphviz version 2.47.1 (20210417.1919)
 -->
<!-- Title: setYear Pages: 1 -->
<svg width="196pt" height="218pt"
 viewBox="0.00 0.00 196.00 218.00" xmlns="http://www.w3.org/2000/svg" xmlns:xlink="http://www.w3.org/1999/xlink">
<g id="graph0" class="graph" transform="scale(1 1) rotate(0) translate(4 214)">
<title>setYear</title>
<polygon fill="white" stroke="transparent" points="-4,4 -4,-214 192,-214 192,4 -4,4"/>
<!-- Node1 -->
<g id="node1" class="node">
<title>Node1</title>
<g id="a_node1"><a xlink:title=" ">
<polygon fill="#bfbfbf" stroke="black" points="0,-95.5 0,-114.5 50,-114.5 50,-95.5 0,-95.5"/>
<text text-anchor="middle" x="25" y="-102.5" font-family="Helvetica,sans-Serif" font-size="10.00">setYear</text>
</a>
</g>
</g>
<!-- Node2 -->
<g id="node2" class="node">
<title>Node2</title>
<g id="a_node2"><a xlink:href="structs__datetime.html#a5a496ea2e6017fd4b43081f4317f96ce" target="_top" xlink:title=" ">
<polygon fill="white" stroke="black" points="94,-190.5 94,-209.5 180,-209.5 180,-190.5 94,-190.5"/>
<text text-anchor="middle" x="137" y="-197.5" font-family="Helvetica,sans-Serif" font-size="10.00">s_datetime::day</text>
</a>
</g>
</g>
<!-- Node1&#45;&gt;Node2 -->
<g id="edge1" class="edge">
<title>Node1&#45;&gt;Node2</title>
<path fill="none" stroke="midnightblue" d="M31.2,-114.54C40.32,-130.43 60.65,-162.41 86,-181 88.5,-182.84 91.2,-184.52 94.01,-186.05"/>
<polygon fill="midnightblue" stroke="midnightblue" points="92.68,-189.29 103.21,-190.46 95.71,-182.98 92.68,-189.29"/>
</g>
<!-- Node3 -->
<g id="node3" class="node">
<title>Node3</title>
<g id="a_node3"><a xlink:href="structs__datetime.html#a110d566ff7f9edf7cbfe15355f8c637c" target="_top" xlink:title=" ">
<polygon fill="white" stroke="black" points="92.5,-152.5 92.5,-171.5 181.5,-171.5 181.5,-152.5 92.5,-152.5"/>
<text text-anchor="middle" x="137" y="-159.5" font-family="Helvetica,sans-Serif" font-size="10.00">s_datetime::hour</text>
</a>
</g>
</g>
<!-- Node1&#45;&gt;Node3 -->
<g id="edge2" class="edge">
<title>Node1&#45;&gt;Node3</title>
<path fill="none" stroke="midnightblue" d="M39.36,-114.57C51.23,-122.79 69.24,-134.61 86,-143 89.99,-144.99 94.23,-146.91 98.5,-148.7"/>
<polygon fill="midnightblue" stroke="midnightblue" points="97.22,-151.96 107.8,-152.42 99.82,-145.46 97.22,-151.96"/>
</g>
<!-- Node4 -->
<g id="node4" class="node">
<title>Node4</title>
<g id="a_node4"><a xlink:href="structs__datetime.html#ae91256ab81b246d3f40eddbd4c016f5f" target="_top" xlink:title=" ">
<polygon fill="white" stroke="black" points="87,-114.5 87,-133.5 187,-133.5 187,-114.5 87,-114.5"/>
<text text-anchor="middle" x="137" y="-121.5" font-family="Helvetica,sans-Serif" font-size="10.00">s_datetime::minute</text>
</a>
</g>
</g>
<!-- Node1&#45;&gt;Node4 -->
<g id="edge3" class="edge">
<title>Node1&#45;&gt;Node4</title>
<path fill="none" stroke="midnightblue" d="M50.14,-109.17C58.04,-110.53 67.19,-112.11 76.51,-113.72"/>
<polygon fill="midnightblue" stroke="midnightblue" points="76.19,-117.22 86.64,-115.47 77.38,-110.32 76.19,-117.22"/>
</g>
<!-- Node5 -->
<g id="node5" class="node">
<title>Node5</title>
<g id="a_node5"><a xlink:href="structs__datetime.html#a1d85d7b09eedec3fb734532c164f2f27" target="_top" xlink:title=" ">
<polygon fill="white" stroke="black" points="88,-76.5 88,-95.5 186,-95.5 186,-76.5 88,-76.5"/>
<text text-anchor="middle" x="137" y="-83.5" font-family="Helvetica,sans-Serif" font-size="10.00">s_datetime::month</text>
</a>
</g>
</g>
<!-- Node1&#45;&gt;Node5 -->
<g id="edge4" class="edge">
<title>Node1&#45;&gt;Node5</title>
<path fill="none" stroke="midnightblue" d="M50.14,-100.83C58.49,-99.39 68.24,-97.7 78.11,-96"/>
<polygon fill="midnightblue" stroke="midnightblue" points="78.72,-99.45 87.98,-94.29 77.53,-92.55 78.72,-99.45"/>
</g>
<!-- Node6 -->
<g id="node6" class="node">
<title>Node6</title>
<g id="a_node6"><a xlink:href="structs__datetime.html#aa0cba22e21d8081f564e6a68edab1ae0" target="_top" xlink:title=" ">
<polygon fill="white" stroke="black" points="86,-38.5 86,-57.5 188,-57.5 188,-38.5 86,-38.5"/>
<text text-anchor="middle" x="137" y="-45.5" font-family="Helvetica,sans-Serif" font-size="10.00">s_datetime::second</text>
</a>
</g>
</g>
<!-- Node1&#45;&gt;Node6 -->
<g id="edge5" class="edge">
<title>Node1&#45;&gt;Node6</title>
<path fill="none" stroke="midnightblue" d="M39.36,-95.43C51.23,-87.21 69.24,-75.39 86,-67 89.99,-65.01 94.23,-63.09 98.5,-61.3"/>
<polygon fill="midnightblue" stroke="midnightblue" points="99.82,-64.54 107.8,-57.58 97.22,-58.04 99.82,-64.54"/>
</g>
<!-- Node7 -->
<g id="node7" class="node">
<title>Node7</title>
<g id="a_node7"><a xlink:href="classDate.html#ad1762f5051124b0a842e0cd1e94c6237" target="_top" xlink:title=" ">
<polygon fill="white" stroke="black" points="122,-0.5 122,-19.5 152,-19.5 152,-0.5 122,-0.5"/>
<text text-anchor="middle" x="137" y="-7.5" font-family="Helvetica,sans-Serif" font-size="10.00">set</text>
</a>
</g>
</g>
<!-- Node1&#45;&gt;Node7 -->
<g id="edge6" class="edge">
<title>Node1&#45;&gt;Node7</title>
<path fill="none" stroke="midnightblue" d="M31.2,-95.46C40.32,-79.57 60.65,-47.59 86,-29 93.75,-23.32 103.41,-19.12 112.16,-16.14"/>
<polygon fill="midnightblue" stroke="midnightblue" points="113.31,-19.45 121.85,-13.19 111.27,-12.76 113.31,-19.45"/>
</g>
</g>
</svg>
