<?xml version="1.0" encoding="UTF-8" standalone="no"?>
<!DOCTYPE svg PUBLIC "-//W3C//DTD SVG 1.1//EN"
 "http://www.w3.org/Graphics/SVG/1.1/DTD/svg11.dtd">
<!-- Generated by graphviz version 2.47.1 (20210417.1919)
 -->
<!-- Title: lon Pages: 1 -->
<svg width="551pt" height="85pt"
 viewBox="0.00 0.00 551.00 85.49" xmlns="http://www.w3.org/2000/svg" xmlns:xlink="http://www.w3.org/1999/xlink">
<g id="graph0" class="graph" transform="scale(1 1) rotate(0) translate(4 81.49)">
<title>lon</title>
<polygon fill="white" stroke="transparent" points="-4,4 -4,-81.49 547,-81.49 547,4 -4,4"/>
<!-- Node1 -->
<g id="node1" class="node">
<title>Node1</title>
<g id="a_node1"><a xlink:title=" ">
<polygon fill="#bfbfbf" stroke="black" points="514,-44 514,-63 543,-63 543,-44 514,-44"/>
<text text-anchor="middle" x="528.5" y="-51" font-family="Helvetica,sans-Serif" font-size="10.00">lon</text>
</a>
</g>
</g>
<!-- Node2 -->
<g id="node2" class="node">
<title>Node2</title>
<g id="a_node2"><a xlink:href="classAtcfLine.html#a669437f8facd47f46097adc21d0d497b" target="_top" xlink:title="Static function to parse an atcf line text using boost. Places data into an Atcfline object and retur...">
<polygon fill="white" stroke="black" points="244,-50 244,-69 321,-69 321,-50 244,-50"/>
<text text-anchor="middle" x="282.5" y="-57" font-family="Helvetica,sans-Serif" font-size="10.00">parseAtcfLine</text>
</a>
</g>
</g>
<!-- Node1&#45;&gt;Node2 -->
<g id="edge1" class="edge">
<title>Node1&#45;&gt;Node2</title>
<path fill="none" stroke="midnightblue" d="M504.37,-64.39C496.22,-67.68 486.88,-70.85 478,-72.5 424.09,-82.49 360.52,-74.63 321.11,-67.51"/>
<polygon fill="midnightblue" stroke="midnightblue" points="505.8,-67.58 513.61,-60.41 503.04,-61.15 505.8,-67.58"/>
</g>
<!-- Node5 -->
<g id="node5" class="node">
<title>Node5</title>
<g id="a_node5"><a xlink:href="classAtcfLine.html#a820d2d4a882e977cc3e1a4e543067428" target="_top" xlink:title=" ">
<polygon fill="white" stroke="black" points="417,-44 417,-63 463,-63 463,-44 417,-44"/>
<text text-anchor="middle" x="440" y="-51" font-family="Helvetica,sans-Serif" font-size="10.00">setLon</text>
</a>
</g>
</g>
<!-- Node1&#45;&gt;Node5 -->
<g id="edge4" class="edge">
<title>Node1&#45;&gt;Node5</title>
<path fill="none" stroke="midnightblue" d="M503.73,-53.5C491.06,-53.5 475.58,-53.5 463.16,-53.5"/>
<polygon fill="midnightblue" stroke="midnightblue" points="503.98,-57 513.98,-53.5 503.98,-50 503.98,-57"/>
</g>
<!-- Node6 -->
<g id="node6" class="node">
<title>Node6</title>
<g id="a_node6"><a xlink:href="classAtcf.html#a4fce87a97b674a5bbb54f01a8dd5c55e" target="_top" xlink:title=" ">
<polygon fill="white" stroke="black" points="402,-6 402,-25 478,-25 478,-6 402,-6"/>
<text text-anchor="middle" x="440" y="-13" font-family="Helvetica,sans-Serif" font-size="10.00">Atcf::uvTrans</text>
</a>
</g>
</g>
<!-- Node1&#45;&gt;Node6 -->
<g id="edge6" class="edge">
<title>Node1&#45;&gt;Node6</title>
<path fill="none" stroke="midnightblue" d="M504.8,-43.53C491.83,-37.83 475.65,-30.72 462.83,-25.09"/>
<polygon fill="midnightblue" stroke="midnightblue" points="503.42,-46.74 513.98,-47.56 506.24,-40.34 503.42,-46.74"/>
</g>
<!-- Node3 -->
<g id="node3" class="node">
<title>Node3</title>
<g id="a_node3"><a xlink:href="classAtcf.html#aaab5dab5b969a87f538242e524431637" target="_top" xlink:title=" ">
<polygon fill="white" stroke="black" points="104,-28 104,-47 163,-47 163,-28 104,-28"/>
<text text-anchor="middle" x="133.5" y="-35" font-family="Helvetica,sans-Serif" font-size="10.00">Atcf::read</text>
</a>
</g>
</g>
<!-- Node2&#45;&gt;Node3 -->
<g id="edge2" class="edge">
<title>Node2&#45;&gt;Node3</title>
<path fill="none" stroke="midnightblue" d="M233.65,-52.34C210.47,-48.87 183.4,-44.82 163.41,-41.83"/>
<polygon fill="midnightblue" stroke="midnightblue" points="233.24,-55.82 243.64,-53.83 234.27,-48.89 233.24,-55.82"/>
</g>
<!-- Node4 -->
<g id="node4" class="node">
<title>Node4</title>
<g id="a_node4"><a xlink:href="classGahm.html#aaab5dab5b969a87f538242e524431637" target="_top" xlink:title=" ">
<polygon fill="white" stroke="black" points="0,-28 0,-47 68,-47 68,-28 0,-28"/>
<text text-anchor="middle" x="34" y="-35" font-family="Helvetica,sans-Serif" font-size="10.00">Gahm::read</text>
</a>
</g>
</g>
<!-- Node3&#45;&gt;Node4 -->
<g id="edge3" class="edge">
<title>Node3&#45;&gt;Node4</title>
<path fill="none" stroke="midnightblue" d="M93.5,-37.5C85.16,-37.5 76.43,-37.5 68.32,-37.5"/>
<polygon fill="midnightblue" stroke="midnightblue" points="93.77,-41 103.77,-37.5 93.77,-34 93.77,-41"/>
</g>
<!-- Node5&#45;&gt;Node2 -->
<g id="edge5" class="edge">
<title>Node5&#45;&gt;Node2</title>
<path fill="none" stroke="midnightblue" d="M406.68,-54.75C381.74,-55.71 347.21,-57.04 321.05,-58.05"/>
<polygon fill="midnightblue" stroke="midnightblue" points="406.86,-58.24 416.72,-54.36 406.59,-51.25 406.86,-58.24"/>
</g>
<!-- Node7 -->
<g id="node7" class="node">
<title>Node7</title>
<g id="a_node7"><a xlink:href="classAtcf.html#a4bec7c75f41a2643be3bccf63921dfa1" target="_top" xlink:title=" ">
<polygon fill="white" stroke="black" points="199,-0.5 199,-30.5 366,-30.5 366,-0.5 199,-0.5"/>
<text text-anchor="start" x="207" y="-18.5" font-family="Helvetica,sans-Serif" font-size="10.00">Atcf::calculateOverlandTranslation</text>
<text text-anchor="middle" x="282.5" y="-7.5" font-family="Helvetica,sans-Serif" font-size="10.00">Velocity</text>
</a>
</g>
</g>
<!-- Node6&#45;&gt;Node7 -->
<g id="edge7" class="edge">
<title>Node6&#45;&gt;Node7</title>
<path fill="none" stroke="midnightblue" d="M391.72,-15.5C383.54,-15.5 374.83,-15.5 366.04,-15.5"/>
<polygon fill="midnightblue" stroke="midnightblue" points="391.75,-19 401.75,-15.5 391.75,-12 391.75,-19"/>
</g>
<!-- Node7&#45;&gt;Node3 -->
<g id="edge8" class="edge">
<title>Node7&#45;&gt;Node3</title>
<path fill="none" stroke="midnightblue" d="M188.86,-29.36C179.67,-30.74 170.91,-32.05 163.21,-33.2"/>
<polygon fill="midnightblue" stroke="midnightblue" points="189.6,-32.79 198.98,-27.85 188.57,-25.87 189.6,-32.79"/>
</g>
</g>
</svg>
