<?xml version="1.0" encoding="UTF-8" standalone="no"?>
<!DOCTYPE svg PUBLIC "-//W3C//DTD SVG 1.1//EN"
 "http://www.w3.org/Graphics/SVG/1.1/DTD/svg11.dtd">
<!-- Generated by graphviz version 2.47.1 (20210417.1919)
 -->
<!-- Title: lat Pages: 1 -->
<svg width="447pt" height="85pt"
 viewBox="0.00 0.00 447.00 85.49" xmlns="http://www.w3.org/2000/svg" xmlns:xlink="http://www.w3.org/1999/xlink">
<g id="graph0" class="graph" transform="scale(1 1) rotate(0) translate(4 81.49)">
<title>lat</title>
<polygon fill="white" stroke="transparent" points="-4,4 -4,-81.49 443,-81.49 443,4 -4,4"/>
<!-- Node1 -->
<g id="node1" class="node">
<title>Node1</title>
<g id="a_node1"><a xlink:title=" ">
<polygon fill="#bfbfbf" stroke="black" points="410,-44 410,-63 439,-63 439,-44 410,-44"/>
<text text-anchor="middle" x="424.5" y="-51" font-family="Helvetica,sans-Serif" font-size="10.00">lat</text>
</a>
</g>
</g>
<!-- Node2 -->
<g id="node2" class="node">
<title>Node2</title>
<g id="a_node2"><a xlink:href="classAtcfLine.html#a669437f8facd47f46097adc21d0d497b" target="_top" xlink:title=" ">
<polygon fill="white" stroke="black" points="140,-50 140,-69 217,-69 217,-50 140,-50"/>
<text text-anchor="middle" x="178.5" y="-57" font-family="Helvetica,sans-Serif" font-size="10.00">parseAtcfLine</text>
</a>
</g>
</g>
<!-- Node1&#45;&gt;Node2 -->
<g id="edge1" class="edge">
<title>Node1&#45;&gt;Node2</title>
<path fill="none" stroke="midnightblue" d="M400.37,-64.39C392.22,-67.68 382.88,-70.85 374,-72.5 320.09,-82.49 256.52,-74.63 217.11,-67.51"/>
<polygon fill="midnightblue" stroke="midnightblue" points="401.8,-67.58 409.61,-60.41 399.04,-61.15 401.8,-67.58"/>
</g>
<!-- Node4 -->
<g id="node4" class="node">
<title>Node4</title>
<g id="a_node4"><a xlink:href="classAtcfLine.html#ae6665099efc25d2f067359712c403a28" target="_top" xlink:title=" ">
<polygon fill="white" stroke="black" points="314,-44 314,-63 358,-63 358,-44 314,-44"/>
<text text-anchor="middle" x="336" y="-51" font-family="Helvetica,sans-Serif" font-size="10.00">setLat</text>
</a>
</g>
</g>
<!-- Node1&#45;&gt;Node4 -->
<g id="edge3" class="edge">
<title>Node1&#45;&gt;Node4</title>
<path fill="none" stroke="midnightblue" d="M399.88,-53.5C386.85,-53.5 370.79,-53.5 358.16,-53.5"/>
<polygon fill="midnightblue" stroke="midnightblue" points="399.98,-57 409.98,-53.5 399.98,-50 399.98,-57"/>
</g>
<!-- Node5 -->
<g id="node5" class="node">
<title>Node5</title>
<g id="a_node5"><a xlink:href="classAtcf.html#a4fce87a97b674a5bbb54f01a8dd5c55e" target="_top" xlink:title=" ">
<polygon fill="white" stroke="black" points="298,-6 298,-25 374,-25 374,-6 298,-6"/>
<text text-anchor="middle" x="336" y="-13" font-family="Helvetica,sans-Serif" font-size="10.00">Atcf::uvTrans</text>
</a>
</g>
</g>
<!-- Node1&#45;&gt;Node5 -->
<g id="edge5" class="edge">
<title>Node1&#45;&gt;Node5</title>
<path fill="none" stroke="midnightblue" d="M400.8,-43.53C387.83,-37.83 371.65,-30.72 358.83,-25.09"/>
<polygon fill="midnightblue" stroke="midnightblue" points="399.42,-46.74 409.98,-47.56 402.24,-40.34 399.42,-46.74"/>
</g>
<!-- Node3 -->
<g id="node3" class="node">
<title>Node3</title>
<g id="a_node3"><a xlink:href="classAtcf.html#aaab5dab5b969a87f538242e524431637" target="_top" xlink:title=" ">
<polygon fill="white" stroke="black" points="0,-28 0,-47 59,-47 59,-28 0,-28"/>
<text text-anchor="middle" x="29.5" y="-35" font-family="Helvetica,sans-Serif" font-size="10.00">Atcf::read</text>
</a>
</g>
</g>
<!-- Node2&#45;&gt;Node3 -->
<g id="edge2" class="edge">
<title>Node2&#45;&gt;Node3</title>
<path fill="none" stroke="midnightblue" d="M129.65,-52.34C106.47,-48.87 79.4,-44.82 59.41,-41.83"/>
<polygon fill="midnightblue" stroke="midnightblue" points="129.24,-55.82 139.64,-53.83 130.27,-48.89 129.24,-55.82"/>
</g>
<!-- Node4&#45;&gt;Node2 -->
<g id="edge4" class="edge">
<title>Node4&#45;&gt;Node2</title>
<path fill="none" stroke="midnightblue" d="M303.68,-54.71C278.74,-55.67 243.74,-57.02 217.25,-58.04"/>
<polygon fill="midnightblue" stroke="midnightblue" points="303.85,-58.2 313.7,-54.32 303.58,-51.21 303.85,-58.2"/>
</g>
<!-- Node6 -->
<g id="node6" class="node">
<title>Node6</title>
<g id="a_node6"><a xlink:href="classAtcf.html#a4bec7c75f41a2643be3bccf63921dfa1" target="_top" xlink:title=" ">
<polygon fill="white" stroke="black" points="95,-0.5 95,-30.5 262,-30.5 262,-0.5 95,-0.5"/>
<text text-anchor="start" x="103" y="-18.5" font-family="Helvetica,sans-Serif" font-size="10.00">Atcf::calculateOverlandTranslation</text>
<text text-anchor="middle" x="178.5" y="-7.5" font-family="Helvetica,sans-Serif" font-size="10.00">Velocity</text>
</a>
</g>
</g>
<!-- Node5&#45;&gt;Node6 -->
<g id="edge6" class="edge">
<title>Node5&#45;&gt;Node6</title>
<path fill="none" stroke="midnightblue" d="M287.72,-15.5C279.54,-15.5 270.83,-15.5 262.04,-15.5"/>
<polygon fill="midnightblue" stroke="midnightblue" points="287.75,-19 297.75,-15.5 287.75,-12 287.75,-19"/>
</g>
<!-- Node6&#45;&gt;Node3 -->
<g id="edge7" class="edge">
<title>Node6&#45;&gt;Node3</title>
<path fill="none" stroke="midnightblue" d="M84.86,-29.36C75.67,-30.74 66.91,-32.05 59.21,-33.2"/>
<polygon fill="midnightblue" stroke="midnightblue" points="85.6,-32.79 94.98,-27.85 84.57,-25.87 85.6,-32.79"/>
</g>
</g>
</svg>
