<?xml version="1.0" encoding="UTF-8" standalone="no"?>
<!DOCTYPE svg PUBLIC "-//W3C//DTD SVG 1.1//EN"
 "http://www.w3.org/Graphics/SVG/1.1/DTD/svg11.dtd">
<!-- Generated by graphviz version 2.47.1 (20210417.1919)
 -->
<!-- Title: read Pages: 1 -->
<svg width="587pt" height="1435pt"
 viewBox="0.00 0.00 587.00 1435.04" xmlns="http://www.w3.org/2000/svg" xmlns:xlink="http://www.w3.org/1999/xlink">
<g id="graph0" class="graph" transform="scale(1 1) rotate(0) translate(4 1431.04)">
<title>read</title>
<polygon fill="white" stroke="transparent" points="-4,4 -4,-1431.04 583,-1431.04 583,4 -4,4"/>
<!-- Node1 -->
<g id="node1" class="node">
<title>Node1</title>
<g id="a_node1"><a xlink:title=" ">
<polygon fill="#bfbfbf" stroke="black" points="0,-339 0,-358 35,-358 35,-339 0,-339"/>
<text text-anchor="middle" x="17.5" y="-346" font-family="Helvetica,sans-Serif" font-size="10.00">read</text>
</a>
</g>
</g>
<!-- Node2 -->
<g id="node2" class="node">
<title>Node2</title>
<g id="a_node2"><a xlink:href="classAtcf.html#a4bec7c75f41a2643be3bccf63921dfa1" target="_top" xlink:title=" ">
<polygon fill="white" stroke="black" points="73.5,-1320.5 73.5,-1350.5 216.5,-1350.5 216.5,-1320.5 73.5,-1320.5"/>
<text text-anchor="start" x="81.5" y="-1338.5" font-family="Helvetica,sans-Serif" font-size="10.00">calculateOverlandTranslation</text>
<text text-anchor="middle" x="145" y="-1327.5" font-family="Helvetica,sans-Serif" font-size="10.00">Velocity</text>
</a>
</g>
</g>
<!-- Node1&#45;&gt;Node2 -->
<g id="edge1" class="edge">
<title>Node1&#45;&gt;Node2</title>
<path fill="none" stroke="midnightblue" d="M18.73,-358.38C20.25,-419.4 30.17,-750.9 71,-1017.5 87.93,-1128.03 122.16,-1257.18 136.94,-1310.52"/>
<polygon fill="midnightblue" stroke="midnightblue" points="133.64,-1311.74 139.7,-1320.43 140.39,-1309.86 133.64,-1311.74"/>
</g>
<!-- Node18 -->
<g id="node11" class="node">
<title>Node18</title>
<g id="a_node11"><a xlink:href="classAtcf.html#a4392a7255cda22dc330a996257216c31" target="_top" xlink:title=" ">
<polygon fill="white" stroke="black" points="106,-339 106,-358 184,-358 184,-339 106,-339"/>
<text text-anchor="middle" x="145" y="-346" font-family="Helvetica,sans-Serif" font-size="10.00">calculateRadii</text>
</a>
</g>
</g>
<!-- Node1&#45;&gt;Node18 -->
<g id="edge11" class="edge">
<title>Node1&#45;&gt;Node18</title>
<path fill="none" stroke="midnightblue" d="M35.17,-348.5C50.58,-348.5 74.26,-348.5 95.6,-348.5"/>
<polygon fill="midnightblue" stroke="midnightblue" points="95.84,-352 105.84,-348.5 95.84,-345 95.84,-352"/>
</g>
<!-- Node25 -->
<g id="node18" class="node">
<title>Node25</title>
<g id="a_node18"><a xlink:href="classAtcf.html#a2c8fb312c911c7d35cc921e303cac875" target="_top" xlink:title=" ">
<polygon fill="white" stroke="black" points="71,-175 71,-194 219,-194 219,-175 71,-175"/>
<text text-anchor="middle" x="145" y="-182" font-family="Helvetica,sans-Serif" font-size="10.00">generateMissingPressureData</text>
</a>
</g>
</g>
<!-- Node1&#45;&gt;Node25 -->
<g id="edge25" class="edge">
<title>Node1&#45;&gt;Node25</title>
<path fill="none" stroke="midnightblue" d="M25.97,-338.73C46.51,-311.89 104.03,-236.73 130.44,-202.22"/>
<polygon fill="midnightblue" stroke="midnightblue" points="133.42,-204.08 136.72,-194.01 127.86,-199.83 133.42,-204.08"/>
</g>
<!-- Node32 -->
<g id="node23" class="node">
<title>Node32</title>
<g id="a_node23"><a xlink:href="classAtcfLine.html#abada6dfb33f4cbafe1e443a5cf8dc8d0" target="_top" xlink:title=" ">
<polygon fill="white" stroke="black" points="103.5,-137 103.5,-156 186.5,-156 186.5,-137 103.5,-137"/>
<text text-anchor="middle" x="145" y="-144" font-family="Helvetica,sans-Serif" font-size="10.00">AtcfLine::isNull</text>
</a>
</g>
</g>
<!-- Node1&#45;&gt;Node32 -->
<g id="edge31" class="edge">
<title>Node1&#45;&gt;Node32</title>
<path fill="none" stroke="midnightblue" d="M18.18,-338.91C17.73,-308.7 20.61,-214.66 71,-165.5 77.2,-159.45 85.07,-155.26 93.33,-152.37"/>
<polygon fill="midnightblue" stroke="midnightblue" points="94.49,-155.68 103.13,-149.54 92.55,-148.95 94.49,-155.68"/>
</g>
<!-- Node33 -->
<g id="node24" class="node">
<title>Node33</title>
<g id="a_node24"><a xlink:href="classAtcfLine.html#a3554190fe6a66d73743a6aa7407be529" target="_top" xlink:title=" ">
<polygon fill="white" stroke="black" points="270.5,-1105.5 270.5,-1135.5 400.5,-1135.5 400.5,-1105.5 270.5,-1105.5"/>
<text text-anchor="start" x="278.5" y="-1123.5" font-family="Helvetica,sans-Serif" font-size="10.00">AtcfLine::isSameForecast</text>
<text text-anchor="middle" x="335.5" y="-1112.5" font-family="Helvetica,sans-Serif" font-size="10.00">Period</text>
</a>
</g>
</g>
<!-- Node1&#45;&gt;Node33 -->
<g id="edge32" class="edge">
<title>Node1&#45;&gt;Node33</title>
<path fill="none" stroke="midnightblue" d="M18.64,-358.32C19.69,-422.81 27.46,-786.21 71,-886.5 120.28,-1000.02 151.26,-1028.01 255,-1095.5 258.16,-1097.55 261.49,-1099.45 264.94,-1101.2"/>
<polygon fill="midnightblue" stroke="midnightblue" points="263.73,-1104.49 274.28,-1105.48 266.65,-1098.13 263.73,-1104.49"/>
</g>
<!-- Node38 -->
<g id="node29" class="node">
<title>Node38</title>
<g id="a_node29"><a xlink:href="classAtcfLine.html#a669437f8facd47f46097adc21d0d497b" target="_top" xlink:title=" ">
<polygon fill="white" stroke="black" points="85.5,-858 85.5,-877 204.5,-877 204.5,-858 85.5,-858"/>
<text text-anchor="middle" x="145" y="-865" font-family="Helvetica,sans-Serif" font-size="10.00">AtcfLine::parseAtcfLine</text>
</a>
</g>
</g>
<!-- Node1&#45;&gt;Node38 -->
<g id="edge38" class="edge">
<title>Node1&#45;&gt;Node38</title>
<path fill="none" stroke="midnightblue" d="M20.89,-358.4C36.04,-421.04 118.55,-762.25 139.27,-847.96"/>
<polygon fill="midnightblue" stroke="midnightblue" points="135.93,-849.01 141.68,-857.91 142.73,-847.37 135.93,-849.01"/>
</g>
<!-- Node67 -->
<g id="node50" class="node">
<title>Node67</title>
<g id="a_node50"><a xlink:href="classAtcf.html#a841866c9625b20c5fb1f452110668f66" target="_top" xlink:title=" ">
<polygon fill="white" stroke="black" points="98.5,-99 98.5,-118 191.5,-118 191.5,-99 98.5,-99"/>
<text text-anchor="middle" x="145" y="-106" font-family="Helvetica,sans-Serif" font-size="10.00">setInitialHollandB</text>
</a>
</g>
</g>
<!-- Node1&#45;&gt;Node67 -->
<g id="edge69" class="edge">
<title>Node1&#45;&gt;Node67</title>
<path fill="none" stroke="midnightblue" d="M19.47,-338.98C23.54,-300.72 40.52,-158.64 71,-127.5 75.92,-122.47 82,-118.71 88.52,-115.92"/>
<polygon fill="midnightblue" stroke="midnightblue" points="90.05,-119.09 98.32,-112.48 87.73,-112.49 90.05,-119.09"/>
</g>
<!-- Node3 -->
<g id="node3" class="node">
<title>Node3</title>
<g id="a_node3"><a xlink:href="classPhysical.html#a446b34a690f7a1f10433e477ad0ac973" target="_top" xlink:title=" ">
<polygon fill="white" stroke="black" points="292,-1383 292,-1402 379,-1402 379,-1383 292,-1383"/>
<text text-anchor="middle" x="335.5" y="-1390" font-family="Helvetica,sans-Serif" font-size="10.00">Physical::kt2ms</text>
</a>
</g>
</g>
<!-- Node2&#45;&gt;Node3 -->
<g id="edge2" class="edge">
<title>Node2&#45;&gt;Node3</title>
<path fill="none" stroke="midnightblue" d="M195.65,-1350.54C214.26,-1356.18 235.6,-1362.64 255,-1368.5 267.29,-1372.22 280.65,-1376.25 292.85,-1379.93"/>
<polygon fill="midnightblue" stroke="midnightblue" points="292.19,-1383.39 302.78,-1382.93 294.21,-1376.69 292.19,-1383.39"/>
</g>
<!-- Node4 -->
<g id="node4" class="node">
<title>Node4</title>
<g id="a_node4"><a xlink:href="classPhysical.html#aec8d798f5701bd9c2e131410022ec8f7" target="_top" xlink:title=" ">
<polygon fill="white" stroke="black" points="472,-1402 472,-1421 559,-1421 559,-1402 472,-1402"/>
<text text-anchor="middle" x="515.5" y="-1409" font-family="Helvetica,sans-Serif" font-size="10.00">Physical::ms2kt</text>
</a>
</g>
</g>
<!-- Node2&#45;&gt;Node4 -->
<g id="edge4" class="edge">
<title>Node2&#45;&gt;Node4</title>
<path fill="none" stroke="midnightblue" d="M160.94,-1350.51C180.53,-1369.03 216.93,-1399.54 255,-1411.5 324.05,-1433.19 408.62,-1427.66 462.05,-1420.53"/>
<polygon fill="midnightblue" stroke="midnightblue" points="462.56,-1423.99 471.98,-1419.14 461.59,-1417.06 462.56,-1423.99"/>
</g>
<!-- Node5 -->
<g id="node5" class="node">
<title>Node5</title>
<g id="a_node5"><a xlink:href="classAtcf.html#a4fce87a97b674a5bbb54f01a8dd5c55e" target="_top" xlink:title=" ">
<polygon fill="white" stroke="black" points="309.5,-1269 309.5,-1288 361.5,-1288 361.5,-1269 309.5,-1269"/>
<text text-anchor="middle" x="335.5" y="-1276" font-family="Helvetica,sans-Serif" font-size="10.00">uvTrans</text>
</a>
</g>
</g>
<!-- Node2&#45;&gt;Node5 -->
<g id="edge5" class="edge">
<title>Node2&#45;&gt;Node5</title>
<path fill="none" stroke="midnightblue" d="M186.06,-1320.45C206.53,-1313.03 231.92,-1304.26 255,-1297.5 269.32,-1293.3 285.3,-1289.35 299.15,-1286.14"/>
<polygon fill="midnightblue" stroke="midnightblue" points="300.29,-1289.47 309.27,-1283.85 298.74,-1282.65 300.29,-1289.47"/>
</g>
<!-- Node3&#45;&gt;Node4 -->
<g id="edge3" class="edge">
<title>Node3&#45;&gt;Node4</title>
<path fill="none" stroke="midnightblue" d="M379.14,-1397.05C403.92,-1399.7 435.37,-1403.05 461.71,-1405.87"/>
<polygon fill="midnightblue" stroke="midnightblue" points="461.59,-1409.37 471.9,-1406.95 462.33,-1402.41 461.59,-1409.37"/>
</g>
<!-- Node6 -->
<g id="node6" class="node">
<title>Node6</title>
<g id="a_node6"><a xlink:href="classAtcfLine.html#a31f99dd6bb56e7b2cb4ebbc3a850a8f5" target="_top" xlink:title=" ">
<polygon fill="white" stroke="black" points="467.5,-1206 467.5,-1225 563.5,-1225 563.5,-1206 467.5,-1206"/>
<text text-anchor="middle" x="515.5" y="-1213" font-family="Helvetica,sans-Serif" font-size="10.00">AtcfLine::datetime</text>
</a>
</g>
</g>
<!-- Node5&#45;&gt;Node6 -->
<g id="edge6" class="edge">
<title>Node5&#45;&gt;Node6</title>
<path fill="none" stroke="midnightblue" d="M361.63,-1274.96C377.67,-1272.11 398.64,-1267.27 416,-1259.5 433.78,-1251.54 434.47,-1242.99 452,-1234.5 456.66,-1232.24 461.66,-1230.18 466.71,-1228.33"/>
<polygon fill="midnightblue" stroke="midnightblue" points="468.1,-1231.55 476.43,-1225 465.84,-1224.92 468.1,-1231.55"/>
</g>
<!-- Node7 -->
<g id="node7" class="node">
<title>Node7</title>
<g id="a_node7"><a xlink:href="classAtcfLine.html#af473414f523913837f7ee7520fa9e63d" target="_top" xlink:title=" ">
<polygon fill="white" stroke="black" points="481,-1320 481,-1339 550,-1339 550,-1320 481,-1320"/>
<text text-anchor="middle" x="515.5" y="-1327" font-family="Helvetica,sans-Serif" font-size="10.00">AtcfLine::lat</text>
</a>
</g>
</g>
<!-- Node5&#45;&gt;Node7 -->
<g id="edge7" class="edge">
<title>Node5&#45;&gt;Node7</title>
<path fill="none" stroke="midnightblue" d="M361.76,-1283.78C377.48,-1287.25 398.05,-1292.13 416,-1297.5 432.3,-1302.37 435.86,-1305.14 452,-1310.5 458.51,-1312.66 465.43,-1314.86 472.2,-1316.96"/>
<polygon fill="midnightblue" stroke="midnightblue" points="471.37,-1320.37 481.96,-1319.95 473.43,-1313.68 471.37,-1320.37"/>
</g>
<!-- Node8 -->
<g id="node8" class="node">
<title>Node8</title>
<g id="a_node8"><a xlink:href="classAtcfLine.html#abf1373f021c76c8df3ab03e92eddc42f" target="_top" xlink:title=" ">
<polygon fill="white" stroke="black" points="480,-1016 480,-1035 551,-1035 551,-1016 480,-1016"/>
<text text-anchor="middle" x="515.5" y="-1023" font-family="Helvetica,sans-Serif" font-size="10.00">AtcfLine::lon</text>
</a>
</g>
</g>
<!-- Node5&#45;&gt;Node8 -->
<g id="edge8" class="edge">
<title>Node5&#45;&gt;Node8</title>
<path fill="none" stroke="midnightblue" d="M361.57,-1279.32C379.29,-1278.46 402.25,-1274.23 416,-1259.5 482.12,-1188.68 388.06,-1117.29 452,-1044.5 456.89,-1038.94 463.35,-1034.97 470.27,-1032.16"/>
<polygon fill="midnightblue" stroke="midnightblue" points="471.47,-1035.45 479.87,-1028.99 469.28,-1028.8 471.47,-1035.45"/>
</g>
<!-- Node9 -->
<g id="node9" class="node">
<title>Node9</title>
<g id="a_node9"><a xlink:href="classPhysical.html#ac6d713f1908e7e0538db20f88b34f639" target="_top" xlink:title=" ">
<polygon fill="white" stroke="red" points="459.5,-1282 459.5,-1301 571.5,-1301 571.5,-1282 459.5,-1282"/>
<text text-anchor="middle" x="515.5" y="-1289" font-family="Helvetica,sans-Serif" font-size="10.00">Physical::sphericalDx</text>
</a>
</g>
</g>
<!-- Node5&#45;&gt;Node9 -->
<g id="edge9" class="edge">
<title>Node5&#45;&gt;Node9</title>
<path fill="none" stroke="midnightblue" d="M361.63,-1280.34C384.36,-1282 418.83,-1284.51 449.3,-1286.74"/>
<polygon fill="midnightblue" stroke="midnightblue" points="449.22,-1290.24 459.45,-1287.48 449.73,-1283.26 449.22,-1290.24"/>
</g>
<!-- Node16 -->
<g id="node10" class="node">
<title>Node16</title>
<g id="a_node10"><a xlink:href="classDate.html#a1fa70aa48f749203df9a600eb190dd7b" target="_top" xlink:title=" ">
<polygon fill="white" stroke="red" points="470.5,-1244 470.5,-1263 560.5,-1263 560.5,-1244 470.5,-1244"/>
<text text-anchor="middle" x="515.5" y="-1251" font-family="Helvetica,sans-Serif" font-size="10.00">Date::toSeconds</text>
</a>
</g>
</g>
<!-- Node5&#45;&gt;Node16 -->
<g id="edge10" class="edge">
<title>Node5&#45;&gt;Node16</title>
<path fill="none" stroke="midnightblue" d="M361.63,-1274.97C387.16,-1271.39 427.52,-1265.72 460.36,-1261.1"/>
<polygon fill="midnightblue" stroke="midnightblue" points="460.86,-1264.57 470.28,-1259.71 459.89,-1257.64 460.86,-1264.57"/>
</g>
<!-- Node19 -->
<g id="node12" class="node">
<title>Node19</title>
<g id="a_node12"><a xlink:href="classAtcf.html#a2c3a3d17067e7d0d53018ec96531bd3d" target="_top" xlink:title=" ">
<polygon fill="white" stroke="black" points="493.5,-339 493.5,-358 537.5,-358 537.5,-339 493.5,-339"/>
<text text-anchor="middle" x="515.5" y="-346" font-family="Helvetica,sans-Serif" font-size="10.00">record</text>
</a>
</g>
</g>
<!-- Node18&#45;&gt;Node19 -->
<g id="edge12" class="edge">
<title>Node18&#45;&gt;Node19</title>
<path fill="none" stroke="midnightblue" d="M157.8,-358.17C176.84,-373.09 216.16,-401.08 255,-411.5 324.11,-430.04 347.32,-431.58 416,-411.5 447.09,-402.41 477.69,-380.18 496.33,-364.71"/>
<polygon fill="midnightblue" stroke="midnightblue" points="498.68,-367.31 504.02,-358.16 494.14,-361.99 498.68,-367.31"/>
</g>
<!-- Node20 -->
<g id="node13" class="node">
<title>Node20</title>
<g id="a_node13"><a xlink:href="classAtcf.html#a4b3387ddd1546cf6bad5444c70ec5cc5" target="_top" xlink:title=" ">
<polygon fill="white" stroke="black" points="285,-383 285,-402 386,-402 386,-383 285,-383"/>
<text text-anchor="middle" x="335.5" y="-390" font-family="Helvetica,sans-Serif" font-size="10.00">setAllRadiiToRmax</text>
</a>
</g>
</g>
<!-- Node18&#45;&gt;Node20 -->
<g id="edge13" class="edge">
<title>Node18&#45;&gt;Node20</title>
<path fill="none" stroke="midnightblue" d="M184.15,-357.4C212.78,-364.09 252.28,-373.31 283.61,-380.62"/>
<polygon fill="midnightblue" stroke="midnightblue" points="282.94,-384.06 293.47,-382.92 284.53,-377.24 282.94,-384.06"/>
</g>
<!-- Node22 -->
<g id="node15" class="node">
<title>Node22</title>
<g id="a_node15"><a xlink:href="classAtcf.html#a71fa11a421dc675f7b8190758fa0b2e6" target="_top" xlink:title=" ">
<polygon fill="white" stroke="black" points="269,-333.5 269,-363.5 402,-363.5 402,-333.5 269,-333.5"/>
<text text-anchor="start" x="277" y="-351.5" font-family="Helvetica,sans-Serif" font-size="10.00">setMissingRadiiToAverage</text>
<text text-anchor="middle" x="335.5" y="-340.5" font-family="Helvetica,sans-Serif" font-size="10.00">OfAdjacentRadii</text>
</a>
</g>
</g>
<!-- Node18&#45;&gt;Node22 -->
<g id="edge16" class="edge">
<title>Node18&#45;&gt;Node22</title>
<path fill="none" stroke="midnightblue" d="M184.15,-348.5C205.61,-348.5 233.18,-348.5 258.83,-348.5"/>
<polygon fill="midnightblue" stroke="midnightblue" points="258.93,-352 268.93,-348.5 258.93,-345 258.93,-352"/>
</g>
<!-- Node23 -->
<g id="node16" class="node">
<title>Node23</title>
<g id="a_node16"><a xlink:href="classAtcf.html#a21717052904854109237917697bd4e73" target="_top" xlink:title=" ">
<polygon fill="white" stroke="black" points="259.5,-284.5 259.5,-314.5 411.5,-314.5 411.5,-284.5 259.5,-284.5"/>
<text text-anchor="start" x="267.5" y="-302.5" font-family="Helvetica,sans-Serif" font-size="10.00">setMissingRadiiToHalfNonzero</text>
<text text-anchor="middle" x="335.5" y="-291.5" font-family="Helvetica,sans-Serif" font-size="10.00">Radii</text>
</a>
</g>
</g>
<!-- Node18&#45;&gt;Node23 -->
<g id="edge19" class="edge">
<title>Node18&#45;&gt;Node23</title>
<path fill="none" stroke="midnightblue" d="M182.79,-338.94C206.66,-332.73 238.47,-324.46 266.8,-317.1"/>
<polygon fill="midnightblue" stroke="midnightblue" points="267.86,-320.44 276.65,-314.54 266.09,-313.67 267.86,-320.44"/>
</g>
<!-- Node24 -->
<g id="node17" class="node">
<title>Node24</title>
<g id="a_node17"><a xlink:href="classAtcf.html#abfd44c7ce56d9e93b1f3edfb67918ef5" target="_top" xlink:title=" ">
<polygon fill="white" stroke="black" points="255,-235.5 255,-265.5 416,-265.5 416,-235.5 255,-235.5"/>
<text text-anchor="start" x="263" y="-253.5" font-family="Helvetica,sans-Serif" font-size="10.00">setMissingRadiiToHalfOfAverage</text>
<text text-anchor="middle" x="335.5" y="-242.5" font-family="Helvetica,sans-Serif" font-size="10.00">SpecifiedRadii</text>
</a>
</g>
</g>
<!-- Node18&#45;&gt;Node24 -->
<g id="edge22" class="edge">
<title>Node18&#45;&gt;Node24</title>
<path fill="none" stroke="midnightblue" d="M157.74,-338.98C177.01,-323.73 217.01,-293.73 255,-275.5 259.69,-273.25 264.63,-271.14 269.66,-269.17"/>
<polygon fill="midnightblue" stroke="midnightblue" points="271.23,-272.32 279.39,-265.57 268.8,-265.76 271.23,-272.32"/>
</g>
<!-- Node20&#45;&gt;Node19 -->
<g id="edge15" class="edge">
<title>Node20&#45;&gt;Node19</title>
<path fill="none" stroke="midnightblue" d="M376.97,-382.94C389.49,-379.96 403.32,-376.62 416,-373.5 438.65,-367.92 464.18,-361.43 483.58,-356.47"/>
<polygon fill="midnightblue" stroke="midnightblue" points="484.57,-359.83 493.39,-353.95 482.83,-353.04 484.57,-359.83"/>
</g>
<!-- Node21 -->
<g id="node14" class="node">
<title>Node21</title>
<g id="a_node14"><a xlink:href="classAssumptions.html#a20319f7261289f879d667fe91034d503" target="_top" xlink:title=" ">
<polygon fill="white" stroke="black" points="468,-290 468,-309 563,-309 563,-290 468,-290"/>
<text text-anchor="middle" x="515.5" y="-297" font-family="Helvetica,sans-Serif" font-size="10.00">Assumptions::add</text>
</a>
</g>
</g>
<!-- Node20&#45;&gt;Node21 -->
<g id="edge14" class="edge">
<title>Node20&#45;&gt;Node21</title>
<path fill="none" stroke="midnightblue" d="M386,-385.91C396.42,-383.12 406.98,-379.15 416,-373.5 437.41,-360.08 432.14,-345.12 452,-329.5 460.01,-323.21 469.55,-317.8 478.73,-313.37"/>
<polygon fill="midnightblue" stroke="midnightblue" points="480.44,-316.44 488.1,-309.12 477.55,-310.07 480.44,-316.44"/>
</g>
<!-- Node22&#45;&gt;Node19 -->
<g id="edge18" class="edge">
<title>Node22&#45;&gt;Node19</title>
<path fill="none" stroke="midnightblue" d="M402.02,-348.5C429.62,-348.5 460.47,-348.5 482.87,-348.5"/>
<polygon fill="midnightblue" stroke="midnightblue" points="483.13,-352 493.13,-348.5 483.13,-345 483.13,-352"/>
</g>
<!-- Node22&#45;&gt;Node21 -->
<g id="edge17" class="edge">
<title>Node22&#45;&gt;Node21</title>
<path fill="none" stroke="midnightblue" d="M391.36,-333.4C416.65,-326.44 446.28,-318.28 470.14,-311.71"/>
<polygon fill="midnightblue" stroke="midnightblue" points="471.27,-315.03 479.98,-309 469.41,-308.28 471.27,-315.03"/>
</g>
<!-- Node23&#45;&gt;Node19 -->
<g id="edge21" class="edge">
<title>Node23&#45;&gt;Node19</title>
<path fill="none" stroke="midnightblue" d="M391.36,-314.6C421.7,-322.96 458.29,-333.03 483.66,-340.01"/>
<polygon fill="midnightblue" stroke="midnightblue" points="482.89,-343.43 493.46,-342.71 484.75,-336.68 482.89,-343.43"/>
</g>
<!-- Node23&#45;&gt;Node21 -->
<g id="edge20" class="edge">
<title>Node23&#45;&gt;Node21</title>
<path fill="none" stroke="midnightblue" d="M411.73,-299.5C427.08,-299.5 442.98,-299.5 457.56,-299.5"/>
<polygon fill="midnightblue" stroke="midnightblue" points="457.92,-303 467.92,-299.5 457.92,-296 457.92,-303"/>
</g>
<!-- Node24&#45;&gt;Node19 -->
<g id="edge24" class="edge">
<title>Node24&#45;&gt;Node19</title>
<path fill="none" stroke="midnightblue" d="M397.23,-265.55C403.82,-268.35 410.23,-271.64 416,-275.5 436.72,-289.35 432.32,-303.21 452,-318.5 461.53,-325.91 473.19,-332.12 483.84,-336.93"/>
<polygon fill="midnightblue" stroke="midnightblue" points="482.68,-340.24 493.25,-340.95 485.43,-333.8 482.68,-340.24"/>
</g>
<!-- Node24&#45;&gt;Node21 -->
<g id="edge23" class="edge">
<title>Node24&#45;&gt;Node21</title>
<path fill="none" stroke="midnightblue" d="M391.36,-265.6C416.65,-272.56 446.28,-280.72 470.14,-287.29"/>
<polygon fill="midnightblue" stroke="midnightblue" points="469.41,-290.72 479.98,-290 471.27,-283.97 469.41,-290.72"/>
</g>
<!-- Node25&#45;&gt;Node21 -->
<g id="edge26" class="edge">
<title>Node25&#45;&gt;Node21</title>
<path fill="none" stroke="midnightblue" d="M219.05,-186.41C274.89,-190.08 352.76,-200.06 416,-226.5 447.99,-239.88 479.15,-265.79 497.58,-282.86"/>
<polygon fill="midnightblue" stroke="midnightblue" points="495.23,-285.45 504.89,-289.8 500.05,-280.37 495.23,-285.45"/>
</g>
<!-- Node26 -->
<g id="node19" class="node">
<title>Node26</title>
<g id="a_node19"><a xlink:href="classHurricanePressure.html#a6e093920e46b7c9326e027f7c17082e2" target="_top" xlink:title=" ">
<polygon fill="white" stroke="red" points="258,-147.5 258,-177.5 413,-177.5 413,-147.5 258,-147.5"/>
<text text-anchor="start" x="266" y="-165.5" font-family="Helvetica,sans-Serif" font-size="10.00">HurricanePressure::</text>
<text text-anchor="middle" x="335.5" y="-154.5" font-family="Helvetica,sans-Serif" font-size="10.00">computeInitialPressureEstimate</text>
</a>
</g>
</g>
<!-- Node25&#45;&gt;Node26 -->
<g id="edge27" class="edge">
<title>Node25&#45;&gt;Node26</title>
<path fill="none" stroke="midnightblue" d="M219.15,-175.96C228.6,-174.86 238.34,-173.72 247.98,-172.6"/>
<polygon fill="midnightblue" stroke="midnightblue" points="248.44,-176.07 257.97,-171.43 247.63,-169.12 248.44,-176.07"/>
</g>
<!-- Node29 -->
<g id="node20" class="node">
<title>Node29</title>
<g id="a_node20"><a xlink:href="classHurricanePressure.html#ab7f4b85c45ecbd2fdc5b5757f3eb37e6" target="_top" xlink:title=" ">
<polygon fill="white" stroke="black" points="283.5,-98.5 283.5,-128.5 387.5,-128.5 387.5,-98.5 283.5,-98.5"/>
<text text-anchor="start" x="291.5" y="-116.5" font-family="Helvetica,sans-Serif" font-size="10.00">HurricanePressure::</text>
<text text-anchor="middle" x="335.5" y="-105.5" font-family="Helvetica,sans-Serif" font-size="10.00">computePressure</text>
</a>
</g>
</g>
<!-- Node25&#45;&gt;Node29 -->
<g id="edge28" class="edge">
<title>Node25&#45;&gt;Node29</title>
<path fill="none" stroke="midnightblue" d="M193.69,-174.95C202.33,-172.43 211.1,-169.31 219,-165.5 237.02,-156.82 237.21,-147.63 255,-138.5 260.97,-135.44 267.38,-132.66 273.88,-130.18"/>
<polygon fill="midnightblue" stroke="midnightblue" points="275.21,-133.42 283.43,-126.73 272.84,-126.83 275.21,-133.42"/>
</g>
<!-- Node30 -->
<g id="node21" class="node">
<title>Node30</title>
<g id="a_node21"><a xlink:href="classHurricanePressure.html#aede796baf8d694cdeeef3d2dc2693244" target="_top" xlink:title=" ">
<polygon fill="white" stroke="black" points="283.5,-49.5 283.5,-79.5 387.5,-79.5 387.5,-49.5 283.5,-49.5"/>
<text text-anchor="start" x="291.5" y="-67.5" font-family="Helvetica,sans-Serif" font-size="10.00">HurricanePressure::</text>
<text text-anchor="middle" x="335.5" y="-56.5" font-family="Helvetica,sans-Serif" font-size="10.00">pressureMethod</text>
</a>
</g>
</g>
<!-- Node25&#45;&gt;Node30 -->
<g id="edge29" class="edge">
<title>Node25&#45;&gt;Node30</title>
<path fill="none" stroke="midnightblue" d="M203.41,-174.88C209.03,-172.42 214.36,-169.34 219,-165.5 247.79,-141.67 226.82,-114.05 255,-89.5 260.55,-84.67 267.03,-80.77 273.86,-77.62"/>
<polygon fill="midnightblue" stroke="midnightblue" points="275.38,-80.78 283.33,-73.78 272.75,-74.29 275.38,-80.78"/>
</g>
<!-- Node31 -->
<g id="node22" class="node">
<title>Node31</title>
<g id="a_node22"><a xlink:href="classHurricanePressure.html#a87f90b0890179ce21401f05f0a5c7ec0" target="_top" xlink:title=" ">
<polygon fill="white" stroke="black" points="279.5,-0.5 279.5,-30.5 391.5,-30.5 391.5,-0.5 279.5,-0.5"/>
<text text-anchor="start" x="287.5" y="-18.5" font-family="Helvetica,sans-Serif" font-size="10.00">HurricanePressure::</text>
<text text-anchor="middle" x="335.5" y="-7.5" font-family="Helvetica,sans-Serif" font-size="10.00">pressureMethodString</text>
</a>
</g>
</g>
<!-- Node25&#45;&gt;Node31 -->
<g id="edge30" class="edge">
<title>Node25&#45;&gt;Node31</title>
<path fill="none" stroke="midnightblue" d="M205.5,-174.92C210.46,-172.44 215.06,-169.34 219,-165.5 260.67,-124.81 214.13,-80.99 255,-39.5 259.28,-35.16 264.31,-31.59 269.73,-28.67"/>
<polygon fill="midnightblue" stroke="midnightblue" points="271.54,-31.69 279.16,-24.34 268.62,-25.33 271.54,-31.69"/>
</g>
<!-- Node33&#45;&gt;Node6 -->
<g id="edge36" class="edge">
<title>Node33&#45;&gt;Node6</title>
<path fill="none" stroke="midnightblue" d="M398.78,-1135.63C404.87,-1138.4 410.74,-1141.66 416,-1145.5 438.41,-1161.85 429.51,-1180.25 452,-1196.5 454.67,-1198.43 457.53,-1200.16 460.51,-1201.72"/>
<polygon fill="midnightblue" stroke="midnightblue" points="459.19,-1204.96 469.74,-1205.9 462.07,-1198.58 459.19,-1204.96"/>
</g>
<!-- Node34 -->
<g id="node25" class="node">
<title>Node34</title>
<g id="a_node25"><a xlink:href="classAtcfLine.html#a757a667960cf8420a7d565899ba74dd5" target="_top" xlink:title=" ">
<polygon fill="white" stroke="black" points="474.5,-1168 474.5,-1187 556.5,-1187 556.5,-1168 474.5,-1168"/>
<text text-anchor="middle" x="515.5" y="-1175" font-family="Helvetica,sans-Serif" font-size="10.00">AtcfLine::basin</text>
</a>
</g>
</g>
<!-- Node33&#45;&gt;Node34 -->
<g id="edge33" class="edge">
<title>Node33&#45;&gt;Node34</title>
<path fill="none" stroke="midnightblue" d="M385.38,-1135.52C395.52,-1138.73 406.13,-1142.17 416,-1145.5 432.12,-1150.94 435.86,-1153.14 452,-1158.5 458.51,-1160.66 465.43,-1162.86 472.2,-1164.96"/>
<polygon fill="midnightblue" stroke="midnightblue" points="471.37,-1168.37 481.96,-1167.95 473.43,-1161.68 471.37,-1168.37"/>
</g>
<!-- Node35 -->
<g id="node26" class="node">
<title>Node35</title>
<g id="a_node26"><a xlink:href="classAtcfLine.html#af02cbe832e0a7a708e691fff2b48ebc4" target="_top" xlink:title=" ">
<polygon fill="white" stroke="black" points="468,-1130 468,-1149 563,-1149 563,-1130 468,-1130"/>
<text text-anchor="middle" x="515.5" y="-1137" font-family="Helvetica,sans-Serif" font-size="10.00">AtcfLine::cisotach</text>
</a>
</g>
</g>
<!-- Node33&#45;&gt;Node35 -->
<g id="edge34" class="edge">
<title>Node33&#45;&gt;Node35</title>
<path fill="none" stroke="midnightblue" d="M400.51,-1127.33C419.18,-1129.33 439.44,-1131.49 457.63,-1133.43"/>
<polygon fill="midnightblue" stroke="midnightblue" points="457.48,-1136.93 467.79,-1134.51 458.22,-1129.97 457.48,-1136.93"/>
</g>
<!-- Node36 -->
<g id="node27" class="node">
<title>Node36</title>
<g id="a_node27"><a xlink:href="classAtcfLine.html#afcbce102d14966134f6a19e60597c61c" target="_top" xlink:title=" ">
<polygon fill="white" stroke="black" points="452,-1054 452,-1073 579,-1073 579,-1054 452,-1054"/>
<text text-anchor="middle" x="515.5" y="-1061" font-family="Helvetica,sans-Serif" font-size="10.00">AtcfLine::cycloneNumber</text>
</a>
</g>
</g>
<!-- Node33&#45;&gt;Node36 -->
<g id="edge35" class="edge">
<title>Node33&#45;&gt;Node36</title>
<path fill="none" stroke="midnightblue" d="M385.38,-1105.48C395.52,-1102.27 406.13,-1098.83 416,-1095.5 432.12,-1090.06 435.86,-1087.86 452,-1082.5 458.51,-1080.34 465.43,-1078.14 472.2,-1076.04"/>
<polygon fill="midnightblue" stroke="midnightblue" points="473.43,-1079.32 481.96,-1073.05 471.37,-1072.63 473.43,-1079.32"/>
</g>
<!-- Node37 -->
<g id="node28" class="node">
<title>Node37</title>
<g id="a_node28"><a xlink:href="classIsotach.html#a90b55241f6d0ff34cfb78229a7ffacf7" target="_top" xlink:title=" ">
<polygon fill="white" stroke="black" points="464,-1092 464,-1111 567,-1111 567,-1092 464,-1092"/>
<text text-anchor="middle" x="515.5" y="-1099" font-family="Helvetica,sans-Serif" font-size="10.00">Isotach::windSpeed</text>
</a>
</g>
</g>
<!-- Node33&#45;&gt;Node37 -->
<g id="edge37" class="edge">
<title>Node33&#45;&gt;Node37</title>
<path fill="none" stroke="midnightblue" d="M400.51,-1113.67C417.76,-1111.83 436.37,-1109.84 453.46,-1108.02"/>
<polygon fill="midnightblue" stroke="midnightblue" points="454.3,-1111.45 463.87,-1106.9 453.56,-1104.49 454.3,-1111.45"/>
</g>
<!-- Node38&#45;&gt;Node3 -->
<g id="edge42" class="edge">
<title>Node38&#45;&gt;Node3</title>
<path fill="none" stroke="midnightblue" d="M146.78,-877.06C152.06,-939.79 184.62,-1292.34 255,-1368.5 262.27,-1376.36 272.01,-1381.69 282.18,-1385.28"/>
<polygon fill="midnightblue" stroke="midnightblue" points="281.4,-1388.7 291.99,-1388.22 283.41,-1381.99 281.4,-1388.7"/>
</g>
<!-- Node38&#45;&gt;Node7 -->
<g id="edge43" class="edge">
<title>Node38&#45;&gt;Node7</title>
<path fill="none" stroke="midnightblue" d="M146.67,-877.08C151.15,-938.41 179.04,-1275.2 255,-1335.5 320.46,-1387.46 427.26,-1360.99 481.16,-1342.45"/>
<polygon fill="midnightblue" stroke="midnightblue" points="482.33,-1345.75 490.58,-1339.1 479.99,-1339.15 482.33,-1345.75"/>
</g>
<!-- Node38&#45;&gt;Node8 -->
<g id="edge44" class="edge">
<title>Node38&#45;&gt;Node8</title>
<path fill="none" stroke="midnightblue" d="M151.36,-877.12C168.75,-907.96 224.28,-1003.27 255,-1019.5 322.95,-1055.38 415.5,-1046.13 469.74,-1035.94"/>
<polygon fill="midnightblue" stroke="midnightblue" points="470.6,-1039.34 479.74,-1033.98 469.25,-1032.48 470.6,-1039.34"/>
</g>
<!-- Node39 -->
<g id="node30" class="node">
<title>Node39</title>
<g id="a_node30"><a xlink:href="classAtcfLine.html#a35c13e37b2ea718539aa5f54b88eb55b" target="_top" xlink:title=" ">
<polygon fill="white" stroke="black" points="288,-953 288,-972 383,-972 383,-953 288,-953"/>
<text text-anchor="middle" x="335.5" y="-960" font-family="Helvetica,sans-Serif" font-size="10.00">AtcfLine::AtcfLine</text>
</a>
</g>
</g>
<!-- Node38&#45;&gt;Node39 -->
<g id="edge39" class="edge">
<title>Node38&#45;&gt;Node39</title>
<path fill="none" stroke="midnightblue" d="M156.91,-877.24C175.62,-893.43 215.64,-925.84 255,-943.5 262.19,-946.73 270.01,-949.45 277.83,-951.73"/>
<polygon fill="midnightblue" stroke="midnightblue" points="277.14,-955.17 287.71,-954.39 278.96,-948.41 277.14,-955.17"/>
</g>
<!-- Node40 -->
<g id="node31" class="node">
<title>Node40</title>
<g id="a_node31"><a xlink:href="classAtcfLine.html#acc738a7f1329678309e649d09156d29c" target="_top" xlink:title=" ">
<polygon fill="white" stroke="black" points="282,-915 282,-934 389,-934 389,-915 282,-915"/>
<text text-anchor="middle" x="335.5" y="-922" font-family="Helvetica,sans-Serif" font-size="10.00">AtcfLine::addIsotach</text>
</a>
</g>
</g>
<!-- Node38&#45;&gt;Node40 -->
<g id="edge40" class="edge">
<title>Node38&#45;&gt;Node40</title>
<path fill="none" stroke="midnightblue" d="M171.31,-877.14C193.25,-885.3 225.96,-896.99 255,-905.5 263.41,-907.96 272.39,-910.35 281.17,-912.54"/>
<polygon fill="midnightblue" stroke="midnightblue" points="280.42,-915.96 290.97,-914.93 282.08,-909.16 280.42,-915.96"/>
</g>
<!-- Node41 -->
<g id="node32" class="node">
<title>Node41</title>
<g id="a_node32"><a xlink:href="classIsotach.html#ad8db29d5da4482e0ac19ece84e108947" target="_top" xlink:title=" ">
<polygon fill="white" stroke="red" points="273.5,-877 273.5,-896 397.5,-896 397.5,-877 273.5,-877"/>
<text text-anchor="middle" x="335.5" y="-884" font-family="Helvetica,sans-Serif" font-size="10.00">Isotach::codeFromString</text>
</a>
</g>
</g>
<!-- Node38&#45;&gt;Node41 -->
<g id="edge41" class="edge">
<title>Node38&#45;&gt;Node41</title>
<path fill="none" stroke="midnightblue" d="M204.61,-873.41C223.2,-875.28 243.96,-877.37 263.33,-879.33"/>
<polygon fill="midnightblue" stroke="midnightblue" points="263.02,-882.81 273.32,-880.33 263.72,-875.85 263.02,-882.81"/>
</g>
<!-- Node43 -->
<g id="node33" class="node">
<title>Node43</title>
<g id="a_node33"><a xlink:href="classPhysical.html#a758801eb99ef705bace966b7133d0621" target="_top" xlink:title=" ">
<polygon fill="white" stroke="red" points="288,-839 288,-858 383,-858 383,-839 288,-839"/>
<text text-anchor="middle" x="335.5" y="-846" font-family="Helvetica,sans-Serif" font-size="10.00">Physical::nmi2km</text>
</a>
</g>
</g>
<!-- Node38&#45;&gt;Node43 -->
<g id="edge45" class="edge">
<title>Node38&#45;&gt;Node43</title>
<path fill="none" stroke="midnightblue" d="M204.61,-861.59C227.96,-859.24 254.73,-856.54 277.87,-854.21"/>
<polygon fill="midnightblue" stroke="midnightblue" points="278.29,-857.68 287.89,-853.2 277.59,-850.72 278.29,-857.68"/>
</g>
<!-- Node45 -->
<g id="node34" class="node">
<title>Node45</title>
<g id="a_node34"><a xlink:href="classAtcfLine.html#aed5531012579283c189c8bafe7738fc9" target="_top" xlink:title=" ">
<polygon fill="white" stroke="black" points="266,-801 266,-820 405,-820 405,-801 266,-801"/>
<text text-anchor="middle" x="335.5" y="-808" font-family="Helvetica,sans-Serif" font-size="10.00">AtcfLine::referenceDatetime</text>
</a>
</g>
</g>
<!-- Node38&#45;&gt;Node45 -->
<g id="edge46" class="edge">
<title>Node38&#45;&gt;Node45</title>
<path fill="none" stroke="midnightblue" d="M171.31,-857.86C193.25,-849.7 225.96,-838.01 255,-829.5 263.41,-827.04 272.39,-824.65 281.17,-822.46"/>
<polygon fill="midnightblue" stroke="midnightblue" points="282.08,-825.84 290.97,-820.07 280.42,-819.04 282.08,-825.84"/>
</g>
<!-- Node46 -->
<g id="node35" class="node">
<title>Node46</title>
<g id="a_node35"><a xlink:href="classAtcfLine.html#a10cf0c5bc3997b3342597aa7ebee21b9" target="_top" xlink:title=" ">
<polygon fill="white" stroke="black" points="287,-1155 287,-1174 384,-1174 384,-1155 287,-1155"/>
<text text-anchor="middle" x="335.5" y="-1162" font-family="Helvetica,sans-Serif" font-size="10.00">AtcfLine::setBasin</text>
</a>
</g>
</g>
<!-- Node38&#45;&gt;Node46 -->
<g id="edge47" class="edge">
<title>Node38&#45;&gt;Node46</title>
<path fill="none" stroke="midnightblue" d="M146.68,-877.18C150.05,-917.07 168.36,-1070.14 255,-1145.5 261.39,-1151.06 269.12,-1155.05 277.21,-1157.92"/>
<polygon fill="midnightblue" stroke="midnightblue" points="276.24,-1161.28 286.83,-1160.79 278.24,-1154.57 276.24,-1161.28"/>
</g>
<!-- Node47 -->
<g id="node36" class="node">
<title>Node47</title>
<g id="a_node36"><a xlink:href="classAtcfLine.html#ae955293026a90f5e5288b507deebdcac" target="_top" xlink:title=" ">
<polygon fill="white" stroke="black" points="264,-1067 264,-1086 407,-1086 407,-1067 264,-1067"/>
<text text-anchor="middle" x="335.5" y="-1074" font-family="Helvetica,sans-Serif" font-size="10.00">AtcfLine::setCycloneNumber</text>
</a>
</g>
</g>
<!-- Node38&#45;&gt;Node47 -->
<g id="edge49" class="edge">
<title>Node38&#45;&gt;Node47</title>
<path fill="none" stroke="midnightblue" d="M151.93,-877.26C164.46,-897.91 194.45,-947.53 219,-989.5 235.28,-1017.34 229.77,-1032.41 255,-1052.5 260.3,-1056.72 266.34,-1060.21 272.67,-1063.08"/>
<polygon fill="midnightblue" stroke="midnightblue" points="271.5,-1066.38 282.09,-1066.86 274.11,-1059.88 271.5,-1066.38"/>
</g>
<!-- Node48 -->
<g id="node37" class="node">
<title>Node48</title>
<g id="a_node37"><a xlink:href="classAtcfLine.html#a0bad5c6c920656697893a8ddc09076de" target="_top" xlink:title=" ">
<polygon fill="white" stroke="black" points="279.5,-1231 279.5,-1250 391.5,-1250 391.5,-1231 279.5,-1231"/>
<text text-anchor="middle" x="335.5" y="-1238" font-family="Helvetica,sans-Serif" font-size="10.00">AtcfLine::setDatetime</text>
</a>
</g>
</g>
<!-- Node38&#45;&gt;Node48 -->
<g id="edge51" class="edge">
<title>Node38&#45;&gt;Node48</title>
<path fill="none" stroke="midnightblue" d="M145.77,-877.15C145.22,-923.19 149.23,-1122.3 255,-1221.5 259.38,-1225.6 264.48,-1228.87 269.94,-1231.47"/>
<polygon fill="midnightblue" stroke="midnightblue" points="268.83,-1234.79 279.42,-1235.23 271.41,-1228.28 268.83,-1234.79"/>
</g>
<!-- Node49 -->
<g id="node38" class="node">
<title>Node49</title>
<g id="a_node38"><a xlink:href="classAtcfLine.html#ae6665099efc25d2f067359712c403a28" target="_top" xlink:title=" ">
<polygon fill="white" stroke="black" points="292.5,-1307 292.5,-1326 378.5,-1326 378.5,-1307 292.5,-1307"/>
<text text-anchor="middle" x="335.5" y="-1314" font-family="Helvetica,sans-Serif" font-size="10.00">AtcfLine::setLat</text>
</a>
</g>
</g>
<!-- Node38&#45;&gt;Node49 -->
<g id="edge53" class="edge">
<title>Node38&#45;&gt;Node49</title>
<path fill="none" stroke="midnightblue" d="M147.1,-877.21C153.88,-935.18 191.67,-1235.03 255,-1297.5 262.5,-1304.9 272.34,-1309.61 282.53,-1312.56"/>
<polygon fill="midnightblue" stroke="midnightblue" points="281.81,-1315.98 292.35,-1314.88 283.42,-1309.17 281.81,-1315.98"/>
</g>
<!-- Node50 -->
<g id="node39" class="node">
<title>Node50</title>
<g id="a_node39"><a xlink:href="classAtcfLine.html#a820d2d4a882e977cc3e1a4e543067428" target="_top" xlink:title=" ">
<polygon fill="white" stroke="black" points="291.5,-991 291.5,-1010 379.5,-1010 379.5,-991 291.5,-991"/>
<text text-anchor="middle" x="335.5" y="-998" font-family="Helvetica,sans-Serif" font-size="10.00">AtcfLine::setLon</text>
</a>
</g>
</g>
<!-- Node38&#45;&gt;Node50 -->
<g id="edge55" class="edge">
<title>Node38&#45;&gt;Node50</title>
<path fill="none" stroke="midnightblue" d="M152.32,-877.23C167.3,-899.45 207.27,-954.09 255,-981.5 263.04,-986.12 272.16,-989.62 281.28,-992.27"/>
<polygon fill="midnightblue" stroke="midnightblue" points="280.57,-995.7 291.13,-994.82 282.33,-988.92 280.57,-995.7"/>
</g>
<!-- Node51 -->
<g id="node40" class="node">
<title>Node51</title>
<g id="a_node40"><a xlink:href="classAtcfLine.html#a70386cf97cc13ad4eccb2556d0339f0a" target="_top" xlink:title=" ">
<polygon fill="white" stroke="red" points="289,-763 289,-782 382,-782 382,-763 289,-763"/>
<text text-anchor="middle" x="335.5" y="-770" font-family="Helvetica,sans-Serif" font-size="10.00">AtcfLine::setMslp</text>
</a>
</g>
</g>
<!-- Node38&#45;&gt;Node51 -->
<g id="edge57" class="edge">
<title>Node38&#45;&gt;Node51</title>
<path fill="none" stroke="midnightblue" d="M156.91,-857.76C175.62,-841.57 215.64,-809.16 255,-791.5 262.63,-788.08 270.96,-785.22 279.27,-782.86"/>
<polygon fill="midnightblue" stroke="midnightblue" points="280.18,-786.23 288.96,-780.3 278.4,-779.47 280.18,-786.23"/>
</g>
<!-- Node53 -->
<g id="node41" class="node">
<title>Node53</title>
<g id="a_node41"><a xlink:href="classAtcfLine.html#ae091671d04a10571b3788f0e2877ee32" target="_top" xlink:title=" ">
<polygon fill="white" stroke="red" points="285,-725 285,-744 386,-744 386,-725 285,-725"/>
<text text-anchor="middle" x="335.5" y="-732" font-family="Helvetica,sans-Serif" font-size="10.00">AtcfLine::setPouter</text>
</a>
</g>
</g>
<!-- Node38&#45;&gt;Node53 -->
<g id="edge58" class="edge">
<title>Node38&#45;&gt;Node53</title>
<path fill="none" stroke="midnightblue" d="M152.32,-857.77C167.3,-835.55 207.27,-780.91 255,-753.5 261.26,-749.91 268.17,-746.99 275.23,-744.62"/>
<polygon fill="midnightblue" stroke="midnightblue" points="276.32,-747.95 284.9,-741.73 274.31,-741.24 276.32,-747.95"/>
</g>
<!-- Node55 -->
<g id="node42" class="node">
<title>Node55</title>
<g id="a_node42"><a xlink:href="classAtcfLine.html#a34c654291dd08cde0d1de4fb6d0a3704" target="_top" xlink:title=" ">
<polygon fill="white" stroke="red" points="270,-687 270,-706 401,-706 401,-687 270,-687"/>
<text text-anchor="middle" x="335.5" y="-694" font-family="Helvetica,sans-Serif" font-size="10.00">AtcfLine::setRadiusPouter</text>
</a>
</g>
</g>
<!-- Node38&#45;&gt;Node55 -->
<g id="edge59" class="edge">
<title>Node38&#45;&gt;Node55</title>
<path fill="none" stroke="midnightblue" d="M149.98,-857.84C161.66,-830.71 198.67,-753.35 255,-715.5 258.07,-713.44 261.33,-711.6 264.72,-709.96"/>
<polygon fill="midnightblue" stroke="midnightblue" points="266.09,-713.18 273.94,-706.07 263.37,-706.73 266.09,-713.18"/>
</g>
<!-- Node57 -->
<g id="node43" class="node">
<title>Node57</title>
<g id="a_node43"><a xlink:href="classAtcfLine.html#a0fc89ec97a25a3e2a23bbc3c2b4bda56" target="_top" xlink:title=" ">
<polygon fill="white" stroke="black" points="257,-1193 257,-1212 414,-1212 414,-1193 257,-1193"/>
<text text-anchor="middle" x="335.5" y="-1200" font-family="Helvetica,sans-Serif" font-size="10.00">AtcfLine::setReferenceDatetime</text>
</a>
</g>
</g>
<!-- Node38&#45;&gt;Node57 -->
<g id="edge60" class="edge">
<title>Node38&#45;&gt;Node57</title>
<path fill="none" stroke="midnightblue" d="M146.18,-877.27C147.52,-920.52 158.92,-1096.37 255,-1183.5 256.71,-1185.05 258.52,-1186.48 260.41,-1187.8"/>
<polygon fill="midnightblue" stroke="midnightblue" points="258.79,-1190.9 269.2,-1192.89 262.3,-1184.85 258.79,-1190.9"/>
</g>
<!-- Node58 -->
<g id="node44" class="node">
<title>Node58</title>
<g id="a_node44"><a xlink:href="classAtcfLine.html#ad57a2b2bb9a17190f60c202bcc91f7c1" target="_top" xlink:title=" ">
<polygon fill="white" stroke="black" points="291.5,-611 291.5,-630 379.5,-630 379.5,-611 291.5,-611"/>
<text text-anchor="middle" x="335.5" y="-618" font-family="Helvetica,sans-Serif" font-size="10.00">AtcfLine::setTau</text>
</a>
</g>
</g>
<!-- Node38&#45;&gt;Node58 -->
<g id="edge62" class="edge">
<title>Node38&#45;&gt;Node58</title>
<path fill="none" stroke="midnightblue" d="M147.86,-857.77C154.98,-823.19 183.76,-705.07 255,-644.5 262.66,-637.99 272.05,-633.24 281.65,-629.78"/>
<polygon fill="midnightblue" stroke="midnightblue" points="282.8,-633.09 291.28,-626.74 280.69,-626.42 282.8,-633.09"/>
</g>
<!-- Node59 -->
<g id="node45" class="node">
<title>Node59</title>
<g id="a_node45"><a xlink:href="classAtcfLine.html#a70da9c9b2893017befb42f0692c0de03" target="_top" xlink:title=" ">
<polygon fill="white" stroke="black" points="479.5,-630 479.5,-649 551.5,-649 551.5,-630 479.5,-630"/>
<text text-anchor="middle" x="515.5" y="-637" font-family="Helvetica,sans-Serif" font-size="10.00">AtcfLine::tau</text>
</a>
</g>
</g>
<!-- Node38&#45;&gt;Node59 -->
<g id="edge68" class="edge">
<title>Node38&#45;&gt;Node59</title>
<path fill="none" stroke="midnightblue" d="M148.29,-857.98C156.47,-826.25 187.41,-723.51 255,-677.5 288.96,-654.38 403.98,-644.97 468.91,-641.43"/>
<polygon fill="midnightblue" stroke="midnightblue" points="469.47,-644.91 479.27,-640.9 469.1,-637.92 469.47,-644.91"/>
</g>
<!-- Node60 -->
<g id="node46" class="node">
<title>Node60</title>
<g id="a_node46"><a xlink:href="classAtcfLine.html#a4fa34cd3a6f778e4403e176ea1f3541f" target="_top" xlink:title=" ">
<polygon fill="white" stroke="red" points="279.5,-573 279.5,-592 391.5,-592 391.5,-573 279.5,-573"/>
<text text-anchor="middle" x="335.5" y="-580" font-family="Helvetica,sans-Serif" font-size="10.00">AtcfLine::setTechnum</text>
</a>
</g>
</g>
<!-- Node38&#45;&gt;Node60 -->
<g id="edge64" class="edge">
<title>Node38&#45;&gt;Node60</title>
<path fill="none" stroke="midnightblue" d="M146.86,-857.97C150.86,-819.36 171.23,-673.25 255,-601.5 259.49,-597.66 264.62,-594.56 270.07,-592.07"/>
<polygon fill="midnightblue" stroke="midnightblue" points="271.41,-595.3 279.47,-588.43 268.88,-588.77 271.41,-595.3"/>
</g>
<!-- Node62 -->
<g id="node47" class="node">
<title>Node62</title>
<g id="a_node47"><a xlink:href="classAtcfLine.html#abdb3c2bffc3702fa3e4f9536d9f541f3" target="_top" xlink:title=" ">
<polygon fill="white" stroke="red" points="277,-535 277,-554 394,-554 394,-535 277,-535"/>
<text text-anchor="middle" x="335.5" y="-542" font-family="Helvetica,sans-Serif" font-size="10.00">AtcfLine::setTechstring</text>
</a>
</g>
</g>
<!-- Node38&#45;&gt;Node62 -->
<g id="edge65" class="edge">
<title>Node38&#45;&gt;Node62</title>
<path fill="none" stroke="midnightblue" d="M146.32,-857.81C148.28,-815.69 161.88,-646.93 255,-563.5 258.7,-560.18 262.88,-557.42 267.33,-555.12"/>
<polygon fill="midnightblue" stroke="midnightblue" points="269.02,-558.2 276.8,-551.01 266.23,-551.78 269.02,-558.2"/>
</g>
<!-- Node64 -->
<g id="node48" class="node">
<title>Node64</title>
<g id="a_node48"><a xlink:href="classAtcfLine.html#a946c6bb3652bb5510a52cd7e7f22fac7" target="_top" xlink:title=" ">
<polygon fill="white" stroke="red" points="286.5,-497 286.5,-516 384.5,-516 384.5,-497 286.5,-497"/>
<text text-anchor="middle" x="335.5" y="-504" font-family="Helvetica,sans-Serif" font-size="10.00">AtcfLine::setVmax</text>
</a>
</g>
</g>
<!-- Node38&#45;&gt;Node64 -->
<g id="edge66" class="edge">
<title>Node38&#45;&gt;Node64</title>
<path fill="none" stroke="midnightblue" d="M145.89,-857.87C145.92,-812.8 152.26,-620.91 255,-525.5 261.2,-519.74 268.83,-515.63 276.89,-512.72"/>
<polygon fill="midnightblue" stroke="midnightblue" points="277.92,-516.06 286.48,-509.82 275.89,-509.36 277.92,-516.06"/>
</g>
<!-- Node66 -->
<g id="node49" class="node">
<title>Node66</title>
<g id="a_node49"><a xlink:href="classAtcfLine.html#a86d591997eedb1660c07467b712d6bbc" target="_top" xlink:title=" ">
<polygon fill="white" stroke="black" points="284.5,-459 284.5,-478 386.5,-478 386.5,-459 284.5,-459"/>
<text text-anchor="middle" x="335.5" y="-466" font-family="Helvetica,sans-Serif" font-size="10.00">AtcfLine::splitString</text>
</a>
</g>
</g>
<!-- Node38&#45;&gt;Node66 -->
<g id="edge67" class="edge">
<title>Node38&#45;&gt;Node66</title>
<path fill="none" stroke="midnightblue" d="M145.53,-857.8C143.78,-809.73 142.65,-594.94 255,-487.5 260.5,-482.24 267.18,-478.35 274.32,-475.49"/>
<polygon fill="midnightblue" stroke="midnightblue" points="275.86,-478.66 284.25,-472.19 273.65,-472.02 275.86,-478.66"/>
</g>
<!-- Node46&#45;&gt;Node34 -->
<g id="edge48" class="edge">
<title>Node46&#45;&gt;Node34</title>
<path fill="none" stroke="midnightblue" d="M384.2,-1167.98C408.91,-1169.79 439.08,-1171.99 464.16,-1173.82"/>
<polygon fill="midnightblue" stroke="midnightblue" points="463.98,-1177.32 474.21,-1174.56 464.49,-1170.34 463.98,-1177.32"/>
</g>
<!-- Node47&#45;&gt;Node36 -->
<g id="edge50" class="edge">
<title>Node47&#45;&gt;Node36</title>
<path fill="none" stroke="midnightblue" d="M407.11,-1071.34C418.4,-1070.52 430.11,-1069.66 441.46,-1068.83"/>
<polygon fill="midnightblue" stroke="midnightblue" points="442.04,-1072.3 451.76,-1068.08 441.54,-1065.32 442.04,-1072.3"/>
</g>
<!-- Node48&#45;&gt;Node6 -->
<g id="edge52" class="edge">
<title>Node48&#45;&gt;Node6</title>
<path fill="none" stroke="midnightblue" d="M391.84,-1232.73C412.63,-1229.81 436.29,-1226.48 457.24,-1223.54"/>
<polygon fill="midnightblue" stroke="midnightblue" points="457.87,-1226.99 467.29,-1222.13 456.9,-1220.06 457.87,-1226.99"/>
</g>
<!-- Node49&#45;&gt;Node7 -->
<g id="edge54" class="edge">
<title>Node49&#45;&gt;Node7</title>
<path fill="none" stroke="midnightblue" d="M378.68,-1319.58C406.4,-1321.6 442.58,-1324.25 470.62,-1326.3"/>
<polygon fill="midnightblue" stroke="midnightblue" points="470.71,-1329.81 480.94,-1327.05 471.22,-1322.83 470.71,-1329.81"/>
</g>
<!-- Node50&#45;&gt;Node8 -->
<g id="edge56" class="edge">
<title>Node50&#45;&gt;Node8</title>
<path fill="none" stroke="midnightblue" d="M379.59,-1006.55C406.87,-1010.38 442.07,-1015.33 469.68,-1019.2"/>
<polygon fill="midnightblue" stroke="midnightblue" points="469.46,-1022.71 479.85,-1020.63 470.44,-1015.78 469.46,-1022.71"/>
</g>
<!-- Node57&#45;&gt;Node6 -->
<g id="edge61" class="edge">
<title>Node57&#45;&gt;Node6</title>
<path fill="none" stroke="midnightblue" d="M414.06,-1208.16C428.54,-1209.22 443.43,-1210.31 457.17,-1211.31"/>
<polygon fill="midnightblue" stroke="midnightblue" points="457.19,-1214.82 467.42,-1212.06 457.7,-1207.84 457.19,-1214.82"/>
</g>
<!-- Node58&#45;&gt;Node59 -->
<g id="edge63" class="edge">
<title>Node58&#45;&gt;Node59</title>
<path fill="none" stroke="midnightblue" d="M379.59,-625.1C406.69,-627.99 441.6,-631.72 469.12,-634.66"/>
<polygon fill="midnightblue" stroke="midnightblue" points="468.96,-638.16 479.28,-635.74 469.7,-631.2 468.96,-638.16"/>
</g>
</g>
</svg>
