<?xml version="1.0" encoding="UTF-8" standalone="no"?>
<!DOCTYPE svg PUBLIC "-//W3C//DTD SVG 1.1//EN"
 "http://www.w3.org/Graphics/SVG/1.1/DTD/svg11.dtd">
<!-- Generated by graphviz version 2.47.1 (20210417.1919)
 -->
<!-- Title: Isotach Pages: 1 -->
<svg width="314pt" height="535pt"
 viewBox="0.00 0.00 314.00 535.00" xmlns="http://www.w3.org/2000/svg" xmlns:xlink="http://www.w3.org/1999/xlink">
<g id="graph0" class="graph" transform="scale(1 1) rotate(0) translate(4 531)">
<title>Isotach</title>
<polygon fill="white" stroke="transparent" points="-4,4 -4,-531 310,-531 310,4 -4,4"/>
<!-- Node1 -->
<g id="node1" class="node">
<title>Node1</title>
<g id="a_node1"><a xlink:title=" ">
<polygon fill="#bfbfbf" stroke="black" points="102.5,-0.5 102.5,-211.5 203.5,-211.5 203.5,-0.5 102.5,-0.5"/>
<text text-anchor="middle" x="153" y="-199.5" font-family="Helvetica,sans-Serif" font-size="10.00">Isotach</text>
<polyline fill="none" stroke="black" points="102.5,-192.5 203.5,-192.5 "/>
<text text-anchor="start" x="110.5" y="-180.5" font-family="Helvetica,sans-Serif" font-size="10.00">&#45; m_radiusCode</text>
<text text-anchor="start" x="110.5" y="-169.5" font-family="Helvetica,sans-Serif" font-size="10.00">&#45; m_windSpeed</text>
<polyline fill="none" stroke="black" points="102.5,-162.5 203.5,-162.5 "/>
<text text-anchor="start" x="110.5" y="-150.5" font-family="Helvetica,sans-Serif" font-size="10.00">+ Isotach()</text>
<text text-anchor="start" x="110.5" y="-139.5" font-family="Helvetica,sans-Serif" font-size="10.00">+ Isotach()</text>
<text text-anchor="start" x="110.5" y="-128.5" font-family="Helvetica,sans-Serif" font-size="10.00">+ code()</text>
<text text-anchor="start" x="110.5" y="-117.5" font-family="Helvetica,sans-Serif" font-size="10.00">+ lookupRadii()</text>
<text text-anchor="start" x="110.5" y="-106.5" font-family="Helvetica,sans-Serif" font-size="10.00">+ quadflag()</text>
<text text-anchor="start" x="110.5" y="-95.5" font-family="Helvetica,sans-Serif" font-size="10.00">+ radii()</text>
<text text-anchor="start" x="110.5" y="-84.5" font-family="Helvetica,sans-Serif" font-size="10.00">+ radiusCode()</text>
<text text-anchor="start" x="110.5" y="-73.5" font-family="Helvetica,sans-Serif" font-size="10.00">+ radiusQ1()</text>
<text text-anchor="start" x="110.5" y="-62.5" font-family="Helvetica,sans-Serif" font-size="10.00">+ radiusQ2()</text>
<text text-anchor="start" x="110.5" y="-51.5" font-family="Helvetica,sans-Serif" font-size="10.00">+ radiusQ3()</text>
<text text-anchor="start" x="110.5" y="-40.5" font-family="Helvetica,sans-Serif" font-size="10.00">and 14 more...</text>
<text text-anchor="start" x="110.5" y="-29.5" font-family="Helvetica,sans-Serif" font-size="10.00">+ codeFromString()</text>
<text text-anchor="start" x="110.5" y="-18.5" font-family="Helvetica,sans-Serif" font-size="10.00">+ isNull()</text>
<text text-anchor="start" x="110.5" y="-7.5" font-family="Helvetica,sans-Serif" font-size="10.00">+ stringFromCode()</text>
</a>
</g>
</g>
<!-- Node2 -->
<g id="node2" class="node">
<title>Node2</title>
<g id="a_node2"><a xlink:title=" ">
<polygon fill="white" stroke="#bfbfbf" points="0,-259.5 0,-316.5 96,-316.5 96,-259.5 0,-259.5"/>
<text text-anchor="middle" x="48" y="-304.5" font-family="Helvetica,sans-Serif" font-size="10.00">array&lt; double, 6 &gt;</text>
<polyline fill="none" stroke="#bfbfbf" points="0,-297.5 96,-297.5 "/>
<text text-anchor="start" x="8" y="-285.5" font-family="Helvetica,sans-Serif" font-size="10.00">+ elements</text>
<polyline fill="none" stroke="#bfbfbf" points="0,-278.5 96,-278.5 "/>
<text text-anchor="middle" x="48" y="-266.5" font-family="Helvetica,sans-Serif" font-size="10.00"> </text>
</a>
</g>
</g>
<!-- Node2&#45;&gt;Node1 -->
<g id="edge1" class="edge">
<title>Node2&#45;&gt;Node1</title>
<path fill="none" stroke="#404040" d="M61.56,-259.21C66.28,-249.85 71.72,-239.39 77,-230 83.01,-219.3 89.5,-208.21 96.06,-197.26"/>
<polygon fill="none" stroke="#404040" points="96.16,-197.09 95.83,-189.89 102.36,-186.82 102.68,-194.02 96.16,-197.09"/>
<text text-anchor="middle" x="113" y="-233" font-family="Helvetica,sans-Serif" font-size="10.00"> &#45;m_lookup_radii</text>
</g>
<!-- Node3 -->
<g id="node3" class="node">
<title>Node3</title>
<g id="a_node3"><a xlink:title=" ">
<polygon fill="white" stroke="#bfbfbf" points="122,-364.5 122,-421.5 184,-421.5 184,-364.5 122,-364.5"/>
<text text-anchor="middle" x="153" y="-409.5" font-family="Helvetica,sans-Serif" font-size="10.00">array&lt; T &gt;</text>
<polyline fill="none" stroke="#bfbfbf" points="122,-402.5 184,-402.5 "/>
<text text-anchor="middle" x="153" y="-390.5" font-family="Helvetica,sans-Serif" font-size="10.00"> </text>
<polyline fill="none" stroke="#bfbfbf" points="122,-383.5 184,-383.5 "/>
<text text-anchor="middle" x="153" y="-371.5" font-family="Helvetica,sans-Serif" font-size="10.00"> </text>
</a>
</g>
</g>
<!-- Node3&#45;&gt;Node2 -->
<g id="edge2" class="edge">
<title>Node3&#45;&gt;Node2</title>
<path fill="none" stroke="orange" d="M113.48,-367.3C104.63,-360.9 95.62,-353.65 88,-346 79.3,-337.26 71.18,-326.44 64.56,-316.58"/>
<polygon fill="orange" stroke="orange" points="111.66,-370.3 121.87,-373.16 115.67,-364.56 111.66,-370.3"/>
<text text-anchor="middle" x="118.5" y="-338" font-family="Helvetica,sans-Serif" font-size="10.00"> &lt; double, 6 &gt;</text>
</g>
<!-- Node5 -->
<g id="node5" class="node">
<title>Node5</title>
<g id="a_node5"><a xlink:title=" ">
<polygon fill="white" stroke="#bfbfbf" points="114,-259.5 114,-316.5 192,-316.5 192,-259.5 114,-259.5"/>
<text text-anchor="middle" x="153" y="-304.5" font-family="Helvetica,sans-Serif" font-size="10.00">array&lt; int, 4 &gt;</text>
<polyline fill="none" stroke="#bfbfbf" points="114,-297.5 192,-297.5 "/>
<text text-anchor="start" x="122" y="-285.5" font-family="Helvetica,sans-Serif" font-size="10.00">+ elements</text>
<polyline fill="none" stroke="#bfbfbf" points="114,-278.5 192,-278.5 "/>
<text text-anchor="middle" x="153" y="-266.5" font-family="Helvetica,sans-Serif" font-size="10.00"> </text>
</a>
</g>
</g>
<!-- Node3&#45;&gt;Node5 -->
<g id="edge5" class="edge">
<title>Node3&#45;&gt;Node5</title>
<path fill="none" stroke="orange" d="M153,-354.29C153,-341.84 153,-328.23 153,-316.68"/>
<polygon fill="orange" stroke="orange" points="149.5,-354.4 153,-364.4 156.5,-354.4 149.5,-354.4"/>
<text text-anchor="middle" x="174.5" y="-338" font-family="Helvetica,sans-Serif" font-size="10.00"> &lt; int, 4 &gt;</text>
</g>
<!-- Node6 -->
<g id="node6" class="node">
<title>Node6</title>
<g id="a_node6"><a xlink:title=" ">
<polygon fill="white" stroke="#bfbfbf" points="210,-259.5 210,-316.5 306,-316.5 306,-259.5 210,-259.5"/>
<text text-anchor="middle" x="258" y="-304.5" font-family="Helvetica,sans-Serif" font-size="10.00">array&lt; double, 4 &gt;</text>
<polyline fill="none" stroke="#bfbfbf" points="210,-297.5 306,-297.5 "/>
<text text-anchor="start" x="218" y="-285.5" font-family="Helvetica,sans-Serif" font-size="10.00">+ elements</text>
<polyline fill="none" stroke="#bfbfbf" points="210,-278.5 306,-278.5 "/>
<text text-anchor="middle" x="258" y="-266.5" font-family="Helvetica,sans-Serif" font-size="10.00"> </text>
</a>
</g>
</g>
<!-- Node3&#45;&gt;Node6 -->
<g id="edge7" class="edge">
<title>Node3&#45;&gt;Node6</title>
<path fill="none" stroke="orange" d="M188.65,-357.12C192.49,-353.37 196.32,-349.61 200,-346 209.78,-336.41 220.47,-325.91 229.99,-316.55"/>
<polygon fill="orange" stroke="orange" points="186.04,-354.78 181.34,-364.28 190.94,-359.78 186.04,-354.78"/>
<text text-anchor="middle" x="241.5" y="-338" font-family="Helvetica,sans-Serif" font-size="10.00"> &lt; double, 4 &gt;</text>
</g>
<!-- Node4 -->
<g id="node4" class="node">
<title>Node4</title>
<g id="a_node4"><a xlink:title=" ">
<polygon fill="white" stroke="#bfbfbf" points="138.5,-469.5 138.5,-526.5 167.5,-526.5 167.5,-469.5 138.5,-469.5"/>
<text text-anchor="middle" x="153" y="-514.5" font-family="Helvetica,sans-Serif" font-size="10.00">T</text>
<polyline fill="none" stroke="#bfbfbf" points="138.5,-507.5 167.5,-507.5 "/>
<text text-anchor="middle" x="153" y="-495.5" font-family="Helvetica,sans-Serif" font-size="10.00"> </text>
<polyline fill="none" stroke="#bfbfbf" points="138.5,-488.5 167.5,-488.5 "/>
<text text-anchor="middle" x="153" y="-476.5" font-family="Helvetica,sans-Serif" font-size="10.00"> </text>
</a>
</g>
</g>
<!-- Node4&#45;&gt;Node3 -->
<g id="edge3" class="edge">
<title>Node4&#45;&gt;Node3</title>
<path fill="none" stroke="#404040" d="M153,-469.4C153,-458.55 153,-445.87 153,-434.05"/>
<polygon fill="none" stroke="#404040" points="153,-433.68 149,-427.68 153,-421.68 157,-427.68 153,-433.68"/>
<text text-anchor="middle" x="177.5" y="-443" font-family="Helvetica,sans-Serif" font-size="10.00"> +elements</text>
</g>
<!-- Node5&#45;&gt;Node1 -->
<g id="edge4" class="edge">
<title>Node5&#45;&gt;Node1</title>
<path fill="none" stroke="#404040" d="M153,-259.27C153,-249.15 153,-236.98 153,-223.97"/>
<polygon fill="none" stroke="#404040" points="153,-223.83 149,-217.83 153,-211.83 157,-217.83 153,-223.83"/>
<text text-anchor="middle" x="181.5" y="-233" font-family="Helvetica,sans-Serif" font-size="10.00"> &#45;m_quadflag</text>
</g>
<!-- Node6&#45;&gt;Node1 -->
<g id="edge6" class="edge">
<title>Node6&#45;&gt;Node1</title>
<path fill="none" stroke="#404040" d="M241.82,-259.27C233.01,-244.15 221.51,-224.44 209.72,-204.24"/>
<polygon fill="none" stroke="#404040" points="209.59,-204.02 203.11,-200.85 203.55,-193.65 210.02,-196.82 209.59,-204.02"/>
<text text-anchor="middle" x="252" y="-233" font-family="Helvetica,sans-Serif" font-size="10.00"> &#45;m_radius</text>
</g>
</g>
</svg>
