<?xml version="1.0" encoding="UTF-8" standalone="no"?>
<!DOCTYPE svg PUBLIC "-//W3C//DTD SVG 1.1//EN"
 "http://www.w3.org/Graphics/SVG/1.1/DTD/svg11.dtd">
<!-- Generated by graphviz version 2.47.1 (20210417.1919)
 -->
<!-- Title: second Pages: 1 -->
<svg width="155pt" height="104pt"
 viewBox="0.00 0.00 155.00 104.00" xmlns="http://www.w3.org/2000/svg" xmlns:xlink="http://www.w3.org/1999/xlink">
<g id="graph0" class="graph" transform="scale(1 1) rotate(0) translate(4 100)">
<title>second</title>
<polygon fill="white" stroke="transparent" points="-4,4 -4,-100 151,-100 151,4 -4,4"/>
<!-- Node1 -->
<g id="node1" class="node">
<title>Node1</title>
<g id="a_node1"><a xlink:title=" ">
<polygon fill="#bfbfbf" stroke="black" points="99,-38.5 99,-57.5 147,-57.5 147,-38.5 99,-38.5"/>
<text text-anchor="middle" x="123" y="-45.5" font-family="Helvetica,sans-Serif" font-size="10.00">second</text>
</a>
</g>
</g>
<!-- Node2 -->
<g id="node2" class="node">
<title>Node2</title>
<g id="a_node2"><a xlink:href="classDate.html#a47ce47ac7778de3dce27a562e584fef3" target="_top" xlink:title=" ">
<polygon fill="white" stroke="black" points="12.5,-76.5 12.5,-95.5 50.5,-95.5 50.5,-76.5 12.5,-76.5"/>
<text text-anchor="middle" x="31.5" y="-83.5" font-family="Helvetica,sans-Serif" font-size="10.00">Date</text>
</a>
</g>
</g>
<!-- Node1&#45;&gt;Node2 -->
<g id="edge1" class="edge">
<title>Node1&#45;&gt;Node2</title>
<path fill="none" stroke="midnightblue" d="M90.11,-61.54C76.83,-67.18 61.91,-73.52 50.57,-78.33"/>
<polygon fill="midnightblue" stroke="midnightblue" points="91.58,-64.72 99.42,-57.59 88.84,-58.28 91.58,-64.72"/>
</g>
<!-- Node3 -->
<g id="node3" class="node">
<title>Node3</title>
<g id="a_node3"><a xlink:href="classDate.html#a8d61659598ea0751255bb23274852ec3" target="_top" xlink:title=" ">
<polygon fill="white" stroke="black" points="16.5,-38.5 16.5,-57.5 46.5,-57.5 46.5,-38.5 16.5,-38.5"/>
<text text-anchor="middle" x="31.5" y="-45.5" font-family="Helvetica,sans-Serif" font-size="10.00">set</text>
</a>
</g>
</g>
<!-- Node1&#45;&gt;Node3 -->
<g id="edge2" class="edge">
<title>Node1&#45;&gt;Node3</title>
<path fill="none" stroke="midnightblue" d="M88.74,-48C74.15,-48 57.82,-48 46.53,-48"/>
<polygon fill="midnightblue" stroke="midnightblue" points="88.95,-51.5 98.95,-48 88.95,-44.5 88.95,-51.5"/>
</g>
<!-- Node4 -->
<g id="node4" class="node">
<title>Node4</title>
<g id="a_node4"><a xlink:href="classDate.html#a9b161ba26e10475d04e8030837e67e7f" target="_top" xlink:title=" ">
<polygon fill="white" stroke="black" points="0,-0.5 0,-19.5 63,-19.5 63,-0.5 0,-0.5"/>
<text text-anchor="middle" x="31.5" y="-7.5" font-family="Helvetica,sans-Serif" font-size="10.00">setSecond</text>
</a>
</g>
</g>
<!-- Node1&#45;&gt;Node4 -->
<g id="edge3" class="edge">
<title>Node1&#45;&gt;Node4</title>
<path fill="none" stroke="midnightblue" d="M90.07,-34.44C78.5,-29.53 65.68,-24.09 55.08,-19.59"/>
<polygon fill="midnightblue" stroke="midnightblue" points="88.84,-37.72 99.42,-38.41 91.58,-31.28 88.84,-37.72"/>
</g>
</g>
</svg>
