<?xml version="1.0" encoding="UTF-8" standalone="no"?>
<!DOCTYPE svg PUBLIC "-//W3C//DTD SVG 1.1//EN"
 "http://www.w3.org/Graphics/SVG/1.1/DTD/svg11.dtd">
<!-- Generated by graphviz version 2.47.1 (20210417.1919)
 -->
<!-- Title: millisecond Pages: 1 -->
<svg width="147pt" height="66pt"
 viewBox="0.00 0.00 147.00 66.00" xmlns="http://www.w3.org/2000/svg" xmlns:xlink="http://www.w3.org/1999/xlink">
<g id="graph0" class="graph" transform="scale(1 1) rotate(0) translate(4 62)">
<title>millisecond</title>
<polygon fill="white" stroke="transparent" points="-4,4 -4,-62 143,-62 143,4 -4,4"/>
<!-- Node1 -->
<g id="node1" class="node">
<title>Node1</title>
<g id="a_node1"><a xlink:title=" ">
<polygon fill="#bfbfbf" stroke="black" points="74,-19.5 74,-38.5 139,-38.5 139,-19.5 74,-19.5"/>
<text text-anchor="middle" x="106.5" y="-26.5" font-family="Helvetica,sans-Serif" font-size="10.00">millisecond</text>
</a>
</g>
</g>
<!-- Node2 -->
<g id="node2" class="node">
<title>Node2</title>
<g id="a_node2"><a xlink:href="classDate.html#a47ce47ac7778de3dce27a562e584fef3" target="_top" xlink:title=" ">
<polygon fill="white" stroke="black" points="0,-38.5 0,-57.5 38,-57.5 38,-38.5 0,-38.5"/>
<text text-anchor="middle" x="19" y="-45.5" font-family="Helvetica,sans-Serif" font-size="10.00">Date</text>
</a>
</g>
</g>
<!-- Node1&#45;&gt;Node2 -->
<g id="edge1" class="edge">
<title>Node1&#45;&gt;Node2</title>
<path fill="none" stroke="midnightblue" d="M63.66,-38.3C54.7,-40.29 45.69,-42.29 38.2,-43.95"/>
<polygon fill="midnightblue" stroke="midnightblue" points="64.66,-41.66 73.66,-36.07 63.14,-34.83 64.66,-41.66"/>
</g>
<!-- Node3 -->
<g id="node3" class="node">
<title>Node3</title>
<g id="a_node3"><a xlink:href="classDate.html#a8d61659598ea0751255bb23274852ec3" target="_top" xlink:title=" ">
<polygon fill="white" stroke="black" points="4,-0.5 4,-19.5 34,-19.5 34,-0.5 4,-0.5"/>
<text text-anchor="middle" x="19" y="-7.5" font-family="Helvetica,sans-Serif" font-size="10.00">set</text>
</a>
</g>
</g>
<!-- Node1&#45;&gt;Node3 -->
<g id="edge2" class="edge">
<title>Node1&#45;&gt;Node3</title>
<path fill="none" stroke="midnightblue" d="M63.68,-19.71C53.15,-17.37 42.55,-15.01 34.43,-13.21"/>
<polygon fill="midnightblue" stroke="midnightblue" points="63.14,-23.17 73.66,-21.93 64.66,-16.34 63.14,-23.17"/>
</g>
</g>
</svg>
