<?xml version="1.0" encoding="UTF-8" standalone="no"?>
<!DOCTYPE svg PUBLIC "-//W3C//DTD SVG 1.1//EN"
 "http://www.w3.org/Graphics/SVG/1.1/DTD/svg11.dtd">
<!-- Generated by graphviz version 2.47.1 (20210417.1919)
 -->
<!-- Title: Isotach Pages: 1 -->
<!--zoomable 1119 -->
<svg id="main" version="1.1" xmlns="http://www.w3.org/2000/svg" xmlns:xlink="http://www.w3.org/1999/xlink" xml:space="preserve" onload="init(evt)">
<style type="text/css"><![CDATA[
.edge:hover path { stroke: red; }
.edge:hover polygon { stroke: red; fill: red; }
]]></style>
<script type="text/javascript"><![CDATA[
var edges = document.getElementsByTagName('g');
if (edges && edges.length) {
  for (var i=0;i<edges.length;i++) {
    if (edges[i].id.substr(0,4)=='edge') {
      edges[i].setAttribute('class','edge');
    }
  }
}
]]></script>
        <defs>
                <circle id="rim" cx="0" cy="0" r="7"/>
                <circle id="rim2" cx="0" cy="0" r="3.5"/>
                <g id="zoomPlus">
                        <use xlink:href="#rim" fill="#404040">
                                <set attributeName="fill" to="#808080" begin="zoomplus.mouseover" end="zoomplus.mouseout"/>
                        </use>
                        <path d="M-4,0h8M0,-4v8" fill="none" stroke="white" stroke-width="1.5" pointer-events="none"/>
                </g>
                <g id="zoomMin">
                        <use xlink:href="#rim" fill="#404040">
                                <set attributeName="fill" to="#808080" begin="zoomminus.mouseover" end="zoomminus.mouseout"/>
                        </use>
                        <path d="M-4,0h8" fill="none" stroke="white" stroke-width="1.5" pointer-events="none"/>
                </g>
                <g id="dirArrow">
                        <path fill="none" stroke="white" stroke-width="1.5" d="M0,-3.0v7 M-2.5,-0.5L0,-3.0L2.5,-0.5"/>
                </g>
               <g id="resetDef">
                       <use xlink:href="#rim2" fill="#404040">
                               <set attributeName="fill" to="#808080" begin="reset.mouseover" end="reset.mouseout"/>
                       </use>
               </g>
        </defs>

<script type="text/javascript">
var viewWidth = 278;
var viewHeight = 1119;
var sectionId = 'dynsection-0';
</script>
<script xlink:href="svgpan.js"/>
<svg id="graph" class="graph">
<g id="viewport">
<title>Isotach</title>
<polygon fill="white" stroke="transparent" points="-4,4 -4,-1115 274,-1115 274,4 -4,4"/>
<!-- Node1 -->
<g id="node1" class="node">
<title>Node1</title>
<g id="a_node1"><a xlink:title=" ">
<polygon fill="#bfbfbf" stroke="black" points="81,-0.5 81,-211.5 182,-211.5 182,-0.5 81,-0.5"/>
<text text-anchor="middle" x="131.5" y="-199.5" font-family="Helvetica,sans-Serif" font-size="10.00">Isotach</text>
<polyline fill="none" stroke="black" points="81,-192.5 182,-192.5 "/>
<text text-anchor="start" x="89" y="-180.5" font-family="Helvetica,sans-Serif" font-size="10.00">&#45; m_radiusCode</text>
<text text-anchor="start" x="89" y="-169.5" font-family="Helvetica,sans-Serif" font-size="10.00">&#45; m_windSpeed</text>
<polyline fill="none" stroke="black" points="81,-162.5 182,-162.5 "/>
<text text-anchor="start" x="89" y="-150.5" font-family="Helvetica,sans-Serif" font-size="10.00">+ Isotach()</text>
<text text-anchor="start" x="89" y="-139.5" font-family="Helvetica,sans-Serif" font-size="10.00">+ Isotach()</text>
<text text-anchor="start" x="89" y="-128.5" font-family="Helvetica,sans-Serif" font-size="10.00">+ chollandB()</text>
<text text-anchor="start" x="89" y="-117.5" font-family="Helvetica,sans-Serif" font-size="10.00">+ cisotachRadius()</text>
<text text-anchor="start" x="89" y="-106.5" font-family="Helvetica,sans-Serif" font-size="10.00">+ code()</text>
<text text-anchor="start" x="89" y="-95.5" font-family="Helvetica,sans-Serif" font-size="10.00">+ cphi()</text>
<text text-anchor="start" x="89" y="-84.5" font-family="Helvetica,sans-Serif" font-size="10.00">+ cquadFlag()</text>
<text text-anchor="start" x="89" y="-73.5" font-family="Helvetica,sans-Serif" font-size="10.00">+ cquadrantVr()</text>
<text text-anchor="start" x="89" y="-62.5" font-family="Helvetica,sans-Serif" font-size="10.00">+ crmax()</text>
<text text-anchor="start" x="89" y="-51.5" font-family="Helvetica,sans-Serif" font-size="10.00">+ cvmaxBl()</text>
<text text-anchor="start" x="89" y="-40.5" font-family="Helvetica,sans-Serif" font-size="10.00">and 13 more...</text>
<text text-anchor="start" x="89" y="-29.5" font-family="Helvetica,sans-Serif" font-size="10.00">+ codeFromString()</text>
<text text-anchor="start" x="89" y="-18.5" font-family="Helvetica,sans-Serif" font-size="10.00">+ isNull()</text>
<text text-anchor="start" x="89" y="-7.5" font-family="Helvetica,sans-Serif" font-size="10.00">+ stringFromCode()</text>
</a>
</g>
</g>
<!-- Node2 -->
<g id="node2" class="node">
<title>Node2</title>
<g id="a_node2"><a xlink:href="classCircularArray.html" target="_top" xlink:title=" ">
<polygon fill="white" stroke="black" points="0,-314.5 0,-525.5 121,-525.5 121,-314.5 0,-314.5"/>
<text text-anchor="middle" x="60.5" y="-513.5" font-family="Helvetica,sans-Serif" font-size="10.00">CircularArray&lt; bool, 4 &gt;</text>
<polyline fill="none" stroke="black" points="0,-506.5 121,-506.5 "/>
<text text-anchor="start" x="8" y="-494.5" font-family="Helvetica,sans-Serif" font-size="10.00">&#45; m_data</text>
<polyline fill="none" stroke="black" points="0,-487.5 121,-487.5 "/>
<text text-anchor="start" x="8" y="-475.5" font-family="Helvetica,sans-Serif" font-size="10.00">+ CircularArray()</text>
<text text-anchor="start" x="8" y="-464.5" font-family="Helvetica,sans-Serif" font-size="10.00">+ CircularArray()</text>
<text text-anchor="start" x="8" y="-453.5" font-family="Helvetica,sans-Serif" font-size="10.00">+ at()</text>
<text text-anchor="start" x="8" y="-442.5" font-family="Helvetica,sans-Serif" font-size="10.00">+ begin()</text>
<text text-anchor="start" x="8" y="-431.5" font-family="Helvetica,sans-Serif" font-size="10.00">+ cbegin()</text>
<text text-anchor="start" x="8" y="-420.5" font-family="Helvetica,sans-Serif" font-size="10.00">+ cdata()</text>
<text text-anchor="start" x="8" y="-409.5" font-family="Helvetica,sans-Serif" font-size="10.00">+ cend()</text>
<text text-anchor="start" x="8" y="-398.5" font-family="Helvetica,sans-Serif" font-size="10.00">+ data()</text>
<text text-anchor="start" x="8" y="-387.5" font-family="Helvetica,sans-Serif" font-size="10.00">+ end()</text>
<text text-anchor="start" x="8" y="-376.5" font-family="Helvetica,sans-Serif" font-size="10.00">+ operator=()</text>
<text text-anchor="start" x="8" y="-365.5" font-family="Helvetica,sans-Serif" font-size="10.00">+ operator[]()</text>
<text text-anchor="start" x="8" y="-354.5" font-family="Helvetica,sans-Serif" font-size="10.00">+ operator[]()</text>
<text text-anchor="start" x="8" y="-343.5" font-family="Helvetica,sans-Serif" font-size="10.00">+ set()</text>
<text text-anchor="start" x="8" y="-332.5" font-family="Helvetica,sans-Serif" font-size="10.00">+ size()</text>
<text text-anchor="start" x="8" y="-321.5" font-family="Helvetica,sans-Serif" font-size="10.00">&#45; mod_floor()</text>
</a>
</g>
</g>
<!-- Node2&#45;&gt;Node1 -->
<g id="edge1" class="edge">
<title>Node2&#45;&gt;Node1</title>
<path fill="none" stroke="#404040" d="M84.34,-314.24C90.97,-285.09 98.22,-253.26 104.99,-223.49"/>
<polygon fill="none" stroke="#404040" points="105,-223.45 102.43,-216.71 107.66,-211.75 110.23,-218.49 105,-223.45"/>
<text text-anchor="middle" x="132.5" y="-260.5" font-family="Helvetica,sans-Serif" font-size="10.00"> &#45;m_quadFlag</text>
</g>
<!-- Node3 -->
<g id="node3" class="node">
<title>Node3</title>
<g id="a_node3"><a xlink:href="classCircularArray.html" target="_top" xlink:title=" ">
<polygon fill="white" stroke="black" points="75,-573.5 75,-795.5 190,-795.5 190,-573.5 75,-573.5"/>
<text text-anchor="start" x="83" y="-783.5" font-family="Helvetica,sans-Serif" font-size="10.00">CircularArray&lt; T, array</text>
<text text-anchor="middle" x="132.5" y="-772.5" font-family="Helvetica,sans-Serif" font-size="10.00">_size &gt;</text>
<polyline fill="none" stroke="black" points="75,-765.5 190,-765.5 "/>
<text text-anchor="middle" x="132.5" y="-753.5" font-family="Helvetica,sans-Serif" font-size="10.00"> </text>
<polyline fill="none" stroke="black" points="75,-746.5 190,-746.5 "/>
<text text-anchor="start" x="83" y="-734.5" font-family="Helvetica,sans-Serif" font-size="10.00">+ CircularArray()</text>
<text text-anchor="start" x="83" y="-723.5" font-family="Helvetica,sans-Serif" font-size="10.00">+ CircularArray()</text>
<text text-anchor="start" x="83" y="-712.5" font-family="Helvetica,sans-Serif" font-size="10.00">+ at()</text>
<text text-anchor="start" x="83" y="-701.5" font-family="Helvetica,sans-Serif" font-size="10.00">+ begin()</text>
<text text-anchor="start" x="83" y="-690.5" font-family="Helvetica,sans-Serif" font-size="10.00">+ cbegin()</text>
<text text-anchor="start" x="83" y="-679.5" font-family="Helvetica,sans-Serif" font-size="10.00">+ cdata()</text>
<text text-anchor="start" x="83" y="-668.5" font-family="Helvetica,sans-Serif" font-size="10.00">+ cend()</text>
<text text-anchor="start" x="83" y="-657.5" font-family="Helvetica,sans-Serif" font-size="10.00">+ data()</text>
<text text-anchor="start" x="83" y="-646.5" font-family="Helvetica,sans-Serif" font-size="10.00">+ end()</text>
<text text-anchor="start" x="83" y="-635.5" font-family="Helvetica,sans-Serif" font-size="10.00">+ operator=()</text>
<text text-anchor="start" x="83" y="-624.5" font-family="Helvetica,sans-Serif" font-size="10.00">+ operator[]()</text>
<text text-anchor="start" x="83" y="-613.5" font-family="Helvetica,sans-Serif" font-size="10.00">+ operator[]()</text>
<text text-anchor="start" x="83" y="-602.5" font-family="Helvetica,sans-Serif" font-size="10.00">+ set()</text>
<text text-anchor="start" x="83" y="-591.5" font-family="Helvetica,sans-Serif" font-size="10.00">+ size()</text>
<text text-anchor="start" x="83" y="-580.5" font-family="Helvetica,sans-Serif" font-size="10.00">&#45; mod_floor()</text>
</a>
</g>
</g>
<!-- Node3&#45;&gt;Node2 -->
<g id="edge2" class="edge">
<title>Node3&#45;&gt;Node2</title>
<path fill="none" stroke="orange" d="M99.54,-563.33C96.11,-550.82 92.64,-538.18 89.26,-525.87"/>
<polygon fill="orange" stroke="orange" points="96.26,-564.6 102.28,-573.32 103.01,-562.75 96.26,-564.6"/>
<text text-anchor="middle" x="122" y="-547" font-family="Helvetica,sans-Serif" font-size="10.00"> &lt; bool, 4 &gt;</text>
</g>
<!-- Node7 -->
<g id="node7" class="node">
<title>Node7</title>
<g id="a_node7"><a xlink:href="classCircularArray.html" target="_top" xlink:title=" ">
<polygon fill="white" stroke="black" points="139,-314.5 139,-525.5 270,-525.5 270,-314.5 139,-314.5"/>
<text text-anchor="middle" x="204.5" y="-513.5" font-family="Helvetica,sans-Serif" font-size="10.00">CircularArray&lt; double, 4 &gt;</text>
<polyline fill="none" stroke="black" points="139,-506.5 270,-506.5 "/>
<text text-anchor="start" x="147" y="-494.5" font-family="Helvetica,sans-Serif" font-size="10.00">&#45; m_data</text>
<polyline fill="none" stroke="black" points="139,-487.5 270,-487.5 "/>
<text text-anchor="start" x="147" y="-475.5" font-family="Helvetica,sans-Serif" font-size="10.00">+ CircularArray()</text>
<text text-anchor="start" x="147" y="-464.5" font-family="Helvetica,sans-Serif" font-size="10.00">+ CircularArray()</text>
<text text-anchor="start" x="147" y="-453.5" font-family="Helvetica,sans-Serif" font-size="10.00">+ at()</text>
<text text-anchor="start" x="147" y="-442.5" font-family="Helvetica,sans-Serif" font-size="10.00">+ begin()</text>
<text text-anchor="start" x="147" y="-431.5" font-family="Helvetica,sans-Serif" font-size="10.00">+ cbegin()</text>
<text text-anchor="start" x="147" y="-420.5" font-family="Helvetica,sans-Serif" font-size="10.00">+ cdata()</text>
<text text-anchor="start" x="147" y="-409.5" font-family="Helvetica,sans-Serif" font-size="10.00">+ cend()</text>
<text text-anchor="start" x="147" y="-398.5" font-family="Helvetica,sans-Serif" font-size="10.00">+ data()</text>
<text text-anchor="start" x="147" y="-387.5" font-family="Helvetica,sans-Serif" font-size="10.00">+ end()</text>
<text text-anchor="start" x="147" y="-376.5" font-family="Helvetica,sans-Serif" font-size="10.00">+ operator=()</text>
<text text-anchor="start" x="147" y="-365.5" font-family="Helvetica,sans-Serif" font-size="10.00">+ operator[]()</text>
<text text-anchor="start" x="147" y="-354.5" font-family="Helvetica,sans-Serif" font-size="10.00">+ operator[]()</text>
<text text-anchor="start" x="147" y="-343.5" font-family="Helvetica,sans-Serif" font-size="10.00">+ set()</text>
<text text-anchor="start" x="147" y="-332.5" font-family="Helvetica,sans-Serif" font-size="10.00">+ size()</text>
<text text-anchor="start" x="147" y="-321.5" font-family="Helvetica,sans-Serif" font-size="10.00">&#45; mod_floor()</text>
</a>
</g>
</g>
<!-- Node3&#45;&gt;Node7 -->
<g id="edge8" class="edge">
<title>Node3&#45;&gt;Node7</title>
<path fill="none" stroke="orange" d="M165.46,-563.33C168.89,-550.82 172.36,-538.18 175.74,-525.87"/>
<polygon fill="orange" stroke="orange" points="161.99,-562.75 162.72,-573.32 168.74,-564.6 161.99,-562.75"/>
<text text-anchor="middle" x="201" y="-547" font-family="Helvetica,sans-Serif" font-size="10.00"> &lt; double, 4 &gt;</text>
</g>
<!-- Node4 -->
<g id="node4" class="node">
<title>Node4</title>
<g id="a_node4"><a xlink:title=" ">
<polygon fill="white" stroke="#bfbfbf" points="76.5,-843.5 76.5,-900.5 188.5,-900.5 188.5,-843.5 76.5,-843.5"/>
<text text-anchor="middle" x="132.5" y="-888.5" font-family="Helvetica,sans-Serif" font-size="10.00">array&lt; T, array_size &gt;</text>
<polyline fill="none" stroke="#bfbfbf" points="76.5,-881.5 188.5,-881.5 "/>
<text text-anchor="middle" x="132.5" y="-869.5" font-family="Helvetica,sans-Serif" font-size="10.00"> </text>
<polyline fill="none" stroke="#bfbfbf" points="76.5,-862.5 188.5,-862.5 "/>
<text text-anchor="middle" x="132.5" y="-850.5" font-family="Helvetica,sans-Serif" font-size="10.00"> </text>
</a>
</g>
</g>
<!-- Node4&#45;&gt;Node3 -->
<g id="edge3" class="edge">
<title>Node4&#45;&gt;Node3</title>
<path fill="none" stroke="#404040" d="M132.5,-843.23C132.5,-833.09 132.5,-820.87 132.5,-807.78"/>
<polygon fill="none" stroke="#404040" points="132.5,-807.54 128.5,-801.54 132.5,-795.54 136.5,-801.54 132.5,-807.54"/>
<text text-anchor="middle" x="152" y="-817" font-family="Helvetica,sans-Serif" font-size="10.00"> &#45;m_data</text>
</g>
<!-- Node5 -->
<g id="node5" class="node">
<title>Node5</title>
<g id="a_node5"><a xlink:title=" ">
<polygon fill="white" stroke="#bfbfbf" points="118,-1053.5 118,-1110.5 147,-1110.5 147,-1053.5 118,-1053.5"/>
<text text-anchor="middle" x="132.5" y="-1098.5" font-family="Helvetica,sans-Serif" font-size="10.00">T</text>
<polyline fill="none" stroke="#bfbfbf" points="118,-1091.5 147,-1091.5 "/>
<text text-anchor="middle" x="132.5" y="-1079.5" font-family="Helvetica,sans-Serif" font-size="10.00"> </text>
<polyline fill="none" stroke="#bfbfbf" points="118,-1072.5 147,-1072.5 "/>
<text text-anchor="middle" x="132.5" y="-1060.5" font-family="Helvetica,sans-Serif" font-size="10.00"> </text>
</a>
</g>
</g>
<!-- Node5&#45;&gt;Node4 -->
<g id="edge4" class="edge">
<title>Node5&#45;&gt;Node4</title>
<path fill="none" stroke="#404040" d="M129.29,-1053.26C127.81,-1039.14 126.23,-1021.68 125.5,-1006 124.3,-980.25 124.3,-973.75 125.5,-948 126.03,-936.61 127.01,-924.28 128.07,-912.97"/>
<polygon fill="none" stroke="#404040" points="128.1,-912.68 124.72,-906.31 129.29,-900.74 132.68,-907.1 128.1,-912.68"/>
<text text-anchor="middle" x="150" y="-974.5" font-family="Helvetica,sans-Serif" font-size="10.00"> +elements</text>
</g>
<!-- Node6 -->
<g id="node6" class="node">
<title>Node6</title>
<g id="a_node6"><a xlink:title=" ">
<polygon fill="white" stroke="#bfbfbf" points="183.5,-948.5 183.5,-1005.5 245.5,-1005.5 245.5,-948.5 183.5,-948.5"/>
<text text-anchor="middle" x="214.5" y="-993.5" font-family="Helvetica,sans-Serif" font-size="10.00">array&lt; T &gt;</text>
<polyline fill="none" stroke="#bfbfbf" points="183.5,-986.5 245.5,-986.5 "/>
<text text-anchor="middle" x="214.5" y="-974.5" font-family="Helvetica,sans-Serif" font-size="10.00"> </text>
<polyline fill="none" stroke="#bfbfbf" points="183.5,-967.5 245.5,-967.5 "/>
<text text-anchor="middle" x="214.5" y="-955.5" font-family="Helvetica,sans-Serif" font-size="10.00"> </text>
</a>
</g>
</g>
<!-- Node5&#45;&gt;Node6 -->
<g id="edge6" class="edge">
<title>Node5&#45;&gt;Node6</title>
<path fill="none" stroke="#404040" d="M147.16,-1062.59C157.61,-1049.46 172.03,-1031.35 184.84,-1015.26"/>
<polygon fill="none" stroke="#404040" points="185.08,-1014.95 185.69,-1007.76 192.56,-1005.56 191.95,-1012.75 185.08,-1014.95"/>
<text text-anchor="middle" x="200" y="-1027" font-family="Helvetica,sans-Serif" font-size="10.00"> +elements</text>
</g>
<!-- Node6&#45;&gt;Node4 -->
<g id="edge5" class="edge">
<title>Node6&#45;&gt;Node4</title>
<path fill="none" stroke="orange" d="M186.25,-940.51C175.87,-927.48 164.29,-912.93 154.54,-900.68"/>
<polygon fill="orange" stroke="orange" points="183.56,-942.75 192.53,-948.4 189.04,-938.39 183.56,-942.75"/>
<text text-anchor="middle" x="214" y="-922" font-family="Helvetica,sans-Serif" font-size="10.00"> &lt; T, array_size &gt;</text>
</g>
<!-- Node7&#45;&gt;Node1 -->
<g id="edge7" class="edge">
<title>Node7&#45;&gt;Node1</title>
<path fill="none" stroke="#404040" d="M184.96,-314.2C179.42,-286.71 173.08,-257.16 166.5,-230 165.97,-227.83 165.43,-225.64 164.88,-223.43"/>
<polygon fill="none" stroke="#404040" points="164.81,-223.16 159.46,-218.33 161.85,-211.53 167.21,-216.36 164.81,-223.16"/>
<text text-anchor="middle" x="219" y="-288" font-family="Helvetica,sans-Serif" font-size="10.00"> &#45;m_hollandB</text>
<text text-anchor="middle" x="219" y="-277" font-family="Helvetica,sans-Serif" font-size="10.00">&#45;m_isotachRadius</text>
<text text-anchor="middle" x="219" y="-266" font-family="Helvetica,sans-Serif" font-size="10.00">&#45;m_phi</text>
<text text-anchor="middle" x="219" y="-255" font-family="Helvetica,sans-Serif" font-size="10.00">&#45;m_quadrantVr</text>
<text text-anchor="middle" x="219" y="-244" font-family="Helvetica,sans-Serif" font-size="10.00">&#45;m_rmax</text>
<text text-anchor="middle" x="219" y="-233" font-family="Helvetica,sans-Serif" font-size="10.00">&#45;m_vmaxBL</text>
</g>
</g>
</svg>
        <g id="navigator" transform="translate(0 0)" fill="#404254">
                <rect fill="#f2f5e9" fill-opacity="0.5" stroke="#606060" stroke-width=".5" x="0" y="0" width="60" height="60"/>
                <use id="zoomplus" xlink:href="#zoomPlus" x="17" y="9" onmousedown="handleZoom(evt,'in')"/>
                <use id="zoomminus" xlink:href="#zoomMin" x="42" y="9" onmousedown="handleZoom(evt,'out')"/>
                <use id="reset" xlink:href="#resetDef" x="30" y="36" onmousedown="handleReset()"/>
                <g id="arrowUp" xlink:href="#dirArrow" transform="translate(30 24)" onmousedown="handlePan(0,-1)">
                  <use xlink:href="#rim" fill="#404040">
                        <set attributeName="fill" to="#808080" begin="arrowUp.mouseover" end="arrowUp.mouseout"/>
                  </use>
                  <path fill="none" stroke="white" stroke-width="1.5" d="M0,-3.0v7 M-2.5,-0.5L0,-3.0L2.5,-0.5"/>
                </g>
                <g id="arrowRight" xlink:href="#dirArrow" transform="rotate(90) translate(36 -43)" onmousedown="handlePan(1,0)">
                  <use xlink:href="#rim" fill="#404040">
                        <set attributeName="fill" to="#808080" begin="arrowRight.mouseover" end="arrowRight.mouseout"/>
                  </use>
                  <path fill="none" stroke="white" stroke-width="1.5" d="M0,-3.0v7 M-2.5,-0.5L0,-3.0L2.5,-0.5"/>
                </g>
                <g id="arrowDown" xlink:href="#dirArrow" transform="rotate(180) translate(-30 -48)" onmousedown="handlePan(0,1)">
                  <use xlink:href="#rim" fill="#404040">
                        <set attributeName="fill" to="#808080" begin="arrowDown.mouseover" end="arrowDown.mouseout"/>
                  </use>
                  <path fill="none" stroke="white" stroke-width="1.5" d="M0,-3.0v7 M-2.5,-0.5L0,-3.0L2.5,-0.5"/>
                </g>
                <g id="arrowLeft" xlink:href="#dirArrow" transform="rotate(270) translate(-36 17)" onmousedown="handlePan(-1,0)">
                  <use xlink:href="#rim" fill="#404040">
                        <set attributeName="fill" to="#808080" begin="arrowLeft.mouseover" end="arrowLeft.mouseout"/>
                  </use>
                  <path fill="none" stroke="white" stroke-width="1.5" d="M0,-3.0v7 M-2.5,-0.5L0,-3.0L2.5,-0.5"/>
                </g>
        </g>
        <svg viewBox="0 0 15 15" width="100%" height="30px" preserveAspectRatio="xMaxYMin meet">
         <g id="arrow_out" transform="scale(0.3 0.3)">
          <a xlink:href="classIsotach__coll__graph_org.svg" target="_base">
           <rect id="button" ry="5" rx="5" y="6" x="6" height="38" width="38"
                fill="#f2f5e9" fill-opacity="0.5" stroke="#606060" stroke-width="1.0"/>
           <path id="arrow"
             d="M 11.500037,31.436501 C 11.940474,20.09759 22.043105,11.32322 32.158766,21.979434 L 37.068811,17.246167 C 37.068811,17.246167 37.088388,32 37.088388,32 L 22.160133,31.978069 C 22.160133,31.978069 26.997745,27.140456 26.997745,27.140456 C 18.528582,18.264221 13.291696,25.230495 11.500037,31.436501 z"
             style="fill:#404040;"/>
          </a>
         </g>
        </svg>
</svg>
