<?xml version="1.0" encoding="UTF-8" standalone="no"?>
<!DOCTYPE svg PUBLIC "-//W3C//DTD SVG 1.1//EN"
 "http://www.w3.org/Graphics/SVG/1.1/DTD/svg11.dtd">
<!-- Generated by graphviz version 2.47.1 (20210417.1919)
 -->
<!-- Title: AtcfLine Pages: 1 -->
<svg width="624pt" height="1254pt"
 viewBox="0.00 0.00 624.00 1254.00" xmlns="http://www.w3.org/2000/svg" xmlns:xlink="http://www.w3.org/1999/xlink">
<g id="graph0" class="graph" transform="scale(1 1) rotate(0) translate(4 1250)">
<title>AtcfLine</title>
<polygon fill="white" stroke="transparent" points="-4,4 -4,-1250 620,-1250 620,4 -4,4"/>
<!-- Node1 -->
<g id="node1" class="node">
<title>Node1</title>
<g id="a_node1"><a xlink:title=" ">
<polygon fill="#bfbfbf" stroke="black" points="349.5,-0.5 349.5,-321.5 480.5,-321.5 480.5,-0.5 349.5,-0.5"/>
<text text-anchor="middle" x="415" y="-309.5" font-family="Helvetica,sans-Serif" font-size="10.00">AtcfLine</text>
<polyline fill="none" stroke="black" points="349.5,-302.5 480.5,-302.5 "/>
<text text-anchor="start" x="357.5" y="-290.5" font-family="Helvetica,sans-Serif" font-size="10.00">&#45; m_cycloneNumber</text>
<text text-anchor="start" x="357.5" y="-279.5" font-family="Helvetica,sans-Serif" font-size="10.00">&#45; m_eyeDiameter</text>
<text text-anchor="start" x="357.5" y="-268.5" font-family="Helvetica,sans-Serif" font-size="10.00">&#45; m_gusts</text>
<text text-anchor="start" x="357.5" y="-257.5" font-family="Helvetica,sans-Serif" font-size="10.00">&#45; m_lat</text>
<text text-anchor="start" x="357.5" y="-246.5" font-family="Helvetica,sans-Serif" font-size="10.00">&#45; m_lon</text>
<text text-anchor="start" x="357.5" y="-235.5" font-family="Helvetica,sans-Serif" font-size="10.00">&#45; m_maxSeas</text>
<text text-anchor="start" x="357.5" y="-224.5" font-family="Helvetica,sans-Serif" font-size="10.00">&#45; m_mslp</text>
<text text-anchor="start" x="357.5" y="-213.5" font-family="Helvetica,sans-Serif" font-size="10.00">&#45; m_null</text>
<text text-anchor="start" x="357.5" y="-202.5" font-family="Helvetica,sans-Serif" font-size="10.00">&#45; m_pouter</text>
<text text-anchor="start" x="357.5" y="-191.5" font-family="Helvetica,sans-Serif" font-size="10.00">&#45; m_radiusMaxWinds</text>
<text text-anchor="start" x="357.5" y="-180.5" font-family="Helvetica,sans-Serif" font-size="10.00">and 10 more...</text>
<polyline fill="none" stroke="black" points="349.5,-173.5 480.5,-173.5 "/>
<text text-anchor="start" x="357.5" y="-161.5" font-family="Helvetica,sans-Serif" font-size="10.00">+ AtcfLine()</text>
<text text-anchor="start" x="357.5" y="-150.5" font-family="Helvetica,sans-Serif" font-size="10.00">+ addIsotach()</text>
<text text-anchor="start" x="357.5" y="-139.5" font-family="Helvetica,sans-Serif" font-size="10.00">+ basin()</text>
<text text-anchor="start" x="357.5" y="-128.5" font-family="Helvetica,sans-Serif" font-size="10.00">+ cisotach()</text>
<text text-anchor="start" x="357.5" y="-117.5" font-family="Helvetica,sans-Serif" font-size="10.00">+ cseas()</text>
<text text-anchor="start" x="357.5" y="-106.5" font-family="Helvetica,sans-Serif" font-size="10.00">+ cycloneNumber()</text>
<text text-anchor="start" x="357.5" y="-95.5" font-family="Helvetica,sans-Serif" font-size="10.00">+ datetime()</text>
<text text-anchor="start" x="357.5" y="-84.5" font-family="Helvetica,sans-Serif" font-size="10.00">+ eyeDiameter()</text>
<text text-anchor="start" x="357.5" y="-73.5" font-family="Helvetica,sans-Serif" font-size="10.00">+ gusts()</text>
<text text-anchor="start" x="357.5" y="-62.5" font-family="Helvetica,sans-Serif" font-size="10.00">+ initials()</text>
<text text-anchor="start" x="357.5" y="-51.5" font-family="Helvetica,sans-Serif" font-size="10.00">and 57 more...</text>
<text text-anchor="start" x="357.5" y="-40.5" font-family="Helvetica,sans-Serif" font-size="10.00">+ isSameForecastPeriod()</text>
<text text-anchor="start" x="357.5" y="-29.5" font-family="Helvetica,sans-Serif" font-size="10.00">+ parseAtcfLine()</text>
<text text-anchor="start" x="357.5" y="-18.5" font-family="Helvetica,sans-Serif" font-size="10.00">&#45; readValueCheckBlank()</text>
<text text-anchor="start" x="357.5" y="-7.5" font-family="Helvetica,sans-Serif" font-size="10.00">&#45; splitString()</text>
</a>
</g>
</g>
<!-- Node2 -->
<g id="node2" class="node">
<title>Node2</title>
<g id="a_node2"><a xlink:title=" ">
<polygon fill="white" stroke="#bfbfbf" points="285,-496 285,-553 379,-553 379,-496 285,-496"/>
<text text-anchor="middle" x="332" y="-541" font-family="Helvetica,sans-Serif" font-size="10.00">vector&lt; Isotach &gt;</text>
<polyline fill="none" stroke="#bfbfbf" points="285,-534 379,-534 "/>
<text text-anchor="middle" x="332" y="-522" font-family="Helvetica,sans-Serif" font-size="10.00"> </text>
<polyline fill="none" stroke="#bfbfbf" points="285,-515 379,-515 "/>
<text text-anchor="middle" x="332" y="-503" font-family="Helvetica,sans-Serif" font-size="10.00"> </text>
</a>
</g>
</g>
<!-- Node2&#45;&gt;Node1 -->
<g id="edge1" class="edge">
<title>Node2&#45;&gt;Node1</title>
<path fill="none" stroke="#404040" d="M334.68,-495.89C338.5,-459.76 346.48,-394.61 359,-340 359.49,-337.84 360,-335.68 360.52,-333.5"/>
<polygon fill="none" stroke="#404040" points="360.54,-333.43 358.1,-326.64 363.42,-321.78 365.86,-328.56 360.54,-333.43"/>
<text text-anchor="middle" x="385" y="-376" font-family="Helvetica,sans-Serif" font-size="10.00"> &#45;m_isotach</text>
<text text-anchor="middle" x="385" y="-365" font-family="Helvetica,sans-Serif" font-size="10.00">&#45;m_seas</text>
</g>
<!-- Node3 -->
<g id="node3" class="node">
<title>Node3</title>
<g id="a_node3"><a xlink:href="classIsotach.html" target="_top" xlink:title=" ">
<polygon fill="white" stroke="black" points="153.5,-672.5 153.5,-883.5 254.5,-883.5 254.5,-672.5 153.5,-672.5"/>
<text text-anchor="middle" x="204" y="-871.5" font-family="Helvetica,sans-Serif" font-size="10.00">Isotach</text>
<polyline fill="none" stroke="black" points="153.5,-864.5 254.5,-864.5 "/>
<text text-anchor="start" x="161.5" y="-852.5" font-family="Helvetica,sans-Serif" font-size="10.00">&#45; m_radiusCode</text>
<text text-anchor="start" x="161.5" y="-841.5" font-family="Helvetica,sans-Serif" font-size="10.00">&#45; m_windSpeed</text>
<polyline fill="none" stroke="black" points="153.5,-834.5 254.5,-834.5 "/>
<text text-anchor="start" x="161.5" y="-822.5" font-family="Helvetica,sans-Serif" font-size="10.00">+ Isotach()</text>
<text text-anchor="start" x="161.5" y="-811.5" font-family="Helvetica,sans-Serif" font-size="10.00">+ Isotach()</text>
<text text-anchor="start" x="161.5" y="-800.5" font-family="Helvetica,sans-Serif" font-size="10.00">+ code()</text>
<text text-anchor="start" x="161.5" y="-789.5" font-family="Helvetica,sans-Serif" font-size="10.00">+ lookupRadii()</text>
<text text-anchor="start" x="161.5" y="-778.5" font-family="Helvetica,sans-Serif" font-size="10.00">+ quadflag()</text>
<text text-anchor="start" x="161.5" y="-767.5" font-family="Helvetica,sans-Serif" font-size="10.00">+ radii()</text>
<text text-anchor="start" x="161.5" y="-756.5" font-family="Helvetica,sans-Serif" font-size="10.00">+ radiusCode()</text>
<text text-anchor="start" x="161.5" y="-745.5" font-family="Helvetica,sans-Serif" font-size="10.00">+ radiusQ1()</text>
<text text-anchor="start" x="161.5" y="-734.5" font-family="Helvetica,sans-Serif" font-size="10.00">+ radiusQ2()</text>
<text text-anchor="start" x="161.5" y="-723.5" font-family="Helvetica,sans-Serif" font-size="10.00">+ radiusQ3()</text>
<text text-anchor="start" x="161.5" y="-712.5" font-family="Helvetica,sans-Serif" font-size="10.00">and 14 more...</text>
<text text-anchor="start" x="161.5" y="-701.5" font-family="Helvetica,sans-Serif" font-size="10.00">+ codeFromString()</text>
<text text-anchor="start" x="161.5" y="-690.5" font-family="Helvetica,sans-Serif" font-size="10.00">+ isNull()</text>
<text text-anchor="start" x="161.5" y="-679.5" font-family="Helvetica,sans-Serif" font-size="10.00">+ stringFromCode()</text>
</a>
</g>
</g>
<!-- Node3&#45;&gt;Node2 -->
<g id="edge2" class="edge">
<title>Node3&#45;&gt;Node2</title>
<path fill="none" stroke="#404040" d="M254.5,-675.58C260.05,-664.57 265.63,-653.54 271,-643 284.45,-616.6 299.82,-587 311.77,-564.11"/>
<polygon fill="none" stroke="#404040" points="311.78,-564.09 311.01,-556.92 317.34,-553.45 318.1,-560.62 311.78,-564.09"/>
<text text-anchor="middle" x="295.5" y="-646" font-family="Helvetica,sans-Serif" font-size="10.00"> +elements</text>
</g>
<!-- Node4 -->
<g id="node4" class="node">
<title>Node4</title>
<g id="a_node4"><a xlink:title=" ">
<polygon fill="white" stroke="#bfbfbf" points="0,-931.5 0,-988.5 96,-988.5 96,-931.5 0,-931.5"/>
<text text-anchor="middle" x="48" y="-976.5" font-family="Helvetica,sans-Serif" font-size="10.00">array&lt; double, 6 &gt;</text>
<polyline fill="none" stroke="#bfbfbf" points="0,-969.5 96,-969.5 "/>
<text text-anchor="start" x="8" y="-957.5" font-family="Helvetica,sans-Serif" font-size="10.00">+ elements</text>
<polyline fill="none" stroke="#bfbfbf" points="0,-950.5 96,-950.5 "/>
<text text-anchor="middle" x="48" y="-938.5" font-family="Helvetica,sans-Serif" font-size="10.00"> </text>
</a>
</g>
</g>
<!-- Node4&#45;&gt;Node3 -->
<g id="edge3" class="edge">
<title>Node4&#45;&gt;Node3</title>
<path fill="none" stroke="#404040" d="M68.03,-931.33C75.1,-921.87 83.22,-911.33 91,-902 107.99,-881.61 127.27,-860.09 145.03,-840.84"/>
<polygon fill="none" stroke="#404040" points="145.18,-840.68 146.33,-833.56 153.34,-831.88 152.2,-839 145.18,-840.68"/>
<text text-anchor="middle" x="127" y="-905" font-family="Helvetica,sans-Serif" font-size="10.00"> &#45;m_lookup_radii</text>
</g>
<!-- Node5 -->
<g id="node5" class="node">
<title>Node5</title>
<g id="a_node5"><a xlink:title=" ">
<polygon fill="white" stroke="#bfbfbf" points="157,-1083.5 157,-1140.5 219,-1140.5 219,-1083.5 157,-1083.5"/>
<text text-anchor="middle" x="188" y="-1128.5" font-family="Helvetica,sans-Serif" font-size="10.00">array&lt; T &gt;</text>
<polyline fill="none" stroke="#bfbfbf" points="157,-1121.5 219,-1121.5 "/>
<text text-anchor="middle" x="188" y="-1109.5" font-family="Helvetica,sans-Serif" font-size="10.00"> </text>
<polyline fill="none" stroke="#bfbfbf" points="157,-1102.5 219,-1102.5 "/>
<text text-anchor="middle" x="188" y="-1090.5" font-family="Helvetica,sans-Serif" font-size="10.00"> </text>
</a>
</g>
</g>
<!-- Node5&#45;&gt;Node4 -->
<g id="edge4" class="edge">
<title>Node5&#45;&gt;Node4</title>
<path fill="none" stroke="orange" d="M146.95,-1099.82C127.24,-1092.65 104.57,-1081.52 89,-1065 69.04,-1043.81 58.39,-1011.75 53,-988.83"/>
<polygon fill="orange" stroke="orange" points="146.05,-1103.21 156.65,-1103.12 148.31,-1096.58 146.05,-1103.21"/>
<text text-anchor="middle" x="119.5" y="-1033.5" font-family="Helvetica,sans-Serif" font-size="10.00"> &lt; double, 6 &gt;</text>
</g>
<!-- Node7 -->
<g id="node7" class="node">
<title>Node7</title>
<g id="a_node7"><a xlink:title=" ">
<polygon fill="white" stroke="#bfbfbf" points="114,-931.5 114,-988.5 192,-988.5 192,-931.5 114,-931.5"/>
<text text-anchor="middle" x="153" y="-976.5" font-family="Helvetica,sans-Serif" font-size="10.00">array&lt; int, 4 &gt;</text>
<polyline fill="none" stroke="#bfbfbf" points="114,-969.5 192,-969.5 "/>
<text text-anchor="start" x="122" y="-957.5" font-family="Helvetica,sans-Serif" font-size="10.00">+ elements</text>
<polyline fill="none" stroke="#bfbfbf" points="114,-950.5 192,-950.5 "/>
<text text-anchor="middle" x="153" y="-938.5" font-family="Helvetica,sans-Serif" font-size="10.00"> </text>
</a>
</g>
</g>
<!-- Node5&#45;&gt;Node7 -->
<g id="edge7" class="edge">
<title>Node5&#45;&gt;Node7</title>
<path fill="none" stroke="orange" d="M166.23,-1073.86C165,-1070.92 163.9,-1067.95 163,-1065 155.31,-1039.85 153.12,-1009.82 152.67,-988.52"/>
<polygon fill="orange" stroke="orange" points="163.13,-1075.49 170.53,-1083.07 169.48,-1072.53 163.13,-1075.49"/>
<text text-anchor="middle" x="184.5" y="-1033.5" font-family="Helvetica,sans-Serif" font-size="10.00"> &lt; int, 4 &gt;</text>
</g>
<!-- Node8 -->
<g id="node8" class="node">
<title>Node8</title>
<g id="a_node8"><a xlink:title=" ">
<polygon fill="white" stroke="#bfbfbf" points="210,-931.5 210,-988.5 306,-988.5 306,-931.5 210,-931.5"/>
<text text-anchor="middle" x="258" y="-976.5" font-family="Helvetica,sans-Serif" font-size="10.00">array&lt; double, 4 &gt;</text>
<polyline fill="none" stroke="#bfbfbf" points="210,-969.5 306,-969.5 "/>
<text text-anchor="start" x="218" y="-957.5" font-family="Helvetica,sans-Serif" font-size="10.00">+ elements</text>
<polyline fill="none" stroke="#bfbfbf" points="210,-950.5 306,-950.5 "/>
<text text-anchor="middle" x="258" y="-938.5" font-family="Helvetica,sans-Serif" font-size="10.00"> </text>
</a>
</g>
</g>
<!-- Node5&#45;&gt;Node8 -->
<g id="edge9" class="edge">
<title>Node5&#45;&gt;Node8</title>
<path fill="none" stroke="orange" d="M202.59,-1073.82C203.75,-1070.84 204.89,-1067.87 206,-1065 215.91,-1039.27 215.51,-1031.58 228,-1007 231.11,-1000.88 234.84,-994.56 238.6,-988.65"/>
<polygon fill="orange" stroke="orange" points="199.27,-1072.7 198.9,-1083.29 205.79,-1075.24 199.27,-1072.7"/>
<text text-anchor="middle" x="258.5" y="-1033.5" font-family="Helvetica,sans-Serif" font-size="10.00"> &lt; double, 4 &gt;</text>
</g>
<!-- Node6 -->
<g id="node6" class="node">
<title>Node6</title>
<g id="a_node6"><a xlink:title=" ">
<polygon fill="white" stroke="#bfbfbf" points="239.5,-1188.5 239.5,-1245.5 268.5,-1245.5 268.5,-1188.5 239.5,-1188.5"/>
<text text-anchor="middle" x="254" y="-1233.5" font-family="Helvetica,sans-Serif" font-size="10.00">T</text>
<polyline fill="none" stroke="#bfbfbf" points="239.5,-1226.5 268.5,-1226.5 "/>
<text text-anchor="middle" x="254" y="-1214.5" font-family="Helvetica,sans-Serif" font-size="10.00"> </text>
<polyline fill="none" stroke="#bfbfbf" points="239.5,-1207.5 268.5,-1207.5 "/>
<text text-anchor="middle" x="254" y="-1195.5" font-family="Helvetica,sans-Serif" font-size="10.00"> </text>
</a>
</g>
</g>
<!-- Node6&#45;&gt;Node5 -->
<g id="edge5" class="edge">
<title>Node6&#45;&gt;Node5</title>
<path fill="none" stroke="#404040" d="M239.35,-1193.14C231.42,-1180.77 221.42,-1165.16 212.36,-1151.01"/>
<polygon fill="none" stroke="#404040" points="212.13,-1150.66 205.53,-1147.77 205.66,-1140.56 212.26,-1143.45 212.13,-1150.66"/>
<text text-anchor="middle" x="247.5" y="-1162" font-family="Helvetica,sans-Serif" font-size="10.00"> +elements</text>
</g>
<!-- Node9 -->
<g id="node9" class="node">
<title>Node9</title>
<g id="a_node9"><a xlink:title=" ">
<polygon fill="white" stroke="#bfbfbf" points="298,-1007.5 298,-1064.5 366,-1064.5 366,-1007.5 298,-1007.5"/>
<text text-anchor="middle" x="332" y="-1052.5" font-family="Helvetica,sans-Serif" font-size="10.00">vector&lt; T &gt;</text>
<polyline fill="none" stroke="#bfbfbf" points="298,-1045.5 366,-1045.5 "/>
<text text-anchor="middle" x="332" y="-1033.5" font-family="Helvetica,sans-Serif" font-size="10.00"> </text>
<polyline fill="none" stroke="#bfbfbf" points="298,-1026.5 366,-1026.5 "/>
<text text-anchor="middle" x="332" y="-1014.5" font-family="Helvetica,sans-Serif" font-size="10.00"> </text>
</a>
</g>
</g>
<!-- Node6&#45;&gt;Node9 -->
<g id="edge11" class="edge">
<title>Node6&#45;&gt;Node9</title>
<path fill="none" stroke="#404040" d="M267.48,-1188.37C270.34,-1182.34 273.31,-1175.98 276,-1170 290.13,-1138.55 305.26,-1102.47 316.22,-1075.83"/>
<polygon fill="none" stroke="#404040" points="316.24,-1075.78 314.82,-1068.71 320.8,-1064.68 322.22,-1071.74 316.24,-1075.78"/>
<text text-anchor="middle" x="305.5" y="-1162" font-family="Helvetica,sans-Serif" font-size="10.00"> +elements</text>
</g>
<!-- Node7&#45;&gt;Node3 -->
<g id="edge6" class="edge">
<title>Node7&#45;&gt;Node3</title>
<path fill="none" stroke="#404040" d="M160.86,-931.27C163.75,-921.05 167.24,-908.73 170.97,-895.57"/>
<polygon fill="none" stroke="#404040" points="171.03,-895.38 168.81,-888.51 174.3,-883.83 176.51,-890.69 171.03,-895.38"/>
<text text-anchor="middle" x="197.5" y="-905" font-family="Helvetica,sans-Serif" font-size="10.00"> &#45;m_quadflag</text>
</g>
<!-- Node8&#45;&gt;Node3 -->
<g id="edge8" class="edge">
<title>Node8&#45;&gt;Node3</title>
<path fill="none" stroke="#404040" d="M249.68,-931.27C246.61,-921.05 242.92,-908.73 238.97,-895.57"/>
<polygon fill="none" stroke="#404040" points="238.9,-895.32 233.34,-890.73 235.45,-883.83 241,-888.43 238.9,-895.32"/>
<text text-anchor="middle" x="267" y="-905" font-family="Helvetica,sans-Serif" font-size="10.00"> &#45;m_radius</text>
</g>
<!-- Node9&#45;&gt;Node2 -->
<g id="edge10" class="edge">
<title>Node9&#45;&gt;Node2</title>
<path fill="none" stroke="orange" d="M332,-997.2C332,-899.27 332,-638.97 332,-553.28"/>
<polygon fill="orange" stroke="orange" points="328.5,-997.25 332,-1007.25 335.5,-997.25 328.5,-997.25"/>
<text text-anchor="middle" x="359" y="-905" font-family="Helvetica,sans-Serif" font-size="10.00"> &lt; Isotach &gt;</text>
</g>
<!-- Node10 -->
<g id="node10" class="node">
<title>Node10</title>
<g id="a_node10"><a xlink:title=" ">
<polygon fill="white" stroke="#bfbfbf" points="397.5,-496 397.5,-553 438.5,-553 438.5,-496 397.5,-496"/>
<text text-anchor="middle" x="418" y="-541" font-family="Helvetica,sans-Serif" font-size="10.00">string</text>
<polyline fill="none" stroke="#bfbfbf" points="397.5,-534 438.5,-534 "/>
<text text-anchor="middle" x="418" y="-522" font-family="Helvetica,sans-Serif" font-size="10.00"> </text>
<polyline fill="none" stroke="#bfbfbf" points="397.5,-515 438.5,-515 "/>
<text text-anchor="middle" x="418" y="-503" font-family="Helvetica,sans-Serif" font-size="10.00"> </text>
</a>
</g>
</g>
<!-- Node10&#45;&gt;Node1 -->
<g id="edge12" class="edge">
<title>Node10&#45;&gt;Node1</title>
<path fill="none" stroke="#404040" d="M417.43,-495.96C416.96,-472.15 416.33,-436.81 416,-406 415.75,-382.72 415.57,-358.19 415.43,-334.01"/>
<polygon fill="none" stroke="#404040" points="415.43,-333.8 411.39,-327.82 415.36,-321.8 419.39,-327.78 415.43,-333.8"/>
<text text-anchor="middle" x="474.5" y="-398" font-family="Helvetica,sans-Serif" font-size="10.00"> &#45;m_basin</text>
<text text-anchor="middle" x="474.5" y="-387" font-family="Helvetica,sans-Serif" font-size="10.00">&#45;m_initials</text>
<text text-anchor="middle" x="474.5" y="-376" font-family="Helvetica,sans-Serif" font-size="10.00">&#45;m_maxDevelopmentLevel</text>
<text text-anchor="middle" x="474.5" y="-365" font-family="Helvetica,sans-Serif" font-size="10.00">&#45;m_stormName</text>
<text text-anchor="middle" x="474.5" y="-354" font-family="Helvetica,sans-Serif" font-size="10.00">&#45;m_systemDepth</text>
<text text-anchor="middle" x="474.5" y="-343" font-family="Helvetica,sans-Serif" font-size="10.00">&#45;m_techstring</text>
</g>
<!-- Node11 -->
<g id="node11" class="node">
<title>Node11</title>
<g id="a_node11"><a xlink:title=" ">
<polygon fill="white" stroke="#bfbfbf" points="364,-749.5 364,-806.5 472,-806.5 472,-749.5 364,-749.5"/>
<text text-anchor="middle" x="418" y="-794.5" font-family="Helvetica,sans-Serif" font-size="10.00">basic_string&lt; Char &gt;</text>
<polyline fill="none" stroke="#bfbfbf" points="364,-787.5 472,-787.5 "/>
<text text-anchor="middle" x="418" y="-775.5" font-family="Helvetica,sans-Serif" font-size="10.00"> </text>
<polyline fill="none" stroke="#bfbfbf" points="364,-768.5 472,-768.5 "/>
<text text-anchor="middle" x="418" y="-756.5" font-family="Helvetica,sans-Serif" font-size="10.00"> </text>
</a>
</g>
</g>
<!-- Node11&#45;&gt;Node10 -->
<g id="edge13" class="edge">
<title>Node11&#45;&gt;Node10</title>
<path fill="none" stroke="midnightblue" d="M418,-738.83C418,-687.7 418,-598.2 418,-553.12"/>
<polygon fill="none" stroke="midnightblue" points="414.5,-739.12 418,-749.12 421.5,-739.12 414.5,-739.12"/>
</g>
<!-- Node12 -->
<g id="node12" class="node">
<title>Node12</title>
<g id="a_node12"><a xlink:href="classDate.html" target="_top" xlink:title=" ">
<polygon fill="white" stroke="black" points="514,-424.5 514,-624.5 596,-624.5 596,-424.5 514,-424.5"/>
<text text-anchor="middle" x="555" y="-612.5" font-family="Helvetica,sans-Serif" font-size="10.00">Date</text>
<polyline fill="none" stroke="black" points="514,-605.5 596,-605.5 "/>
<text text-anchor="start" x="522" y="-593.5" font-family="Helvetica,sans-Serif" font-size="10.00">&#45; m_datetime</text>
<polyline fill="none" stroke="black" points="514,-586.5 596,-586.5 "/>
<text text-anchor="start" x="522" y="-574.5" font-family="Helvetica,sans-Serif" font-size="10.00">+ Date()</text>
<text text-anchor="start" x="522" y="-563.5" font-family="Helvetica,sans-Serif" font-size="10.00">+ Date()</text>
<text text-anchor="start" x="522" y="-552.5" font-family="Helvetica,sans-Serif" font-size="10.00">+ Date()</text>
<text text-anchor="start" x="522" y="-541.5" font-family="Helvetica,sans-Serif" font-size="10.00">+ Date()</text>
<text text-anchor="start" x="522" y="-530.5" font-family="Helvetica,sans-Serif" font-size="10.00">+ Date()</text>
<text text-anchor="start" x="522" y="-519.5" font-family="Helvetica,sans-Serif" font-size="10.00">+ Date()</text>
<text text-anchor="start" x="522" y="-508.5" font-family="Helvetica,sans-Serif" font-size="10.00">+ addDays()</text>
<text text-anchor="start" x="522" y="-497.5" font-family="Helvetica,sans-Serif" font-size="10.00">+ addHours()</text>
<text text-anchor="start" x="522" y="-486.5" font-family="Helvetica,sans-Serif" font-size="10.00">+ addMinutes()</text>
<text text-anchor="start" x="522" y="-475.5" font-family="Helvetica,sans-Serif" font-size="10.00">+ addMonths()</text>
<text text-anchor="start" x="522" y="-464.5" font-family="Helvetica,sans-Serif" font-size="10.00">and 44 more...</text>
<text text-anchor="start" x="522" y="-453.5" font-family="Helvetica,sans-Serif" font-size="10.00">+ maxDate()</text>
<text text-anchor="start" x="522" y="-442.5" font-family="Helvetica,sans-Serif" font-size="10.00">+ minDate()</text>
<text text-anchor="start" x="522" y="-431.5" font-family="Helvetica,sans-Serif" font-size="10.00">+ now()</text>
</a>
</g>
</g>
<!-- Node12&#45;&gt;Node1 -->
<g id="edge14" class="edge">
<title>Node12&#45;&gt;Node1</title>
<path fill="none" stroke="#404040" d="M551.6,-424.38C548.39,-396.47 542.74,-366.5 533,-340 521.99,-310.07 505.06,-280.16 487.43,-253.63"/>
<polygon fill="none" stroke="#404040" points="487.39,-253.57 480.71,-250.85 480.65,-243.64 487.33,-246.36 487.39,-253.57"/>
<text text-anchor="middle" x="582" y="-376" font-family="Helvetica,sans-Serif" font-size="10.00"> &#45;m_datetime</text>
<text text-anchor="middle" x="582" y="-365" font-family="Helvetica,sans-Serif" font-size="10.00">&#45;m_refDatetime</text>
</g>
</g>
</svg>
