<?xml version="1.0" encoding="UTF-8" standalone="no"?>
<!DOCTYPE svg PUBLIC "-//W3C//DTD SVG 1.1//EN"
 "http://www.w3.org/Graphics/SVG/1.1/DTD/svg11.dtd">
<!-- Generated by graphviz version 2.47.1 (20210417.1919)
 -->
<!-- Title: vmax Pages: 1 -->
<svg width="385pt" height="66pt"
 viewBox="0.00 0.00 385.00 66.00" xmlns="http://www.w3.org/2000/svg" xmlns:xlink="http://www.w3.org/1999/xlink">
<g id="graph0" class="graph" transform="scale(1 1) rotate(0) translate(4 62)">
<title>vmax</title>
<polygon fill="white" stroke="transparent" points="-4,4 -4,-62 381,-62 381,4 -4,4"/>
<!-- Node1 -->
<g id="node1" class="node">
<title>Node1</title>
<g id="a_node1"><a xlink:title=" ">
<polygon fill="#bfbfbf" stroke="black" points="336,-19.5 336,-38.5 377,-38.5 377,-19.5 336,-19.5"/>
<text text-anchor="middle" x="356.5" y="-26.5" font-family="Helvetica,sans-Serif" font-size="10.00">vmax</text>
</a>
</g>
</g>
<!-- Node2 -->
<g id="node2" class="node">
<title>Node2</title>
<g id="a_node2"><a xlink:href="classAtcfLine.html#a946c6bb3652bb5510a52cd7e7f22fac7" target="_top" xlink:title=" ">
<polygon fill="white" stroke="black" points="226,-38.5 226,-57.5 282,-57.5 282,-38.5 226,-38.5"/>
<text text-anchor="middle" x="254" y="-45.5" font-family="Helvetica,sans-Serif" font-size="10.00">setVmax</text>
</a>
</g>
</g>
<!-- Node1&#45;&gt;Node2 -->
<g id="edge1" class="edge">
<title>Node1&#45;&gt;Node2</title>
<path fill="none" stroke="midnightblue" d="M325.64,-34.64C311.81,-37.26 295.51,-40.34 282.04,-42.89"/>
<polygon fill="midnightblue" stroke="midnightblue" points="326.47,-38.05 335.64,-32.75 325.17,-31.17 326.47,-38.05"/>
</g>
<!-- Node5 -->
<g id="node5" class="node">
<title>Node5</title>
<g id="a_node5"><a xlink:href="classVortex.html#ae476777bb80581d4af28e4c2ce3a0b99" target="_top" xlink:title=" ">
<polygon fill="white" stroke="black" points="208,-0.5 208,-19.5 300,-19.5 300,-0.5 208,-0.5"/>
<text text-anchor="middle" x="254" y="-7.5" font-family="Helvetica,sans-Serif" font-size="10.00">Vortex::vhNoCori</text>
</a>
</g>
</g>
<!-- Node1&#45;&gt;Node5 -->
<g id="edge4" class="edge">
<title>Node1&#45;&gt;Node5</title>
<path fill="none" stroke="midnightblue" d="M325.68,-23.36C317.67,-21.85 308.82,-20.18 300.18,-18.54"/>
<polygon fill="midnightblue" stroke="midnightblue" points="325.17,-26.83 335.64,-25.25 326.47,-19.95 325.17,-26.83"/>
</g>
<!-- Node3 -->
<g id="node3" class="node">
<title>Node3</title>
<g id="a_node3"><a xlink:href="classAtcfLine.html#a669437f8facd47f46097adc21d0d497b" target="_top" xlink:title=" ">
<polygon fill="white" stroke="black" points="95,-38.5 95,-57.5 172,-57.5 172,-38.5 95,-38.5"/>
<text text-anchor="middle" x="133.5" y="-45.5" font-family="Helvetica,sans-Serif" font-size="10.00">parseAtcfLine</text>
</a>
</g>
</g>
<!-- Node2&#45;&gt;Node3 -->
<g id="edge2" class="edge">
<title>Node2&#45;&gt;Node3</title>
<path fill="none" stroke="midnightblue" d="M215.67,-48C201.86,-48 186.19,-48 172.34,-48"/>
<polygon fill="midnightblue" stroke="midnightblue" points="215.81,-51.5 225.81,-48 215.81,-44.5 215.81,-51.5"/>
</g>
<!-- Node4 -->
<g id="node4" class="node">
<title>Node4</title>
<g id="a_node4"><a xlink:href="classAtcf.html#aaab5dab5b969a87f538242e524431637" target="_top" xlink:title=" ">
<polygon fill="white" stroke="black" points="0,-38.5 0,-57.5 59,-57.5 59,-38.5 0,-38.5"/>
<text text-anchor="middle" x="29.5" y="-45.5" font-family="Helvetica,sans-Serif" font-size="10.00">Atcf::read</text>
</a>
</g>
</g>
<!-- Node3&#45;&gt;Node4 -->
<g id="edge3" class="edge">
<title>Node3&#45;&gt;Node4</title>
<path fill="none" stroke="midnightblue" d="M84.67,-48C75.93,-48 67.06,-48 59.11,-48"/>
<polygon fill="midnightblue" stroke="midnightblue" points="84.81,-51.5 94.81,-48 84.81,-44.5 84.81,-51.5"/>
</g>
<!-- Node6 -->
<g id="node6" class="node">
<title>Node6</title>
<g id="a_node6"><a xlink:href="classVortex.html#add1b3d68a6adac1887b0175193b6d79e" target="_top" xlink:title=" ">
<polygon fill="white" stroke="black" points="95,-0.5 95,-19.5 172,-19.5 172,-0.5 95,-0.5"/>
<text text-anchor="middle" x="133.5" y="-7.5" font-family="Helvetica,sans-Serif" font-size="10.00">Vortex::getVh</text>
</a>
</g>
</g>
<!-- Node5&#45;&gt;Node6 -->
<g id="edge5" class="edge">
<title>Node5&#45;&gt;Node6</title>
<path fill="none" stroke="midnightblue" d="M197.79,-10C189.12,-10 180.34,-10 172.18,-10"/>
<polygon fill="midnightblue" stroke="midnightblue" points="197.86,-13.5 207.86,-10 197.86,-6.5 197.86,-13.5"/>
</g>
</g>
</svg>
