<?xml version="1.0" encoding="UTF-8" standalone="no"?>
<!DOCTYPE svg PUBLIC "-//W3C//DTD SVG 1.1//EN"
 "http://www.w3.org/Graphics/SVG/1.1/DTD/svg11.dtd">
<!-- Generated by graphviz version 2.47.1 (20210417.1919)
 -->
<!-- Title: Vortex Pages: 1 -->
<!--zoomable 2152 -->
<svg id="main" version="1.1" xmlns="http://www.w3.org/2000/svg" xmlns:xlink="http://www.w3.org/1999/xlink" xml:space="preserve" onload="init(evt)">
<style type="text/css"><![CDATA[
.edge:hover path { stroke: red; }
.edge:hover polygon { stroke: red; fill: red; }
]]></style>
<script type="text/javascript"><![CDATA[
var edges = document.getElementsByTagName('g');
if (edges && edges.length) {
  for (var i=0;i<edges.length;i++) {
    if (edges[i].id.substr(0,4)=='edge') {
      edges[i].setAttribute('class','edge');
    }
  }
}
]]></script>
        <defs>
                <circle id="rim" cx="0" cy="0" r="7"/>
                <circle id="rim2" cx="0" cy="0" r="3.5"/>
                <g id="zoomPlus">
                        <use xlink:href="#rim" fill="#404040">
                                <set attributeName="fill" to="#808080" begin="zoomplus.mouseover" end="zoomplus.mouseout"/>
                        </use>
                        <path d="M-4,0h8M0,-4v8" fill="none" stroke="white" stroke-width="1.5" pointer-events="none"/>
                </g>
                <g id="zoomMin">
                        <use xlink:href="#rim" fill="#404040">
                                <set attributeName="fill" to="#808080" begin="zoomminus.mouseover" end="zoomminus.mouseout"/>
                        </use>
                        <path d="M-4,0h8" fill="none" stroke="white" stroke-width="1.5" pointer-events="none"/>
                </g>
                <g id="dirArrow">
                        <path fill="none" stroke="white" stroke-width="1.5" d="M0,-3.0v7 M-2.5,-0.5L0,-3.0L2.5,-0.5"/>
                </g>
               <g id="resetDef">
                       <use xlink:href="#rim2" fill="#404040">
                               <set attributeName="fill" to="#808080" begin="reset.mouseover" end="reset.mouseout"/>
                       </use>
               </g>
        </defs>

<script type="text/javascript">
var viewWidth = 589;
var viewHeight = 2152;
var sectionId = 'dynsection-0';
</script>
<script xlink:href="svgpan.js"/>
<svg id="graph" class="graph">
<g id="viewport">
<title>Vortex</title>
<polygon fill="white" stroke="transparent" points="-4,4 -4,-2148 584.5,-2148 584.5,4 -4,4"/>
<!-- Node1 -->
<g id="node1" class="node">
<title>Node1</title>
<g id="a_node1"><a xlink:title=" ">
<polygon fill="#bfbfbf" stroke="black" points="318.5,-0.5 318.5,-266.5 440.5,-266.5 440.5,-0.5 318.5,-0.5"/>
<text text-anchor="middle" x="379.5" y="-254.5" font-family="Helvetica,sans-Serif" font-size="10.00">Vortex</text>
<polyline fill="none" stroke="black" points="318.5,-247.5 440.5,-247.5 "/>
<text text-anchor="start" x="326.5" y="-235.5" font-family="Helvetica,sans-Serif" font-size="10.00">+ maxIsotachs</text>
<text text-anchor="start" x="326.5" y="-224.5" font-family="Helvetica,sans-Serif" font-size="10.00">+ nQuads</text>
<text text-anchor="start" x="326.5" y="-213.5" font-family="Helvetica,sans-Serif" font-size="10.00">&#45; m_currentIsotach</text>
<text text-anchor="start" x="326.5" y="-202.5" font-family="Helvetica,sans-Serif" font-size="10.00">&#45; m_currentQuadrant</text>
<polyline fill="none" stroke="black" points="318.5,-195.5 440.5,-195.5 "/>
<text text-anchor="start" x="326.5" y="-183.5" font-family="Helvetica,sans-Serif" font-size="10.00">+ Vortex()</text>
<text text-anchor="start" x="326.5" y="-172.5" font-family="Helvetica,sans-Serif" font-size="10.00">+ interpolateParameter()</text>
<text text-anchor="start" x="326.5" y="-161.5" font-family="Helvetica,sans-Serif" font-size="10.00">+ setStormData()</text>
<text text-anchor="start" x="326.5" y="-150.5" font-family="Helvetica,sans-Serif" font-size="10.00">+ rotateWinds()</text>
<text text-anchor="start" x="326.5" y="-139.5" font-family="Helvetica,sans-Serif" font-size="10.00">&#45; findRoot()</text>
<text text-anchor="start" x="326.5" y="-128.5" font-family="Helvetica,sans-Serif" font-size="10.00">&#45; getParameterValue()</text>
<text text-anchor="start" x="326.5" y="-117.5" font-family="Helvetica,sans-Serif" font-size="10.00">&#45; getVh()</text>
<text text-anchor="start" x="326.5" y="-106.5" font-family="Helvetica,sans-Serif" font-size="10.00">&#45; interpR()</text>
<text text-anchor="start" x="326.5" y="-95.5" font-family="Helvetica,sans-Serif" font-size="10.00">&#45; setCurrentQuadrant()</text>
<text text-anchor="start" x="326.5" y="-84.5" font-family="Helvetica,sans-Serif" font-size="10.00">&#45; spInterp()</text>
<text text-anchor="start" x="326.5" y="-73.5" font-family="Helvetica,sans-Serif" font-size="10.00">&#45; vgWithCoriFull()</text>
<text text-anchor="start" x="326.5" y="-62.5" font-family="Helvetica,sans-Serif" font-size="10.00">&#45; vhNoCori()</text>
<text text-anchor="start" x="326.5" y="-51.5" font-family="Helvetica,sans-Serif" font-size="10.00">&#45; vhWithCori()</text>
<text text-anchor="start" x="326.5" y="-40.5" font-family="Helvetica,sans-Serif" font-size="10.00">&#45; computeBg()</text>
<text text-anchor="start" x="326.5" y="-29.5" font-family="Helvetica,sans-Serif" font-size="10.00">&#45; computePhi()</text>
<text text-anchor="start" x="326.5" y="-18.5" font-family="Helvetica,sans-Serif" font-size="10.00">&#45; getBaseQuadrant()</text>
<text text-anchor="start" x="326.5" y="-7.5" font-family="Helvetica,sans-Serif" font-size="10.00">&#45; rossbyNumber()</text>
</a>
</g>
</g>
<!-- Node2 -->
<g id="node2" class="node">
<title>Node2</title>
<g id="a_node2"><a xlink:href="classAtcfLine.html" target="_top" xlink:title=" ">
<polygon fill="white" stroke="black" points="314,-314.5 314,-635.5 445,-635.5 445,-314.5 314,-314.5"/>
<text text-anchor="middle" x="379.5" y="-623.5" font-family="Helvetica,sans-Serif" font-size="10.00">AtcfLine</text>
<polyline fill="none" stroke="black" points="314,-616.5 445,-616.5 "/>
<text text-anchor="start" x="322" y="-604.5" font-family="Helvetica,sans-Serif" font-size="10.00">&#45; m_coriolis</text>
<text text-anchor="start" x="322" y="-593.5" font-family="Helvetica,sans-Serif" font-size="10.00">&#45; m_cycloneNumber</text>
<text text-anchor="start" x="322" y="-582.5" font-family="Helvetica,sans-Serif" font-size="10.00">&#45; m_eyeDiameter</text>
<text text-anchor="start" x="322" y="-571.5" font-family="Helvetica,sans-Serif" font-size="10.00">&#45; m_gusts</text>
<text text-anchor="start" x="322" y="-560.5" font-family="Helvetica,sans-Serif" font-size="10.00">&#45; m_lat</text>
<text text-anchor="start" x="322" y="-549.5" font-family="Helvetica,sans-Serif" font-size="10.00">&#45; m_lon</text>
<text text-anchor="start" x="322" y="-538.5" font-family="Helvetica,sans-Serif" font-size="10.00">&#45; m_mslp</text>
<text text-anchor="start" x="322" y="-527.5" font-family="Helvetica,sans-Serif" font-size="10.00">&#45; m_null</text>
<text text-anchor="start" x="322" y="-516.5" font-family="Helvetica,sans-Serif" font-size="10.00">&#45; m_pouter</text>
<text text-anchor="start" x="322" y="-505.5" font-family="Helvetica,sans-Serif" font-size="10.00">&#45; m_radiusMaxWinds</text>
<text text-anchor="start" x="322" y="-494.5" font-family="Helvetica,sans-Serif" font-size="10.00">and 10 more...</text>
<polyline fill="none" stroke="black" points="314,-487.5 445,-487.5 "/>
<text text-anchor="start" x="322" y="-475.5" font-family="Helvetica,sans-Serif" font-size="10.00">+ AtcfLine()</text>
<text text-anchor="start" x="322" y="-464.5" font-family="Helvetica,sans-Serif" font-size="10.00">+ addIsotach()</text>
<text text-anchor="start" x="322" y="-453.5" font-family="Helvetica,sans-Serif" font-size="10.00">+ basin()</text>
<text text-anchor="start" x="322" y="-442.5" font-family="Helvetica,sans-Serif" font-size="10.00">+ cisotach()</text>
<text text-anchor="start" x="322" y="-431.5" font-family="Helvetica,sans-Serif" font-size="10.00">+ coriolis()</text>
<text text-anchor="start" x="322" y="-420.5" font-family="Helvetica,sans-Serif" font-size="10.00">+ cycloneNumber()</text>
<text text-anchor="start" x="322" y="-409.5" font-family="Helvetica,sans-Serif" font-size="10.00">+ datetime()</text>
<text text-anchor="start" x="322" y="-398.5" font-family="Helvetica,sans-Serif" font-size="10.00">+ eyeDiameter()</text>
<text text-anchor="start" x="322" y="-387.5" font-family="Helvetica,sans-Serif" font-size="10.00">+ gusts()</text>
<text text-anchor="start" x="322" y="-376.5" font-family="Helvetica,sans-Serif" font-size="10.00">+ initials()</text>
<text text-anchor="start" x="322" y="-365.5" font-family="Helvetica,sans-Serif" font-size="10.00">and 59 more...</text>
<text text-anchor="start" x="322" y="-354.5" font-family="Helvetica,sans-Serif" font-size="10.00">+ isSameForecastPeriod()</text>
<text text-anchor="start" x="322" y="-343.5" font-family="Helvetica,sans-Serif" font-size="10.00">+ parseAtcfLine()</text>
<text text-anchor="start" x="322" y="-332.5" font-family="Helvetica,sans-Serif" font-size="10.00">&#45; readValueCheckBlank()</text>
<text text-anchor="start" x="322" y="-321.5" font-family="Helvetica,sans-Serif" font-size="10.00">&#45; splitString()</text>
</a>
</g>
</g>
<!-- Node2&#45;&gt;Node1 -->
<g id="edge1" class="edge">
<title>Node2&#45;&gt;Node1</title>
<path fill="none" stroke="#404040" d="M379.5,-314.19C379.5,-302.38 379.5,-290.51 379.5,-278.81"/>
<polygon fill="none" stroke="#404040" points="379.5,-278.68 375.5,-272.68 379.5,-266.68 383.5,-272.68 379.5,-278.68"/>
<text text-anchor="middle" x="412.5" y="-288" font-family="Helvetica,sans-Serif" font-size="10.00"> &#45;m_stormData</text>
</g>
<!-- Node3 -->
<g id="node3" class="node">
<title>Node3</title>
<g id="a_node3"><a xlink:title=" ">
<polygon fill="white" stroke="#bfbfbf" points="249.5,-810 249.5,-867 343.5,-867 343.5,-810 249.5,-810"/>
<text text-anchor="middle" x="296.5" y="-855" font-family="Helvetica,sans-Serif" font-size="10.00">vector&lt; Isotach &gt;</text>
<polyline fill="none" stroke="#bfbfbf" points="249.5,-848 343.5,-848 "/>
<text text-anchor="middle" x="296.5" y="-836" font-family="Helvetica,sans-Serif" font-size="10.00"> </text>
<polyline fill="none" stroke="#bfbfbf" points="249.5,-829 343.5,-829 "/>
<text text-anchor="middle" x="296.5" y="-817" font-family="Helvetica,sans-Serif" font-size="10.00"> </text>
</a>
</g>
</g>
<!-- Node3&#45;&gt;Node2 -->
<g id="edge2" class="edge">
<title>Node3&#45;&gt;Node2</title>
<path fill="none" stroke="#404040" d="M299.18,-809.89C303,-773.76 310.98,-708.61 323.5,-654 323.99,-651.84 324.5,-649.68 325.02,-647.5"/>
<polygon fill="none" stroke="#404040" points="325.04,-647.43 322.6,-640.64 327.92,-635.78 330.36,-642.56 325.04,-647.43"/>
<text text-anchor="middle" x="349.5" y="-684.5" font-family="Helvetica,sans-Serif" font-size="10.00"> &#45;m_isotach</text>
</g>
<!-- Node4 -->
<g id="node4" class="node">
<title>Node4</title>
<g id="a_node4"><a xlink:href="classIsotach.html" target="_top" xlink:title=" ">
<polygon fill="white" stroke="black" points="154,-986.5 154,-1197.5 255,-1197.5 255,-986.5 154,-986.5"/>
<text text-anchor="middle" x="204.5" y="-1185.5" font-family="Helvetica,sans-Serif" font-size="10.00">Isotach</text>
<polyline fill="none" stroke="black" points="154,-1178.5 255,-1178.5 "/>
<text text-anchor="start" x="162" y="-1166.5" font-family="Helvetica,sans-Serif" font-size="10.00">&#45; m_radiusCode</text>
<text text-anchor="start" x="162" y="-1155.5" font-family="Helvetica,sans-Serif" font-size="10.00">&#45; m_windSpeed</text>
<polyline fill="none" stroke="black" points="154,-1148.5 255,-1148.5 "/>
<text text-anchor="start" x="162" y="-1136.5" font-family="Helvetica,sans-Serif" font-size="10.00">+ Isotach()</text>
<text text-anchor="start" x="162" y="-1125.5" font-family="Helvetica,sans-Serif" font-size="10.00">+ Isotach()</text>
<text text-anchor="start" x="162" y="-1114.5" font-family="Helvetica,sans-Serif" font-size="10.00">+ chollandB()</text>
<text text-anchor="start" x="162" y="-1103.5" font-family="Helvetica,sans-Serif" font-size="10.00">+ cisotachRadius()</text>
<text text-anchor="start" x="162" y="-1092.5" font-family="Helvetica,sans-Serif" font-size="10.00">+ code()</text>
<text text-anchor="start" x="162" y="-1081.5" font-family="Helvetica,sans-Serif" font-size="10.00">+ cphi()</text>
<text text-anchor="start" x="162" y="-1070.5" font-family="Helvetica,sans-Serif" font-size="10.00">+ cquadFlag()</text>
<text text-anchor="start" x="162" y="-1059.5" font-family="Helvetica,sans-Serif" font-size="10.00">+ cquadrantVr()</text>
<text text-anchor="start" x="162" y="-1048.5" font-family="Helvetica,sans-Serif" font-size="10.00">+ crmax()</text>
<text text-anchor="start" x="162" y="-1037.5" font-family="Helvetica,sans-Serif" font-size="10.00">+ cvmaxBl()</text>
<text text-anchor="start" x="162" y="-1026.5" font-family="Helvetica,sans-Serif" font-size="10.00">and 13 more...</text>
<text text-anchor="start" x="162" y="-1015.5" font-family="Helvetica,sans-Serif" font-size="10.00">+ codeFromString()</text>
<text text-anchor="start" x="162" y="-1004.5" font-family="Helvetica,sans-Serif" font-size="10.00">+ isNull()</text>
<text text-anchor="start" x="162" y="-993.5" font-family="Helvetica,sans-Serif" font-size="10.00">+ stringFromCode()</text>
</a>
</g>
</g>
<!-- Node4&#45;&gt;Node3 -->
<g id="edge3" class="edge">
<title>Node4&#45;&gt;Node3</title>
<path fill="none" stroke="#404040" d="M226,-986.36C228.87,-976.34 232.03,-966.41 235.5,-957 245.68,-929.38 260.93,-900 273.64,-877.52"/>
<polygon fill="none" stroke="#404040" points="273.67,-877.48 273.19,-870.29 279.65,-867.08 280.12,-874.28 273.67,-877.48"/>
<text text-anchor="middle" x="260" y="-960" font-family="Helvetica,sans-Serif" font-size="10.00"> +elements</text>
</g>
<!-- Node5 -->
<g id="node5" class="node">
<title>Node5</title>
<g id="a_node5"><a xlink:href="classCircularArray.html" target="_top" xlink:title=" ">
<polygon fill="white" stroke="black" points="0,-1300.5 0,-1511.5 121,-1511.5 121,-1300.5 0,-1300.5"/>
<text text-anchor="middle" x="60.5" y="-1499.5" font-family="Helvetica,sans-Serif" font-size="10.00">CircularArray&lt; bool, 4 &gt;</text>
<polyline fill="none" stroke="black" points="0,-1492.5 121,-1492.5 "/>
<text text-anchor="start" x="8" y="-1480.5" font-family="Helvetica,sans-Serif" font-size="10.00">&#45; m_data</text>
<polyline fill="none" stroke="black" points="0,-1473.5 121,-1473.5 "/>
<text text-anchor="start" x="8" y="-1461.5" font-family="Helvetica,sans-Serif" font-size="10.00">+ CircularArray()</text>
<text text-anchor="start" x="8" y="-1450.5" font-family="Helvetica,sans-Serif" font-size="10.00">+ CircularArray()</text>
<text text-anchor="start" x="8" y="-1439.5" font-family="Helvetica,sans-Serif" font-size="10.00">+ at()</text>
<text text-anchor="start" x="8" y="-1428.5" font-family="Helvetica,sans-Serif" font-size="10.00">+ begin()</text>
<text text-anchor="start" x="8" y="-1417.5" font-family="Helvetica,sans-Serif" font-size="10.00">+ cbegin()</text>
<text text-anchor="start" x="8" y="-1406.5" font-family="Helvetica,sans-Serif" font-size="10.00">+ cdata()</text>
<text text-anchor="start" x="8" y="-1395.5" font-family="Helvetica,sans-Serif" font-size="10.00">+ cend()</text>
<text text-anchor="start" x="8" y="-1384.5" font-family="Helvetica,sans-Serif" font-size="10.00">+ data()</text>
<text text-anchor="start" x="8" y="-1373.5" font-family="Helvetica,sans-Serif" font-size="10.00">+ end()</text>
<text text-anchor="start" x="8" y="-1362.5" font-family="Helvetica,sans-Serif" font-size="10.00">+ operator=()</text>
<text text-anchor="start" x="8" y="-1351.5" font-family="Helvetica,sans-Serif" font-size="10.00">+ operator[]()</text>
<text text-anchor="start" x="8" y="-1340.5" font-family="Helvetica,sans-Serif" font-size="10.00">+ operator[]()</text>
<text text-anchor="start" x="8" y="-1329.5" font-family="Helvetica,sans-Serif" font-size="10.00">+ set()</text>
<text text-anchor="start" x="8" y="-1318.5" font-family="Helvetica,sans-Serif" font-size="10.00">+ size()</text>
<text text-anchor="start" x="8" y="-1307.5" font-family="Helvetica,sans-Serif" font-size="10.00">&#45; mod_floor()</text>
</a>
</g>
</g>
<!-- Node5&#45;&gt;Node4 -->
<g id="edge4" class="edge">
<title>Node5&#45;&gt;Node4</title>
<path fill="none" stroke="#404040" d="M103.04,-1300.36C114.75,-1272.73 127.75,-1243.08 140.5,-1216 143.09,-1210.49 145.8,-1204.87 148.57,-1199.22"/>
<polygon fill="none" stroke="#404040" points="148.64,-1199.07 147.72,-1191.92 153.96,-1188.32 154.89,-1195.47 148.64,-1199.07"/>
<text text-anchor="middle" x="170.5" y="-1246.5" font-family="Helvetica,sans-Serif" font-size="10.00"> &#45;m_quadFlag</text>
</g>
<!-- Node6 -->
<g id="node6" class="node">
<title>Node6</title>
<g id="a_node6"><a xlink:href="classCircularArray.html" target="_top" xlink:title=" ">
<polygon fill="white" stroke="black" points="94,-1559.5 94,-1781.5 209,-1781.5 209,-1559.5 94,-1559.5"/>
<text text-anchor="start" x="102" y="-1769.5" font-family="Helvetica,sans-Serif" font-size="10.00">CircularArray&lt; T, array</text>
<text text-anchor="middle" x="151.5" y="-1758.5" font-family="Helvetica,sans-Serif" font-size="10.00">_size &gt;</text>
<polyline fill="none" stroke="black" points="94,-1751.5 209,-1751.5 "/>
<text text-anchor="middle" x="151.5" y="-1739.5" font-family="Helvetica,sans-Serif" font-size="10.00"> </text>
<polyline fill="none" stroke="black" points="94,-1732.5 209,-1732.5 "/>
<text text-anchor="start" x="102" y="-1720.5" font-family="Helvetica,sans-Serif" font-size="10.00">+ CircularArray()</text>
<text text-anchor="start" x="102" y="-1709.5" font-family="Helvetica,sans-Serif" font-size="10.00">+ CircularArray()</text>
<text text-anchor="start" x="102" y="-1698.5" font-family="Helvetica,sans-Serif" font-size="10.00">+ at()</text>
<text text-anchor="start" x="102" y="-1687.5" font-family="Helvetica,sans-Serif" font-size="10.00">+ begin()</text>
<text text-anchor="start" x="102" y="-1676.5" font-family="Helvetica,sans-Serif" font-size="10.00">+ cbegin()</text>
<text text-anchor="start" x="102" y="-1665.5" font-family="Helvetica,sans-Serif" font-size="10.00">+ cdata()</text>
<text text-anchor="start" x="102" y="-1654.5" font-family="Helvetica,sans-Serif" font-size="10.00">+ cend()</text>
<text text-anchor="start" x="102" y="-1643.5" font-family="Helvetica,sans-Serif" font-size="10.00">+ data()</text>
<text text-anchor="start" x="102" y="-1632.5" font-family="Helvetica,sans-Serif" font-size="10.00">+ end()</text>
<text text-anchor="start" x="102" y="-1621.5" font-family="Helvetica,sans-Serif" font-size="10.00">+ operator=()</text>
<text text-anchor="start" x="102" y="-1610.5" font-family="Helvetica,sans-Serif" font-size="10.00">+ operator[]()</text>
<text text-anchor="start" x="102" y="-1599.5" font-family="Helvetica,sans-Serif" font-size="10.00">+ operator[]()</text>
<text text-anchor="start" x="102" y="-1588.5" font-family="Helvetica,sans-Serif" font-size="10.00">+ set()</text>
<text text-anchor="start" x="102" y="-1577.5" font-family="Helvetica,sans-Serif" font-size="10.00">+ size()</text>
<text text-anchor="start" x="102" y="-1566.5" font-family="Helvetica,sans-Serif" font-size="10.00">&#45; mod_floor()</text>
</a>
</g>
</g>
<!-- Node6&#45;&gt;Node5 -->
<g id="edge5" class="edge">
<title>Node6&#45;&gt;Node5</title>
<path fill="none" stroke="orange" d="M109.97,-1549.7C105.59,-1537.07 101.17,-1524.3 96.85,-1511.87"/>
<polygon fill="orange" stroke="orange" points="106.72,-1551.02 113.3,-1559.32 113.33,-1548.72 106.72,-1551.02"/>
<text text-anchor="middle" x="132" y="-1533" font-family="Helvetica,sans-Serif" font-size="10.00"> &lt; bool, 4 &gt;</text>
</g>
<!-- Node10 -->
<g id="node10" class="node">
<title>Node10</title>
<g id="a_node10"><a xlink:href="classCircularArray.html" target="_top" xlink:title=" ">
<polygon fill="white" stroke="black" points="139,-1300.5 139,-1511.5 270,-1511.5 270,-1300.5 139,-1300.5"/>
<text text-anchor="middle" x="204.5" y="-1499.5" font-family="Helvetica,sans-Serif" font-size="10.00">CircularArray&lt; double, 4 &gt;</text>
<polyline fill="none" stroke="black" points="139,-1492.5 270,-1492.5 "/>
<text text-anchor="start" x="147" y="-1480.5" font-family="Helvetica,sans-Serif" font-size="10.00">&#45; m_data</text>
<polyline fill="none" stroke="black" points="139,-1473.5 270,-1473.5 "/>
<text text-anchor="start" x="147" y="-1461.5" font-family="Helvetica,sans-Serif" font-size="10.00">+ CircularArray()</text>
<text text-anchor="start" x="147" y="-1450.5" font-family="Helvetica,sans-Serif" font-size="10.00">+ CircularArray()</text>
<text text-anchor="start" x="147" y="-1439.5" font-family="Helvetica,sans-Serif" font-size="10.00">+ at()</text>
<text text-anchor="start" x="147" y="-1428.5" font-family="Helvetica,sans-Serif" font-size="10.00">+ begin()</text>
<text text-anchor="start" x="147" y="-1417.5" font-family="Helvetica,sans-Serif" font-size="10.00">+ cbegin()</text>
<text text-anchor="start" x="147" y="-1406.5" font-family="Helvetica,sans-Serif" font-size="10.00">+ cdata()</text>
<text text-anchor="start" x="147" y="-1395.5" font-family="Helvetica,sans-Serif" font-size="10.00">+ cend()</text>
<text text-anchor="start" x="147" y="-1384.5" font-family="Helvetica,sans-Serif" font-size="10.00">+ data()</text>
<text text-anchor="start" x="147" y="-1373.5" font-family="Helvetica,sans-Serif" font-size="10.00">+ end()</text>
<text text-anchor="start" x="147" y="-1362.5" font-family="Helvetica,sans-Serif" font-size="10.00">+ operator=()</text>
<text text-anchor="start" x="147" y="-1351.5" font-family="Helvetica,sans-Serif" font-size="10.00">+ operator[]()</text>
<text text-anchor="start" x="147" y="-1340.5" font-family="Helvetica,sans-Serif" font-size="10.00">+ operator[]()</text>
<text text-anchor="start" x="147" y="-1329.5" font-family="Helvetica,sans-Serif" font-size="10.00">+ set()</text>
<text text-anchor="start" x="147" y="-1318.5" font-family="Helvetica,sans-Serif" font-size="10.00">+ size()</text>
<text text-anchor="start" x="147" y="-1307.5" font-family="Helvetica,sans-Serif" font-size="10.00">&#45; mod_floor()</text>
</a>
</g>
</g>
<!-- Node6&#45;&gt;Node10 -->
<g id="edge11" class="edge">
<title>Node6&#45;&gt;Node10</title>
<path fill="none" stroke="orange" d="M175.76,-1549.33C178.29,-1536.82 180.84,-1524.18 183.33,-1511.87"/>
<polygon fill="orange" stroke="orange" points="172.29,-1548.82 173.75,-1559.32 179.16,-1550.21 172.29,-1548.82"/>
<text text-anchor="middle" x="211" y="-1533" font-family="Helvetica,sans-Serif" font-size="10.00"> &lt; double, 4 &gt;</text>
</g>
<!-- Node7 -->
<g id="node7" class="node">
<title>Node7</title>
<g id="a_node7"><a xlink:title=" ">
<polygon fill="white" stroke="#bfbfbf" points="95.5,-1829.5 95.5,-1886.5 207.5,-1886.5 207.5,-1829.5 95.5,-1829.5"/>
<text text-anchor="middle" x="151.5" y="-1874.5" font-family="Helvetica,sans-Serif" font-size="10.00">array&lt; T, array_size &gt;</text>
<polyline fill="none" stroke="#bfbfbf" points="95.5,-1867.5 207.5,-1867.5 "/>
<text text-anchor="middle" x="151.5" y="-1855.5" font-family="Helvetica,sans-Serif" font-size="10.00"> </text>
<polyline fill="none" stroke="#bfbfbf" points="95.5,-1848.5 207.5,-1848.5 "/>
<text text-anchor="middle" x="151.5" y="-1836.5" font-family="Helvetica,sans-Serif" font-size="10.00"> </text>
</a>
</g>
</g>
<!-- Node7&#45;&gt;Node6 -->
<g id="edge6" class="edge">
<title>Node7&#45;&gt;Node6</title>
<path fill="none" stroke="#404040" d="M151.5,-1829.23C151.5,-1819.09 151.5,-1806.87 151.5,-1793.78"/>
<polygon fill="none" stroke="#404040" points="151.5,-1793.54 147.5,-1787.54 151.5,-1781.54 155.5,-1787.54 151.5,-1793.54"/>
<text text-anchor="middle" x="171" y="-1803" font-family="Helvetica,sans-Serif" font-size="10.00"> &#45;m_data</text>
</g>
<!-- Node8 -->
<g id="node8" class="node">
<title>Node8</title>
<g id="a_node8"><a xlink:title=" ">
<polygon fill="white" stroke="#bfbfbf" points="212,-2086.5 212,-2143.5 241,-2143.5 241,-2086.5 212,-2086.5"/>
<text text-anchor="middle" x="226.5" y="-2131.5" font-family="Helvetica,sans-Serif" font-size="10.00">T</text>
<polyline fill="none" stroke="#bfbfbf" points="212,-2124.5 241,-2124.5 "/>
<text text-anchor="middle" x="226.5" y="-2112.5" font-family="Helvetica,sans-Serif" font-size="10.00"> </text>
<polyline fill="none" stroke="#bfbfbf" points="212,-2105.5 241,-2105.5 "/>
<text text-anchor="middle" x="226.5" y="-2093.5" font-family="Helvetica,sans-Serif" font-size="10.00"> </text>
</a>
</g>
</g>
<!-- Node8&#45;&gt;Node7 -->
<g id="edge7" class="edge">
<title>Node8&#45;&gt;Node7</title>
<path fill="none" stroke="#404040" d="M211.83,-2105.91C192.2,-2094.14 158.27,-2070.25 144.5,-2039 124.68,-1994 131.84,-1936.38 140.32,-1898.61"/>
<polygon fill="none" stroke="#404040" points="140.4,-1898.28 137.92,-1891.51 143.21,-1886.62 145.7,-1893.39 140.4,-1898.28"/>
<text text-anchor="middle" x="169" y="-2007.5" font-family="Helvetica,sans-Serif" font-size="10.00"> +elements</text>
</g>
<!-- Node9 -->
<g id="node9" class="node">
<title>Node9</title>
<g id="a_node9"><a xlink:title=" ">
<polygon fill="white" stroke="#bfbfbf" points="202.5,-1981.5 202.5,-2038.5 264.5,-2038.5 264.5,-1981.5 202.5,-1981.5"/>
<text text-anchor="middle" x="233.5" y="-2026.5" font-family="Helvetica,sans-Serif" font-size="10.00">array&lt; T &gt;</text>
<polyline fill="none" stroke="#bfbfbf" points="202.5,-2019.5 264.5,-2019.5 "/>
<text text-anchor="middle" x="233.5" y="-2007.5" font-family="Helvetica,sans-Serif" font-size="10.00"> </text>
<polyline fill="none" stroke="#bfbfbf" points="202.5,-2000.5 264.5,-2000.5 "/>
<text text-anchor="middle" x="233.5" y="-1988.5" font-family="Helvetica,sans-Serif" font-size="10.00"> </text>
</a>
</g>
</g>
<!-- Node8&#45;&gt;Node9 -->
<g id="edge9" class="edge">
<title>Node8&#45;&gt;Node9</title>
<path fill="none" stroke="#404040" d="M226.36,-2086.43C226.48,-2077.08 226.79,-2066.57 227.5,-2057 227.65,-2054.96 227.83,-2052.87 228.03,-2050.76"/>
<polygon fill="none" stroke="#404040" points="228.05,-2050.61 224.74,-2044.2 229.38,-2038.68 232.69,-2045.09 228.05,-2050.61"/>
<text text-anchor="middle" x="252" y="-2060" font-family="Helvetica,sans-Serif" font-size="10.00"> +elements</text>
</g>
<!-- Node11 -->
<g id="node11" class="node">
<title>Node11</title>
<g id="a_node11"><a xlink:title=" ">
<polygon fill="white" stroke="#bfbfbf" points="264.5,-1905.5 264.5,-1962.5 332.5,-1962.5 332.5,-1905.5 264.5,-1905.5"/>
<text text-anchor="middle" x="298.5" y="-1950.5" font-family="Helvetica,sans-Serif" font-size="10.00">vector&lt; T &gt;</text>
<polyline fill="none" stroke="#bfbfbf" points="264.5,-1943.5 332.5,-1943.5 "/>
<text text-anchor="middle" x="298.5" y="-1931.5" font-family="Helvetica,sans-Serif" font-size="10.00"> </text>
<polyline fill="none" stroke="#bfbfbf" points="264.5,-1924.5 332.5,-1924.5 "/>
<text text-anchor="middle" x="298.5" y="-1912.5" font-family="Helvetica,sans-Serif" font-size="10.00"> </text>
</a>
</g>
</g>
<!-- Node8&#45;&gt;Node11 -->
<g id="edge13" class="edge">
<title>Node8&#45;&gt;Node11</title>
<path fill="none" stroke="#404040" d="M241.26,-2104.55C252.79,-2096.33 268.2,-2083.36 276.5,-2068 291.97,-2039.38 297.12,-2002.64 298.61,-1975.02"/>
<polygon fill="none" stroke="#404040" points="298.62,-1974.65 294.84,-1968.51 299.06,-1962.66 302.84,-1968.8 298.62,-1974.65"/>
<text text-anchor="middle" x="306" y="-2060" font-family="Helvetica,sans-Serif" font-size="10.00"> +elements</text>
</g>
<!-- Node9&#45;&gt;Node7 -->
<g id="edge8" class="edge">
<title>Node9&#45;&gt;Node7</title>
<path fill="none" stroke="orange" d="M194.47,-1981.73C188.45,-1976.11 182.81,-1969.8 178.5,-1963 163.84,-1939.83 157.11,-1908.98 154.04,-1886.9"/>
<polygon fill="orange" stroke="orange" points="192.4,-1984.56 202.24,-1988.47 196.98,-1979.27 192.4,-1984.56"/>
<text text-anchor="middle" x="217" y="-1931.5" font-family="Helvetica,sans-Serif" font-size="10.00"> &lt; T, array_size &gt;</text>
</g>
<!-- Node10&#45;&gt;Node4 -->
<g id="edge10" class="edge">
<title>Node10&#45;&gt;Node4</title>
<path fill="none" stroke="#404040" d="M204.5,-1300.24C204.5,-1271.22 204.5,-1239.54 204.5,-1209.88"/>
<polygon fill="none" stroke="#404040" points="204.5,-1209.75 200.5,-1203.75 204.5,-1197.75 208.5,-1203.75 204.5,-1209.75"/>
<text text-anchor="middle" x="244" y="-1274" font-family="Helvetica,sans-Serif" font-size="10.00"> &#45;m_hollandB</text>
<text text-anchor="middle" x="244" y="-1263" font-family="Helvetica,sans-Serif" font-size="10.00">&#45;m_isotachRadius</text>
<text text-anchor="middle" x="244" y="-1252" font-family="Helvetica,sans-Serif" font-size="10.00">&#45;m_phi</text>
<text text-anchor="middle" x="244" y="-1241" font-family="Helvetica,sans-Serif" font-size="10.00">&#45;m_quadrantVr</text>
<text text-anchor="middle" x="244" y="-1230" font-family="Helvetica,sans-Serif" font-size="10.00">&#45;m_rmax</text>
<text text-anchor="middle" x="244" y="-1219" font-family="Helvetica,sans-Serif" font-size="10.00">&#45;m_vmaxBL</text>
</g>
<!-- Node11&#45;&gt;Node3 -->
<g id="edge12" class="edge">
<title>Node11&#45;&gt;Node3</title>
<path fill="none" stroke="orange" d="M298.5,-1895.15C298.5,-1870.02 298.5,-1836.29 298.5,-1806.5 298.5,-1806.5 298.5,-1806.5 298.5,-1091 298.5,-1009.57 297.44,-913.3 296.86,-867.04"/>
<polygon fill="orange" stroke="orange" points="295,-1895.36 298.5,-1905.36 302,-1895.36 295,-1895.36"/>
<text text-anchor="middle" x="325.5" y="-1533" font-family="Helvetica,sans-Serif" font-size="10.00"> &lt; Isotach &gt;</text>
</g>
<!-- Node12 -->
<g id="node12" class="node">
<title>Node12</title>
<g id="a_node12"><a xlink:title=" ">
<polygon fill="white" stroke="#bfbfbf" points="362,-810 362,-867 403,-867 403,-810 362,-810"/>
<text text-anchor="middle" x="382.5" y="-855" font-family="Helvetica,sans-Serif" font-size="10.00">string</text>
<polyline fill="none" stroke="#bfbfbf" points="362,-848 403,-848 "/>
<text text-anchor="middle" x="382.5" y="-836" font-family="Helvetica,sans-Serif" font-size="10.00"> </text>
<polyline fill="none" stroke="#bfbfbf" points="362,-829 403,-829 "/>
<text text-anchor="middle" x="382.5" y="-817" font-family="Helvetica,sans-Serif" font-size="10.00"> </text>
</a>
</g>
</g>
<!-- Node12&#45;&gt;Node2 -->
<g id="edge14" class="edge">
<title>Node12&#45;&gt;Node2</title>
<path fill="none" stroke="#404040" d="M381.93,-809.96C381.46,-786.15 380.83,-750.81 380.5,-720 380.25,-696.72 380.07,-672.19 379.93,-648.01"/>
<polygon fill="none" stroke="#404040" points="379.93,-647.8 375.89,-641.82 379.86,-635.8 383.89,-641.78 379.93,-647.8"/>
<text text-anchor="middle" x="439" y="-712" font-family="Helvetica,sans-Serif" font-size="10.00"> &#45;m_basin</text>
<text text-anchor="middle" x="439" y="-701" font-family="Helvetica,sans-Serif" font-size="10.00">&#45;m_initials</text>
<text text-anchor="middle" x="439" y="-690" font-family="Helvetica,sans-Serif" font-size="10.00">&#45;m_maxDevelopmentLevel</text>
<text text-anchor="middle" x="439" y="-679" font-family="Helvetica,sans-Serif" font-size="10.00">&#45;m_stormName</text>
<text text-anchor="middle" x="439" y="-668" font-family="Helvetica,sans-Serif" font-size="10.00">&#45;m_systemDepth</text>
<text text-anchor="middle" x="439" y="-657" font-family="Helvetica,sans-Serif" font-size="10.00">&#45;m_techstring</text>
</g>
<!-- Node13 -->
<g id="node13" class="node">
<title>Node13</title>
<g id="a_node13"><a xlink:title=" ">
<polygon fill="white" stroke="#bfbfbf" points="328.5,-1063.5 328.5,-1120.5 436.5,-1120.5 436.5,-1063.5 328.5,-1063.5"/>
<text text-anchor="middle" x="382.5" y="-1108.5" font-family="Helvetica,sans-Serif" font-size="10.00">basic_string&lt; Char &gt;</text>
<polyline fill="none" stroke="#bfbfbf" points="328.5,-1101.5 436.5,-1101.5 "/>
<text text-anchor="middle" x="382.5" y="-1089.5" font-family="Helvetica,sans-Serif" font-size="10.00"> </text>
<polyline fill="none" stroke="#bfbfbf" points="328.5,-1082.5 436.5,-1082.5 "/>
<text text-anchor="middle" x="382.5" y="-1070.5" font-family="Helvetica,sans-Serif" font-size="10.00"> </text>
</a>
</g>
</g>
<!-- Node13&#45;&gt;Node12 -->
<g id="edge15" class="edge">
<title>Node13&#45;&gt;Node12</title>
<path fill="none" stroke="midnightblue" d="M382.5,-1052.83C382.5,-1001.7 382.5,-912.2 382.5,-867.12"/>
<polygon fill="none" stroke="midnightblue" points="379,-1053.12 382.5,-1063.12 386,-1053.12 379,-1053.12"/>
</g>
<!-- Node14 -->
<g id="node14" class="node">
<title>Node14</title>
<g id="a_node14"><a xlink:href="classDate.html" target="_top" xlink:title=" ">
<polygon fill="white" stroke="black" points="478.5,-738.5 478.5,-938.5 560.5,-938.5 560.5,-738.5 478.5,-738.5"/>
<text text-anchor="middle" x="519.5" y="-926.5" font-family="Helvetica,sans-Serif" font-size="10.00">Date</text>
<polyline fill="none" stroke="black" points="478.5,-919.5 560.5,-919.5 "/>
<text text-anchor="start" x="486.5" y="-907.5" font-family="Helvetica,sans-Serif" font-size="10.00">&#45; m_datetime</text>
<polyline fill="none" stroke="black" points="478.5,-900.5 560.5,-900.5 "/>
<text text-anchor="start" x="486.5" y="-888.5" font-family="Helvetica,sans-Serif" font-size="10.00">+ Date()</text>
<text text-anchor="start" x="486.5" y="-877.5" font-family="Helvetica,sans-Serif" font-size="10.00">+ Date()</text>
<text text-anchor="start" x="486.5" y="-866.5" font-family="Helvetica,sans-Serif" font-size="10.00">+ Date()</text>
<text text-anchor="start" x="486.5" y="-855.5" font-family="Helvetica,sans-Serif" font-size="10.00">+ Date()</text>
<text text-anchor="start" x="486.5" y="-844.5" font-family="Helvetica,sans-Serif" font-size="10.00">+ Date()</text>
<text text-anchor="start" x="486.5" y="-833.5" font-family="Helvetica,sans-Serif" font-size="10.00">+ Date()</text>
<text text-anchor="start" x="486.5" y="-822.5" font-family="Helvetica,sans-Serif" font-size="10.00">+ addDays()</text>
<text text-anchor="start" x="486.5" y="-811.5" font-family="Helvetica,sans-Serif" font-size="10.00">+ addHours()</text>
<text text-anchor="start" x="486.5" y="-800.5" font-family="Helvetica,sans-Serif" font-size="10.00">+ addMinutes()</text>
<text text-anchor="start" x="486.5" y="-789.5" font-family="Helvetica,sans-Serif" font-size="10.00">+ addMonths()</text>
<text text-anchor="start" x="486.5" y="-778.5" font-family="Helvetica,sans-Serif" font-size="10.00">and 44 more...</text>
<text text-anchor="start" x="486.5" y="-767.5" font-family="Helvetica,sans-Serif" font-size="10.00">+ maxDate()</text>
<text text-anchor="start" x="486.5" y="-756.5" font-family="Helvetica,sans-Serif" font-size="10.00">+ minDate()</text>
<text text-anchor="start" x="486.5" y="-745.5" font-family="Helvetica,sans-Serif" font-size="10.00">+ now()</text>
</a>
</g>
</g>
<!-- Node14&#45;&gt;Node2 -->
<g id="edge16" class="edge">
<title>Node14&#45;&gt;Node2</title>
<path fill="none" stroke="#404040" d="M516.1,-738.38C512.89,-710.47 507.24,-680.5 497.5,-654 486.49,-624.07 469.56,-594.16 451.93,-567.63"/>
<polygon fill="none" stroke="#404040" points="451.89,-567.57 445.21,-564.85 445.15,-557.64 451.83,-560.36 451.89,-567.57"/>
<text text-anchor="middle" x="546.5" y="-690" font-family="Helvetica,sans-Serif" font-size="10.00"> &#45;m_datetime</text>
<text text-anchor="middle" x="546.5" y="-679" font-family="Helvetica,sans-Serif" font-size="10.00">&#45;m_refDatetime</text>
</g>
</g>
</svg>
        <g id="navigator" transform="translate(0 0)" fill="#404254">
                <rect fill="#f2f5e9" fill-opacity="0.5" stroke="#606060" stroke-width=".5" x="0" y="0" width="60" height="60"/>
                <use id="zoomplus" xlink:href="#zoomPlus" x="17" y="9" onmousedown="handleZoom(evt,'in')"/>
                <use id="zoomminus" xlink:href="#zoomMin" x="42" y="9" onmousedown="handleZoom(evt,'out')"/>
                <use id="reset" xlink:href="#resetDef" x="30" y="36" onmousedown="handleReset()"/>
                <g id="arrowUp" xlink:href="#dirArrow" transform="translate(30 24)" onmousedown="handlePan(0,-1)">
                  <use xlink:href="#rim" fill="#404040">
                        <set attributeName="fill" to="#808080" begin="arrowUp.mouseover" end="arrowUp.mouseout"/>
                  </use>
                  <path fill="none" stroke="white" stroke-width="1.5" d="M0,-3.0v7 M-2.5,-0.5L0,-3.0L2.5,-0.5"/>
                </g>
                <g id="arrowRight" xlink:href="#dirArrow" transform="rotate(90) translate(36 -43)" onmousedown="handlePan(1,0)">
                  <use xlink:href="#rim" fill="#404040">
                        <set attributeName="fill" to="#808080" begin="arrowRight.mouseover" end="arrowRight.mouseout"/>
                  </use>
                  <path fill="none" stroke="white" stroke-width="1.5" d="M0,-3.0v7 M-2.5,-0.5L0,-3.0L2.5,-0.5"/>
                </g>
                <g id="arrowDown" xlink:href="#dirArrow" transform="rotate(180) translate(-30 -48)" onmousedown="handlePan(0,1)">
                  <use xlink:href="#rim" fill="#404040">
                        <set attributeName="fill" to="#808080" begin="arrowDown.mouseover" end="arrowDown.mouseout"/>
                  </use>
                  <path fill="none" stroke="white" stroke-width="1.5" d="M0,-3.0v7 M-2.5,-0.5L0,-3.0L2.5,-0.5"/>
                </g>
                <g id="arrowLeft" xlink:href="#dirArrow" transform="rotate(270) translate(-36 17)" onmousedown="handlePan(-1,0)">
                  <use xlink:href="#rim" fill="#404040">
                        <set attributeName="fill" to="#808080" begin="arrowLeft.mouseover" end="arrowLeft.mouseout"/>
                  </use>
                  <path fill="none" stroke="white" stroke-width="1.5" d="M0,-3.0v7 M-2.5,-0.5L0,-3.0L2.5,-0.5"/>
                </g>
        </g>
        <svg viewBox="0 0 15 15" width="100%" height="30px" preserveAspectRatio="xMaxYMin meet">
         <g id="arrow_out" transform="scale(0.3 0.3)">
          <a xlink:href="classVortex__coll__graph_org.svg" target="_base">
           <rect id="button" ry="5" rx="5" y="6" x="6" height="38" width="38"
                fill="#f2f5e9" fill-opacity="0.5" stroke="#606060" stroke-width="1.0"/>
           <path id="arrow"
             d="M 11.500037,31.436501 C 11.940474,20.09759 22.043105,11.32322 32.158766,21.979434 L 37.068811,17.246167 C 37.068811,17.246167 37.088388,32 37.088388,32 L 22.160133,31.978069 C 22.160133,31.978069 26.997745,27.140456 26.997745,27.140456 C 18.528582,18.264221 13.291696,25.230495 11.500037,31.436501 z"
             style="fill:#404040;"/>
          </a>
         </g>
        </svg>
</svg>
