<?xml version="1.0" encoding="UTF-8" standalone="no"?>
<!DOCTYPE svg PUBLIC "-//W3C//DTD SVG 1.1//EN"
 "http://www.w3.org/Graphics/SVG/1.1/DTD/svg11.dtd">
<!-- Generated by graphviz version 2.47.1 (20210417.1919)
 -->
<!-- Title: add Pages: 1 -->
<svg width="643pt" height="253pt"
 viewBox="0.00 0.00 643.00 252.50" xmlns="http://www.w3.org/2000/svg" xmlns:xlink="http://www.w3.org/1999/xlink">
<g id="graph0" class="graph" transform="scale(1 1) rotate(0) translate(4 248.5)">
<title>add</title>
<polygon fill="white" stroke="transparent" points="-4,4 -4,-248.5 639,-248.5 639,4 -4,4"/>
<!-- Node1 -->
<g id="node1" class="node">
<title>Node1</title>
<g id="a_node1"><a xlink:title=" ">
<polygon fill="#bfbfbf" stroke="black" points="603,-104.5 603,-123.5 635,-123.5 635,-104.5 603,-104.5"/>
<text text-anchor="middle" x="619" y="-111.5" font-family="Helvetica,sans-Serif" font-size="10.00">add</text>
</a>
</g>
</g>
<!-- Node2 -->
<g id="node2" class="node">
<title>Node2</title>
<g id="a_node2"><a xlink:href="classAtcf.html#a2c8fb312c911c7d35cc921e303cac875" target="_top" xlink:title=" ">
<polygon fill="white" stroke="black" points="202,-63.5 202,-82.5 374,-82.5 374,-63.5 202,-63.5"/>
<text text-anchor="middle" x="288" y="-70.5" font-family="Helvetica,sans-Serif" font-size="10.00">Atcf::generateMissingPressureData</text>
</a>
</g>
</g>
<!-- Node1&#45;&gt;Node2 -->
<g id="edge1" class="edge">
<title>Node1&#45;&gt;Node2</title>
<path fill="none" stroke="midnightblue" d="M604.56,-96.18C595.33,-85.5 582.04,-72.88 567,-67 485.83,-35.3 380.92,-51.29 326.1,-63.47"/>
<polygon fill="midnightblue" stroke="midnightblue" points="602.03,-98.62 611.06,-104.17 607.46,-94.21 602.03,-98.62"/>
</g>
<!-- Node5 -->
<g id="node5" class="node">
<title>Node5</title>
<g id="a_node5"><a xlink:href="classAtcf.html#a288aec5ac021ac483da71812a26dc9c3" target="_top" xlink:title=" ">
<polygon fill="white" stroke="black" points="431.5,-0.5 431.5,-19.5 545.5,-19.5 545.5,-0.5 431.5,-0.5"/>
<text text-anchor="middle" x="488.5" y="-7.5" font-family="Helvetica,sans-Serif" font-size="10.00">Atcf::getCycleNumber</text>
</a>
</g>
</g>
<!-- Node1&#45;&gt;Node5 -->
<g id="edge4" class="edge">
<title>Node1&#45;&gt;Node5</title>
<path fill="none" stroke="midnightblue" d="M610.51,-95C602.4,-76.81 587.79,-49.86 567,-34 558.71,-27.68 548.74,-23 538.75,-19.56"/>
<polygon fill="midnightblue" stroke="midnightblue" points="607.32,-96.45 614.43,-104.31 613.78,-93.74 607.32,-96.45"/>
</g>
<!-- Node8 -->
<g id="node8" class="node">
<title>Node8</title>
<g id="a_node8"><a xlink:href="classAtcf.html#a4b3387ddd1546cf6bad5444c70ec5cc5" target="_top" xlink:title=" ">
<polygon fill="white" stroke="black" points="426,-126.5 426,-145.5 551,-145.5 551,-126.5 426,-126.5"/>
<text text-anchor="middle" x="488.5" y="-133.5" font-family="Helvetica,sans-Serif" font-size="10.00">Atcf::setAllRadiiToRmax</text>
</a>
</g>
</g>
<!-- Node1&#45;&gt;Node8 -->
<g id="edge7" class="edge">
<title>Node1&#45;&gt;Node8</title>
<path fill="none" stroke="midnightblue" d="M592.73,-118.33C579.13,-120.66 561.77,-123.63 545.19,-126.47"/>
<polygon fill="midnightblue" stroke="midnightblue" points="593.49,-121.75 602.75,-116.61 592.31,-114.85 593.49,-121.75"/>
</g>
<!-- Node10 -->
<g id="node10" class="node">
<title>Node10</title>
<g id="a_node10"><a xlink:href="classAtcf.html#a71fa11a421dc675f7b8190758fa0b2e6" target="_top" xlink:title=" ">
<polygon fill="white" stroke="black" points="410,-77 410,-107 567,-107 567,-77 410,-77"/>
<text text-anchor="start" x="418" y="-95" font-family="Helvetica,sans-Serif" font-size="10.00">Atcf::setMissingRadiiToAverage</text>
<text text-anchor="middle" x="488.5" y="-84" font-family="Helvetica,sans-Serif" font-size="10.00">OfAdjacentRadii</text>
</a>
</g>
</g>
<!-- Node1&#45;&gt;Node10 -->
<g id="edge10" class="edge">
<title>Node1&#45;&gt;Node10</title>
<path fill="none" stroke="midnightblue" d="M592.85,-109.69C585.24,-108.39 576.43,-106.88 567.24,-105.31"/>
<polygon fill="midnightblue" stroke="midnightblue" points="592.31,-113.15 602.75,-111.39 593.49,-106.25 592.31,-113.15"/>
</g>
<!-- Node11 -->
<g id="node11" class="node">
<title>Node11</title>
<g id="a_node11"><a xlink:href="classAtcf.html#a21717052904854109237917697bd4e73" target="_top" xlink:title=" ">
<polygon fill="white" stroke="black" points="419,-214 419,-244 558,-244 558,-214 419,-214"/>
<text text-anchor="start" x="427" y="-232" font-family="Helvetica,sans-Serif" font-size="10.00">Atcf::setMissingRadiiToHalf</text>
<text text-anchor="middle" x="488.5" y="-221" font-family="Helvetica,sans-Serif" font-size="10.00">NonzeroRadii</text>
</a>
</g>
</g>
<!-- Node1&#45;&gt;Node11 -->
<g id="edge12" class="edge">
<title>Node1&#45;&gt;Node11</title>
<path fill="none" stroke="midnightblue" d="M612.08,-133.12C604.74,-153.76 590.26,-186.18 567,-205 562.73,-208.45 557.96,-211.41 552.95,-213.95"/>
<polygon fill="midnightblue" stroke="midnightblue" points="615.43,-134.13 615.28,-123.54 608.8,-131.92 615.43,-134.13"/>
</g>
<!-- Node12 -->
<g id="node12" class="node">
<title>Node12</title>
<g id="a_node12"><a xlink:href="classAtcf.html#abfd44c7ce56d9e93b1f3edfb67918ef5" target="_top" xlink:title=" ">
<polygon fill="white" stroke="black" points="419,-165 419,-195 558,-195 558,-165 419,-165"/>
<text text-anchor="start" x="427" y="-183" font-family="Helvetica,sans-Serif" font-size="10.00">Atcf::setMissingRadiiToHalf</text>
<text text-anchor="middle" x="488.5" y="-172" font-family="Helvetica,sans-Serif" font-size="10.00">OfAverageSpecifiedRadii</text>
</a>
</g>
</g>
<!-- Node1&#45;&gt;Node12 -->
<g id="edge14" class="edge">
<title>Node1&#45;&gt;Node12</title>
<path fill="none" stroke="midnightblue" d="M600.78,-130.49C591.39,-138.77 579.22,-148.41 567,-155 560.03,-158.76 552.4,-162.07 544.74,-164.95"/>
<polygon fill="midnightblue" stroke="midnightblue" points="603.22,-133.01 608.25,-123.68 598.5,-127.84 603.22,-133.01"/>
</g>
<!-- Node3 -->
<g id="node3" class="node">
<title>Node3</title>
<g id="a_node3"><a xlink:href="classAtcf.html#aaab5dab5b969a87f538242e524431637" target="_top" xlink:title=" ">
<polygon fill="white" stroke="black" points="105.5,-94.5 105.5,-113.5 164.5,-113.5 164.5,-94.5 105.5,-94.5"/>
<text text-anchor="middle" x="135" y="-101.5" font-family="Helvetica,sans-Serif" font-size="10.00">Atcf::read</text>
</a>
</g>
</g>
<!-- Node2&#45;&gt;Node3 -->
<g id="edge2" class="edge">
<title>Node2&#45;&gt;Node3</title>
<path fill="none" stroke="midnightblue" d="M230.66,-84.57C208.16,-89.19 183.23,-94.3 164.61,-98.13"/>
<polygon fill="midnightblue" stroke="midnightblue" points="231.37,-87.99 240.46,-82.55 229.96,-81.14 231.37,-87.99"/>
</g>
<!-- Node4 -->
<g id="node4" class="node">
<title>Node4</title>
<g id="a_node4"><a xlink:href="classGahm.html#aaab5dab5b969a87f538242e524431637" target="_top" xlink:title=" ">
<polygon fill="white" stroke="black" points="0,-94.5 0,-113.5 68,-113.5 68,-94.5 0,-94.5"/>
<text text-anchor="middle" x="34" y="-101.5" font-family="Helvetica,sans-Serif" font-size="10.00">Gahm::read</text>
</a>
</g>
</g>
<!-- Node3&#45;&gt;Node4 -->
<g id="edge3" class="edge">
<title>Node3&#45;&gt;Node4</title>
<path fill="none" stroke="midnightblue" d="M95.16,-104C86.22,-104 76.78,-104 68.11,-104"/>
<polygon fill="midnightblue" stroke="midnightblue" points="95.37,-107.5 105.37,-104 95.37,-100.5 95.37,-107.5"/>
</g>
<!-- Node6 -->
<g id="node6" class="node">
<title>Node6</title>
<g id="a_node6"><a xlink:href="classAtcf.html#af2619be19171e8e1e2f6b110d18c755a" target="_top" xlink:title=" ">
<polygon fill="white" stroke="black" points="222.5,-0.5 222.5,-19.5 353.5,-19.5 353.5,-0.5 222.5,-0.5"/>
<text text-anchor="middle" x="288" y="-7.5" font-family="Helvetica,sans-Serif" font-size="10.00">Atcf::getStormParameters</text>
</a>
</g>
</g>
<!-- Node5&#45;&gt;Node6 -->
<g id="edge5" class="edge">
<title>Node5&#45;&gt;Node6</title>
<path fill="none" stroke="midnightblue" d="M421.27,-10C399.51,-10 375.36,-10 353.71,-10"/>
<polygon fill="midnightblue" stroke="midnightblue" points="421.41,-13.5 431.41,-10 421.41,-6.5 421.41,-13.5"/>
</g>
<!-- Node7 -->
<g id="node7" class="node">
<title>Node7</title>
<g id="a_node7"><a xlink:href="classGahm.html#a6cacdf953e6387e58ca0dc1369e15c00" target="_top" xlink:title=" ">
<polygon fill="white" stroke="black" points="104,-0.5 104,-19.5 166,-19.5 166,-0.5 104,-0.5"/>
<text text-anchor="middle" x="135" y="-7.5" font-family="Helvetica,sans-Serif" font-size="10.00">Gahm::get</text>
</a>
</g>
</g>
<!-- Node6&#45;&gt;Node7 -->
<g id="edge6" class="edge">
<title>Node6&#45;&gt;Node7</title>
<path fill="none" stroke="midnightblue" d="M211.97,-10C195.68,-10 179.35,-10 166.04,-10"/>
<polygon fill="midnightblue" stroke="midnightblue" points="212.09,-13.5 222.09,-10 212.09,-6.5 212.09,-13.5"/>
</g>
<!-- Node9 -->
<g id="node9" class="node">
<title>Node9</title>
<g id="a_node9"><a xlink:href="classAtcf.html#a4392a7255cda22dc330a996257216c31" target="_top" xlink:title=" ">
<polygon fill="white" stroke="black" points="237,-126.5 237,-145.5 339,-145.5 339,-126.5 237,-126.5"/>
<text text-anchor="middle" x="288" y="-133.5" font-family="Helvetica,sans-Serif" font-size="10.00">Atcf::calculateRadii</text>
</a>
</g>
</g>
<!-- Node8&#45;&gt;Node9 -->
<g id="edge8" class="edge">
<title>Node8&#45;&gt;Node9</title>
<path fill="none" stroke="midnightblue" d="M415.47,-136C390.11,-136 362.19,-136 339.05,-136"/>
<polygon fill="midnightblue" stroke="midnightblue" points="415.78,-139.5 425.78,-136 415.78,-132.5 415.78,-139.5"/>
</g>
<!-- Node9&#45;&gt;Node3 -->
<g id="edge9" class="edge">
<title>Node9&#45;&gt;Node3</title>
<path fill="none" stroke="midnightblue" d="M232.18,-124.38C209.36,-119.55 183.81,-114.13 164.78,-110.1"/>
<polygon fill="midnightblue" stroke="midnightblue" points="231.6,-127.84 242.1,-126.49 233.05,-120.99 231.6,-127.84"/>
</g>
<!-- Node10&#45;&gt;Node9 -->
<g id="edge11" class="edge">
<title>Node10&#45;&gt;Node9</title>
<path fill="none" stroke="midnightblue" d="M409.72,-109.24C383.25,-115.11 354.64,-121.45 331.91,-126.49"/>
<polygon fill="midnightblue" stroke="midnightblue" points="410.74,-112.6 419.74,-107.02 409.22,-105.77 410.74,-112.6"/>
</g>
<!-- Node11&#45;&gt;Node9 -->
<g id="edge13" class="edge">
<title>Node11&#45;&gt;Node9</title>
<path fill="none" stroke="midnightblue" d="M423.83,-210.52C419.11,-208.78 414.45,-206.93 410,-205 369.62,-187.49 325.5,-160 303.36,-145.57"/>
<polygon fill="midnightblue" stroke="midnightblue" points="422.99,-213.94 433.58,-213.97 425.32,-207.34 422.99,-213.94"/>
</g>
<!-- Node12&#45;&gt;Node9 -->
<g id="edge15" class="edge">
<title>Node12&#45;&gt;Node9</title>
<path fill="none" stroke="midnightblue" d="M409.72,-162.76C383.25,-156.89 354.64,-150.55 331.91,-145.51"/>
<polygon fill="midnightblue" stroke="midnightblue" points="409.22,-166.23 419.74,-164.98 410.74,-159.4 409.22,-166.23"/>
</g>
</g>
</svg>
