<?xml version="1.0" encoding="UTF-8" standalone="no"?>
<!DOCTYPE svg PUBLIC "-//W3C//DTD SVG 1.1//EN"
 "http://www.w3.org/Graphics/SVG/1.1/DTD/svg11.dtd">
<!-- Generated by graphviz version 2.47.1 (20210417.1919)
 -->
<!-- Title: findRoot Pages: 1 -->
<svg width="317pt" height="66pt"
 viewBox="0.00 0.00 317.00 66.00" xmlns="http://www.w3.org/2000/svg" xmlns:xlink="http://www.w3.org/1999/xlink">
<g id="graph0" class="graph" transform="scale(1 1) rotate(0) translate(4 62)">
<title>findRoot</title>
<polygon fill="white" stroke="transparent" points="-4,4 -4,-62 313,-62 313,4 -4,4"/>
<!-- Node1 -->
<g id="node1" class="node">
<title>Node1</title>
<g id="a_node1"><a xlink:title=" ">
<polygon fill="#bfbfbf" stroke="black" points="0,-19.5 0,-38.5 53,-38.5 53,-19.5 0,-19.5"/>
<text text-anchor="middle" x="26.5" y="-26.5" font-family="Helvetica,sans-Serif" font-size="10.00">findRoot</text>
</a>
</g>
</g>
<!-- Node2 -->
<g id="node2" class="node">
<title>Node2</title>
<g id="a_node2"><a xlink:href="classLogging.html#a97ea357cd10f25fa95e27c63725be4f4" target="_top" xlink:title="Informational log message.">
<polygon fill="white" stroke="black" points="89,-19.5 89,-38.5 158,-38.5 158,-19.5 89,-19.5"/>
<text text-anchor="middle" x="123.5" y="-26.5" font-family="Helvetica,sans-Serif" font-size="10.00">Logging::log</text>
</a>
</g>
</g>
<!-- Node1&#45;&gt;Node2 -->
<g id="edge1" class="edge">
<title>Node1&#45;&gt;Node2</title>
<path fill="none" stroke="midnightblue" d="M53.46,-29C61.19,-29 69.89,-29 78.44,-29"/>
<polygon fill="midnightblue" stroke="midnightblue" points="78.72,-32.5 88.72,-29 78.72,-25.5 78.72,-32.5"/>
</g>
<!-- Node3 -->
<g id="node3" class="node">
<title>Node3</title>
<g id="a_node3"><a xlink:href="Logging_8cpp.html#ada828559b474567398f0fd58ce7690c8" target="_top" xlink:title=" ">
<polygon fill="white" stroke="black" points="213.5,-38.5 213.5,-57.5 289.5,-57.5 289.5,-38.5 213.5,-38.5"/>
<text text-anchor="middle" x="251.5" y="-45.5" font-family="Helvetica,sans-Serif" font-size="10.00">c_logHeading</text>
</a>
</g>
</g>
<!-- Node2&#45;&gt;Node3 -->
<g id="edge2" class="edge">
<title>Node2&#45;&gt;Node3</title>
<path fill="none" stroke="midnightblue" d="M158.27,-34.09C172.01,-36.16 188.13,-38.6 203.02,-40.84"/>
<polygon fill="midnightblue" stroke="midnightblue" points="202.68,-44.33 213.09,-42.36 203.72,-37.41 202.68,-44.33"/>
</g>
<!-- Node4 -->
<g id="node4" class="node">
<title>Node4</title>
<g id="a_node4"><a xlink:href="classLogging.html#a46423d1b66f1695ca6221aec6188630e" target="_top" xlink:title="Prints a message to screen.">
<polygon fill="white" stroke="black" points="194,-0.5 194,-19.5 309,-19.5 309,-0.5 194,-0.5"/>
<text text-anchor="middle" x="251.5" y="-7.5" font-family="Helvetica,sans-Serif" font-size="10.00">Logging::printMessage</text>
</a>
</g>
</g>
<!-- Node2&#45;&gt;Node4 -->
<g id="edge3" class="edge">
<title>Node2&#45;&gt;Node4</title>
<path fill="none" stroke="midnightblue" d="M158.27,-23.91C166.21,-22.71 174.95,-21.39 183.79,-20.06"/>
<polygon fill="midnightblue" stroke="midnightblue" points="184.41,-23.51 193.77,-18.55 183.36,-16.58 184.41,-23.51"/>
</g>
</g>
</svg>
