<?xml version="1.0" encoding="UTF-8" standalone="no"?>
<!DOCTYPE svg PUBLIC "-//W3C//DTD SVG 1.1//EN"
 "http://www.w3.org/Graphics/SVG/1.1/DTD/svg11.dtd">
<!-- Generated by graphviz version 2.47.1 (20210417.1919)
 -->
<!-- Title: calculateOverlandTranslationVelocity Pages: 1 -->
<svg width="880pt" height="320pt"
 viewBox="0.00 0.00 880.00 320.00" xmlns="http://www.w3.org/2000/svg" xmlns:xlink="http://www.w3.org/1999/xlink">
<g id="graph0" class="graph" transform="scale(1 1) rotate(0) translate(4 316)">
<title>calculateOverlandTranslationVelocity</title>
<polygon fill="white" stroke="transparent" points="-4,4 -4,-316 876,-316 876,4 -4,4"/>
<!-- Node1 -->
<g id="node1" class="node">
<title>Node1</title>
<g id="a_node1"><a xlink:title=" ">
<polygon fill="#bfbfbf" stroke="black" points="0,-211 0,-241 143,-241 143,-211 0,-211"/>
<text text-anchor="start" x="8" y="-229" font-family="Helvetica,sans-Serif" font-size="10.00">calculateOverlandTranslation</text>
<text text-anchor="middle" x="71.5" y="-218" font-family="Helvetica,sans-Serif" font-size="10.00">Velocity</text>
</a>
</g>
</g>
<!-- Node2 -->
<g id="node2" class="node">
<title>Node2</title>
<g id="a_node2"><a xlink:href="namespacePhysical.html#a05752af9ecabce50d071f64c9918f5f6" target="_top" xlink:title=" ">
<polygon fill="white" stroke="black" points="183,-292.5 183,-311.5 270,-311.5 270,-292.5 183,-292.5"/>
<text text-anchor="middle" x="226.5" y="-299.5" font-family="Helvetica,sans-Serif" font-size="10.00">Physical::kt2ms</text>
</a>
</g>
</g>
<!-- Node1&#45;&gt;Node2 -->
<g id="edge1" class="edge">
<title>Node1&#45;&gt;Node2</title>
<path fill="none" stroke="midnightblue" d="M102.73,-241.02C130.03,-254.58 169.93,-274.4 196.76,-287.72"/>
<polygon fill="midnightblue" stroke="midnightblue" points="195.49,-291 206.01,-292.32 198.61,-284.73 195.49,-291"/>
</g>
<!-- Node3 -->
<g id="node3" class="node">
<title>Node3</title>
<g id="a_node3"><a xlink:href="namespacePhysical.html#ac3ebcf4f7617c5c5a57bc9bd2b95e0db" target="_top" xlink:title=" ">
<polygon fill="white" stroke="black" points="322.5,-273.5 322.5,-292.5 409.5,-292.5 409.5,-273.5 322.5,-273.5"/>
<text text-anchor="middle" x="366" y="-280.5" font-family="Helvetica,sans-Serif" font-size="10.00">Physical::ms2kt</text>
</a>
</g>
</g>
<!-- Node1&#45;&gt;Node3 -->
<g id="edge3" class="edge">
<title>Node1&#45;&gt;Node3</title>
<path fill="none" stroke="midnightblue" d="M143.31,-239.8C195.44,-249.96 265.2,-263.55 312.43,-272.76"/>
<polygon fill="midnightblue" stroke="midnightblue" points="311.97,-276.23 322.45,-274.71 313.31,-269.36 311.97,-276.23"/>
</g>
<!-- Node4 -->
<g id="node4" class="node">
<title>Node4</title>
<g id="a_node4"><a xlink:href="namespacePhysical.html#aecbe91b78e94e2bc1479dec570a69f99" target="_top" xlink:title=" ">
<polygon fill="white" stroke="black" points="179,-216.5 179,-235.5 274,-235.5 274,-216.5 179,-216.5"/>
<text text-anchor="middle" x="226.5" y="-223.5" font-family="Helvetica,sans-Serif" font-size="10.00">Physical::rad2deg</text>
</a>
</g>
</g>
<!-- Node1&#45;&gt;Node4 -->
<g id="edge4" class="edge">
<title>Node1&#45;&gt;Node4</title>
<path fill="none" stroke="midnightblue" d="M143.18,-226C151.66,-226 160.23,-226 168.48,-226"/>
<polygon fill="midnightblue" stroke="midnightblue" points="168.73,-229.5 178.73,-226 168.73,-222.5 168.73,-229.5"/>
</g>
<!-- Node5 -->
<g id="node5" class="node">
<title>Node5</title>
<g id="a_node5"><a xlink:href="namespacePhysical.html#a3fccff272b0fae8ead3c2c05f62b3620" target="_top" xlink:title=" ">
<polygon fill="white" stroke="black" points="185,-178.5 185,-197.5 268,-197.5 268,-178.5 185,-178.5"/>
<text text-anchor="middle" x="226.5" y="-185.5" font-family="Helvetica,sans-Serif" font-size="10.00">Physical::twopi</text>
</a>
</g>
</g>
<!-- Node1&#45;&gt;Node5 -->
<g id="edge5" class="edge">
<title>Node1&#45;&gt;Node5</title>
<path fill="none" stroke="midnightblue" d="M132.97,-210.98C147.62,-207.34 163.1,-203.5 177.11,-200.02"/>
<polygon fill="midnightblue" stroke="midnightblue" points="178.16,-203.36 187.02,-197.56 176.47,-196.57 178.16,-203.36"/>
</g>
<!-- Node7 -->
<g id="node7" class="node">
<title>Node7</title>
<g id="a_node7"><a xlink:href="classAtcf.html#a4fce87a97b674a5bbb54f01a8dd5c55e" target="_top" xlink:title=" ">
<polygon fill="white" stroke="black" points="200.5,-112.5 200.5,-131.5 252.5,-131.5 252.5,-112.5 200.5,-112.5"/>
<text text-anchor="middle" x="226.5" y="-119.5" font-family="Helvetica,sans-Serif" font-size="10.00">uvTrans</text>
</a>
</g>
</g>
<!-- Node1&#45;&gt;Node7 -->
<g id="edge7" class="edge">
<title>Node1&#45;&gt;Node7</title>
<path fill="none" stroke="midnightblue" d="M94.75,-210.88C123.74,-191.17 174.15,-156.9 203.18,-137.17"/>
<polygon fill="midnightblue" stroke="midnightblue" points="205.15,-140.06 211.45,-131.55 201.22,-134.27 205.15,-140.06"/>
</g>
<!-- Node2&#45;&gt;Node3 -->
<g id="edge2" class="edge">
<title>Node2&#45;&gt;Node3</title>
<path fill="none" stroke="midnightblue" d="M270.25,-296.09C283.57,-294.25 298.42,-292.2 312.34,-290.28"/>
<polygon fill="midnightblue" stroke="midnightblue" points="312.85,-293.74 322.27,-288.9 311.89,-286.81 312.85,-293.74"/>
</g>
<!-- Node6 -->
<g id="node6" class="node">
<title>Node6</title>
<g id="a_node6"><a xlink:href="namespacePhysical.html#aceeafe6dfcafc1ccd35aee635c075f09" target="_top" xlink:title=" ">
<polygon fill="white" stroke="black" points="332,-207.5 332,-226.5 400,-226.5 400,-207.5 332,-207.5"/>
<text text-anchor="middle" x="366" y="-214.5" font-family="Helvetica,sans-Serif" font-size="10.00">Physical::pi</text>
</a>
</g>
</g>
<!-- Node5&#45;&gt;Node6 -->
<g id="edge6" class="edge">
<title>Node5&#45;&gt;Node6</title>
<path fill="none" stroke="midnightblue" d="M268.01,-196.54C284.96,-200.12 304.69,-204.28 321.91,-207.91"/>
<polygon fill="midnightblue" stroke="midnightblue" points="321.21,-211.34 331.72,-209.98 322.65,-204.49 321.21,-211.34"/>
</g>
<!-- Node8 -->
<g id="node8" class="node">
<title>Node8</title>
<g id="a_node8"><a xlink:href="classAtcfLine.html#a31f99dd6bb56e7b2cb4ebbc3a850a8f5" target="_top" xlink:title=" ">
<polygon fill="white" stroke="black" points="318,-169.5 318,-188.5 414,-188.5 414,-169.5 318,-169.5"/>
<text text-anchor="middle" x="366" y="-176.5" font-family="Helvetica,sans-Serif" font-size="10.00">AtcfLine::datetime</text>
</a>
</g>
</g>
<!-- Node7&#45;&gt;Node8 -->
<g id="edge8" class="edge">
<title>Node7&#45;&gt;Node8</title>
<path fill="none" stroke="midnightblue" d="M246.93,-131.61C263.5,-139.65 288.05,-151.18 310,-160 315.16,-162.07 320.63,-164.13 326.06,-166.09"/>
<polygon fill="midnightblue" stroke="midnightblue" points="325.09,-169.46 335.69,-169.47 327.42,-162.85 325.09,-169.46"/>
</g>
<!-- Node9 -->
<g id="node9" class="node">
<title>Node9</title>
<g id="a_node9"><a xlink:href="classAtcfLine.html#af473414f523913837f7ee7520fa9e63d" target="_top" xlink:title=" ">
<polygon fill="white" stroke="black" points="331.5,-131.5 331.5,-150.5 400.5,-150.5 400.5,-131.5 331.5,-131.5"/>
<text text-anchor="middle" x="366" y="-138.5" font-family="Helvetica,sans-Serif" font-size="10.00">AtcfLine::lat</text>
</a>
</g>
</g>
<!-- Node7&#45;&gt;Node9 -->
<g id="edge9" class="edge">
<title>Node7&#45;&gt;Node9</title>
<path fill="none" stroke="midnightblue" d="M252.72,-125.48C271.88,-128.13 298.71,-131.84 321.33,-134.97"/>
<polygon fill="midnightblue" stroke="midnightblue" points="321,-138.45 331.39,-136.36 321.96,-131.52 321,-138.45"/>
</g>
<!-- Node10 -->
<g id="node10" class="node">
<title>Node10</title>
<g id="a_node10"><a xlink:href="classAtcfLine.html#abf1373f021c76c8df3ab03e92eddc42f" target="_top" xlink:title=" ">
<polygon fill="white" stroke="black" points="330.5,-93.5 330.5,-112.5 401.5,-112.5 401.5,-93.5 330.5,-93.5"/>
<text text-anchor="middle" x="366" y="-100.5" font-family="Helvetica,sans-Serif" font-size="10.00">AtcfLine::lon</text>
</a>
</g>
</g>
<!-- Node7&#45;&gt;Node10 -->
<g id="edge10" class="edge">
<title>Node7&#45;&gt;Node10</title>
<path fill="none" stroke="midnightblue" d="M252.72,-118.52C271.61,-115.9 297.95,-112.26 320.38,-109.17"/>
<polygon fill="midnightblue" stroke="midnightblue" points="320.93,-112.62 330.36,-107.79 319.98,-105.69 320.93,-112.62"/>
</g>
<!-- Node11 -->
<g id="node11" class="node">
<title>Node11</title>
<g id="a_node11"><a xlink:href="namespacePhysical.html#a2efe94842cf85bad805d2e444bab45d0" target="_top" xlink:title=" ">
<polygon fill="white" stroke="black" points="310,-55.5 310,-74.5 422,-74.5 422,-55.5 310,-55.5"/>
<text text-anchor="middle" x="366" y="-62.5" font-family="Helvetica,sans-Serif" font-size="10.00">Physical::sphericalDx</text>
</a>
</g>
</g>
<!-- Node7&#45;&gt;Node11 -->
<g id="edge11" class="edge">
<title>Node7&#45;&gt;Node11</title>
<path fill="none" stroke="midnightblue" d="M246.93,-112.39C263.5,-104.35 288.05,-92.82 310,-84 315.16,-81.93 320.63,-79.87 326.06,-77.91"/>
<polygon fill="midnightblue" stroke="midnightblue" points="327.42,-81.15 335.69,-74.53 325.09,-74.54 327.42,-81.15"/>
</g>
<!-- Node17 -->
<g id="node17" class="node">
<title>Node17</title>
<g id="a_node17"><a xlink:href="classDate.html#a1fa70aa48f749203df9a600eb190dd7b" target="_top" xlink:title=" ">
<polygon fill="white" stroke="black" points="321,-16.5 321,-35.5 411,-35.5 411,-16.5 321,-16.5"/>
<text text-anchor="middle" x="366" y="-23.5" font-family="Helvetica,sans-Serif" font-size="10.00">Date::toSeconds</text>
</a>
</g>
</g>
<!-- Node7&#45;&gt;Node17 -->
<g id="edge18" class="edge">
<title>Node7&#45;&gt;Node17</title>
<path fill="none" stroke="midnightblue" d="M235.69,-112.28C249.53,-96.42 279.06,-64.83 310,-46 313.91,-43.62 318.16,-41.46 322.49,-39.51"/>
<polygon fill="midnightblue" stroke="midnightblue" points="324.11,-42.63 332.03,-35.59 321.45,-36.15 324.11,-42.63"/>
</g>
<!-- Node12 -->
<g id="node12" class="node">
<title>Node12</title>
<g id="a_node12"><a xlink:href="namespacePhysical.html#aa9f4487d4613a1f2b0a6f4c12d564e2c" target="_top" xlink:title=" ">
<polygon fill="white" stroke="black" points="458,-52 458,-82 557,-82 557,-52 458,-52"/>
<text text-anchor="start" x="466" y="-70" font-family="Helvetica,sans-Serif" font-size="10.00">Physical::geodesic</text>
<text text-anchor="middle" x="507.5" y="-59" font-family="Helvetica,sans-Serif" font-size="10.00">_distance</text>
</a>
</g>
</g>
<!-- Node11&#45;&gt;Node12 -->
<g id="edge12" class="edge">
<title>Node11&#45;&gt;Node12</title>
<path fill="none" stroke="midnightblue" d="M422.13,-65.79C430.47,-65.91 439.1,-66.03 447.52,-66.15"/>
<polygon fill="midnightblue" stroke="midnightblue" points="447.59,-69.66 457.64,-66.3 447.69,-62.66 447.59,-69.66"/>
</g>
<!-- Node13 -->
<g id="node13" class="node">
<title>Node13</title>
<g id="a_node13"><a xlink:href="namespacePhysical.html#aedb77f347557f2942e99437f55e976a8" target="_top" xlink:title=" ">
<polygon fill="white" stroke="black" points="758,-76.5 758,-95.5 853,-95.5 853,-76.5 758,-76.5"/>
<text text-anchor="middle" x="805.5" y="-83.5" font-family="Helvetica,sans-Serif" font-size="10.00">Physical::deg2rad</text>
</a>
</g>
</g>
<!-- Node12&#45;&gt;Node13 -->
<g id="edge13" class="edge">
<title>Node12&#45;&gt;Node13</title>
<path fill="none" stroke="midnightblue" d="M557.05,-70.12C609.39,-73.48 692.62,-78.82 747.9,-82.37"/>
<polygon fill="midnightblue" stroke="midnightblue" points="747.68,-85.86 757.88,-83.01 748.13,-78.87 747.68,-85.86"/>
</g>
<!-- Node14 -->
<g id="node14" class="node">
<title>Node14</title>
<g id="a_node14"><a xlink:href="namespacePhysical.html#a54d120caf204e2c8e9b5c646442f0aaf" target="_top" xlink:title=" ">
<polygon fill="white" stroke="black" points="593,-38.5 593,-57.5 703,-57.5 703,-38.5 593,-38.5"/>
<text text-anchor="middle" x="648" y="-45.5" font-family="Helvetica,sans-Serif" font-size="10.00">Physical::radiusEarth</text>
</a>
</g>
</g>
<!-- Node12&#45;&gt;Node14 -->
<g id="edge14" class="edge">
<title>Node12&#45;&gt;Node14</title>
<path fill="none" stroke="midnightblue" d="M557.33,-60.3C565.61,-59.16 574.33,-57.97 582.93,-56.79"/>
<polygon fill="midnightblue" stroke="midnightblue" points="583.52,-60.24 592.95,-55.41 582.57,-53.31 583.52,-60.24"/>
</g>
<!-- Node14&#45;&gt;Node13 -->
<g id="edge15" class="edge">
<title>Node14&#45;&gt;Node13</title>
<path fill="none" stroke="midnightblue" d="M688.24,-57.59C708.76,-62.6 734.07,-68.79 755.83,-74.11"/>
<polygon fill="midnightblue" stroke="midnightblue" points="755,-77.51 765.54,-76.48 756.66,-70.71 755,-77.51"/>
</g>
<!-- Node15 -->
<g id="node15" class="node">
<title>Node15</title>
<g id="a_node15"><a xlink:href="namespacePhysical.html#a6c13e82a46905cdfbf1647591d8935ed" target="_top" xlink:title=" ">
<polygon fill="white" stroke="black" points="739,-38.5 739,-57.5 872,-57.5 872,-38.5 739,-38.5"/>
<text text-anchor="middle" x="805.5" y="-45.5" font-family="Helvetica,sans-Serif" font-size="10.00">Physical::equatorialRadius</text>
</a>
</g>
</g>
<!-- Node14&#45;&gt;Node15 -->
<g id="edge16" class="edge">
<title>Node14&#45;&gt;Node15</title>
<path fill="none" stroke="midnightblue" d="M703.39,-48C711.63,-48 720.27,-48 728.86,-48"/>
<polygon fill="midnightblue" stroke="midnightblue" points="728.92,-51.5 738.92,-48 728.92,-44.5 728.92,-51.5"/>
</g>
<!-- Node16 -->
<g id="node16" class="node">
<title>Node16</title>
<g id="a_node16"><a xlink:href="namespacePhysical.html#acbba7b727274b2f016499f85b0b3d2f7" target="_top" xlink:title=" ">
<polygon fill="white" stroke="black" points="749.5,-0.5 749.5,-19.5 861.5,-19.5 861.5,-0.5 749.5,-0.5"/>
<text text-anchor="middle" x="805.5" y="-7.5" font-family="Helvetica,sans-Serif" font-size="10.00">Physical::polarRadius</text>
</a>
</g>
</g>
<!-- Node14&#45;&gt;Node16 -->
<g id="edge17" class="edge">
<title>Node14&#45;&gt;Node16</title>
<path fill="none" stroke="midnightblue" d="M688.24,-38.41C708.76,-33.4 734.07,-27.21 755.83,-21.89"/>
<polygon fill="midnightblue" stroke="midnightblue" points="756.66,-25.29 765.54,-19.52 755,-18.49 756.66,-25.29"/>
</g>
<!-- Node18 -->
<g id="node18" class="node">
<title>Node18</title>
<g id="a_node18"><a xlink:href="Date_8cpp.html#a45ca5db09a1ee8d14a196628d506d4bf" target="_top" xlink:title=" ">
<polygon fill="white" stroke="black" points="481,-13.5 481,-32.5 534,-32.5 534,-13.5 481,-13.5"/>
<text text-anchor="middle" x="507.5" y="-20.5" font-family="Helvetica,sans-Serif" font-size="10.00">c_epoch</text>
</a>
</g>
</g>
<!-- Node17&#45;&gt;Node18 -->
<g id="edge19" class="edge">
<title>Node17&#45;&gt;Node18</title>
<path fill="none" stroke="midnightblue" d="M411.14,-25.05C430.36,-24.64 452.59,-24.16 470.75,-23.77"/>
<polygon fill="midnightblue" stroke="midnightblue" points="470.99,-27.26 480.91,-23.55 470.84,-20.27 470.99,-27.26"/>
</g>
</g>
</svg>
