<?xml version="1.0" encoding="UTF-8" standalone="no"?>
<!DOCTYPE svg PUBLIC "-//W3C//DTD SVG 1.1//EN"
 "http://www.w3.org/Graphics/SVG/1.1/DTD/svg11.dtd">
<!-- Generated by graphviz version 2.47.1 (20210417.1919)
 -->
<!-- Title: computePressure Pages: 1 -->
<svg width="664pt" height="218pt"
 viewBox="0.00 0.00 664.00 218.00" xmlns="http://www.w3.org/2000/svg" xmlns:xlink="http://www.w3.org/1999/xlink">
<g id="graph0" class="graph" transform="scale(1 1) rotate(0) translate(4 214)">
<title>computePressure</title>
<polygon fill="white" stroke="transparent" points="-4,4 -4,-214 660,-214 660,4 -4,4"/>
<!-- Node1 -->
<g id="node1" class="node">
<title>Node1</title>
<g id="a_node1"><a xlink:title=" ">
<polygon fill="#bfbfbf" stroke="black" points="0,-95.5 0,-114.5 93,-114.5 93,-95.5 0,-95.5"/>
<text text-anchor="middle" x="46.5" y="-102.5" font-family="Helvetica,sans-Serif" font-size="10.00">computePressure</text>
</a>
</g>
</g>
<!-- Node2 -->
<g id="node2" class="node">
<title>Node2</title>
<g id="a_node2"><a xlink:href="classHurricanePressure.html#a8fe3b2f4c3f668dde9652e1bce29be6b" target="_top" xlink:title=" ">
<polygon fill="white" stroke="black" points="299.5,-190.5 299.5,-209.5 337.5,-209.5 337.5,-190.5 299.5,-190.5"/>
<text text-anchor="middle" x="318.5" y="-197.5" font-family="Helvetica,sans-Serif" font-size="10.00">ah77</text>
</a>
</g>
</g>
<!-- Node1&#45;&gt;Node2 -->
<g id="edge1" class="edge">
<title>Node1&#45;&gt;Node2</title>
<path fill="none" stroke="midnightblue" d="M54.28,-114.52C66.84,-131.31 95.52,-165.83 129,-181 181.63,-204.85 250.78,-204.91 289.01,-202.61"/>
<polygon fill="midnightblue" stroke="midnightblue" points="289.65,-206.07 299.38,-201.87 289.15,-199.09 289.65,-206.07"/>
</g>
<!-- Node4 -->
<g id="node4" class="node">
<title>Node4</title>
<g id="a_node4"><a xlink:href="classHurricanePressure.html#abd75a10e6f9ef19bfd4296a6c9584f7b" target="_top" xlink:title=" ">
<polygon fill="white" stroke="black" points="137.5,-152.5 137.5,-171.5 196.5,-171.5 196.5,-152.5 137.5,-152.5"/>
<text text-anchor="middle" x="167" y="-159.5" font-family="Helvetica,sans-Serif" font-size="10.00">asgs2012</text>
</a>
</g>
</g>
<!-- Node1&#45;&gt;Node4 -->
<g id="edge3" class="edge">
<title>Node1&#45;&gt;Node4</title>
<path fill="none" stroke="midnightblue" d="M67.33,-114.54C86.39,-123.71 115.4,-137.66 137.04,-148.07"/>
<polygon fill="midnightblue" stroke="midnightblue" points="135.57,-151.25 146.1,-152.43 138.61,-144.94 135.57,-151.25"/>
</g>
<!-- Node6 -->
<g id="node6" class="node">
<title>Node6</title>
<g id="a_node6"><a xlink:href="classHurricanePressure.html#acb482ff2d606abe160f6a0bb36db82fa" target="_top" xlink:title=" ">
<polygon fill="white" stroke="black" points="437.5,-114.5 437.5,-133.5 483.5,-133.5 483.5,-114.5 437.5,-114.5"/>
<text text-anchor="middle" x="460.5" y="-121.5" font-family="Helvetica,sans-Serif" font-size="10.00">dvorak</text>
</a>
</g>
</g>
<!-- Node1&#45;&gt;Node6 -->
<g id="edge10" class="edge">
<title>Node1&#45;&gt;Node6</title>
<path fill="none" stroke="midnightblue" d="M93.2,-100.81C160.08,-95.62 288.39,-89.25 396,-105 406.5,-106.54 417.68,-109.43 427.69,-112.51"/>
<polygon fill="midnightblue" stroke="midnightblue" points="426.64,-115.85 437.23,-115.6 428.8,-109.19 426.64,-115.85"/>
</g>
<!-- Node7 -->
<g id="node7" class="node">
<title>Node7</title>
<g id="a_node7"><a xlink:href="classHurricanePressure.html#a925de61632a801e7780543d17d67dd03" target="_top" xlink:title=" ">
<polygon fill="white" stroke="black" points="129,-0.5 129,-19.5 205,-19.5 205,-0.5 129,-0.5"/>
<text text-anchor="middle" x="167" y="-7.5" font-family="Helvetica,sans-Serif" font-size="10.00">courtneyknaff</text>
</a>
</g>
</g>
<!-- Node1&#45;&gt;Node7 -->
<g id="edge9" class="edge">
<title>Node1&#45;&gt;Node7</title>
<path fill="none" stroke="midnightblue" d="M57.65,-95.32C72.69,-81.18 102.03,-54.34 129,-34 132.99,-30.99 137.36,-27.95 141.64,-25.1"/>
<polygon fill="midnightblue" stroke="midnightblue" points="143.69,-27.94 150.19,-19.57 139.89,-22.07 143.69,-27.94"/>
</g>
<!-- Node8 -->
<g id="node8" class="node">
<title>Node8</title>
<g id="a_node8"><a xlink:href="classHurricanePressure.html#a75ccc7589e43a81294c756bc6b4f6ba3" target="_top" xlink:title=" ">
<polygon fill="white" stroke="black" points="432,-57.5 432,-76.5 489,-76.5 489,-57.5 432,-57.5"/>
<text text-anchor="middle" x="460.5" y="-64.5" font-family="Helvetica,sans-Serif" font-size="10.00">knaffzehr</text>
</a>
</g>
</g>
<!-- Node1&#45;&gt;Node8 -->
<g id="edge11" class="edge">
<title>Node1&#45;&gt;Node8</title>
<path fill="none" stroke="midnightblue" d="M93.08,-96.36C104.75,-94.37 117.31,-92.42 129,-91 234.81,-78.1 360.58,-71.3 421.99,-68.53"/>
<polygon fill="midnightblue" stroke="midnightblue" points="422.15,-72.03 431.99,-68.09 421.85,-65.03 422.15,-72.03"/>
</g>
<!-- Node9 -->
<g id="node9" class="node">
<title>Node9</title>
<g id="a_node9"><a xlink:href="classHurricanePressure.html#a4916b7f06af118c7c6f471b7a67672fb" target="_top" xlink:title=" ">
<polygon fill="white" stroke="black" points="139,-114.5 139,-133.5 195,-133.5 195,-114.5 139,-114.5"/>
<text text-anchor="middle" x="167" y="-121.5" font-family="Helvetica,sans-Serif" font-size="10.00">twoslope</text>
</a>
</g>
</g>
<!-- Node1&#45;&gt;Node9 -->
<g id="edge13" class="edge">
<title>Node1&#45;&gt;Node9</title>
<path fill="none" stroke="midnightblue" d="M93.32,-112.35C105.08,-114.23 117.6,-116.24 128.87,-118.05"/>
<polygon fill="midnightblue" stroke="midnightblue" points="128.38,-121.51 138.81,-119.64 129.49,-114.6 128.38,-121.51"/>
</g>
<!-- Node3 -->
<g id="node3" class="node">
<title>Node3</title>
<g id="a_node3"><a xlink:href="classHurricanePressure.html#aa362d792f8129556a6ade346136f4a3d" target="_top" xlink:title=" ">
<polygon fill="white" stroke="black" points="525,-114.5 525,-133.5 656,-133.5 656,-114.5 525,-114.5"/>
<text text-anchor="middle" x="590.5" y="-121.5" font-family="Helvetica,sans-Serif" font-size="10.00">computePressureCurveFit</text>
</a>
</g>
</g>
<!-- Node2&#45;&gt;Node3 -->
<g id="edge2" class="edge">
<title>Node2&#45;&gt;Node3</title>
<path fill="none" stroke="midnightblue" d="M337.63,-194.9C379.77,-183.03 485.28,-153.34 545.52,-136.38"/>
<polygon fill="midnightblue" stroke="midnightblue" points="546.82,-139.65 555.5,-133.57 544.93,-132.91 546.82,-139.65"/>
</g>
<!-- Node4&#45;&gt;Node2 -->
<g id="edge4" class="edge">
<title>Node4&#45;&gt;Node2</title>
<path fill="none" stroke="midnightblue" d="M196.83,-169.33C223.49,-176.1 262.89,-186.12 289.34,-192.84"/>
<polygon fill="midnightblue" stroke="midnightblue" points="288.58,-196.26 299.13,-195.33 290.3,-189.48 288.58,-196.26"/>
</g>
<!-- Node5 -->
<g id="node5" class="node">
<title>Node5</title>
<g id="a_node5"><a xlink:href="classHurricanePressure.html#a6e093920e46b7c9326e027f7c17082e2" target="_top" xlink:title=" ">
<polygon fill="white" stroke="black" points="241,-114.5 241,-133.5 396,-133.5 396,-114.5 241,-114.5"/>
<text text-anchor="middle" x="318.5" y="-121.5" font-family="Helvetica,sans-Serif" font-size="10.00">computeInitialPressureEstimate</text>
</a>
</g>
</g>
<!-- Node4&#45;&gt;Node5 -->
<g id="edge5" class="edge">
<title>Node4&#45;&gt;Node5</title>
<path fill="none" stroke="midnightblue" d="M196.83,-154.67C217.54,-149.41 245.93,-142.19 269.98,-136.08"/>
<polygon fill="midnightblue" stroke="midnightblue" points="271.15,-139.39 279.98,-133.54 269.43,-132.61 271.15,-139.39"/>
</g>
<!-- Node4&#45;&gt;Node6 -->
<g id="edge8" class="edge">
<title>Node4&#45;&gt;Node6</title>
<path fill="none" stroke="midnightblue" d="M196.69,-161.51C240.16,-160.35 325.16,-156.4 396,-143 406.52,-141.01 417.77,-137.96 427.84,-134.88"/>
<polygon fill="midnightblue" stroke="midnightblue" points="428.97,-138.19 437.44,-131.83 426.85,-131.52 428.97,-138.19"/>
</g>
<!-- Node5&#45;&gt;Node6 -->
<g id="edge6" class="edge">
<title>Node5&#45;&gt;Node6</title>
<path fill="none" stroke="midnightblue" d="M396.05,-124C407.09,-124 417.91,-124 427.4,-124"/>
<polygon fill="midnightblue" stroke="midnightblue" points="427.49,-127.5 437.49,-124 427.49,-120.5 427.49,-127.5"/>
</g>
<!-- Node6&#45;&gt;Node3 -->
<g id="edge7" class="edge">
<title>Node6&#45;&gt;Node3</title>
<path fill="none" stroke="midnightblue" d="M483.5,-124C492.46,-124 503.38,-124 514.77,-124"/>
<polygon fill="midnightblue" stroke="midnightblue" points="514.86,-127.5 524.86,-124 514.86,-120.5 514.86,-127.5"/>
</g>
<!-- Node8&#45;&gt;Node3 -->
<g id="edge12" class="edge">
<title>Node8&#45;&gt;Node3</title>
<path fill="none" stroke="midnightblue" d="M482.92,-76.54C503.69,-85.79 535.4,-99.91 558.84,-110.35"/>
<polygon fill="midnightblue" stroke="midnightblue" points="557.45,-113.56 568.01,-114.43 560.29,-107.16 557.45,-113.56"/>
</g>
<!-- Node9&#45;&gt;Node5 -->
<g id="edge14" class="edge">
<title>Node9&#45;&gt;Node5</title>
<path fill="none" stroke="midnightblue" d="M195.07,-124C205.47,-124 217.97,-124 230.96,-124"/>
<polygon fill="midnightblue" stroke="midnightblue" points="230.96,-127.5 240.96,-124 230.96,-120.5 230.96,-127.5"/>
</g>
</g>
</svg>
