<?xml version="1.0" encoding="UTF-8" standalone="no"?>
<!DOCTYPE svg PUBLIC "-//W3C//DTD SVG 1.1//EN"
 "http://www.w3.org/Graphics/SVG/1.1/DTD/svg11.dtd">
<!-- Generated by graphviz version 2.47.1 (20210417.1919)
 -->
<!-- Title: computePressureCurveFit Pages: 1 -->
<svg width="864pt" height="218pt"
 viewBox="0.00 0.00 864.00 218.00" xmlns="http://www.w3.org/2000/svg" xmlns:xlink="http://www.w3.org/1999/xlink">
<g id="graph0" class="graph" transform="scale(1 1) rotate(0) translate(4 214)">
<title>computePressureCurveFit</title>
<polygon fill="white" stroke="transparent" points="-4,4 -4,-214 860,-214 860,4 -4,4"/>
<!-- Node1 -->
<g id="node1" class="node">
<title>Node1</title>
<g id="a_node1"><a xlink:title=" ">
<polygon fill="#bfbfbf" stroke="black" points="725,-152.5 725,-171.5 856,-171.5 856,-152.5 725,-152.5"/>
<text text-anchor="middle" x="790.5" y="-159.5" font-family="Helvetica,sans-Serif" font-size="10.00">computePressureCurveFit</text>
</a>
</g>
</g>
<!-- Node2 -->
<g id="node2" class="node">
<title>Node2</title>
<g id="a_node2"><a xlink:href="classHurricanePressure.html#a8fe3b2f4c3f668dde9652e1bce29be6b" target="_top" xlink:title=" ">
<polygon fill="white" stroke="black" points="499.5,-152.5 499.5,-171.5 537.5,-171.5 537.5,-152.5 499.5,-152.5"/>
<text text-anchor="middle" x="518.5" y="-159.5" font-family="Helvetica,sans-Serif" font-size="10.00">ah77</text>
</a>
</g>
</g>
<!-- Node1&#45;&gt;Node2 -->
<g id="edge1" class="edge">
<title>Node1&#45;&gt;Node2</title>
<path fill="none" stroke="midnightblue" d="M714.54,-162C654.02,-162 573.29,-162 537.68,-162"/>
<polygon fill="midnightblue" stroke="midnightblue" points="714.83,-165.5 724.83,-162 714.83,-158.5 714.83,-165.5"/>
</g>
<!-- Node5 -->
<g id="node5" class="node">
<title>Node5</title>
<g id="a_node5"><a xlink:href="classHurricanePressure.html#acb482ff2d606abe160f6a0bb36db82fa" target="_top" xlink:title=" ">
<polygon fill="white" stroke="black" points="637.5,-95.5 637.5,-114.5 683.5,-114.5 683.5,-95.5 637.5,-95.5"/>
<text text-anchor="middle" x="660.5" y="-102.5" font-family="Helvetica,sans-Serif" font-size="10.00">dvorak</text>
</a>
</g>
</g>
<!-- Node1&#45;&gt;Node5 -->
<g id="edge5" class="edge">
<title>Node1&#45;&gt;Node5</title>
<path fill="none" stroke="midnightblue" d="M758.92,-148.38C735.5,-137.95 703.79,-123.83 682.99,-114.57"/>
<polygon fill="midnightblue" stroke="midnightblue" points="757.52,-151.59 768.08,-152.46 760.36,-145.19 757.52,-151.59"/>
</g>
<!-- Node11 -->
<g id="node11" class="node">
<title>Node11</title>
<g id="a_node11"><a xlink:href="classHurricanePressure.html#a75ccc7589e43a81294c756bc6b4f6ba3" target="_top" xlink:title=" ">
<polygon fill="white" stroke="black" points="632,-190.5 632,-209.5 689,-209.5 689,-190.5 632,-190.5"/>
<text text-anchor="middle" x="660.5" y="-197.5" font-family="Helvetica,sans-Serif" font-size="10.00">knaffzehr</text>
</a>
</g>
</g>
<!-- Node1&#45;&gt;Node11 -->
<g id="edge15" class="edge">
<title>Node1&#45;&gt;Node11</title>
<path fill="none" stroke="midnightblue" d="M747.47,-174.48C728.27,-180.18 706.05,-186.77 689.02,-191.83"/>
<polygon fill="midnightblue" stroke="midnightblue" points="748.61,-177.79 757.2,-171.59 746.62,-171.08 748.61,-177.79"/>
</g>
<!-- Node3 -->
<g id="node3" class="node">
<title>Node3</title>
<g id="a_node3"><a xlink:href="classHurricanePressure.html#abd75a10e6f9ef19bfd4296a6c9584f7b" target="_top" xlink:title=" ">
<polygon fill="white" stroke="black" points="289.5,-76.5 289.5,-95.5 348.5,-95.5 348.5,-76.5 289.5,-76.5"/>
<text text-anchor="middle" x="319" y="-83.5" font-family="Helvetica,sans-Serif" font-size="10.00">asgs2012</text>
</a>
</g>
</g>
<!-- Node2&#45;&gt;Node3 -->
<g id="edge2" class="edge">
<title>Node2&#45;&gt;Node3</title>
<path fill="none" stroke="midnightblue" d="M489.71,-151.31C451.12,-136.46 381.9,-109.82 344.91,-95.59"/>
<polygon fill="midnightblue" stroke="midnightblue" points="488.68,-154.66 499.27,-154.99 491.2,-148.13 488.68,-154.66"/>
</g>
<!-- Node4 -->
<g id="node4" class="node">
<title>Node4</title>
<g id="a_node4"><a xlink:href="classHurricanePressure.html#a716f4bb7417738b6ba825432ec75eb2a" target="_top" xlink:title=" ">
<polygon fill="white" stroke="black" points="104,-114.5 104,-133.5 197,-133.5 197,-114.5 104,-114.5"/>
<text text-anchor="middle" x="150.5" y="-121.5" font-family="Helvetica,sans-Serif" font-size="10.00">computePressure</text>
</a>
</g>
</g>
<!-- Node2&#45;&gt;Node4 -->
<g id="edge4" class="edge">
<title>Node2&#45;&gt;Node4</title>
<path fill="none" stroke="midnightblue" d="M489.19,-160.42C437.95,-157.38 326.45,-149.95 233,-138 221.32,-136.51 208.76,-134.53 197.09,-132.54"/>
<polygon fill="midnightblue" stroke="midnightblue" points="489.28,-163.93 499.47,-161.02 489.69,-156.94 489.28,-163.93"/>
</g>
<!-- Node3&#45;&gt;Node4 -->
<g id="edge3" class="edge">
<title>Node3&#45;&gt;Node4</title>
<path fill="none" stroke="midnightblue" d="M279.55,-94.77C253.7,-100.67 219.64,-108.45 193.15,-114.49"/>
<polygon fill="midnightblue" stroke="midnightblue" points="280.41,-98.17 289.38,-92.53 278.85,-91.35 280.41,-98.17"/>
</g>
<!-- Node5&#45;&gt;Node3 -->
<g id="edge6" class="edge">
<title>Node5&#45;&gt;Node3</title>
<path fill="none" stroke="midnightblue" d="M627.28,-103.2C561.38,-99.51 412.07,-91.15 348.99,-87.62"/>
<polygon fill="midnightblue" stroke="midnightblue" points="627.31,-106.7 637.49,-103.77 627.7,-99.71 627.31,-106.7"/>
</g>
<!-- Node5&#45;&gt;Node4 -->
<g id="edge14" class="edge">
<title>Node5&#45;&gt;Node4</title>
<path fill="none" stroke="midnightblue" d="M627.47,-107.82C617.4,-108.62 606.24,-109.44 596,-110 450.49,-118.02 277.91,-121.82 197.28,-123.27"/>
<polygon fill="midnightblue" stroke="midnightblue" points="627.8,-111.3 637.48,-106.99 627.22,-104.33 627.8,-111.3"/>
</g>
<!-- Node6 -->
<g id="node6" class="node">
<title>Node6</title>
<g id="a_node6"><a xlink:href="classHurricanePressure.html#a6e093920e46b7c9326e027f7c17082e2" target="_top" xlink:title=" ">
<polygon fill="white" stroke="black" points="441,-38.5 441,-57.5 596,-57.5 596,-38.5 441,-38.5"/>
<text text-anchor="middle" x="518.5" y="-45.5" font-family="Helvetica,sans-Serif" font-size="10.00">computeInitialPressureEstimate</text>
</a>
</g>
</g>
<!-- Node5&#45;&gt;Node6 -->
<g id="edge7" class="edge">
<title>Node5&#45;&gt;Node6</title>
<path fill="none" stroke="midnightblue" d="M634.19,-90.55C622.75,-84.35 608.92,-77.34 596,-72 582.75,-66.53 567.78,-61.57 554.61,-57.61"/>
<polygon fill="midnightblue" stroke="midnightblue" points="632.72,-93.73 643.17,-95.5 636.1,-87.6 632.72,-93.73"/>
</g>
<!-- Node6&#45;&gt;Node3 -->
<g id="edge8" class="edge">
<title>Node6&#45;&gt;Node3</title>
<path fill="none" stroke="midnightblue" d="M457.96,-59.46C421.81,-66.41 377.29,-74.98 348.77,-80.46"/>
<polygon fill="midnightblue" stroke="midnightblue" points="458.76,-62.87 467.92,-57.54 457.44,-55.99 458.76,-62.87"/>
</g>
<!-- Node7 -->
<g id="node7" class="node">
<title>Node7</title>
<g id="a_node7"><a xlink:href="classAtcf.html#a2c8fb312c911c7d35cc921e303cac875" target="_top" xlink:title=" ">
<polygon fill="white" stroke="black" points="233,-0.5 233,-19.5 405,-19.5 405,-0.5 233,-0.5"/>
<text text-anchor="middle" x="319" y="-7.5" font-family="Helvetica,sans-Serif" font-size="10.00">Atcf::generateMissingPressureData</text>
</a>
</g>
</g>
<!-- Node6&#45;&gt;Node7 -->
<g id="edge9" class="edge">
<title>Node6&#45;&gt;Node7</title>
<path fill="none" stroke="midnightblue" d="M457.79,-36.51C429.61,-31.09 396.37,-24.69 369.6,-19.54"/>
<polygon fill="midnightblue" stroke="midnightblue" points="457.44,-40.01 467.92,-38.46 458.76,-33.13 457.44,-40.01"/>
</g>
<!-- Node10 -->
<g id="node10" class="node">
<title>Node10</title>
<g id="a_node10"><a xlink:href="classHurricanePressure.html#a4916b7f06af118c7c6f471b7a67672fb" target="_top" xlink:title=" ">
<polygon fill="white" stroke="black" points="291,-38.5 291,-57.5 347,-57.5 347,-38.5 291,-38.5"/>
<text text-anchor="middle" x="319" y="-45.5" font-family="Helvetica,sans-Serif" font-size="10.00">twoslope</text>
</a>
</g>
</g>
<!-- Node6&#45;&gt;Node10 -->
<g id="edge12" class="edge">
<title>Node6&#45;&gt;Node10</title>
<path fill="none" stroke="midnightblue" d="M430.72,-48C400.62,-48 369.02,-48 347.31,-48"/>
<polygon fill="midnightblue" stroke="midnightblue" points="430.86,-51.5 440.86,-48 430.86,-44.5 430.86,-51.5"/>
</g>
<!-- Node8 -->
<g id="node8" class="node">
<title>Node8</title>
<g id="a_node8"><a xlink:href="classAtcf.html#aaab5dab5b969a87f538242e524431637" target="_top" xlink:title=" ">
<polygon fill="white" stroke="black" points="121,-0.5 121,-19.5 180,-19.5 180,-0.5 121,-0.5"/>
<text text-anchor="middle" x="150.5" y="-7.5" font-family="Helvetica,sans-Serif" font-size="10.00">Atcf::read</text>
</a>
</g>
</g>
<!-- Node7&#45;&gt;Node8 -->
<g id="edge10" class="edge">
<title>Node7&#45;&gt;Node8</title>
<path fill="none" stroke="midnightblue" d="M222.57,-10C207.1,-10 192.19,-10 180.07,-10"/>
<polygon fill="midnightblue" stroke="midnightblue" points="222.8,-13.5 232.8,-10 222.8,-6.5 222.8,-13.5"/>
</g>
<!-- Node9 -->
<g id="node9" class="node">
<title>Node9</title>
<g id="a_node9"><a xlink:href="classGahm.html#aaab5dab5b969a87f538242e524431637" target="_top" xlink:title=" ">
<polygon fill="white" stroke="black" points="0,-0.5 0,-19.5 68,-19.5 68,-0.5 0,-0.5"/>
<text text-anchor="middle" x="34" y="-7.5" font-family="Helvetica,sans-Serif" font-size="10.00">Gahm::read</text>
</a>
</g>
</g>
<!-- Node8&#45;&gt;Node9 -->
<g id="edge11" class="edge">
<title>Node8&#45;&gt;Node9</title>
<path fill="none" stroke="midnightblue" d="M110.7,-10C96.86,-10 81.41,-10 68.1,-10"/>
<polygon fill="midnightblue" stroke="midnightblue" points="110.9,-13.5 120.9,-10 110.9,-6.5 110.9,-13.5"/>
</g>
<!-- Node10&#45;&gt;Node4 -->
<g id="edge13" class="edge">
<title>Node10&#45;&gt;Node4</title>
<path fill="none" stroke="midnightblue" d="M280.63,-53.1C265.43,-56 247.95,-60.41 233,-67 205.19,-79.26 177.1,-101.6 162.26,-114.37"/>
<polygon fill="midnightblue" stroke="midnightblue" points="281.49,-56.5 290.73,-51.33 280.28,-49.61 281.49,-56.5"/>
</g>
<!-- Node11&#45;&gt;Node4 -->
<g id="edge16" class="edge">
<title>Node11&#45;&gt;Node4</title>
<path fill="none" stroke="midnightblue" d="M621.35,-200.58C545.85,-200.83 372.64,-196.89 233,-160 209.82,-153.88 184.83,-141.97 168.72,-133.53"/>
<polygon fill="midnightblue" stroke="midnightblue" points="621.78,-204.08 631.76,-200.52 621.74,-197.08 621.78,-204.08"/>
</g>
</g>
</svg>
