<?xml version="1.0" encoding="UTF-8" standalone="no"?>
<!DOCTYPE svg PUBLIC "-//W3C//DTD SVG 1.1//EN"
 "http://www.w3.org/Graphics/SVG/1.1/DTD/svg11.dtd">
<!-- Generated by graphviz version 2.47.1 (20210417.1919)
 -->
<!-- Title: setMonth Pages: 1 -->
<svg width="318pt" height="256pt"
 viewBox="0.00 0.00 318.00 256.00" xmlns="http://www.w3.org/2000/svg" xmlns:xlink="http://www.w3.org/1999/xlink">
<g id="graph0" class="graph" transform="scale(1 1) rotate(0) translate(4 252)">
<title>setMonth</title>
<polygon fill="white" stroke="transparent" points="-4,4 -4,-252 314,-252 314,4 -4,4"/>
<!-- Node1 -->
<g id="node1" class="node">
<title>Node1</title>
<g id="a_node1"><a xlink:title=" ">
<polygon fill="#bfbfbf" stroke="black" points="0,-114.5 0,-133.5 57,-133.5 57,-114.5 0,-114.5"/>
<text text-anchor="middle" x="28.5" y="-121.5" font-family="Helvetica,sans-Serif" font-size="10.00">setMonth</text>
</a>
</g>
</g>
<!-- Node2 -->
<g id="node2" class="node">
<title>Node2</title>
<g id="a_node2"><a xlink:href="structs__datetime.html#a5a496ea2e6017fd4b43081f4317f96ce" target="_top" xlink:title=" ">
<polygon fill="white" stroke="black" points="101,-228.5 101,-247.5 187,-247.5 187,-228.5 101,-228.5"/>
<text text-anchor="middle" x="144" y="-235.5" font-family="Helvetica,sans-Serif" font-size="10.00">s_datetime::day</text>
</a>
</g>
</g>
<!-- Node1&#45;&gt;Node2 -->
<g id="edge1" class="edge">
<title>Node1&#45;&gt;Node2</title>
<path fill="none" stroke="midnightblue" d="M33.44,-133.51C41.73,-152.4 62.74,-194.91 93,-219 95.25,-220.79 97.68,-222.42 100.23,-223.91"/>
<polygon fill="midnightblue" stroke="midnightblue" points="98.68,-227.05 109.18,-228.45 101.84,-220.81 98.68,-227.05"/>
</g>
<!-- Node3 -->
<g id="node3" class="node">
<title>Node3</title>
<g id="a_node3"><a xlink:href="structs__datetime.html#a110d566ff7f9edf7cbfe15355f8c637c" target="_top" xlink:title=" ">
<polygon fill="white" stroke="black" points="99.5,-190.5 99.5,-209.5 188.5,-209.5 188.5,-190.5 99.5,-190.5"/>
<text text-anchor="middle" x="144" y="-197.5" font-family="Helvetica,sans-Serif" font-size="10.00">s_datetime::hour</text>
</a>
</g>
</g>
<!-- Node1&#45;&gt;Node3 -->
<g id="edge2" class="edge">
<title>Node1&#45;&gt;Node3</title>
<path fill="none" stroke="midnightblue" d="M38.1,-133.67C49.56,-146.07 70.99,-167.59 93,-181 96.2,-182.95 99.64,-184.76 103.15,-186.42"/>
<polygon fill="midnightblue" stroke="midnightblue" points="101.97,-189.72 112.54,-190.48 104.75,-183.3 101.97,-189.72"/>
</g>
<!-- Node4 -->
<g id="node4" class="node">
<title>Node4</title>
<g id="a_node4"><a xlink:href="structs__datetime.html#ae91256ab81b246d3f40eddbd4c016f5f" target="_top" xlink:title=" ">
<polygon fill="white" stroke="black" points="94,-152.5 94,-171.5 194,-171.5 194,-152.5 94,-152.5"/>
<text text-anchor="middle" x="144" y="-159.5" font-family="Helvetica,sans-Serif" font-size="10.00">s_datetime::minute</text>
</a>
</g>
</g>
<!-- Node1&#45;&gt;Node4 -->
<g id="edge3" class="edge">
<title>Node1&#45;&gt;Node4</title>
<path fill="none" stroke="midnightblue" d="M57.27,-133.3C71.48,-138.05 89.01,-143.92 104.5,-149.11"/>
<polygon fill="midnightblue" stroke="midnightblue" points="103.74,-152.55 114.34,-152.4 105.96,-145.91 103.74,-152.55"/>
</g>
<!-- Node5 -->
<g id="node5" class="node">
<title>Node5</title>
<g id="a_node5"><a xlink:href="classDate.html#a1d85d7b09eedec3fb734532c164f2f27" target="_top" xlink:title=" ">
<polygon fill="white" stroke="black" points="122,-114.5 122,-133.5 166,-133.5 166,-114.5 122,-114.5"/>
<text text-anchor="middle" x="144" y="-121.5" font-family="Helvetica,sans-Serif" font-size="10.00">month</text>
</a>
</g>
</g>
<!-- Node1&#45;&gt;Node5 -->
<g id="edge4" class="edge">
<title>Node1&#45;&gt;Node5</title>
<path fill="none" stroke="midnightblue" d="M57.27,-124C73.79,-124 94.79,-124 111.87,-124"/>
<polygon fill="midnightblue" stroke="midnightblue" points="111.93,-127.5 121.93,-124 111.93,-120.5 111.93,-127.5"/>
</g>
<!-- Node7 -->
<g id="node7" class="node">
<title>Node7</title>
<g id="a_node7"><a xlink:href="structs__datetime.html#aa0cba22e21d8081f564e6a68edab1ae0" target="_top" xlink:title=" ">
<polygon fill="white" stroke="black" points="93,-76.5 93,-95.5 195,-95.5 195,-76.5 93,-76.5"/>
<text text-anchor="middle" x="144" y="-83.5" font-family="Helvetica,sans-Serif" font-size="10.00">s_datetime::second</text>
</a>
</g>
</g>
<!-- Node1&#45;&gt;Node7 -->
<g id="edge6" class="edge">
<title>Node1&#45;&gt;Node7</title>
<path fill="none" stroke="midnightblue" d="M57.27,-114.7C71.48,-109.95 89.01,-104.08 104.5,-98.89"/>
<polygon fill="midnightblue" stroke="midnightblue" points="105.96,-102.09 114.34,-95.6 103.74,-95.45 105.96,-102.09"/>
</g>
<!-- Node8 -->
<g id="node8" class="node">
<title>Node8</title>
<g id="a_node8"><a xlink:href="classDate.html#ad1762f5051124b0a842e0cd1e94c6237" target="_top" xlink:title=" ">
<polygon fill="white" stroke="black" points="129,-38.5 129,-57.5 159,-57.5 159,-38.5 129,-38.5"/>
<text text-anchor="middle" x="144" y="-45.5" font-family="Helvetica,sans-Serif" font-size="10.00">set</text>
</a>
</g>
</g>
<!-- Node1&#45;&gt;Node8 -->
<g id="edge7" class="edge">
<title>Node1&#45;&gt;Node8</title>
<path fill="none" stroke="midnightblue" d="M38.1,-114.33C49.56,-101.93 70.99,-80.41 93,-67 101.09,-62.07 110.68,-58.05 119.28,-55"/>
<polygon fill="midnightblue" stroke="midnightblue" points="120.38,-58.32 128.78,-51.87 118.19,-51.67 120.38,-58.32"/>
</g>
<!-- Node9 -->
<g id="node9" class="node">
<title>Node9</title>
<g id="a_node9"><a xlink:href="structs__datetime.html#a1b5cb174b9b809888ca1cadfb32791f4" target="_top" xlink:title=" ">
<polygon fill="white" stroke="black" points="99.5,-0.5 99.5,-19.5 188.5,-19.5 188.5,-0.5 99.5,-0.5"/>
<text text-anchor="middle" x="144" y="-7.5" font-family="Helvetica,sans-Serif" font-size="10.00">s_datetime::year</text>
</a>
</g>
</g>
<!-- Node1&#45;&gt;Node9 -->
<g id="edge8" class="edge">
<title>Node1&#45;&gt;Node9</title>
<path fill="none" stroke="midnightblue" d="M33.44,-114.49C41.73,-95.6 62.74,-53.09 93,-29 95.25,-27.21 97.68,-25.58 100.23,-24.09"/>
<polygon fill="midnightblue" stroke="midnightblue" points="101.84,-27.19 109.18,-19.55 98.68,-20.95 101.84,-27.19"/>
</g>
<!-- Node6 -->
<g id="node6" class="node">
<title>Node6</title>
<g id="a_node6"><a xlink:href="structs__date.html#a1d85d7b09eedec3fb734532c164f2f27" target="_top" xlink:title=" ">
<polygon fill="white" stroke="black" points="231,-114.5 231,-133.5 310,-133.5 310,-114.5 231,-114.5"/>
<text text-anchor="middle" x="270.5" y="-121.5" font-family="Helvetica,sans-Serif" font-size="10.00">s_date::month</text>
</a>
</g>
</g>
<!-- Node5&#45;&gt;Node6 -->
<g id="edge5" class="edge">
<title>Node5&#45;&gt;Node6</title>
<path fill="none" stroke="midnightblue" d="M166.12,-124C181.12,-124 201.88,-124 220.86,-124"/>
<polygon fill="midnightblue" stroke="midnightblue" points="220.88,-127.5 230.88,-124 220.88,-120.5 220.88,-127.5"/>
</g>
</g>
</svg>
