<?xml version="1.0" encoding="UTF-8" standalone="no"?>
<!DOCTYPE svg PUBLIC "-//W3C//DTD SVG 1.1//EN"
 "http://www.w3.org/Graphics/SVG/1.1/DTD/svg11.dtd">
<!-- Generated by graphviz version 2.47.1 (20210417.1919)
 -->
<!-- Title: Date Pages: 1 -->
<svg width="411pt" height="256pt"
 viewBox="0.00 0.00 411.00 256.00" xmlns="http://www.w3.org/2000/svg" xmlns:xlink="http://www.w3.org/1999/xlink">
<g id="graph0" class="graph" transform="scale(1 1) rotate(0) translate(4 252)">
<title>Date</title>
<polygon fill="white" stroke="transparent" points="-4,4 -4,-252 407,-252 407,4 -4,4"/>
<!-- Node1 -->
<g id="node1" class="node">
<title>Node1</title>
<g id="a_node1"><a xlink:title=" ">
<polygon fill="#bfbfbf" stroke="black" points="0,-95.5 0,-114.5 38,-114.5 38,-95.5 0,-95.5"/>
<text text-anchor="middle" x="19" y="-102.5" font-family="Helvetica,sans-Serif" font-size="10.00">Date</text>
</a>
</g>
</g>
<!-- Node2 -->
<g id="node2" class="node">
<title>Node2</title>
<g id="a_node2"><a xlink:href="classDate.html#a4bd7d118a675fff08c408914eaef02ac" target="_top" xlink:title=" ">
<polygon fill="white" stroke="black" points="74,-114.5 74,-133.5 104,-133.5 104,-114.5 74,-114.5"/>
<text text-anchor="middle" x="89" y="-121.5" font-family="Helvetica,sans-Serif" font-size="10.00">get</text>
</a>
</g>
</g>
<!-- Node1&#45;&gt;Node2 -->
<g id="edge1" class="edge">
<title>Node1&#45;&gt;Node2</title>
<path fill="none" stroke="midnightblue" d="M38.22,-110.09C46.17,-112.31 55.59,-114.94 64.08,-117.32"/>
<polygon fill="midnightblue" stroke="midnightblue" points="63.25,-120.72 73.83,-120.04 65.14,-113.98 63.25,-120.72"/>
</g>
<!-- Node11 -->
<g id="node11" class="node">
<title>Node11</title>
<g id="a_node11"><a xlink:href="classDate.html#ad1762f5051124b0a842e0cd1e94c6237" target="_top" xlink:title=" ">
<polygon fill="white" stroke="black" points="74,-76.5 74,-95.5 104,-95.5 104,-76.5 74,-76.5"/>
<text text-anchor="middle" x="89" y="-83.5" font-family="Helvetica,sans-Serif" font-size="10.00">set</text>
</a>
</g>
</g>
<!-- Node1&#45;&gt;Node11 -->
<g id="edge16" class="edge">
<title>Node1&#45;&gt;Node11</title>
<path fill="none" stroke="midnightblue" d="M38.22,-99.91C46.17,-97.69 55.59,-95.06 64.08,-92.68"/>
<polygon fill="midnightblue" stroke="midnightblue" points="65.14,-96.02 73.83,-89.96 63.25,-89.28 65.14,-96.02"/>
</g>
<!-- Node3 -->
<g id="node3" class="node">
<title>Node3</title>
<g id="a_node3"><a xlink:href="structs__datetime.html#a5a496ea2e6017fd4b43081f4317f96ce" target="_top" xlink:title=" ">
<polygon fill="white" stroke="black" points="309,-228.5 309,-247.5 395,-247.5 395,-228.5 309,-228.5"/>
<text text-anchor="middle" x="352" y="-235.5" font-family="Helvetica,sans-Serif" font-size="10.00">s_datetime::day</text>
</a>
</g>
</g>
<!-- Node2&#45;&gt;Node3 -->
<g id="edge2" class="edge">
<title>Node2&#45;&gt;Node3</title>
<path fill="none" stroke="midnightblue" d="M94.18,-133.93C101.22,-149.39 116.99,-178.98 140,-194 187.68,-225.11 253.22,-234.78 298.54,-237.51"/>
<polygon fill="midnightblue" stroke="midnightblue" points="298.58,-241.02 308.75,-238.03 298.94,-234.03 298.58,-241.02"/>
</g>
<!-- Node4 -->
<g id="node4" class="node">
<title>Node4</title>
<g id="a_node4"><a xlink:href="structs__datetime.html#a110d566ff7f9edf7cbfe15355f8c637c" target="_top" xlink:title=" ">
<polygon fill="white" stroke="black" points="307.5,-190.5 307.5,-209.5 396.5,-209.5 396.5,-190.5 307.5,-190.5"/>
<text text-anchor="middle" x="352" y="-197.5" font-family="Helvetica,sans-Serif" font-size="10.00">s_datetime::hour</text>
</a>
</g>
</g>
<!-- Node2&#45;&gt;Node4 -->
<g id="edge3" class="edge">
<title>Node2&#45;&gt;Node4</title>
<path fill="none" stroke="midnightblue" d="M98.92,-133.84C108.2,-143.42 123.64,-157.58 140,-165 190.25,-187.78 253.25,-195.91 297.27,-198.72"/>
<polygon fill="midnightblue" stroke="midnightblue" points="297.3,-202.22 307.48,-199.29 297.69,-195.23 297.3,-202.22"/>
</g>
<!-- Node5 -->
<g id="node5" class="node">
<title>Node5</title>
<g id="a_node5"><a xlink:href="structs__datetime.html#a32205231a1a2e9f16cd9866d06c90b22" target="_top" xlink:title=" ">
<polygon fill="white" stroke="black" points="140,-114.5 140,-133.5 265,-133.5 265,-114.5 140,-114.5"/>
<text text-anchor="middle" x="202.5" y="-121.5" font-family="Helvetica,sans-Serif" font-size="10.00">s_datetime::milliseconds</text>
</a>
</g>
</g>
<!-- Node2&#45;&gt;Node5 -->
<g id="edge4" class="edge">
<title>Node2&#45;&gt;Node5</title>
<path fill="none" stroke="midnightblue" d="M104.12,-124C111.04,-124 119.94,-124 129.54,-124"/>
<polygon fill="midnightblue" stroke="midnightblue" points="129.75,-127.5 139.75,-124 129.75,-120.5 129.75,-127.5"/>
</g>
<!-- Node6 -->
<g id="node6" class="node">
<title>Node6</title>
<g id="a_node6"><a xlink:href="structs__datetime.html#ae91256ab81b246d3f40eddbd4c016f5f" target="_top" xlink:title=" ">
<polygon fill="white" stroke="black" points="302,-152.5 302,-171.5 402,-171.5 402,-152.5 302,-152.5"/>
<text text-anchor="middle" x="352" y="-159.5" font-family="Helvetica,sans-Serif" font-size="10.00">s_datetime::minute</text>
</a>
</g>
</g>
<!-- Node2&#45;&gt;Node6 -->
<g id="edge12" class="edge">
<title>Node2&#45;&gt;Node6</title>
<path fill="none" stroke="midnightblue" d="M104.12,-130.55C113.96,-134.83 127.51,-140.12 140,-143 190.33,-154.6 248.93,-159.19 291.58,-160.97"/>
<polygon fill="midnightblue" stroke="midnightblue" points="291.67,-164.48 301.8,-161.36 291.94,-157.48 291.67,-164.48"/>
</g>
<!-- Node7 -->
<g id="node7" class="node">
<title>Node7</title>
<g id="a_node7"><a xlink:href="structs__datetime.html#a1d85d7b09eedec3fb734532c164f2f27" target="_top" xlink:title=" ">
<polygon fill="white" stroke="black" points="303,-76.5 303,-95.5 401,-95.5 401,-76.5 303,-76.5"/>
<text text-anchor="middle" x="352" y="-83.5" font-family="Helvetica,sans-Serif" font-size="10.00">s_datetime::month</text>
</a>
</g>
</g>
<!-- Node2&#45;&gt;Node7 -->
<g id="edge13" class="edge">
<title>Node2&#45;&gt;Node7</title>
<path fill="none" stroke="midnightblue" d="M104.12,-117.45C113.96,-113.17 127.51,-107.88 140,-105 190.66,-93.33 249.7,-88.75 292.42,-87"/>
<polygon fill="midnightblue" stroke="midnightblue" points="292.78,-90.48 302.65,-86.62 292.52,-83.49 292.78,-90.48"/>
</g>
<!-- Node8 -->
<g id="node8" class="node">
<title>Node8</title>
<g id="a_node8"><a xlink:href="structs__datetime.html#aa0cba22e21d8081f564e6a68edab1ae0" target="_top" xlink:title=" ">
<polygon fill="white" stroke="black" points="301,-38.5 301,-57.5 403,-57.5 403,-38.5 301,-38.5"/>
<text text-anchor="middle" x="352" y="-45.5" font-family="Helvetica,sans-Serif" font-size="10.00">s_datetime::second</text>
</a>
</g>
</g>
<!-- Node2&#45;&gt;Node8 -->
<g id="edge14" class="edge">
<title>Node2&#45;&gt;Node8</title>
<path fill="none" stroke="midnightblue" d="M98.97,-114.42C108.3,-105.09 123.77,-91.28 140,-84 187.87,-62.52 247.11,-53.78 290.62,-50.27"/>
<polygon fill="midnightblue" stroke="midnightblue" points="291.06,-53.74 300.77,-49.52 290.54,-46.76 291.06,-53.74"/>
</g>
<!-- Node10 -->
<g id="node10" class="node">
<title>Node10</title>
<g id="a_node10"><a xlink:href="structs__datetime.html#a1b5cb174b9b809888ca1cadfb32791f4" target="_top" xlink:title=" ">
<polygon fill="white" stroke="black" points="307.5,-0.5 307.5,-19.5 396.5,-19.5 396.5,-0.5 307.5,-0.5"/>
<text text-anchor="middle" x="352" y="-7.5" font-family="Helvetica,sans-Serif" font-size="10.00">s_datetime::year</text>
</a>
</g>
</g>
<!-- Node2&#45;&gt;Node10 -->
<g id="edge15" class="edge">
<title>Node2&#45;&gt;Node10</title>
<path fill="none" stroke="midnightblue" d="M97.24,-114.42C99.45,-111.43 101.86,-108.1 104,-105 120.78,-80.63 115.43,-65.49 140,-49 186.63,-17.7 251.51,-9.74 296.98,-8.49"/>
<polygon fill="midnightblue" stroke="midnightblue" points="297.3,-11.98 307.24,-8.31 297.18,-4.98 297.3,-11.98"/>
</g>
<!-- Node5&#45;&gt;Node3 -->
<g id="edge5" class="edge">
<title>Node5&#45;&gt;Node3</title>
<path fill="none" stroke="midnightblue" d="M211.08,-133.68C226.28,-152.5 262.34,-194.34 301,-219 303.99,-220.91 307.19,-222.66 310.49,-224.28"/>
<polygon fill="midnightblue" stroke="midnightblue" points="309.34,-227.6 319.9,-228.45 312.18,-221.2 309.34,-227.6"/>
</g>
<!-- Node5&#45;&gt;Node4 -->
<g id="edge6" class="edge">
<title>Node5&#45;&gt;Node4</title>
<path fill="none" stroke="midnightblue" d="M218.28,-133.68C237.02,-145.72 270.58,-166.45 301,-181 305.12,-182.97 309.5,-184.88 313.88,-186.69"/>
<polygon fill="midnightblue" stroke="midnightblue" points="312.82,-190.03 323.41,-190.45 315.39,-183.52 312.82,-190.03"/>
</g>
<!-- Node5&#45;&gt;Node6 -->
<g id="edge7" class="edge">
<title>Node5&#45;&gt;Node6</title>
<path fill="none" stroke="midnightblue" d="M240.72,-133.59C260.01,-138.56 283.76,-144.68 304.27,-149.96"/>
<polygon fill="midnightblue" stroke="midnightblue" points="303.49,-153.37 314.05,-152.48 305.24,-146.6 303.49,-153.37"/>
</g>
<!-- Node5&#45;&gt;Node7 -->
<g id="edge8" class="edge">
<title>Node5&#45;&gt;Node7</title>
<path fill="none" stroke="midnightblue" d="M240.72,-114.41C260.01,-109.44 283.76,-103.32 304.27,-98.04"/>
<polygon fill="midnightblue" stroke="midnightblue" points="305.24,-101.4 314.05,-95.52 303.49,-94.63 305.24,-101.4"/>
</g>
<!-- Node5&#45;&gt;Node8 -->
<g id="edge9" class="edge">
<title>Node5&#45;&gt;Node8</title>
<path fill="none" stroke="midnightblue" d="M218.28,-114.32C237.02,-102.28 270.58,-81.55 301,-67 305.12,-65.03 309.5,-63.12 313.88,-61.31"/>
<polygon fill="midnightblue" stroke="midnightblue" points="315.39,-64.48 323.41,-57.55 312.82,-57.97 315.39,-64.48"/>
</g>
<!-- Node9 -->
<g id="node9" class="node">
<title>Node9</title>
<g id="a_node9"><a xlink:href="classDate.html#aa1dec3e6a706a77691a3c49a0fe82e3d" target="_top" xlink:title=" ">
<polygon fill="white" stroke="black" points="321,-114.5 321,-133.5 383,-133.5 383,-114.5 321,-114.5"/>
<text text-anchor="middle" x="352" y="-121.5" font-family="Helvetica,sans-Serif" font-size="10.00">time_point</text>
</a>
</g>
</g>
<!-- Node5&#45;&gt;Node9 -->
<g id="edge10" class="edge">
<title>Node5&#45;&gt;Node9</title>
<path fill="none" stroke="midnightblue" d="M265.2,-124C280.55,-124 296.61,-124 310.64,-124"/>
<polygon fill="midnightblue" stroke="midnightblue" points="310.92,-127.5 320.92,-124 310.92,-120.5 310.92,-127.5"/>
</g>
<!-- Node5&#45;&gt;Node10 -->
<g id="edge11" class="edge">
<title>Node5&#45;&gt;Node10</title>
<path fill="none" stroke="midnightblue" d="M211.08,-114.32C226.28,-95.5 262.34,-53.66 301,-29 303.99,-27.09 307.19,-25.34 310.49,-23.72"/>
<polygon fill="midnightblue" stroke="midnightblue" points="312.18,-26.8 319.9,-19.55 309.34,-20.4 312.18,-26.8"/>
</g>
</g>
</svg>
