<?xml version="1.0" encoding="UTF-8" standalone="no"?>
<!DOCTYPE svg PUBLIC "-//W3C//DTD SVG 1.1//EN"
 "http://www.w3.org/Graphics/SVG/1.1/DTD/svg11.dtd">
<!-- Generated by graphviz version 2.47.1 (20210417.1919)
 -->
<!-- Title: radiusMaxWinds Pages: 1 -->
<svg width="457pt" height="66pt"
 viewBox="0.00 0.00 457.00 66.00" xmlns="http://www.w3.org/2000/svg" xmlns:xlink="http://www.w3.org/1999/xlink">
<g id="graph0" class="graph" transform="scale(1 1) rotate(0) translate(4 62)">
<title>radiusMaxWinds</title>
<polygon fill="white" stroke="transparent" points="-4,4 -4,-62 453,-62 453,4 -4,4"/>
<!-- Node1 -->
<g id="node1" class="node">
<title>Node1</title>
<g id="a_node1"><a xlink:title=" ">
<polygon fill="#bfbfbf" stroke="black" points="360,-19.5 360,-38.5 449,-38.5 449,-19.5 360,-19.5"/>
<text text-anchor="middle" x="404.5" y="-26.5" font-family="Helvetica,sans-Serif" font-size="10.00">radiusMaxWinds</text>
</a>
</g>
</g>
<!-- Node2 -->
<g id="node2" class="node">
<title>Node2</title>
<g id="a_node2"><a xlink:href="classAtcfLine.html#afa6b0d2f28cf66264d2be824addf35ad" target="_top" xlink:title=" ">
<polygon fill="white" stroke="black" points="212.5,-38.5 212.5,-57.5 319.5,-57.5 319.5,-38.5 212.5,-38.5"/>
<text text-anchor="middle" x="266" y="-45.5" font-family="Helvetica,sans-Serif" font-size="10.00">setRadiusMaxWinds</text>
</a>
</g>
</g>
<!-- Node1&#45;&gt;Node2 -->
<g id="edge1" class="edge">
<title>Node1&#45;&gt;Node2</title>
<path fill="none" stroke="midnightblue" d="M349.81,-36.47C339.91,-37.85 329.58,-39.29 319.7,-40.66"/>
<polygon fill="midnightblue" stroke="midnightblue" points="350.51,-39.91 359.94,-35.06 349.55,-32.98 350.51,-39.91"/>
</g>
<!-- Node5 -->
<g id="node5" class="node">
<title>Node5</title>
<g id="a_node5"><a xlink:href="classVortex.html#a36b321e4164c600950ffe1cc7021146f" target="_top" xlink:title=" ">
<polygon fill="white" stroke="black" points="208,-0.5 208,-19.5 324,-19.5 324,-0.5 208,-0.5"/>
<text text-anchor="middle" x="266" y="-7.5" font-family="Helvetica,sans-Serif" font-size="10.00">Vortex::vgWithCoriFull</text>
</a>
</g>
</g>
<!-- Node1&#45;&gt;Node5 -->
<g id="edge4" class="edge">
<title>Node1&#45;&gt;Node5</title>
<path fill="none" stroke="midnightblue" d="M349.83,-21.53C341.38,-20.35 332.63,-19.14 324.11,-17.95"/>
<polygon fill="midnightblue" stroke="midnightblue" points="349.55,-25.02 359.94,-22.94 350.51,-18.09 349.55,-25.02"/>
</g>
<!-- Node3 -->
<g id="node3" class="node">
<title>Node3</title>
<g id="a_node3"><a xlink:href="classAtcfLine.html#a669437f8facd47f46097adc21d0d497b" target="_top" xlink:title=" ">
<polygon fill="white" stroke="black" points="95,-38.5 95,-57.5 172,-57.5 172,-38.5 95,-38.5"/>
<text text-anchor="middle" x="133.5" y="-45.5" font-family="Helvetica,sans-Serif" font-size="10.00">parseAtcfLine</text>
</a>
</g>
</g>
<!-- Node2&#45;&gt;Node3 -->
<g id="edge2" class="edge">
<title>Node2&#45;&gt;Node3</title>
<path fill="none" stroke="midnightblue" d="M202.12,-48C191.87,-48 181.55,-48 172.16,-48"/>
<polygon fill="midnightblue" stroke="midnightblue" points="202.3,-51.5 212.3,-48 202.3,-44.5 202.3,-51.5"/>
</g>
<!-- Node4 -->
<g id="node4" class="node">
<title>Node4</title>
<g id="a_node4"><a xlink:href="classAtcf.html#aaab5dab5b969a87f538242e524431637" target="_top" xlink:title=" ">
<polygon fill="white" stroke="black" points="0,-38.5 0,-57.5 59,-57.5 59,-38.5 0,-38.5"/>
<text text-anchor="middle" x="29.5" y="-45.5" font-family="Helvetica,sans-Serif" font-size="10.00">Atcf::read</text>
</a>
</g>
</g>
<!-- Node3&#45;&gt;Node4 -->
<g id="edge3" class="edge">
<title>Node3&#45;&gt;Node4</title>
<path fill="none" stroke="midnightblue" d="M84.67,-48C75.93,-48 67.06,-48 59.11,-48"/>
<polygon fill="midnightblue" stroke="midnightblue" points="84.81,-51.5 94.81,-48 84.81,-44.5 84.81,-51.5"/>
</g>
<!-- Node6 -->
<g id="node6" class="node">
<title>Node6</title>
<g id="a_node6"><a xlink:href="classVortex.html#add1b3d68a6adac1887b0175193b6d79e" target="_top" xlink:title=" ">
<polygon fill="white" stroke="black" points="95,-0.5 95,-19.5 172,-19.5 172,-0.5 95,-0.5"/>
<text text-anchor="middle" x="133.5" y="-7.5" font-family="Helvetica,sans-Serif" font-size="10.00">Vortex::getVh</text>
</a>
</g>
</g>
<!-- Node5&#45;&gt;Node6 -->
<g id="edge5" class="edge">
<title>Node5&#45;&gt;Node6</title>
<path fill="none" stroke="midnightblue" d="M197.54,-10C188.82,-10 180.16,-10 172.17,-10"/>
<polygon fill="midnightblue" stroke="midnightblue" points="197.76,-13.5 207.76,-10 197.76,-6.5 197.76,-13.5"/>
</g>
</g>
</svg>
