<?xml version="1.0" encoding="UTF-8" standalone="no"?>
<!DOCTYPE svg PUBLIC "-//W3C//DTD SVG 1.1//EN"
 "http://www.w3.org/Graphics/SVG/1.1/DTD/svg11.dtd">
<!-- Generated by graphviz version 2.47.1 (20210417.1919)
 -->
<!-- Title: printMessage Pages: 1 -->
<svg width="169pt" height="66pt"
 viewBox="0.00 0.00 169.00 66.00" xmlns="http://www.w3.org/2000/svg" xmlns:xlink="http://www.w3.org/1999/xlink">
<g id="graph0" class="graph" transform="scale(1 1) rotate(0) translate(4 62)">
<title>printMessage</title>
<polygon fill="white" stroke="transparent" points="-4,4 -4,-62 165,-62 165,4 -4,4"/>
<!-- Node1 -->
<g id="node1" class="node">
<title>Node1</title>
<g id="a_node1"><a xlink:title="Prints a message to screen.">
<polygon fill="#bfbfbf" stroke="black" points="86,-19.5 86,-38.5 161,-38.5 161,-19.5 86,-19.5"/>
<text text-anchor="middle" x="123.5" y="-26.5" font-family="Helvetica,sans-Serif" font-size="10.00">printMessage</text>
</a>
</g>
</g>
<!-- Node2 -->
<g id="node2" class="node">
<title>Node2</title>
<g id="a_node2"><a xlink:href="classLogging.html#a97ea357cd10f25fa95e27c63725be4f4" target="_top" xlink:title="Informational log message.">
<polygon fill="white" stroke="black" points="10.5,-38.5 10.5,-57.5 39.5,-57.5 39.5,-38.5 10.5,-38.5"/>
<text text-anchor="middle" x="25" y="-45.5" font-family="Helvetica,sans-Serif" font-size="10.00">log</text>
</a>
</g>
</g>
<!-- Node1&#45;&gt;Node2 -->
<g id="edge1" class="edge">
<title>Node1&#45;&gt;Node2</title>
<path fill="none" stroke="midnightblue" d="M75.71,-38.21C62.48,-40.82 49.09,-43.45 39.55,-45.33"/>
<polygon fill="midnightblue" stroke="midnightblue" points="76.61,-41.6 85.74,-36.24 75.25,-34.74 76.61,-41.6"/>
</g>
<!-- Node3 -->
<g id="node3" class="node">
<title>Node3</title>
<g id="a_node3"><a xlink:href="classLogging.html#aa991e722150df4187e473be0044f21ea" target="_top" xlink:title="Logs a warning message.">
<polygon fill="white" stroke="black" points="0,-0.5 0,-19.5 50,-19.5 50,-0.5 0,-0.5"/>
<text text-anchor="middle" x="25" y="-7.5" font-family="Helvetica,sans-Serif" font-size="10.00">warning</text>
</a>
</g>
</g>
<!-- Node1&#45;&gt;Node3 -->
<g id="edge2" class="edge">
<title>Node1&#45;&gt;Node3</title>
<path fill="none" stroke="midnightblue" d="M75.8,-19.8C66.9,-18.05 57.94,-16.29 50.12,-14.75"/>
<polygon fill="midnightblue" stroke="midnightblue" points="75.25,-23.26 85.74,-21.76 76.61,-16.4 75.25,-23.26"/>
</g>
</g>
</svg>
