<?xml version="1.0" encoding="UTF-8" standalone="no"?>
<!DOCTYPE svg PUBLIC "-//W3C//DTD SVG 1.1//EN"
 "http://www.w3.org/Graphics/SVG/1.1/DTD/svg11.dtd">
<!-- Generated by graphviz version 2.47.1 (20210417.1919)
 -->
<!-- Title: time_point Pages: 1 -->
<svg width="406pt" height="237pt"
 viewBox="0.00 0.00 406.00 237.00" xmlns="http://www.w3.org/2000/svg" xmlns:xlink="http://www.w3.org/1999/xlink">
<g id="graph0" class="graph" transform="scale(1 1) rotate(0) translate(4 233)">
<title>time_point</title>
<polygon fill="white" stroke="transparent" points="-4,4 -4,-233 402,-233 402,4 -4,4"/>
<!-- Node1 -->
<g id="node1" class="node">
<title>Node1</title>
<g id="a_node1"><a xlink:title=" ">
<polygon fill="#bfbfbf" stroke="black" points="336,-95.5 336,-114.5 398,-114.5 398,-95.5 336,-95.5"/>
<text text-anchor="middle" x="367" y="-102.5" font-family="Helvetica,sans-Serif" font-size="10.00">time_point</text>
</a>
</g>
</g>
<!-- Node2 -->
<g id="node2" class="node">
<title>Node2</title>
<g id="a_node2"><a xlink:href="structs__datetime.html#a32205231a1a2e9f16cd9866d06c90b22" target="_top" xlink:title=" ">
<polygon fill="white" stroke="black" points="175,-190.5 175,-209.5 300,-209.5 300,-190.5 175,-190.5"/>
<text text-anchor="middle" x="237.5" y="-197.5" font-family="Helvetica,sans-Serif" font-size="10.00">s_datetime::milliseconds</text>
</a>
</g>
</g>
<!-- Node1&#45;&gt;Node2 -->
<g id="edge1" class="edge">
<title>Node1&#45;&gt;Node2</title>
<path fill="none" stroke="midnightblue" d="M354.51,-123.33C342.8,-140.58 323.1,-165.94 300,-181 294.1,-184.84 287.38,-187.95 280.6,-190.44"/>
<polygon fill="midnightblue" stroke="midnightblue" points="357.61,-124.98 360.17,-114.7 351.76,-121.14 357.61,-124.98"/>
</g>
<!-- Node8 -->
<g id="node8" class="node">
<title>Node8</title>
<g id="a_node8"><a xlink:href="classDate.html#ab9355c7f3b913b24712cceca95deec29" target="_top" xlink:title=" ">
<polygon fill="white" stroke="black" points="208.5,-152.5 208.5,-171.5 266.5,-171.5 266.5,-152.5 208.5,-152.5"/>
<text text-anchor="middle" x="237.5" y="-159.5" font-family="Helvetica,sans-Serif" font-size="10.00">operator&lt;</text>
</a>
</g>
</g>
<!-- Node1&#45;&gt;Node8 -->
<g id="edge7" class="edge">
<title>Node1&#45;&gt;Node8</title>
<path fill="none" stroke="midnightblue" d="M342.81,-120.05C330.45,-127.63 314.78,-136.56 300,-143 289.35,-147.64 277.2,-151.65 266.53,-154.77"/>
<polygon fill="midnightblue" stroke="midnightblue" points="344.93,-122.85 351.55,-114.58 341.22,-116.92 344.93,-122.85"/>
</g>
<!-- Node9 -->
<g id="node9" class="node">
<title>Node9</title>
<g id="a_node9"><a xlink:href="classDate.html#acc89a7c6cd9ef97f7d3888d618c07320" target="_top" xlink:title=" ">
<polygon fill="white" stroke="black" points="205.5,-114.5 205.5,-133.5 269.5,-133.5 269.5,-114.5 205.5,-114.5"/>
<text text-anchor="middle" x="237.5" y="-121.5" font-family="Helvetica,sans-Serif" font-size="10.00">operator&lt;=</text>
</a>
</g>
</g>
<!-- Node1&#45;&gt;Node9 -->
<g id="edge8" class="edge">
<title>Node1&#45;&gt;Node9</title>
<path fill="none" stroke="midnightblue" d="M325.81,-110.99C307.73,-113.68 286.72,-116.82 269.83,-119.33"/>
<polygon fill="midnightblue" stroke="midnightblue" points="326.41,-114.44 335.78,-109.5 325.38,-107.51 326.41,-114.44"/>
</g>
<!-- Node10 -->
<g id="node10" class="node">
<title>Node10</title>
<g id="a_node10"><a xlink:href="classDate.html#a59abb1cbfa7b1772244cecafdcaf0a83" target="_top" xlink:title=" ">
<polygon fill="white" stroke="black" points="205.5,-76.5 205.5,-95.5 269.5,-95.5 269.5,-76.5 205.5,-76.5"/>
<text text-anchor="middle" x="237.5" y="-83.5" font-family="Helvetica,sans-Serif" font-size="10.00">operator==</text>
</a>
</g>
</g>
<!-- Node1&#45;&gt;Node10 -->
<g id="edge9" class="edge">
<title>Node1&#45;&gt;Node10</title>
<path fill="none" stroke="midnightblue" d="M325.81,-99.01C307.73,-96.32 286.72,-93.18 269.83,-90.67"/>
<polygon fill="midnightblue" stroke="midnightblue" points="325.38,-102.49 335.78,-100.5 326.41,-95.56 325.38,-102.49"/>
</g>
<!-- Node11 -->
<g id="node11" class="node">
<title>Node11</title>
<g id="a_node11"><a xlink:href="classDate.html#a35c8581ba343b048e8fe1c382b821908" target="_top" xlink:title=" ">
<polygon fill="white" stroke="black" points="208.5,-38.5 208.5,-57.5 266.5,-57.5 266.5,-38.5 208.5,-38.5"/>
<text text-anchor="middle" x="237.5" y="-45.5" font-family="Helvetica,sans-Serif" font-size="10.00">operator&gt;</text>
</a>
</g>
</g>
<!-- Node1&#45;&gt;Node11 -->
<g id="edge10" class="edge">
<title>Node1&#45;&gt;Node11</title>
<path fill="none" stroke="midnightblue" d="M342.81,-89.95C330.45,-82.37 314.78,-73.44 300,-67 289.35,-62.36 277.2,-58.35 266.53,-55.23"/>
<polygon fill="midnightblue" stroke="midnightblue" points="341.22,-93.08 351.55,-95.42 344.93,-87.15 341.22,-93.08"/>
</g>
<!-- Node12 -->
<g id="node12" class="node">
<title>Node12</title>
<g id="a_node12"><a xlink:href="classDate.html#ae69d24190a6caf2e331f44cd0f7a3530" target="_top" xlink:title=" ">
<polygon fill="white" stroke="black" points="222.5,-0.5 222.5,-19.5 252.5,-19.5 252.5,-0.5 222.5,-0.5"/>
<text text-anchor="middle" x="237.5" y="-7.5" font-family="Helvetica,sans-Serif" font-size="10.00">set</text>
</a>
</g>
</g>
<!-- Node1&#45;&gt;Node12 -->
<g id="edge11" class="edge">
<title>Node1&#45;&gt;Node12</title>
<path fill="none" stroke="midnightblue" d="M354.51,-86.67C342.8,-69.42 323.1,-44.06 300,-29 285.4,-19.48 265.75,-14.51 252.64,-12.07"/>
<polygon fill="midnightblue" stroke="midnightblue" points="351.76,-88.86 360.17,-95.3 357.61,-85.02 351.76,-88.86"/>
</g>
<!-- Node3 -->
<g id="node3" class="node">
<title>Node3</title>
<g id="a_node3"><a xlink:href="classDate.html#a4bd7d118a675fff08c408914eaef02ac" target="_top" xlink:title=" ">
<polygon fill="white" stroke="black" points="91.5,-209.5 91.5,-228.5 121.5,-228.5 121.5,-209.5 91.5,-209.5"/>
<text text-anchor="middle" x="106.5" y="-216.5" font-family="Helvetica,sans-Serif" font-size="10.00">get</text>
</a>
</g>
</g>
<!-- Node2&#45;&gt;Node3 -->
<g id="edge2" class="edge">
<title>Node2&#45;&gt;Node3</title>
<path fill="none" stroke="midnightblue" d="M164.45,-210.61C148.15,-213.01 132.51,-215.32 121.75,-216.9"/>
<polygon fill="midnightblue" stroke="midnightblue" points="165.26,-214.03 174.64,-209.11 164.24,-207.11 165.26,-214.03"/>
</g>
<!-- Node5 -->
<g id="node5" class="node">
<title>Node5</title>
<g id="a_node5"><a xlink:href="classDate.html#aa55b19dce110414fe48e4e7d60d8cd79" target="_top" xlink:title=" ">
<polygon fill="white" stroke="black" points="74,-171.5 74,-190.5 139,-190.5 139,-171.5 74,-171.5"/>
<text text-anchor="middle" x="106.5" y="-178.5" font-family="Helvetica,sans-Serif" font-size="10.00">millisecond</text>
</a>
</g>
</g>
<!-- Node2&#45;&gt;Node5 -->
<g id="edge4" class="edge">
<title>Node2&#45;&gt;Node5</title>
<path fill="none" stroke="midnightblue" d="M164.57,-189.41C155.69,-188.1 147,-186.82 139.19,-185.67"/>
<polygon fill="midnightblue" stroke="midnightblue" points="164.24,-192.89 174.64,-190.89 165.26,-185.97 164.24,-192.89"/>
</g>
<!-- Node4 -->
<g id="node4" class="node">
<title>Node4</title>
<g id="a_node4"><a xlink:href="classDate.html#ad4266ef239a3aec124099a2a29f671d8" target="_top" xlink:title=" ">
<polygon fill="white" stroke="black" points="0,-209.5 0,-228.5 38,-228.5 38,-209.5 0,-209.5"/>
<text text-anchor="middle" x="19" y="-216.5" font-family="Helvetica,sans-Serif" font-size="10.00">Date</text>
</a>
</g>
</g>
<!-- Node3&#45;&gt;Node4 -->
<g id="edge3" class="edge">
<title>Node3&#45;&gt;Node4</title>
<path fill="none" stroke="midnightblue" d="M81.18,-219C67.44,-219 50.55,-219 38.01,-219"/>
<polygon fill="midnightblue" stroke="midnightblue" points="81.38,-222.5 91.38,-219 81.38,-215.5 81.38,-222.5"/>
</g>
<!-- Node6 -->
<g id="node6" class="node">
<title>Node6</title>
<g id="a_node6"><a xlink:href="classDate.html#a47ce47ac7778de3dce27a562e584fef3" target="_top" xlink:title=" ">
<polygon fill="white" stroke="black" points="0,-171.5 0,-190.5 38,-190.5 38,-171.5 0,-171.5"/>
<text text-anchor="middle" x="19" y="-178.5" font-family="Helvetica,sans-Serif" font-size="10.00">Date</text>
</a>
</g>
</g>
<!-- Node5&#45;&gt;Node6 -->
<g id="edge5" class="edge">
<title>Node5&#45;&gt;Node6</title>
<path fill="none" stroke="midnightblue" d="M63.66,-181C54.7,-181 45.69,-181 38.2,-181"/>
<polygon fill="midnightblue" stroke="midnightblue" points="63.66,-184.5 73.66,-181 63.66,-177.5 63.66,-184.5"/>
</g>
<!-- Node7 -->
<g id="node7" class="node">
<title>Node7</title>
<g id="a_node7"><a xlink:href="classDate.html#a8d61659598ea0751255bb23274852ec3" target="_top" xlink:title=" ">
<polygon fill="white" stroke="black" points="4,-133.5 4,-152.5 34,-152.5 34,-133.5 4,-133.5"/>
<text text-anchor="middle" x="19" y="-140.5" font-family="Helvetica,sans-Serif" font-size="10.00">set</text>
</a>
</g>
</g>
<!-- Node5&#45;&gt;Node7 -->
<g id="edge6" class="edge">
<title>Node5&#45;&gt;Node7</title>
<path fill="none" stroke="midnightblue" d="M74.68,-167.3C60.79,-161.13 45.07,-154.14 34.06,-149.25"/>
<polygon fill="midnightblue" stroke="midnightblue" points="73.37,-170.55 83.92,-171.41 76.21,-164.15 73.37,-170.55"/>
</g>
</g>
</svg>
