<?xml version="1.0" encoding="UTF-8" standalone="no"?>
<!DOCTYPE svg PUBLIC "-//W3C//DTD SVG 1.1//EN"
 "http://www.w3.org/Graphics/SVG/1.1/DTD/svg11.dtd">
<!-- Generated by graphviz version 2.47.1 (20210417.1919)
 -->
<!-- Title: dvorak Pages: 1 -->
<svg width="582pt" height="119pt"
 viewBox="0.00 0.00 582.00 119.47" xmlns="http://www.w3.org/2000/svg" xmlns:xlink="http://www.w3.org/1999/xlink">
<g id="graph0" class="graph" transform="scale(1 1) rotate(0) translate(4 115.47)">
<title>dvorak</title>
<polygon fill="white" stroke="transparent" points="-4,4 -4,-115.47 578,-115.47 578,4 -4,4"/>
<!-- Node1 -->
<g id="node1" class="node">
<title>Node1</title>
<g id="a_node1"><a xlink:title=" ">
<polygon fill="#bfbfbf" stroke="black" points="528,-15.97 528,-34.97 574,-34.97 574,-15.97 528,-15.97"/>
<text text-anchor="middle" x="551" y="-22.97" font-family="Helvetica,sans-Serif" font-size="10.00">dvorak</text>
</a>
</g>
</g>
<!-- Node2 -->
<g id="node2" class="node">
<title>Node2</title>
<g id="a_node2"><a xlink:href="classHurricanePressure.html#abd75a10e6f9ef19bfd4296a6c9584f7b" target="_top" xlink:title=" ">
<polygon fill="white" stroke="black" points="185.5,-15.97 185.5,-34.97 244.5,-34.97 244.5,-15.97 185.5,-15.97"/>
<text text-anchor="middle" x="215" y="-22.97" font-family="Helvetica,sans-Serif" font-size="10.00">asgs2012</text>
</a>
</g>
</g>
<!-- Node1&#45;&gt;Node2 -->
<g id="edge1" class="edge">
<title>Node1&#45;&gt;Node2</title>
<path fill="none" stroke="midnightblue" d="M517.75,-25.47C452.76,-25.47 306.97,-25.47 244.88,-25.47"/>
<polygon fill="midnightblue" stroke="midnightblue" points="517.83,-28.97 527.83,-25.47 517.83,-21.97 517.83,-28.97"/>
</g>
<!-- Node3 -->
<g id="node3" class="node">
<title>Node3</title>
<g id="a_node3"><a xlink:href="classHurricanePressure.html#a716f4bb7417738b6ba825432ec75eb2a" target="_top" xlink:title=" ">
<polygon fill="white" stroke="black" points="0,-15.97 0,-34.97 93,-34.97 93,-15.97 0,-15.97"/>
<text text-anchor="middle" x="46.5" y="-22.97" font-family="Helvetica,sans-Serif" font-size="10.00">computePressure</text>
</a>
</g>
</g>
<!-- Node1&#45;&gt;Node3 -->
<g id="edge9" class="edge">
<title>Node1&#45;&gt;Node3</title>
<path fill="none" stroke="midnightblue" d="M517.47,-20.49C446.62,-10.41 273.15,10.11 129,-6.47 112.83,-8.33 95.21,-12.2 80.51,-15.97"/>
<polygon fill="midnightblue" stroke="midnightblue" points="517.15,-23.98 527.55,-21.95 518.16,-17.05 517.15,-23.98"/>
</g>
<!-- Node4 -->
<g id="node4" class="node">
<title>Node4</title>
<g id="a_node4"><a xlink:href="classHurricanePressure.html#a6e093920e46b7c9326e027f7c17082e2" target="_top" xlink:title=" ">
<polygon fill="white" stroke="black" points="337,-53.97 337,-72.97 492,-72.97 492,-53.97 337,-53.97"/>
<text text-anchor="middle" x="414.5" y="-60.97" font-family="Helvetica,sans-Serif" font-size="10.00">computeInitialPressureEstimate</text>
</a>
</g>
</g>
<!-- Node1&#45;&gt;Node4 -->
<g id="edge3" class="edge">
<title>Node1&#45;&gt;Node4</title>
<path fill="none" stroke="midnightblue" d="M517.89,-34.55C497.21,-40.39 470.36,-47.97 449.35,-53.91"/>
<polygon fill="midnightblue" stroke="midnightblue" points="519.12,-37.84 527.79,-31.75 517.22,-31.1 519.12,-37.84"/>
</g>
<!-- Node2&#45;&gt;Node3 -->
<g id="edge2" class="edge">
<title>Node2&#45;&gt;Node3</title>
<path fill="none" stroke="midnightblue" d="M175.37,-25.47C150.88,-25.47 119.08,-25.47 93.31,-25.47"/>
<polygon fill="midnightblue" stroke="midnightblue" points="175.38,-28.97 185.38,-25.47 175.38,-21.97 175.38,-28.97"/>
</g>
<!-- Node4&#45;&gt;Node2 -->
<g id="edge4" class="edge">
<title>Node4&#45;&gt;Node2</title>
<path fill="none" stroke="midnightblue" d="M353.96,-52.02C317.81,-45.06 273.29,-36.5 244.77,-31.01"/>
<polygon fill="midnightblue" stroke="midnightblue" points="353.44,-55.48 363.92,-53.93 354.76,-48.61 353.44,-55.48"/>
</g>
<!-- Node5 -->
<g id="node5" class="node">
<title>Node5</title>
<g id="a_node5"><a xlink:href="classAtcf.html#a2c8fb312c911c7d35cc921e303cac875" target="_top" xlink:title=" ">
<polygon fill="white" stroke="black" points="129,-91.97 129,-110.97 301,-110.97 301,-91.97 129,-91.97"/>
<text text-anchor="middle" x="215" y="-98.97" font-family="Helvetica,sans-Serif" font-size="10.00">Atcf::generateMissingPressureData</text>
</a>
</g>
</g>
<!-- Node4&#45;&gt;Node5 -->
<g id="edge5" class="edge">
<title>Node4&#45;&gt;Node5</title>
<path fill="none" stroke="midnightblue" d="M353.79,-74.96C325.61,-80.39 292.37,-86.78 265.6,-91.93"/>
<polygon fill="midnightblue" stroke="midnightblue" points="354.76,-78.34 363.92,-73.01 353.44,-71.47 354.76,-78.34"/>
</g>
<!-- Node7 -->
<g id="node7" class="node">
<title>Node7</title>
<g id="a_node7"><a xlink:href="classHurricanePressure.html#a4916b7f06af118c7c6f471b7a67672fb" target="_top" xlink:title=" ">
<polygon fill="white" stroke="black" points="187,-53.97 187,-72.97 243,-72.97 243,-53.97 187,-53.97"/>
<text text-anchor="middle" x="215" y="-60.97" font-family="Helvetica,sans-Serif" font-size="10.00">twoslope</text>
</a>
</g>
</g>
<!-- Node4&#45;&gt;Node7 -->
<g id="edge7" class="edge">
<title>Node4&#45;&gt;Node7</title>
<path fill="none" stroke="midnightblue" d="M326.72,-63.47C296.62,-63.47 265.02,-63.47 243.31,-63.47"/>
<polygon fill="midnightblue" stroke="midnightblue" points="326.86,-66.97 336.86,-63.47 326.86,-59.97 326.86,-66.97"/>
</g>
<!-- Node6 -->
<g id="node6" class="node">
<title>Node6</title>
<g id="a_node6"><a xlink:href="classAtcf.html#aaab5dab5b969a87f538242e524431637" target="_top" xlink:title=" ">
<polygon fill="white" stroke="black" points="17,-91.97 17,-110.97 76,-110.97 76,-91.97 17,-91.97"/>
<text text-anchor="middle" x="46.5" y="-98.97" font-family="Helvetica,sans-Serif" font-size="10.00">Atcf::read</text>
</a>
</g>
</g>
<!-- Node5&#45;&gt;Node6 -->
<g id="edge6" class="edge">
<title>Node5&#45;&gt;Node6</title>
<path fill="none" stroke="midnightblue" d="M118.57,-101.47C103.1,-101.47 88.19,-101.47 76.07,-101.47"/>
<polygon fill="midnightblue" stroke="midnightblue" points="118.8,-104.97 128.8,-101.47 118.8,-97.97 118.8,-104.97"/>
</g>
<!-- Node7&#45;&gt;Node3 -->
<g id="edge8" class="edge">
<title>Node7&#45;&gt;Node3</title>
<path fill="none" stroke="midnightblue" d="M176.93,-55.26C162.03,-51.94 144.69,-48.06 129,-44.47 115.69,-41.43 101.16,-38.06 88.11,-35.02"/>
<polygon fill="midnightblue" stroke="midnightblue" points="176.29,-58.71 186.81,-57.46 177.81,-51.87 176.29,-58.71"/>
</g>
</g>
</svg>
