<?xml version="1.0" encoding="UTF-8" standalone="no"?>
<!DOCTYPE svg PUBLIC "-//W3C//DTD SVG 1.1//EN"
 "http://www.w3.org/Graphics/SVG/1.1/DTD/svg11.dtd">
<!-- Generated by graphviz version 2.47.1 (20210417.1919)
 -->
<!-- Title: setMissingRadiiToAverageOfAdjacentRadii Pages: 1 -->
<svg width="430pt" height="39pt"
 viewBox="0.00 0.00 430.00 39.00" xmlns="http://www.w3.org/2000/svg" xmlns:xlink="http://www.w3.org/1999/xlink">
<g id="graph0" class="graph" transform="scale(1 1) rotate(0) translate(4 35)">
<title>setMissingRadiiToAverageOfAdjacentRadii</title>
<polygon fill="white" stroke="transparent" points="-4,4 -4,-35 426,-35 426,4 -4,4"/>
<!-- Node1 -->
<g id="node1" class="node">
<title>Node1</title>
<g id="a_node1"><a xlink:title=" ">
<polygon fill="#bfbfbf" stroke="black" points="289,-0.5 289,-30.5 422,-30.5 422,-0.5 289,-0.5"/>
<text text-anchor="start" x="297" y="-18.5" font-family="Helvetica,sans-Serif" font-size="10.00">setMissingRadiiToAverage</text>
<text text-anchor="middle" x="355.5" y="-7.5" font-family="Helvetica,sans-Serif" font-size="10.00">OfAdjacentRadii</text>
</a>
</g>
</g>
<!-- Node2 -->
<g id="node2" class="node">
<title>Node2</title>
<g id="a_node2"><a xlink:href="classAtcf.html#a4392a7255cda22dc330a996257216c31" target="_top" xlink:title=" ">
<polygon fill="white" stroke="black" points="175,-6 175,-25 253,-25 253,-6 175,-6"/>
<text text-anchor="middle" x="214" y="-13" font-family="Helvetica,sans-Serif" font-size="10.00">calculateRadii</text>
</a>
</g>
</g>
<!-- Node1&#45;&gt;Node2 -->
<g id="edge1" class="edge">
<title>Node1&#45;&gt;Node2</title>
<path fill="none" stroke="midnightblue" d="M278.57,-15.5C269.85,-15.5 261.26,-15.5 253.36,-15.5"/>
<polygon fill="midnightblue" stroke="midnightblue" points="278.83,-19 288.83,-15.5 278.83,-12 278.83,-19"/>
</g>
<!-- Node3 -->
<g id="node3" class="node">
<title>Node3</title>
<g id="a_node3"><a xlink:href="classAtcf.html#aaab5dab5b969a87f538242e524431637" target="_top" xlink:title=" ">
<polygon fill="white" stroke="black" points="104,-6 104,-25 139,-25 139,-6 104,-6"/>
<text text-anchor="middle" x="121.5" y="-13" font-family="Helvetica,sans-Serif" font-size="10.00">read</text>
</a>
</g>
</g>
<!-- Node2&#45;&gt;Node3 -->
<g id="edge2" class="edge">
<title>Node2&#45;&gt;Node3</title>
<path fill="none" stroke="midnightblue" d="M164.65,-15.5C155.59,-15.5 146.68,-15.5 139.42,-15.5"/>
<polygon fill="midnightblue" stroke="midnightblue" points="164.88,-19 174.88,-15.5 164.88,-12 164.88,-19"/>
</g>
<!-- Node4 -->
<g id="node4" class="node">
<title>Node4</title>
<g id="a_node4"><a xlink:href="classGahm.html#aaab5dab5b969a87f538242e524431637" target="_top" xlink:title=" ">
<polygon fill="white" stroke="black" points="0,-6 0,-25 68,-25 68,-6 0,-6"/>
<text text-anchor="middle" x="34" y="-13" font-family="Helvetica,sans-Serif" font-size="10.00">Gahm::read</text>
</a>
</g>
</g>
<!-- Node3&#45;&gt;Node4 -->
<g id="edge3" class="edge">
<title>Node3&#45;&gt;Node4</title>
<path fill="none" stroke="midnightblue" d="M93.34,-15.5C85.33,-15.5 76.47,-15.5 68.13,-15.5"/>
<polygon fill="midnightblue" stroke="midnightblue" points="93.61,-19 103.61,-15.5 93.61,-12 93.61,-19"/>
</g>
</g>
</svg>
