<?xml version="1.0" encoding="UTF-8" standalone="no"?>
<!DOCTYPE svg PUBLIC "-//W3C//DTD SVG 1.1//EN"
 "http://www.w3.org/Graphics/SVG/1.1/DTD/svg11.dtd">
<!-- Generated by graphviz version 2.47.1 (20210417.1919)
 -->
<!-- Title: setAllRadiiToRmax Pages: 1 -->
<svg width="248pt" height="142pt"
 viewBox="0.00 0.00 248.00 142.00" xmlns="http://www.w3.org/2000/svg" xmlns:xlink="http://www.w3.org/1999/xlink">
<g id="graph0" class="graph" transform="scale(1 1) rotate(0) translate(4 138)">
<title>setAllRadiiToRmax</title>
<polygon fill="white" stroke="transparent" points="-4,4 -4,-138 244,-138 244,4 -4,4"/>
<!-- Node1 -->
<g id="node1" class="node">
<title>Node1</title>
<g id="a_node1"><a xlink:title=" ">
<polygon fill="#bfbfbf" stroke="black" points="0,-57.5 0,-76.5 101,-76.5 101,-57.5 0,-57.5"/>
<text text-anchor="middle" x="50.5" y="-64.5" font-family="Helvetica,sans-Serif" font-size="10.00">setAllRadiiToRmax</text>
</a>
</g>
</g>
<!-- Node2 -->
<g id="node2" class="node">
<title>Node2</title>
<g id="a_node2"><a xlink:href="classAssumptions.html#a20319f7261289f879d667fe91034d503" target="_top" xlink:title=" ">
<polygon fill="white" stroke="black" points="141,-114.5 141,-133.5 236,-133.5 236,-114.5 141,-114.5"/>
<text text-anchor="middle" x="188.5" y="-121.5" font-family="Helvetica,sans-Serif" font-size="10.00">Assumptions::add</text>
</a>
</g>
</g>
<!-- Node1&#45;&gt;Node2 -->
<g id="edge1" class="edge">
<title>Node1&#45;&gt;Node2</title>
<path fill="none" stroke="midnightblue" d="M72.09,-76.55C89.32,-84.45 114.61,-95.82 137,-105 141.75,-106.95 146.79,-108.93 151.77,-110.85"/>
<polygon fill="midnightblue" stroke="midnightblue" points="150.58,-114.15 161.18,-114.43 153.07,-107.6 150.58,-114.15"/>
</g>
<!-- Node3 -->
<g id="node3" class="node">
<title>Node3</title>
<g id="a_node3"><a xlink:href="classCircularArray.html#a58421475bd4cf60dfd7af8d01448c6d8" target="_top" xlink:title=" ">
<polygon fill="white" stroke="black" points="137,-76.5 137,-95.5 240,-95.5 240,-76.5 137,-76.5"/>
<text text-anchor="middle" x="188.5" y="-83.5" font-family="Helvetica,sans-Serif" font-size="10.00">CircularArray::begin</text>
</a>
</g>
</g>
<!-- Node1&#45;&gt;Node3 -->
<g id="edge2" class="edge">
<title>Node1&#45;&gt;Node3</title>
<path fill="none" stroke="midnightblue" d="M101.37,-73.97C109.56,-75.11 118.13,-76.31 126.56,-77.49"/>
<polygon fill="midnightblue" stroke="midnightblue" points="126.34,-80.99 136.73,-78.91 127.31,-74.06 126.34,-80.99"/>
</g>
<!-- Node4 -->
<g id="node4" class="node">
<title>Node4</title>
<g id="a_node4"><a xlink:href="classCircularArray.html#aae80d7cf5cd85b47834fb8752d7b1712" target="_top" xlink:title=" ">
<polygon fill="white" stroke="black" points="141,-38.5 141,-57.5 236,-57.5 236,-38.5 141,-38.5"/>
<text text-anchor="middle" x="188.5" y="-45.5" font-family="Helvetica,sans-Serif" font-size="10.00">CircularArray::end</text>
</a>
</g>
</g>
<!-- Node1&#45;&gt;Node4 -->
<g id="edge3" class="edge">
<title>Node1&#45;&gt;Node4</title>
<path fill="none" stroke="midnightblue" d="M101.37,-60.03C110.93,-58.7 121.02,-57.29 130.78,-55.92"/>
<polygon fill="midnightblue" stroke="midnightblue" points="131.38,-59.37 140.8,-54.52 130.41,-52.44 131.38,-59.37"/>
</g>
<!-- Node5 -->
<g id="node5" class="node">
<title>Node5</title>
<g id="a_node5"><a xlink:href="classAtcf.html#a2c3a3d17067e7d0d53018ec96531bd3d" target="_top" xlink:title=" ">
<polygon fill="white" stroke="black" points="166.5,-0.5 166.5,-19.5 210.5,-19.5 210.5,-0.5 166.5,-0.5"/>
<text text-anchor="middle" x="188.5" y="-7.5" font-family="Helvetica,sans-Serif" font-size="10.00">record</text>
</a>
</g>
</g>
<!-- Node1&#45;&gt;Node5 -->
<g id="edge4" class="edge">
<title>Node1&#45;&gt;Node5</title>
<path fill="none" stroke="midnightblue" d="M72.09,-57.45C89.32,-49.55 114.61,-38.18 137,-29 143.26,-26.44 150,-23.81 156.46,-21.35"/>
<polygon fill="midnightblue" stroke="midnightblue" points="158.13,-24.47 166.26,-17.68 155.67,-17.91 158.13,-24.47"/>
</g>
</g>
</svg>
