<?xml version="1.0" encoding="UTF-8" standalone="no"?>
<!DOCTYPE svg PUBLIC "-//W3C//DTD SVG 1.1//EN"
 "http://www.w3.org/Graphics/SVG/1.1/DTD/svg11.dtd">
<!-- Generated by graphviz version 2.47.1 (20210417.1919)
 -->
<!-- Title: now Pages: 1 -->
<svg width="183pt" height="28pt"
 viewBox="0.00 0.00 183.00 28.00" xmlns="http://www.w3.org/2000/svg" xmlns:xlink="http://www.w3.org/1999/xlink">
<g id="graph0" class="graph" transform="scale(1 1) rotate(0) translate(4 24)">
<title>now</title>
<polygon fill="white" stroke="transparent" points="-4,4 -4,-24 179,-24 179,4 -4,4"/>
<!-- Node1 -->
<g id="node1" class="node">
<title>Node1</title>
<g id="a_node1"><a xlink:title=" ">
<polygon fill="#bfbfbf" stroke="black" points="0,-0.5 0,-19.5 35,-19.5 35,-0.5 0,-0.5"/>
<text text-anchor="middle" x="17.5" y="-7.5" font-family="Helvetica,sans-Serif" font-size="10.00">now</text>
</a>
</g>
</g>
<!-- Node2 -->
<g id="node2" class="node">
<title>Node2</title>
<g id="a_node2"><a xlink:href="classDate.html#aff49fc2cda4491ff4457ca481bb8edf9" target="_top" xlink:title=" ">
<polygon fill="white" stroke="black" points="71,-0.5 71,-19.5 109,-19.5 109,-0.5 71,-0.5"/>
<text text-anchor="middle" x="90" y="-7.5" font-family="Helvetica,sans-Serif" font-size="10.00">Date</text>
</a>
</g>
</g>
<!-- Node1&#45;&gt;Node2 -->
<g id="edge1" class="edge">
<title>Node1&#45;&gt;Node2</title>
<path fill="none" stroke="midnightblue" d="M35.21,-10C42.85,-10 52.12,-10 60.79,-10"/>
<polygon fill="midnightblue" stroke="midnightblue" points="60.93,-13.5 70.93,-10 60.93,-6.5 60.93,-13.5"/>
</g>
<!-- Node3 -->
<g id="node3" class="node">
<title>Node3</title>
<g id="a_node3"><a xlink:href="classDate.html#ad1762f5051124b0a842e0cd1e94c6237" target="_top" xlink:title=" ">
<polygon fill="white" stroke="black" points="145,-0.5 145,-19.5 175,-19.5 175,-0.5 145,-0.5"/>
<text text-anchor="middle" x="160" y="-7.5" font-family="Helvetica,sans-Serif" font-size="10.00">set</text>
</a>
</g>
</g>
<!-- Node2&#45;&gt;Node3 -->
<g id="edge2" class="edge">
<title>Node2&#45;&gt;Node3</title>
<path fill="none" stroke="midnightblue" d="M109.22,-10C117.08,-10 126.38,-10 134.8,-10"/>
<polygon fill="midnightblue" stroke="midnightblue" points="134.83,-13.5 144.83,-10 134.83,-6.5 134.83,-13.5"/>
</g>
</g>
</svg>
