<?xml version="1.0" encoding="UTF-8" standalone="no"?>
<!DOCTYPE svg PUBLIC "-//W3C//DTD SVG 1.1//EN"
 "http://www.w3.org/Graphics/SVG/1.1/DTD/svg11.dtd">
<!-- Generated by graphviz version 2.47.1 (20210417.1919)
 -->
<!-- Title: cisotach Pages: 1 -->
<svg width="344pt" height="218pt"
 viewBox="0.00 0.00 344.00 218.00" xmlns="http://www.w3.org/2000/svg" xmlns:xlink="http://www.w3.org/1999/xlink">
<g id="graph0" class="graph" transform="scale(1 1) rotate(0) translate(4 214)">
<title>cisotach</title>
<polygon fill="white" stroke="transparent" points="-4,4 -4,-214 340,-214 340,4 -4,4"/>
<!-- Node1 -->
<g id="node1" class="node">
<title>Node1</title>
<g id="a_node1"><a xlink:title=" ">
<polygon fill="#bfbfbf" stroke="black" points="283,-95.5 283,-114.5 336,-114.5 336,-95.5 283,-95.5"/>
<text text-anchor="middle" x="309.5" y="-102.5" font-family="Helvetica,sans-Serif" font-size="10.00">cisotach</text>
</a>
</g>
</g>
<!-- Node2 -->
<g id="node2" class="node">
<title>Node2</title>
<g id="a_node2"><a xlink:href="classVortex.html#ada5ebd5311d214fba078d1b3285a4032" target="_top" xlink:title=" ">
<polygon fill="white" stroke="black" points="113,-190.5 113,-209.5 247,-209.5 247,-190.5 113,-190.5"/>
<text text-anchor="middle" x="180" y="-197.5" font-family="Helvetica,sans-Serif" font-size="10.00">Vortex::getParameterValue</text>
</a>
</g>
</g>
<!-- Node1&#45;&gt;Node2 -->
<g id="edge1" class="edge">
<title>Node1&#45;&gt;Node2</title>
<path fill="none" stroke="midnightblue" d="M298.32,-123.17C287.68,-140.5 269.44,-166.12 247,-181 241.14,-184.89 234.47,-187.99 227.68,-190.47"/>
<polygon fill="midnightblue" stroke="midnightblue" points="301.36,-124.9 303.42,-114.51 295.33,-121.35 301.36,-124.9"/>
</g>
<!-- Node3 -->
<g id="node3" class="node">
<title>Node3</title>
<g id="a_node3"><a xlink:href="classVortex.html#af45bed77f864fe7cd18e96bcad902c16" target="_top" xlink:title=" ">
<polygon fill="white" stroke="black" points="138.5,-152.5 138.5,-171.5 221.5,-171.5 221.5,-152.5 138.5,-152.5"/>
<text text-anchor="middle" x="180" y="-159.5" font-family="Helvetica,sans-Serif" font-size="10.00">Vortex::interpR</text>
</a>
</g>
</g>
<!-- Node1&#45;&gt;Node3 -->
<g id="edge2" class="edge">
<title>Node1&#45;&gt;Node3</title>
<path fill="none" stroke="midnightblue" d="M286.96,-120.33C275.51,-127.95 260.95,-136.82 247,-143 238.71,-146.67 229.53,-149.83 220.71,-152.47"/>
<polygon fill="midnightblue" stroke="midnightblue" points="289.12,-123.09 295.41,-114.56 285.17,-117.31 289.12,-123.09"/>
</g>
<!-- Node4 -->
<g id="node4" class="node">
<title>Node4</title>
<g id="a_node4"><a xlink:href="classAtcfLine.html#a3554190fe6a66d73743a6aa7407be529" target="_top" xlink:title=" ">
<polygon fill="white" stroke="black" points="122,-114.5 122,-133.5 238,-133.5 238,-114.5 122,-114.5"/>
<text text-anchor="middle" x="180" y="-121.5" font-family="Helvetica,sans-Serif" font-size="10.00">isSameForecastPeriod</text>
</a>
</g>
</g>
<!-- Node1&#45;&gt;Node4 -->
<g id="edge3" class="edge">
<title>Node1&#45;&gt;Node4</title>
<path fill="none" stroke="midnightblue" d="M272.49,-110.37C261.79,-111.96 249.79,-113.75 238.1,-115.49"/>
<polygon fill="midnightblue" stroke="midnightblue" points="273.32,-113.78 282.7,-108.84 272.29,-106.86 273.32,-113.78"/>
</g>
<!-- Node6 -->
<g id="node6" class="node">
<title>Node6</title>
<g id="a_node6"><a xlink:href="classAtcfLine.html#a724049144ca597838876a0068ff224de" target="_top" xlink:title=" ">
<polygon fill="white" stroke="black" points="151,-76.5 151,-95.5 209,-95.5 209,-76.5 151,-76.5"/>
<text text-anchor="middle" x="180" y="-83.5" font-family="Helvetica,sans-Serif" font-size="10.00">operator&lt;</text>
</a>
</g>
</g>
<!-- Node1&#45;&gt;Node6 -->
<g id="edge5" class="edge">
<title>Node1&#45;&gt;Node6</title>
<path fill="none" stroke="midnightblue" d="M272.71,-99.67C252.7,-96.68 228.1,-93.02 209.43,-90.24"/>
<polygon fill="midnightblue" stroke="midnightblue" points="272.29,-103.14 282.7,-101.16 273.32,-96.22 272.29,-103.14"/>
</g>
<!-- Node7 -->
<g id="node7" class="node">
<title>Node7</title>
<g id="a_node7"><a xlink:href="classVortex.html#a36b321e4164c600950ffe1cc7021146f" target="_top" xlink:title=" ">
<polygon fill="white" stroke="black" points="122,-38.5 122,-57.5 238,-57.5 238,-38.5 122,-38.5"/>
<text text-anchor="middle" x="180" y="-45.5" font-family="Helvetica,sans-Serif" font-size="10.00">Vortex::vgWithCoriFull</text>
</a>
</g>
</g>
<!-- Node1&#45;&gt;Node7 -->
<g id="edge6" class="edge">
<title>Node1&#45;&gt;Node7</title>
<path fill="none" stroke="midnightblue" d="M286.96,-89.67C275.51,-82.05 260.95,-73.18 247,-67 238.71,-63.33 229.53,-60.17 220.71,-57.53"/>
<polygon fill="midnightblue" stroke="midnightblue" points="285.17,-92.69 295.41,-95.44 289.12,-86.91 285.17,-92.69"/>
</g>
<!-- Node9 -->
<g id="node9" class="node">
<title>Node9</title>
<g id="a_node9"><a xlink:href="classVortex.html#ae476777bb80581d4af28e4c2ce3a0b99" target="_top" xlink:title=" ">
<polygon fill="white" stroke="black" points="134,-0.5 134,-19.5 226,-19.5 226,-0.5 134,-0.5"/>
<text text-anchor="middle" x="180" y="-7.5" font-family="Helvetica,sans-Serif" font-size="10.00">Vortex::vhNoCori</text>
</a>
</g>
</g>
<!-- Node1&#45;&gt;Node9 -->
<g id="edge8" class="edge">
<title>Node1&#45;&gt;Node9</title>
<path fill="none" stroke="midnightblue" d="M298.32,-86.83C287.68,-69.5 269.44,-43.88 247,-29 240.74,-24.85 233.56,-21.59 226.3,-19.04"/>
<polygon fill="midnightblue" stroke="midnightblue" points="295.33,-88.65 303.42,-95.49 301.36,-85.1 295.33,-88.65"/>
</g>
<!-- Node5 -->
<g id="node5" class="node">
<title>Node5</title>
<g id="a_node5"><a xlink:href="classAtcf.html#aaab5dab5b969a87f538242e524431637" target="_top" xlink:title=" ">
<polygon fill="white" stroke="black" points="9,-114.5 9,-133.5 68,-133.5 68,-114.5 9,-114.5"/>
<text text-anchor="middle" x="38.5" y="-121.5" font-family="Helvetica,sans-Serif" font-size="10.00">Atcf::read</text>
</a>
</g>
</g>
<!-- Node4&#45;&gt;Node5 -->
<g id="edge4" class="edge">
<title>Node4&#45;&gt;Node5</title>
<path fill="none" stroke="midnightblue" d="M111.79,-124C96.39,-124 80.83,-124 68.1,-124"/>
<polygon fill="midnightblue" stroke="midnightblue" points="111.86,-127.5 121.86,-124 111.86,-120.5 111.86,-127.5"/>
</g>
<!-- Node8 -->
<g id="node8" class="node">
<title>Node8</title>
<g id="a_node8"><a xlink:href="classVortex.html#add1b3d68a6adac1887b0175193b6d79e" target="_top" xlink:title=" ">
<polygon fill="white" stroke="black" points="0,-19.5 0,-38.5 77,-38.5 77,-19.5 0,-19.5"/>
<text text-anchor="middle" x="38.5" y="-26.5" font-family="Helvetica,sans-Serif" font-size="10.00">Vortex::getVh</text>
</a>
</g>
</g>
<!-- Node7&#45;&gt;Node8 -->
<g id="edge7" class="edge">
<title>Node7&#45;&gt;Node8</title>
<path fill="none" stroke="midnightblue" d="M111.9,-38.86C99.97,-37.24 87.94,-35.6 77.21,-34.14"/>
<polygon fill="midnightblue" stroke="midnightblue" points="111.48,-42.34 121.86,-40.22 112.42,-35.4 111.48,-42.34"/>
</g>
<!-- Node9&#45;&gt;Node8 -->
<g id="edge9" class="edge">
<title>Node9&#45;&gt;Node8</title>
<path fill="none" stroke="midnightblue" d="M123.63,-17.54C108.02,-19.67 91.41,-21.93 77.1,-23.88"/>
<polygon fill="midnightblue" stroke="midnightblue" points="124.27,-20.99 133.71,-16.17 123.33,-14.05 124.27,-20.99"/>
</g>
</g>
</svg>
