<?xml version="1.0" encoding="UTF-8" standalone="no"?>
<!DOCTYPE svg PUBLIC "-//W3C//DTD SVG 1.1//EN"
 "http://www.w3.org/Graphics/SVG/1.1/DTD/svg11.dtd">
<!-- Generated by graphviz version 2.47.1 (20210417.1919)
 -->
<!-- Title: ah77 Pages: 1 -->
<svg width="270pt" height="47pt"
 viewBox="0.00 0.00 270.00 47.00" xmlns="http://www.w3.org/2000/svg" xmlns:xlink="http://www.w3.org/1999/xlink">
<g id="graph0" class="graph" transform="scale(1 1) rotate(0) translate(4 43)">
<title>ah77</title>
<polygon fill="white" stroke="transparent" points="-4,4 -4,-43 266,-43 266,4 -4,4"/>
<!-- Node1 -->
<g id="node1" class="node">
<title>Node1</title>
<g id="a_node1"><a xlink:title=" ">
<polygon fill="#bfbfbf" stroke="black" points="224,-0.5 224,-19.5 262,-19.5 262,-0.5 224,-0.5"/>
<text text-anchor="middle" x="243" y="-7.5" font-family="Helvetica,sans-Serif" font-size="10.00">ah77</text>
</a>
</g>
</g>
<!-- Node2 -->
<g id="node2" class="node">
<title>Node2</title>
<g id="a_node2"><a xlink:href="classHurricanePressure.html#abd75a10e6f9ef19bfd4296a6c9584f7b" target="_top" xlink:title=" ">
<polygon fill="white" stroke="black" points="129,-19.5 129,-38.5 188,-38.5 188,-19.5 129,-19.5"/>
<text text-anchor="middle" x="158.5" y="-26.5" font-family="Helvetica,sans-Serif" font-size="10.00">asgs2012</text>
</a>
</g>
</g>
<!-- Node1&#45;&gt;Node2 -->
<g id="edge1" class="edge">
<title>Node1&#45;&gt;Node2</title>
<path fill="none" stroke="midnightblue" d="M213.74,-16.51C205.47,-18.41 196.42,-20.5 188.13,-22.41"/>
<polygon fill="midnightblue" stroke="midnightblue" points="214.73,-19.87 223.69,-14.22 213.16,-13.05 214.73,-19.87"/>
</g>
<!-- Node3 -->
<g id="node3" class="node">
<title>Node3</title>
<g id="a_node3"><a xlink:href="classHurricanePressure.html#a716f4bb7417738b6ba825432ec75eb2a" target="_top" xlink:title=" ">
<polygon fill="white" stroke="black" points="0,-0.5 0,-19.5 93,-19.5 93,-0.5 0,-0.5"/>
<text text-anchor="middle" x="46.5" y="-7.5" font-family="Helvetica,sans-Serif" font-size="10.00">computePressure</text>
</a>
</g>
</g>
<!-- Node1&#45;&gt;Node3 -->
<g id="edge3" class="edge">
<title>Node1&#45;&gt;Node3</title>
<path fill="none" stroke="midnightblue" d="M213.4,-10C181.8,-10 130.46,-10 93.25,-10"/>
<polygon fill="midnightblue" stroke="midnightblue" points="213.7,-13.5 223.7,-10 213.7,-6.5 213.7,-13.5"/>
</g>
<!-- Node2&#45;&gt;Node3 -->
<g id="edge2" class="edge">
<title>Node2&#45;&gt;Node3</title>
<path fill="none" stroke="midnightblue" d="M118.99,-22.35C110.6,-20.9 101.65,-19.35 93.02,-17.86"/>
<polygon fill="midnightblue" stroke="midnightblue" points="118.44,-25.8 128.89,-24.06 119.63,-18.91 118.44,-25.8"/>
</g>
</g>
</svg>
