<?xml version="1.0" encoding="UTF-8" standalone="no"?>
<!DOCTYPE svg PUBLIC "-//W3C//DTD SVG 1.1//EN"
 "http://www.w3.org/Graphics/SVG/1.1/DTD/svg11.dtd">
<!-- Generated by graphviz version 2.47.1 (20210417.1919)
 -->
<!-- Title: calculateOverlandTranslationVelocity Pages: 1 -->
<svg width="976pt" height="235pt"
 viewBox="0.00 0.00 976.00 235.00" xmlns="http://www.w3.org/2000/svg" xmlns:xlink="http://www.w3.org/1999/xlink">
<g id="graph0" class="graph" transform="scale(1 1) rotate(0) translate(4 231)">
<title>calculateOverlandTranslationVelocity</title>
<polygon fill="white" stroke="transparent" points="-4,4 -4,-231 972,-231 972,4 -4,4"/>
<!-- Node1 -->
<g id="node1" class="node">
<title>Node1</title>
<g id="a_node1"><a xlink:title=" ">
<polygon fill="#bfbfbf" stroke="black" points="0,-164 0,-194 143,-194 143,-164 0,-164"/>
<text text-anchor="start" x="8" y="-182" font-family="Helvetica,sans-Serif" font-size="10.00">calculateOverlandTranslation</text>
<text text-anchor="middle" x="71.5" y="-171" font-family="Helvetica,sans-Serif" font-size="10.00">Velocity</text>
</a>
</g>
</g>
<!-- Node2 -->
<g id="node2" class="node">
<title>Node2</title>
<g id="a_node2"><a xlink:href="classPhysical.html#a446b34a690f7a1f10433e477ad0ac973" target="_top" xlink:title=" ">
<polygon fill="white" stroke="black" points="179,-207.5 179,-226.5 266,-226.5 266,-207.5 179,-207.5"/>
<text text-anchor="middle" x="222.5" y="-214.5" font-family="Helvetica,sans-Serif" font-size="10.00">Physical::kt2ms</text>
</a>
</g>
</g>
<!-- Node1&#45;&gt;Node2 -->
<g id="edge1" class="edge">
<title>Node1&#45;&gt;Node2</title>
<path fill="none" stroke="midnightblue" d="M131.39,-194.02C145.52,-197.62 160.44,-201.43 173.98,-204.88"/>
<polygon fill="midnightblue" stroke="midnightblue" points="173.47,-208.36 184.03,-207.44 175.2,-201.58 173.47,-208.36"/>
</g>
<!-- Node3 -->
<g id="node3" class="node">
<title>Node3</title>
<g id="a_node3"><a xlink:href="classPhysical.html#aec8d798f5701bd9c2e131410022ec8f7" target="_top" xlink:title=" ">
<polygon fill="white" stroke="black" points="314.5,-207.5 314.5,-226.5 401.5,-226.5 401.5,-207.5 314.5,-207.5"/>
<text text-anchor="middle" x="358" y="-214.5" font-family="Helvetica,sans-Serif" font-size="10.00">Physical::ms2kt</text>
</a>
</g>
</g>
<!-- Node1&#45;&gt;Node3 -->
<g id="edge3" class="edge">
<title>Node1&#45;&gt;Node3</title>
<path fill="none" stroke="midnightblue" d="M143.04,-184.09C179.81,-187.2 225.46,-191.8 266,-198 278.97,-199.98 292.87,-202.62 305.81,-205.3"/>
<polygon fill="midnightblue" stroke="midnightblue" points="305.44,-208.8 315.95,-207.45 306.89,-201.95 305.44,-208.8"/>
</g>
<!-- Node4 -->
<g id="node4" class="node">
<title>Node4</title>
<g id="a_node4"><a xlink:href="classAtcf.html#a4fce87a97b674a5bbb54f01a8dd5c55e" target="_top" xlink:title=" ">
<polygon fill="white" stroke="black" points="196.5,-112.5 196.5,-131.5 248.5,-131.5 248.5,-112.5 196.5,-112.5"/>
<text text-anchor="middle" x="222.5" y="-119.5" font-family="Helvetica,sans-Serif" font-size="10.00">uvTrans</text>
</a>
</g>
</g>
<!-- Node1&#45;&gt;Node4 -->
<g id="edge4" class="edge">
<title>Node1&#45;&gt;Node4</title>
<path fill="none" stroke="midnightblue" d="M112.04,-163.87C135.32,-154.97 164.49,-143.81 186.87,-135.25"/>
<polygon fill="midnightblue" stroke="midnightblue" points="188.22,-138.48 196.31,-131.64 185.72,-131.94 188.22,-138.48"/>
</g>
<!-- Node2&#45;&gt;Node3 -->
<g id="edge2" class="edge">
<title>Node2&#45;&gt;Node3</title>
<path fill="none" stroke="midnightblue" d="M266.11,-217C278.15,-217 291.4,-217 303.98,-217"/>
<polygon fill="midnightblue" stroke="midnightblue" points="304.34,-220.5 314.34,-217 304.34,-213.5 304.34,-220.5"/>
</g>
<!-- Node5 -->
<g id="node5" class="node">
<title>Node5</title>
<g id="a_node5"><a xlink:href="classAtcfLine.html#a31f99dd6bb56e7b2cb4ebbc3a850a8f5" target="_top" xlink:title=" ">
<polygon fill="white" stroke="black" points="310,-169.5 310,-188.5 406,-188.5 406,-169.5 310,-169.5"/>
<text text-anchor="middle" x="358" y="-176.5" font-family="Helvetica,sans-Serif" font-size="10.00">AtcfLine::datetime</text>
</a>
</g>
</g>
<!-- Node4&#45;&gt;Node5 -->
<g id="edge5" class="edge">
<title>Node4&#45;&gt;Node5</title>
<path fill="none" stroke="midnightblue" d="M241.62,-131.53C257.35,-139.62 280.87,-151.27 302,-160 307.08,-162.1 312.48,-164.16 317.84,-166.11"/>
<polygon fill="midnightblue" stroke="midnightblue" points="316.76,-169.44 327.36,-169.48 319.1,-162.84 316.76,-169.44"/>
</g>
<!-- Node6 -->
<g id="node6" class="node">
<title>Node6</title>
<g id="a_node6"><a xlink:href="classAtcfLine.html#af473414f523913837f7ee7520fa9e63d" target="_top" xlink:title=" ">
<polygon fill="white" stroke="black" points="323.5,-131.5 323.5,-150.5 392.5,-150.5 392.5,-131.5 323.5,-131.5"/>
<text text-anchor="middle" x="358" y="-138.5" font-family="Helvetica,sans-Serif" font-size="10.00">AtcfLine::lat</text>
</a>
</g>
</g>
<!-- Node4&#45;&gt;Node6 -->
<g id="edge6" class="edge">
<title>Node4&#45;&gt;Node6</title>
<path fill="none" stroke="midnightblue" d="M248.61,-125.57C266.78,-128.16 291.82,-131.72 313.25,-134.77"/>
<polygon fill="midnightblue" stroke="midnightblue" points="313.04,-138.28 323.43,-136.22 314.02,-131.35 313.04,-138.28"/>
</g>
<!-- Node7 -->
<g id="node7" class="node">
<title>Node7</title>
<g id="a_node7"><a xlink:href="classAtcfLine.html#abf1373f021c76c8df3ab03e92eddc42f" target="_top" xlink:title=" ">
<polygon fill="white" stroke="black" points="322.5,-93.5 322.5,-112.5 393.5,-112.5 393.5,-93.5 322.5,-93.5"/>
<text text-anchor="middle" x="358" y="-100.5" font-family="Helvetica,sans-Serif" font-size="10.00">AtcfLine::lon</text>
</a>
</g>
</g>
<!-- Node4&#45;&gt;Node7 -->
<g id="edge7" class="edge">
<title>Node4&#45;&gt;Node7</title>
<path fill="none" stroke="midnightblue" d="M248.61,-118.43C266.53,-115.88 291.1,-112.38 312.33,-109.36"/>
<polygon fill="midnightblue" stroke="midnightblue" points="313.02,-112.79 322.43,-107.92 312.04,-105.86 313.02,-112.79"/>
</g>
<!-- Node8 -->
<g id="node8" class="node">
<title>Node8</title>
<g id="a_node8"><a xlink:href="classPhysical.html#ac6d713f1908e7e0538db20f88b34f639" target="_top" xlink:title=" ">
<polygon fill="white" stroke="black" points="302,-55.5 302,-74.5 414,-74.5 414,-55.5 302,-55.5"/>
<text text-anchor="middle" x="358" y="-62.5" font-family="Helvetica,sans-Serif" font-size="10.00">Physical::sphericalDx</text>
</a>
</g>
</g>
<!-- Node4&#45;&gt;Node8 -->
<g id="edge8" class="edge">
<title>Node4&#45;&gt;Node8</title>
<path fill="none" stroke="midnightblue" d="M241.62,-112.47C257.35,-104.38 280.87,-92.73 302,-84 307.08,-81.9 312.48,-79.84 317.84,-77.89"/>
<polygon fill="midnightblue" stroke="midnightblue" points="319.1,-81.16 327.36,-74.52 316.76,-74.56 319.1,-81.16"/>
</g>
<!-- Node15 -->
<g id="node15" class="node">
<title>Node15</title>
<g id="a_node15"><a xlink:href="classDate.html#a1fa70aa48f749203df9a600eb190dd7b" target="_top" xlink:title=" ">
<polygon fill="white" stroke="black" points="313,-16.5 313,-35.5 403,-35.5 403,-16.5 313,-16.5"/>
<text text-anchor="middle" x="358" y="-23.5" font-family="Helvetica,sans-Serif" font-size="10.00">Date::toSeconds</text>
</a>
</g>
</g>
<!-- Node4&#45;&gt;Node15 -->
<g id="edge16" class="edge">
<title>Node4&#45;&gt;Node15</title>
<path fill="none" stroke="midnightblue" d="M231.19,-112.26C244.2,-96.35 272.09,-64.71 302,-46 305.83,-43.6 310,-41.43 314.26,-39.49"/>
<polygon fill="midnightblue" stroke="midnightblue" points="315.77,-42.65 323.66,-35.57 313.09,-36.18 315.77,-42.65"/>
</g>
<!-- Node9 -->
<g id="node9" class="node">
<title>Node9</title>
<g id="a_node9"><a xlink:href="classPhysical.html#a46933b0960a506f3532ab42d02b84030" target="_top" xlink:title=" ">
<polygon fill="white" stroke="black" points="450,-52 450,-82 549,-82 549,-52 450,-52"/>
<text text-anchor="start" x="458" y="-70" font-family="Helvetica,sans-Serif" font-size="10.00">Physical::geodesic</text>
<text text-anchor="middle" x="499.5" y="-59" font-family="Helvetica,sans-Serif" font-size="10.00">_distance</text>
</a>
</g>
</g>
<!-- Node8&#45;&gt;Node9 -->
<g id="edge9" class="edge">
<title>Node8&#45;&gt;Node9</title>
<path fill="none" stroke="midnightblue" d="M414.13,-65.79C422.47,-65.91 431.1,-66.03 439.52,-66.15"/>
<polygon fill="midnightblue" stroke="midnightblue" points="439.59,-69.66 449.64,-66.3 439.69,-62.66 439.59,-69.66"/>
</g>
<!-- Node10 -->
<g id="node10" class="node">
<title>Node10</title>
<g id="a_node10"><a xlink:href="classPhysical.html#ae43063ac7bf556cb933a0206301b9748" target="_top" xlink:title=" ">
<polygon fill="white" stroke="black" points="750,-76.5 750,-95.5 845,-95.5 845,-76.5 750,-76.5"/>
<text text-anchor="middle" x="797.5" y="-83.5" font-family="Helvetica,sans-Serif" font-size="10.00">Physical::deg2rad</text>
</a>
</g>
</g>
<!-- Node9&#45;&gt;Node10 -->
<g id="edge10" class="edge">
<title>Node9&#45;&gt;Node10</title>
<path fill="none" stroke="midnightblue" d="M549.05,-70.12C601.39,-73.48 684.62,-78.82 739.9,-82.37"/>
<polygon fill="midnightblue" stroke="midnightblue" points="739.68,-85.86 749.88,-83.01 740.13,-78.87 739.68,-85.86"/>
</g>
<!-- Node12 -->
<g id="node12" class="node">
<title>Node12</title>
<g id="a_node12"><a xlink:href="classPhysical.html#a0af6386ea46179fb49f33ea168613246" target="_top" xlink:title=" ">
<polygon fill="white" stroke="black" points="585,-38.5 585,-57.5 695,-57.5 695,-38.5 585,-38.5"/>
<text text-anchor="middle" x="640" y="-45.5" font-family="Helvetica,sans-Serif" font-size="10.00">Physical::radiusEarth</text>
</a>
</g>
</g>
<!-- Node9&#45;&gt;Node12 -->
<g id="edge12" class="edge">
<title>Node9&#45;&gt;Node12</title>
<path fill="none" stroke="midnightblue" d="M549.33,-60.3C557.61,-59.16 566.33,-57.97 574.93,-56.79"/>
<polygon fill="midnightblue" stroke="midnightblue" points="575.52,-60.24 584.95,-55.41 574.57,-53.31 575.52,-60.24"/>
</g>
<!-- Node11 -->
<g id="node11" class="node">
<title>Node11</title>
<g id="a_node11"><a xlink:href="classPhysical.html#a8916e00cc71692658a0a355b2f142274" target="_top" xlink:title=" ">
<polygon fill="white" stroke="black" points="900,-76.5 900,-95.5 968,-95.5 968,-76.5 900,-76.5"/>
<text text-anchor="middle" x="934" y="-83.5" font-family="Helvetica,sans-Serif" font-size="10.00">Physical::pi</text>
</a>
</g>
</g>
<!-- Node10&#45;&gt;Node11 -->
<g id="edge11" class="edge">
<title>Node10&#45;&gt;Node11</title>
<path fill="none" stroke="midnightblue" d="M845.16,-86C859.69,-86 875.64,-86 889.92,-86"/>
<polygon fill="midnightblue" stroke="midnightblue" points="889.97,-89.5 899.97,-86 889.97,-82.5 889.97,-89.5"/>
</g>
<!-- Node12&#45;&gt;Node10 -->
<g id="edge13" class="edge">
<title>Node12&#45;&gt;Node10</title>
<path fill="none" stroke="midnightblue" d="M680.24,-57.59C700.76,-62.6 726.07,-68.79 747.83,-74.11"/>
<polygon fill="midnightblue" stroke="midnightblue" points="747,-77.51 757.54,-76.48 748.66,-70.71 747,-77.51"/>
</g>
<!-- Node13 -->
<g id="node13" class="node">
<title>Node13</title>
<g id="a_node13"><a xlink:href="classPhysical.html#af1acc32bfbde7fb61a53d9e5d33c4699" target="_top" xlink:title=" ">
<polygon fill="white" stroke="black" points="731,-38.5 731,-57.5 864,-57.5 864,-38.5 731,-38.5"/>
<text text-anchor="middle" x="797.5" y="-45.5" font-family="Helvetica,sans-Serif" font-size="10.00">Physical::equatorialRadius</text>
</a>
</g>
</g>
<!-- Node12&#45;&gt;Node13 -->
<g id="edge14" class="edge">
<title>Node12&#45;&gt;Node13</title>
<path fill="none" stroke="midnightblue" d="M695.39,-48C703.63,-48 712.27,-48 720.86,-48"/>
<polygon fill="midnightblue" stroke="midnightblue" points="720.92,-51.5 730.92,-48 720.92,-44.5 720.92,-51.5"/>
</g>
<!-- Node14 -->
<g id="node14" class="node">
<title>Node14</title>
<g id="a_node14"><a xlink:href="classPhysical.html#a1b684ff37a85f7e328c6b027ee95bc10" target="_top" xlink:title=" ">
<polygon fill="white" stroke="black" points="741.5,-0.5 741.5,-19.5 853.5,-19.5 853.5,-0.5 741.5,-0.5"/>
<text text-anchor="middle" x="797.5" y="-7.5" font-family="Helvetica,sans-Serif" font-size="10.00">Physical::polarRadius</text>
</a>
</g>
</g>
<!-- Node12&#45;&gt;Node14 -->
<g id="edge15" class="edge">
<title>Node12&#45;&gt;Node14</title>
<path fill="none" stroke="midnightblue" d="M680.24,-38.41C700.76,-33.4 726.07,-27.21 747.83,-21.89"/>
<polygon fill="midnightblue" stroke="midnightblue" points="748.66,-25.29 757.54,-19.52 747,-18.49 748.66,-25.29"/>
</g>
<!-- Node16 -->
<g id="node16" class="node">
<title>Node16</title>
<g id="a_node16"><a xlink:href="Date_8cpp.html#a45ca5db09a1ee8d14a196628d506d4bf" target="_top" xlink:title=" ">
<polygon fill="white" stroke="black" points="473,-13.5 473,-32.5 526,-32.5 526,-13.5 473,-13.5"/>
<text text-anchor="middle" x="499.5" y="-20.5" font-family="Helvetica,sans-Serif" font-size="10.00">c_epoch</text>
</a>
</g>
</g>
<!-- Node15&#45;&gt;Node16 -->
<g id="edge17" class="edge">
<title>Node15&#45;&gt;Node16</title>
<path fill="none" stroke="midnightblue" d="M403.14,-25.05C422.36,-24.64 444.59,-24.16 462.75,-23.77"/>
<polygon fill="midnightblue" stroke="midnightblue" points="462.99,-27.26 472.91,-23.55 462.84,-20.27 462.99,-27.26"/>
</g>
</g>
</svg>
