<?xml version="1.0" encoding="UTF-8" standalone="no"?>
<!DOCTYPE svg PUBLIC "-//W3C//DTD SVG 1.1//EN"
 "http://www.w3.org/Graphics/SVG/1.1/DTD/svg11.dtd">
<!-- Generated by graphviz version 2.47.1 (20210417.1919)
 -->
<!-- Title: add Pages: 1 -->
<!--zoomable 257 -->
<svg id="main" version="1.1" xmlns="http://www.w3.org/2000/svg" xmlns:xlink="http://www.w3.org/1999/xlink" xml:space="preserve" onload="init(evt)">
<style type="text/css"><![CDATA[
.edge:hover path { stroke: red; }
.edge:hover polygon { stroke: red; fill: red; }
]]></style>
<script type="text/javascript"><![CDATA[
var edges = document.getElementsByTagName('g');
if (edges && edges.length) {
  for (var i=0;i<edges.length;i++) {
    if (edges[i].id.substr(0,4)=='edge') {
      edges[i].setAttribute('class','edge');
    }
  }
}
]]></script>
        <defs>
                <circle id="rim" cx="0" cy="0" r="7"/>
                <circle id="rim2" cx="0" cy="0" r="3.5"/>
                <g id="zoomPlus">
                        <use xlink:href="#rim" fill="#404040">
                                <set attributeName="fill" to="#808080" begin="zoomplus.mouseover" end="zoomplus.mouseout"/>
                        </use>
                        <path d="M-4,0h8M0,-4v8" fill="none" stroke="white" stroke-width="1.5" pointer-events="none"/>
                </g>
                <g id="zoomMin">
                        <use xlink:href="#rim" fill="#404040">
                                <set attributeName="fill" to="#808080" begin="zoomminus.mouseover" end="zoomminus.mouseout"/>
                        </use>
                        <path d="M-4,0h8" fill="none" stroke="white" stroke-width="1.5" pointer-events="none"/>
                </g>
                <g id="dirArrow">
                        <path fill="none" stroke="white" stroke-width="1.5" d="M0,-3.0v7 M-2.5,-0.5L0,-3.0L2.5,-0.5"/>
                </g>
               <g id="resetDef">
                       <use xlink:href="#rim2" fill="#404040">
                               <set attributeName="fill" to="#808080" begin="reset.mouseover" end="reset.mouseout"/>
                       </use>
               </g>
        </defs>

<script type="text/javascript">
var viewWidth = 536;
var viewHeight = 257;
var sectionId = 'dynsection-1';
</script>
<script xlink:href="svgpan.js"/>
<svg id="graph" class="graph">
<g id="viewport">
<title>add</title>
<polygon fill="white" stroke="transparent" points="-4,4 -4,-252.72 532,-252.72 532,4 -4,4"/>
<!-- Node1 -->
<g id="node1" class="node">
<title>Node1</title>
<g id="a_node1"><a xlink:title=" ">
<polygon fill="#bfbfbf" stroke="black" points="496,-126 496,-145 528,-145 528,-126 496,-126"/>
<text text-anchor="middle" x="512" y="-133" font-family="Helvetica,sans-Serif" font-size="10.00">add</text>
</a>
</g>
</g>
<!-- Node2 -->
<g id="node2" class="node">
<title>Node2</title>
<g id="a_node2"><a xlink:href="classAtcf.html#a2c8fb312c911c7d35cc921e303cac875" target="_top" xlink:title=" ">
<polygon fill="white" stroke="black" points="95,-224 95,-243 267,-243 267,-224 95,-224"/>
<text text-anchor="middle" x="181" y="-231" font-family="Helvetica,sans-Serif" font-size="10.00">Atcf::generateMissingPressureData</text>
</a>
</g>
</g>
<!-- Node1&#45;&gt;Node2 -->
<g id="edge1" class="edge">
<title>Node1&#45;&gt;Node2</title>
<path fill="none" stroke="midnightblue" d="M504.41,-154.75C496.87,-173.55 482.56,-201.2 460,-214.5 390.2,-255.67 292.73,-251.1 233.68,-243.02"/>
<polygon fill="midnightblue" stroke="midnightblue" points="507.79,-155.72 508,-145.13 501.23,-153.28 507.79,-155.72"/>
</g>
<!-- Node4 -->
<g id="node4" class="node">
<title>Node4</title>
<g id="a_node4"><a xlink:href="classAtcf.html#a288aec5ac021ac483da71812a26dc9c3" target="_top" xlink:title=" ">
<polygon fill="white" stroke="black" points="324.5,-186 324.5,-205 438.5,-205 438.5,-186 324.5,-186"/>
<text text-anchor="middle" x="381.5" y="-193" font-family="Helvetica,sans-Serif" font-size="10.00">Atcf::getCycleNumber</text>
</a>
</g>
</g>
<!-- Node1&#45;&gt;Node4 -->
<g id="edge3" class="edge">
<title>Node1&#45;&gt;Node4</title>
<path fill="none" stroke="midnightblue" d="M494.32,-152.04C484.94,-160.49 472.61,-170.27 460,-176.5 452.17,-180.36 443.51,-183.48 434.89,-185.98"/>
<polygon fill="midnightblue" stroke="midnightblue" points="496.84,-154.47 501.74,-145.08 492.05,-149.37 496.84,-154.47"/>
</g>
<!-- Node6 -->
<g id="node6" class="node">
<title>Node6</title>
<g id="a_node6"><a xlink:href="classAtcf.html#a72001443de9ce0ebd8e0c668fe5caf9f" target="_top" xlink:title=" ">
<polygon fill="white" stroke="black" points="319,-148 319,-167 444,-167 444,-148 319,-148"/>
<text text-anchor="middle" x="381.5" y="-155" font-family="Helvetica,sans-Serif" font-size="10.00">Atcf::setAllRadiiToRmax</text>
</a>
</g>
</g>
<!-- Node1&#45;&gt;Node6 -->
<g id="edge5" class="edge">
<title>Node1&#45;&gt;Node6</title>
<path fill="none" stroke="midnightblue" d="M485.73,-139.83C472.13,-142.16 454.77,-145.13 438.19,-147.97"/>
<polygon fill="midnightblue" stroke="midnightblue" points="486.49,-143.25 495.75,-138.11 485.31,-136.35 486.49,-143.25"/>
</g>
<!-- Node8 -->
<g id="node8" class="node">
<title>Node8</title>
<g id="a_node8"><a xlink:href="classAtcf.html#ab2c3d48d4cd01aa2aef9e02f2a199bb1" target="_top" xlink:title=" ">
<polygon fill="white" stroke="black" points="303,-98.5 303,-128.5 460,-128.5 460,-98.5 303,-98.5"/>
<text text-anchor="start" x="311" y="-116.5" font-family="Helvetica,sans-Serif" font-size="10.00">Atcf::setMissingRadiiToAverage</text>
<text text-anchor="middle" x="381.5" y="-105.5" font-family="Helvetica,sans-Serif" font-size="10.00">OfAdjacentRadii</text>
</a>
</g>
</g>
<!-- Node1&#45;&gt;Node8 -->
<g id="edge8" class="edge">
<title>Node1&#45;&gt;Node8</title>
<path fill="none" stroke="midnightblue" d="M485.85,-131.19C478.24,-129.89 469.43,-128.38 460.24,-126.81"/>
<polygon fill="midnightblue" stroke="midnightblue" points="485.31,-134.65 495.75,-132.89 486.49,-127.75 485.31,-134.65"/>
</g>
<!-- Node9 -->
<g id="node9" class="node">
<title>Node9</title>
<g id="a_node9"><a xlink:href="classAtcf.html#a0f3511e6d9066da7d7af0fe1aab03f79" target="_top" xlink:title=" ">
<polygon fill="white" stroke="black" points="312,-49.5 312,-79.5 451,-79.5 451,-49.5 312,-49.5"/>
<text text-anchor="start" x="320" y="-67.5" font-family="Helvetica,sans-Serif" font-size="10.00">Atcf::setMissingRadiiToHalf</text>
<text text-anchor="middle" x="381.5" y="-56.5" font-family="Helvetica,sans-Serif" font-size="10.00">NonzeroRadii</text>
</a>
</g>
</g>
<!-- Node1&#45;&gt;Node9 -->
<g id="edge10" class="edge">
<title>Node1&#45;&gt;Node9</title>
<path fill="none" stroke="midnightblue" d="M496.17,-118.45C486.7,-108.49 473.67,-96.37 460,-88.5 454.14,-85.13 447.75,-82.17 441.24,-79.6"/>
<polygon fill="midnightblue" stroke="midnightblue" points="493.61,-120.84 502.94,-125.86 498.78,-116.12 493.61,-120.84"/>
</g>
<!-- Node10 -->
<g id="node10" class="node">
<title>Node10</title>
<g id="a_node10"><a xlink:href="classAtcf.html#aed2ec117307b05eb72dc3e8e06965923" target="_top" xlink:title=" ">
<polygon fill="white" stroke="black" points="312,-0.5 312,-30.5 451,-30.5 451,-0.5 312,-0.5"/>
<text text-anchor="start" x="320" y="-18.5" font-family="Helvetica,sans-Serif" font-size="10.00">Atcf::setMissingRadiiToHalf</text>
<text text-anchor="middle" x="381.5" y="-7.5" font-family="Helvetica,sans-Serif" font-size="10.00">OfAverageSpecifiedRadii</text>
</a>
</g>
</g>
<!-- Node1&#45;&gt;Node10 -->
<g id="edge12" class="edge">
<title>Node1&#45;&gt;Node10</title>
<path fill="none" stroke="midnightblue" d="M505.57,-115.97C498.55,-94.25 484.25,-59.57 460,-39.5 455.88,-36.09 451.27,-33.16 446.41,-30.65"/>
<polygon fill="midnightblue" stroke="midnightblue" points="502.28,-117.18 508.52,-125.74 508.98,-115.16 502.28,-117.18"/>
</g>
<!-- Node3 -->
<g id="node3" class="node">
<title>Node3</title>
<g id="a_node3"><a xlink:href="classAtcf.html#aaab5dab5b969a87f538242e524431637" target="_top" xlink:title=" ">
<polygon fill="white" stroke="black" points="0,-164 0,-183 59,-183 59,-164 0,-164"/>
<text text-anchor="middle" x="29.5" y="-171" font-family="Helvetica,sans-Serif" font-size="10.00">Atcf::read</text>
</a>
</g>
</g>
<!-- Node2&#45;&gt;Node3 -->
<g id="edge2" class="edge">
<title>Node2&#45;&gt;Node3</title>
<path fill="none" stroke="midnightblue" d="M114.47,-221.28C107.79,-219.32 101.19,-217.07 95,-214.5 75.39,-206.37 55.1,-192.39 42.63,-183.04"/>
<polygon fill="midnightblue" stroke="midnightblue" points="113.7,-224.7 124.27,-223.95 115.54,-217.94 113.7,-224.7"/>
</g>
<!-- Node5 -->
<g id="node5" class="node">
<title>Node5</title>
<g id="a_node5"><a xlink:href="classAtcf.html#af2619be19171e8e1e2f6b110d18c755a" target="_top" xlink:title=" ">
<polygon fill="white" stroke="black" points="115.5,-186 115.5,-205 246.5,-205 246.5,-186 115.5,-186"/>
<text text-anchor="middle" x="181" y="-193" font-family="Helvetica,sans-Serif" font-size="10.00">Atcf::getStormParameters</text>
</a>
</g>
</g>
<!-- Node4&#45;&gt;Node5 -->
<g id="edge4" class="edge">
<title>Node4&#45;&gt;Node5</title>
<path fill="none" stroke="midnightblue" d="M314.27,-195.5C292.51,-195.5 268.36,-195.5 246.71,-195.5"/>
<polygon fill="midnightblue" stroke="midnightblue" points="314.41,-199 324.41,-195.5 314.41,-192 314.41,-199"/>
</g>
<!-- Node7 -->
<g id="node7" class="node">
<title>Node7</title>
<g id="a_node7"><a xlink:href="classAtcf.html#a4392a7255cda22dc330a996257216c31" target="_top" xlink:title=" ">
<polygon fill="white" stroke="black" points="130,-104 130,-123 232,-123 232,-104 130,-104"/>
<text text-anchor="middle" x="181" y="-111" font-family="Helvetica,sans-Serif" font-size="10.00">Atcf::calculateRadii</text>
</a>
</g>
</g>
<!-- Node6&#45;&gt;Node7 -->
<g id="edge6" class="edge">
<title>Node6&#45;&gt;Node7</title>
<path fill="none" stroke="midnightblue" d="M327.34,-145.72C295.29,-138.61 255.01,-129.68 224.99,-123.03"/>
<polygon fill="midnightblue" stroke="midnightblue" points="326.91,-149.21 337.43,-147.95 328.42,-142.37 326.91,-149.21"/>
</g>
<!-- Node7&#45;&gt;Node3 -->
<g id="edge7" class="edge">
<title>Node7&#45;&gt;Node3</title>
<path fill="none" stroke="midnightblue" d="M146.94,-126.77C119,-137.98 79.61,-153.79 54.57,-163.84"/>
<polygon fill="midnightblue" stroke="midnightblue" points="148.33,-129.98 156.31,-123.01 145.73,-123.48 148.33,-129.98"/>
</g>
<!-- Node8&#45;&gt;Node7 -->
<g id="edge9" class="edge">
<title>Node8&#45;&gt;Node7</title>
<path fill="none" stroke="midnightblue" d="M292.77,-113.5C271.98,-113.5 250.51,-113.5 232.07,-113.5"/>
<polygon fill="midnightblue" stroke="midnightblue" points="292.9,-117 302.9,-113.5 292.9,-110 292.9,-117"/>
</g>
<!-- Node9&#45;&gt;Node7 -->
<g id="edge11" class="edge">
<title>Node9&#45;&gt;Node7</title>
<path fill="none" stroke="midnightblue" d="M309.59,-82C279.6,-89.41 245.85,-97.74 220.6,-103.97"/>
<polygon fill="midnightblue" stroke="midnightblue" points="310.72,-85.33 319.59,-79.53 309.05,-78.53 310.72,-85.33"/>
</g>
<!-- Node10&#45;&gt;Node7 -->
<g id="edge13" class="edge">
<title>Node10&#45;&gt;Node7</title>
<path fill="none" stroke="midnightblue" d="M315.92,-34.15C311.5,-35.83 307.16,-37.62 303,-39.5 261.49,-58.27 216.79,-88.55 195.18,-103.91"/>
<polygon fill="midnightblue" stroke="midnightblue" points="317.46,-37.31 325.66,-30.61 315.07,-30.73 317.46,-37.31"/>
</g>
</g>
</svg>
        <g id="navigator" transform="translate(0 0)" fill="#404254">
                <rect fill="#f2f5e9" fill-opacity="0.5" stroke="#606060" stroke-width=".5" x="0" y="0" width="60" height="60"/>
                <use id="zoomplus" xlink:href="#zoomPlus" x="17" y="9" onmousedown="handleZoom(evt,'in')"/>
                <use id="zoomminus" xlink:href="#zoomMin" x="42" y="9" onmousedown="handleZoom(evt,'out')"/>
                <use id="reset" xlink:href="#resetDef" x="30" y="36" onmousedown="handleReset()"/>
                <g id="arrowUp" xlink:href="#dirArrow" transform="translate(30 24)" onmousedown="handlePan(0,-1)">
                  <use xlink:href="#rim" fill="#404040">
                        <set attributeName="fill" to="#808080" begin="arrowUp.mouseover" end="arrowUp.mouseout"/>
                  </use>
                  <path fill="none" stroke="white" stroke-width="1.5" d="M0,-3.0v7 M-2.5,-0.5L0,-3.0L2.5,-0.5"/>
                </g>
                <g id="arrowRight" xlink:href="#dirArrow" transform="rotate(90) translate(36 -43)" onmousedown="handlePan(1,0)">
                  <use xlink:href="#rim" fill="#404040">
                        <set attributeName="fill" to="#808080" begin="arrowRight.mouseover" end="arrowRight.mouseout"/>
                  </use>
                  <path fill="none" stroke="white" stroke-width="1.5" d="M0,-3.0v7 M-2.5,-0.5L0,-3.0L2.5,-0.5"/>
                </g>
                <g id="arrowDown" xlink:href="#dirArrow" transform="rotate(180) translate(-30 -48)" onmousedown="handlePan(0,1)">
                  <use xlink:href="#rim" fill="#404040">
                        <set attributeName="fill" to="#808080" begin="arrowDown.mouseover" end="arrowDown.mouseout"/>
                  </use>
                  <path fill="none" stroke="white" stroke-width="1.5" d="M0,-3.0v7 M-2.5,-0.5L0,-3.0L2.5,-0.5"/>
                </g>
                <g id="arrowLeft" xlink:href="#dirArrow" transform="rotate(270) translate(-36 17)" onmousedown="handlePan(-1,0)">
                  <use xlink:href="#rim" fill="#404040">
                        <set attributeName="fill" to="#808080" begin="arrowLeft.mouseover" end="arrowLeft.mouseout"/>
                  </use>
                  <path fill="none" stroke="white" stroke-width="1.5" d="M0,-3.0v7 M-2.5,-0.5L0,-3.0L2.5,-0.5"/>
                </g>
        </g>
        <svg viewBox="0 0 15 15" width="100%" height="30px" preserveAspectRatio="xMaxYMin meet">
         <g id="arrow_out" transform="scale(0.3 0.3)">
          <a xlink:href="classAssumptions_a20319f7261289f879d667fe91034d503_icgraph_org.svg" target="_base">
           <rect id="button" ry="5" rx="5" y="6" x="6" height="38" width="38"
                fill="#f2f5e9" fill-opacity="0.5" stroke="#606060" stroke-width="1.0"/>
           <path id="arrow"
             d="M 11.500037,31.436501 C 11.940474,20.09759 22.043105,11.32322 32.158766,21.979434 L 37.068811,17.246167 C 37.068811,17.246167 37.088388,32 37.088388,32 L 22.160133,31.978069 C 22.160133,31.978069 26.997745,27.140456 26.997745,27.140456 C 18.528582,18.264221 13.291696,25.230495 11.500037,31.436501 z"
             style="fill:#404040;"/>
          </a>
         </g>
        </svg>
</svg>
