<?xml version="1.0" encoding="UTF-8" standalone="no"?>
<!DOCTYPE svg PUBLIC "-//W3C//DTD SVG 1.1//EN"
 "http://www.w3.org/Graphics/SVG/1.1/DTD/svg11.dtd">
<!-- Generated by graphviz version 2.47.1 (20210417.1919)
 -->
<!-- Title: spInterp Pages: 1 -->
<svg width="644pt" height="140pt"
 viewBox="0.00 0.00 644.00 139.50" xmlns="http://www.w3.org/2000/svg" xmlns:xlink="http://www.w3.org/1999/xlink">
<g id="graph0" class="graph" transform="scale(1 1) rotate(0) translate(4 135.5)">
<title>spInterp</title>
<polygon fill="white" stroke="transparent" points="-4,4 -4,-135.5 640,-135.5 640,4 -4,4"/>
<!-- Node1 -->
<g id="node1" class="node">
<title>Node1</title>
<g id="a_node1"><a xlink:title=" ">
<polygon fill="#bfbfbf" stroke="black" points="0,-63.5 0,-82.5 52,-82.5 52,-63.5 0,-63.5"/>
<text text-anchor="middle" x="26" y="-70.5" font-family="Helvetica,sans-Serif" font-size="10.00">spInterp</text>
</a>
</g>
</g>
<!-- Node2 -->
<g id="node2" class="node">
<title>Node2</title>
<g id="a_node2"><a xlink:href="namespacePhysical.html#a91dad53e6fb51e27776a895703d6c17a" target="_top" xlink:title=" ">
<polygon fill="white" stroke="black" points="88,-82.5 88,-101.5 185,-101.5 185,-82.5 88,-82.5"/>
<text text-anchor="middle" x="136.5" y="-89.5" font-family="Helvetica,sans-Serif" font-size="10.00">Physical::distance</text>
</a>
</g>
</g>
<!-- Node1&#45;&gt;Node2 -->
<g id="edge1" class="edge">
<title>Node1&#45;&gt;Node2</title>
<path fill="none" stroke="midnightblue" d="M52.16,-77.41C59.98,-78.78 68.94,-80.34 78.02,-81.93"/>
<polygon fill="midnightblue" stroke="midnightblue" points="77.42,-85.38 87.87,-83.66 78.62,-78.49 77.42,-85.38"/>
</g>
<!-- Node9 -->
<g id="node9" class="node">
<title>Node9</title>
<g id="a_node9"><a xlink:href="classVortex.html#ac6cc0dffbc1abd13fc6b212cf701a464" target="_top" xlink:title=" ">
<polygon fill="white" stroke="black" points="90.5,-44.5 90.5,-63.5 182.5,-63.5 182.5,-44.5 90.5,-44.5"/>
<text text-anchor="middle" x="136.5" y="-51.5" font-family="Helvetica,sans-Serif" font-size="10.00">getBaseQuadrant</text>
</a>
</g>
</g>
<!-- Node1&#45;&gt;Node9 -->
<g id="edge9" class="edge">
<title>Node1&#45;&gt;Node9</title>
<path fill="none" stroke="midnightblue" d="M52.16,-68.59C60.71,-67.1 70.62,-65.36 80.56,-63.62"/>
<polygon fill="midnightblue" stroke="midnightblue" points="81.22,-67.06 90.47,-61.89 80.01,-60.16 81.22,-67.06"/>
</g>
<!-- Node3 -->
<g id="node3" class="node">
<title>Node3</title>
<g id="a_node3"><a xlink:href="namespacePhysical.html#a5cd90415008c6f2196b425d2a524062b" target="_top" xlink:title=" ">
<polygon fill="white" stroke="black" points="221,-101 221,-131 321,-131 321,-101 221,-101"/>
<text text-anchor="start" x="229" y="-119" font-family="Helvetica,sans-Serif" font-size="10.00">Physical::cartesian</text>
<text text-anchor="middle" x="271" y="-108" font-family="Helvetica,sans-Serif" font-size="10.00">_distance</text>
</a>
</g>
</g>
<!-- Node2&#45;&gt;Node3 -->
<g id="edge2" class="edge">
<title>Node2&#45;&gt;Node3</title>
<path fill="none" stroke="midnightblue" d="M185.34,-100.66C193.65,-102.17 202.38,-103.75 210.95,-105.3"/>
<polygon fill="midnightblue" stroke="midnightblue" points="210.43,-108.77 220.9,-107.11 211.68,-101.88 210.43,-108.77"/>
</g>
<!-- Node4 -->
<g id="node4" class="node">
<title>Node4</title>
<g id="a_node4"><a xlink:href="namespacePhysical.html#aa9f4487d4613a1f2b0a6f4c12d564e2c" target="_top" xlink:title=" ">
<polygon fill="white" stroke="black" points="221.5,-52 221.5,-82 320.5,-82 320.5,-52 221.5,-52"/>
<text text-anchor="start" x="229.5" y="-70" font-family="Helvetica,sans-Serif" font-size="10.00">Physical::geodesic</text>
<text text-anchor="middle" x="271" y="-59" font-family="Helvetica,sans-Serif" font-size="10.00">_distance</text>
</a>
</g>
</g>
<!-- Node2&#45;&gt;Node4 -->
<g id="edge3" class="edge">
<title>Node2&#45;&gt;Node4</title>
<path fill="none" stroke="midnightblue" d="M185.34,-82.97C193.75,-81.39 202.6,-79.72 211.28,-78.08"/>
<polygon fill="midnightblue" stroke="midnightblue" points="212.17,-81.47 221.34,-76.18 210.87,-74.6 212.17,-81.47"/>
</g>
<!-- Node5 -->
<g id="node5" class="node">
<title>Node5</title>
<g id="a_node5"><a xlink:href="namespacePhysical.html#aedb77f347557f2942e99437f55e976a8" target="_top" xlink:title=" ">
<polygon fill="white" stroke="black" points="522,-76.5 522,-95.5 617,-95.5 617,-76.5 522,-76.5"/>
<text text-anchor="middle" x="569.5" y="-83.5" font-family="Helvetica,sans-Serif" font-size="10.00">Physical::deg2rad</text>
</a>
</g>
</g>
<!-- Node4&#45;&gt;Node5 -->
<g id="edge4" class="edge">
<title>Node4&#45;&gt;Node5</title>
<path fill="none" stroke="midnightblue" d="M320.63,-70.12C373.06,-73.48 456.43,-78.82 511.8,-82.37"/>
<polygon fill="midnightblue" stroke="midnightblue" points="511.6,-85.86 521.8,-83.01 512.05,-78.88 511.6,-85.86"/>
</g>
<!-- Node6 -->
<g id="node6" class="node">
<title>Node6</title>
<g id="a_node6"><a xlink:href="namespacePhysical.html#a54d120caf204e2c8e9b5c646442f0aaf" target="_top" xlink:title=" ">
<polygon fill="white" stroke="black" points="357,-38.5 357,-57.5 467,-57.5 467,-38.5 357,-38.5"/>
<text text-anchor="middle" x="412" y="-45.5" font-family="Helvetica,sans-Serif" font-size="10.00">Physical::radiusEarth</text>
</a>
</g>
</g>
<!-- Node4&#45;&gt;Node6 -->
<g id="edge5" class="edge">
<title>Node4&#45;&gt;Node6</title>
<path fill="none" stroke="midnightblue" d="M320.62,-60.35C329.15,-59.19 338.14,-57.96 347.02,-56.75"/>
<polygon fill="midnightblue" stroke="midnightblue" points="347.52,-60.21 356.95,-55.39 346.57,-53.27 347.52,-60.21"/>
</g>
<!-- Node6&#45;&gt;Node5 -->
<g id="edge6" class="edge">
<title>Node6&#45;&gt;Node5</title>
<path fill="none" stroke="midnightblue" d="M452.24,-57.59C472.76,-62.6 498.07,-68.79 519.83,-74.11"/>
<polygon fill="midnightblue" stroke="midnightblue" points="519,-77.51 529.54,-76.48 520.66,-70.71 519,-77.51"/>
</g>
<!-- Node7 -->
<g id="node7" class="node">
<title>Node7</title>
<g id="a_node7"><a xlink:href="namespacePhysical.html#a6c13e82a46905cdfbf1647591d8935ed" target="_top" xlink:title=" ">
<polygon fill="white" stroke="black" points="503,-38.5 503,-57.5 636,-57.5 636,-38.5 503,-38.5"/>
<text text-anchor="middle" x="569.5" y="-45.5" font-family="Helvetica,sans-Serif" font-size="10.00">Physical::equatorialRadius</text>
</a>
</g>
</g>
<!-- Node6&#45;&gt;Node7 -->
<g id="edge7" class="edge">
<title>Node6&#45;&gt;Node7</title>
<path fill="none" stroke="midnightblue" d="M467.39,-48C475.63,-48 484.27,-48 492.86,-48"/>
<polygon fill="midnightblue" stroke="midnightblue" points="492.92,-51.5 502.92,-48 492.92,-44.5 492.92,-51.5"/>
</g>
<!-- Node8 -->
<g id="node8" class="node">
<title>Node8</title>
<g id="a_node8"><a xlink:href="namespacePhysical.html#acbba7b727274b2f016499f85b0b3d2f7" target="_top" xlink:title=" ">
<polygon fill="white" stroke="black" points="513.5,-0.5 513.5,-19.5 625.5,-19.5 625.5,-0.5 513.5,-0.5"/>
<text text-anchor="middle" x="569.5" y="-7.5" font-family="Helvetica,sans-Serif" font-size="10.00">Physical::polarRadius</text>
</a>
</g>
</g>
<!-- Node6&#45;&gt;Node8 -->
<g id="edge8" class="edge">
<title>Node6&#45;&gt;Node8</title>
<path fill="none" stroke="midnightblue" d="M452.24,-38.41C472.76,-33.4 498.07,-27.21 519.83,-21.89"/>
<polygon fill="midnightblue" stroke="midnightblue" points="520.66,-25.29 529.54,-19.52 519,-18.49 520.66,-25.29"/>
</g>
</g>
</svg>
