<?xml version="1.0" encoding="UTF-8" standalone="no"?>
<!DOCTYPE svg PUBLIC "-//W3C//DTD SVG 1.1//EN"
 "http://www.w3.org/Graphics/SVG/1.1/DTD/svg11.dtd">
<!-- Generated by graphviz version 2.47.1 (20210417.1919)
 -->
<!-- Title: calcHollandB Pages: 1 -->
<svg width="207pt" height="104pt"
 viewBox="0.00 0.00 207.00 104.00" xmlns="http://www.w3.org/2000/svg" xmlns:xlink="http://www.w3.org/1999/xlink">
<g id="graph0" class="graph" transform="scale(1 1) rotate(0) translate(4 100)">
<title>calcHollandB</title>
<polygon fill="white" stroke="transparent" points="-4,4 -4,-100 203,-100 203,4 -4,4"/>
<!-- Node1 -->
<g id="node1" class="node">
<title>Node1</title>
<g id="a_node1"><a xlink:title=" ">
<polygon fill="#bfbfbf" stroke="black" points="0,-38.5 0,-57.5 74,-57.5 74,-38.5 0,-38.5"/>
<text text-anchor="middle" x="37" y="-45.5" font-family="Helvetica,sans-Serif" font-size="10.00">calcHollandB</text>
</a>
</g>
</g>
<!-- Node2 -->
<g id="node2" class="node">
<title>Node2</title>
<g id="a_node2"><a xlink:href="classPhysical.html#a8256b0ba2078e4f506268b7a9d18c8bc" target="_top" xlink:title=" ">
<polygon fill="white" stroke="black" points="122,-76.5 122,-95.5 187,-95.5 187,-76.5 122,-76.5"/>
<text text-anchor="middle" x="154.5" y="-83.5" font-family="Helvetica,sans-Serif" font-size="10.00">Physical::e</text>
</a>
</g>
</g>
<!-- Node1&#45;&gt;Node2 -->
<g id="edge1" class="edge">
<title>Node1&#45;&gt;Node2</title>
<path fill="none" stroke="midnightblue" d="M67.15,-57.59C81.51,-62.31 99.03,-68.08 114.53,-73.18"/>
<polygon fill="midnightblue" stroke="midnightblue" points="113.77,-76.61 124.36,-76.41 115.96,-69.96 113.77,-76.61"/>
</g>
<!-- Node3 -->
<g id="node3" class="node">
<title>Node3</title>
<g id="a_node3"><a xlink:href="classPhysical.html#a1e3cc31cbd44a009c32a1888ebc600c2" target="_top" xlink:title=" ">
<polygon fill="white" stroke="black" points="110,-38.5 110,-57.5 199,-57.5 199,-38.5 110,-38.5"/>
<text text-anchor="middle" x="154.5" y="-45.5" font-family="Helvetica,sans-Serif" font-size="10.00">Physical::mb2pa</text>
</a>
</g>
</g>
<!-- Node1&#45;&gt;Node3 -->
<g id="edge2" class="edge">
<title>Node1&#45;&gt;Node3</title>
<path fill="none" stroke="midnightblue" d="M74.23,-48C82.31,-48 91.05,-48 99.67,-48"/>
<polygon fill="midnightblue" stroke="midnightblue" points="99.7,-51.5 109.7,-48 99.7,-44.5 99.7,-51.5"/>
</g>
<!-- Node4 -->
<g id="node4" class="node">
<title>Node4</title>
<g id="a_node4"><a xlink:href="classPhysical.html#aad2b9f195b6512f3156a21eacc1c726b" target="_top" xlink:title=" ">
<polygon fill="white" stroke="black" points="111.5,-0.5 111.5,-19.5 197.5,-19.5 197.5,-0.5 111.5,-0.5"/>
<text text-anchor="middle" x="154.5" y="-7.5" font-family="Helvetica,sans-Serif" font-size="10.00">Physical::rhoAir</text>
</a>
</g>
</g>
<!-- Node1&#45;&gt;Node4 -->
<g id="edge3" class="edge">
<title>Node1&#45;&gt;Node4</title>
<path fill="none" stroke="midnightblue" d="M67.15,-38.41C81.51,-33.69 99.03,-27.92 114.53,-22.82"/>
<polygon fill="midnightblue" stroke="midnightblue" points="115.96,-26.04 124.36,-19.59 113.77,-19.39 115.96,-26.04"/>
</g>
</g>
</svg>
