<?xml version="1.0" encoding="UTF-8" standalone="no"?>
<!DOCTYPE svg PUBLIC "-//W3C//DTD SVG 1.1//EN"
 "http://www.w3.org/Graphics/SVG/1.1/DTD/svg11.dtd">
<!-- Generated by graphviz version 2.47.1 (20210417.1919)
 -->
<!-- Title: Assumptions Pages: 1 -->
<svg width="209pt" height="608pt"
 viewBox="0.00 0.00 209.00 608.00" xmlns="http://www.w3.org/2000/svg" xmlns:xlink="http://www.w3.org/1999/xlink">
<g id="graph0" class="graph" transform="scale(1 1) rotate(0) translate(4 604)">
<title>Assumptions</title>
<polygon fill="white" stroke="transparent" points="-4,4 -4,-604 205,-604 205,4 -4,4"/>
<!-- Node1 -->
<g id="node1" class="node">
<title>Node1</title>
<g id="a_node1"><a xlink:title=" ">
<polygon fill="#bfbfbf" stroke="black" points="59,-0.5 59,-101.5 147,-101.5 147,-0.5 59,-0.5"/>
<text text-anchor="middle" x="103" y="-89.5" font-family="Helvetica,sans-Serif" font-size="10.00">Assumptions</text>
<polyline fill="none" stroke="black" points="59,-82.5 147,-82.5 "/>
<text text-anchor="middle" x="103" y="-70.5" font-family="Helvetica,sans-Serif" font-size="10.00"> </text>
<polyline fill="none" stroke="black" points="59,-63.5 147,-63.5 "/>
<text text-anchor="start" x="67" y="-51.5" font-family="Helvetica,sans-Serif" font-size="10.00">+ Assumptions()</text>
<text text-anchor="start" x="67" y="-40.5" font-family="Helvetica,sans-Serif" font-size="10.00">+ add()</text>
<text text-anchor="start" x="67" y="-29.5" font-family="Helvetica,sans-Serif" font-size="10.00">+ count()</text>
<text text-anchor="start" x="67" y="-18.5" font-family="Helvetica,sans-Serif" font-size="10.00">+ get()</text>
<text text-anchor="start" x="67" y="-7.5" font-family="Helvetica,sans-Serif" font-size="10.00">+ log()</text>
</a>
</g>
</g>
<!-- Node2 -->
<g id="node2" class="node">
<title>Node2</title>
<g id="a_node2"><a xlink:title=" ">
<polygon fill="white" stroke="#bfbfbf" points="46.5,-149.5 46.5,-206.5 159.5,-206.5 159.5,-149.5 46.5,-149.5"/>
<text text-anchor="middle" x="103" y="-194.5" font-family="Helvetica,sans-Serif" font-size="10.00">vector&lt; Assumption &gt;</text>
<polyline fill="none" stroke="#bfbfbf" points="46.5,-187.5 159.5,-187.5 "/>
<text text-anchor="middle" x="103" y="-175.5" font-family="Helvetica,sans-Serif" font-size="10.00"> </text>
<polyline fill="none" stroke="#bfbfbf" points="46.5,-168.5 159.5,-168.5 "/>
<text text-anchor="middle" x="103" y="-156.5" font-family="Helvetica,sans-Serif" font-size="10.00"> </text>
</a>
</g>
</g>
<!-- Node2&#45;&gt;Node1 -->
<g id="edge1" class="edge">
<title>Node2&#45;&gt;Node1</title>
<path fill="none" stroke="#404040" d="M103,-149.26C103,-138.79 103,-126.42 103,-114.07"/>
<polygon fill="none" stroke="#404040" points="103,-113.8 99,-107.8 103,-101.8 107,-107.8 103,-113.8"/>
<text text-anchor="middle" x="141" y="-123" font-family="Helvetica,sans-Serif" font-size="10.00"> &#45;m_assumptions</text>
</g>
<!-- Node3 -->
<g id="node3" class="node">
<title>Node3</title>
<g id="a_node3"><a xlink:href="classAssumption.html" target="_top" xlink:title=" ">
<polygon fill="white" stroke="black" points="8,-254.5 8,-388.5 100,-388.5 100,-254.5 8,-254.5"/>
<text text-anchor="middle" x="54" y="-376.5" font-family="Helvetica,sans-Serif" font-size="10.00">Assumption</text>
<polyline fill="none" stroke="black" points="8,-369.5 100,-369.5 "/>
<text text-anchor="start" x="16" y="-357.5" font-family="Helvetica,sans-Serif" font-size="10.00">&#45; m_line</text>
<text text-anchor="start" x="16" y="-346.5" font-family="Helvetica,sans-Serif" font-size="10.00">&#45; m_severity</text>
<polyline fill="none" stroke="black" points="8,-339.5 100,-339.5 "/>
<text text-anchor="start" x="16" y="-327.5" font-family="Helvetica,sans-Serif" font-size="10.00">+ Assumption()</text>
<text text-anchor="start" x="16" y="-316.5" font-family="Helvetica,sans-Serif" font-size="10.00">+ filename()</text>
<text text-anchor="start" x="16" y="-305.5" font-family="Helvetica,sans-Serif" font-size="10.00">+ line()</text>
<text text-anchor="start" x="16" y="-294.5" font-family="Helvetica,sans-Serif" font-size="10.00">+ message()</text>
<text text-anchor="start" x="16" y="-283.5" font-family="Helvetica,sans-Serif" font-size="10.00">+ severity()</text>
<text text-anchor="start" x="16" y="-272.5" font-family="Helvetica,sans-Serif" font-size="10.00">+ toString()</text>
<text text-anchor="start" x="16" y="-261.5" font-family="Helvetica,sans-Serif" font-size="10.00">+ severityString()</text>
</a>
</g>
</g>
<!-- Node3&#45;&gt;Node2 -->
<g id="edge2" class="edge">
<title>Node3&#45;&gt;Node2</title>
<path fill="none" stroke="#404040" d="M64.64,-254.34C67.17,-244.33 70.25,-234.26 74,-225 75.01,-222.51 76.15,-220.01 77.38,-217.52"/>
<polygon fill="none" stroke="#404040" points="77.46,-217.38 76.85,-210.19 83.24,-206.86 83.86,-214.05 77.46,-217.38"/>
<text text-anchor="middle" x="98.5" y="-228" font-family="Helvetica,sans-Serif" font-size="10.00"> +elements</text>
</g>
<!-- Node4 -->
<g id="node4" class="node">
<title>Node4</title>
<g id="a_node4"><a xlink:title=" ">
<polygon fill="white" stroke="#bfbfbf" points="33.5,-447.5 33.5,-504.5 74.5,-504.5 74.5,-447.5 33.5,-447.5"/>
<text text-anchor="middle" x="54" y="-492.5" font-family="Helvetica,sans-Serif" font-size="10.00">string</text>
<polyline fill="none" stroke="#bfbfbf" points="33.5,-485.5 74.5,-485.5 "/>
<text text-anchor="middle" x="54" y="-473.5" font-family="Helvetica,sans-Serif" font-size="10.00"> </text>
<polyline fill="none" stroke="#bfbfbf" points="33.5,-466.5 74.5,-466.5 "/>
<text text-anchor="middle" x="54" y="-454.5" font-family="Helvetica,sans-Serif" font-size="10.00"> </text>
</a>
</g>
</g>
<!-- Node4&#45;&gt;Node3 -->
<g id="edge3" class="edge">
<title>Node4&#45;&gt;Node3</title>
<path fill="none" stroke="#404040" d="M54,-447.38C54,-434.12 54,-417.49 54,-400.74"/>
<polygon fill="none" stroke="#404040" points="54,-400.56 50,-394.56 54,-388.56 58,-394.56 54,-400.56"/>
<text text-anchor="middle" x="82.5" y="-421" font-family="Helvetica,sans-Serif" font-size="10.00"> &#45;m_filename</text>
<text text-anchor="middle" x="82.5" y="-410" font-family="Helvetica,sans-Serif" font-size="10.00">&#45;m_message</text>
</g>
<!-- Node5 -->
<g id="node5" class="node">
<title>Node5</title>
<g id="a_node5"><a xlink:title=" ">
<polygon fill="white" stroke="#bfbfbf" points="0,-542.5 0,-599.5 108,-599.5 108,-542.5 0,-542.5"/>
<text text-anchor="middle" x="54" y="-587.5" font-family="Helvetica,sans-Serif" font-size="10.00">basic_string&lt; Char &gt;</text>
<polyline fill="none" stroke="#bfbfbf" points="0,-580.5 108,-580.5 "/>
<text text-anchor="middle" x="54" y="-568.5" font-family="Helvetica,sans-Serif" font-size="10.00"> </text>
<polyline fill="none" stroke="#bfbfbf" points="0,-561.5 108,-561.5 "/>
<text text-anchor="middle" x="54" y="-549.5" font-family="Helvetica,sans-Serif" font-size="10.00"> </text>
</a>
</g>
</g>
<!-- Node5&#45;&gt;Node4 -->
<g id="edge4" class="edge">
<title>Node5&#45;&gt;Node4</title>
<path fill="none" stroke="midnightblue" d="M54,-532.24C54,-523.03 54,-513.35 54,-504.71"/>
<polygon fill="none" stroke="midnightblue" points="50.5,-532.35 54,-542.35 57.5,-532.35 50.5,-532.35"/>
</g>
<!-- Node6 -->
<g id="node6" class="node">
<title>Node6</title>
<g id="a_node6"><a xlink:title=" ">
<polygon fill="white" stroke="#bfbfbf" points="118,-293 118,-350 186,-350 186,-293 118,-293"/>
<text text-anchor="middle" x="152" y="-338" font-family="Helvetica,sans-Serif" font-size="10.00">vector&lt; T &gt;</text>
<polyline fill="none" stroke="#bfbfbf" points="118,-331 186,-331 "/>
<text text-anchor="middle" x="152" y="-319" font-family="Helvetica,sans-Serif" font-size="10.00"> </text>
<polyline fill="none" stroke="#bfbfbf" points="118,-312 186,-312 "/>
<text text-anchor="middle" x="152" y="-300" font-family="Helvetica,sans-Serif" font-size="10.00"> </text>
</a>
</g>
</g>
<!-- Node6&#45;&gt;Node2 -->
<g id="edge5" class="edge">
<title>Node6&#45;&gt;Node2</title>
<path fill="none" stroke="orange" d="M141.61,-282.69C136.47,-265 129.9,-243.76 123,-225 120.78,-218.95 118.17,-212.56 115.58,-206.52"/>
<polygon fill="orange" stroke="orange" points="138.34,-283.99 144.46,-292.64 145.07,-282.06 138.34,-283.99"/>
<text text-anchor="middle" x="162.5" y="-228" font-family="Helvetica,sans-Serif" font-size="10.00"> &lt; Assumption &gt;</text>
</g>
<!-- Node7 -->
<g id="node7" class="node">
<title>Node7</title>
<g id="a_node7"><a xlink:title=" ">
<polygon fill="white" stroke="#bfbfbf" points="137.5,-447.5 137.5,-504.5 166.5,-504.5 166.5,-447.5 137.5,-447.5"/>
<text text-anchor="middle" x="152" y="-492.5" font-family="Helvetica,sans-Serif" font-size="10.00">T</text>
<polyline fill="none" stroke="#bfbfbf" points="137.5,-485.5 166.5,-485.5 "/>
<text text-anchor="middle" x="152" y="-473.5" font-family="Helvetica,sans-Serif" font-size="10.00"> </text>
<polyline fill="none" stroke="#bfbfbf" points="137.5,-466.5 166.5,-466.5 "/>
<text text-anchor="middle" x="152" y="-454.5" font-family="Helvetica,sans-Serif" font-size="10.00"> </text>
</a>
</g>
</g>
<!-- Node7&#45;&gt;Node6 -->
<g id="edge6" class="edge">
<title>Node7&#45;&gt;Node6</title>
<path fill="none" stroke="#404040" d="M152,-447.38C152,-423.6 152,-388.98 152,-362.22"/>
<polygon fill="none" stroke="#404040" points="152,-362.17 148,-356.17 152,-350.17 156,-356.17 152,-362.17"/>
<text text-anchor="middle" x="176.5" y="-415.5" font-family="Helvetica,sans-Serif" font-size="10.00"> +elements</text>
</g>
</g>
</svg>
