<?xml version="1.0" encoding="UTF-8" standalone="no"?>
<!DOCTYPE svg PUBLIC "-//W3C//DTD SVG 1.1//EN"
 "http://www.w3.org/Graphics/SVG/1.1/DTD/svg11.dtd">
<!-- Generated by graphviz version 2.47.1 (20210417.1919)
 -->
<!-- Title: equatorialRadius Pages: 1 -->
<svg width="951pt" height="104pt"
 viewBox="0.00 0.00 951.00 104.00" xmlns="http://www.w3.org/2000/svg" xmlns:xlink="http://www.w3.org/1999/xlink">
<g id="graph0" class="graph" transform="scale(1 1) rotate(0) translate(4 100)">
<title>equatorialRadius</title>
<polygon fill="white" stroke="transparent" points="-4,4 -4,-100 947,-100 947,4 -4,4"/>
<!-- Node1 -->
<g id="node1" class="node">
<title>Node1</title>
<g id="a_node1"><a xlink:title=" ">
<polygon fill="#bfbfbf" stroke="black" points="854,-38.5 854,-57.5 943,-57.5 943,-38.5 854,-38.5"/>
<text text-anchor="middle" x="898.5" y="-45.5" font-family="Helvetica,sans-Serif" font-size="10.00">equatorialRadius</text>
</a>
</g>
</g>
<!-- Node2 -->
<g id="node2" class="node">
<title>Node2</title>
<g id="a_node2"><a xlink:href="classPhysical.html#a0af6386ea46179fb49f33ea168613246" target="_top" xlink:title=" ">
<polygon fill="white" stroke="black" points="752,-38.5 752,-57.5 818,-57.5 818,-38.5 752,-38.5"/>
<text text-anchor="middle" x="785" y="-45.5" font-family="Helvetica,sans-Serif" font-size="10.00">radiusEarth</text>
</a>
</g>
</g>
<!-- Node1&#45;&gt;Node2 -->
<g id="edge1" class="edge">
<title>Node1&#45;&gt;Node2</title>
<path fill="none" stroke="midnightblue" d="M843.64,-48C834.95,-48 826.21,-48 818.24,-48"/>
<polygon fill="midnightblue" stroke="midnightblue" points="843.75,-51.5 853.75,-48 843.75,-44.5 843.75,-51.5"/>
</g>
<!-- Node3 -->
<g id="node3" class="node">
<title>Node3</title>
<g id="a_node3"><a xlink:href="classPhysical.html#afbb6375214fefd00a0489b5373f480b8" target="_top" xlink:title=" ">
<polygon fill="white" stroke="black" points="630,-76.5 630,-95.5 704,-95.5 704,-76.5 630,-76.5"/>
<text text-anchor="middle" x="667" y="-83.5" font-family="Helvetica,sans-Serif" font-size="10.00">azimuthEarth</text>
</a>
</g>
</g>
<!-- Node2&#45;&gt;Node3 -->
<g id="edge2" class="edge">
<title>Node2&#45;&gt;Node3</title>
<path fill="none" stroke="midnightblue" d="M744.85,-60.83C729.28,-65.92 711.69,-71.69 697.26,-76.41"/>
<polygon fill="midnightblue" stroke="midnightblue" points="746.31,-64.03 754.73,-57.59 744.14,-57.38 746.31,-64.03"/>
</g>
<!-- Node4 -->
<g id="node4" class="node">
<title>Node4</title>
<g id="a_node4"><a xlink:href="classPhysical.html#a46933b0960a506f3532ab42d02b84030" target="_top" xlink:title=" ">
<polygon fill="white" stroke="black" points="618,-38.5 618,-57.5 716,-57.5 716,-38.5 618,-38.5"/>
<text text-anchor="middle" x="667" y="-45.5" font-family="Helvetica,sans-Serif" font-size="10.00">geodesic_distance</text>
</a>
</g>
</g>
<!-- Node2&#45;&gt;Node4 -->
<g id="edge3" class="edge">
<title>Node2&#45;&gt;Node4</title>
<path fill="none" stroke="midnightblue" d="M741.84,-48C733.58,-48 724.86,-48 716.42,-48"/>
<polygon fill="midnightblue" stroke="midnightblue" points="742,-51.5 752,-48 742,-44.5 742,-51.5"/>
</g>
<!-- Node11 -->
<g id="node11" class="node">
<title>Node11</title>
<g id="a_node11"><a xlink:href="classPhysical.html#a9ebd20411025eccc634afb460a75df72" target="_top" xlink:title=" ">
<polygon fill="white" stroke="black" points="634,-0.5 634,-19.5 700,-19.5 700,-0.5 634,-0.5"/>
<text text-anchor="middle" x="667" y="-7.5" font-family="Helvetica,sans-Serif" font-size="10.00">radiusEarth</text>
</a>
</g>
</g>
<!-- Node2&#45;&gt;Node11 -->
<g id="edge10" class="edge">
<title>Node2&#45;&gt;Node11</title>
<path fill="none" stroke="midnightblue" d="M744.85,-35.17C729.28,-30.08 711.69,-24.31 697.26,-19.59"/>
<polygon fill="midnightblue" stroke="midnightblue" points="744.14,-38.62 754.73,-38.41 746.31,-31.97 744.14,-38.62"/>
</g>
<!-- Node5 -->
<g id="node5" class="node">
<title>Node5</title>
<g id="a_node5"><a xlink:href="classPhysical.html#a0d5a798f989b297250dec7184c34840a" target="_top" xlink:title=" ">
<polygon fill="white" stroke="black" points="521.5,-57.5 521.5,-76.5 574.5,-76.5 574.5,-57.5 521.5,-57.5"/>
<text text-anchor="middle" x="548" y="-64.5" font-family="Helvetica,sans-Serif" font-size="10.00">distance</text>
</a>
</g>
</g>
<!-- Node4&#45;&gt;Node5 -->
<g id="edge4" class="edge">
<title>Node4&#45;&gt;Node5</title>
<path fill="none" stroke="midnightblue" d="M607.63,-57.48C596.08,-59.35 584.52,-61.23 574.76,-62.82"/>
<polygon fill="midnightblue" stroke="midnightblue" points="608.43,-60.9 617.74,-55.84 607.3,-53.99 608.43,-60.9"/>
</g>
<!-- Node6 -->
<g id="node6" class="node">
<title>Node6</title>
<g id="a_node6"><a xlink:href="classPhysical.html#ac6d713f1908e7e0538db20f88b34f639" target="_top" xlink:title=" ">
<polygon fill="white" stroke="black" points="514,-19.5 514,-38.5 582,-38.5 582,-19.5 514,-19.5"/>
<text text-anchor="middle" x="548" y="-26.5" font-family="Helvetica,sans-Serif" font-size="10.00">sphericalDx</text>
</a>
</g>
</g>
<!-- Node4&#45;&gt;Node6 -->
<g id="edge5" class="edge">
<title>Node4&#45;&gt;Node6</title>
<path fill="none" stroke="midnightblue" d="M607.84,-38.55C599.03,-37.12 590.2,-35.69 582.17,-34.39"/>
<polygon fill="midnightblue" stroke="midnightblue" points="607.3,-42.01 617.74,-40.16 608.43,-35.1 607.3,-42.01"/>
</g>
<!-- Node7 -->
<g id="node7" class="node">
<title>Node7</title>
<g id="a_node7"><a xlink:href="classAtcf.html#a4fce87a97b674a5bbb54f01a8dd5c55e" target="_top" xlink:title=" ">
<polygon fill="white" stroke="black" points="402,-19.5 402,-38.5 478,-38.5 478,-19.5 402,-19.5"/>
<text text-anchor="middle" x="440" y="-26.5" font-family="Helvetica,sans-Serif" font-size="10.00">Atcf::uvTrans</text>
</a>
</g>
</g>
<!-- Node6&#45;&gt;Node7 -->
<g id="edge6" class="edge">
<title>Node6&#45;&gt;Node7</title>
<path fill="none" stroke="midnightblue" d="M503.67,-29C495.22,-29 486.42,-29 478.19,-29"/>
<polygon fill="midnightblue" stroke="midnightblue" points="503.75,-32.5 513.75,-29 503.75,-25.5 503.75,-32.5"/>
</g>
<!-- Node8 -->
<g id="node8" class="node">
<title>Node8</title>
<g id="a_node8"><a xlink:href="classAtcf.html#a4bec7c75f41a2643be3bccf63921dfa1" target="_top" xlink:title=" ">
<polygon fill="white" stroke="black" points="199,-14 199,-44 366,-44 366,-14 199,-14"/>
<text text-anchor="start" x="207" y="-32" font-family="Helvetica,sans-Serif" font-size="10.00">Atcf::calculateOverlandTranslation</text>
<text text-anchor="middle" x="282.5" y="-21" font-family="Helvetica,sans-Serif" font-size="10.00">Velocity</text>
</a>
</g>
</g>
<!-- Node7&#45;&gt;Node8 -->
<g id="edge7" class="edge">
<title>Node7&#45;&gt;Node8</title>
<path fill="none" stroke="midnightblue" d="M391.72,-29C383.54,-29 374.83,-29 366.04,-29"/>
<polygon fill="midnightblue" stroke="midnightblue" points="391.75,-32.5 401.75,-29 391.75,-25.5 391.75,-32.5"/>
</g>
<!-- Node9 -->
<g id="node9" class="node">
<title>Node9</title>
<g id="a_node9"><a xlink:href="classAtcf.html#aaab5dab5b969a87f538242e524431637" target="_top" xlink:title=" ">
<polygon fill="white" stroke="black" points="104,-19.5 104,-38.5 163,-38.5 163,-19.5 104,-19.5"/>
<text text-anchor="middle" x="133.5" y="-26.5" font-family="Helvetica,sans-Serif" font-size="10.00">Atcf::read</text>
</a>
</g>
</g>
<!-- Node8&#45;&gt;Node9 -->
<g id="edge8" class="edge">
<title>Node8&#45;&gt;Node9</title>
<path fill="none" stroke="midnightblue" d="M188.86,-29C179.67,-29 170.91,-29 163.21,-29"/>
<polygon fill="midnightblue" stroke="midnightblue" points="188.98,-32.5 198.98,-29 188.98,-25.5 188.98,-32.5"/>
</g>
<!-- Node10 -->
<g id="node10" class="node">
<title>Node10</title>
<g id="a_node10"><a xlink:href="classGahm.html#aaab5dab5b969a87f538242e524431637" target="_top" xlink:title=" ">
<polygon fill="white" stroke="black" points="0,-19.5 0,-38.5 68,-38.5 68,-19.5 0,-19.5"/>
<text text-anchor="middle" x="34" y="-26.5" font-family="Helvetica,sans-Serif" font-size="10.00">Gahm::read</text>
</a>
</g>
</g>
<!-- Node9&#45;&gt;Node10 -->
<g id="edge9" class="edge">
<title>Node9&#45;&gt;Node10</title>
<path fill="none" stroke="midnightblue" d="M93.5,-29C85.16,-29 76.43,-29 68.32,-29"/>
<polygon fill="midnightblue" stroke="midnightblue" points="93.77,-32.5 103.77,-29 93.77,-25.5 93.77,-32.5"/>
</g>
</g>
</svg>
