<?xml version="1.0" encoding="UTF-8" standalone="no"?>
<!DOCTYPE svg PUBLIC "-//W3C//DTD SVG 1.1//EN"
 "http://www.w3.org/Graphics/SVG/1.1/DTD/svg11.dtd">
<!-- Generated by graphviz version 2.47.1 (20210417.1919)
 -->
<!-- Title: set Pages: 1 -->
<svg width="438pt" height="275pt"
 viewBox="0.00 0.00 438.00 275.00" xmlns="http://www.w3.org/2000/svg" xmlns:xlink="http://www.w3.org/1999/xlink">
<g id="graph0" class="graph" transform="scale(1 1) rotate(0) translate(4 271)">
<title>set</title>
<polygon fill="white" stroke="transparent" points="-4,4 -4,-271 434,-271 434,4 -4,4"/>
<!-- Node1 -->
<g id="node1" class="node">
<title>Node1</title>
<g id="a_node1"><a xlink:title=" ">
<polygon fill="#bfbfbf" stroke="black" points="0,-133.5 0,-152.5 30,-152.5 30,-133.5 0,-133.5"/>
<text text-anchor="middle" x="15" y="-140.5" font-family="Helvetica,sans-Serif" font-size="10.00">set</text>
</a>
</g>
</g>
<!-- Node2 -->
<g id="node2" class="node">
<title>Node2</title>
<g id="a_node2"><a xlink:href="classDate.html#a5a496ea2e6017fd4b43081f4317f96ce" target="_top" xlink:title=" ">
<polygon fill="white" stroke="black" points="82.5,-247.5 82.5,-266.5 114.5,-266.5 114.5,-247.5 82.5,-247.5"/>
<text text-anchor="middle" x="98.5" y="-254.5" font-family="Helvetica,sans-Serif" font-size="10.00">day</text>
</a>
</g>
</g>
<!-- Node1&#45;&gt;Node2 -->
<g id="edge1" class="edge">
<title>Node1&#45;&gt;Node2</title>
<path fill="none" stroke="midnightblue" d="M19.82,-152.74C27,-170.18 43.78,-207.32 66,-233 68.49,-235.87 71.37,-238.62 74.35,-241.17"/>
<polygon fill="midnightblue" stroke="midnightblue" points="72.28,-243.99 82.32,-247.38 76.59,-238.47 72.28,-243.99"/>
</g>
<!-- Node4 -->
<g id="node4" class="node">
<title>Node4</title>
<g id="a_node4"><a xlink:href="classDate.html#a27cd68f63fa079225649f69b74527323" target="_top" xlink:title=" ">
<polygon fill="white" stroke="black" points="212,-209.5 212,-228.5 247,-228.5 247,-209.5 212,-209.5"/>
<text text-anchor="middle" x="229.5" y="-216.5" font-family="Helvetica,sans-Serif" font-size="10.00">hour</text>
</a>
</g>
</g>
<!-- Node1&#45;&gt;Node4 -->
<g id="edge3" class="edge">
<title>Node1&#45;&gt;Node4</title>
<path fill="none" stroke="midnightblue" d="M21.32,-152.62C29.19,-165.8 45.26,-189.11 66,-200 109.34,-222.76 167.98,-223.49 201.67,-221.53"/>
<polygon fill="midnightblue" stroke="midnightblue" points="201.95,-225.02 211.68,-220.83 201.46,-218.04 201.95,-225.02"/>
</g>
<!-- Node6 -->
<g id="node6" class="node">
<title>Node6</title>
<g id="a_node6"><a xlink:href="classDate.html#aa55b19dce110414fe48e4e7d60d8cd79" target="_top" xlink:title=" ">
<polygon fill="white" stroke="black" points="66,-133.5 66,-152.5 131,-152.5 131,-133.5 66,-133.5"/>
<text text-anchor="middle" x="98.5" y="-140.5" font-family="Helvetica,sans-Serif" font-size="10.00">millisecond</text>
</a>
</g>
</g>
<!-- Node1&#45;&gt;Node6 -->
<g id="edge5" class="edge">
<title>Node1&#45;&gt;Node6</title>
<path fill="none" stroke="midnightblue" d="M30.2,-143C37.35,-143 46.45,-143 55.62,-143"/>
<polygon fill="midnightblue" stroke="midnightblue" points="55.9,-146.5 65.9,-143 55.9,-139.5 55.9,-146.5"/>
</g>
<!-- Node14 -->
<g id="node14" class="node">
<title>Node14</title>
<g id="a_node14"><a xlink:href="classDate.html#abf8dbbfc49f4fa14c1caee03c29125f1" target="_top" xlink:title=" ">
<polygon fill="white" stroke="black" points="75.5,-171.5 75.5,-190.5 121.5,-190.5 121.5,-171.5 75.5,-171.5"/>
<text text-anchor="middle" x="98.5" y="-178.5" font-family="Helvetica,sans-Serif" font-size="10.00">minute</text>
</a>
</g>
</g>
<!-- Node1&#45;&gt;Node14 -->
<g id="edge14" class="edge">
<title>Node1&#45;&gt;Node14</title>
<path fill="none" stroke="midnightblue" d="M30.2,-149.62C40.52,-154.43 54.86,-161.12 67.66,-167.09"/>
<polygon fill="midnightblue" stroke="midnightblue" points="66.51,-170.41 77.05,-171.47 69.47,-164.07 66.51,-170.41"/>
</g>
<!-- Node15 -->
<g id="node15" class="node">
<title>Node15</title>
<g id="a_node15"><a xlink:href="classDate.html#a1d85d7b09eedec3fb734532c164f2f27" target="_top" xlink:title=" ">
<polygon fill="white" stroke="black" points="76.5,-57.5 76.5,-76.5 120.5,-76.5 120.5,-57.5 76.5,-57.5"/>
<text text-anchor="middle" x="98.5" y="-64.5" font-family="Helvetica,sans-Serif" font-size="10.00">month</text>
</a>
</g>
</g>
<!-- Node1&#45;&gt;Node15 -->
<g id="edge16" class="edge">
<title>Node1&#45;&gt;Node15</title>
<path fill="none" stroke="midnightblue" d="M24.44,-133.37C34.06,-122.59 50.48,-104.83 66,-91 69.09,-88.25 72.46,-85.46 75.82,-82.82"/>
<polygon fill="midnightblue" stroke="midnightblue" points="78.13,-85.45 83.96,-76.6 73.89,-79.89 78.13,-85.45"/>
</g>
<!-- Node17 -->
<g id="node17" class="node">
<title>Node17</title>
<g id="a_node17"><a xlink:href="classDate.html#a48e9ba1096b933927acac1f97d57f97c" target="_top" xlink:title=" ">
<polygon fill="white" stroke="black" points="205.5,-95.5 205.5,-114.5 253.5,-114.5 253.5,-95.5 205.5,-95.5"/>
<text text-anchor="middle" x="229.5" y="-102.5" font-family="Helvetica,sans-Serif" font-size="10.00">second</text>
</a>
</g>
</g>
<!-- Node1&#45;&gt;Node17 -->
<g id="edge18" class="edge">
<title>Node1&#45;&gt;Node17</title>
<path fill="none" stroke="midnightblue" d="M30.14,-136.55C39.99,-132.33 53.55,-127.04 66,-124 109.94,-113.26 162.1,-108.53 195.25,-106.49"/>
<polygon fill="midnightblue" stroke="midnightblue" points="195.52,-109.98 205.31,-105.91 195.13,-102.99 195.52,-109.98"/>
</g>
<!-- Node18 -->
<g id="node18" class="node">
<title>Node18</title>
<g id="a_node18"><a xlink:href="classDate.html#a1b5cb174b9b809888ca1cadfb32791f4" target="_top" xlink:title=" ">
<polygon fill="white" stroke="black" points="81,-19.5 81,-38.5 116,-38.5 116,-19.5 81,-19.5"/>
<text text-anchor="middle" x="98.5" y="-26.5" font-family="Helvetica,sans-Serif" font-size="10.00">year</text>
</a>
</g>
</g>
<!-- Node1&#45;&gt;Node18 -->
<g id="edge20" class="edge">
<title>Node1&#45;&gt;Node18</title>
<path fill="none" stroke="midnightblue" d="M19.11,-133.33C25.43,-114.87 41.32,-74.17 66,-48 67.84,-46.05 69.93,-44.23 72.12,-42.54"/>
<polygon fill="midnightblue" stroke="midnightblue" points="74.47,-45.19 80.9,-36.76 70.62,-39.34 74.47,-45.19"/>
</g>
<!-- Node3 -->
<g id="node3" class="node">
<title>Node3</title>
<g id="a_node3"><a xlink:href="structs__date.html#a5a496ea2e6017fd4b43081f4317f96ce" target="_top" xlink:title=" ">
<polygon fill="white" stroke="black" points="195.5,-247.5 195.5,-266.5 263.5,-266.5 263.5,-247.5 195.5,-247.5"/>
<text text-anchor="middle" x="229.5" y="-254.5" font-family="Helvetica,sans-Serif" font-size="10.00">s_date::day</text>
</a>
</g>
</g>
<!-- Node2&#45;&gt;Node3 -->
<g id="edge2" class="edge">
<title>Node2&#45;&gt;Node3</title>
<path fill="none" stroke="midnightblue" d="M114.55,-257C131.76,-257 160.72,-257 185.14,-257"/>
<polygon fill="midnightblue" stroke="midnightblue" points="185.27,-260.5 195.27,-257 185.27,-253.5 185.27,-260.5"/>
</g>
<!-- Node5 -->
<g id="node5" class="node">
<title>Node5</title>
<g id="a_node5"><a xlink:href="structs__datetime.html#a110d566ff7f9edf7cbfe15355f8c637c" target="_top" xlink:title=" ">
<polygon fill="white" stroke="black" points="334.5,-228.5 334.5,-247.5 423.5,-247.5 423.5,-228.5 334.5,-228.5"/>
<text text-anchor="middle" x="379" y="-235.5" font-family="Helvetica,sans-Serif" font-size="10.00">s_datetime::hour</text>
</a>
</g>
</g>
<!-- Node4&#45;&gt;Node5 -->
<g id="edge4" class="edge">
<title>Node4&#45;&gt;Node5</title>
<path fill="none" stroke="midnightblue" d="M247.13,-221.14C265.77,-223.54 296.95,-227.56 324.2,-231.07"/>
<polygon fill="midnightblue" stroke="midnightblue" points="324.06,-234.58 334.42,-232.39 324.95,-227.64 324.06,-234.58"/>
</g>
<!-- Node7 -->
<g id="node7" class="node">
<title>Node7</title>
<g id="a_node7"><a xlink:href="structs__datetime.html#a32205231a1a2e9f16cd9866d06c90b22" target="_top" xlink:title=" ">
<polygon fill="white" stroke="black" points="167,-133.5 167,-152.5 292,-152.5 292,-133.5 167,-133.5"/>
<text text-anchor="middle" x="229.5" y="-140.5" font-family="Helvetica,sans-Serif" font-size="10.00">s_datetime::milliseconds</text>
</a>
</g>
</g>
<!-- Node6&#45;&gt;Node7 -->
<g id="edge6" class="edge">
<title>Node6&#45;&gt;Node7</title>
<path fill="none" stroke="midnightblue" d="M131.06,-143C138.92,-143 147.67,-143 156.61,-143"/>
<polygon fill="midnightblue" stroke="midnightblue" points="156.75,-146.5 166.75,-143 156.75,-139.5 156.75,-146.5"/>
</g>
<!-- Node7&#45;&gt;Node5 -->
<g id="edge8" class="edge">
<title>Node7&#45;&gt;Node5</title>
<path fill="none" stroke="midnightblue" d="M240.58,-152.55C257.51,-168.17 293.21,-199.42 328,-219 331.5,-220.97 335.24,-222.81 339.04,-224.52"/>
<polygon fill="midnightblue" stroke="midnightblue" points="337.94,-227.85 348.51,-228.47 340.63,-221.39 337.94,-227.85"/>
</g>
<!-- Node8 -->
<g id="node8" class="node">
<title>Node8</title>
<g id="a_node8"><a xlink:href="structs__datetime.html#a5a496ea2e6017fd4b43081f4317f96ce" target="_top" xlink:title=" ">
<polygon fill="white" stroke="black" points="336,-114.5 336,-133.5 422,-133.5 422,-114.5 336,-114.5"/>
<text text-anchor="middle" x="379" y="-121.5" font-family="Helvetica,sans-Serif" font-size="10.00">s_datetime::day</text>
</a>
</g>
</g>
<!-- Node7&#45;&gt;Node8 -->
<g id="edge7" class="edge">
<title>Node7&#45;&gt;Node8</title>
<path fill="none" stroke="midnightblue" d="M292.2,-135.05C303.33,-133.62 314.83,-132.14 325.66,-130.74"/>
<polygon fill="midnightblue" stroke="midnightblue" points="326.33,-134.18 335.8,-129.44 325.44,-127.24 326.33,-134.18"/>
</g>
<!-- Node9 -->
<g id="node9" class="node">
<title>Node9</title>
<g id="a_node9"><a xlink:href="structs__datetime.html#ae91256ab81b246d3f40eddbd4c016f5f" target="_top" xlink:title=" ">
<polygon fill="white" stroke="black" points="329,-190.5 329,-209.5 429,-209.5 429,-190.5 329,-190.5"/>
<text text-anchor="middle" x="379" y="-197.5" font-family="Helvetica,sans-Serif" font-size="10.00">s_datetime::minute</text>
</a>
</g>
</g>
<!-- Node7&#45;&gt;Node9 -->
<g id="edge9" class="edge">
<title>Node7&#45;&gt;Node9</title>
<path fill="none" stroke="midnightblue" d="M255.09,-152.6C281.59,-162.93 320.92,-178.28 328,-181 332.91,-182.89 338.1,-184.87 343.2,-186.82"/>
<polygon fill="midnightblue" stroke="midnightblue" points="342.21,-190.19 352.8,-190.47 344.7,-183.65 342.21,-190.19"/>
</g>
<!-- Node10 -->
<g id="node10" class="node">
<title>Node10</title>
<g id="a_node10"><a xlink:href="structs__datetime.html#a1d85d7b09eedec3fb734532c164f2f27" target="_top" xlink:title=" ">
<polygon fill="white" stroke="black" points="330,-76.5 330,-95.5 428,-95.5 428,-76.5 330,-76.5"/>
<text text-anchor="middle" x="379" y="-83.5" font-family="Helvetica,sans-Serif" font-size="10.00">s_datetime::month</text>
</a>
</g>
</g>
<!-- Node7&#45;&gt;Node10 -->
<g id="edge10" class="edge">
<title>Node7&#45;&gt;Node10</title>
<path fill="none" stroke="midnightblue" d="M265.38,-133.46C274.18,-130.72 283.53,-127.51 292,-124 308.71,-117.08 311.51,-112.45 328,-105 332.37,-103.02 337.01,-101.07 341.64,-99.22"/>
<polygon fill="midnightblue" stroke="midnightblue" points="342.98,-102.45 351.02,-95.56 340.44,-95.93 342.98,-102.45"/>
</g>
<!-- Node11 -->
<g id="node11" class="node">
<title>Node11</title>
<g id="a_node11"><a xlink:href="structs__datetime.html#aa0cba22e21d8081f564e6a68edab1ae0" target="_top" xlink:title=" ">
<polygon fill="white" stroke="black" points="328,-0.5 328,-19.5 430,-19.5 430,-0.5 328,-0.5"/>
<text text-anchor="middle" x="379" y="-7.5" font-family="Helvetica,sans-Serif" font-size="10.00">s_datetime::second</text>
</a>
</g>
</g>
<!-- Node7&#45;&gt;Node11 -->
<g id="edge11" class="edge">
<title>Node7&#45;&gt;Node11</title>
<path fill="none" stroke="midnightblue" d="M277.66,-133.47C282.91,-131 287.85,-127.9 292,-124 324.91,-93.09 296.09,-60.94 328,-29 329.45,-27.55 331.03,-26.2 332.69,-24.96"/>
<polygon fill="midnightblue" stroke="midnightblue" points="334.88,-27.73 341.62,-19.55 331.26,-21.74 334.88,-27.73"/>
</g>
<!-- Node12 -->
<g id="node12" class="node">
<title>Node12</title>
<g id="a_node12"><a xlink:href="classDate.html#aa1dec3e6a706a77691a3c49a0fe82e3d" target="_top" xlink:title=" ">
<polygon fill="white" stroke="black" points="348,-38.5 348,-57.5 410,-57.5 410,-38.5 348,-38.5"/>
<text text-anchor="middle" x="379" y="-45.5" font-family="Helvetica,sans-Serif" font-size="10.00">time_point</text>
</a>
</g>
</g>
<!-- Node7&#45;&gt;Node12 -->
<g id="edge12" class="edge">
<title>Node7&#45;&gt;Node12</title>
<path fill="none" stroke="midnightblue" d="M275.04,-133.43C281.09,-130.96 286.94,-127.87 292,-124 315.79,-105.78 304.8,-85.96 328,-67 331.15,-64.43 334.68,-62.18 338.37,-60.22"/>
<polygon fill="midnightblue" stroke="midnightblue" points="340.12,-63.27 347.75,-55.93 337.2,-56.91 340.12,-63.27"/>
</g>
<!-- Node13 -->
<g id="node13" class="node">
<title>Node13</title>
<g id="a_node13"><a xlink:href="structs__datetime.html#a1b5cb174b9b809888ca1cadfb32791f4" target="_top" xlink:title=" ">
<polygon fill="white" stroke="black" points="334.5,-152.5 334.5,-171.5 423.5,-171.5 423.5,-152.5 334.5,-152.5"/>
<text text-anchor="middle" x="379" y="-159.5" font-family="Helvetica,sans-Serif" font-size="10.00">s_datetime::year</text>
</a>
</g>
</g>
<!-- Node7&#45;&gt;Node13 -->
<g id="edge13" class="edge">
<title>Node7&#45;&gt;Node13</title>
<path fill="none" stroke="midnightblue" d="M292.2,-150.95C302.86,-152.32 313.86,-153.74 324.28,-155.08"/>
<polygon fill="midnightblue" stroke="midnightblue" points="324.12,-158.59 334.48,-156.39 325.01,-151.65 324.12,-158.59"/>
</g>
<!-- Node14&#45;&gt;Node9 -->
<g id="edge15" class="edge">
<title>Node14&#45;&gt;Node9</title>
<path fill="none" stroke="midnightblue" d="M121.82,-182.52C164.04,-185.4 256.86,-191.74 318.41,-195.93"/>
<polygon fill="midnightblue" stroke="midnightblue" points="318.54,-199.45 328.76,-196.64 319.02,-192.47 318.54,-199.45"/>
</g>
<!-- Node16 -->
<g id="node16" class="node">
<title>Node16</title>
<g id="a_node16"><a xlink:href="structs__date.html#a1d85d7b09eedec3fb734532c164f2f27" target="_top" xlink:title=" ">
<polygon fill="white" stroke="black" points="190,-57.5 190,-76.5 269,-76.5 269,-57.5 190,-57.5"/>
<text text-anchor="middle" x="229.5" y="-64.5" font-family="Helvetica,sans-Serif" font-size="10.00">s_date::month</text>
</a>
</g>
</g>
<!-- Node15&#45;&gt;Node16 -->
<g id="edge17" class="edge">
<title>Node15&#45;&gt;Node16</title>
<path fill="none" stroke="midnightblue" d="M120.51,-67C136.51,-67 159.2,-67 179.65,-67"/>
<polygon fill="midnightblue" stroke="midnightblue" points="179.78,-70.5 189.78,-67 179.78,-63.5 179.78,-70.5"/>
</g>
<!-- Node17&#45;&gt;Node11 -->
<g id="edge19" class="edge">
<title>Node17&#45;&gt;Node11</title>
<path fill="none" stroke="midnightblue" d="M253.62,-101.84C265.99,-99.22 280.91,-94.49 292,-86 315.79,-67.78 304.8,-47.96 328,-29 330.04,-27.33 332.25,-25.79 334.56,-24.39"/>
<polygon fill="midnightblue" stroke="midnightblue" points="336.58,-27.28 343.84,-19.57 333.35,-21.07 336.58,-27.28"/>
</g>
<!-- Node19 -->
<g id="node19" class="node">
<title>Node19</title>
<g id="a_node19"><a xlink:href="structs__date.html#a1b5cb174b9b809888ca1cadfb32791f4" target="_top" xlink:title=" ">
<polygon fill="white" stroke="black" points="194,-19.5 194,-38.5 265,-38.5 265,-19.5 194,-19.5"/>
<text text-anchor="middle" x="229.5" y="-26.5" font-family="Helvetica,sans-Serif" font-size="10.00">s_date::year</text>
</a>
</g>
</g>
<!-- Node18&#45;&gt;Node19 -->
<g id="edge21" class="edge">
<title>Node18&#45;&gt;Node19</title>
<path fill="none" stroke="midnightblue" d="M116.1,-29C133.11,-29 160.31,-29 183.69,-29"/>
<polygon fill="midnightblue" stroke="midnightblue" points="183.77,-32.5 193.77,-29 183.77,-25.5 183.77,-32.5"/>
</g>
</g>
</svg>
