<?xml version="1.0" encoding="UTF-8" standalone="no"?>
<!DOCTYPE svg PUBLIC "-//W3C//DTD SVG 1.1//EN"
 "http://www.w3.org/Graphics/SVG/1.1/DTD/svg11.dtd">
<!-- Generated by graphviz version 2.47.1 (20210417.1919)
 -->
<!-- Title: record Pages: 1 -->
<svg width="538pt" height="205pt"
 viewBox="0.00 0.00 538.00 204.92" xmlns="http://www.w3.org/2000/svg" xmlns:xlink="http://www.w3.org/1999/xlink">
<g id="graph0" class="graph" transform="scale(1 1) rotate(0) translate(4 200.92)">
<title>record</title>
<polygon fill="white" stroke="transparent" points="-4,4 -4,-200.92 534,-200.92 534,4 -4,4"/>
<!-- Node1 -->
<g id="node1" class="node">
<title>Node1</title>
<g id="a_node1"><a xlink:title=" ">
<polygon fill="#bfbfbf" stroke="black" points="486,-104 486,-123 530,-123 530,-104 486,-104"/>
<text text-anchor="middle" x="508" y="-111" font-family="Helvetica,sans-Serif" font-size="10.00">record</text>
</a>
</g>
</g>
<!-- Node2 -->
<g id="node2" class="node">
<title>Node2</title>
<g id="a_node2"><a xlink:href="classAtcf.html#a4392a7255cda22dc330a996257216c31" target="_top" xlink:title=" ">
<polygon fill="white" stroke="black" points="175,-104 175,-123 253,-123 253,-104 175,-104"/>
<text text-anchor="middle" x="214" y="-111" font-family="Helvetica,sans-Serif" font-size="10.00">calculateRadii</text>
</a>
</g>
</g>
<!-- Node1&#45;&gt;Node2 -->
<g id="edge1" class="edge">
<title>Node1&#45;&gt;Node2</title>
<path fill="none" stroke="midnightblue" d="M496.64,-131.63C486.82,-146.8 470.54,-167.38 450,-176.5 384.6,-205.53 356.15,-201.21 289,-176.5 259.87,-165.78 234.38,-137.92 222.35,-123.1"/>
<polygon fill="midnightblue" stroke="midnightblue" points="499.67,-133.39 501.9,-123.03 493.69,-129.74 499.67,-133.39"/>
</g>
<!-- Node5 -->
<g id="node5" class="node">
<title>Node5</title>
<g id="a_node5"><a xlink:href="classAtcf.html#a4b3387ddd1546cf6bad5444c70ec5cc5" target="_top" xlink:title=" ">
<polygon fill="white" stroke="black" points="319,-148 319,-167 420,-167 420,-148 319,-148"/>
<text text-anchor="middle" x="369.5" y="-155" font-family="Helvetica,sans-Serif" font-size="10.00">setAllRadiiToRmax</text>
</a>
</g>
</g>
<!-- Node1&#45;&gt;Node5 -->
<g id="edge4" class="edge">
<title>Node1&#45;&gt;Node5</title>
<path fill="none" stroke="midnightblue" d="M478.34,-127.26C469.39,-131.23 459.4,-135.34 450,-138.5 439.37,-142.07 427.73,-145.24 416.72,-147.93"/>
<polygon fill="midnightblue" stroke="midnightblue" points="479.91,-130.39 487.56,-123.06 477.01,-124.02 479.91,-130.39"/>
</g>
<!-- Node6 -->
<g id="node6" class="node">
<title>Node6</title>
<g id="a_node6"><a xlink:href="classAtcf.html#a71fa11a421dc675f7b8190758fa0b2e6" target="_top" xlink:title=" ">
<polygon fill="white" stroke="black" points="303,-98.5 303,-128.5 436,-128.5 436,-98.5 303,-98.5"/>
<text text-anchor="start" x="311" y="-116.5" font-family="Helvetica,sans-Serif" font-size="10.00">setMissingRadiiToAverage</text>
<text text-anchor="middle" x="369.5" y="-105.5" font-family="Helvetica,sans-Serif" font-size="10.00">OfAdjacentRadii</text>
</a>
</g>
</g>
<!-- Node1&#45;&gt;Node6 -->
<g id="edge6" class="edge">
<title>Node1&#45;&gt;Node6</title>
<path fill="none" stroke="midnightblue" d="M475.78,-113.5C463.96,-113.5 450.02,-113.5 436.21,-113.5"/>
<polygon fill="midnightblue" stroke="midnightblue" points="475.97,-117 485.97,-113.5 475.97,-110 475.97,-117"/>
</g>
<!-- Node7 -->
<g id="node7" class="node">
<title>Node7</title>
<g id="a_node7"><a xlink:href="classAtcf.html#a21717052904854109237917697bd4e73" target="_top" xlink:title=" ">
<polygon fill="white" stroke="black" points="293.5,-49.5 293.5,-79.5 445.5,-79.5 445.5,-49.5 293.5,-49.5"/>
<text text-anchor="start" x="301.5" y="-67.5" font-family="Helvetica,sans-Serif" font-size="10.00">setMissingRadiiToHalfNonzero</text>
<text text-anchor="middle" x="369.5" y="-56.5" font-family="Helvetica,sans-Serif" font-size="10.00">Radii</text>
</a>
</g>
</g>
<!-- Node1&#45;&gt;Node7 -->
<g id="edge8" class="edge">
<title>Node1&#45;&gt;Node7</title>
<path fill="none" stroke="midnightblue" d="M476.58,-100.07C468.05,-96.47 458.72,-92.7 450,-89.5 440.63,-86.06 430.53,-82.66 420.78,-79.53"/>
<polygon fill="midnightblue" stroke="midnightblue" points="475.23,-103.3 485.81,-104.02 477.99,-96.87 475.23,-103.3"/>
</g>
<!-- Node8 -->
<g id="node8" class="node">
<title>Node8</title>
<g id="a_node8"><a xlink:href="classAtcf.html#abfd44c7ce56d9e93b1f3edfb67918ef5" target="_top" xlink:title=" ">
<polygon fill="white" stroke="black" points="289,-0.5 289,-30.5 450,-30.5 450,-0.5 289,-0.5"/>
<text text-anchor="start" x="297" y="-18.5" font-family="Helvetica,sans-Serif" font-size="10.00">setMissingRadiiToHalfOfAverage</text>
<text text-anchor="middle" x="369.5" y="-7.5" font-family="Helvetica,sans-Serif" font-size="10.00">SpecifiedRadii</text>
</a>
</g>
</g>
<!-- Node1&#45;&gt;Node8 -->
<g id="edge10" class="edge">
<title>Node1&#45;&gt;Node8</title>
<path fill="none" stroke="midnightblue" d="M497.04,-95.16C487.16,-78.62 470.55,-54.75 450,-40.5 444.41,-36.63 438.2,-33.33 431.77,-30.53"/>
<polygon fill="midnightblue" stroke="midnightblue" points="494.05,-96.99 502.06,-103.93 500.13,-93.52 494.05,-96.99"/>
</g>
<!-- Node3 -->
<g id="node3" class="node">
<title>Node3</title>
<g id="a_node3"><a xlink:href="classAtcf.html#aaab5dab5b969a87f538242e524431637" target="_top" xlink:title=" ">
<polygon fill="white" stroke="black" points="104,-104 104,-123 139,-123 139,-104 104,-104"/>
<text text-anchor="middle" x="121.5" y="-111" font-family="Helvetica,sans-Serif" font-size="10.00">read</text>
</a>
</g>
</g>
<!-- Node2&#45;&gt;Node3 -->
<g id="edge2" class="edge">
<title>Node2&#45;&gt;Node3</title>
<path fill="none" stroke="midnightblue" d="M164.65,-113.5C155.59,-113.5 146.68,-113.5 139.42,-113.5"/>
<polygon fill="midnightblue" stroke="midnightblue" points="164.88,-117 174.88,-113.5 164.88,-110 164.88,-117"/>
</g>
<!-- Node4 -->
<g id="node4" class="node">
<title>Node4</title>
<g id="a_node4"><a xlink:href="classGahm.html#aaab5dab5b969a87f538242e524431637" target="_top" xlink:title=" ">
<polygon fill="white" stroke="black" points="0,-104 0,-123 68,-123 68,-104 0,-104"/>
<text text-anchor="middle" x="34" y="-111" font-family="Helvetica,sans-Serif" font-size="10.00">Gahm::read</text>
</a>
</g>
</g>
<!-- Node3&#45;&gt;Node4 -->
<g id="edge3" class="edge">
<title>Node3&#45;&gt;Node4</title>
<path fill="none" stroke="midnightblue" d="M93.34,-113.5C85.33,-113.5 76.47,-113.5 68.13,-113.5"/>
<polygon fill="midnightblue" stroke="midnightblue" points="93.61,-117 103.61,-113.5 93.61,-110 93.61,-117"/>
</g>
<!-- Node5&#45;&gt;Node2 -->
<g id="edge5" class="edge">
<title>Node5&#45;&gt;Node2</title>
<path fill="none" stroke="midnightblue" d="M315.5,-145.55C306.62,-143.34 297.52,-140.95 289,-138.5 273.1,-133.92 255.55,-128.03 241.53,-123.12"/>
<polygon fill="midnightblue" stroke="midnightblue" points="314.86,-148.99 325.4,-147.96 316.52,-142.19 314.86,-148.99"/>
</g>
<!-- Node6&#45;&gt;Node2 -->
<g id="edge7" class="edge">
<title>Node6&#45;&gt;Node2</title>
<path fill="none" stroke="midnightblue" d="M292.56,-113.5C278.93,-113.5 265.26,-113.5 253.28,-113.5"/>
<polygon fill="midnightblue" stroke="midnightblue" points="292.96,-117 302.96,-113.5 292.96,-110 292.96,-117"/>
</g>
<!-- Node7&#45;&gt;Node2 -->
<g id="edge9" class="edge">
<title>Node7&#45;&gt;Node2</title>
<path fill="none" stroke="midnightblue" d="M310.68,-82.62C303.38,-84.92 296.01,-87.26 289,-89.5 274.2,-94.23 257.77,-99.55 244.15,-103.98"/>
<polygon fill="midnightblue" stroke="midnightblue" points="312.07,-85.85 320.55,-79.5 309.96,-79.17 312.07,-85.85"/>
</g>
<!-- Node8&#45;&gt;Node2 -->
<g id="edge11" class="edge">
<title>Node8&#45;&gt;Node2</title>
<path fill="none" stroke="midnightblue" d="M300.18,-34.57C296.31,-36.39 292.56,-38.36 289,-40.5 260.24,-57.8 234.21,-88.5 222.12,-103.99"/>
<polygon fill="midnightblue" stroke="midnightblue" points="301.58,-37.78 309.37,-30.6 298.8,-31.35 301.58,-37.78"/>
</g>
</g>
</svg>
