<?xml version="1.0" encoding="UTF-8" standalone="no"?>
<!DOCTYPE svg PUBLIC "-//W3C//DTD SVG 1.1//EN"
 "http://www.w3.org/Graphics/SVG/1.1/DTD/svg11.dtd">
<!-- Generated by graphviz version 2.47.1 (20210417.1919)
 -->
<!-- Title: generateMissingPressureData Pages: 1 -->
<!--zoomable 225 -->
<svg id="main" version="1.1" xmlns="http://www.w3.org/2000/svg" xmlns:xlink="http://www.w3.org/1999/xlink" xml:space="preserve" onload="init(evt)">
<style type="text/css"><![CDATA[
.edge:hover path { stroke: red; }
.edge:hover polygon { stroke: red; fill: red; }
]]></style>
<script type="text/javascript"><![CDATA[
var edges = document.getElementsByTagName('g');
if (edges && edges.length) {
  for (var i=0;i<edges.length;i++) {
    if (edges[i].id.substr(0,4)=='edge') {
      edges[i].setAttribute('class','edge');
    }
  }
}
]]></script>
        <defs>
                <circle id="rim" cx="0" cy="0" r="7"/>
                <circle id="rim2" cx="0" cy="0" r="3.5"/>
                <g id="zoomPlus">
                        <use xlink:href="#rim" fill="#404040">
                                <set attributeName="fill" to="#808080" begin="zoomplus.mouseover" end="zoomplus.mouseout"/>
                        </use>
                        <path d="M-4,0h8M0,-4v8" fill="none" stroke="white" stroke-width="1.5" pointer-events="none"/>
                </g>
                <g id="zoomMin">
                        <use xlink:href="#rim" fill="#404040">
                                <set attributeName="fill" to="#808080" begin="zoomminus.mouseover" end="zoomminus.mouseout"/>
                        </use>
                        <path d="M-4,0h8" fill="none" stroke="white" stroke-width="1.5" pointer-events="none"/>
                </g>
                <g id="dirArrow">
                        <path fill="none" stroke="white" stroke-width="1.5" d="M0,-3.0v7 M-2.5,-0.5L0,-3.0L2.5,-0.5"/>
                </g>
               <g id="resetDef">
                       <use xlink:href="#rim2" fill="#404040">
                               <set attributeName="fill" to="#808080" begin="reset.mouseover" end="reset.mouseout"/>
                       </use>
               </g>
        </defs>

<script type="text/javascript">
var viewWidth = 654;
var viewHeight = 225;
var sectionId = 'dynsection-8';
</script>
<script xlink:href="svgpan.js"/>
<svg id="graph" class="graph">
<g id="viewport">
<title>generateMissingPressureData</title>
<polygon fill="white" stroke="transparent" points="-4,4 -4,-220.5 650,-220.5 650,4 -4,4"/>
<!-- Node1 -->
<g id="node1" class="node">
<title>Node1</title>
<g id="a_node1"><a xlink:title=" ">
<polygon fill="#bfbfbf" stroke="black" points="0,-104 0,-123 148,-123 148,-104 0,-104"/>
<text text-anchor="middle" x="74" y="-111" font-family="Helvetica,sans-Serif" font-size="10.00">generateMissingPressureData</text>
</a>
</g>
</g>
<!-- Node2 -->
<g id="node2" class="node">
<title>Node2</title>
<g id="a_node2"><a xlink:href="classAssumptions.html#a20319f7261289f879d667fe91034d503" target="_top" xlink:title=" ">
<polygon fill="white" stroke="black" points="214,-197 214,-216 309,-216 309,-197 214,-197"/>
<text text-anchor="middle" x="261.5" y="-204" font-family="Helvetica,sans-Serif" font-size="10.00">Assumptions::add</text>
</a>
</g>
</g>
<!-- Node1&#45;&gt;Node2 -->
<g id="edge1" class="edge">
<title>Node1&#45;&gt;Node2</title>
<path fill="none" stroke="midnightblue" d="M86.28,-123.18C105.22,-138.95 145.15,-170.16 184,-187.5 190.3,-190.31 197.08,-192.75 203.91,-194.86"/>
<polygon fill="midnightblue" stroke="midnightblue" points="203.33,-198.33 213.91,-197.71 205.25,-191.6 203.33,-198.33"/>
</g>
<!-- Node3 -->
<g id="node3" class="node">
<title>Node3</title>
<g id="a_node3"><a xlink:href="classHurricanePressure.html#a6e093920e46b7c9326e027f7c17082e2" target="_top" xlink:title=" ">
<polygon fill="white" stroke="black" points="184,-147.5 184,-177.5 339,-177.5 339,-147.5 184,-147.5"/>
<text text-anchor="start" x="192" y="-165.5" font-family="Helvetica,sans-Serif" font-size="10.00">HurricanePressure::</text>
<text text-anchor="middle" x="261.5" y="-154.5" font-family="Helvetica,sans-Serif" font-size="10.00">computeInitialPressureEstimate</text>
</a>
</g>
</g>
<!-- Node1&#45;&gt;Node3 -->
<g id="edge2" class="edge">
<title>Node1&#45;&gt;Node3</title>
<path fill="none" stroke="midnightblue" d="M111.21,-123.06C134.69,-129.27 166,-137.54 193.88,-144.9"/>
<polygon fill="midnightblue" stroke="midnightblue" points="193.01,-148.29 203.57,-147.46 194.8,-141.53 193.01,-148.29"/>
</g>
<!-- Node6 -->
<g id="node6" class="node">
<title>Node6</title>
<g id="a_node6"><a xlink:href="classHurricanePressure.html#ab7f4b85c45ecbd2fdc5b5757f3eb37e6" target="_top" xlink:title=" ">
<polygon fill="white" stroke="black" points="209.5,-98.5 209.5,-128.5 313.5,-128.5 313.5,-98.5 209.5,-98.5"/>
<text text-anchor="start" x="217.5" y="-116.5" font-family="Helvetica,sans-Serif" font-size="10.00">HurricanePressure::</text>
<text text-anchor="middle" x="261.5" y="-105.5" font-family="Helvetica,sans-Serif" font-size="10.00">computePressure</text>
</a>
</g>
</g>
<!-- Node1&#45;&gt;Node6 -->
<g id="edge5" class="edge">
<title>Node1&#45;&gt;Node6</title>
<path fill="none" stroke="midnightblue" d="M148.05,-113.5C164.85,-113.5 182.55,-113.5 198.82,-113.5"/>
<polygon fill="midnightblue" stroke="midnightblue" points="199.27,-117 209.27,-113.5 199.27,-110 199.27,-117"/>
</g>
<!-- Node7 -->
<g id="node7" class="node">
<title>Node7</title>
<g id="a_node7"><a xlink:href="classHurricanePressure.html#aede796baf8d694cdeeef3d2dc2693244" target="_top" xlink:title=" ">
<polygon fill="white" stroke="black" points="209.5,-49.5 209.5,-79.5 313.5,-79.5 313.5,-49.5 209.5,-49.5"/>
<text text-anchor="start" x="217.5" y="-67.5" font-family="Helvetica,sans-Serif" font-size="10.00">HurricanePressure::</text>
<text text-anchor="middle" x="261.5" y="-56.5" font-family="Helvetica,sans-Serif" font-size="10.00">pressureMethod</text>
</a>
</g>
</g>
<!-- Node1&#45;&gt;Node7 -->
<g id="edge6" class="edge">
<title>Node1&#45;&gt;Node7</title>
<path fill="none" stroke="midnightblue" d="M111.21,-103.94C136.31,-97.3 170.35,-88.31 199.59,-80.59"/>
<polygon fill="midnightblue" stroke="midnightblue" points="200.52,-83.96 209.3,-78.03 198.73,-77.2 200.52,-83.96"/>
</g>
<!-- Node8 -->
<g id="node8" class="node">
<title>Node8</title>
<g id="a_node8"><a xlink:href="classHurricanePressure.html#a87f90b0890179ce21401f05f0a5c7ec0" target="_top" xlink:title=" ">
<polygon fill="white" stroke="black" points="205.5,-0.5 205.5,-30.5 317.5,-30.5 317.5,-0.5 205.5,-0.5"/>
<text text-anchor="start" x="213.5" y="-18.5" font-family="Helvetica,sans-Serif" font-size="10.00">HurricanePressure::</text>
<text text-anchor="middle" x="261.5" y="-7.5" font-family="Helvetica,sans-Serif" font-size="10.00">pressureMethodString</text>
</a>
</g>
</g>
<!-- Node1&#45;&gt;Node8 -->
<g id="edge7" class="edge">
<title>Node1&#45;&gt;Node8</title>
<path fill="none" stroke="midnightblue" d="M87.07,-103.78C106.5,-88.53 146.32,-58.84 184,-40.5 188.59,-38.26 193.44,-36.16 198.36,-34.19"/>
<polygon fill="midnightblue" stroke="midnightblue" points="199.78,-37.39 207.89,-30.57 197.3,-30.85 199.78,-37.39"/>
</g>
<!-- Node4 -->
<g id="node4" class="node">
<title>Node4</title>
<g id="a_node4"><a xlink:href="classHurricanePressure.html#acb482ff2d606abe160f6a0bb36db82fa" target="_top" xlink:title=" ">
<polygon fill="white" stroke="black" points="375,-147.5 375,-177.5 479,-177.5 479,-147.5 375,-147.5"/>
<text text-anchor="start" x="383" y="-165.5" font-family="Helvetica,sans-Serif" font-size="10.00">HurricanePressure::</text>
<text text-anchor="middle" x="427" y="-154.5" font-family="Helvetica,sans-Serif" font-size="10.00">dvorak</text>
</a>
</g>
</g>
<!-- Node3&#45;&gt;Node4 -->
<g id="edge3" class="edge">
<title>Node3&#45;&gt;Node4</title>
<path fill="none" stroke="midnightblue" d="M339.46,-162.5C347.85,-162.5 356.3,-162.5 364.47,-162.5"/>
<polygon fill="midnightblue" stroke="midnightblue" points="364.63,-166 374.63,-162.5 364.63,-159 364.63,-166"/>
</g>
<!-- Node5 -->
<g id="node5" class="node">
<title>Node5</title>
<g id="a_node5"><a xlink:href="classHurricanePressure.html#aa362d792f8129556a6ade346136f4a3d" target="_top" xlink:title=" ">
<polygon fill="white" stroke="black" points="515,-147.5 515,-177.5 646,-177.5 646,-147.5 515,-147.5"/>
<text text-anchor="start" x="523" y="-165.5" font-family="Helvetica,sans-Serif" font-size="10.00">HurricanePressure::</text>
<text text-anchor="middle" x="580.5" y="-154.5" font-family="Helvetica,sans-Serif" font-size="10.00">computePressureCurveFit</text>
</a>
</g>
</g>
<!-- Node4&#45;&gt;Node5 -->
<g id="edge4" class="edge">
<title>Node4&#45;&gt;Node5</title>
<path fill="none" stroke="midnightblue" d="M479.29,-162.5C487.5,-162.5 496.13,-162.5 504.75,-162.5"/>
<polygon fill="midnightblue" stroke="midnightblue" points="504.83,-166 514.83,-162.5 504.83,-159 504.83,-166"/>
</g>
</g>
</svg>
        <g id="navigator" transform="translate(0 0)" fill="#404254">
                <rect fill="#f2f5e9" fill-opacity="0.5" stroke="#606060" stroke-width=".5" x="0" y="0" width="60" height="60"/>
                <use id="zoomplus" xlink:href="#zoomPlus" x="17" y="9" onmousedown="handleZoom(evt,'in')"/>
                <use id="zoomminus" xlink:href="#zoomMin" x="42" y="9" onmousedown="handleZoom(evt,'out')"/>
                <use id="reset" xlink:href="#resetDef" x="30" y="36" onmousedown="handleReset()"/>
                <g id="arrowUp" xlink:href="#dirArrow" transform="translate(30 24)" onmousedown="handlePan(0,-1)">
                  <use xlink:href="#rim" fill="#404040">
                        <set attributeName="fill" to="#808080" begin="arrowUp.mouseover" end="arrowUp.mouseout"/>
                  </use>
                  <path fill="none" stroke="white" stroke-width="1.5" d="M0,-3.0v7 M-2.5,-0.5L0,-3.0L2.5,-0.5"/>
                </g>
                <g id="arrowRight" xlink:href="#dirArrow" transform="rotate(90) translate(36 -43)" onmousedown="handlePan(1,0)">
                  <use xlink:href="#rim" fill="#404040">
                        <set attributeName="fill" to="#808080" begin="arrowRight.mouseover" end="arrowRight.mouseout"/>
                  </use>
                  <path fill="none" stroke="white" stroke-width="1.5" d="M0,-3.0v7 M-2.5,-0.5L0,-3.0L2.5,-0.5"/>
                </g>
                <g id="arrowDown" xlink:href="#dirArrow" transform="rotate(180) translate(-30 -48)" onmousedown="handlePan(0,1)">
                  <use xlink:href="#rim" fill="#404040">
                        <set attributeName="fill" to="#808080" begin="arrowDown.mouseover" end="arrowDown.mouseout"/>
                  </use>
                  <path fill="none" stroke="white" stroke-width="1.5" d="M0,-3.0v7 M-2.5,-0.5L0,-3.0L2.5,-0.5"/>
                </g>
                <g id="arrowLeft" xlink:href="#dirArrow" transform="rotate(270) translate(-36 17)" onmousedown="handlePan(-1,0)">
                  <use xlink:href="#rim" fill="#404040">
                        <set attributeName="fill" to="#808080" begin="arrowLeft.mouseover" end="arrowLeft.mouseout"/>
                  </use>
                  <path fill="none" stroke="white" stroke-width="1.5" d="M0,-3.0v7 M-2.5,-0.5L0,-3.0L2.5,-0.5"/>
                </g>
        </g>
        <svg viewBox="0 0 15 15" width="100%" height="30px" preserveAspectRatio="xMaxYMin meet">
         <g id="arrow_out" transform="scale(0.3 0.3)">
          <a xlink:href="classAtcf_a2c8fb312c911c7d35cc921e303cac875_cgraph_org.svg" target="_base">
           <rect id="button" ry="5" rx="5" y="6" x="6" height="38" width="38"
                fill="#f2f5e9" fill-opacity="0.5" stroke="#606060" stroke-width="1.0"/>
           <path id="arrow"
             d="M 11.500037,31.436501 C 11.940474,20.09759 22.043105,11.32322 32.158766,21.979434 L 37.068811,17.246167 C 37.068811,17.246167 37.088388,32 37.088388,32 L 22.160133,31.978069 C 22.160133,31.978069 26.997745,27.140456 26.997745,27.140456 C 18.528582,18.264221 13.291696,25.230495 11.500037,31.436501 z"
             style="fill:#404040;"/>
          </a>
         </g>
        </svg>
</svg>
