<?xml version="1.0" encoding="UTF-8" standalone="no"?>
<!DOCTYPE svg PUBLIC "-//W3C//DTD SVG 1.1//EN"
 "http://www.w3.org/Graphics/SVG/1.1/DTD/svg11.dtd">
<!-- Generated by graphviz version 2.47.1 (20210417.1919)
 -->
<!-- Title: kt2ms Pages: 1 -->
<svg width="350pt" height="78pt"
 viewBox="0.00 0.00 350.00 77.50" xmlns="http://www.w3.org/2000/svg" xmlns:xlink="http://www.w3.org/1999/xlink">
<g id="graph0" class="graph" transform="scale(1 1) rotate(0) translate(4 73.5)">
<title>kt2ms</title>
<polygon fill="white" stroke="transparent" points="-4,4 -4,-73.5 346,-73.5 346,4 -4,4"/>
<!-- Node1 -->
<g id="node1" class="node">
<title>Node1</title>
<g id="a_node1"><a xlink:title=" ">
<polygon fill="#bfbfbf" stroke="black" points="298,-22.5 298,-41.5 342,-41.5 342,-22.5 298,-22.5"/>
<text text-anchor="middle" x="320" y="-29.5" font-family="Helvetica,sans-Serif" font-size="10.00">kt2ms</text>
</a>
</g>
</g>
<!-- Node2 -->
<g id="node2" class="node">
<title>Node2</title>
<g id="a_node2"><a xlink:href="classAtcf.html#a4bec7c75f41a2643be3bccf63921dfa1" target="_top" xlink:title=" ">
<polygon fill="white" stroke="black" points="95,-39 95,-69 262,-69 262,-39 95,-39"/>
<text text-anchor="start" x="103" y="-57" font-family="Helvetica,sans-Serif" font-size="10.00">Atcf::calculateOverlandTranslation</text>
<text text-anchor="middle" x="178.5" y="-46" font-family="Helvetica,sans-Serif" font-size="10.00">Velocity</text>
</a>
</g>
</g>
<!-- Node1&#45;&gt;Node2 -->
<g id="edge1" class="edge">
<title>Node1&#45;&gt;Node2</title>
<path fill="none" stroke="midnightblue" d="M287.82,-36.92C280.03,-38.15 271.29,-39.52 262.26,-40.95"/>
<polygon fill="midnightblue" stroke="midnightblue" points="288.48,-40.36 297.81,-35.34 287.39,-33.44 288.48,-40.36"/>
</g>
<!-- Node4 -->
<g id="node4" class="node">
<title>Node4</title>
<g id="a_node4"><a xlink:href="classAtcfLine.html#a669437f8facd47f46097adc21d0d497b" target="_top" xlink:title=" ">
<polygon fill="white" stroke="black" points="119,-0.5 119,-19.5 238,-19.5 238,-0.5 119,-0.5"/>
<text text-anchor="middle" x="178.5" y="-7.5" font-family="Helvetica,sans-Serif" font-size="10.00">AtcfLine::parseAtcfLine</text>
</a>
</g>
</g>
<!-- Node1&#45;&gt;Node4 -->
<g id="edge3" class="edge">
<title>Node1&#45;&gt;Node4</title>
<path fill="none" stroke="midnightblue" d="M287.77,-27.08C273.09,-24.76 255.1,-21.92 238.03,-19.23"/>
<polygon fill="midnightblue" stroke="midnightblue" points="287.39,-30.56 297.81,-28.66 288.48,-23.64 287.39,-30.56"/>
</g>
<!-- Node3 -->
<g id="node3" class="node">
<title>Node3</title>
<g id="a_node3"><a xlink:href="classAtcf.html#aaab5dab5b969a87f538242e524431637" target="_top" xlink:title=" ">
<polygon fill="white" stroke="black" points="0,-22.5 0,-41.5 59,-41.5 59,-22.5 0,-22.5"/>
<text text-anchor="middle" x="29.5" y="-29.5" font-family="Helvetica,sans-Serif" font-size="10.00">Atcf::read</text>
</a>
</g>
</g>
<!-- Node2&#45;&gt;Node3 -->
<g id="edge2" class="edge">
<title>Node2&#45;&gt;Node3</title>
<path fill="none" stroke="midnightblue" d="M84.86,-40.14C75.67,-38.76 66.91,-37.45 59.21,-36.3"/>
<polygon fill="midnightblue" stroke="midnightblue" points="84.57,-43.63 94.98,-41.65 85.6,-36.71 84.57,-43.63"/>
</g>
<!-- Node4&#45;&gt;Node3 -->
<g id="edge4" class="edge">
<title>Node4&#45;&gt;Node3</title>
<path fill="none" stroke="midnightblue" d="M108.79,-20.28C91.36,-22.89 73.57,-25.55 59.37,-27.68"/>
<polygon fill="midnightblue" stroke="midnightblue" points="109.61,-23.7 118.98,-18.76 108.57,-16.78 109.61,-23.7"/>
</g>
</g>
</svg>
