<?xml version="1.0" encoding="UTF-8" standalone="no"?>
<!DOCTYPE svg PUBLIC "-//W3C//DTD SVG 1.1//EN"
 "http://www.w3.org/Graphics/SVG/1.1/DTD/svg11.dtd">
<!-- Generated by graphviz version 2.47.1 (20210417.1919)
 -->
<!-- Title: tau Pages: 1 -->
<svg width="432pt" height="47pt"
 viewBox="0.00 0.00 432.00 47.00" xmlns="http://www.w3.org/2000/svg" xmlns:xlink="http://www.w3.org/1999/xlink">
<g id="graph0" class="graph" transform="scale(1 1) rotate(0) translate(4 43)">
<title>tau</title>
<polygon fill="white" stroke="transparent" points="-4,4 -4,-43 428,-43 428,4 -4,4"/>
<!-- Node1 -->
<g id="node1" class="node">
<title>Node1</title>
<g id="a_node1"><a xlink:title=" ">
<polygon fill="#bfbfbf" stroke="black" points="394,-19.5 394,-38.5 424,-38.5 424,-19.5 394,-19.5"/>
<text text-anchor="middle" x="409" y="-26.5" font-family="Helvetica,sans-Serif" font-size="10.00">tau</text>
</a>
</g>
</g>
<!-- Node2 -->
<g id="node2" class="node">
<title>Node2</title>
<g id="a_node2"><a xlink:href="classAtcfLine.html#a669437f8facd47f46097adc21d0d497b" target="_top" xlink:title="Static function to parse an atcf line text using boost. Places data into an Atcfline object and retur...">
<polygon fill="white" stroke="black" points="199,-19.5 199,-38.5 276,-38.5 276,-19.5 199,-19.5"/>
<text text-anchor="middle" x="237.5" y="-26.5" font-family="Helvetica,sans-Serif" font-size="10.00">parseAtcfLine</text>
</a>
</g>
</g>
<!-- Node1&#45;&gt;Node2 -->
<g id="edge1" class="edge">
<title>Node1&#45;&gt;Node2</title>
<path fill="none" stroke="midnightblue" d="M383.7,-29C355.61,-29 309.03,-29 276.21,-29"/>
<polygon fill="midnightblue" stroke="midnightblue" points="383.84,-32.5 393.84,-29 383.84,-25.5 383.84,-32.5"/>
</g>
<!-- Node5 -->
<g id="node5" class="node">
<title>Node5</title>
<g id="a_node5"><a xlink:href="classAtcfLine.html#ad57a2b2bb9a17190f60c202bcc91f7c1" target="_top" xlink:title=" ">
<polygon fill="white" stroke="black" points="312,-0.5 312,-19.5 358,-19.5 358,-0.5 312,-0.5"/>
<text text-anchor="middle" x="335" y="-7.5" font-family="Helvetica,sans-Serif" font-size="10.00">setTau</text>
</a>
</g>
</g>
<!-- Node1&#45;&gt;Node5 -->
<g id="edge4" class="edge">
<title>Node1&#45;&gt;Node5</title>
<path fill="none" stroke="midnightblue" d="M383.9,-22.64C375.57,-20.44 366.29,-17.99 358.13,-15.84"/>
<polygon fill="midnightblue" stroke="midnightblue" points="383.21,-26.08 393.78,-25.25 385,-19.31 383.21,-26.08"/>
</g>
<!-- Node3 -->
<g id="node3" class="node">
<title>Node3</title>
<g id="a_node3"><a xlink:href="classAtcf.html#aaab5dab5b969a87f538242e524431637" target="_top" xlink:title=" ">
<polygon fill="white" stroke="black" points="104,-19.5 104,-38.5 163,-38.5 163,-19.5 104,-19.5"/>
<text text-anchor="middle" x="133.5" y="-26.5" font-family="Helvetica,sans-Serif" font-size="10.00">Atcf::read</text>
</a>
</g>
</g>
<!-- Node2&#45;&gt;Node3 -->
<g id="edge2" class="edge">
<title>Node2&#45;&gt;Node3</title>
<path fill="none" stroke="midnightblue" d="M188.67,-29C179.93,-29 171.06,-29 163.11,-29"/>
<polygon fill="midnightblue" stroke="midnightblue" points="188.81,-32.5 198.81,-29 188.81,-25.5 188.81,-32.5"/>
</g>
<!-- Node4 -->
<g id="node4" class="node">
<title>Node4</title>
<g id="a_node4"><a xlink:href="classGahm.html#aaab5dab5b969a87f538242e524431637" target="_top" xlink:title=" ">
<polygon fill="white" stroke="black" points="0,-19.5 0,-38.5 68,-38.5 68,-19.5 0,-19.5"/>
<text text-anchor="middle" x="34" y="-26.5" font-family="Helvetica,sans-Serif" font-size="10.00">Gahm::read</text>
</a>
</g>
</g>
<!-- Node3&#45;&gt;Node4 -->
<g id="edge3" class="edge">
<title>Node3&#45;&gt;Node4</title>
<path fill="none" stroke="midnightblue" d="M93.5,-29C85.16,-29 76.43,-29 68.32,-29"/>
<polygon fill="midnightblue" stroke="midnightblue" points="93.77,-32.5 103.77,-29 93.77,-25.5 93.77,-32.5"/>
</g>
<!-- Node5&#45;&gt;Node2 -->
<g id="edge5" class="edge">
<title>Node5&#45;&gt;Node2</title>
<path fill="none" stroke="midnightblue" d="M301.88,-16.39C293.65,-18.03 284.73,-19.8 276.24,-21.49"/>
<polygon fill="midnightblue" stroke="midnightblue" points="302.73,-19.79 311.85,-14.41 301.36,-12.93 302.73,-19.79"/>
</g>
</g>
</svg>
