<?xml version="1.0" encoding="UTF-8" standalone="no"?>
<!DOCTYPE svg PUBLIC "-//W3C//DTD SVG 1.1//EN"
 "http://www.w3.org/Graphics/SVG/1.1/DTD/svg11.dtd">
<!-- Generated by graphviz version 2.47.1 (20210417.1919)
 -->
<!-- Title: ms2kt Pages: 1 -->
<svg width="430pt" height="78pt"
 viewBox="0.00 0.00 430.00 77.50" xmlns="http://www.w3.org/2000/svg" xmlns:xlink="http://www.w3.org/1999/xlink">
<g id="graph0" class="graph" transform="scale(1 1) rotate(0) translate(4 73.5)">
<title>ms2kt</title>
<polygon fill="white" stroke="transparent" points="-4,4 -4,-73.5 426,-73.5 426,4 -4,4"/>
<!-- Node1 -->
<g id="node1" class="node">
<title>Node1</title>
<g id="a_node1"><a xlink:title=" ">
<polygon fill="#bfbfbf" stroke="black" points="378,-25.5 378,-44.5 422,-44.5 422,-25.5 378,-25.5"/>
<text text-anchor="middle" x="400" y="-32.5" font-family="Helvetica,sans-Serif" font-size="10.00">ms2kt</text>
</a>
</g>
</g>
<!-- Node2 -->
<g id="node2" class="node">
<title>Node2</title>
<g id="a_node2"><a xlink:href="classAtcf.html#a4bec7c75f41a2643be3bccf63921dfa1" target="_top" xlink:title=" ">
<polygon fill="white" stroke="black" points="95,-39 95,-69 262,-69 262,-39 95,-39"/>
<text text-anchor="start" x="103" y="-57" font-family="Helvetica,sans-Serif" font-size="10.00">Atcf::calculateOverlandTranslation</text>
<text text-anchor="middle" x="178.5" y="-46" font-family="Helvetica,sans-Serif" font-size="10.00">Velocity</text>
</a>
</g>
</g>
<!-- Node1&#45;&gt;Node2 -->
<g id="edge1" class="edge">
<title>Node1&#45;&gt;Node2</title>
<path fill="none" stroke="midnightblue" d="M367.78,-37.7C340.31,-40.08 299.05,-43.65 262.15,-46.85"/>
<polygon fill="midnightblue" stroke="midnightblue" points="368.29,-41.17 377.95,-36.82 367.69,-34.2 368.29,-41.17"/>
</g>
<!-- Node4 -->
<g id="node4" class="node">
<title>Node4</title>
<g id="a_node4"><a xlink:href="classPhysical.html#a446b34a690f7a1f10433e477ad0ac973" target="_top" xlink:title=" ">
<polygon fill="white" stroke="black" points="298,-6.5 298,-25.5 342,-25.5 342,-6.5 298,-6.5"/>
<text text-anchor="middle" x="320" y="-13.5" font-family="Helvetica,sans-Serif" font-size="10.00">kt2ms</text>
</a>
</g>
</g>
<!-- Node1&#45;&gt;Node4 -->
<g id="edge3" class="edge">
<title>Node1&#45;&gt;Node4</title>
<path fill="none" stroke="midnightblue" d="M367.86,-27.41C359.18,-25.3 349.96,-23.05 342.02,-21.12"/>
<polygon fill="midnightblue" stroke="midnightblue" points="367.14,-30.84 377.69,-29.81 368.8,-24.04 367.14,-30.84"/>
</g>
<!-- Node3 -->
<g id="node3" class="node">
<title>Node3</title>
<g id="a_node3"><a xlink:href="classAtcf.html#aaab5dab5b969a87f538242e524431637" target="_top" xlink:title=" ">
<polygon fill="white" stroke="black" points="0,-22.5 0,-41.5 59,-41.5 59,-22.5 0,-22.5"/>
<text text-anchor="middle" x="29.5" y="-29.5" font-family="Helvetica,sans-Serif" font-size="10.00">Atcf::read</text>
</a>
</g>
</g>
<!-- Node2&#45;&gt;Node3 -->
<g id="edge2" class="edge">
<title>Node2&#45;&gt;Node3</title>
<path fill="none" stroke="midnightblue" d="M84.86,-40.14C75.67,-38.76 66.91,-37.45 59.21,-36.3"/>
<polygon fill="midnightblue" stroke="midnightblue" points="84.57,-43.63 94.98,-41.65 85.6,-36.71 84.57,-43.63"/>
</g>
<!-- Node4&#45;&gt;Node2 -->
<g id="edge4" class="edge">
<title>Node4&#45;&gt;Node2</title>
<path fill="none" stroke="midnightblue" d="M288.11,-24.41C272.41,-28.69 252.86,-34.02 234.69,-38.97"/>
<polygon fill="midnightblue" stroke="midnightblue" points="289.08,-27.78 297.81,-21.77 287.24,-21.02 289.08,-27.78"/>
</g>
<!-- Node5 -->
<g id="node5" class="node">
<title>Node5</title>
<g id="a_node5"><a xlink:href="classAtcfLine.html#a669437f8facd47f46097adc21d0d497b" target="_top" xlink:title=" ">
<polygon fill="white" stroke="black" points="119,-0.5 119,-19.5 238,-19.5 238,-0.5 119,-0.5"/>
<text text-anchor="middle" x="178.5" y="-7.5" font-family="Helvetica,sans-Serif" font-size="10.00">AtcfLine::parseAtcfLine</text>
</a>
</g>
</g>
<!-- Node4&#45;&gt;Node5 -->
<g id="edge5" class="edge">
<title>Node4&#45;&gt;Node5</title>
<path fill="none" stroke="midnightblue" d="M287.77,-14.66C273.09,-14.03 255.1,-13.25 238.03,-12.52"/>
<polygon fill="midnightblue" stroke="midnightblue" points="287.67,-18.16 297.81,-15.09 287.97,-11.16 287.67,-18.16"/>
</g>
<!-- Node5&#45;&gt;Node3 -->
<g id="edge6" class="edge">
<title>Node5&#45;&gt;Node3</title>
<path fill="none" stroke="midnightblue" d="M108.79,-20.28C91.36,-22.89 73.57,-25.55 59.37,-27.68"/>
<polygon fill="midnightblue" stroke="midnightblue" points="109.61,-23.7 118.98,-18.76 108.57,-16.78 109.61,-23.7"/>
</g>
</g>
</svg>
