<?xml version="1.0" encoding="UTF-8" standalone="no"?>
<!DOCTYPE svg PUBLIC "-//W3C//DTD SVG 1.1//EN"
 "http://www.w3.org/Graphics/SVG/1.1/DTD/svg11.dtd">
<!-- Generated by graphviz version 2.47.1 (20210417.1919)
 -->
<!-- Title: getVh Pages: 1 -->
<svg width="468pt" height="332pt"
 viewBox="0.00 0.00 468.00 332.00" xmlns="http://www.w3.org/2000/svg" xmlns:xlink="http://www.w3.org/1999/xlink">
<g id="graph0" class="graph" transform="scale(1 1) rotate(0) translate(4 328)">
<title>getVh</title>
<polygon fill="white" stroke="transparent" points="-4,4 -4,-328 464,-328 464,4 -4,4"/>
<!-- Node1 -->
<g id="node1" class="node">
<title>Node1</title>
<g id="a_node1"><a xlink:title=" ">
<polygon fill="#bfbfbf" stroke="black" points="0,-171.5 0,-190.5 42,-190.5 42,-171.5 0,-171.5"/>
<text text-anchor="middle" x="21" y="-178.5" font-family="Helvetica,sans-Serif" font-size="10.00">getVh</text>
</a>
</g>
</g>
<!-- Node2 -->
<g id="node2" class="node">
<title>Node2</title>
<g id="a_node2"><a xlink:href="classVortex.html#a36b321e4164c600950ffe1cc7021146f" target="_top" xlink:title=" ">
<polygon fill="white" stroke="black" points="78,-133.5 78,-152.5 159,-152.5 159,-133.5 78,-133.5"/>
<text text-anchor="middle" x="118.5" y="-140.5" font-family="Helvetica,sans-Serif" font-size="10.00">vgWithCoriFull</text>
</a>
</g>
</g>
<!-- Node1&#45;&gt;Node2 -->
<g id="edge1" class="edge">
<title>Node1&#45;&gt;Node2</title>
<path fill="none" stroke="midnightblue" d="M42.25,-172.94C54.44,-168.09 70.26,-161.8 84.24,-156.23"/>
<polygon fill="midnightblue" stroke="midnightblue" points="85.57,-159.47 93.56,-152.52 82.98,-152.97 85.57,-159.47"/>
</g>
<!-- Node11 -->
<g id="node11" class="node">
<title>Node11</title>
<g id="a_node11"><a xlink:href="classVortex.html#ae476777bb80581d4af28e4c2ce3a0b99" target="_top" xlink:title=" ">
<polygon fill="white" stroke="black" points="89.5,-190.5 89.5,-209.5 147.5,-209.5 147.5,-190.5 89.5,-190.5"/>
<text text-anchor="middle" x="118.5" y="-197.5" font-family="Helvetica,sans-Serif" font-size="10.00">vhNoCori</text>
</a>
</g>
</g>
<!-- Node1&#45;&gt;Node11 -->
<g id="edge10" class="edge">
<title>Node1&#45;&gt;Node11</title>
<path fill="none" stroke="midnightblue" d="M42.25,-185.03C53.05,-187.18 66.7,-189.89 79.4,-192.42"/>
<polygon fill="midnightblue" stroke="midnightblue" points="78.82,-195.87 89.31,-194.39 80.18,-189.01 78.82,-195.87"/>
</g>
<!-- Node3 -->
<g id="node3" class="node">
<title>Node3</title>
<g id="a_node3"><a xlink:href="classCircularArray.html#a0642b8def16b83c1fff8f93326d2c842" target="_top" xlink:title=" ">
<polygon fill="white" stroke="black" points="216.5,-190.5 216.5,-209.5 304.5,-209.5 304.5,-190.5 216.5,-190.5"/>
<text text-anchor="middle" x="260.5" y="-197.5" font-family="Helvetica,sans-Serif" font-size="10.00">CircularArray::at</text>
</a>
</g>
</g>
<!-- Node2&#45;&gt;Node3 -->
<g id="edge2" class="edge">
<title>Node2&#45;&gt;Node3</title>
<path fill="none" stroke="midnightblue" d="M136.49,-152.66C151.53,-160.94 174.26,-172.8 195,-181 200.84,-183.31 207.08,-185.49 213.28,-187.49"/>
<polygon fill="midnightblue" stroke="midnightblue" points="212.36,-190.87 222.95,-190.48 214.43,-184.18 212.36,-190.87"/>
</g>
<!-- Node5 -->
<g id="node5" class="node">
<title>Node5</title>
<g id="a_node5"><a xlink:href="classIsotach.html#a6d338c7499d8278c978770bd67c1a736" target="_top" xlink:title=" ">
<polygon fill="white" stroke="black" points="211.5,-152.5 211.5,-171.5 309.5,-171.5 309.5,-152.5 211.5,-152.5"/>
<text text-anchor="middle" x="260.5" y="-159.5" font-family="Helvetica,sans-Serif" font-size="10.00">Isotach::chollandB</text>
</a>
</g>
</g>
<!-- Node2&#45;&gt;Node5 -->
<g id="edge4" class="edge">
<title>Node2&#45;&gt;Node5</title>
<path fill="none" stroke="midnightblue" d="M159.24,-148.39C172.32,-150.17 187.14,-152.18 201.29,-154.1"/>
<polygon fill="midnightblue" stroke="midnightblue" points="201.07,-157.6 211.45,-155.48 202.01,-150.67 201.07,-157.6"/>
</g>
<!-- Node6 -->
<g id="node6" class="node">
<title>Node6</title>
<g id="a_node6"><a xlink:href="classAtcfLine.html#af02cbe832e0a7a708e691fff2b48ebc4" target="_top" xlink:title=" ">
<polygon fill="white" stroke="black" points="213,-114.5 213,-133.5 308,-133.5 308,-114.5 213,-114.5"/>
<text text-anchor="middle" x="260.5" y="-121.5" font-family="Helvetica,sans-Serif" font-size="10.00">AtcfLine::cisotach</text>
</a>
</g>
</g>
<!-- Node2&#45;&gt;Node6 -->
<g id="edge5" class="edge">
<title>Node2&#45;&gt;Node6</title>
<path fill="none" stroke="midnightblue" d="M159.24,-137.61C172.84,-135.76 188.32,-133.66 202.98,-131.67"/>
<polygon fill="midnightblue" stroke="midnightblue" points="203.53,-135.13 212.97,-130.31 202.59,-128.19 203.53,-135.13"/>
</g>
<!-- Node7 -->
<g id="node7" class="node">
<title>Node7</title>
<g id="a_node7"><a xlink:href="classAtcfLine.html#a6a0221bd70847e13f9b7ea9c339438e7" target="_top" xlink:title=" ">
<polygon fill="white" stroke="black" points="216,-76.5 216,-95.5 305,-95.5 305,-76.5 216,-76.5"/>
<text text-anchor="middle" x="260.5" y="-83.5" font-family="Helvetica,sans-Serif" font-size="10.00">AtcfLine::coriolis</text>
</a>
</g>
</g>
<!-- Node2&#45;&gt;Node7 -->
<g id="edge6" class="edge">
<title>Node2&#45;&gt;Node7</title>
<path fill="none" stroke="midnightblue" d="M136.49,-133.34C151.53,-125.06 174.26,-113.2 195,-105 200.84,-102.69 207.08,-100.51 213.28,-98.51"/>
<polygon fill="midnightblue" stroke="midnightblue" points="214.43,-101.82 222.95,-95.52 212.36,-95.13 214.43,-101.82"/>
</g>
<!-- Node8 -->
<g id="node8" class="node">
<title>Node8</title>
<g id="a_node8"><a xlink:href="classIsotach.html#ae59095832d860bee9658a1d41dddd19b" target="_top" xlink:title=" ">
<polygon fill="white" stroke="black" points="224,-38.5 224,-57.5 297,-57.5 297,-38.5 224,-38.5"/>
<text text-anchor="middle" x="260.5" y="-45.5" font-family="Helvetica,sans-Serif" font-size="10.00">Isotach::cphi</text>
</a>
</g>
</g>
<!-- Node2&#45;&gt;Node8 -->
<g id="edge7" class="edge">
<title>Node2&#45;&gt;Node8</title>
<path fill="none" stroke="midnightblue" d="M126.49,-133.29C138.61,-117.15 165.13,-84.81 195,-67 200.86,-63.51 207.41,-60.62 214.02,-58.24"/>
<polygon fill="midnightblue" stroke="midnightblue" points="215.25,-61.52 223.69,-55.11 213.1,-54.86 215.25,-61.52"/>
</g>
<!-- Node9 -->
<g id="node9" class="node">
<title>Node9</title>
<g id="a_node9"><a xlink:href="classIsotach.html#ae34699ed432e270b9857a4968684a14e" target="_top" xlink:title=" ">
<polygon fill="white" stroke="black" points="214,-228.5 214,-247.5 307,-247.5 307,-228.5 214,-228.5"/>
<text text-anchor="middle" x="260.5" y="-235.5" font-family="Helvetica,sans-Serif" font-size="10.00">Isotach::cvmaxBl</text>
</a>
</g>
</g>
<!-- Node2&#45;&gt;Node9 -->
<g id="edge8" class="edge">
<title>Node2&#45;&gt;Node9</title>
<path fill="none" stroke="midnightblue" d="M129.69,-152.56C137.74,-160.17 149.21,-171.14 159,-181 175.39,-197.51 175.16,-206.85 195,-219 198.43,-221.1 202.1,-222.98 205.9,-224.66"/>
<polygon fill="midnightblue" stroke="midnightblue" points="204.9,-228.03 215.49,-228.43 207.47,-221.52 204.9,-228.03"/>
</g>
<!-- Node10 -->
<g id="node10" class="node">
<title>Node10</title>
<g id="a_node10"><a xlink:href="classAtcfLine.html#ad2910e96b46c135de328985b5afac3cb" target="_top" xlink:title=" ">
<polygon fill="white" stroke="black" points="195,-0.5 195,-19.5 326,-19.5 326,-0.5 195,-0.5"/>
<text text-anchor="middle" x="260.5" y="-7.5" font-family="Helvetica,sans-Serif" font-size="10.00">AtcfLine::radiusMaxWinds</text>
</a>
</g>
</g>
<!-- Node2&#45;&gt;Node10 -->
<g id="edge9" class="edge">
<title>Node2&#45;&gt;Node10</title>
<path fill="none" stroke="midnightblue" d="M123.14,-133.4C131.96,-111.46 156.62,-57.35 195,-29 197.63,-27.06 200.45,-25.31 203.4,-23.75"/>
<polygon fill="midnightblue" stroke="midnightblue" points="204.91,-26.91 212.54,-19.56 201.99,-20.54 204.91,-26.91"/>
</g>
<!-- Node4 -->
<g id="node4" class="node">
<title>Node4</title>
<g id="a_node4"><a xlink:href="classCircularArray.html#ae9ee07d89dc4196acefc5b290b9275b8" target="_top" xlink:title=" ">
<polygon fill="white" stroke="black" points="362,-185 362,-215 460,-215 460,-185 362,-185"/>
<text text-anchor="start" x="370" y="-203" font-family="Helvetica,sans-Serif" font-size="10.00">CircularArray::mod</text>
<text text-anchor="middle" x="411" y="-192" font-family="Helvetica,sans-Serif" font-size="10.00">_floor</text>
</a>
</g>
</g>
<!-- Node3&#45;&gt;Node4 -->
<g id="edge3" class="edge">
<title>Node3&#45;&gt;Node4</title>
<path fill="none" stroke="midnightblue" d="M304.85,-200C319.53,-200 336.17,-200 351.81,-200"/>
<polygon fill="midnightblue" stroke="midnightblue" points="351.91,-203.5 361.91,-200 351.91,-196.5 351.91,-203.5"/>
</g>
<!-- Node11&#45;&gt;Node3 -->
<g id="edge11" class="edge">
<title>Node11&#45;&gt;Node3</title>
<path fill="none" stroke="midnightblue" d="M147.83,-200C164.57,-200 186.3,-200 206.14,-200"/>
<polygon fill="midnightblue" stroke="midnightblue" points="206.31,-203.5 216.31,-200 206.31,-196.5 206.31,-203.5"/>
</g>
<!-- Node11&#45;&gt;Node5 -->
<g id="edge12" class="edge">
<title>Node11&#45;&gt;Node5</title>
<path fill="none" stroke="midnightblue" d="M147.83,-192.31C166.95,-187.12 192.6,-180.16 214.49,-174.22"/>
<polygon fill="midnightblue" stroke="midnightblue" points="215.52,-177.56 224.25,-171.57 213.68,-170.81 215.52,-177.56"/>
</g>
<!-- Node11&#45;&gt;Node6 -->
<g id="edge13" class="edge">
<title>Node11&#45;&gt;Node6</title>
<path fill="none" stroke="midnightblue" d="M129.92,-190.16C143.77,-177.57 169.48,-155.85 195,-143 199.51,-140.73 204.34,-138.68 209.25,-136.85"/>
<polygon fill="midnightblue" stroke="midnightblue" points="210.41,-140.15 218.73,-133.59 208.13,-133.53 210.41,-140.15"/>
</g>
<!-- Node11&#45;&gt;Node9 -->
<g id="edge15" class="edge">
<title>Node11&#45;&gt;Node9</title>
<path fill="none" stroke="midnightblue" d="M147.83,-207.69C166.95,-212.88 192.6,-219.84 214.49,-225.78"/>
<polygon fill="midnightblue" stroke="midnightblue" points="213.68,-229.19 224.25,-228.43 215.52,-222.44 213.68,-229.19"/>
</g>
<!-- Node12 -->
<g id="node12" class="node">
<title>Node12</title>
<g id="a_node12"><a xlink:href="classIsotach.html#af93a6e1bb9f15faae4793d8205637e40" target="_top" xlink:title=" ">
<polygon fill="white" stroke="black" points="199.5,-266.5 199.5,-285.5 321.5,-285.5 321.5,-266.5 199.5,-266.5"/>
<text text-anchor="middle" x="260.5" y="-273.5" font-family="Helvetica,sans-Serif" font-size="10.00">Isotach::cisotachRadius</text>
</a>
</g>
</g>
<!-- Node11&#45;&gt;Node12 -->
<g id="edge14" class="edge">
<title>Node11&#45;&gt;Node12</title>
<path fill="none" stroke="midnightblue" d="M129.92,-209.84C143.77,-222.43 169.48,-244.15 195,-257 199.51,-259.27 204.34,-261.32 209.25,-263.15"/>
<polygon fill="midnightblue" stroke="midnightblue" points="208.13,-266.47 218.73,-266.41 210.41,-259.85 208.13,-266.47"/>
</g>
<!-- Node13 -->
<g id="node13" class="node">
<title>Node13</title>
<g id="a_node13"><a xlink:href="classAtcfLine.html#a0ab834110d8e43facd39af7df53c8c22" target="_top" xlink:title=" ">
<polygon fill="white" stroke="black" points="219,-304.5 219,-323.5 302,-323.5 302,-304.5 219,-304.5"/>
<text text-anchor="middle" x="260.5" y="-311.5" font-family="Helvetica,sans-Serif" font-size="10.00">AtcfLine::vmax</text>
</a>
</g>
</g>
<!-- Node11&#45;&gt;Node13 -->
<g id="edge16" class="edge">
<title>Node11&#45;&gt;Node13</title>
<path fill="none" stroke="midnightblue" d="M124.51,-209.7C134.96,-228.94 160.93,-272.05 195,-295 199.37,-297.94 204.19,-300.44 209.19,-302.55"/>
<polygon fill="midnightblue" stroke="midnightblue" points="208.32,-305.96 218.92,-306.16 210.76,-299.4 208.32,-305.96"/>
</g>
</g>
</svg>
