<?xml version="1.0" encoding="UTF-8" standalone="no"?>
<!DOCTYPE svg PUBLIC "-//W3C//DTD SVG 1.1//EN"
 "http://www.w3.org/Graphics/SVG/1.1/DTD/svg11.dtd">
<!-- Generated by graphviz version 2.47.1 (20210417.1919)
 -->
<!-- Title: azimuthEarth Pages: 1 -->
<svg width="374pt" height="142pt"
 viewBox="0.00 0.00 374.00 142.00" xmlns="http://www.w3.org/2000/svg" xmlns:xlink="http://www.w3.org/1999/xlink">
<g id="graph0" class="graph" transform="scale(1 1) rotate(0) translate(4 138)">
<title>azimuthEarth</title>
<polygon fill="white" stroke="transparent" points="-4,4 -4,-138 370,-138 370,4 -4,4"/>
<!-- Node1 -->
<g id="node1" class="node">
<title>Node1</title>
<g id="a_node1"><a xlink:title=" ">
<polygon fill="#bfbfbf" stroke="black" points="0,-76.5 0,-95.5 74,-95.5 74,-76.5 0,-76.5"/>
<text text-anchor="middle" x="37" y="-83.5" font-family="Helvetica,sans-Serif" font-size="10.00">azimuthEarth</text>
</a>
</g>
</g>
<!-- Node2 -->
<g id="node2" class="node">
<title>Node2</title>
<g id="a_node2"><a xlink:href="classPhysical.html#ae43063ac7bf556cb933a0206301b9748" target="_top" xlink:title=" ">
<polygon fill="white" stroke="black" points="231,-76.5 231,-95.5 282,-95.5 282,-76.5 231,-76.5"/>
<text text-anchor="middle" x="256.5" y="-83.5" font-family="Helvetica,sans-Serif" font-size="10.00">deg2rad</text>
</a>
</g>
</g>
<!-- Node1&#45;&gt;Node2 -->
<g id="edge1" class="edge">
<title>Node1&#45;&gt;Node2</title>
<path fill="none" stroke="midnightblue" d="M74.4,-86C115.15,-86 180.68,-86 220.74,-86"/>
<polygon fill="midnightblue" stroke="midnightblue" points="220.83,-89.5 230.83,-86 220.83,-82.5 220.83,-89.5"/>
</g>
<!-- Node4 -->
<g id="node4" class="node">
<title>Node4</title>
<g id="a_node4"><a xlink:href="classPhysical.html#aa8f2ca4ad36dc6b5f53e25e9e746d008" target="_top" xlink:title=" ">
<polygon fill="white" stroke="black" points="117.5,-114.5 117.5,-133.5 168.5,-133.5 168.5,-114.5 117.5,-114.5"/>
<text text-anchor="middle" x="143" y="-121.5" font-family="Helvetica,sans-Serif" font-size="10.00">rad2deg</text>
</a>
</g>
</g>
<!-- Node1&#45;&gt;Node4 -->
<g id="edge3" class="edge">
<title>Node1&#45;&gt;Node4</title>
<path fill="none" stroke="midnightblue" d="M64.24,-95.59C77.44,-100.41 93.61,-106.32 107.77,-111.49"/>
<polygon fill="midnightblue" stroke="midnightblue" points="106.6,-114.79 117.2,-114.94 109.01,-108.22 106.6,-114.79"/>
</g>
<!-- Node5 -->
<g id="node5" class="node">
<title>Node5</title>
<g id="a_node5"><a xlink:href="classPhysical.html#a0af6386ea46179fb49f33ea168613246" target="_top" xlink:title=" ">
<polygon fill="white" stroke="black" points="110,-38.5 110,-57.5 176,-57.5 176,-38.5 110,-38.5"/>
<text text-anchor="middle" x="143" y="-45.5" font-family="Helvetica,sans-Serif" font-size="10.00">radiusEarth</text>
</a>
</g>
</g>
<!-- Node1&#45;&gt;Node5 -->
<g id="edge5" class="edge">
<title>Node1&#45;&gt;Node5</title>
<path fill="none" stroke="midnightblue" d="M64.24,-76.41C76.93,-71.78 92.35,-66.14 106.11,-61.11"/>
<polygon fill="midnightblue" stroke="midnightblue" points="107.57,-64.31 115.76,-57.59 105.17,-57.73 107.57,-64.31"/>
</g>
<!-- Node3 -->
<g id="node3" class="node">
<title>Node3</title>
<g id="a_node3"><a xlink:href="classPhysical.html#a8916e00cc71692658a0a355b2f142274" target="_top" xlink:title=" ">
<polygon fill="white" stroke="black" points="337,-95.5 337,-114.5 366,-114.5 366,-95.5 337,-95.5"/>
<text text-anchor="middle" x="351.5" y="-102.5" font-family="Helvetica,sans-Serif" font-size="10.00">pi</text>
</a>
</g>
</g>
<!-- Node2&#45;&gt;Node3 -->
<g id="edge2" class="edge">
<title>Node2&#45;&gt;Node3</title>
<path fill="none" stroke="midnightblue" d="M282.42,-91.09C296.18,-93.9 313.17,-97.37 326.74,-100.15"/>
<polygon fill="midnightblue" stroke="midnightblue" points="326.26,-103.62 336.76,-102.19 327.66,-96.76 326.26,-103.62"/>
</g>
<!-- Node4&#45;&gt;Node3 -->
<g id="edge4" class="edge">
<title>Node4&#45;&gt;Node3</title>
<path fill="none" stroke="midnightblue" d="M168.91,-121.71C209.11,-118.01 287.75,-110.77 327.02,-107.16"/>
<polygon fill="midnightblue" stroke="midnightblue" points="327.35,-110.64 336.99,-106.24 326.71,-103.67 327.35,-110.64"/>
</g>
<!-- Node5&#45;&gt;Node2 -->
<g id="edge6" class="edge">
<title>Node5&#45;&gt;Node2</title>
<path fill="none" stroke="midnightblue" d="M172.14,-57.59C186.95,-62.64 205.25,-68.88 220.93,-74.22"/>
<polygon fill="midnightblue" stroke="midnightblue" points="220.19,-77.67 230.79,-77.58 222.45,-71.04 220.19,-77.67"/>
</g>
<!-- Node6 -->
<g id="node6" class="node">
<title>Node6</title>
<g id="a_node6"><a xlink:href="classPhysical.html#af1acc32bfbde7fb61a53d9e5d33c4699" target="_top" xlink:title=" ">
<polygon fill="white" stroke="black" points="212,-38.5 212,-57.5 301,-57.5 301,-38.5 212,-38.5"/>
<text text-anchor="middle" x="256.5" y="-45.5" font-family="Helvetica,sans-Serif" font-size="10.00">equatorialRadius</text>
</a>
</g>
</g>
<!-- Node5&#45;&gt;Node6 -->
<g id="edge7" class="edge">
<title>Node5&#45;&gt;Node6</title>
<path fill="none" stroke="midnightblue" d="M176.25,-48C184.2,-48 192.93,-48 201.61,-48"/>
<polygon fill="midnightblue" stroke="midnightblue" points="201.71,-51.5 211.71,-48 201.71,-44.5 201.71,-51.5"/>
</g>
<!-- Node7 -->
<g id="node7" class="node">
<title>Node7</title>
<g id="a_node7"><a xlink:href="classPhysical.html#a1b684ff37a85f7e328c6b027ee95bc10" target="_top" xlink:title=" ">
<polygon fill="white" stroke="black" points="222.5,-0.5 222.5,-19.5 290.5,-19.5 290.5,-0.5 222.5,-0.5"/>
<text text-anchor="middle" x="256.5" y="-7.5" font-family="Helvetica,sans-Serif" font-size="10.00">polarRadius</text>
</a>
</g>
</g>
<!-- Node5&#45;&gt;Node7 -->
<g id="edge8" class="edge">
<title>Node5&#45;&gt;Node7</title>
<path fill="none" stroke="midnightblue" d="M172.14,-38.41C186,-33.69 202.92,-27.92 217.88,-22.82"/>
<polygon fill="midnightblue" stroke="midnightblue" points="219.04,-26.12 227.37,-19.59 216.78,-19.5 219.04,-26.12"/>
</g>
</g>
</svg>
