<?xml version="1.0" encoding="UTF-8" standalone="no"?>
<!DOCTYPE svg PUBLIC "-//W3C//DTD SVG 1.1//EN"
 "http://www.w3.org/Graphics/SVG/1.1/DTD/svg11.dtd">
<!-- Generated by graphviz version 2.47.1 (20210417.1919)
 -->
<!-- Title: record Pages: 1 -->
<svg width="434pt" height="205pt"
 viewBox="0.00 0.00 434.00 204.92" xmlns="http://www.w3.org/2000/svg" xmlns:xlink="http://www.w3.org/1999/xlink">
<g id="graph0" class="graph" transform="scale(1 1) rotate(0) translate(4 200.92)">
<title>record</title>
<polygon fill="white" stroke="transparent" points="-4,4 -4,-200.92 430,-200.92 430,4 -4,4"/>
<!-- Node1 -->
<g id="node1" class="node">
<title>Node1</title>
<g id="a_node1"><a xlink:title=" ">
<polygon fill="#bfbfbf" stroke="black" points="382,-104 382,-123 426,-123 426,-104 382,-104"/>
<text text-anchor="middle" x="404" y="-111" font-family="Helvetica,sans-Serif" font-size="10.00">record</text>
</a>
</g>
</g>
<!-- Node2 -->
<g id="node2" class="node">
<title>Node2</title>
<g id="a_node2"><a xlink:href="classAtcf.html#a4392a7255cda22dc330a996257216c31" target="_top" xlink:title=" ">
<polygon fill="white" stroke="black" points="71,-104 71,-123 149,-123 149,-104 71,-104"/>
<text text-anchor="middle" x="110" y="-111" font-family="Helvetica,sans-Serif" font-size="10.00">calculateRadii</text>
</a>
</g>
</g>
<!-- Node1&#45;&gt;Node2 -->
<g id="edge1" class="edge">
<title>Node1&#45;&gt;Node2</title>
<path fill="none" stroke="midnightblue" d="M392.64,-131.63C382.82,-146.8 366.54,-167.38 346,-176.5 280.6,-205.53 252.15,-201.21 185,-176.5 155.87,-165.78 130.38,-137.92 118.35,-123.1"/>
<polygon fill="midnightblue" stroke="midnightblue" points="395.67,-133.39 397.9,-123.03 389.69,-129.74 395.67,-133.39"/>
</g>
<!-- Node4 -->
<g id="node4" class="node">
<title>Node4</title>
<g id="a_node4"><a xlink:href="classAtcf.html#a4b3387ddd1546cf6bad5444c70ec5cc5" target="_top" xlink:title=" ">
<polygon fill="white" stroke="black" points="215,-148 215,-167 316,-167 316,-148 215,-148"/>
<text text-anchor="middle" x="265.5" y="-155" font-family="Helvetica,sans-Serif" font-size="10.00">setAllRadiiToRmax</text>
</a>
</g>
</g>
<!-- Node1&#45;&gt;Node4 -->
<g id="edge3" class="edge">
<title>Node1&#45;&gt;Node4</title>
<path fill="none" stroke="midnightblue" d="M374.34,-127.26C365.39,-131.23 355.4,-135.34 346,-138.5 335.37,-142.07 323.73,-145.24 312.72,-147.93"/>
<polygon fill="midnightblue" stroke="midnightblue" points="375.91,-130.39 383.56,-123.06 373.01,-124.02 375.91,-130.39"/>
</g>
<!-- Node5 -->
<g id="node5" class="node">
<title>Node5</title>
<g id="a_node5"><a xlink:href="classAtcf.html#a71fa11a421dc675f7b8190758fa0b2e6" target="_top" xlink:title=" ">
<polygon fill="white" stroke="black" points="199,-98.5 199,-128.5 332,-128.5 332,-98.5 199,-98.5"/>
<text text-anchor="start" x="207" y="-116.5" font-family="Helvetica,sans-Serif" font-size="10.00">setMissingRadiiToAverage</text>
<text text-anchor="middle" x="265.5" y="-105.5" font-family="Helvetica,sans-Serif" font-size="10.00">OfAdjacentRadii</text>
</a>
</g>
</g>
<!-- Node1&#45;&gt;Node5 -->
<g id="edge5" class="edge">
<title>Node1&#45;&gt;Node5</title>
<path fill="none" stroke="midnightblue" d="M371.78,-113.5C359.96,-113.5 346.02,-113.5 332.21,-113.5"/>
<polygon fill="midnightblue" stroke="midnightblue" points="371.97,-117 381.97,-113.5 371.97,-110 371.97,-117"/>
</g>
<!-- Node6 -->
<g id="node6" class="node">
<title>Node6</title>
<g id="a_node6"><a xlink:href="classAtcf.html#a21717052904854109237917697bd4e73" target="_top" xlink:title=" ">
<polygon fill="white" stroke="black" points="189.5,-49.5 189.5,-79.5 341.5,-79.5 341.5,-49.5 189.5,-49.5"/>
<text text-anchor="start" x="197.5" y="-67.5" font-family="Helvetica,sans-Serif" font-size="10.00">setMissingRadiiToHalfNonzero</text>
<text text-anchor="middle" x="265.5" y="-56.5" font-family="Helvetica,sans-Serif" font-size="10.00">Radii</text>
</a>
</g>
</g>
<!-- Node1&#45;&gt;Node6 -->
<g id="edge7" class="edge">
<title>Node1&#45;&gt;Node6</title>
<path fill="none" stroke="midnightblue" d="M372.58,-100.07C364.05,-96.47 354.72,-92.7 346,-89.5 336.63,-86.06 326.53,-82.66 316.78,-79.53"/>
<polygon fill="midnightblue" stroke="midnightblue" points="371.23,-103.3 381.81,-104.02 373.99,-96.87 371.23,-103.3"/>
</g>
<!-- Node7 -->
<g id="node7" class="node">
<title>Node7</title>
<g id="a_node7"><a xlink:href="classAtcf.html#abfd44c7ce56d9e93b1f3edfb67918ef5" target="_top" xlink:title=" ">
<polygon fill="white" stroke="black" points="185,-0.5 185,-30.5 346,-30.5 346,-0.5 185,-0.5"/>
<text text-anchor="start" x="193" y="-18.5" font-family="Helvetica,sans-Serif" font-size="10.00">setMissingRadiiToHalfOfAverage</text>
<text text-anchor="middle" x="265.5" y="-7.5" font-family="Helvetica,sans-Serif" font-size="10.00">SpecifiedRadii</text>
</a>
</g>
</g>
<!-- Node1&#45;&gt;Node7 -->
<g id="edge9" class="edge">
<title>Node1&#45;&gt;Node7</title>
<path fill="none" stroke="midnightblue" d="M393.04,-95.16C383.16,-78.62 366.55,-54.75 346,-40.5 340.41,-36.63 334.2,-33.33 327.77,-30.53"/>
<polygon fill="midnightblue" stroke="midnightblue" points="390.05,-96.99 398.06,-103.93 396.13,-93.52 390.05,-96.99"/>
</g>
<!-- Node3 -->
<g id="node3" class="node">
<title>Node3</title>
<g id="a_node3"><a xlink:href="classAtcf.html#aaab5dab5b969a87f538242e524431637" target="_top" xlink:title=" ">
<polygon fill="white" stroke="black" points="0,-104 0,-123 35,-123 35,-104 0,-104"/>
<text text-anchor="middle" x="17.5" y="-111" font-family="Helvetica,sans-Serif" font-size="10.00">read</text>
</a>
</g>
</g>
<!-- Node2&#45;&gt;Node3 -->
<g id="edge2" class="edge">
<title>Node2&#45;&gt;Node3</title>
<path fill="none" stroke="midnightblue" d="M60.65,-113.5C51.59,-113.5 42.68,-113.5 35.42,-113.5"/>
<polygon fill="midnightblue" stroke="midnightblue" points="60.88,-117 70.88,-113.5 60.88,-110 60.88,-117"/>
</g>
<!-- Node4&#45;&gt;Node2 -->
<g id="edge4" class="edge">
<title>Node4&#45;&gt;Node2</title>
<path fill="none" stroke="midnightblue" d="M211.5,-145.55C202.62,-143.34 193.52,-140.95 185,-138.5 169.1,-133.92 151.55,-128.03 137.53,-123.12"/>
<polygon fill="midnightblue" stroke="midnightblue" points="210.86,-148.99 221.4,-147.96 212.52,-142.19 210.86,-148.99"/>
</g>
<!-- Node5&#45;&gt;Node2 -->
<g id="edge6" class="edge">
<title>Node5&#45;&gt;Node2</title>
<path fill="none" stroke="midnightblue" d="M188.56,-113.5C174.93,-113.5 161.26,-113.5 149.28,-113.5"/>
<polygon fill="midnightblue" stroke="midnightblue" points="188.96,-117 198.96,-113.5 188.96,-110 188.96,-117"/>
</g>
<!-- Node6&#45;&gt;Node2 -->
<g id="edge8" class="edge">
<title>Node6&#45;&gt;Node2</title>
<path fill="none" stroke="midnightblue" d="M206.68,-82.62C199.38,-84.92 192.01,-87.26 185,-89.5 170.2,-94.23 153.77,-99.55 140.15,-103.98"/>
<polygon fill="midnightblue" stroke="midnightblue" points="208.07,-85.85 216.55,-79.5 205.96,-79.17 208.07,-85.85"/>
</g>
<!-- Node7&#45;&gt;Node2 -->
<g id="edge10" class="edge">
<title>Node7&#45;&gt;Node2</title>
<path fill="none" stroke="midnightblue" d="M196.18,-34.57C192.31,-36.39 188.56,-38.36 185,-40.5 156.24,-57.8 130.21,-88.5 118.12,-103.99"/>
<polygon fill="midnightblue" stroke="midnightblue" points="197.58,-37.78 205.37,-30.6 194.8,-31.35 197.58,-37.78"/>
</g>
</g>
</svg>
