<?xml version="1.0" encoding="UTF-8" standalone="no"?>
<!DOCTYPE svg PUBLIC "-//W3C//DTD SVG 1.1//EN"
 "http://www.w3.org/Graphics/SVG/1.1/DTD/svg11.dtd">
<!-- Generated by graphviz version 2.47.1 (20210417.1919)
 -->
<!-- Title: computeInitialPressureEstimate Pages: 1 -->
<svg width="604pt" height="104pt"
 viewBox="0.00 0.00 604.00 104.00" xmlns="http://www.w3.org/2000/svg" xmlns:xlink="http://www.w3.org/1999/xlink">
<g id="graph0" class="graph" transform="scale(1 1) rotate(0) translate(4 100)">
<title>computeInitialPressureEstimate</title>
<polygon fill="white" stroke="transparent" points="-4,4 -4,-100 600,-100 600,4 -4,4"/>
<!-- Node1 -->
<g id="node1" class="node">
<title>Node1</title>
<g id="a_node1"><a xlink:title=" ">
<polygon fill="#bfbfbf" stroke="black" points="441,-38.5 441,-57.5 596,-57.5 596,-38.5 441,-38.5"/>
<text text-anchor="middle" x="518.5" y="-45.5" font-family="Helvetica,sans-Serif" font-size="10.00">computeInitialPressureEstimate</text>
</a>
</g>
</g>
<!-- Node2 -->
<g id="node2" class="node">
<title>Node2</title>
<g id="a_node2"><a xlink:href="classHurricanePressure.html#abd75a10e6f9ef19bfd4296a6c9584f7b" target="_top" xlink:title=" ">
<polygon fill="white" stroke="black" points="289.5,-76.5 289.5,-95.5 348.5,-95.5 348.5,-76.5 289.5,-76.5"/>
<text text-anchor="middle" x="319" y="-83.5" font-family="Helvetica,sans-Serif" font-size="10.00">asgs2012</text>
</a>
</g>
</g>
<!-- Node1&#45;&gt;Node2 -->
<g id="edge1" class="edge">
<title>Node1&#45;&gt;Node2</title>
<path fill="none" stroke="midnightblue" d="M457.96,-59.46C421.81,-66.41 377.29,-74.98 348.77,-80.46"/>
<polygon fill="midnightblue" stroke="midnightblue" points="458.76,-62.87 467.92,-57.54 457.44,-55.99 458.76,-62.87"/>
</g>
<!-- Node4 -->
<g id="node4" class="node">
<title>Node4</title>
<g id="a_node4"><a xlink:href="classAtcf.html#a2c8fb312c911c7d35cc921e303cac875" target="_top" xlink:title=" ">
<polygon fill="white" stroke="black" points="233,-0.5 233,-19.5 405,-19.5 405,-0.5 233,-0.5"/>
<text text-anchor="middle" x="319" y="-7.5" font-family="Helvetica,sans-Serif" font-size="10.00">Atcf::generateMissingPressureData</text>
</a>
</g>
</g>
<!-- Node1&#45;&gt;Node4 -->
<g id="edge3" class="edge">
<title>Node1&#45;&gt;Node4</title>
<path fill="none" stroke="midnightblue" d="M457.79,-36.51C429.61,-31.09 396.37,-24.69 369.6,-19.54"/>
<polygon fill="midnightblue" stroke="midnightblue" points="457.44,-40.01 467.92,-38.46 458.76,-33.13 457.44,-40.01"/>
</g>
<!-- Node7 -->
<g id="node7" class="node">
<title>Node7</title>
<g id="a_node7"><a xlink:href="classHurricanePressure.html#a4916b7f06af118c7c6f471b7a67672fb" target="_top" xlink:title=" ">
<polygon fill="white" stroke="black" points="291,-38.5 291,-57.5 347,-57.5 347,-38.5 291,-38.5"/>
<text text-anchor="middle" x="319" y="-45.5" font-family="Helvetica,sans-Serif" font-size="10.00">twoslope</text>
</a>
</g>
</g>
<!-- Node1&#45;&gt;Node7 -->
<g id="edge6" class="edge">
<title>Node1&#45;&gt;Node7</title>
<path fill="none" stroke="midnightblue" d="M430.72,-48C400.62,-48 369.02,-48 347.31,-48"/>
<polygon fill="midnightblue" stroke="midnightblue" points="430.86,-51.5 440.86,-48 430.86,-44.5 430.86,-51.5"/>
</g>
<!-- Node3 -->
<g id="node3" class="node">
<title>Node3</title>
<g id="a_node3"><a xlink:href="classHurricanePressure.html#a716f4bb7417738b6ba825432ec75eb2a" target="_top" xlink:title=" ">
<polygon fill="white" stroke="black" points="104,-57.5 104,-76.5 197,-76.5 197,-57.5 104,-57.5"/>
<text text-anchor="middle" x="150.5" y="-64.5" font-family="Helvetica,sans-Serif" font-size="10.00">computePressure</text>
</a>
</g>
</g>
<!-- Node2&#45;&gt;Node3 -->
<g id="edge2" class="edge">
<title>Node2&#45;&gt;Node3</title>
<path fill="none" stroke="midnightblue" d="M279.37,-81.59C254.88,-78.8 223.08,-75.17 197.31,-72.23"/>
<polygon fill="midnightblue" stroke="midnightblue" points="279.05,-85.08 289.38,-82.73 279.84,-78.12 279.05,-85.08"/>
</g>
<!-- Node5 -->
<g id="node5" class="node">
<title>Node5</title>
<g id="a_node5"><a xlink:href="classAtcf.html#aaab5dab5b969a87f538242e524431637" target="_top" xlink:title=" ">
<polygon fill="white" stroke="black" points="121,-0.5 121,-19.5 180,-19.5 180,-0.5 121,-0.5"/>
<text text-anchor="middle" x="150.5" y="-7.5" font-family="Helvetica,sans-Serif" font-size="10.00">Atcf::read</text>
</a>
</g>
</g>
<!-- Node4&#45;&gt;Node5 -->
<g id="edge4" class="edge">
<title>Node4&#45;&gt;Node5</title>
<path fill="none" stroke="midnightblue" d="M222.57,-10C207.1,-10 192.19,-10 180.07,-10"/>
<polygon fill="midnightblue" stroke="midnightblue" points="222.8,-13.5 232.8,-10 222.8,-6.5 222.8,-13.5"/>
</g>
<!-- Node6 -->
<g id="node6" class="node">
<title>Node6</title>
<g id="a_node6"><a xlink:href="classGahm.html#aaab5dab5b969a87f538242e524431637" target="_top" xlink:title=" ">
<polygon fill="white" stroke="black" points="0,-0.5 0,-19.5 68,-19.5 68,-0.5 0,-0.5"/>
<text text-anchor="middle" x="34" y="-7.5" font-family="Helvetica,sans-Serif" font-size="10.00">Gahm::read</text>
</a>
</g>
</g>
<!-- Node5&#45;&gt;Node6 -->
<g id="edge5" class="edge">
<title>Node5&#45;&gt;Node6</title>
<path fill="none" stroke="midnightblue" d="M110.7,-10C96.86,-10 81.41,-10 68.1,-10"/>
<polygon fill="midnightblue" stroke="midnightblue" points="110.9,-13.5 120.9,-10 110.9,-6.5 110.9,-13.5"/>
</g>
<!-- Node7&#45;&gt;Node3 -->
<g id="edge7" class="edge">
<title>Node7&#45;&gt;Node3</title>
<path fill="none" stroke="midnightblue" d="M280.81,-52.24C256.08,-55.07 223.45,-58.79 197.16,-61.79"/>
<polygon fill="midnightblue" stroke="midnightblue" points="281.34,-55.71 290.88,-51.09 280.55,-48.75 281.34,-55.71"/>
</g>
</g>
</svg>
