<?xml version="1.0" encoding="UTF-8" standalone="no"?>
<!DOCTYPE svg PUBLIC "-//W3C//DTD SVG 1.1//EN"
 "http://www.w3.org/Graphics/SVG/1.1/DTD/svg11.dtd">
<!-- Generated by graphviz version 2.47.1 (20210417.1919)
 -->
<!-- Title: uvTrans Pages: 1 -->
<svg width="658pt" height="197pt"
 viewBox="0.00 0.00 658.00 197.00" xmlns="http://www.w3.org/2000/svg" xmlns:xlink="http://www.w3.org/1999/xlink">
<g id="graph0" class="graph" transform="scale(1 1) rotate(0) translate(4 193)">
<title>uvTrans</title>
<polygon fill="white" stroke="transparent" points="-4,4 -4,-193 654,-193 654,4 -4,4"/>
<!-- Node1 -->
<g id="node1" class="node">
<title>Node1</title>
<g id="a_node1"><a xlink:title=" ">
<polygon fill="#bfbfbf" stroke="black" points="0,-93.5 0,-112.5 52,-112.5 52,-93.5 0,-93.5"/>
<text text-anchor="middle" x="26" y="-100.5" font-family="Helvetica,sans-Serif" font-size="10.00">uvTrans</text>
</a>
</g>
</g>
<!-- Node2 -->
<g id="node2" class="node">
<title>Node2</title>
<g id="a_node2"><a xlink:href="classAtcfLine.html#a31f99dd6bb56e7b2cb4ebbc3a850a8f5" target="_top" xlink:title=" ">
<polygon fill="white" stroke="black" points="96,-169.5 96,-188.5 192,-188.5 192,-169.5 96,-169.5"/>
<text text-anchor="middle" x="144" y="-176.5" font-family="Helvetica,sans-Serif" font-size="10.00">AtcfLine::datetime</text>
</a>
</g>
</g>
<!-- Node1&#45;&gt;Node2 -->
<g id="edge1" class="edge">
<title>Node1&#45;&gt;Node2</title>
<path fill="none" stroke="midnightblue" d="M35.12,-112.79C45.98,-125.33 66.4,-146.99 88,-160 91.41,-162.05 95.07,-163.92 98.82,-165.62"/>
<polygon fill="midnightblue" stroke="midnightblue" points="97.68,-168.93 108.26,-169.48 100.33,-162.45 97.68,-168.93"/>
</g>
<!-- Node3 -->
<g id="node3" class="node">
<title>Node3</title>
<g id="a_node3"><a xlink:href="classAtcfLine.html#af473414f523913837f7ee7520fa9e63d" target="_top" xlink:title=" ">
<polygon fill="white" stroke="black" points="109.5,-131.5 109.5,-150.5 178.5,-150.5 178.5,-131.5 109.5,-131.5"/>
<text text-anchor="middle" x="144" y="-138.5" font-family="Helvetica,sans-Serif" font-size="10.00">AtcfLine::lat</text>
</a>
</g>
</g>
<!-- Node1&#45;&gt;Node3 -->
<g id="edge2" class="edge">
<title>Node1&#45;&gt;Node3</title>
<path fill="none" stroke="midnightblue" d="M52.17,-111.25C67.32,-116.21 86.93,-122.63 104.05,-128.24"/>
<polygon fill="midnightblue" stroke="midnightblue" points="103.19,-131.64 113.78,-131.43 105.37,-124.99 103.19,-131.64"/>
</g>
<!-- Node4 -->
<g id="node4" class="node">
<title>Node4</title>
<g id="a_node4"><a xlink:href="classAtcfLine.html#abf1373f021c76c8df3ab03e92eddc42f" target="_top" xlink:title=" ">
<polygon fill="white" stroke="black" points="108.5,-93.5 108.5,-112.5 179.5,-112.5 179.5,-93.5 108.5,-93.5"/>
<text text-anchor="middle" x="144" y="-100.5" font-family="Helvetica,sans-Serif" font-size="10.00">AtcfLine::lon</text>
</a>
</g>
</g>
<!-- Node1&#45;&gt;Node4 -->
<g id="edge3" class="edge">
<title>Node1&#45;&gt;Node4</title>
<path fill="none" stroke="midnightblue" d="M52.17,-103C65.62,-103 82.57,-103 98.18,-103"/>
<polygon fill="midnightblue" stroke="midnightblue" points="98.2,-106.5 108.2,-103 98.2,-99.5 98.2,-106.5"/>
</g>
<!-- Node5 -->
<g id="node5" class="node">
<title>Node5</title>
<g id="a_node5"><a xlink:href="namespacePhysical.html#a2efe94842cf85bad805d2e444bab45d0" target="_top" xlink:title=" ">
<polygon fill="white" stroke="black" points="88,-55.5 88,-74.5 200,-74.5 200,-55.5 88,-55.5"/>
<text text-anchor="middle" x="144" y="-62.5" font-family="Helvetica,sans-Serif" font-size="10.00">Physical::sphericalDx</text>
</a>
</g>
</g>
<!-- Node1&#45;&gt;Node5 -->
<g id="edge4" class="edge">
<title>Node1&#45;&gt;Node5</title>
<path fill="none" stroke="midnightblue" d="M52.17,-94.75C67.32,-89.79 86.93,-83.37 104.05,-77.76"/>
<polygon fill="midnightblue" stroke="midnightblue" points="105.37,-81.01 113.78,-74.57 103.19,-74.36 105.37,-81.01"/>
</g>
<!-- Node11 -->
<g id="node11" class="node">
<title>Node11</title>
<g id="a_node11"><a xlink:href="classDate.html#a1fa70aa48f749203df9a600eb190dd7b" target="_top" xlink:title=" ">
<polygon fill="white" stroke="black" points="99,-16.5 99,-35.5 189,-35.5 189,-16.5 99,-16.5"/>
<text text-anchor="middle" x="144" y="-23.5" font-family="Helvetica,sans-Serif" font-size="10.00">Date::toSeconds</text>
</a>
</g>
</g>
<!-- Node1&#45;&gt;Node11 -->
<g id="edge11" class="edge">
<title>Node1&#45;&gt;Node11</title>
<path fill="none" stroke="midnightblue" d="M35.15,-93.26C46.05,-80.78 66.5,-59.19 88,-46 91.91,-43.6 96.14,-41.43 100.47,-39.48"/>
<polygon fill="midnightblue" stroke="midnightblue" points="102.09,-42.6 110,-35.55 99.43,-36.13 102.09,-42.6"/>
</g>
<!-- Node6 -->
<g id="node6" class="node">
<title>Node6</title>
<g id="a_node6"><a xlink:href="namespacePhysical.html#aa9f4487d4613a1f2b0a6f4c12d564e2c" target="_top" xlink:title=" ">
<polygon fill="white" stroke="black" points="236,-52 236,-82 335,-82 335,-52 236,-52"/>
<text text-anchor="start" x="244" y="-70" font-family="Helvetica,sans-Serif" font-size="10.00">Physical::geodesic</text>
<text text-anchor="middle" x="285.5" y="-59" font-family="Helvetica,sans-Serif" font-size="10.00">_distance</text>
</a>
</g>
</g>
<!-- Node5&#45;&gt;Node6 -->
<g id="edge5" class="edge">
<title>Node5&#45;&gt;Node6</title>
<path fill="none" stroke="midnightblue" d="M200.13,-65.79C208.47,-65.91 217.1,-66.03 225.52,-66.15"/>
<polygon fill="midnightblue" stroke="midnightblue" points="225.59,-69.66 235.64,-66.3 225.69,-62.66 225.59,-69.66"/>
</g>
<!-- Node7 -->
<g id="node7" class="node">
<title>Node7</title>
<g id="a_node7"><a xlink:href="namespacePhysical.html#aedb77f347557f2942e99437f55e976a8" target="_top" xlink:title=" ">
<polygon fill="white" stroke="black" points="536,-76.5 536,-95.5 631,-95.5 631,-76.5 536,-76.5"/>
<text text-anchor="middle" x="583.5" y="-83.5" font-family="Helvetica,sans-Serif" font-size="10.00">Physical::deg2rad</text>
</a>
</g>
</g>
<!-- Node6&#45;&gt;Node7 -->
<g id="edge6" class="edge">
<title>Node6&#45;&gt;Node7</title>
<path fill="none" stroke="midnightblue" d="M335.05,-70.12C387.39,-73.48 470.62,-78.82 525.9,-82.37"/>
<polygon fill="midnightblue" stroke="midnightblue" points="525.68,-85.86 535.88,-83.01 526.13,-78.87 525.68,-85.86"/>
</g>
<!-- Node8 -->
<g id="node8" class="node">
<title>Node8</title>
<g id="a_node8"><a xlink:href="namespacePhysical.html#a54d120caf204e2c8e9b5c646442f0aaf" target="_top" xlink:title=" ">
<polygon fill="white" stroke="black" points="371,-38.5 371,-57.5 481,-57.5 481,-38.5 371,-38.5"/>
<text text-anchor="middle" x="426" y="-45.5" font-family="Helvetica,sans-Serif" font-size="10.00">Physical::radiusEarth</text>
</a>
</g>
</g>
<!-- Node6&#45;&gt;Node8 -->
<g id="edge7" class="edge">
<title>Node6&#45;&gt;Node8</title>
<path fill="none" stroke="midnightblue" d="M335.33,-60.3C343.61,-59.16 352.33,-57.97 360.93,-56.79"/>
<polygon fill="midnightblue" stroke="midnightblue" points="361.52,-60.24 370.95,-55.41 360.57,-53.31 361.52,-60.24"/>
</g>
<!-- Node8&#45;&gt;Node7 -->
<g id="edge8" class="edge">
<title>Node8&#45;&gt;Node7</title>
<path fill="none" stroke="midnightblue" d="M466.24,-57.59C486.76,-62.6 512.07,-68.79 533.83,-74.11"/>
<polygon fill="midnightblue" stroke="midnightblue" points="533,-77.51 543.54,-76.48 534.66,-70.71 533,-77.51"/>
</g>
<!-- Node9 -->
<g id="node9" class="node">
<title>Node9</title>
<g id="a_node9"><a xlink:href="namespacePhysical.html#a6c13e82a46905cdfbf1647591d8935ed" target="_top" xlink:title=" ">
<polygon fill="white" stroke="black" points="517,-38.5 517,-57.5 650,-57.5 650,-38.5 517,-38.5"/>
<text text-anchor="middle" x="583.5" y="-45.5" font-family="Helvetica,sans-Serif" font-size="10.00">Physical::equatorialRadius</text>
</a>
</g>
</g>
<!-- Node8&#45;&gt;Node9 -->
<g id="edge9" class="edge">
<title>Node8&#45;&gt;Node9</title>
<path fill="none" stroke="midnightblue" d="M481.39,-48C489.63,-48 498.27,-48 506.86,-48"/>
<polygon fill="midnightblue" stroke="midnightblue" points="506.92,-51.5 516.92,-48 506.92,-44.5 506.92,-51.5"/>
</g>
<!-- Node10 -->
<g id="node10" class="node">
<title>Node10</title>
<g id="a_node10"><a xlink:href="namespacePhysical.html#acbba7b727274b2f016499f85b0b3d2f7" target="_top" xlink:title=" ">
<polygon fill="white" stroke="black" points="527.5,-0.5 527.5,-19.5 639.5,-19.5 639.5,-0.5 527.5,-0.5"/>
<text text-anchor="middle" x="583.5" y="-7.5" font-family="Helvetica,sans-Serif" font-size="10.00">Physical::polarRadius</text>
</a>
</g>
</g>
<!-- Node8&#45;&gt;Node10 -->
<g id="edge10" class="edge">
<title>Node8&#45;&gt;Node10</title>
<path fill="none" stroke="midnightblue" d="M466.24,-38.41C486.76,-33.4 512.07,-27.21 533.83,-21.89"/>
<polygon fill="midnightblue" stroke="midnightblue" points="534.66,-25.29 543.54,-19.52 533,-18.49 534.66,-25.29"/>
</g>
<!-- Node12 -->
<g id="node12" class="node">
<title>Node12</title>
<g id="a_node12"><a xlink:href="Date_8cpp.html#a45ca5db09a1ee8d14a196628d506d4bf" target="_top" xlink:title=" ">
<polygon fill="white" stroke="black" points="259,-13.5 259,-32.5 312,-32.5 312,-13.5 259,-13.5"/>
<text text-anchor="middle" x="285.5" y="-20.5" font-family="Helvetica,sans-Serif" font-size="10.00">c_epoch</text>
</a>
</g>
</g>
<!-- Node11&#45;&gt;Node12 -->
<g id="edge12" class="edge">
<title>Node11&#45;&gt;Node12</title>
<path fill="none" stroke="midnightblue" d="M189.14,-25.05C208.36,-24.64 230.59,-24.16 248.75,-23.77"/>
<polygon fill="midnightblue" stroke="midnightblue" points="248.99,-27.26 258.91,-23.55 248.84,-20.27 248.99,-27.26"/>
</g>
</g>
</svg>
