<?xml version="1.0" encoding="UTF-8" standalone="no"?>
<!DOCTYPE svg PUBLIC "-//W3C//DTD SVG 1.1//EN"
 "http://www.w3.org/Graphics/SVG/1.1/DTD/svg11.dtd">
<!-- Generated by graphviz version 2.47.1 (20210417.1919)
 -->
<!-- Title: calculateRadii Pages: 1 -->
<svg width="414pt" height="205pt"
 viewBox="0.00 0.00 414.00 204.60" xmlns="http://www.w3.org/2000/svg" xmlns:xlink="http://www.w3.org/1999/xlink">
<g id="graph0" class="graph" transform="scale(1 1) rotate(0) translate(4 200.6)">
<title>calculateRadii</title>
<polygon fill="white" stroke="transparent" points="-4,4 -4,-200.6 410,-200.6 410,4 -4,4"/>
<!-- Node1 -->
<g id="node1" class="node">
<title>Node1</title>
<g id="a_node1"><a xlink:title=" ">
<polygon fill="#bfbfbf" stroke="black" points="0,-99 0,-118 78,-118 78,-99 0,-99"/>
<text text-anchor="middle" x="39" y="-106" font-family="Helvetica,sans-Serif" font-size="10.00">calculateRadii</text>
</a>
</g>
</g>
<!-- Node2 -->
<g id="node2" class="node">
<title>Node2</title>
<g id="a_node2"><a xlink:href="classAtcf.html#a2c3a3d17067e7d0d53018ec96531bd3d" target="_top" xlink:title=" ">
<polygon fill="white" stroke="black" points="336.5,-99 336.5,-118 380.5,-118 380.5,-99 336.5,-99"/>
<text text-anchor="middle" x="358.5" y="-106" font-family="Helvetica,sans-Serif" font-size="10.00">record</text>
</a>
</g>
</g>
<!-- Node1&#45;&gt;Node2 -->
<g id="edge1" class="edge">
<title>Node1&#45;&gt;Node2</title>
<path fill="none" stroke="midnightblue" d="M46.57,-118.21C58.04,-134.19 83.44,-165.46 114,-177.5 180.58,-203.72 207.74,-201.92 275,-177.5 302.95,-167.35 328.05,-143.13 343.03,-126.27"/>
<polygon fill="midnightblue" stroke="midnightblue" points="346.06,-128.11 349.9,-118.24 340.74,-123.56 346.06,-128.11"/>
</g>
<!-- Node3 -->
<g id="node3" class="node">
<title>Node3</title>
<g id="a_node3"><a xlink:href="classAtcf.html#a4b3387ddd1546cf6bad5444c70ec5cc5" target="_top" xlink:title=" ">
<polygon fill="white" stroke="black" points="144,-99 144,-118 245,-118 245,-99 144,-99"/>
<text text-anchor="middle" x="194.5" y="-106" font-family="Helvetica,sans-Serif" font-size="10.00">setAllRadiiToRmax</text>
</a>
</g>
</g>
<!-- Node1&#45;&gt;Node3 -->
<g id="edge2" class="edge">
<title>Node1&#45;&gt;Node3</title>
<path fill="none" stroke="midnightblue" d="M78.34,-108.5C95.05,-108.5 115.03,-108.5 133.62,-108.5"/>
<polygon fill="midnightblue" stroke="midnightblue" points="133.77,-112 143.77,-108.5 133.77,-105 133.77,-112"/>
</g>
<!-- Node5 -->
<g id="node5" class="node">
<title>Node5</title>
<g id="a_node5"><a xlink:href="classAtcf.html#a71fa11a421dc675f7b8190758fa0b2e6" target="_top" xlink:title=" ">
<polygon fill="white" stroke="black" points="128,-49.5 128,-79.5 261,-79.5 261,-49.5 128,-49.5"/>
<text text-anchor="start" x="136" y="-67.5" font-family="Helvetica,sans-Serif" font-size="10.00">setMissingRadiiToAverage</text>
<text text-anchor="middle" x="194.5" y="-56.5" font-family="Helvetica,sans-Serif" font-size="10.00">OfAdjacentRadii</text>
</a>
</g>
</g>
<!-- Node1&#45;&gt;Node5 -->
<g id="edge5" class="edge">
<title>Node1&#45;&gt;Node5</title>
<path fill="none" stroke="midnightblue" d="M73.31,-98.95C90.2,-94.11 111.29,-88.07 131.06,-82.4"/>
<polygon fill="midnightblue" stroke="midnightblue" points="132.29,-85.69 140.94,-79.57 130.37,-78.96 132.29,-85.69"/>
</g>
<!-- Node6 -->
<g id="node6" class="node">
<title>Node6</title>
<g id="a_node6"><a xlink:href="classAtcf.html#a21717052904854109237917697bd4e73" target="_top" xlink:title=" ">
<polygon fill="white" stroke="black" points="118.5,-0.5 118.5,-30.5 270.5,-30.5 270.5,-0.5 118.5,-0.5"/>
<text text-anchor="start" x="126.5" y="-18.5" font-family="Helvetica,sans-Serif" font-size="10.00">setMissingRadiiToHalfNonzero</text>
<text text-anchor="middle" x="194.5" y="-7.5" font-family="Helvetica,sans-Serif" font-size="10.00">Radii</text>
</a>
</g>
</g>
<!-- Node1&#45;&gt;Node6 -->
<g id="edge8" class="edge">
<title>Node1&#45;&gt;Node6</title>
<path fill="none" stroke="midnightblue" d="M48.03,-98.53C60.58,-83.59 86.29,-55.44 114,-39.5 117.03,-37.76 120.2,-36.13 123.45,-34.61"/>
<polygon fill="midnightblue" stroke="midnightblue" points="124.98,-37.77 132.8,-30.62 122.23,-31.33 124.98,-37.77"/>
</g>
<!-- Node7 -->
<g id="node7" class="node">
<title>Node7</title>
<g id="a_node7"><a xlink:href="classAtcf.html#abfd44c7ce56d9e93b1f3edfb67918ef5" target="_top" xlink:title=" ">
<polygon fill="white" stroke="black" points="114,-137.5 114,-167.5 275,-167.5 275,-137.5 114,-137.5"/>
<text text-anchor="start" x="122" y="-155.5" font-family="Helvetica,sans-Serif" font-size="10.00">setMissingRadiiToHalfOfAverage</text>
<text text-anchor="middle" x="194.5" y="-144.5" font-family="Helvetica,sans-Serif" font-size="10.00">SpecifiedRadii</text>
</a>
</g>
</g>
<!-- Node1&#45;&gt;Node7 -->
<g id="edge11" class="edge">
<title>Node1&#45;&gt;Node7</title>
<path fill="none" stroke="midnightblue" d="M73.31,-118.05C90.2,-122.89 111.29,-128.93 131.06,-134.6"/>
<polygon fill="midnightblue" stroke="midnightblue" points="130.37,-138.04 140.94,-137.43 132.29,-131.31 130.37,-138.04"/>
</g>
<!-- Node3&#45;&gt;Node2 -->
<g id="edge4" class="edge">
<title>Node3&#45;&gt;Node2</title>
<path fill="none" stroke="midnightblue" d="M245.43,-108.5C271.75,-108.5 303.24,-108.5 326.12,-108.5"/>
<polygon fill="midnightblue" stroke="midnightblue" points="326.3,-112 336.3,-108.5 326.3,-105 326.3,-112"/>
</g>
<!-- Node4 -->
<g id="node4" class="node">
<title>Node4</title>
<g id="a_node4"><a xlink:href="classAssumptions.html#a20319f7261289f879d667fe91034d503" target="_top" xlink:title=" ">
<polygon fill="white" stroke="black" points="311,-58 311,-77 406,-77 406,-58 311,-58"/>
<text text-anchor="middle" x="358.5" y="-65" font-family="Helvetica,sans-Serif" font-size="10.00">Assumptions::add</text>
</a>
</g>
</g>
<!-- Node3&#45;&gt;Node4 -->
<g id="edge3" class="edge">
<title>Node3&#45;&gt;Node4</title>
<path fill="none" stroke="midnightblue" d="M233.52,-98.96C246.66,-95.65 261.48,-91.92 275,-88.5 286.41,-85.61 298.71,-82.49 310.24,-79.55"/>
<polygon fill="midnightblue" stroke="midnightblue" points="311.31,-82.89 320.13,-77.04 309.58,-76.11 311.31,-82.89"/>
</g>
<!-- Node5&#45;&gt;Node2 -->
<g id="edge7" class="edge">
<title>Node5&#45;&gt;Node2</title>
<path fill="none" stroke="midnightblue" d="M250.8,-79.52C276,-86.37 304.92,-94.22 326.28,-100.02"/>
<polygon fill="midnightblue" stroke="midnightblue" points="325.55,-103.45 336.11,-102.69 327.38,-96.69 325.55,-103.45"/>
</g>
<!-- Node5&#45;&gt;Node4 -->
<g id="edge6" class="edge">
<title>Node5&#45;&gt;Node4</title>
<path fill="none" stroke="midnightblue" d="M261.39,-65.72C274.26,-65.96 287.65,-66.21 300.21,-66.44"/>
<polygon fill="midnightblue" stroke="midnightblue" points="300.47,-69.94 310.53,-66.63 300.6,-62.95 300.47,-69.94"/>
</g>
<!-- Node6&#45;&gt;Node2 -->
<g id="edge10" class="edge">
<title>Node6&#45;&gt;Node2</title>
<path fill="none" stroke="midnightblue" d="M258.84,-30.55C264.53,-33.09 270.02,-36.06 275,-39.5 296.64,-54.47 290.53,-69.96 311,-86.5 315.81,-90.38 321.41,-93.77 327.03,-96.66"/>
<polygon fill="midnightblue" stroke="midnightblue" points="325.83,-99.96 336.37,-101.02 328.79,-93.61 325.83,-99.96"/>
</g>
<!-- Node6&#45;&gt;Node4 -->
<g id="edge9" class="edge">
<title>Node6&#45;&gt;Node4</title>
<path fill="none" stroke="midnightblue" d="M246.47,-30.61C255.97,-33.5 265.8,-36.55 275,-39.5 289.84,-44.26 306.09,-49.72 320.22,-54.55"/>
<polygon fill="midnightblue" stroke="midnightblue" points="319.48,-58 330.08,-57.93 321.76,-51.37 319.48,-58"/>
</g>
<!-- Node7&#45;&gt;Node2 -->
<g id="edge13" class="edge">
<title>Node7&#45;&gt;Node2</title>
<path fill="none" stroke="midnightblue" d="M250.8,-137.48C276,-130.63 304.92,-122.78 326.28,-116.98"/>
<polygon fill="midnightblue" stroke="midnightblue" points="327.38,-120.31 336.11,-114.31 325.55,-113.55 327.38,-120.31"/>
</g>
<!-- Node7&#45;&gt;Node4 -->
<g id="edge12" class="edge">
<title>Node7&#45;&gt;Node4</title>
<path fill="none" stroke="midnightblue" d="M255.17,-137.44C262.09,-134.62 268.87,-131.33 275,-127.5 294.73,-115.17 292.16,-103.15 311,-89.5 314.95,-86.64 319.33,-83.99 323.78,-81.61"/>
<polygon fill="midnightblue" stroke="midnightblue" points="325.49,-84.67 332.89,-77.08 322.38,-78.4 325.49,-84.67"/>
</g>
</g>
</svg>
