<?xml version="1.0" encoding="UTF-8" standalone="no"?>
<!DOCTYPE svg PUBLIC "-//W3C//DTD SVG 1.1//EN"
 "http://www.w3.org/Graphics/SVG/1.1/DTD/svg11.dtd">
<!-- Generated by graphviz version 2.47.1 (20210417.1919)
 -->
<!-- Title: parseAtcfLine Pages: 1 -->
<!--zoomable 902 -->
<svg id="main" version="1.1" xmlns="http://www.w3.org/2000/svg" xmlns:xlink="http://www.w3.org/1999/xlink" xml:space="preserve" onload="init(evt)">
<style type="text/css"><![CDATA[
.edge:hover path { stroke: red; }
.edge:hover polygon { stroke: red; fill: red; }
]]></style>
<script type="text/javascript"><![CDATA[
var edges = document.getElementsByTagName('g');
if (edges && edges.length) {
  for (var i=0;i<edges.length;i++) {
    if (edges[i].id.substr(0,4)=='edge') {
      edges[i].setAttribute('class','edge');
    }
  }
}
]]></script>
        <defs>
                <circle id="rim" cx="0" cy="0" r="7"/>
                <circle id="rim2" cx="0" cy="0" r="3.5"/>
                <g id="zoomPlus">
                        <use xlink:href="#rim" fill="#404040">
                                <set attributeName="fill" to="#808080" begin="zoomplus.mouseover" end="zoomplus.mouseout"/>
                        </use>
                        <path d="M-4,0h8M0,-4v8" fill="none" stroke="white" stroke-width="1.5" pointer-events="none"/>
                </g>
                <g id="zoomMin">
                        <use xlink:href="#rim" fill="#404040">
                                <set attributeName="fill" to="#808080" begin="zoomminus.mouseover" end="zoomminus.mouseout"/>
                        </use>
                        <path d="M-4,0h8" fill="none" stroke="white" stroke-width="1.5" pointer-events="none"/>
                </g>
                <g id="dirArrow">
                        <path fill="none" stroke="white" stroke-width="1.5" d="M0,-3.0v7 M-2.5,-0.5L0,-3.0L2.5,-0.5"/>
                </g>
               <g id="resetDef">
                       <use xlink:href="#rim2" fill="#404040">
                               <set attributeName="fill" to="#808080" begin="reset.mouseover" end="reset.mouseout"/>
                       </use>
               </g>
        </defs>

<script type="text/javascript">
var viewWidth = 376;
var viewHeight = 902;
var sectionId = 'dynsection-20';
</script>
<script xlink:href="svgpan.js"/>
<svg id="graph" class="graph">
<g id="viewport">
<title>parseAtcfLine</title>
<polygon fill="white" stroke="transparent" points="-4,4 -4,-898 372,-898 372,4 -4,4"/>
<!-- Node1 -->
<g id="node1" class="node">
<title>Node1</title>
<g id="a_node1"><a xlink:title=" ">
<polygon fill="#bfbfbf" stroke="black" points="0,-437.5 0,-456.5 77,-456.5 77,-437.5 0,-437.5"/>
<text text-anchor="middle" x="38.5" y="-444.5" font-family="Helvetica,sans-Serif" font-size="10.00">parseAtcfLine</text>
</a>
</g>
</g>
<!-- Node2 -->
<g id="node2" class="node">
<title>Node2</title>
<g id="a_node2"><a xlink:href="classAtcfLine.html#a35c13e37b2ea718539aa5f54b88eb55b" target="_top" xlink:title=" ">
<polygon fill="white" stroke="black" points="148.5,-874.5 148.5,-893.5 201.5,-893.5 201.5,-874.5 148.5,-874.5"/>
<text text-anchor="middle" x="175" y="-881.5" font-family="Helvetica,sans-Serif" font-size="10.00">AtcfLine</text>
</a>
</g>
</g>
<!-- Node1&#45;&gt;Node2 -->
<g id="edge1" class="edge">
<title>Node1&#45;&gt;Node2</title>
<path fill="none" stroke="midnightblue" d="M39.87,-456.72C42.24,-513.42 56.91,-801.24 113,-865 119.58,-872.48 129.05,-877.05 138.57,-879.83"/>
<polygon fill="midnightblue" stroke="midnightblue" points="137.86,-883.26 148.4,-882.13 139.46,-876.44 137.86,-883.26"/>
</g>
<!-- Node3 -->
<g id="node3" class="node">
<title>Node3</title>
<g id="a_node3"><a xlink:href="classAtcfLine.html#acc738a7f1329678309e649d09156d29c" target="_top" xlink:title=" ">
<polygon fill="white" stroke="black" points="142.5,-836.5 142.5,-855.5 207.5,-855.5 207.5,-836.5 142.5,-836.5"/>
<text text-anchor="middle" x="175" y="-843.5" font-family="Helvetica,sans-Serif" font-size="10.00">addIsotach</text>
</a>
</g>
</g>
<!-- Node1&#45;&gt;Node3 -->
<g id="edge2" class="edge">
<title>Node1&#45;&gt;Node3</title>
<path fill="none" stroke="midnightblue" d="M40.05,-456.53C43.28,-509.7 61.58,-769.54 113,-827 118.14,-832.74 124.97,-836.76 132.21,-839.58"/>
<polygon fill="midnightblue" stroke="midnightblue" points="131.62,-843.06 142.21,-842.72 133.72,-836.38 131.62,-843.06"/>
</g>
<!-- Node4 -->
<g id="node4" class="node">
<title>Node4</title>
<g id="a_node4"><a xlink:href="classIsotach.html#ad8db29d5da4482e0ac19ece84e108947" target="_top" xlink:title=" ">
<polygon fill="white" stroke="black" points="113,-798.5 113,-817.5 237,-817.5 237,-798.5 113,-798.5"/>
<text text-anchor="middle" x="175" y="-805.5" font-family="Helvetica,sans-Serif" font-size="10.00">Isotach::codeFromString</text>
</a>
</g>
</g>
<!-- Node1&#45;&gt;Node4 -->
<g id="edge3" class="edge">
<title>Node1&#45;&gt;Node4</title>
<path fill="none" stroke="midnightblue" d="M40.27,-456.54C44.48,-506.54 66.3,-737.89 113,-789 114.21,-790.32 115.51,-791.55 116.88,-792.7"/>
<polygon fill="midnightblue" stroke="midnightblue" points="115.18,-795.77 125.44,-798.38 119.05,-789.94 115.18,-795.77"/>
</g>
<!-- Node6 -->
<g id="node6" class="node">
<title>Node6</title>
<g id="a_node6"><a xlink:href="namespacePhysical.html#a05752af9ecabce50d071f64c9918f5f6" target="_top" xlink:title=" ">
<polygon fill="white" stroke="black" points="131.5,-760.5 131.5,-779.5 218.5,-779.5 218.5,-760.5 131.5,-760.5"/>
<text text-anchor="middle" x="175" y="-767.5" font-family="Helvetica,sans-Serif" font-size="10.00">Physical::kt2ms</text>
</a>
</g>
</g>
<!-- Node1&#45;&gt;Node6 -->
<g id="edge5" class="edge">
<title>Node1&#45;&gt;Node6</title>
<path fill="none" stroke="midnightblue" d="M40.69,-456.79C46.52,-503.19 73.33,-700.63 113,-746 116.29,-749.76 120.25,-752.94 124.55,-755.63"/>
<polygon fill="midnightblue" stroke="midnightblue" points="123.27,-758.91 133.75,-760.47 126.53,-752.71 123.27,-758.91"/>
</g>
<!-- Node8 -->
<g id="node8" class="node">
<title>Node8</title>
<g id="a_node8"><a xlink:href="classAtcfLine.html#af473414f523913837f7ee7520fa9e63d" target="_top" xlink:title=" ">
<polygon fill="white" stroke="black" points="306,-703.5 306,-722.5 335,-722.5 335,-703.5 306,-703.5"/>
<text text-anchor="middle" x="320.5" y="-710.5" font-family="Helvetica,sans-Serif" font-size="10.00">lat</text>
</a>
</g>
</g>
<!-- Node1&#45;&gt;Node8 -->
<g id="edge7" class="edge">
<title>Node1&#45;&gt;Node8</title>
<path fill="none" stroke="midnightblue" d="M40.62,-456.61C45.94,-500.42 70.21,-680.43 113,-713 167.19,-754.25 254.66,-734.28 296.18,-721.23"/>
<polygon fill="midnightblue" stroke="midnightblue" points="297.52,-724.48 305.93,-718.03 295.34,-717.83 297.52,-724.48"/>
</g>
<!-- Node9 -->
<g id="node9" class="node">
<title>Node9</title>
<g id="a_node9"><a xlink:href="classAtcfLine.html#abf1373f021c76c8df3ab03e92eddc42f" target="_top" xlink:title=" ">
<polygon fill="white" stroke="black" points="306,-551.5 306,-570.5 335,-570.5 335,-551.5 306,-551.5"/>
<text text-anchor="middle" x="320.5" y="-558.5" font-family="Helvetica,sans-Serif" font-size="10.00">lon</text>
</a>
</g>
</g>
<!-- Node1&#45;&gt;Node9 -->
<g id="edge8" class="edge">
<title>Node1&#45;&gt;Node9</title>
<path fill="none" stroke="midnightblue" d="M45.69,-456.52C56.93,-473 82.42,-506.61 113,-523 172.91,-555.11 255.1,-560.61 295.33,-561.22"/>
<polygon fill="midnightblue" stroke="midnightblue" points="295.49,-564.72 305.51,-561.28 295.54,-557.72 295.49,-564.72"/>
</g>
<!-- Node10 -->
<g id="node10" class="node">
<title>Node10</title>
<g id="a_node10"><a xlink:href="namespacePhysical.html#a8f26784ba5fa860689f1dcaf50e062bb" target="_top" xlink:title=" ">
<polygon fill="white" stroke="black" points="127.5,-646.5 127.5,-665.5 222.5,-665.5 222.5,-646.5 127.5,-646.5"/>
<text text-anchor="middle" x="175" y="-653.5" font-family="Helvetica,sans-Serif" font-size="10.00">Physical::nmi2km</text>
</a>
</g>
</g>
<!-- Node1&#45;&gt;Node10 -->
<g id="edge9" class="edge">
<title>Node1&#45;&gt;Node10</title>
<path fill="none" stroke="midnightblue" d="M40.37,-456.93C43.63,-488.18 57.97,-585.55 113,-637 114.68,-638.57 116.49,-640.01 118.39,-641.33"/>
<polygon fill="midnightblue" stroke="midnightblue" points="116.83,-644.47 127.25,-646.39 120.3,-638.39 116.83,-644.47"/>
</g>
<!-- Node12 -->
<g id="node12" class="node">
<title>Node12</title>
<g id="a_node12"><a xlink:href="classAtcfLine.html#aed5531012579283c189c8bafe7738fc9" target="_top" xlink:title=" ">
<polygon fill="white" stroke="black" points="126.5,-608.5 126.5,-627.5 223.5,-627.5 223.5,-608.5 126.5,-608.5"/>
<text text-anchor="middle" x="175" y="-615.5" font-family="Helvetica,sans-Serif" font-size="10.00">referenceDatetime</text>
</a>
</g>
</g>
<!-- Node1&#45;&gt;Node12 -->
<g id="edge11" class="edge">
<title>Node1&#45;&gt;Node12</title>
<path fill="none" stroke="midnightblue" d="M41.41,-456.83C47.16,-483.73 66.81,-559.2 113,-599 114.99,-600.71 117.12,-602.27 119.37,-603.68"/>
<polygon fill="midnightblue" stroke="midnightblue" points="118,-606.92 128.47,-608.48 121.26,-600.72 118,-606.92"/>
</g>
<!-- Node13 -->
<g id="node13" class="node">
<title>Node13</title>
<g id="a_node13"><a xlink:href="classAtcfLine.html#a10cf0c5bc3997b3342597aa7ebee21b9" target="_top" xlink:title=" ">
<polygon fill="white" stroke="black" points="147.5,-494.5 147.5,-513.5 202.5,-513.5 202.5,-494.5 147.5,-494.5"/>
<text text-anchor="middle" x="175" y="-501.5" font-family="Helvetica,sans-Serif" font-size="10.00">setBasin</text>
</a>
</g>
</g>
<!-- Node1&#45;&gt;Node13 -->
<g id="edge12" class="edge">
<title>Node1&#45;&gt;Node13</title>
<path fill="none" stroke="midnightblue" d="M56.03,-456.61C70.68,-464.87 92.8,-476.71 113,-485 120.81,-488.2 129.36,-491.18 137.53,-493.78"/>
<polygon fill="midnightblue" stroke="midnightblue" points="136.63,-497.17 147.22,-496.76 138.69,-490.48 136.63,-497.17"/>
</g>
<!-- Node15 -->
<g id="node15" class="node">
<title>Node15</title>
<g id="a_node15"><a xlink:href="classAtcfLine.html#ae955293026a90f5e5288b507deebdcac" target="_top" xlink:title=" ">
<polygon fill="white" stroke="black" points="124.5,-456.5 124.5,-475.5 225.5,-475.5 225.5,-456.5 124.5,-456.5"/>
<text text-anchor="middle" x="175" y="-463.5" font-family="Helvetica,sans-Serif" font-size="10.00">setCycloneNumber</text>
</a>
</g>
</g>
<!-- Node1&#45;&gt;Node15 -->
<g id="edge14" class="edge">
<title>Node1&#45;&gt;Node15</title>
<path fill="none" stroke="midnightblue" d="M77.32,-452.34C88.85,-453.97 101.81,-455.8 114.41,-457.58"/>
<polygon fill="midnightblue" stroke="midnightblue" points="114.01,-461.06 124.4,-458.99 114.99,-454.13 114.01,-461.06"/>
</g>
<!-- Node17 -->
<g id="node17" class="node">
<title>Node17</title>
<g id="a_node17"><a xlink:href="classAtcfLine.html#a0bad5c6c920656697893a8ddc09076de" target="_top" xlink:title=" ">
<polygon fill="white" stroke="black" points="140,-418.5 140,-437.5 210,-437.5 210,-418.5 140,-418.5"/>
<text text-anchor="middle" x="175" y="-425.5" font-family="Helvetica,sans-Serif" font-size="10.00">setDatetime</text>
</a>
</g>
</g>
<!-- Node1&#45;&gt;Node17 -->
<g id="edge16" class="edge">
<title>Node1&#45;&gt;Node17</title>
<path fill="none" stroke="midnightblue" d="M77.32,-441.66C93.54,-439.37 112.6,-436.67 129.49,-434.29"/>
<polygon fill="midnightblue" stroke="midnightblue" points="130.26,-437.71 139.68,-432.85 129.29,-430.78 130.26,-437.71"/>
</g>
<!-- Node19 -->
<g id="node19" class="node">
<title>Node19</title>
<g id="a_node19"><a xlink:href="classAtcfLine.html#ae6665099efc25d2f067359712c403a28" target="_top" xlink:title=" ">
<polygon fill="white" stroke="black" points="153,-684.5 153,-703.5 197,-703.5 197,-684.5 153,-684.5"/>
<text text-anchor="middle" x="175" y="-691.5" font-family="Helvetica,sans-Serif" font-size="10.00">setLat</text>
</a>
</g>
</g>
<!-- Node1&#45;&gt;Node19 -->
<g id="edge18" class="edge">
<title>Node1&#45;&gt;Node19</title>
<path fill="none" stroke="midnightblue" d="M39.63,-456.84C40.65,-491.83 48.87,-611.5 113,-675 121,-682.93 132.26,-687.55 142.92,-690.25"/>
<polygon fill="midnightblue" stroke="midnightblue" points="142.34,-693.71 152.84,-692.29 143.75,-686.85 142.34,-693.71"/>
</g>
<!-- Node20 -->
<g id="node20" class="node">
<title>Node20</title>
<g id="a_node20"><a xlink:href="classAtcfLine.html#a820d2d4a882e977cc3e1a4e543067428" target="_top" xlink:title=" ">
<polygon fill="white" stroke="black" points="152,-570.5 152,-589.5 198,-589.5 198,-570.5 152,-570.5"/>
<text text-anchor="middle" x="175" y="-577.5" font-family="Helvetica,sans-Serif" font-size="10.00">setLon</text>
</a>
</g>
</g>
<!-- Node1&#45;&gt;Node20 -->
<g id="edge20" class="edge">
<title>Node1&#45;&gt;Node20</title>
<path fill="none" stroke="midnightblue" d="M43.54,-456.58C52.81,-477.48 77.57,-527.58 113,-556 121.45,-562.78 132.06,-567.84 142.05,-571.52"/>
<polygon fill="midnightblue" stroke="midnightblue" points="141.14,-574.9 151.73,-574.75 143.35,-568.26 141.14,-574.9"/>
</g>
<!-- Node21 -->
<g id="node21" class="node">
<title>Node21</title>
<g id="a_node21"><a xlink:href="classAtcfLine.html#a70386cf97cc13ad4eccb2556d0339f0a" target="_top" xlink:title=" ">
<polygon fill="white" stroke="black" points="149.5,-342.5 149.5,-361.5 200.5,-361.5 200.5,-342.5 149.5,-342.5"/>
<text text-anchor="middle" x="175" y="-349.5" font-family="Helvetica,sans-Serif" font-size="10.00">setMslp</text>
</a>
</g>
</g>
<!-- Node1&#45;&gt;Node21 -->
<g id="edge22" class="edge">
<title>Node1&#45;&gt;Node21</title>
<path fill="none" stroke="midnightblue" d="M46.27,-437.34C58.03,-421.26 83.77,-389 113,-371 121.03,-366.06 130.45,-362.3 139.46,-359.49"/>
<polygon fill="midnightblue" stroke="midnightblue" points="140.67,-362.78 149.35,-356.7 138.78,-356.04 140.67,-362.78"/>
</g>
<!-- Node23 -->
<g id="node23" class="node">
<title>Node23</title>
<g id="a_node23"><a xlink:href="classAtcfLine.html#ae091671d04a10571b3788f0e2877ee32" target="_top" xlink:title=" ">
<polygon fill="white" stroke="black" points="145.5,-304.5 145.5,-323.5 204.5,-323.5 204.5,-304.5 145.5,-304.5"/>
<text text-anchor="middle" x="175" y="-311.5" font-family="Helvetica,sans-Serif" font-size="10.00">setPouter</text>
</a>
</g>
</g>
<!-- Node1&#45;&gt;Node23 -->
<g id="edge24" class="edge">
<title>Node1&#45;&gt;Node23</title>
<path fill="none" stroke="midnightblue" d="M43,-437.44C51.5,-415.59 75.32,-361.65 113,-333 119.65,-327.94 127.68,-324.21 135.69,-321.47"/>
<polygon fill="midnightblue" stroke="midnightblue" points="136.77,-324.8 145.35,-318.6 134.77,-318.09 136.77,-324.8"/>
</g>
<!-- Node25 -->
<g id="node25" class="node">
<title>Node25</title>
<g id="a_node25"><a xlink:href="classAtcfLine.html#afa6b0d2f28cf66264d2be824addf35ad" target="_top" xlink:title=" ">
<polygon fill="white" stroke="black" points="121.5,-266.5 121.5,-285.5 228.5,-285.5 228.5,-266.5 121.5,-266.5"/>
<text text-anchor="middle" x="175" y="-273.5" font-family="Helvetica,sans-Serif" font-size="10.00">setRadiusMaxWinds</text>
</a>
</g>
</g>
<!-- Node1&#45;&gt;Node25 -->
<g id="edge26" class="edge">
<title>Node1&#45;&gt;Node25</title>
<path fill="none" stroke="midnightblue" d="M41.41,-437.17C47.16,-410.27 66.81,-334.8 113,-295 114.99,-293.29 117.12,-291.73 119.37,-290.32"/>
<polygon fill="midnightblue" stroke="midnightblue" points="121.26,-293.28 128.47,-285.52 118,-287.08 121.26,-293.28"/>
</g>
<!-- Node27 -->
<g id="node27" class="node">
<title>Node27</title>
<g id="a_node27"><a xlink:href="classAtcfLine.html#a34c654291dd08cde0d1de4fb6d0a3704" target="_top" xlink:title=" ">
<polygon fill="white" stroke="black" points="130.5,-228.5 130.5,-247.5 219.5,-247.5 219.5,-228.5 130.5,-228.5"/>
<text text-anchor="middle" x="175" y="-235.5" font-family="Helvetica,sans-Serif" font-size="10.00">setRadiusPouter</text>
</a>
</g>
</g>
<!-- Node1&#45;&gt;Node27 -->
<g id="edge28" class="edge">
<title>Node1&#45;&gt;Node27</title>
<path fill="none" stroke="midnightblue" d="M40.37,-437.07C43.63,-405.82 57.97,-308.45 113,-257 115.47,-254.69 118.22,-252.66 121.14,-250.88"/>
<polygon fill="midnightblue" stroke="midnightblue" points="122.99,-253.86 130.34,-246.23 119.84,-247.62 122.99,-253.86"/>
</g>
<!-- Node29 -->
<g id="node29" class="node">
<title>Node29</title>
<g id="a_node29"><a xlink:href="classAtcfLine.html#a0fc89ec97a25a3e2a23bbc3c2b4bda56" target="_top" xlink:title=" ">
<polygon fill="white" stroke="black" points="117.5,-380.5 117.5,-399.5 232.5,-399.5 232.5,-380.5 117.5,-380.5"/>
<text text-anchor="middle" x="175" y="-387.5" font-family="Helvetica,sans-Serif" font-size="10.00">setReferenceDatetime</text>
</a>
</g>
</g>
<!-- Node1&#45;&gt;Node29 -->
<g id="edge30" class="edge">
<title>Node1&#45;&gt;Node29</title>
<path fill="none" stroke="midnightblue" d="M56.03,-437.39C70.68,-429.13 92.8,-417.29 113,-409 118.46,-406.76 124.28,-404.63 130.08,-402.66"/>
<polygon fill="midnightblue" stroke="midnightblue" points="131.32,-405.94 139.75,-399.51 129.15,-399.28 131.32,-405.94"/>
</g>
<!-- Node30 -->
<g id="node30" class="node">
<title>Node30</title>
<g id="a_node30"><a xlink:href="classAtcfLine.html#ad57a2b2bb9a17190f60c202bcc91f7c1" target="_top" xlink:title=" ">
<polygon fill="white" stroke="black" points="152,-190.5 152,-209.5 198,-209.5 198,-190.5 152,-190.5"/>
<text text-anchor="middle" x="175" y="-197.5" font-family="Helvetica,sans-Serif" font-size="10.00">setTau</text>
</a>
</g>
</g>
<!-- Node1&#45;&gt;Node30 -->
<g id="edge32" class="edge">
<title>Node1&#45;&gt;Node30</title>
<path fill="none" stroke="midnightblue" d="M39.63,-437.16C40.65,-402.17 48.87,-282.5 113,-219 120.74,-211.33 131.53,-206.75 141.88,-204.02"/>
<polygon fill="midnightblue" stroke="midnightblue" points="142.92,-207.38 151.96,-201.85 141.45,-200.53 142.92,-207.38"/>
</g>
<!-- Node31 -->
<g id="node31" class="node">
<title>Node31</title>
<g id="a_node31"><a xlink:href="classAtcfLine.html#a70da9c9b2893017befb42f0692c0de03" target="_top" xlink:title=" ">
<polygon fill="white" stroke="black" points="305.5,-171.5 305.5,-190.5 335.5,-190.5 335.5,-171.5 305.5,-171.5"/>
<text text-anchor="middle" x="320.5" y="-178.5" font-family="Helvetica,sans-Serif" font-size="10.00">tau</text>
</a>
</g>
</g>
<!-- Node1&#45;&gt;Node31 -->
<g id="edge41" class="edge">
<title>Node1&#45;&gt;Node31</title>
<path fill="none" stroke="midnightblue" d="M40.62,-437.39C45.94,-393.58 70.21,-213.57 113,-181 167.04,-139.86 254.19,-159.61 295.84,-172.66"/>
<polygon fill="midnightblue" stroke="midnightblue" points="294.81,-176 305.41,-175.79 296.99,-169.35 294.81,-176"/>
</g>
<!-- Node32 -->
<g id="node32" class="node">
<title>Node32</title>
<g id="a_node32"><a xlink:href="classAtcfLine.html#a4fa34cd3a6f778e4403e176ea1f3541f" target="_top" xlink:title=" ">
<polygon fill="white" stroke="black" points="140,-114.5 140,-133.5 210,-133.5 210,-114.5 140,-114.5"/>
<text text-anchor="middle" x="175" y="-121.5" font-family="Helvetica,sans-Serif" font-size="10.00">setTechnum</text>
</a>
</g>
</g>
<!-- Node1&#45;&gt;Node32 -->
<g id="edge34" class="edge">
<title>Node1&#45;&gt;Node32</title>
<path fill="none" stroke="midnightblue" d="M40.69,-437.21C46.52,-390.81 73.33,-193.37 113,-148 117.68,-142.65 123.71,-138.48 130.15,-135.23"/>
<polygon fill="midnightblue" stroke="midnightblue" points="131.96,-138.26 139.78,-131.11 129.21,-131.83 131.96,-138.26"/>
</g>
<!-- Node34 -->
<g id="node34" class="node">
<title>Node34</title>
<g id="a_node34"><a xlink:href="classAtcfLine.html#abdb3c2bffc3702fa3e4f9536d9f541f3" target="_top" xlink:title=" ">
<polygon fill="white" stroke="black" points="137.5,-76.5 137.5,-95.5 212.5,-95.5 212.5,-76.5 137.5,-76.5"/>
<text text-anchor="middle" x="175" y="-83.5" font-family="Helvetica,sans-Serif" font-size="10.00">setTechstring</text>
</a>
</g>
</g>
<!-- Node1&#45;&gt;Node34 -->
<g id="edge36" class="edge">
<title>Node1&#45;&gt;Node34</title>
<path fill="none" stroke="midnightblue" d="M40.27,-437.46C44.48,-387.46 66.3,-156.11 113,-105 117.07,-100.54 122.17,-97.12 127.68,-94.49"/>
<polygon fill="midnightblue" stroke="midnightblue" points="129.17,-97.67 137.22,-90.79 126.63,-91.15 129.17,-97.67"/>
</g>
<!-- Node36 -->
<g id="node36" class="node">
<title>Node36</title>
<g id="a_node36"><a xlink:href="classAtcfLine.html#a946c6bb3652bb5510a52cd7e7f22fac7" target="_top" xlink:title=" ">
<polygon fill="white" stroke="black" points="147,-38.5 147,-57.5 203,-57.5 203,-38.5 147,-38.5"/>
<text text-anchor="middle" x="175" y="-45.5" font-family="Helvetica,sans-Serif" font-size="10.00">setVmax</text>
</a>
</g>
</g>
<!-- Node1&#45;&gt;Node36 -->
<g id="edge38" class="edge">
<title>Node1&#45;&gt;Node36</title>
<path fill="none" stroke="midnightblue" d="M40.05,-437.47C43.28,-384.3 61.58,-124.46 113,-67 119.3,-59.96 128.16,-55.5 137.18,-52.68"/>
<polygon fill="midnightblue" stroke="midnightblue" points="138.08,-56.07 146.92,-50.23 136.37,-49.28 138.08,-56.07"/>
</g>
<!-- Node38 -->
<g id="node38" class="node">
<title>Node38</title>
<g id="a_node38"><a xlink:href="classAtcfLine.html#a86d591997eedb1660c07467b712d6bbc" target="_top" xlink:title=" ">
<polygon fill="white" stroke="black" points="145,-0.5 145,-19.5 205,-19.5 205,-0.5 145,-0.5"/>
<text text-anchor="middle" x="175" y="-7.5" font-family="Helvetica,sans-Serif" font-size="10.00">splitString</text>
</a>
</g>
</g>
<!-- Node1&#45;&gt;Node38 -->
<g id="edge40" class="edge">
<title>Node1&#45;&gt;Node38</title>
<path fill="none" stroke="midnightblue" d="M39.87,-437.28C42.24,-380.58 56.91,-92.76 113,-29 118.79,-22.42 126.82,-18.09 135.16,-15.25"/>
<polygon fill="midnightblue" stroke="midnightblue" points="136.26,-18.58 144.97,-12.55 134.4,-11.83 136.26,-18.58"/>
</g>
<!-- Node5 -->
<g id="node5" class="node">
<title>Node5</title>
<g id="a_node5"><a xlink:href="classIsotach.html#a60ce77aeb249510471495cc63a7793da" target="_top" xlink:title=" ">
<polygon fill="white" stroke="black" points="282.5,-798.5 282.5,-817.5 358.5,-817.5 358.5,-798.5 282.5,-798.5"/>
<text text-anchor="middle" x="320.5" y="-805.5" font-family="Helvetica,sans-Serif" font-size="10.00">Isotach::code</text>
</a>
</g>
</g>
<!-- Node4&#45;&gt;Node5 -->
<g id="edge4" class="edge">
<title>Node4&#45;&gt;Node5</title>
<path fill="none" stroke="midnightblue" d="M237.27,-808C249.05,-808 261.22,-808 272.46,-808"/>
<polygon fill="midnightblue" stroke="midnightblue" points="272.49,-811.5 282.49,-808 272.49,-804.5 272.49,-811.5"/>
</g>
<!-- Node7 -->
<g id="node7" class="node">
<title>Node7</title>
<g id="a_node7"><a xlink:href="namespacePhysical.html#ac3ebcf4f7617c5c5a57bc9bd2b95e0db" target="_top" xlink:title=" ">
<polygon fill="white" stroke="black" points="277,-760.5 277,-779.5 364,-779.5 364,-760.5 277,-760.5"/>
<text text-anchor="middle" x="320.5" y="-767.5" font-family="Helvetica,sans-Serif" font-size="10.00">Physical::ms2kt</text>
</a>
</g>
</g>
<!-- Node6&#45;&gt;Node7 -->
<g id="edge6" class="edge">
<title>Node6&#45;&gt;Node7</title>
<path fill="none" stroke="midnightblue" d="M218.67,-770C233.71,-770 250.81,-770 266.6,-770"/>
<polygon fill="midnightblue" stroke="midnightblue" points="266.75,-773.5 276.75,-770 266.75,-766.5 266.75,-773.5"/>
</g>
<!-- Node11 -->
<g id="node11" class="node">
<title>Node11</title>
<g id="a_node11"><a xlink:href="namespacePhysical.html#a4a42ec86e2054ee5fdcfbef26042513b" target="_top" xlink:title=" ">
<polygon fill="white" stroke="black" points="273,-646.5 273,-665.5 368,-665.5 368,-646.5 273,-646.5"/>
<text text-anchor="middle" x="320.5" y="-653.5" font-family="Helvetica,sans-Serif" font-size="10.00">Physical::km2nmi</text>
</a>
</g>
</g>
<!-- Node10&#45;&gt;Node11 -->
<g id="edge10" class="edge">
<title>Node10&#45;&gt;Node11</title>
<path fill="none" stroke="midnightblue" d="M222.59,-656C235.25,-656 249.1,-656 262.27,-656"/>
<polygon fill="midnightblue" stroke="midnightblue" points="262.65,-659.5 272.65,-656 262.65,-652.5 262.65,-659.5"/>
</g>
<!-- Node14 -->
<g id="node14" class="node">
<title>Node14</title>
<g id="a_node14"><a xlink:href="classAtcfLine.html#a757a667960cf8420a7d565899ba74dd5" target="_top" xlink:title=" ">
<polygon fill="white" stroke="black" points="300.5,-494.5 300.5,-513.5 340.5,-513.5 340.5,-494.5 300.5,-494.5"/>
<text text-anchor="middle" x="320.5" y="-501.5" font-family="Helvetica,sans-Serif" font-size="10.00">basin</text>
</a>
</g>
</g>
<!-- Node13&#45;&gt;Node14 -->
<g id="edge13" class="edge">
<title>Node13&#45;&gt;Node14</title>
<path fill="none" stroke="midnightblue" d="M202.65,-504C227.48,-504 264.41,-504 290.08,-504"/>
<polygon fill="midnightblue" stroke="midnightblue" points="290.33,-507.5 300.33,-504 290.33,-500.5 290.33,-507.5"/>
</g>
<!-- Node16 -->
<g id="node16" class="node">
<title>Node16</title>
<g id="a_node16"><a xlink:href="classAtcfLine.html#afcbce102d14966134f6a19e60597c61c" target="_top" xlink:title=" ">
<polygon fill="white" stroke="black" points="278,-456.5 278,-475.5 363,-475.5 363,-456.5 278,-456.5"/>
<text text-anchor="middle" x="320.5" y="-463.5" font-family="Helvetica,sans-Serif" font-size="10.00">cycloneNumber</text>
</a>
</g>
</g>
<!-- Node15&#45;&gt;Node16 -->
<g id="edge15" class="edge">
<title>Node15&#45;&gt;Node16</title>
<path fill="none" stroke="midnightblue" d="M225.79,-466C239.33,-466 254.04,-466 267.69,-466"/>
<polygon fill="midnightblue" stroke="midnightblue" points="267.89,-469.5 277.89,-466 267.89,-462.5 267.89,-469.5"/>
</g>
<!-- Node18 -->
<g id="node18" class="node">
<title>Node18</title>
<g id="a_node18"><a xlink:href="classAtcfLine.html#a31f99dd6bb56e7b2cb4ebbc3a850a8f5" target="_top" xlink:title=" ">
<polygon fill="white" stroke="black" points="293.5,-399.5 293.5,-418.5 347.5,-418.5 347.5,-399.5 293.5,-399.5"/>
<text text-anchor="middle" x="320.5" y="-406.5" font-family="Helvetica,sans-Serif" font-size="10.00">datetime</text>
</a>
</g>
</g>
<!-- Node17&#45;&gt;Node18 -->
<g id="edge17" class="edge">
<title>Node17&#45;&gt;Node18</title>
<path fill="none" stroke="midnightblue" d="M210.01,-423.5C232.04,-420.58 260.72,-416.78 283.2,-413.81"/>
<polygon fill="midnightblue" stroke="midnightblue" points="283.91,-417.24 293.36,-412.46 282.99,-410.3 283.91,-417.24"/>
</g>
<!-- Node19&#45;&gt;Node8 -->
<g id="edge19" class="edge">
<title>Node19&#45;&gt;Node8</title>
<path fill="none" stroke="midnightblue" d="M197.17,-696.8C223.49,-700.29 268.26,-706.22 295.73,-709.85"/>
<polygon fill="midnightblue" stroke="midnightblue" points="295.63,-713.37 306,-711.21 296.55,-706.43 295.63,-713.37"/>
</g>
<!-- Node20&#45;&gt;Node9 -->
<g id="edge21" class="edge">
<title>Node20&#45;&gt;Node9</title>
<path fill="none" stroke="midnightblue" d="M198.11,-577.07C224.5,-573.58 268.48,-567.76 295.63,-564.16"/>
<polygon fill="midnightblue" stroke="midnightblue" points="296.35,-567.6 305.8,-562.81 295.43,-560.66 296.35,-567.6"/>
</g>
<!-- Node22 -->
<g id="node22" class="node">
<title>Node22</title>
<g id="a_node22"><a xlink:href="classAtcfLine.html#a3edde0bc6afb6f2de5faed719ca41b52" target="_top" xlink:title=" ">
<polygon fill="white" stroke="black" points="301.5,-342.5 301.5,-361.5 339.5,-361.5 339.5,-342.5 301.5,-342.5"/>
<text text-anchor="middle" x="320.5" y="-349.5" font-family="Helvetica,sans-Serif" font-size="10.00">mslp</text>
</a>
</g>
</g>
<!-- Node21&#45;&gt;Node22 -->
<g id="edge23" class="edge">
<title>Node21&#45;&gt;Node22</title>
<path fill="none" stroke="midnightblue" d="M200.67,-352C225.74,-352 264.55,-352 290.94,-352"/>
<polygon fill="midnightblue" stroke="midnightblue" points="291.07,-355.5 301.07,-352 291.07,-348.5 291.07,-355.5"/>
</g>
<!-- Node24 -->
<g id="node24" class="node">
<title>Node24</title>
<g id="a_node24"><a xlink:href="classAtcfLine.html#a666b44934c6c535221a830365097c42d" target="_top" xlink:title=" ">
<polygon fill="white" stroke="black" points="298.5,-304.5 298.5,-323.5 342.5,-323.5 342.5,-304.5 298.5,-304.5"/>
<text text-anchor="middle" x="320.5" y="-311.5" font-family="Helvetica,sans-Serif" font-size="10.00">pouter</text>
</a>
</g>
</g>
<!-- Node23&#45;&gt;Node24 -->
<g id="edge25" class="edge">
<title>Node23&#45;&gt;Node24</title>
<path fill="none" stroke="midnightblue" d="M204.69,-314C228.88,-314 263.43,-314 288.31,-314"/>
<polygon fill="midnightblue" stroke="midnightblue" points="288.31,-317.5 298.31,-314 288.31,-310.5 288.31,-317.5"/>
</g>
<!-- Node26 -->
<g id="node26" class="node">
<title>Node26</title>
<g id="a_node26"><a xlink:href="classAtcfLine.html#ad2910e96b46c135de328985b5afac3cb" target="_top" xlink:title=" ">
<polygon fill="white" stroke="black" points="276,-266.5 276,-285.5 365,-285.5 365,-266.5 276,-266.5"/>
<text text-anchor="middle" x="320.5" y="-273.5" font-family="Helvetica,sans-Serif" font-size="10.00">radiusMaxWinds</text>
</a>
</g>
</g>
<!-- Node25&#45;&gt;Node26 -->
<g id="edge27" class="edge">
<title>Node25&#45;&gt;Node26</title>
<path fill="none" stroke="midnightblue" d="M228.62,-276C240.74,-276 253.65,-276 265.82,-276"/>
<polygon fill="midnightblue" stroke="midnightblue" points="265.83,-279.5 275.83,-276 265.83,-272.5 265.83,-279.5"/>
</g>
<!-- Node28 -->
<g id="node28" class="node">
<title>Node28</title>
<g id="a_node28"><a xlink:href="classAtcfLine.html#a6ac5cb831a411289763eecc6f40e7722" target="_top" xlink:title=" ">
<polygon fill="white" stroke="black" points="285,-228.5 285,-247.5 356,-247.5 356,-228.5 285,-228.5"/>
<text text-anchor="middle" x="320.5" y="-235.5" font-family="Helvetica,sans-Serif" font-size="10.00">radiusPouter</text>
</a>
</g>
</g>
<!-- Node27&#45;&gt;Node28 -->
<g id="edge29" class="edge">
<title>Node27&#45;&gt;Node28</title>
<path fill="none" stroke="midnightblue" d="M219.83,-238C237.04,-238 256.77,-238 274.12,-238"/>
<polygon fill="midnightblue" stroke="midnightblue" points="274.57,-241.5 284.57,-238 274.57,-234.5 274.57,-241.5"/>
</g>
<!-- Node29&#45;&gt;Node18 -->
<g id="edge31" class="edge">
<title>Node29&#45;&gt;Node18</title>
<path fill="none" stroke="midnightblue" d="M232.71,-397.51C249.77,-399.77 268.02,-402.18 283.36,-404.21"/>
<polygon fill="midnightblue" stroke="midnightblue" points="283.09,-407.71 293.46,-405.55 284.01,-400.77 283.09,-407.71"/>
</g>
<!-- Node30&#45;&gt;Node31 -->
<g id="edge33" class="edge">
<title>Node30&#45;&gt;Node31</title>
<path fill="none" stroke="midnightblue" d="M198.11,-197.07C224.36,-193.6 268.02,-187.82 295.2,-184.22"/>
<polygon fill="midnightblue" stroke="midnightblue" points="295.96,-187.65 305.41,-182.87 295.04,-180.71 295.96,-187.65"/>
</g>
<!-- Node33 -->
<g id="node33" class="node">
<title>Node33</title>
<g id="a_node33"><a xlink:href="classAtcfLine.html#a04d3a69396be284937b47a975ea8e179" target="_top" xlink:title=" ">
<polygon fill="white" stroke="black" points="293.5,-114.5 293.5,-133.5 347.5,-133.5 347.5,-114.5 293.5,-114.5"/>
<text text-anchor="middle" x="320.5" y="-121.5" font-family="Helvetica,sans-Serif" font-size="10.00">technum</text>
</a>
</g>
</g>
<!-- Node32&#45;&gt;Node33 -->
<g id="edge35" class="edge">
<title>Node32&#45;&gt;Node33</title>
<path fill="none" stroke="midnightblue" d="M210.01,-124C232.04,-124 260.72,-124 283.2,-124"/>
<polygon fill="midnightblue" stroke="midnightblue" points="283.36,-127.5 293.36,-124 283.36,-120.5 283.36,-127.5"/>
</g>
<!-- Node35 -->
<g id="node35" class="node">
<title>Node35</title>
<g id="a_node35"><a xlink:href="classAtcfLine.html#ac66e05fdb0a5d757bf0e7d34ecfe6b4b" target="_top" xlink:title=" ">
<polygon fill="white" stroke="black" points="291,-76.5 291,-95.5 350,-95.5 350,-76.5 291,-76.5"/>
<text text-anchor="middle" x="320.5" y="-83.5" font-family="Helvetica,sans-Serif" font-size="10.00">techstring</text>
</a>
</g>
</g>
<!-- Node34&#45;&gt;Node35 -->
<g id="edge37" class="edge">
<title>Node34&#45;&gt;Node35</title>
<path fill="none" stroke="midnightblue" d="M212.58,-86C233.33,-86 259.28,-86 280.42,-86"/>
<polygon fill="midnightblue" stroke="midnightblue" points="280.67,-89.5 290.67,-86 280.67,-82.5 280.67,-89.5"/>
</g>
<!-- Node37 -->
<g id="node37" class="node">
<title>Node37</title>
<g id="a_node37"><a xlink:href="classAtcfLine.html#a0ab834110d8e43facd39af7df53c8c22" target="_top" xlink:title=" ">
<polygon fill="white" stroke="black" points="300,-38.5 300,-57.5 341,-57.5 341,-38.5 300,-38.5"/>
<text text-anchor="middle" x="320.5" y="-45.5" font-family="Helvetica,sans-Serif" font-size="10.00">vmax</text>
</a>
</g>
</g>
<!-- Node36&#45;&gt;Node37 -->
<g id="edge39" class="edge">
<title>Node36&#45;&gt;Node37</title>
<path fill="none" stroke="midnightblue" d="M203.33,-48C227.95,-48 264.07,-48 289.49,-48"/>
<polygon fill="midnightblue" stroke="midnightblue" points="289.66,-51.5 299.66,-48 289.66,-44.5 289.66,-51.5"/>
</g>
</g>
</svg>
        <g id="navigator" transform="translate(0 0)" fill="#404254">
                <rect fill="#f2f5e9" fill-opacity="0.5" stroke="#606060" stroke-width=".5" x="0" y="0" width="60" height="60"/>
                <use id="zoomplus" xlink:href="#zoomPlus" x="17" y="9" onmousedown="handleZoom(evt,'in')"/>
                <use id="zoomminus" xlink:href="#zoomMin" x="42" y="9" onmousedown="handleZoom(evt,'out')"/>
                <use id="reset" xlink:href="#resetDef" x="30" y="36" onmousedown="handleReset()"/>
                <g id="arrowUp" xlink:href="#dirArrow" transform="translate(30 24)" onmousedown="handlePan(0,-1)">
                  <use xlink:href="#rim" fill="#404040">
                        <set attributeName="fill" to="#808080" begin="arrowUp.mouseover" end="arrowUp.mouseout"/>
                  </use>
                  <path fill="none" stroke="white" stroke-width="1.5" d="M0,-3.0v7 M-2.5,-0.5L0,-3.0L2.5,-0.5"/>
                </g>
                <g id="arrowRight" xlink:href="#dirArrow" transform="rotate(90) translate(36 -43)" onmousedown="handlePan(1,0)">
                  <use xlink:href="#rim" fill="#404040">
                        <set attributeName="fill" to="#808080" begin="arrowRight.mouseover" end="arrowRight.mouseout"/>
                  </use>
                  <path fill="none" stroke="white" stroke-width="1.5" d="M0,-3.0v7 M-2.5,-0.5L0,-3.0L2.5,-0.5"/>
                </g>
                <g id="arrowDown" xlink:href="#dirArrow" transform="rotate(180) translate(-30 -48)" onmousedown="handlePan(0,1)">
                  <use xlink:href="#rim" fill="#404040">
                        <set attributeName="fill" to="#808080" begin="arrowDown.mouseover" end="arrowDown.mouseout"/>
                  </use>
                  <path fill="none" stroke="white" stroke-width="1.5" d="M0,-3.0v7 M-2.5,-0.5L0,-3.0L2.5,-0.5"/>
                </g>
                <g id="arrowLeft" xlink:href="#dirArrow" transform="rotate(270) translate(-36 17)" onmousedown="handlePan(-1,0)">
                  <use xlink:href="#rim" fill="#404040">
                        <set attributeName="fill" to="#808080" begin="arrowLeft.mouseover" end="arrowLeft.mouseout"/>
                  </use>
                  <path fill="none" stroke="white" stroke-width="1.5" d="M0,-3.0v7 M-2.5,-0.5L0,-3.0L2.5,-0.5"/>
                </g>
        </g>
        <svg viewBox="0 0 15 15" width="100%" height="30px" preserveAspectRatio="xMaxYMin meet">
         <g id="arrow_out" transform="scale(0.3 0.3)">
          <a xlink:href="classAtcfLine_a669437f8facd47f46097adc21d0d497b_cgraph_org.svg" target="_base">
           <rect id="button" ry="5" rx="5" y="6" x="6" height="38" width="38"
                fill="#f2f5e9" fill-opacity="0.5" stroke="#606060" stroke-width="1.0"/>
           <path id="arrow"
             d="M 11.500037,31.436501 C 11.940474,20.09759 22.043105,11.32322 32.158766,21.979434 L 37.068811,17.246167 C 37.068811,17.246167 37.088388,32 37.088388,32 L 22.160133,31.978069 C 22.160133,31.978069 26.997745,27.140456 26.997745,27.140456 C 18.528582,18.264221 13.291696,25.230495 11.500037,31.436501 z"
             style="fill:#404040;"/>
          </a>
         </g>
        </svg>
</svg>
