<?xml version="1.0" encoding="UTF-8" standalone="no"?>
<!DOCTYPE svg PUBLIC "-//W3C//DTD SVG 1.1//EN"
 "http://www.w3.org/Graphics/SVG/1.1/DTD/svg11.dtd">
<!-- Generated by graphviz version 2.47.1 (20210417.1919)
 -->
<!-- Title: operator&lt; Pages: 1 -->
<svg width="205pt" height="142pt"
 viewBox="0.00 0.00 205.00 142.00" xmlns="http://www.w3.org/2000/svg" xmlns:xlink="http://www.w3.org/1999/xlink">
<g id="graph0" class="graph" transform="scale(1 1) rotate(0) translate(4 138)">
<title>operator&lt;</title>
<polygon fill="white" stroke="transparent" points="-4,4 -4,-138 201,-138 201,4 -4,4"/>
<!-- Node1 -->
<g id="node1" class="node">
<title>Node1</title>
<g id="a_node1"><a xlink:title=" ">
<polygon fill="#bfbfbf" stroke="black" points="0,-57.5 0,-76.5 58,-76.5 58,-57.5 0,-57.5"/>
<text text-anchor="middle" x="29" y="-64.5" font-family="Helvetica,sans-Serif" font-size="10.00">operator&lt;</text>
</a>
</g>
</g>
<!-- Node2 -->
<g id="node2" class="node">
<title>Node2</title>
<g id="a_node2"><a xlink:href="classAtcfLine.html#af02cbe832e0a7a708e691fff2b48ebc4" target="_top" xlink:title=" ">
<polygon fill="white" stroke="black" points="119,-114.5 119,-133.5 172,-133.5 172,-114.5 119,-114.5"/>
<text text-anchor="middle" x="145.5" y="-121.5" font-family="Helvetica,sans-Serif" font-size="10.00">cisotach</text>
</a>
</g>
</g>
<!-- Node1&#45;&gt;Node2 -->
<g id="edge1" class="edge">
<title>Node1&#45;&gt;Node2</title>
<path fill="none" stroke="midnightblue" d="M44.34,-76.51C57.05,-84.69 76.3,-96.49 94,-105 98.96,-107.38 104.3,-109.67 109.59,-111.79"/>
<polygon fill="midnightblue" stroke="midnightblue" points="108.37,-115.07 118.96,-115.38 110.88,-108.53 108.37,-115.07"/>
</g>
<!-- Node3 -->
<g id="node3" class="node">
<title>Node3</title>
<g id="a_node3"><a xlink:href="classAtcfLine.html#a31f99dd6bb56e7b2cb4ebbc3a850a8f5" target="_top" xlink:title=" ">
<polygon fill="white" stroke="black" points="118.5,-76.5 118.5,-95.5 172.5,-95.5 172.5,-76.5 118.5,-76.5"/>
<text text-anchor="middle" x="145.5" y="-83.5" font-family="Helvetica,sans-Serif" font-size="10.00">datetime</text>
</a>
</g>
</g>
<!-- Node1&#45;&gt;Node3 -->
<g id="edge2" class="edge">
<title>Node1&#45;&gt;Node3</title>
<path fill="none" stroke="midnightblue" d="M58.01,-71.65C73.11,-74.15 91.91,-77.27 108.13,-79.97"/>
<polygon fill="midnightblue" stroke="midnightblue" points="107.91,-83.48 118.35,-81.66 109.06,-76.57 107.91,-83.48"/>
</g>
<!-- Node4 -->
<g id="node4" class="node">
<title>Node4</title>
<g id="a_node4"><a xlink:href="classAtcfLine.html#a5ddd67c4d868875c52ed1396c58dd6a7" target="_top" xlink:title=" ">
<polygon fill="white" stroke="black" points="118.5,-38.5 118.5,-57.5 172.5,-57.5 172.5,-38.5 118.5,-38.5"/>
<text text-anchor="middle" x="145.5" y="-45.5" font-family="Helvetica,sans-Serif" font-size="10.00">nIsotach</text>
</a>
</g>
</g>
<!-- Node1&#45;&gt;Node4 -->
<g id="edge3" class="edge">
<title>Node1&#45;&gt;Node4</title>
<path fill="none" stroke="midnightblue" d="M58.01,-62.35C73.11,-59.85 91.91,-56.73 108.13,-54.03"/>
<polygon fill="midnightblue" stroke="midnightblue" points="109.06,-57.43 118.35,-52.34 107.91,-50.52 109.06,-57.43"/>
</g>
<!-- Node5 -->
<g id="node5" class="node">
<title>Node5</title>
<g id="a_node5"><a xlink:href="classIsotach.html#a90b55241f6d0ff34cfb78229a7ffacf7" target="_top" xlink:title=" ">
<polygon fill="white" stroke="black" points="94,-0.5 94,-19.5 197,-19.5 197,-0.5 94,-0.5"/>
<text text-anchor="middle" x="145.5" y="-7.5" font-family="Helvetica,sans-Serif" font-size="10.00">Isotach::windSpeed</text>
</a>
</g>
</g>
<!-- Node1&#45;&gt;Node5 -->
<g id="edge4" class="edge">
<title>Node1&#45;&gt;Node5</title>
<path fill="none" stroke="midnightblue" d="M44.34,-57.49C57.05,-49.31 76.3,-37.51 94,-29 98.1,-27.03 102.46,-25.12 106.84,-23.33"/>
<polygon fill="midnightblue" stroke="midnightblue" points="108.32,-26.51 116.35,-19.59 105.76,-19.99 108.32,-26.51"/>
</g>
</g>
</svg>
