<?xml version="1.0" encoding="UTF-8" standalone="no"?>
<!DOCTYPE svg PUBLIC "-//W3C//DTD SVG 1.1//EN"
 "http://www.w3.org/Graphics/SVG/1.1/DTD/svg11.dtd">
<!-- Generated by graphviz version 2.47.1 (20210417.1919)
 -->
<!-- Title: getParameterValue Pages: 1 -->
<svg width="375pt" height="186pt"
 viewBox="0.00 0.00 375.00 185.50" xmlns="http://www.w3.org/2000/svg" xmlns:xlink="http://www.w3.org/1999/xlink">
<g id="graph0" class="graph" transform="scale(1 1) rotate(0) translate(4 181.5)">
<title>getParameterValue</title>
<polygon fill="white" stroke="transparent" points="-4,4 -4,-181.5 371,-181.5 371,4 -4,4"/>
<!-- Node1 -->
<g id="node1" class="node">
<title>Node1</title>
<g id="a_node1"><a xlink:title=" ">
<polygon fill="#bfbfbf" stroke="black" points="0,-76.5 0,-95.5 99,-95.5 99,-76.5 0,-76.5"/>
<text text-anchor="middle" x="49.5" y="-83.5" font-family="Helvetica,sans-Serif" font-size="10.00">getParameterValue</text>
</a>
</g>
</g>
<!-- Node2 -->
<g id="node2" class="node">
<title>Node2</title>
<g id="a_node2"><a xlink:href="classCircularArray.html#a0642b8def16b83c1fff8f93326d2c842" target="_top" xlink:title=" ">
<polygon fill="white" stroke="black" points="140,-152.5 140,-171.5 228,-171.5 228,-152.5 140,-152.5"/>
<text text-anchor="middle" x="184" y="-159.5" font-family="Helvetica,sans-Serif" font-size="10.00">CircularArray::at</text>
</a>
</g>
</g>
<!-- Node1&#45;&gt;Node2 -->
<g id="edge1" class="edge">
<title>Node1&#45;&gt;Node2</title>
<path fill="none" stroke="midnightblue" d="M62.85,-95.59C78.85,-107.71 107.92,-128.72 135,-143 138.7,-144.95 142.65,-146.82 146.63,-148.58"/>
<polygon fill="midnightblue" stroke="midnightblue" points="145.3,-151.82 155.88,-152.45 148.01,-145.36 145.3,-151.82"/>
</g>
<!-- Node4 -->
<g id="node4" class="node">
<title>Node4</title>
<g id="a_node4"><a xlink:href="classIsotach.html#a6d338c7499d8278c978770bd67c1a736" target="_top" xlink:title=" ">
<polygon fill="white" stroke="black" points="135,-114.5 135,-133.5 233,-133.5 233,-114.5 135,-114.5"/>
<text text-anchor="middle" x="184" y="-121.5" font-family="Helvetica,sans-Serif" font-size="10.00">Isotach::chollandB</text>
</a>
</g>
</g>
<!-- Node1&#45;&gt;Node4 -->
<g id="edge3" class="edge">
<title>Node1&#45;&gt;Node4</title>
<path fill="none" stroke="midnightblue" d="M83.94,-95.59C100.88,-100.45 121.66,-106.41 139.81,-111.61"/>
<polygon fill="midnightblue" stroke="midnightblue" points="139,-115.02 149.58,-114.41 140.93,-108.29 139,-115.02"/>
</g>
<!-- Node5 -->
<g id="node5" class="node">
<title>Node5</title>
<g id="a_node5"><a xlink:href="classAtcfLine.html#af02cbe832e0a7a708e691fff2b48ebc4" target="_top" xlink:title=" ">
<polygon fill="white" stroke="black" points="136.5,-76.5 136.5,-95.5 231.5,-95.5 231.5,-76.5 136.5,-76.5"/>
<text text-anchor="middle" x="184" y="-83.5" font-family="Helvetica,sans-Serif" font-size="10.00">AtcfLine::cisotach</text>
</a>
</g>
</g>
<!-- Node1&#45;&gt;Node5 -->
<g id="edge4" class="edge">
<title>Node1&#45;&gt;Node5</title>
<path fill="none" stroke="midnightblue" d="M99.09,-86C107.89,-86 117.14,-86 126.15,-86"/>
<polygon fill="midnightblue" stroke="midnightblue" points="126.19,-89.5 136.19,-86 126.19,-82.5 126.19,-89.5"/>
</g>
<!-- Node6 -->
<g id="node6" class="node">
<title>Node6</title>
<g id="a_node6"><a xlink:href="classIsotach.html#a74b6f4ea56932aa328ae0292db11a2e6" target="_top" xlink:title=" ">
<polygon fill="white" stroke="black" points="143,-38.5 143,-57.5 225,-57.5 225,-38.5 143,-38.5"/>
<text text-anchor="middle" x="184" y="-45.5" font-family="Helvetica,sans-Serif" font-size="10.00">Isotach::crmax</text>
</a>
</g>
</g>
<!-- Node1&#45;&gt;Node6 -->
<g id="edge5" class="edge">
<title>Node1&#45;&gt;Node6</title>
<path fill="none" stroke="midnightblue" d="M83.94,-76.41C100.88,-71.55 121.66,-65.59 139.81,-60.39"/>
<polygon fill="midnightblue" stroke="midnightblue" points="140.93,-63.71 149.58,-57.59 139,-56.98 140.93,-63.71"/>
</g>
<!-- Node7 -->
<g id="node7" class="node">
<title>Node7</title>
<g id="a_node7"><a xlink:href="classIsotach.html#ae34699ed432e270b9857a4968684a14e" target="_top" xlink:title=" ">
<polygon fill="white" stroke="black" points="137.5,-0.5 137.5,-19.5 230.5,-19.5 230.5,-0.5 137.5,-0.5"/>
<text text-anchor="middle" x="184" y="-7.5" font-family="Helvetica,sans-Serif" font-size="10.00">Isotach::cvmaxBl</text>
</a>
</g>
</g>
<!-- Node1&#45;&gt;Node7 -->
<g id="edge6" class="edge">
<title>Node1&#45;&gt;Node7</title>
<path fill="none" stroke="midnightblue" d="M62.85,-76.41C78.85,-64.29 107.92,-43.28 135,-29 138.7,-27.05 142.65,-25.18 146.63,-23.42"/>
<polygon fill="midnightblue" stroke="midnightblue" points="148.01,-26.64 155.88,-19.55 145.3,-20.18 148.01,-26.64"/>
</g>
<!-- Node3 -->
<g id="node3" class="node">
<title>Node3</title>
<g id="a_node3"><a xlink:href="classCircularArray.html#ae9ee07d89dc4196acefc5b290b9275b8" target="_top" xlink:title=" ">
<polygon fill="white" stroke="black" points="269,-147 269,-177 367,-177 367,-147 269,-147"/>
<text text-anchor="start" x="277" y="-165" font-family="Helvetica,sans-Serif" font-size="10.00">CircularArray::mod</text>
<text text-anchor="middle" x="318" y="-154" font-family="Helvetica,sans-Serif" font-size="10.00">_floor</text>
</a>
</g>
</g>
<!-- Node2&#45;&gt;Node3 -->
<g id="edge2" class="edge">
<title>Node2&#45;&gt;Node3</title>
<path fill="none" stroke="midnightblue" d="M228.22,-162C237.92,-162 248.37,-162 258.57,-162"/>
<polygon fill="midnightblue" stroke="midnightblue" points="258.66,-165.5 268.66,-162 258.66,-158.5 258.66,-165.5"/>
</g>
</g>
</svg>
