<?xml version="1.0" encoding="UTF-8" standalone="no"?>
<!DOCTYPE svg PUBLIC "-//W3C//DTD SVG 1.1//EN"
 "http://www.w3.org/Graphics/SVG/1.1/DTD/svg11.dtd">
<!-- Generated by graphviz version 2.47.1 (20210417.1919)
 -->
<!-- Title: set Pages: 1 -->
<svg width="245pt" height="446pt"
 viewBox="0.00 0.00 245.00 446.00" xmlns="http://www.w3.org/2000/svg" xmlns:xlink="http://www.w3.org/1999/xlink">
<g id="graph0" class="graph" transform="scale(1 1) rotate(0) translate(4 442)">
<title>set</title>
<polygon fill="white" stroke="transparent" points="-4,4 -4,-442 241,-442 241,4 -4,4"/>
<!-- Node1 -->
<g id="node1" class="node">
<title>Node1</title>
<g id="a_node1"><a xlink:title=" ">
<polygon fill="#bfbfbf" stroke="black" points="207,-190.5 207,-209.5 237,-209.5 237,-190.5 207,-190.5"/>
<text text-anchor="middle" x="222" y="-197.5" font-family="Helvetica,sans-Serif" font-size="10.00">set</text>
</a>
</g>
</g>
<!-- Node2 -->
<g id="node2" class="node">
<title>Node2</title>
<g id="a_node2"><a xlink:href="classDate.html#aff49fc2cda4491ff4457ca481bb8edf9" target="_top" xlink:title=" ">
<polygon fill="white" stroke="black" points="112.5,-380.5 112.5,-399.5 150.5,-399.5 150.5,-380.5 112.5,-380.5"/>
<text text-anchor="middle" x="131.5" y="-387.5" font-family="Helvetica,sans-Serif" font-size="10.00">Date</text>
</a>
</g>
</g>
<!-- Node1&#45;&gt;Node2 -->
<g id="edge1" class="edge">
<title>Node1&#45;&gt;Node2</title>
<path fill="none" stroke="midnightblue" d="M220.23,-219.99C217.9,-254.61 208.52,-326.31 171,-371 165.73,-377.28 157.88,-381.67 150.64,-384.64"/>
<polygon fill="midnightblue" stroke="midnightblue" points="223.74,-219.94 220.78,-209.76 216.75,-219.56 223.74,-219.94"/>
</g>
<!-- Node6 -->
<g id="node6" class="node">
<title>Node6</title>
<g id="a_node6"><a xlink:href="classDate.html#aa8717be5b4ade61059440505d02085f8" target="_top" xlink:title=" ">
<polygon fill="white" stroke="black" points="99.5,-342.5 99.5,-361.5 163.5,-361.5 163.5,-342.5 99.5,-342.5"/>
<text text-anchor="middle" x="131.5" y="-349.5" font-family="Helvetica,sans-Serif" font-size="10.00">operator+=</text>
</a>
</g>
</g>
<!-- Node1&#45;&gt;Node6 -->
<g id="edge5" class="edge">
<title>Node1&#45;&gt;Node6</title>
<path fill="none" stroke="midnightblue" d="M218.22,-219.84C213.32,-248.12 200.69,-300.22 171,-333 167.6,-336.76 163.29,-339.86 158.79,-342.39"/>
<polygon fill="midnightblue" stroke="midnightblue" points="221.73,-220.04 219.83,-209.62 214.82,-218.95 221.73,-220.04"/>
</g>
<!-- Node7 -->
<g id="node7" class="node">
<title>Node7</title>
<g id="a_node7"><a xlink:href="classDate.html#aa4548fa30e403da3eb85251f7b898931" target="_top" xlink:title=" ">
<polygon fill="white" stroke="black" points="101,-304.5 101,-323.5 162,-323.5 162,-304.5 101,-304.5"/>
<text text-anchor="middle" x="131.5" y="-311.5" font-family="Helvetica,sans-Serif" font-size="10.00">operator&#45;=</text>
</a>
</g>
</g>
<!-- Node1&#45;&gt;Node7 -->
<g id="edge6" class="edge">
<title>Node1&#45;&gt;Node7</title>
<path fill="none" stroke="midnightblue" d="M214.92,-219.27C207.47,-240.2 193.05,-273.51 171,-295 167.16,-298.75 162.43,-301.89 157.62,-304.47"/>
<polygon fill="midnightblue" stroke="midnightblue" points="218.3,-220.17 218.18,-209.58 211.67,-217.94 218.3,-220.17"/>
</g>
<!-- Node8 -->
<g id="node8" class="node">
<title>Node8</title>
<g id="a_node8"><a xlink:href="classDate.html#ae69d24190a6caf2e331f44cd0f7a3530" target="_top" xlink:title=" ">
<polygon fill="white" stroke="black" points="116.5,-266.5 116.5,-285.5 146.5,-285.5 146.5,-266.5 116.5,-266.5"/>
<text text-anchor="middle" x="131.5" y="-273.5" font-family="Helvetica,sans-Serif" font-size="10.00">set</text>
</a>
</g>
</g>
<!-- Node1&#45;&gt;Node8 -->
<g id="edge7" class="edge">
<title>Node1&#45;&gt;Node8</title>
<path fill="none" stroke="midnightblue" d="M208.51,-217.59C199.21,-229.78 185.62,-245.78 171,-257 163.67,-262.63 154.41,-267.26 146.8,-270.54"/>
<polygon fill="midnightblue" stroke="midnightblue" points="211.36,-219.63 214.49,-209.51 205.73,-215.47 211.36,-219.63"/>
</g>
<!-- Node9 -->
<g id="node9" class="node">
<title>Node9</title>
<g id="a_node9"><a xlink:href="classDate.html#a45cfdbe97b09b42fa47714cd9610350b" target="_top" xlink:title=" ">
<polygon fill="white" stroke="black" points="107.5,-228.5 107.5,-247.5 155.5,-247.5 155.5,-228.5 107.5,-228.5"/>
<text text-anchor="middle" x="131.5" y="-235.5" font-family="Helvetica,sans-Serif" font-size="10.00">setDay</text>
</a>
</g>
</g>
<!-- Node1&#45;&gt;Node9 -->
<g id="edge8" class="edge">
<title>Node1&#45;&gt;Node9</title>
<path fill="none" stroke="midnightblue" d="M197.37,-210.15C184.1,-215.84 167.65,-222.91 154.63,-228.5"/>
<polygon fill="midnightblue" stroke="midnightblue" points="198.97,-213.27 206.78,-206.11 196.21,-206.83 198.97,-213.27"/>
</g>
<!-- Node10 -->
<g id="node10" class="node">
<title>Node10</title>
<g id="a_node10"><a xlink:href="classDate.html#a738a67855699ffa60e5c54e0eccddd35" target="_top" xlink:title=" ">
<polygon fill="white" stroke="black" points="106,-190.5 106,-209.5 157,-209.5 157,-190.5 106,-190.5"/>
<text text-anchor="middle" x="131.5" y="-197.5" font-family="Helvetica,sans-Serif" font-size="10.00">setHour</text>
</a>
</g>
</g>
<!-- Node1&#45;&gt;Node10 -->
<g id="edge9" class="edge">
<title>Node1&#45;&gt;Node10</title>
<path fill="none" stroke="midnightblue" d="M196.74,-200C184.4,-200 169.43,-200 157.05,-200"/>
<polygon fill="midnightblue" stroke="midnightblue" points="196.78,-203.5 206.78,-200 196.78,-196.5 196.78,-203.5"/>
</g>
<!-- Node11 -->
<g id="node11" class="node">
<title>Node11</title>
<g id="a_node11"><a xlink:href="classDate.html#a9d65d72b12c17c5f20fb7ed85d8a1de7" target="_top" xlink:title=" ">
<polygon fill="white" stroke="black" points="92,-152.5 92,-171.5 171,-171.5 171,-152.5 92,-152.5"/>
<text text-anchor="middle" x="131.5" y="-159.5" font-family="Helvetica,sans-Serif" font-size="10.00">setMillisecond</text>
</a>
</g>
</g>
<!-- Node1&#45;&gt;Node11 -->
<g id="edge10" class="edge">
<title>Node1&#45;&gt;Node11</title>
<path fill="none" stroke="midnightblue" d="M197.37,-189.85C184.1,-184.16 167.65,-177.09 154.63,-171.5"/>
<polygon fill="midnightblue" stroke="midnightblue" points="196.21,-193.17 206.78,-193.89 198.97,-186.73 196.21,-193.17"/>
</g>
<!-- Node12 -->
<g id="node12" class="node">
<title>Node12</title>
<g id="a_node12"><a xlink:href="classDate.html#a170c5247eafdaeab0aa0e99b55dc5610" target="_top" xlink:title=" ">
<polygon fill="white" stroke="black" points="102,-114.5 102,-133.5 161,-133.5 161,-114.5 102,-114.5"/>
<text text-anchor="middle" x="131.5" y="-121.5" font-family="Helvetica,sans-Serif" font-size="10.00">setMinute</text>
</a>
</g>
</g>
<!-- Node1&#45;&gt;Node12 -->
<g id="edge11" class="edge">
<title>Node1&#45;&gt;Node12</title>
<path fill="none" stroke="midnightblue" d="M208.51,-182.41C199.21,-170.22 185.62,-154.22 171,-143 166.39,-139.46 161.01,-136.31 155.77,-133.65"/>
<polygon fill="midnightblue" stroke="midnightblue" points="205.73,-184.53 214.49,-190.49 211.36,-180.37 205.73,-184.53"/>
</g>
<!-- Node13 -->
<g id="node13" class="node">
<title>Node13</title>
<g id="a_node13"><a xlink:href="classDate.html#aec519600b09c8957031753c63085562c" target="_top" xlink:title=" ">
<polygon fill="white" stroke="black" points="103,-76.5 103,-95.5 160,-95.5 160,-76.5 103,-76.5"/>
<text text-anchor="middle" x="131.5" y="-83.5" font-family="Helvetica,sans-Serif" font-size="10.00">setMonth</text>
</a>
</g>
</g>
<!-- Node1&#45;&gt;Node13 -->
<g id="edge12" class="edge">
<title>Node1&#45;&gt;Node13</title>
<path fill="none" stroke="midnightblue" d="M214.92,-180.73C207.47,-159.8 193.05,-126.49 171,-105 167.16,-101.25 162.43,-98.11 157.62,-95.53"/>
<polygon fill="midnightblue" stroke="midnightblue" points="211.67,-182.06 218.18,-190.42 218.3,-179.83 211.67,-182.06"/>
</g>
<!-- Node14 -->
<g id="node14" class="node">
<title>Node14</title>
<g id="a_node14"><a xlink:href="classDate.html#a9b161ba26e10475d04e8030837e67e7f" target="_top" xlink:title=" ">
<polygon fill="white" stroke="black" points="100,-38.5 100,-57.5 163,-57.5 163,-38.5 100,-38.5"/>
<text text-anchor="middle" x="131.5" y="-45.5" font-family="Helvetica,sans-Serif" font-size="10.00">setSecond</text>
</a>
</g>
</g>
<!-- Node1&#45;&gt;Node14 -->
<g id="edge13" class="edge">
<title>Node1&#45;&gt;Node14</title>
<path fill="none" stroke="midnightblue" d="M218.22,-180.16C213.32,-151.88 200.69,-99.78 171,-67 167.6,-63.24 163.29,-60.14 158.79,-57.61"/>
<polygon fill="midnightblue" stroke="midnightblue" points="214.82,-181.05 219.83,-190.38 221.73,-179.96 214.82,-181.05"/>
</g>
<!-- Node15 -->
<g id="node15" class="node">
<title>Node15</title>
<g id="a_node15"><a xlink:href="classDate.html#a2268b24626953c1eac1d5b18db74cc4b" target="_top" xlink:title=" ">
<polygon fill="white" stroke="black" points="106.5,-0.5 106.5,-19.5 156.5,-19.5 156.5,-0.5 106.5,-0.5"/>
<text text-anchor="middle" x="131.5" y="-7.5" font-family="Helvetica,sans-Serif" font-size="10.00">setYear</text>
</a>
</g>
</g>
<!-- Node1&#45;&gt;Node15 -->
<g id="edge14" class="edge">
<title>Node1&#45;&gt;Node15</title>
<path fill="none" stroke="midnightblue" d="M220.23,-180.01C217.9,-145.39 208.52,-73.69 171,-29 167.17,-24.43 161.97,-20.87 156.63,-18.12"/>
<polygon fill="midnightblue" stroke="midnightblue" points="216.75,-180.44 220.78,-190.24 223.74,-180.06 216.75,-180.44"/>
</g>
<!-- Node3 -->
<g id="node3" class="node">
<title>Node3</title>
<g id="a_node3"><a xlink:href="classDate.html#ab16674c4f64b17d89302cf0805f1fdbd" target="_top" xlink:title=" ">
<polygon fill="white" stroke="black" points="0,-418.5 0,-437.5 56,-437.5 56,-418.5 0,-418.5"/>
<text text-anchor="middle" x="28" y="-425.5" font-family="Helvetica,sans-Serif" font-size="10.00">maxDate</text>
</a>
</g>
</g>
<!-- Node2&#45;&gt;Node3 -->
<g id="edge2" class="edge">
<title>Node2&#45;&gt;Node3</title>
<path fill="none" stroke="midnightblue" d="M102.6,-400.45C87.6,-406.06 69.24,-412.93 54.61,-418.41"/>
<polygon fill="midnightblue" stroke="midnightblue" points="104.22,-403.58 112.35,-396.79 101.76,-397.02 104.22,-403.58"/>
</g>
<!-- Node4 -->
<g id="node4" class="node">
<title>Node4</title>
<g id="a_node4"><a xlink:href="classDate.html#a23625bfa1e742192c8983792debcf7c1" target="_top" xlink:title=" ">
<polygon fill="white" stroke="black" points="1.5,-380.5 1.5,-399.5 54.5,-399.5 54.5,-380.5 1.5,-380.5"/>
<text text-anchor="middle" x="28" y="-387.5" font-family="Helvetica,sans-Serif" font-size="10.00">minDate</text>
</a>
</g>
</g>
<!-- Node2&#45;&gt;Node4 -->
<g id="edge3" class="edge">
<title>Node2&#45;&gt;Node4</title>
<path fill="none" stroke="midnightblue" d="M102.16,-390C87.25,-390 69.1,-390 54.61,-390"/>
<polygon fill="midnightblue" stroke="midnightblue" points="102.35,-393.5 112.35,-390 102.35,-386.5 102.35,-393.5"/>
</g>
<!-- Node5 -->
<g id="node5" class="node">
<title>Node5</title>
<g id="a_node5"><a xlink:href="classDate.html#ad3c3852bf8ef9589f013c96b9fdc9574" target="_top" xlink:title=" ">
<polygon fill="white" stroke="black" points="10.5,-342.5 10.5,-361.5 45.5,-361.5 45.5,-342.5 10.5,-342.5"/>
<text text-anchor="middle" x="28" y="-349.5" font-family="Helvetica,sans-Serif" font-size="10.00">now</text>
</a>
</g>
</g>
<!-- Node2&#45;&gt;Node5 -->
<g id="edge4" class="edge">
<title>Node2&#45;&gt;Node5</title>
<path fill="none" stroke="midnightblue" d="M102.79,-379.63C84.5,-372.78 61.13,-364.03 45.64,-358.23"/>
<polygon fill="midnightblue" stroke="midnightblue" points="101.76,-382.98 112.35,-383.21 104.22,-376.42 101.76,-382.98"/>
</g>
</g>
</svg>
