<?xml version="1.0" encoding="UTF-8" standalone="no"?>
<!DOCTYPE svg PUBLIC "-//W3C//DTD SVG 1.1//EN"
 "http://www.w3.org/Graphics/SVG/1.1/DTD/svg11.dtd">
<!-- Generated by graphviz version 2.47.1 (20210417.1919)
 -->
<!-- Title: get Pages: 1 -->
<svg width="575pt" height="142pt"
 viewBox="0.00 0.00 575.00 142.00" xmlns="http://www.w3.org/2000/svg" xmlns:xlink="http://www.w3.org/1999/xlink">
<g id="graph0" class="graph" transform="scale(1 1) rotate(0) translate(4 138)">
<title>get</title>
<polygon fill="white" stroke="transparent" points="-4,4 -4,-138 571,-138 571,4 -4,4"/>
<!-- Node1 -->
<g id="node1" class="node">
<title>Node1</title>
<g id="a_node1"><a xlink:title=" ">
<polygon fill="#bfbfbf" stroke="black" points="0,-38.5 0,-57.5 30,-57.5 30,-38.5 0,-38.5"/>
<text text-anchor="middle" x="15" y="-45.5" font-family="Helvetica,sans-Serif" font-size="10.00">get</text>
</a>
</g>
</g>
<!-- Node2 -->
<g id="node2" class="node">
<title>Node2</title>
<g id="a_node2"><a xlink:href="classAtcf.html#a0f40f03f570bebb240bd99f8560c0147" target="_top" xlink:title=" ">
<polygon fill="white" stroke="black" points="95,-76.5 95,-95.5 168,-95.5 168,-76.5 95,-76.5"/>
<text text-anchor="middle" x="131.5" y="-83.5" font-family="Helvetica,sans-Serif" font-size="10.00">Atcf::crecord</text>
</a>
</g>
</g>
<!-- Node1&#45;&gt;Node2 -->
<g id="edge1" class="edge">
<title>Node1&#45;&gt;Node2</title>
<path fill="none" stroke="midnightblue" d="M30.34,-53.78C40.27,-57.71 53.86,-62.91 66,-67 72.54,-69.2 79.5,-71.4 86.34,-73.48"/>
<polygon fill="midnightblue" stroke="midnightblue" points="85.62,-76.92 96.2,-76.43 87.62,-70.21 85.62,-76.92"/>
</g>
<!-- Node3 -->
<g id="node3" class="node">
<title>Node3</title>
<g id="a_node3"><a xlink:href="classAtcf.html#af2619be19171e8e1e2f6b110d18c755a" target="_top" xlink:title=" ">
<polygon fill="white" stroke="black" points="66,-38.5 66,-57.5 197,-57.5 197,-38.5 66,-38.5"/>
<text text-anchor="middle" x="131.5" y="-45.5" font-family="Helvetica,sans-Serif" font-size="10.00">Atcf::getStormParameters</text>
</a>
</g>
</g>
<!-- Node1&#45;&gt;Node3 -->
<g id="edge2" class="edge">
<title>Node1&#45;&gt;Node3</title>
<path fill="none" stroke="midnightblue" d="M30.04,-48C36.95,-48 45.88,-48 55.55,-48"/>
<polygon fill="midnightblue" stroke="midnightblue" points="55.85,-51.5 65.85,-48 55.85,-44.5 55.85,-51.5"/>
</g>
<!-- Node10 -->
<g id="node10" class="node">
<title>Node10</title>
<g id="a_node10"><a xlink:href="classPhysical.html#ac89cc8801efd15fe96e25cd4a357b47a" target="_top" xlink:title=" ">
<polygon fill="white" stroke="black" points="90,-0.5 90,-19.5 173,-19.5 173,-0.5 90,-0.5"/>
<text text-anchor="middle" x="131.5" y="-7.5" font-family="Helvetica,sans-Serif" font-size="10.00">Physical::twopi</text>
</a>
</g>
</g>
<!-- Node1&#45;&gt;Node10 -->
<g id="edge9" class="edge">
<title>Node1&#45;&gt;Node10</title>
<path fill="none" stroke="midnightblue" d="M30.34,-42.22C40.27,-38.29 53.86,-33.09 66,-29 72.54,-26.8 79.5,-24.6 86.34,-22.52"/>
<polygon fill="midnightblue" stroke="midnightblue" points="87.62,-25.79 96.2,-19.57 85.62,-19.08 87.62,-25.79"/>
</g>
<!-- Node4 -->
<g id="node4" class="node">
<title>Node4</title>
<g id="a_node4"><a xlink:href="classAtcf.html#a288aec5ac021ac483da71812a26dc9c3" target="_top" xlink:title=" ">
<polygon fill="white" stroke="black" points="233,-76.5 233,-95.5 347,-95.5 347,-76.5 233,-76.5"/>
<text text-anchor="middle" x="290" y="-83.5" font-family="Helvetica,sans-Serif" font-size="10.00">Atcf::getCycleNumber</text>
</a>
</g>
</g>
<!-- Node3&#45;&gt;Node4 -->
<g id="edge3" class="edge">
<title>Node3&#45;&gt;Node4</title>
<path fill="none" stroke="midnightblue" d="M171.99,-57.59C192.64,-62.6 218.11,-68.79 240.01,-74.11"/>
<polygon fill="midnightblue" stroke="midnightblue" points="239.25,-77.52 249.79,-76.48 240.9,-70.72 239.25,-77.52"/>
</g>
<!-- Node9 -->
<g id="node9" class="node">
<title>Node9</title>
<g id="a_node9"><a xlink:href="classAtcf.html#ac775141fc311e59db12fdba1a913f8e2" target="_top" xlink:title=" ">
<polygon fill="white" stroke="black" points="245.5,-38.5 245.5,-57.5 334.5,-57.5 334.5,-38.5 245.5,-38.5"/>
<text text-anchor="middle" x="290" y="-45.5" font-family="Helvetica,sans-Serif" font-size="10.00">Atcf::linearInterp</text>
</a>
</g>
</g>
<!-- Node3&#45;&gt;Node9 -->
<g id="edge8" class="edge">
<title>Node3&#45;&gt;Node9</title>
<path fill="none" stroke="midnightblue" d="M197.06,-48C209.69,-48 222.81,-48 235.05,-48"/>
<polygon fill="midnightblue" stroke="midnightblue" points="235.09,-51.5 245.09,-48 235.09,-44.5 235.09,-51.5"/>
</g>
<!-- Node5 -->
<g id="node5" class="node">
<title>Node5</title>
<g id="a_node5"><a xlink:href="classAssumptions.html#a20319f7261289f879d667fe91034d503" target="_top" xlink:title=" ">
<polygon fill="white" stroke="black" points="383,-114.5 383,-133.5 478,-133.5 478,-114.5 383,-114.5"/>
<text text-anchor="middle" x="430.5" y="-121.5" font-family="Helvetica,sans-Serif" font-size="10.00">Assumptions::add</text>
</a>
</g>
</g>
<!-- Node4&#45;&gt;Node5 -->
<g id="edge4" class="edge">
<title>Node4&#45;&gt;Node5</title>
<path fill="none" stroke="midnightblue" d="M325.95,-95.59C343.83,-100.49 365.79,-106.52 384.88,-111.76"/>
<polygon fill="midnightblue" stroke="midnightblue" points="383.99,-115.14 394.56,-114.41 385.84,-108.39 383.99,-115.14"/>
</g>
<!-- Node6 -->
<g id="node6" class="node">
<title>Node6</title>
<g id="a_node6"><a xlink:href="classDate.html#a1fa70aa48f749203df9a600eb190dd7b" target="_top" xlink:title=" ">
<polygon fill="white" stroke="black" points="385.5,-76.5 385.5,-95.5 475.5,-95.5 475.5,-76.5 385.5,-76.5"/>
<text text-anchor="middle" x="430.5" y="-83.5" font-family="Helvetica,sans-Serif" font-size="10.00">Date::toSeconds</text>
</a>
</g>
</g>
<!-- Node4&#45;&gt;Node6 -->
<g id="edge5" class="edge">
<title>Node4&#45;&gt;Node6</title>
<path fill="none" stroke="midnightblue" d="M347.33,-86C356.47,-86 365.93,-86 375.02,-86"/>
<polygon fill="midnightblue" stroke="midnightblue" points="375.11,-89.5 385.11,-86 375.11,-82.5 375.11,-89.5"/>
</g>
<!-- Node8 -->
<g id="node8" class="node">
<title>Node8</title>
<g id="a_node8"><a xlink:href="classDate.html#aeb00139940a15f0cfea95dce5f01613f" target="_top" xlink:title=" ">
<polygon fill="white" stroke="black" points="392,-38.5 392,-57.5 469,-57.5 469,-38.5 392,-38.5"/>
<text text-anchor="middle" x="430.5" y="-45.5" font-family="Helvetica,sans-Serif" font-size="10.00">Date::toString</text>
</a>
</g>
</g>
<!-- Node4&#45;&gt;Node8 -->
<g id="edge7" class="edge">
<title>Node4&#45;&gt;Node8</title>
<path fill="none" stroke="midnightblue" d="M325.95,-76.41C343.83,-71.51 365.79,-65.48 384.88,-60.24"/>
<polygon fill="midnightblue" stroke="midnightblue" points="385.84,-63.61 394.56,-57.59 383.99,-56.86 385.84,-63.61"/>
</g>
<!-- Node7 -->
<g id="node7" class="node">
<title>Node7</title>
<g id="a_node7"><a xlink:href="Date_8cpp.html#a45ca5db09a1ee8d14a196628d506d4bf" target="_top" xlink:title=" ">
<polygon fill="white" stroke="black" points="514,-76.5 514,-95.5 567,-95.5 567,-76.5 514,-76.5"/>
<text text-anchor="middle" x="540.5" y="-83.5" font-family="Helvetica,sans-Serif" font-size="10.00">c_epoch</text>
</a>
</g>
</g>
<!-- Node6&#45;&gt;Node7 -->
<g id="edge6" class="edge">
<title>Node6&#45;&gt;Node7</title>
<path fill="none" stroke="midnightblue" d="M475.74,-86C485.03,-86 494.73,-86 503.67,-86"/>
<polygon fill="midnightblue" stroke="midnightblue" points="503.75,-89.5 513.75,-86 503.75,-82.5 503.75,-89.5"/>
</g>
<!-- Node11 -->
<g id="node11" class="node">
<title>Node11</title>
<g id="a_node11"><a xlink:href="classPhysical.html#a8916e00cc71692658a0a355b2f142274" target="_top" xlink:title=" ">
<polygon fill="white" stroke="black" points="256,-0.5 256,-19.5 324,-19.5 324,-0.5 256,-0.5"/>
<text text-anchor="middle" x="290" y="-7.5" font-family="Helvetica,sans-Serif" font-size="10.00">Physical::pi</text>
</a>
</g>
</g>
<!-- Node10&#45;&gt;Node11 -->
<g id="edge10" class="edge">
<title>Node10&#45;&gt;Node11</title>
<path fill="none" stroke="midnightblue" d="M173.21,-10C195.51,-10 223.15,-10 245.83,-10"/>
<polygon fill="midnightblue" stroke="midnightblue" points="245.87,-13.5 255.87,-10 245.87,-6.5 245.87,-13.5"/>
</g>
</g>
</svg>
