<?xml version="1.0" encoding="UTF-8" standalone="no"?>
<!DOCTYPE svg PUBLIC "-//W3C//DTD SVG 1.1//EN"
 "http://www.w3.org/Graphics/SVG/1.1/DTD/svg11.dtd">
<!-- Generated by graphviz version 2.47.1 (20210417.1919)
 -->
<!-- Title: chollandB Pages: 1 -->
<svg width="350pt" height="104pt"
 viewBox="0.00 0.00 350.00 104.00" xmlns="http://www.w3.org/2000/svg" xmlns:xlink="http://www.w3.org/1999/xlink">
<g id="graph0" class="graph" transform="scale(1 1) rotate(0) translate(4 100)">
<title>chollandB</title>
<polygon fill="white" stroke="transparent" points="-4,4 -4,-100 346,-100 346,4 -4,4"/>
<!-- Node1 -->
<g id="node1" class="node">
<title>Node1</title>
<g id="a_node1"><a xlink:title=" ">
<polygon fill="#bfbfbf" stroke="black" points="283,-38.5 283,-57.5 342,-57.5 342,-38.5 283,-38.5"/>
<text text-anchor="middle" x="312.5" y="-45.5" font-family="Helvetica,sans-Serif" font-size="10.00">chollandB</text>
</a>
</g>
</g>
<!-- Node2 -->
<g id="node2" class="node">
<title>Node2</title>
<g id="a_node2"><a xlink:href="classVortex.html#ada5ebd5311d214fba078d1b3285a4032" target="_top" xlink:title=" ">
<polygon fill="white" stroke="black" points="113,-76.5 113,-95.5 247,-95.5 247,-76.5 113,-76.5"/>
<text text-anchor="middle" x="180" y="-83.5" font-family="Helvetica,sans-Serif" font-size="10.00">Vortex::getParameterValue</text>
</a>
</g>
</g>
<!-- Node1&#45;&gt;Node2 -->
<g id="edge1" class="edge">
<title>Node1&#45;&gt;Node2</title>
<path fill="none" stroke="midnightblue" d="M273.13,-59.34C264.54,-61.87 255.46,-64.54 247,-67 236.35,-70.1 224.73,-73.46 214.25,-76.47"/>
<polygon fill="midnightblue" stroke="midnightblue" points="274.33,-62.64 282.93,-56.46 272.35,-55.93 274.33,-62.64"/>
</g>
<!-- Node3 -->
<g id="node3" class="node">
<title>Node3</title>
<g id="a_node3"><a xlink:href="classVortex.html#a36b321e4164c600950ffe1cc7021146f" target="_top" xlink:title=" ">
<polygon fill="white" stroke="black" points="122,-38.5 122,-57.5 238,-57.5 238,-38.5 122,-38.5"/>
<text text-anchor="middle" x="180" y="-45.5" font-family="Helvetica,sans-Serif" font-size="10.00">Vortex::vgWithCoriFull</text>
</a>
</g>
</g>
<!-- Node1&#45;&gt;Node3 -->
<g id="edge2" class="edge">
<title>Node1&#45;&gt;Node3</title>
<path fill="none" stroke="midnightblue" d="M272.86,-48C261.99,-48 249.94,-48 238.23,-48"/>
<polygon fill="midnightblue" stroke="midnightblue" points="272.86,-51.5 282.86,-48 272.86,-44.5 272.86,-51.5"/>
</g>
<!-- Node5 -->
<g id="node5" class="node">
<title>Node5</title>
<g id="a_node5"><a xlink:href="classVortex.html#ae476777bb80581d4af28e4c2ce3a0b99" target="_top" xlink:title=" ">
<polygon fill="white" stroke="black" points="134,-0.5 134,-19.5 226,-19.5 226,-0.5 134,-0.5"/>
<text text-anchor="middle" x="180" y="-7.5" font-family="Helvetica,sans-Serif" font-size="10.00">Vortex::vhNoCori</text>
</a>
</g>
</g>
<!-- Node1&#45;&gt;Node5 -->
<g id="edge4" class="edge">
<title>Node1&#45;&gt;Node5</title>
<path fill="none" stroke="midnightblue" d="M273.13,-36.66C264.54,-34.13 255.46,-31.46 247,-29 236.35,-25.9 224.73,-22.54 214.25,-19.53"/>
<polygon fill="midnightblue" stroke="midnightblue" points="272.35,-40.07 282.93,-39.54 274.33,-33.36 272.35,-40.07"/>
</g>
<!-- Node4 -->
<g id="node4" class="node">
<title>Node4</title>
<g id="a_node4"><a xlink:href="classVortex.html#add1b3d68a6adac1887b0175193b6d79e" target="_top" xlink:title=" ">
<polygon fill="white" stroke="black" points="0,-19.5 0,-38.5 77,-38.5 77,-19.5 0,-19.5"/>
<text text-anchor="middle" x="38.5" y="-26.5" font-family="Helvetica,sans-Serif" font-size="10.00">Vortex::getVh</text>
</a>
</g>
</g>
<!-- Node3&#45;&gt;Node4 -->
<g id="edge3" class="edge">
<title>Node3&#45;&gt;Node4</title>
<path fill="none" stroke="midnightblue" d="M111.9,-38.86C99.97,-37.24 87.94,-35.6 77.21,-34.14"/>
<polygon fill="midnightblue" stroke="midnightblue" points="111.48,-42.34 121.86,-40.22 112.42,-35.4 111.48,-42.34"/>
</g>
<!-- Node5&#45;&gt;Node4 -->
<g id="edge5" class="edge">
<title>Node5&#45;&gt;Node4</title>
<path fill="none" stroke="midnightblue" d="M123.63,-17.54C108.02,-19.67 91.41,-21.93 77.1,-23.88"/>
<polygon fill="midnightblue" stroke="midnightblue" points="124.27,-20.99 133.71,-16.17 123.33,-14.05 124.27,-20.99"/>
</g>
</g>
</svg>
