<?xml version="1.0" encoding="UTF-8" standalone="no"?>
<!DOCTYPE svg PUBLIC "-//W3C//DTD SVG 1.1//EN"
 "http://www.w3.org/Graphics/SVG/1.1/DTD/svg11.dtd">
<!-- Generated by graphviz version 2.47.1 (20210417.1919)
 -->
<!-- Title: toMSeconds Pages: 1 -->
<svg width="267pt" height="28pt"
 viewBox="0.00 0.00 267.00 28.00" xmlns="http://www.w3.org/2000/svg" xmlns:xlink="http://www.w3.org/1999/xlink">
<g id="graph0" class="graph" transform="scale(1 1) rotate(0) translate(4 24)">
<title>toMSeconds</title>
<polygon fill="white" stroke="transparent" points="-4,4 -4,-24 263,-24 263,4 -4,4"/>
<!-- Node1 -->
<g id="node1" class="node">
<title>Node1</title>
<g id="a_node1"><a xlink:title=" ">
<polygon fill="#bfbfbf" stroke="black" points="0,-0.5 0,-19.5 71,-19.5 71,-0.5 0,-0.5"/>
<text text-anchor="middle" x="35.5" y="-7.5" font-family="Helvetica,sans-Serif" font-size="10.00">toMSeconds</text>
</a>
</g>
</g>
<!-- Node2 -->
<g id="node2" class="node">
<title>Node2</title>
<g id="a_node2"><a xlink:href="classDate.html#a1fa70aa48f749203df9a600eb190dd7b" target="_top" xlink:title=" ">
<polygon fill="white" stroke="black" points="107,-0.5 107,-19.5 170,-19.5 170,-0.5 107,-0.5"/>
<text text-anchor="middle" x="138.5" y="-7.5" font-family="Helvetica,sans-Serif" font-size="10.00">toSeconds</text>
</a>
</g>
</g>
<!-- Node1&#45;&gt;Node2 -->
<g id="edge1" class="edge">
<title>Node1&#45;&gt;Node2</title>
<path fill="none" stroke="midnightblue" d="M71.26,-10C79.45,-10 88.26,-10 96.7,-10"/>
<polygon fill="midnightblue" stroke="midnightblue" points="96.73,-13.5 106.73,-10 96.73,-6.5 96.73,-13.5"/>
</g>
<!-- Node3 -->
<g id="node3" class="node">
<title>Node3</title>
<g id="a_node3"><a xlink:href="Date_8cpp.html#a45ca5db09a1ee8d14a196628d506d4bf" target="_top" xlink:title=" ">
<polygon fill="white" stroke="black" points="206,-0.5 206,-19.5 259,-19.5 259,-0.5 206,-0.5"/>
<text text-anchor="middle" x="232.5" y="-7.5" font-family="Helvetica,sans-Serif" font-size="10.00">c_epoch</text>
</a>
</g>
</g>
<!-- Node2&#45;&gt;Node3 -->
<g id="edge2" class="edge">
<title>Node2&#45;&gt;Node3</title>
<path fill="none" stroke="midnightblue" d="M170.13,-10C178.38,-10 187.38,-10 195.88,-10"/>
<polygon fill="midnightblue" stroke="midnightblue" points="195.91,-13.5 205.91,-10 195.91,-6.5 195.91,-13.5"/>
</g>
</g>
</svg>
