<?xml version="1.0" encoding="UTF-8" standalone="no"?>
<!DOCTYPE svg PUBLIC "-//W3C//DTD SVG 1.1//EN"
 "http://www.w3.org/Graphics/SVG/1.1/DTD/svg11.dtd">
<!-- Generated by graphviz version 2.47.1 (20210417.1919)
 -->
<!-- Title: computeParameters Pages: 1 -->
<!--zoomable 610 -->
<svg id="main" version="1.1" xmlns="http://www.w3.org/2000/svg" xmlns:xlink="http://www.w3.org/1999/xlink" xml:space="preserve" onload="init(evt)">
<style type="text/css"><![CDATA[
.edge:hover path { stroke: red; }
.edge:hover polygon { stroke: red; fill: red; }
]]></style>
<script type="text/javascript"><![CDATA[
var edges = document.getElementsByTagName('g');
if (edges && edges.length) {
  for (var i=0;i<edges.length;i++) {
    if (edges[i].id.substr(0,4)=='edge') {
      edges[i].setAttribute('class','edge');
    }
  }
}
]]></script>
        <defs>
                <circle id="rim" cx="0" cy="0" r="7"/>
                <circle id="rim2" cx="0" cy="0" r="3.5"/>
                <g id="zoomPlus">
                        <use xlink:href="#rim" fill="#404040">
                                <set attributeName="fill" to="#808080" begin="zoomplus.mouseover" end="zoomplus.mouseout"/>
                        </use>
                        <path d="M-4,0h8M0,-4v8" fill="none" stroke="white" stroke-width="1.5" pointer-events="none"/>
                </g>
                <g id="zoomMin">
                        <use xlink:href="#rim" fill="#404040">
                                <set attributeName="fill" to="#808080" begin="zoomminus.mouseover" end="zoomminus.mouseout"/>
                        </use>
                        <path d="M-4,0h8" fill="none" stroke="white" stroke-width="1.5" pointer-events="none"/>
                </g>
                <g id="dirArrow">
                        <path fill="none" stroke="white" stroke-width="1.5" d="M0,-3.0v7 M-2.5,-0.5L0,-3.0L2.5,-0.5"/>
                </g>
               <g id="resetDef">
                       <use xlink:href="#rim2" fill="#404040">
                               <set attributeName="fill" to="#808080" begin="reset.mouseover" end="reset.mouseout"/>
                       </use>
               </g>
        </defs>

<script type="text/javascript">
var viewWidth = 879;
var viewHeight = 610;
var sectionId = 'dynsection-10';
</script>
<script xlink:href="svgpan.js"/>
<svg id="graph" class="graph">
<g id="viewport">
<title>computeParameters</title>
<polygon fill="white" stroke="transparent" points="-4,4 -4,-606 875,-606 875,4 -4,4"/>
<!-- Node1 -->
<g id="node1" class="node">
<title>Node1</title>
<g id="a_node1"><a xlink:title=" ">
<polygon fill="#bfbfbf" stroke="black" points="0,-413.5 0,-432.5 104,-432.5 104,-413.5 0,-413.5"/>
<text text-anchor="middle" x="52" y="-420.5" font-family="Helvetica,sans-Serif" font-size="10.00">computeParameters</text>
</a>
</g>
</g>
<!-- Node2 -->
<g id="node2" class="node">
<title>Node2</title>
<g id="a_node2"><a xlink:href="classAtcf.html#a80d9683a370e561492db8a0f6d795c5d" target="_top" xlink:title=" ">
<polygon fill="white" stroke="black" points="145,-394.5 145,-413.5 249,-413.5 249,-394.5 145,-394.5"/>
<text text-anchor="middle" x="197" y="-401.5" font-family="Helvetica,sans-Serif" font-size="10.00">computeQuadrantVr</text>
</a>
</g>
</g>
<!-- Node1&#45;&gt;Node2 -->
<g id="edge1" class="edge">
<title>Node1&#45;&gt;Node2</title>
<path fill="none" stroke="midnightblue" d="M104.22,-416.19C114.08,-414.88 124.5,-413.5 134.64,-412.15"/>
<polygon fill="midnightblue" stroke="midnightblue" points="135.2,-415.61 144.65,-410.82 134.28,-408.67 135.2,-415.61"/>
</g>
<!-- Node18 -->
<g id="node18" class="node">
<title>Node18</title>
<g id="a_node18"><a xlink:href="classAtcf.html#adc746c4433140219ebaf449c6f8d21f3" target="_top" xlink:title=" ">
<polygon fill="white" stroke="black" points="142,-541.5 142,-560.5 252,-560.5 252,-541.5 142,-541.5"/>
<text text-anchor="middle" x="197" y="-548.5" font-family="Helvetica,sans-Serif" font-size="10.00">computeStormMotion</text>
</a>
</g>
</g>
<!-- Node1&#45;&gt;Node18 -->
<g id="edge20" class="edge">
<title>Node1&#45;&gt;Node18</title>
<path fill="none" stroke="midnightblue" d="M59.48,-432.5C72.77,-451.46 104.86,-494.51 140,-522 147.27,-527.69 155.82,-532.77 164.02,-537.03"/>
<polygon fill="midnightblue" stroke="midnightblue" points="162.53,-540.2 173.05,-541.49 165.63,-533.92 162.53,-540.2"/>
</g>
<!-- Node19 -->
<g id="node19" class="node">
<title>Node19</title>
<g id="a_node19"><a xlink:href="namespacePhysical.html#aedb77f347557f2942e99437f55e976a8" target="_top" xlink:title=" ">
<polygon fill="white" stroke="black" points="321.5,-506.5 321.5,-525.5 416.5,-525.5 416.5,-506.5 321.5,-506.5"/>
<text text-anchor="middle" x="369" y="-513.5" font-family="Helvetica,sans-Serif" font-size="10.00">Physical::deg2rad</text>
</a>
</g>
</g>
<!-- Node1&#45;&gt;Node19 -->
<g id="edge27" class="edge">
<title>Node1&#45;&gt;Node19</title>
<path fill="none" stroke="midnightblue" d="M64.22,-432.65C80.01,-445.65 110.18,-468.49 140,-480 195.73,-501.51 263.86,-510.17 311.06,-513.66"/>
<polygon fill="midnightblue" stroke="midnightblue" points="310.88,-517.16 321.1,-514.35 311.36,-510.17 310.88,-517.16"/>
</g>
<!-- Node21 -->
<g id="node21" class="node">
<title>Node21</title>
<g id="a_node21"><a xlink:href="classAtcf.html#a7b96dc4af0c484eecb6adc87cb604431" target="_top" xlink:title=" ">
<polygon fill="white" stroke="black" points="151,-451.5 151,-470.5 243,-470.5 243,-451.5 151,-451.5"/>
<text text-anchor="middle" x="197" y="-458.5" font-family="Helvetica,sans-Serif" font-size="10.00">computeVMaxBL</text>
</a>
</g>
</g>
<!-- Node1&#45;&gt;Node21 -->
<g id="edge25" class="edge">
<title>Node1&#45;&gt;Node21</title>
<path fill="none" stroke="midnightblue" d="M89.08,-432.59C107.63,-437.52 130.43,-443.57 150.2,-448.83"/>
<polygon fill="midnightblue" stroke="midnightblue" points="149.36,-452.23 159.93,-451.41 151.16,-445.46 149.36,-452.23"/>
</g>
<!-- Node22 -->
<g id="node22" class="node">
<title>Node22</title>
<g id="a_node22"><a xlink:href="namespacePhysical.html#aa169b36a001af3b6ea0590bc0ffd6fa8" target="_top" xlink:title=" ">
<polygon fill="white" stroke="black" points="140,-356.5 140,-375.5 254,-375.5 254,-356.5 140,-356.5"/>
<text text-anchor="middle" x="197" y="-363.5" font-family="Helvetica,sans-Serif" font-size="10.00">Physical::frictionAngle</text>
</a>
</g>
</g>
<!-- Node1&#45;&gt;Node22 -->
<g id="edge28" class="edge">
<title>Node1&#45;&gt;Node22</title>
<path fill="none" stroke="midnightblue" d="M73.54,-413.44C91.04,-405.44 116.95,-393.93 140,-385 145.27,-382.96 150.85,-380.92 156.38,-378.97"/>
<polygon fill="midnightblue" stroke="midnightblue" points="157.87,-382.16 166.19,-375.59 155.59,-375.54 157.87,-382.16"/>
</g>
<!-- Node23 -->
<g id="node23" class="node">
<title>Node23</title>
<g id="a_node23"><a xlink:href="classAtcf.html#adfe6ef35c351380ba863090d4fec04bb" target="_top" xlink:title=" ">
<polygon fill="white" stroke="black" points="141,-221.5 141,-240.5 253,-240.5 253,-221.5 141,-221.5"/>
<text text-anchor="middle" x="197" y="-228.5" font-family="Helvetica,sans-Serif" font-size="10.00">recomputeQuadrantVr</text>
</a>
</g>
</g>
<!-- Node1&#45;&gt;Node23 -->
<g id="edge29" class="edge">
<title>Node1&#45;&gt;Node23</title>
<path fill="none" stroke="midnightblue" d="M60.09,-413.48C82.68,-383.15 153.18,-288.49 182.74,-248.8"/>
<polygon fill="midnightblue" stroke="midnightblue" points="185.7,-250.69 188.87,-240.58 180.09,-246.51 185.7,-250.69"/>
</g>
<!-- Node3 -->
<g id="node3" class="node">
<title>Node3</title>
<g id="a_node3"><a xlink:href="classAtcf.html#adccea6c4ad7108a14f86b833f3f94f6d" target="_top" xlink:title=" ">
<polygon fill="white" stroke="black" points="295.5,-278.5 295.5,-297.5 442.5,-297.5 442.5,-278.5 295.5,-278.5"/>
<text text-anchor="middle" x="369" y="-285.5" font-family="Helvetica,sans-Serif" font-size="10.00">computeQuadrantVectorAngle</text>
</a>
</g>
</g>
<!-- Node2&#45;&gt;Node3 -->
<g id="edge2" class="edge">
<title>Node2&#45;&gt;Node3</title>
<path fill="none" stroke="midnightblue" d="M232.94,-394.42C240.13,-391.83 247.48,-388.7 254,-385 293.08,-362.83 331.38,-326.36 352.12,-305.02"/>
<polygon fill="midnightblue" stroke="midnightblue" points="354.79,-307.28 359.17,-297.64 349.73,-302.45 354.79,-307.28"/>
</g>
<!-- Node7 -->
<g id="node7" class="node">
<title>Node7</title>
<g id="a_node7"><a xlink:href="classAtcf.html#a12d26ed5e74ce562bd78a28662bceb75" target="_top" xlink:title=" ">
<polygon fill="white" stroke="black" points="290,-430.5 290,-449.5 448,-449.5 448,-430.5 290,-430.5"/>
<text text-anchor="middle" x="369" y="-437.5" font-family="Helvetica,sans-Serif" font-size="10.00">computeQuadrantVrWithGamma</text>
</a>
</g>
</g>
<!-- Node2&#45;&gt;Node7 -->
<g id="edge6" class="edge">
<title>Node2&#45;&gt;Node7</title>
<path fill="none" stroke="midnightblue" d="M243.11,-413.55C264.62,-418.11 290.53,-423.59 313.17,-428.39"/>
<polygon fill="midnightblue" stroke="midnightblue" points="312.47,-431.82 322.97,-430.47 313.92,-424.97 312.47,-431.82"/>
</g>
<!-- Node15 -->
<g id="node15" class="node">
<title>Node15</title>
<g id="a_node15"><a xlink:href="classIsotach.html#a32d11b9542f172cb4e06b65950c704bf" target="_top" xlink:title=" ">
<polygon fill="white" stroke="black" points="318,-392.5 318,-411.5 420,-411.5 420,-392.5 318,-392.5"/>
<text text-anchor="middle" x="369" y="-399.5" font-family="Helvetica,sans-Serif" font-size="10.00">Isotach::quadrantVr</text>
</a>
</g>
</g>
<!-- Node2&#45;&gt;Node15 -->
<g id="edge17" class="edge">
<title>Node2&#45;&gt;Node15</title>
<path fill="none" stroke="midnightblue" d="M249.01,-403.4C267.49,-403.18 288.55,-402.93 307.76,-402.71"/>
<polygon fill="midnightblue" stroke="midnightblue" points="307.95,-406.21 317.91,-402.59 307.87,-399.21 307.95,-406.21"/>
</g>
<!-- Node16 -->
<g id="node16" class="node">
<title>Node16</title>
<g id="a_node16"><a xlink:href="classCircularArray.html#a43241fcadbf56b0a7c3f7242acf46eed" target="_top" xlink:title=" ">
<polygon fill="white" stroke="black" points="322.5,-240.5 322.5,-259.5 415.5,-259.5 415.5,-240.5 322.5,-240.5"/>
<text text-anchor="middle" x="369" y="-247.5" font-family="Helvetica,sans-Serif" font-size="10.00">CircularArray::set</text>
</a>
</g>
</g>
<!-- Node2&#45;&gt;Node16 -->
<g id="edge18" class="edge">
<title>Node2&#45;&gt;Node16</title>
<path fill="none" stroke="midnightblue" d="M240.63,-394.46C245.58,-392 250.2,-388.9 254,-385 291.67,-346.33 250.67,-305.97 290,-269 296.42,-262.97 304.42,-258.75 312.84,-255.83"/>
<polygon fill="midnightblue" stroke="midnightblue" points="313.82,-259.19 322.45,-253.05 311.88,-252.47 313.82,-259.19"/>
</g>
<!-- Node4 -->
<g id="node4" class="node">
<title>Node4</title>
<g id="a_node4"><a xlink:href="namespacePhysical.html#a92b1fc7520d88e5945e2e7e8c8bc006e" target="_top" xlink:title=" ">
<polygon fill="white" stroke="black" points="663,-252.5 663,-271.5 746,-271.5 746,-252.5 663,-252.5"/>
<text text-anchor="middle" x="704.5" y="-259.5" font-family="Helvetica,sans-Serif" font-size="10.00">Physical::halfpi</text>
</a>
</g>
</g>
<!-- Node3&#45;&gt;Node4 -->
<g id="edge3" class="edge">
<title>Node3&#45;&gt;Node4</title>
<path fill="none" stroke="midnightblue" d="M442.52,-288.89C489.31,-288.72 551.41,-287.09 606,-281 621.32,-279.29 637.82,-276.46 652.82,-273.5"/>
<polygon fill="midnightblue" stroke="midnightblue" points="653.83,-276.86 662.93,-271.44 652.43,-270.01 653.83,-276.86"/>
</g>
<!-- Node6 -->
<g id="node6" class="node">
<title>Node6</title>
<g id="a_node6"><a xlink:href="namespacePhysical.html#a8b95a30e294bd7aa1169d0a92c65a009" target="_top" xlink:title=" ">
<polygon fill="white" stroke="black" points="484,-252.5 484,-271.5 606,-271.5 606,-252.5 484,-252.5"/>
<text text-anchor="middle" x="545" y="-259.5" font-family="Helvetica,sans-Serif" font-size="10.00">Physical::quadrantAngle</text>
</a>
</g>
</g>
<!-- Node3&#45;&gt;Node6 -->
<g id="edge5" class="edge">
<title>Node3&#45;&gt;Node6</title>
<path fill="none" stroke="midnightblue" d="M433.8,-278.47C446.87,-276.51 460.68,-274.45 473.95,-272.47"/>
<polygon fill="midnightblue" stroke="midnightblue" points="474.59,-275.91 483.96,-270.97 473.56,-268.99 474.59,-275.91"/>
</g>
<!-- Node5 -->
<g id="node5" class="node">
<title>Node5</title>
<g id="a_node5"><a xlink:href="namespacePhysical.html#aceeafe6dfcafc1ccd35aee635c075f09" target="_top" xlink:title=" ">
<polygon fill="white" stroke="black" points="803,-290.5 803,-309.5 871,-309.5 871,-290.5 803,-290.5"/>
<text text-anchor="middle" x="837" y="-297.5" font-family="Helvetica,sans-Serif" font-size="10.00">Physical::pi</text>
</a>
</g>
</g>
<!-- Node4&#45;&gt;Node5 -->
<g id="edge4" class="edge">
<title>Node4&#45;&gt;Node5</title>
<path fill="none" stroke="midnightblue" d="M738.43,-271.59C755.12,-276.45 775.59,-282.41 793.46,-287.61"/>
<polygon fill="midnightblue" stroke="midnightblue" points="792.5,-290.98 803.08,-290.41 794.46,-284.26 792.5,-290.98"/>
</g>
<!-- Node8 -->
<g id="node8" class="node">
<title>Node8</title>
<g id="a_node8"><a xlink:href="classAtcf.html#a8feed32ff84fb9f6e1bba8526b05d00b" target="_top" xlink:title=" ">
<polygon fill="white" stroke="black" points="489.5,-328.5 489.5,-347.5 600.5,-347.5 600.5,-328.5 489.5,-328.5"/>
<text text-anchor="middle" x="545" y="-335.5" font-family="Helvetica,sans-Serif" font-size="10.00">computeEpsilonAngle</text>
</a>
</g>
</g>
<!-- Node7&#45;&gt;Node8 -->
<g id="edge7" class="edge">
<title>Node7&#45;&gt;Node8</title>
<path fill="none" stroke="midnightblue" d="M431.04,-430.44C437.1,-427.97 442.89,-424.87 448,-421 474.01,-401.28 458.68,-377.59 484,-357 486.15,-355.25 488.47,-353.66 490.89,-352.22"/>
<polygon fill="midnightblue" stroke="midnightblue" points="492.7,-355.23 500.05,-347.6 489.55,-348.98 492.7,-355.23"/>
</g>
<!-- Node11 -->
<g id="node11" class="node">
<title>Node11</title>
<g id="a_node11"><a xlink:href="classAtcf.html#a2742efd0b6b28a51a11a0d74e713f222" target="_top" xlink:title=" ">
<polygon fill="white" stroke="black" points="500.5,-366.5 500.5,-385.5 589.5,-385.5 589.5,-366.5 500.5,-366.5"/>
<text text-anchor="middle" x="545" y="-373.5" font-family="Helvetica,sans-Serif" font-size="10.00">computeGamma</text>
</a>
</g>
</g>
<!-- Node7&#45;&gt;Node11 -->
<g id="edge11" class="edge">
<title>Node7&#45;&gt;Node11</title>
<path fill="none" stroke="midnightblue" d="M418.54,-430.48C428.45,-427.9 438.69,-424.75 448,-421 465.18,-414.07 467.36,-408.13 484,-400 491.67,-396.25 500.08,-392.62 508.11,-389.35"/>
<polygon fill="midnightblue" stroke="midnightblue" points="509.64,-392.51 517.65,-385.57 507.06,-386 509.64,-392.51"/>
</g>
<!-- Node13 -->
<g id="node13" class="node">
<title>Node13</title>
<g id="a_node13"><a xlink:href="namespacePhysical.html#ac3ebcf4f7617c5c5a57bc9bd2b95e0db" target="_top" xlink:title=" ">
<polygon fill="white" stroke="black" points="661,-493.5 661,-512.5 748,-512.5 748,-493.5 661,-493.5"/>
<text text-anchor="middle" x="704.5" y="-500.5" font-family="Helvetica,sans-Serif" font-size="10.00">Physical::ms2kt</text>
</a>
</g>
</g>
<!-- Node7&#45;&gt;Node13 -->
<g id="edge15" class="edge">
<title>Node7&#45;&gt;Node13</title>
<path fill="none" stroke="midnightblue" d="M420.65,-449.57C482.79,-461.31 587.63,-481.11 650.73,-493.03"/>
<polygon fill="midnightblue" stroke="midnightblue" points="650.38,-496.53 660.86,-494.94 651.68,-489.65 650.38,-496.53"/>
</g>
<!-- Node14 -->
<g id="node14" class="node">
<title>Node14</title>
<g id="a_node14"><a xlink:href="namespacePhysical.html#a7a0e10124e38dbffecaa523c97b21e4a" target="_top" xlink:title=" ">
<polygon fill="white" stroke="black" points="642,-404.5 642,-423.5 767,-423.5 767,-404.5 642,-404.5"/>
<text text-anchor="middle" x="704.5" y="-411.5" font-family="Helvetica,sans-Serif" font-size="10.00">Physical::windReduction</text>
</a>
</g>
</g>
<!-- Node7&#45;&gt;Node14 -->
<g id="edge16" class="edge">
<title>Node7&#45;&gt;Node14</title>
<path fill="none" stroke="midnightblue" d="M448.19,-433.9C503.72,-429.58 577.7,-423.81 631.73,-419.6"/>
<polygon fill="midnightblue" stroke="midnightblue" points="632.22,-423.07 641.91,-418.8 631.67,-416.09 632.22,-423.07"/>
</g>
<!-- Node9 -->
<g id="node9" class="node">
<title>Node9</title>
<g id="a_node9"><a xlink:href="namespacePhysical.html#a5753cd084d1e96b108e96f8694b4a8a1" target="_top" xlink:title=" ">
<polygon fill="white" stroke="black" points="672,-290.5 672,-309.5 737,-309.5 737,-290.5 672,-290.5"/>
<text text-anchor="middle" x="704.5" y="-297.5" font-family="Helvetica,sans-Serif" font-size="10.00">Physical::e</text>
</a>
</g>
</g>
<!-- Node8&#45;&gt;Node9 -->
<g id="edge8" class="edge">
<title>Node8&#45;&gt;Node9</title>
<path fill="none" stroke="midnightblue" d="M585.74,-328.41C609.11,-322.77 638.6,-315.66 662.22,-309.96"/>
<polygon fill="midnightblue" stroke="midnightblue" points="663.05,-313.36 671.95,-307.61 661.41,-306.55 663.05,-313.36"/>
</g>
<!-- Node10 -->
<g id="node10" class="node">
<title>Node10</title>
<g id="a_node10"><a xlink:href="namespacePhysical.html#a3fccff272b0fae8ead3c2c05f62b3620" target="_top" xlink:title=" ">
<polygon fill="white" stroke="black" points="663,-328.5 663,-347.5 746,-347.5 746,-328.5 663,-328.5"/>
<text text-anchor="middle" x="704.5" y="-335.5" font-family="Helvetica,sans-Serif" font-size="10.00">Physical::twopi</text>
</a>
</g>
</g>
<!-- Node8&#45;&gt;Node10 -->
<g id="edge9" class="edge">
<title>Node8&#45;&gt;Node10</title>
<path fill="none" stroke="midnightblue" d="M600.64,-338C617.57,-338 636.13,-338 652.78,-338"/>
<polygon fill="midnightblue" stroke="midnightblue" points="652.86,-341.5 662.86,-338 652.86,-334.5 652.86,-341.5"/>
</g>
<!-- Node10&#45;&gt;Node5 -->
<g id="edge10" class="edge">
<title>Node10&#45;&gt;Node5</title>
<path fill="none" stroke="midnightblue" d="M738.43,-328.41C755.12,-323.55 775.59,-317.59 793.46,-312.39"/>
<polygon fill="midnightblue" stroke="midnightblue" points="794.46,-315.74 803.08,-309.59 792.5,-309.02 794.46,-315.74"/>
</g>
<!-- Node12 -->
<g id="node12" class="node">
<title>Node12</title>
<g id="a_node12"><a xlink:href="namespacePhysical.html#a60d38d3c6b34c99aa2bc57a78149a3e1" target="_top" xlink:title=" ">
<polygon fill="white" stroke="black" points="672,-366.5 672,-385.5 737,-385.5 737,-366.5 672,-366.5"/>
<text text-anchor="middle" x="704.5" y="-373.5" font-family="Helvetica,sans-Serif" font-size="10.00">Physical::g</text>
</a>
</g>
</g>
<!-- Node11&#45;&gt;Node12 -->
<g id="edge12" class="edge">
<title>Node11&#45;&gt;Node12</title>
<path fill="none" stroke="midnightblue" d="M589.87,-376C612.35,-376 639.57,-376 661.73,-376"/>
<polygon fill="midnightblue" stroke="midnightblue" points="661.84,-379.5 671.84,-376 661.84,-372.5 661.84,-379.5"/>
</g>
<!-- Node11&#45;&gt;Node13 -->
<g id="edge13" class="edge">
<title>Node11&#45;&gt;Node13</title>
<path fill="none" stroke="midnightblue" d="M557.84,-385.55C584.63,-407.15 650.17,-460 683.43,-486.82"/>
<polygon fill="midnightblue" stroke="midnightblue" points="681.54,-489.79 691.52,-493.34 685.94,-484.34 681.54,-489.79"/>
</g>
<!-- Node11&#45;&gt;Node14 -->
<g id="edge14" class="edge">
<title>Node11&#45;&gt;Node14</title>
<path fill="none" stroke="midnightblue" d="M585.74,-385.59C606.53,-390.6 632.16,-396.79 654.2,-402.11"/>
<polygon fill="midnightblue" stroke="midnightblue" points="653.5,-405.54 664.04,-404.48 655.14,-398.73 653.5,-405.54"/>
</g>
<!-- Node17 -->
<g id="node17" class="node">
<title>Node17</title>
<g id="a_node17"><a xlink:href="classCircularArray.html#ae9ee07d89dc4196acefc5b290b9275b8" target="_top" xlink:title=" ">
<polygon fill="white" stroke="black" points="496,-203 496,-233 594,-233 594,-203 496,-203"/>
<text text-anchor="start" x="504" y="-221" font-family="Helvetica,sans-Serif" font-size="10.00">CircularArray::mod</text>
<text text-anchor="middle" x="545" y="-210" font-family="Helvetica,sans-Serif" font-size="10.00">_floor</text>
</a>
</g>
</g>
<!-- Node16&#45;&gt;Node17 -->
<g id="edge19" class="edge">
<title>Node16&#45;&gt;Node17</title>
<path fill="none" stroke="midnightblue" d="M415.72,-241.59C437.21,-237.64 463.07,-232.88 485.93,-228.68"/>
<polygon fill="midnightblue" stroke="midnightblue" points="486.65,-232.11 495.85,-226.85 485.38,-225.22 486.65,-232.11"/>
</g>
<!-- Node18&#45;&gt;Node13 -->
<g id="edge24" class="edge">
<title>Node18&#45;&gt;Node13</title>
<path fill="none" stroke="midnightblue" d="M252.21,-548.48C302.9,-545.9 380.67,-541.36 448,-535 518.31,-528.35 599.13,-517.73 650.72,-510.56"/>
<polygon fill="midnightblue" stroke="midnightblue" points="651.22,-514.02 660.64,-509.18 650.25,-507.09 651.22,-514.02"/>
</g>
<!-- Node18&#45;&gt;Node19 -->
<g id="edge21" class="edge">
<title>Node18&#45;&gt;Node19</title>
<path fill="none" stroke="midnightblue" d="M244.45,-541.44C265.25,-537.15 289.96,-532.07 311.8,-527.57"/>
<polygon fill="midnightblue" stroke="midnightblue" points="312.51,-531 321.6,-525.55 311.1,-524.14 312.51,-531"/>
</g>
<!-- Node20 -->
<g id="node20" class="node">
<title>Node20</title>
<g id="a_node20"><a xlink:href="namespacePhysical.html#a05752af9ecabce50d071f64c9918f5f6" target="_top" xlink:title=" ">
<polygon fill="white" stroke="black" points="501.5,-582.5 501.5,-601.5 588.5,-601.5 588.5,-582.5 501.5,-582.5"/>
<text text-anchor="middle" x="545" y="-589.5" font-family="Helvetica,sans-Serif" font-size="10.00">Physical::kt2ms</text>
</a>
</g>
</g>
<!-- Node18&#45;&gt;Node20 -->
<g id="edge22" class="edge">
<title>Node18&#45;&gt;Node20</title>
<path fill="none" stroke="midnightblue" d="M245.15,-560.54C259.5,-563.22 275.36,-565.96 290,-568 359.16,-577.64 439.46,-584.51 490.95,-588.36"/>
<polygon fill="midnightblue" stroke="midnightblue" points="490.94,-591.87 501.17,-589.12 491.46,-584.89 490.94,-591.87"/>
</g>
<!-- Node20&#45;&gt;Node13 -->
<g id="edge23" class="edge">
<title>Node20&#45;&gt;Node13</title>
<path fill="none" stroke="midnightblue" d="M573.42,-582.41C583.84,-578.41 595.67,-573.43 606,-568 633.82,-553.36 663.58,-532.71 682.8,-518.64"/>
<polygon fill="midnightblue" stroke="midnightblue" points="685.14,-521.27 691.09,-512.5 680.97,-515.64 685.14,-521.27"/>
</g>
<!-- Node21&#45;&gt;Node14 -->
<g id="edge26" class="edge">
<title>Node21&#45;&gt;Node14</title>
<path fill="none" stroke="midnightblue" d="M243.16,-462.72C318.93,-464.72 476.1,-465 606,-440 624.69,-436.4 645.09,-431.17 662.37,-426.35"/>
<polygon fill="midnightblue" stroke="midnightblue" points="663.48,-429.67 672.15,-423.57 661.57,-422.94 663.48,-429.67"/>
</g>
<!-- Node23&#45;&gt;Node3 -->
<g id="edge35" class="edge">
<title>Node23&#45;&gt;Node3</title>
<path fill="none" stroke="midnightblue" d="M218.49,-240.52C236.91,-248.83 264.86,-260.8 290,-269 297.63,-271.49 305.77,-273.82 313.82,-275.94"/>
<polygon fill="midnightblue" stroke="midnightblue" points="312.98,-279.34 323.53,-278.41 314.7,-272.55 312.98,-279.34"/>
</g>
<!-- Node23&#45;&gt;Node8 -->
<g id="edge33" class="edge">
<title>Node23&#45;&gt;Node8</title>
<path fill="none" stroke="midnightblue" d="M206.21,-240.72C221.02,-257.48 254.03,-291.54 290,-307 350.55,-333.03 426.23,-339.3 479.16,-339.97"/>
<polygon fill="midnightblue" stroke="midnightblue" points="479.41,-343.47 489.43,-340.04 479.46,-336.47 479.41,-343.47"/>
</g>
<!-- Node23&#45;&gt;Node11 -->
<g id="edge34" class="edge">
<title>Node23&#45;&gt;Node11</title>
<path fill="none" stroke="midnightblue" d="M203.19,-240.52C215.27,-261.68 247.55,-312.6 290,-336 352.62,-370.52 436.32,-377.5 490.2,-377.89"/>
<polygon fill="midnightblue" stroke="midnightblue" points="490.23,-381.39 500.23,-377.89 490.23,-374.39 490.23,-381.39"/>
</g>
<!-- Node23&#45;&gt;Node14 -->
<g id="edge41" class="edge">
<title>Node23&#45;&gt;Node14</title>
<path fill="none" stroke="midnightblue" d="M215.33,-221.42C233.36,-212.05 262.71,-198.41 290,-193 358.88,-179.33 552.17,-147.91 606,-193 675.91,-251.55 581.61,-326.67 642,-395 643.17,-396.32 644.43,-397.56 645.77,-398.71"/>
<polygon fill="midnightblue" stroke="midnightblue" points="643.88,-401.66 654.12,-404.4 647.82,-395.87 643.88,-401.66"/>
</g>
<!-- Node23&#45;&gt;Node15 -->
<g id="edge38" class="edge">
<title>Node23&#45;&gt;Node15</title>
<path fill="none" stroke="midnightblue" d="M201.25,-240.54C210.64,-266.65 240.34,-339.85 290,-378 295.51,-382.23 301.77,-385.73 308.3,-388.61"/>
<polygon fill="midnightblue" stroke="midnightblue" points="307.4,-392.01 317.98,-392.4 309.95,-385.49 307.4,-392.01"/>
</g>
<!-- Node23&#45;&gt;Node16 -->
<g id="edge39" class="edge">
<title>Node23&#45;&gt;Node16</title>
<path fill="none" stroke="midnightblue" d="M253.19,-237.17C272.18,-239.29 293.43,-241.67 312.45,-243.79"/>
<polygon fill="midnightblue" stroke="midnightblue" points="312.13,-247.28 322.45,-244.91 312.9,-240.32 312.13,-247.28"/>
</g>
<!-- Node24 -->
<g id="node24" class="node">
<title>Node24</title>
<g id="a_node24"><a xlink:href="classCircularArray.html#a0642b8def16b83c1fff8f93326d2c842" target="_top" xlink:title=" ">
<polygon fill="white" stroke="black" points="325,-202.5 325,-221.5 413,-221.5 413,-202.5 325,-202.5"/>
<text text-anchor="middle" x="369" y="-209.5" font-family="Helvetica,sans-Serif" font-size="10.00">CircularArray::at</text>
</a>
</g>
</g>
<!-- Node23&#45;&gt;Node24 -->
<g id="edge30" class="edge">
<title>Node23&#45;&gt;Node24</title>
<path fill="none" stroke="midnightblue" d="M253.19,-224.83C273.01,-222.62 295.3,-220.13 314.93,-217.93"/>
<polygon fill="midnightblue" stroke="midnightblue" points="315.37,-221.4 324.92,-216.81 314.6,-214.45 315.37,-221.4"/>
</g>
<!-- Node25 -->
<g id="node25" class="node">
<title>Node25</title>
<g id="a_node25"><a xlink:href="classIsotach.html#af93a6e1bb9f15faae4793d8205637e40" target="_top" xlink:title=" ">
<polygon fill="white" stroke="black" points="308,-126.5 308,-145.5 430,-145.5 430,-126.5 308,-126.5"/>
<text text-anchor="middle" x="369" y="-133.5" font-family="Helvetica,sans-Serif" font-size="10.00">Isotach::cisotachRadius</text>
</a>
</g>
</g>
<!-- Node23&#45;&gt;Node25 -->
<g id="edge32" class="edge">
<title>Node23&#45;&gt;Node25</title>
<path fill="none" stroke="midnightblue" d="M207.92,-221.36C223.93,-206.28 257.04,-177.07 290,-160 298.59,-155.55 308.15,-151.77 317.54,-148.61"/>
<polygon fill="midnightblue" stroke="midnightblue" points="318.75,-151.9 327.23,-145.55 316.64,-145.23 318.75,-151.9"/>
</g>
<!-- Node26 -->
<g id="node26" class="node">
<title>Node26</title>
<g id="a_node26"><a xlink:href="classAtcf.html#a82e46480c966292c69401c0fe85b2a3b" target="_top" xlink:title=" ">
<polygon fill="white" stroke="black" points="300.5,-77 300.5,-107 437.5,-107 437.5,-77 300.5,-77"/>
<text text-anchor="start" x="308.5" y="-95" font-family="Helvetica,sans-Serif" font-size="10.00">computeQuadrantVrWithout</text>
<text text-anchor="middle" x="369" y="-84" font-family="Helvetica,sans-Serif" font-size="10.00">Gamma</text>
</a>
</g>
</g>
<!-- Node23&#45;&gt;Node26 -->
<g id="edge36" class="edge">
<title>Node23&#45;&gt;Node26</title>
<path fill="none" stroke="midnightblue" d="M203.08,-221.48C215.17,-199.7 247.84,-145.91 290,-117 292.9,-115.01 295.97,-113.17 299.15,-111.47"/>
<polygon fill="midnightblue" stroke="midnightblue" points="300.85,-114.54 308.35,-107.05 297.82,-108.23 300.85,-114.54"/>
</g>
<!-- Node27 -->
<g id="node27" class="node">
<title>Node27</title>
<g id="a_node27"><a xlink:href="classIsotach.html#a1bb39878429a6f040f8e6c99102d9eba" target="_top" xlink:title=" ">
<polygon fill="white" stroke="black" points="315.5,-38.5 315.5,-57.5 422.5,-57.5 422.5,-38.5 315.5,-38.5"/>
<text text-anchor="middle" x="369" y="-45.5" font-family="Helvetica,sans-Serif" font-size="10.00">Isotach::cquadrantVr</text>
</a>
</g>
</g>
<!-- Node23&#45;&gt;Node27 -->
<g id="edge37" class="edge">
<title>Node23&#45;&gt;Node27</title>
<path fill="none" stroke="midnightblue" d="M200.44,-221.44C208.21,-193.05 235.13,-108.65 290,-67 294.77,-63.38 300.13,-60.45 305.75,-58.06"/>
<polygon fill="midnightblue" stroke="midnightblue" points="307.2,-61.26 315.39,-54.55 304.8,-54.68 307.2,-61.26"/>
</g>
<!-- Node28 -->
<g id="node28" class="node">
<title>Node28</title>
<g id="a_node28"><a xlink:href="classIsotach.html#a2d06b791604441d536b3f6c578fca40f" target="_top" xlink:title=" ">
<polygon fill="white" stroke="black" points="325,-0.5 325,-19.5 413,-19.5 413,-0.5 325,-0.5"/>
<text text-anchor="middle" x="369" y="-7.5" font-family="Helvetica,sans-Serif" font-size="10.00">Isotach::vmaxBl</text>
</a>
</g>
</g>
<!-- Node23&#45;&gt;Node28 -->
<g id="edge40" class="edge">
<title>Node23&#45;&gt;Node28</title>
<path fill="none" stroke="midnightblue" d="M199.41,-221.18C204.66,-188.39 226.16,-81.81 290,-29 297.18,-23.06 305.92,-18.93 314.93,-16.07"/>
<polygon fill="midnightblue" stroke="midnightblue" points="315.99,-19.4 324.74,-13.43 314.17,-12.64 315.99,-19.4"/>
</g>
<!-- Node24&#45;&gt;Node17 -->
<g id="edge31" class="edge">
<title>Node24&#45;&gt;Node17</title>
<path fill="none" stroke="midnightblue" d="M413.01,-213.48C434.93,-214.24 461.9,-215.17 485.66,-215.99"/>
<polygon fill="midnightblue" stroke="midnightblue" points="485.85,-219.5 495.97,-216.34 486.09,-212.5 485.85,-219.5"/>
</g>
</g>
</svg>
        <g id="navigator" transform="translate(0 0)" fill="#404254">
                <rect fill="#f2f5e9" fill-opacity="0.5" stroke="#606060" stroke-width=".5" x="0" y="0" width="60" height="60"/>
                <use id="zoomplus" xlink:href="#zoomPlus" x="17" y="9" onmousedown="handleZoom(evt,'in')"/>
                <use id="zoomminus" xlink:href="#zoomMin" x="42" y="9" onmousedown="handleZoom(evt,'out')"/>
                <use id="reset" xlink:href="#resetDef" x="30" y="36" onmousedown="handleReset()"/>
                <g id="arrowUp" xlink:href="#dirArrow" transform="translate(30 24)" onmousedown="handlePan(0,-1)">
                  <use xlink:href="#rim" fill="#404040">
                        <set attributeName="fill" to="#808080" begin="arrowUp.mouseover" end="arrowUp.mouseout"/>
                  </use>
                  <path fill="none" stroke="white" stroke-width="1.5" d="M0,-3.0v7 M-2.5,-0.5L0,-3.0L2.5,-0.5"/>
                </g>
                <g id="arrowRight" xlink:href="#dirArrow" transform="rotate(90) translate(36 -43)" onmousedown="handlePan(1,0)">
                  <use xlink:href="#rim" fill="#404040">
                        <set attributeName="fill" to="#808080" begin="arrowRight.mouseover" end="arrowRight.mouseout"/>
                  </use>
                  <path fill="none" stroke="white" stroke-width="1.5" d="M0,-3.0v7 M-2.5,-0.5L0,-3.0L2.5,-0.5"/>
                </g>
                <g id="arrowDown" xlink:href="#dirArrow" transform="rotate(180) translate(-30 -48)" onmousedown="handlePan(0,1)">
                  <use xlink:href="#rim" fill="#404040">
                        <set attributeName="fill" to="#808080" begin="arrowDown.mouseover" end="arrowDown.mouseout"/>
                  </use>
                  <path fill="none" stroke="white" stroke-width="1.5" d="M0,-3.0v7 M-2.5,-0.5L0,-3.0L2.5,-0.5"/>
                </g>
                <g id="arrowLeft" xlink:href="#dirArrow" transform="rotate(270) translate(-36 17)" onmousedown="handlePan(-1,0)">
                  <use xlink:href="#rim" fill="#404040">
                        <set attributeName="fill" to="#808080" begin="arrowLeft.mouseover" end="arrowLeft.mouseout"/>
                  </use>
                  <path fill="none" stroke="white" stroke-width="1.5" d="M0,-3.0v7 M-2.5,-0.5L0,-3.0L2.5,-0.5"/>
                </g>
        </g>
        <svg viewBox="0 0 15 15" width="100%" height="30px" preserveAspectRatio="xMaxYMin meet">
         <g id="arrow_out" transform="scale(0.3 0.3)">
          <a xlink:href="classAtcf_ada693ebe0f0ee4be52b01fd3fe83963a_cgraph_org.svg" target="_base">
           <rect id="button" ry="5" rx="5" y="6" x="6" height="38" width="38"
                fill="#f2f5e9" fill-opacity="0.5" stroke="#606060" stroke-width="1.0"/>
           <path id="arrow"
             d="M 11.500037,31.436501 C 11.940474,20.09759 22.043105,11.32322 32.158766,21.979434 L 37.068811,17.246167 C 37.068811,17.246167 37.088388,32 37.088388,32 L 22.160133,31.978069 C 22.160133,31.978069 26.997745,27.140456 26.997745,27.140456 C 18.528582,18.264221 13.291696,25.230495 11.500037,31.436501 z"
             style="fill:#404040;"/>
          </a>
         </g>
        </svg>
</svg>
