<?xml version="1.0" encoding="UTF-8" standalone="no"?>
<!DOCTYPE svg PUBLIC "-//W3C//DTD SVG 1.1//EN"
 "http://www.w3.org/Graphics/SVG/1.1/DTD/svg11.dtd">
<!-- Generated by graphviz version 2.47.1 (20210417.1919)
 -->
<!-- Title: deg2rad Pages: 1 -->
<svg width="847pt" height="180pt"
 viewBox="0.00 0.00 847.00 180.00" xmlns="http://www.w3.org/2000/svg" xmlns:xlink="http://www.w3.org/1999/xlink">
<g id="graph0" class="graph" transform="scale(1 1) rotate(0) translate(4 176)">
<title>deg2rad</title>
<polygon fill="white" stroke="transparent" points="-4,4 -4,-176 843,-176 843,4 -4,4"/>
<!-- Node1 -->
<g id="node1" class="node">
<title>Node1</title>
<g id="a_node1"><a xlink:title=" ">
<polygon fill="#bfbfbf" stroke="black" points="788,-76.5 788,-95.5 839,-95.5 839,-76.5 788,-76.5"/>
<text text-anchor="middle" x="813.5" y="-83.5" font-family="Helvetica,sans-Serif" font-size="10.00">deg2rad</text>
</a>
</g>
</g>
<!-- Node2 -->
<g id="node2" class="node">
<title>Node2</title>
<g id="a_node2"><a xlink:href="classPhysical.html#afbb6375214fefd00a0489b5373f480b8" target="_top" xlink:title=" ">
<polygon fill="white" stroke="black" points="526,-114.5 526,-133.5 600,-133.5 600,-114.5 526,-114.5"/>
<text text-anchor="middle" x="563" y="-121.5" font-family="Helvetica,sans-Serif" font-size="10.00">azimuthEarth</text>
</a>
</g>
</g>
<!-- Node1&#45;&gt;Node2 -->
<g id="edge1" class="edge">
<title>Node1&#45;&gt;Node2</title>
<path fill="none" stroke="midnightblue" d="M778.2,-98.1C769.72,-100.72 760.6,-103.23 752,-105 699.78,-115.72 638.11,-120.49 600.02,-122.54"/>
<polygon fill="midnightblue" stroke="midnightblue" points="779.33,-101.41 787.78,-95.02 777.19,-94.75 779.33,-101.41"/>
</g>
<!-- Node3 -->
<g id="node3" class="node">
<title>Node3</title>
<g id="a_node3"><a xlink:href="classVortex.html#a06a2befc5762ac390217ded44041d055" target="_top" xlink:title=" ">
<polygon fill="white" stroke="black" points="659,-152.5 659,-171.5 741,-171.5 741,-152.5 659,-152.5"/>
<text text-anchor="middle" x="700" y="-159.5" font-family="Helvetica,sans-Serif" font-size="10.00">Vortex::coriolis</text>
</a>
</g>
</g>
<!-- Node1&#45;&gt;Node3 -->
<g id="edge2" class="edge">
<title>Node1&#45;&gt;Node3</title>
<path fill="none" stroke="midnightblue" d="M795.63,-102.69C784.01,-113.62 767.87,-127.72 752,-138 743.54,-143.48 733.63,-148.44 724.81,-152.4"/>
<polygon fill="midnightblue" stroke="midnightblue" points="798.1,-105.17 802.89,-95.72 793.25,-100.12 798.1,-105.17"/>
</g>
<!-- Node5 -->
<g id="node5" class="node">
<title>Node5</title>
<g id="a_node5"><a xlink:href="classPhysical.html#a46933b0960a506f3532ab42d02b84030" target="_top" xlink:title=" ">
<polygon fill="white" stroke="black" points="514,-38.5 514,-57.5 612,-57.5 612,-38.5 514,-38.5"/>
<text text-anchor="middle" x="563" y="-45.5" font-family="Helvetica,sans-Serif" font-size="10.00">geodesic_distance</text>
</a>
</g>
</g>
<!-- Node1&#45;&gt;Node5 -->
<g id="edge4" class="edge">
<title>Node1&#45;&gt;Node5</title>
<path fill="none" stroke="midnightblue" d="M778.2,-73.9C769.72,-71.28 760.6,-68.77 752,-67 705.08,-57.37 650.53,-52.54 612.32,-50.17"/>
<polygon fill="midnightblue" stroke="midnightblue" points="777.19,-77.25 787.78,-76.98 779.33,-70.59 777.19,-77.25"/>
</g>
<!-- Node11 -->
<g id="node11" class="node">
<title>Node11</title>
<g id="a_node11"><a xlink:href="classPhysical.html#a0af6386ea46179fb49f33ea168613246" target="_top" xlink:title=" ">
<polygon fill="white" stroke="black" points="667,-76.5 667,-95.5 733,-95.5 733,-76.5 667,-76.5"/>
<text text-anchor="middle" x="700" y="-83.5" font-family="Helvetica,sans-Serif" font-size="10.00">radiusEarth</text>
</a>
</g>
</g>
<!-- Node1&#45;&gt;Node11 -->
<g id="edge10" class="edge">
<title>Node1&#45;&gt;Node11</title>
<path fill="none" stroke="midnightblue" d="M777.43,-86C763.31,-86 747.13,-86 733.3,-86"/>
<polygon fill="midnightblue" stroke="midnightblue" points="777.75,-89.5 787.75,-86 777.75,-82.5 777.75,-89.5"/>
</g>
<!-- Node13 -->
<g id="node13" class="node">
<title>Node13</title>
<g id="a_node13"><a xlink:href="classVortex.html#ae8ae0a3d4ce49e437c521815b907ea13" target="_top" xlink:title=" ">
<polygon fill="white" stroke="black" points="648,-0.5 648,-19.5 752,-19.5 752,-0.5 648,-0.5"/>
<text text-anchor="middle" x="700" y="-7.5" font-family="Helvetica,sans-Serif" font-size="10.00">Vortex::rotateWinds</text>
</a>
</g>
</g>
<!-- Node1&#45;&gt;Node13 -->
<g id="edge14" class="edge">
<title>Node1&#45;&gt;Node13</title>
<path fill="none" stroke="midnightblue" d="M795.63,-69.31C784.01,-58.38 767.87,-44.28 752,-34 743.54,-28.52 733.63,-23.56 724.81,-19.6"/>
<polygon fill="midnightblue" stroke="midnightblue" points="793.25,-71.88 802.89,-76.28 798.1,-66.83 793.25,-71.88"/>
</g>
<!-- Node4 -->
<g id="node4" class="node">
<title>Node4</title>
<g id="a_node4"><a xlink:href="classVortex.html#a0ac693bb2d65ec6cf3e5b632e6af4152" target="_top" xlink:title=" ">
<polygon fill="white" stroke="black" points="516.5,-152.5 516.5,-171.5 609.5,-171.5 609.5,-152.5 516.5,-152.5"/>
<text text-anchor="middle" x="563" y="-159.5" font-family="Helvetica,sans-Serif" font-size="10.00">Vortex::setVortex</text>
</a>
</g>
</g>
<!-- Node3&#45;&gt;Node4 -->
<g id="edge3" class="edge">
<title>Node3&#45;&gt;Node4</title>
<path fill="none" stroke="midnightblue" d="M648.86,-162C636.1,-162 622.45,-162 609.91,-162"/>
<polygon fill="midnightblue" stroke="midnightblue" points="648.86,-165.5 658.86,-162 648.86,-158.5 648.86,-165.5"/>
</g>
<!-- Node6 -->
<g id="node6" class="node">
<title>Node6</title>
<g id="a_node6"><a xlink:href="classPhysical.html#a0d5a798f989b297250dec7184c34840a" target="_top" xlink:title=" ">
<polygon fill="white" stroke="black" points="417.5,-57.5 417.5,-76.5 470.5,-76.5 470.5,-57.5 417.5,-57.5"/>
<text text-anchor="middle" x="444" y="-64.5" font-family="Helvetica,sans-Serif" font-size="10.00">distance</text>
</a>
</g>
</g>
<!-- Node5&#45;&gt;Node6 -->
<g id="edge5" class="edge">
<title>Node5&#45;&gt;Node6</title>
<path fill="none" stroke="midnightblue" d="M503.63,-57.48C492.08,-59.35 480.52,-61.23 470.76,-62.82"/>
<polygon fill="midnightblue" stroke="midnightblue" points="504.43,-60.9 513.74,-55.84 503.3,-53.99 504.43,-60.9"/>
</g>
<!-- Node7 -->
<g id="node7" class="node">
<title>Node7</title>
<g id="a_node7"><a xlink:href="classPhysical.html#ac6d713f1908e7e0538db20f88b34f639" target="_top" xlink:title=" ">
<polygon fill="white" stroke="black" points="410,-19.5 410,-38.5 478,-38.5 478,-19.5 410,-19.5"/>
<text text-anchor="middle" x="444" y="-26.5" font-family="Helvetica,sans-Serif" font-size="10.00">sphericalDx</text>
</a>
</g>
</g>
<!-- Node5&#45;&gt;Node7 -->
<g id="edge6" class="edge">
<title>Node5&#45;&gt;Node7</title>
<path fill="none" stroke="midnightblue" d="M503.84,-38.55C495.03,-37.12 486.2,-35.69 478.17,-34.39"/>
<polygon fill="midnightblue" stroke="midnightblue" points="503.3,-42.01 513.74,-40.16 504.43,-35.1 503.3,-42.01"/>
</g>
<!-- Node8 -->
<g id="node8" class="node">
<title>Node8</title>
<g id="a_node8"><a xlink:href="classAtcf.html#a4fce87a97b674a5bbb54f01a8dd5c55e" target="_top" xlink:title=" ">
<polygon fill="white" stroke="black" points="298,-19.5 298,-38.5 374,-38.5 374,-19.5 298,-19.5"/>
<text text-anchor="middle" x="336" y="-26.5" font-family="Helvetica,sans-Serif" font-size="10.00">Atcf::uvTrans</text>
</a>
</g>
</g>
<!-- Node7&#45;&gt;Node8 -->
<g id="edge7" class="edge">
<title>Node7&#45;&gt;Node8</title>
<path fill="none" stroke="midnightblue" d="M399.67,-29C391.22,-29 382.42,-29 374.19,-29"/>
<polygon fill="midnightblue" stroke="midnightblue" points="399.75,-32.5 409.75,-29 399.75,-25.5 399.75,-32.5"/>
</g>
<!-- Node9 -->
<g id="node9" class="node">
<title>Node9</title>
<g id="a_node9"><a xlink:href="classAtcf.html#a4bec7c75f41a2643be3bccf63921dfa1" target="_top" xlink:title=" ">
<polygon fill="white" stroke="black" points="95,-14 95,-44 262,-44 262,-14 95,-14"/>
<text text-anchor="start" x="103" y="-32" font-family="Helvetica,sans-Serif" font-size="10.00">Atcf::calculateOverlandTranslation</text>
<text text-anchor="middle" x="178.5" y="-21" font-family="Helvetica,sans-Serif" font-size="10.00">Velocity</text>
</a>
</g>
</g>
<!-- Node8&#45;&gt;Node9 -->
<g id="edge8" class="edge">
<title>Node8&#45;&gt;Node9</title>
<path fill="none" stroke="midnightblue" d="M287.72,-29C279.54,-29 270.83,-29 262.04,-29"/>
<polygon fill="midnightblue" stroke="midnightblue" points="287.75,-32.5 297.75,-29 287.75,-25.5 287.75,-32.5"/>
</g>
<!-- Node10 -->
<g id="node10" class="node">
<title>Node10</title>
<g id="a_node10"><a xlink:href="classAtcf.html#aaab5dab5b969a87f538242e524431637" target="_top" xlink:title=" ">
<polygon fill="white" stroke="black" points="0,-19.5 0,-38.5 59,-38.5 59,-19.5 0,-19.5"/>
<text text-anchor="middle" x="29.5" y="-26.5" font-family="Helvetica,sans-Serif" font-size="10.00">Atcf::read</text>
</a>
</g>
</g>
<!-- Node9&#45;&gt;Node10 -->
<g id="edge9" class="edge">
<title>Node9&#45;&gt;Node10</title>
<path fill="none" stroke="midnightblue" d="M84.86,-29C75.67,-29 66.91,-29 59.21,-29"/>
<polygon fill="midnightblue" stroke="midnightblue" points="84.98,-32.5 94.98,-29 84.98,-25.5 84.98,-32.5"/>
</g>
<!-- Node11&#45;&gt;Node2 -->
<g id="edge11" class="edge">
<title>Node11&#45;&gt;Node2</title>
<path fill="none" stroke="midnightblue" d="M656.8,-97.88C637.85,-103.21 615.81,-109.42 597.96,-114.44"/>
<polygon fill="midnightblue" stroke="midnightblue" points="657.99,-101.18 666.66,-95.1 656.09,-94.44 657.99,-101.18"/>
</g>
<!-- Node11&#45;&gt;Node5 -->
<g id="edge12" class="edge">
<title>Node11&#45;&gt;Node5</title>
<path fill="none" stroke="midnightblue" d="M656.8,-74.12C637.85,-68.79 615.81,-62.58 597.96,-57.56"/>
<polygon fill="midnightblue" stroke="midnightblue" points="656.09,-77.56 666.66,-76.9 657.99,-70.82 656.09,-77.56"/>
</g>
<!-- Node12 -->
<g id="node12" class="node">
<title>Node12</title>
<g id="a_node12"><a xlink:href="classPhysical.html#a9ebd20411025eccc634afb460a75df72" target="_top" xlink:title=" ">
<polygon fill="white" stroke="black" points="530,-76.5 530,-95.5 596,-95.5 596,-76.5 530,-76.5"/>
<text text-anchor="middle" x="563" y="-83.5" font-family="Helvetica,sans-Serif" font-size="10.00">radiusEarth</text>
</a>
</g>
</g>
<!-- Node11&#45;&gt;Node12 -->
<g id="edge13" class="edge">
<title>Node11&#45;&gt;Node12</title>
<path fill="none" stroke="midnightblue" d="M656.49,-86C636.94,-86 614.14,-86 596.07,-86"/>
<polygon fill="midnightblue" stroke="midnightblue" points="656.66,-89.5 666.66,-86 656.66,-82.5 656.66,-89.5"/>
</g>
<!-- Node14 -->
<g id="node14" class="node">
<title>Node14</title>
<g id="a_node14"><a xlink:href="classGahm.html#abd838ada495dbe369ae8b2cae185e063" target="_top" xlink:title=" ">
<polygon fill="white" stroke="black" points="521.5,-0.5 521.5,-19.5 604.5,-19.5 604.5,-0.5 521.5,-0.5"/>
<text text-anchor="middle" x="563" y="-7.5" font-family="Helvetica,sans-Serif" font-size="10.00">Gahm::getUvpr</text>
</a>
</g>
</g>
<!-- Node13&#45;&gt;Node14 -->
<g id="edge15" class="edge">
<title>Node13&#45;&gt;Node14</title>
<path fill="none" stroke="midnightblue" d="M637.74,-10C626.51,-10 615.04,-10 604.6,-10"/>
<polygon fill="midnightblue" stroke="midnightblue" points="637.96,-13.5 647.96,-10 637.96,-6.5 637.96,-13.5"/>
</g>
</g>
</svg>
