<?xml version="1.0" encoding="UTF-8" standalone="no"?>
<!DOCTYPE svg PUBLIC "-//W3C//DTD SVG 1.1//EN"
 "http://www.w3.org/Graphics/SVG/1.1/DTD/svg11.dtd">
<!-- Generated by graphviz version 2.47.1 (20210417.1919)
 -->
<!-- Title: HurricanePressure Pages: 1 -->
<svg width="209pt" height="867pt"
 viewBox="0.00 0.00 209.00 867.00" xmlns="http://www.w3.org/2000/svg" xmlns:xlink="http://www.w3.org/1999/xlink">
<g id="graph0" class="graph" transform="scale(1 1) rotate(0) translate(4 863)">
<title>HurricanePressure</title>
<polygon fill="white" stroke="transparent" points="-4,4 -4,-863 205,-863 205,4 -4,4"/>
<!-- Node1 -->
<g id="node1" class="node">
<title>Node1</title>
<g id="a_node1"><a xlink:title=" ">
<polygon fill="#bfbfbf" stroke="black" points="18,-0.5 18,-211.5 188,-211.5 188,-0.5 18,-0.5"/>
<text text-anchor="middle" x="103" y="-199.5" font-family="Helvetica,sans-Serif" font-size="10.00">HurricanePressure</text>
<polyline fill="none" stroke="black" points="18,-192.5 188,-192.5 "/>
<text text-anchor="start" x="26" y="-180.5" font-family="Helvetica,sans-Serif" font-size="10.00">&#45; m_pressureMethod</text>
<polyline fill="none" stroke="black" points="18,-173.5 188,-173.5 "/>
<text text-anchor="start" x="26" y="-161.5" font-family="Helvetica,sans-Serif" font-size="10.00">+ HurricanePressure()</text>
<text text-anchor="start" x="26" y="-150.5" font-family="Helvetica,sans-Serif" font-size="10.00">+ computePressure()</text>
<text text-anchor="start" x="26" y="-139.5" font-family="Helvetica,sans-Serif" font-size="10.00">+ computePressure()</text>
<text text-anchor="start" x="26" y="-128.5" font-family="Helvetica,sans-Serif" font-size="10.00">+ computePressure()</text>
<text text-anchor="start" x="26" y="-117.5" font-family="Helvetica,sans-Serif" font-size="10.00">+ computePressure()</text>
<text text-anchor="start" x="26" y="-106.5" font-family="Helvetica,sans-Serif" font-size="10.00">+ pressureMethod()</text>
<text text-anchor="start" x="26" y="-95.5" font-family="Helvetica,sans-Serif" font-size="10.00">+ computeInitialPressureEstimate()</text>
<text text-anchor="start" x="26" y="-84.5" font-family="Helvetica,sans-Serif" font-size="10.00">+ pressureMethodString()</text>
<text text-anchor="start" x="26" y="-73.5" font-family="Helvetica,sans-Serif" font-size="10.00">&#45; ah77()</text>
<text text-anchor="start" x="26" y="-62.5" font-family="Helvetica,sans-Serif" font-size="10.00">&#45; asgs2012()</text>
<text text-anchor="start" x="26" y="-51.5" font-family="Helvetica,sans-Serif" font-size="10.00">&#45; computePressureCurveFit()</text>
<text text-anchor="start" x="26" y="-40.5" font-family="Helvetica,sans-Serif" font-size="10.00">&#45; courtneyknaff()</text>
<text text-anchor="start" x="26" y="-29.5" font-family="Helvetica,sans-Serif" font-size="10.00">&#45; dvorak()</text>
<text text-anchor="start" x="26" y="-18.5" font-family="Helvetica,sans-Serif" font-size="10.00">&#45; knaffzehr()</text>
<text text-anchor="start" x="26" y="-7.5" font-family="Helvetica,sans-Serif" font-size="10.00">&#45; twoslope()</text>
</a>
</g>
</g>
<!-- Node2 -->
<g id="node2" class="node">
<title>Node2</title>
<g id="a_node2"><a xlink:href="classAssumptions.html" target="_top" xlink:title=" ">
<polygon fill="white" stroke="black" points="59,-259.5 59,-360.5 147,-360.5 147,-259.5 59,-259.5"/>
<text text-anchor="middle" x="103" y="-348.5" font-family="Helvetica,sans-Serif" font-size="10.00">Assumptions</text>
<polyline fill="none" stroke="black" points="59,-341.5 147,-341.5 "/>
<text text-anchor="middle" x="103" y="-329.5" font-family="Helvetica,sans-Serif" font-size="10.00"> </text>
<polyline fill="none" stroke="black" points="59,-322.5 147,-322.5 "/>
<text text-anchor="start" x="67" y="-310.5" font-family="Helvetica,sans-Serif" font-size="10.00">+ Assumptions()</text>
<text text-anchor="start" x="67" y="-299.5" font-family="Helvetica,sans-Serif" font-size="10.00">+ add()</text>
<text text-anchor="start" x="67" y="-288.5" font-family="Helvetica,sans-Serif" font-size="10.00">+ count()</text>
<text text-anchor="start" x="67" y="-277.5" font-family="Helvetica,sans-Serif" font-size="10.00">+ get()</text>
<text text-anchor="start" x="67" y="-266.5" font-family="Helvetica,sans-Serif" font-size="10.00">+ log()</text>
</a>
</g>
</g>
<!-- Node2&#45;&gt;Node1 -->
<g id="edge1" class="edge">
<title>Node2&#45;&gt;Node1</title>
<path fill="none" stroke="#404040" d="M103,-259.33C103,-248.46 103,-236.52 103,-224.25"/>
<polygon fill="none" stroke="#404040" points="103,-223.89 99,-217.89 103,-211.89 107,-217.89 103,-223.89"/>
<text text-anchor="middle" x="141" y="-233" font-family="Helvetica,sans-Serif" font-size="10.00"> &#45;m_assumptions</text>
</g>
<!-- Node3 -->
<g id="node3" class="node">
<title>Node3</title>
<g id="a_node3"><a xlink:title=" ">
<polygon fill="white" stroke="#bfbfbf" points="46.5,-408.5 46.5,-465.5 159.5,-465.5 159.5,-408.5 46.5,-408.5"/>
<text text-anchor="middle" x="103" y="-453.5" font-family="Helvetica,sans-Serif" font-size="10.00">vector&lt; Assumption &gt;</text>
<polyline fill="none" stroke="#bfbfbf" points="46.5,-446.5 159.5,-446.5 "/>
<text text-anchor="middle" x="103" y="-434.5" font-family="Helvetica,sans-Serif" font-size="10.00"> </text>
<polyline fill="none" stroke="#bfbfbf" points="46.5,-427.5 159.5,-427.5 "/>
<text text-anchor="middle" x="103" y="-415.5" font-family="Helvetica,sans-Serif" font-size="10.00"> </text>
</a>
</g>
</g>
<!-- Node3&#45;&gt;Node2 -->
<g id="edge2" class="edge">
<title>Node3&#45;&gt;Node2</title>
<path fill="none" stroke="#404040" d="M103,-408.26C103,-397.79 103,-385.42 103,-373.07"/>
<polygon fill="none" stroke="#404040" points="103,-372.8 99,-366.8 103,-360.8 107,-366.8 103,-372.8"/>
<text text-anchor="middle" x="141" y="-382" font-family="Helvetica,sans-Serif" font-size="10.00"> &#45;m_assumptions</text>
</g>
<!-- Node4 -->
<g id="node4" class="node">
<title>Node4</title>
<g id="a_node4"><a xlink:href="classAssumption.html" target="_top" xlink:title=" ">
<polygon fill="white" stroke="black" points="8,-513.5 8,-647.5 100,-647.5 100,-513.5 8,-513.5"/>
<text text-anchor="middle" x="54" y="-635.5" font-family="Helvetica,sans-Serif" font-size="10.00">Assumption</text>
<polyline fill="none" stroke="black" points="8,-628.5 100,-628.5 "/>
<text text-anchor="start" x="16" y="-616.5" font-family="Helvetica,sans-Serif" font-size="10.00">&#45; m_line</text>
<text text-anchor="start" x="16" y="-605.5" font-family="Helvetica,sans-Serif" font-size="10.00">&#45; m_severity</text>
<polyline fill="none" stroke="black" points="8,-598.5 100,-598.5 "/>
<text text-anchor="start" x="16" y="-586.5" font-family="Helvetica,sans-Serif" font-size="10.00">+ Assumption()</text>
<text text-anchor="start" x="16" y="-575.5" font-family="Helvetica,sans-Serif" font-size="10.00">+ filename()</text>
<text text-anchor="start" x="16" y="-564.5" font-family="Helvetica,sans-Serif" font-size="10.00">+ line()</text>
<text text-anchor="start" x="16" y="-553.5" font-family="Helvetica,sans-Serif" font-size="10.00">+ message()</text>
<text text-anchor="start" x="16" y="-542.5" font-family="Helvetica,sans-Serif" font-size="10.00">+ severity()</text>
<text text-anchor="start" x="16" y="-531.5" font-family="Helvetica,sans-Serif" font-size="10.00">+ toString()</text>
<text text-anchor="start" x="16" y="-520.5" font-family="Helvetica,sans-Serif" font-size="10.00">+ severityString()</text>
</a>
</g>
</g>
<!-- Node4&#45;&gt;Node3 -->
<g id="edge3" class="edge">
<title>Node4&#45;&gt;Node3</title>
<path fill="none" stroke="#404040" d="M64.64,-513.34C67.17,-503.33 70.25,-493.26 74,-484 75.01,-481.51 76.15,-479.01 77.38,-476.52"/>
<polygon fill="none" stroke="#404040" points="77.46,-476.38 76.85,-469.19 83.24,-465.86 83.86,-473.05 77.46,-476.38"/>
<text text-anchor="middle" x="98.5" y="-487" font-family="Helvetica,sans-Serif" font-size="10.00"> +elements</text>
</g>
<!-- Node5 -->
<g id="node5" class="node">
<title>Node5</title>
<g id="a_node5"><a xlink:title=" ">
<polygon fill="white" stroke="#bfbfbf" points="33.5,-706.5 33.5,-763.5 74.5,-763.5 74.5,-706.5 33.5,-706.5"/>
<text text-anchor="middle" x="54" y="-751.5" font-family="Helvetica,sans-Serif" font-size="10.00">string</text>
<polyline fill="none" stroke="#bfbfbf" points="33.5,-744.5 74.5,-744.5 "/>
<text text-anchor="middle" x="54" y="-732.5" font-family="Helvetica,sans-Serif" font-size="10.00"> </text>
<polyline fill="none" stroke="#bfbfbf" points="33.5,-725.5 74.5,-725.5 "/>
<text text-anchor="middle" x="54" y="-713.5" font-family="Helvetica,sans-Serif" font-size="10.00"> </text>
</a>
</g>
</g>
<!-- Node5&#45;&gt;Node4 -->
<g id="edge4" class="edge">
<title>Node5&#45;&gt;Node4</title>
<path fill="none" stroke="#404040" d="M54,-706.38C54,-693.12 54,-676.49 54,-659.74"/>
<polygon fill="none" stroke="#404040" points="54,-659.56 50,-653.56 54,-647.56 58,-653.56 54,-659.56"/>
<text text-anchor="middle" x="82.5" y="-680" font-family="Helvetica,sans-Serif" font-size="10.00"> &#45;m_filename</text>
<text text-anchor="middle" x="82.5" y="-669" font-family="Helvetica,sans-Serif" font-size="10.00">&#45;m_message</text>
</g>
<!-- Node6 -->
<g id="node6" class="node">
<title>Node6</title>
<g id="a_node6"><a xlink:title=" ">
<polygon fill="white" stroke="#bfbfbf" points="0,-801.5 0,-858.5 108,-858.5 108,-801.5 0,-801.5"/>
<text text-anchor="middle" x="54" y="-846.5" font-family="Helvetica,sans-Serif" font-size="10.00">basic_string&lt; Char &gt;</text>
<polyline fill="none" stroke="#bfbfbf" points="0,-839.5 108,-839.5 "/>
<text text-anchor="middle" x="54" y="-827.5" font-family="Helvetica,sans-Serif" font-size="10.00"> </text>
<polyline fill="none" stroke="#bfbfbf" points="0,-820.5 108,-820.5 "/>
<text text-anchor="middle" x="54" y="-808.5" font-family="Helvetica,sans-Serif" font-size="10.00"> </text>
</a>
</g>
</g>
<!-- Node6&#45;&gt;Node5 -->
<g id="edge5" class="edge">
<title>Node6&#45;&gt;Node5</title>
<path fill="none" stroke="midnightblue" d="M54,-791.24C54,-782.03 54,-772.35 54,-763.71"/>
<polygon fill="none" stroke="midnightblue" points="50.5,-791.35 54,-801.35 57.5,-791.35 50.5,-791.35"/>
</g>
<!-- Node7 -->
<g id="node7" class="node">
<title>Node7</title>
<g id="a_node7"><a xlink:title=" ">
<polygon fill="white" stroke="#bfbfbf" points="118,-552 118,-609 186,-609 186,-552 118,-552"/>
<text text-anchor="middle" x="152" y="-597" font-family="Helvetica,sans-Serif" font-size="10.00">vector&lt; T &gt;</text>
<polyline fill="none" stroke="#bfbfbf" points="118,-590 186,-590 "/>
<text text-anchor="middle" x="152" y="-578" font-family="Helvetica,sans-Serif" font-size="10.00"> </text>
<polyline fill="none" stroke="#bfbfbf" points="118,-571 186,-571 "/>
<text text-anchor="middle" x="152" y="-559" font-family="Helvetica,sans-Serif" font-size="10.00"> </text>
</a>
</g>
</g>
<!-- Node7&#45;&gt;Node3 -->
<g id="edge6" class="edge">
<title>Node7&#45;&gt;Node3</title>
<path fill="none" stroke="orange" d="M141.61,-541.69C136.47,-524 129.9,-502.76 123,-484 120.78,-477.95 118.17,-471.56 115.58,-465.52"/>
<polygon fill="orange" stroke="orange" points="138.34,-542.99 144.46,-551.64 145.07,-541.06 138.34,-542.99"/>
<text text-anchor="middle" x="162.5" y="-487" font-family="Helvetica,sans-Serif" font-size="10.00"> &lt; Assumption &gt;</text>
</g>
<!-- Node8 -->
<g id="node8" class="node">
<title>Node8</title>
<g id="a_node8"><a xlink:title=" ">
<polygon fill="white" stroke="#bfbfbf" points="137.5,-706.5 137.5,-763.5 166.5,-763.5 166.5,-706.5 137.5,-706.5"/>
<text text-anchor="middle" x="152" y="-751.5" font-family="Helvetica,sans-Serif" font-size="10.00">T</text>
<polyline fill="none" stroke="#bfbfbf" points="137.5,-744.5 166.5,-744.5 "/>
<text text-anchor="middle" x="152" y="-732.5" font-family="Helvetica,sans-Serif" font-size="10.00"> </text>
<polyline fill="none" stroke="#bfbfbf" points="137.5,-725.5 166.5,-725.5 "/>
<text text-anchor="middle" x="152" y="-713.5" font-family="Helvetica,sans-Serif" font-size="10.00"> </text>
</a>
</g>
</g>
<!-- Node8&#45;&gt;Node7 -->
<g id="edge7" class="edge">
<title>Node8&#45;&gt;Node7</title>
<path fill="none" stroke="#404040" d="M152,-706.38C152,-682.6 152,-647.98 152,-621.22"/>
<polygon fill="none" stroke="#404040" points="152,-621.17 148,-615.17 152,-609.17 156,-615.17 152,-621.17"/>
<text text-anchor="middle" x="176.5" y="-674.5" font-family="Helvetica,sans-Serif" font-size="10.00"> +elements</text>
</g>
</g>
</svg>
