<?xml version="1.0" encoding="UTF-8" standalone="no"?>
<!DOCTYPE svg PUBLIC "-//W3C//DTD SVG 1.1//EN"
 "http://www.w3.org/Graphics/SVG/1.1/DTD/svg11.dtd">
<!-- Generated by graphviz version 2.47.1 (20210417.1919)
 -->
<!-- Title: code Pages: 1 -->
<svg width="522pt" height="142pt"
 viewBox="0.00 0.00 522.00 142.00" xmlns="http://www.w3.org/2000/svg" xmlns:xlink="http://www.w3.org/1999/xlink">
<g id="graph0" class="graph" transform="scale(1 1) rotate(0) translate(4 138)">
<title>code</title>
<polygon fill="white" stroke="transparent" points="-4,4 -4,-138 518,-138 518,4 -4,4"/>
<!-- Node1 -->
<g id="node1" class="node">
<title>Node1</title>
<g id="a_node1"><a xlink:title=" ">
<polygon fill="#bfbfbf" stroke="black" points="476,-57.5 476,-76.5 514,-76.5 514,-57.5 476,-57.5"/>
<text text-anchor="middle" x="495" y="-64.5" font-family="Helvetica,sans-Serif" font-size="10.00">code</text>
</a>
</g>
</g>
<!-- Node2 -->
<g id="node2" class="node">
<title>Node2</title>
<g id="a_node2"><a xlink:href="classIsotach.html#ad8db29d5da4482e0ac19ece84e108947" target="_top" xlink:title=" ">
<polygon fill="white" stroke="black" points="354,-114.5 354,-133.5 440,-133.5 440,-114.5 354,-114.5"/>
<text text-anchor="middle" x="397" y="-121.5" font-family="Helvetica,sans-Serif" font-size="10.00">codeFromString</text>
</a>
</g>
</g>
<!-- Node1&#45;&gt;Node2 -->
<g id="edge1" class="edge">
<title>Node1&#45;&gt;Node2</title>
<path fill="none" stroke="midnightblue" d="M473.28,-82.96C463.47,-90.15 451.43,-98.47 440,-105 434.16,-108.33 427.63,-111.53 421.5,-114.31"/>
<polygon fill="midnightblue" stroke="midnightblue" points="475.66,-85.55 481.57,-76.76 471.47,-79.95 475.66,-85.55"/>
</g>
<!-- Node6 -->
<g id="node6" class="node">
<title>Node6</title>
<g id="a_node6"><a xlink:href="classIsotach.html#a64352a7d018b8161e34e42ae0aad2e32" target="_top" xlink:title=" ">
<polygon fill="white" stroke="black" points="376.5,-76.5 376.5,-95.5 417.5,-95.5 417.5,-76.5 376.5,-76.5"/>
<text text-anchor="middle" x="397" y="-83.5" font-family="Helvetica,sans-Serif" font-size="10.00">isNull</text>
</a>
</g>
</g>
<!-- Node1&#45;&gt;Node6 -->
<g id="edge5" class="edge">
<title>Node1&#45;&gt;Node6</title>
<path fill="none" stroke="midnightblue" d="M465.86,-72.57C450.36,-75.64 431.52,-79.37 417.63,-82.12"/>
<polygon fill="midnightblue" stroke="midnightblue" points="466.81,-75.95 475.94,-70.57 465.45,-69.08 466.81,-75.95"/>
</g>
<!-- Node7 -->
<g id="node7" class="node">
<title>Node7</title>
<g id="a_node7"><a xlink:href="classIsotach.html#a9eccf0a80d868dc67d497f40a98227ce" target="_top" xlink:title=" ">
<polygon fill="white" stroke="black" points="370.5,-38.5 370.5,-57.5 423.5,-57.5 423.5,-38.5 370.5,-38.5"/>
<text text-anchor="middle" x="397" y="-45.5" font-family="Helvetica,sans-Serif" font-size="10.00">setCode</text>
</a>
</g>
</g>
<!-- Node1&#45;&gt;Node7 -->
<g id="edge6" class="edge">
<title>Node1&#45;&gt;Node7</title>
<path fill="none" stroke="midnightblue" d="M465.86,-61.43C452.48,-58.78 436.61,-55.64 423.58,-53.06"/>
<polygon fill="midnightblue" stroke="midnightblue" points="465.45,-64.92 475.94,-63.43 466.81,-58.05 465.45,-64.92"/>
</g>
<!-- Node8 -->
<g id="node8" class="node">
<title>Node8</title>
<g id="a_node8"><a xlink:href="classIsotach.html#a107f943d740f337a47238f2265924174" target="_top" xlink:title=" ">
<polygon fill="white" stroke="black" points="354,-0.5 354,-19.5 440,-19.5 440,-0.5 354,-0.5"/>
<text text-anchor="middle" x="397" y="-7.5" font-family="Helvetica,sans-Serif" font-size="10.00">stringFromCode</text>
</a>
</g>
</g>
<!-- Node1&#45;&gt;Node8 -->
<g id="edge7" class="edge">
<title>Node1&#45;&gt;Node8</title>
<path fill="none" stroke="midnightblue" d="M473.28,-51.04C463.47,-43.85 451.43,-35.53 440,-29 434.16,-25.67 427.63,-22.47 421.5,-19.69"/>
<polygon fill="midnightblue" stroke="midnightblue" points="471.47,-54.05 481.57,-57.24 475.66,-48.45 471.47,-54.05"/>
</g>
<!-- Node3 -->
<g id="node3" class="node">
<title>Node3</title>
<g id="a_node3"><a xlink:href="classAtcfLine.html#a669437f8facd47f46097adc21d0d497b" target="_top" xlink:title="Static function to parse an atcf line text using boost. Places data into an Atcfline object and retur...">
<polygon fill="white" stroke="black" points="199,-114.5 199,-133.5 318,-133.5 318,-114.5 199,-114.5"/>
<text text-anchor="middle" x="258.5" y="-121.5" font-family="Helvetica,sans-Serif" font-size="10.00">AtcfLine::parseAtcfLine</text>
</a>
</g>
</g>
<!-- Node2&#45;&gt;Node3 -->
<g id="edge2" class="edge">
<title>Node2&#45;&gt;Node3</title>
<path fill="none" stroke="midnightblue" d="M343.9,-124C335.51,-124 326.78,-124 318.24,-124"/>
<polygon fill="midnightblue" stroke="midnightblue" points="343.93,-127.5 353.93,-124 343.93,-120.5 343.93,-127.5"/>
</g>
<!-- Node4 -->
<g id="node4" class="node">
<title>Node4</title>
<g id="a_node4"><a xlink:href="classAtcf.html#aaab5dab5b969a87f538242e524431637" target="_top" xlink:title=" ">
<polygon fill="white" stroke="black" points="104,-114.5 104,-133.5 163,-133.5 163,-114.5 104,-114.5"/>
<text text-anchor="middle" x="133.5" y="-121.5" font-family="Helvetica,sans-Serif" font-size="10.00">Atcf::read</text>
</a>
</g>
</g>
<!-- Node3&#45;&gt;Node4 -->
<g id="edge3" class="edge">
<title>Node3&#45;&gt;Node4</title>
<path fill="none" stroke="midnightblue" d="M188.74,-124C179.79,-124 171.06,-124 163.3,-124"/>
<polygon fill="midnightblue" stroke="midnightblue" points="188.88,-127.5 198.88,-124 188.88,-120.5 188.88,-127.5"/>
</g>
<!-- Node5 -->
<g id="node5" class="node">
<title>Node5</title>
<g id="a_node5"><a xlink:href="classGahm.html#aaab5dab5b969a87f538242e524431637" target="_top" xlink:title=" ">
<polygon fill="white" stroke="black" points="0,-114.5 0,-133.5 68,-133.5 68,-114.5 0,-114.5"/>
<text text-anchor="middle" x="34" y="-121.5" font-family="Helvetica,sans-Serif" font-size="10.00">Gahm::read</text>
</a>
</g>
</g>
<!-- Node4&#45;&gt;Node5 -->
<g id="edge4" class="edge">
<title>Node4&#45;&gt;Node5</title>
<path fill="none" stroke="midnightblue" d="M93.5,-124C85.16,-124 76.43,-124 68.32,-124"/>
<polygon fill="midnightblue" stroke="midnightblue" points="93.77,-127.5 103.77,-124 93.77,-120.5 93.77,-127.5"/>
</g>
</g>
</svg>
