<?xml version="1.0" encoding="UTF-8" standalone="no"?>
<!DOCTYPE svg PUBLIC "-//W3C//DTD SVG 1.1//EN"
 "http://www.w3.org/Graphics/SVG/1.1/DTD/svg11.dtd">
<!-- Generated by graphviz version 2.47.1 (20210417.1919)
 -->
<!-- Title: kt2ms Pages: 1 -->
<svg width="454pt" height="78pt"
 viewBox="0.00 0.00 454.00 77.50" xmlns="http://www.w3.org/2000/svg" xmlns:xlink="http://www.w3.org/1999/xlink">
<g id="graph0" class="graph" transform="scale(1 1) rotate(0) translate(4 73.5)">
<title>kt2ms</title>
<polygon fill="white" stroke="transparent" points="-4,4 -4,-73.5 450,-73.5 450,4 -4,4"/>
<!-- Node1 -->
<g id="node1" class="node">
<title>Node1</title>
<g id="a_node1"><a xlink:title=" ">
<polygon fill="#bfbfbf" stroke="black" points="402,-22.5 402,-41.5 446,-41.5 446,-22.5 402,-22.5"/>
<text text-anchor="middle" x="424" y="-29.5" font-family="Helvetica,sans-Serif" font-size="10.00">kt2ms</text>
</a>
</g>
</g>
<!-- Node2 -->
<g id="node2" class="node">
<title>Node2</title>
<g id="a_node2"><a xlink:href="classAtcf.html#a4bec7c75f41a2643be3bccf63921dfa1" target="_top" xlink:title=" ">
<polygon fill="white" stroke="black" points="199,-39 199,-69 366,-69 366,-39 199,-39"/>
<text text-anchor="start" x="207" y="-57" font-family="Helvetica,sans-Serif" font-size="10.00">Atcf::calculateOverlandTranslation</text>
<text text-anchor="middle" x="282.5" y="-46" font-family="Helvetica,sans-Serif" font-size="10.00">Velocity</text>
</a>
</g>
</g>
<!-- Node1&#45;&gt;Node2 -->
<g id="edge1" class="edge">
<title>Node1&#45;&gt;Node2</title>
<path fill="none" stroke="midnightblue" d="M391.82,-36.92C384.03,-38.15 375.29,-39.52 366.26,-40.95"/>
<polygon fill="midnightblue" stroke="midnightblue" points="392.48,-40.36 401.81,-35.34 391.39,-33.44 392.48,-40.36"/>
</g>
<!-- Node5 -->
<g id="node5" class="node">
<title>Node5</title>
<g id="a_node5"><a xlink:href="classAtcfLine.html#a669437f8facd47f46097adc21d0d497b" target="_top" xlink:title="Static function to parse an atcf line text using boost. Places data into an Atcfline object and retur...">
<polygon fill="white" stroke="black" points="223,-0.5 223,-19.5 342,-19.5 342,-0.5 223,-0.5"/>
<text text-anchor="middle" x="282.5" y="-7.5" font-family="Helvetica,sans-Serif" font-size="10.00">AtcfLine::parseAtcfLine</text>
</a>
</g>
</g>
<!-- Node1&#45;&gt;Node5 -->
<g id="edge4" class="edge">
<title>Node1&#45;&gt;Node5</title>
<path fill="none" stroke="midnightblue" d="M391.77,-27.08C377.09,-24.76 359.1,-21.92 342.03,-19.23"/>
<polygon fill="midnightblue" stroke="midnightblue" points="391.39,-30.56 401.81,-28.66 392.48,-23.64 391.39,-30.56"/>
</g>
<!-- Node3 -->
<g id="node3" class="node">
<title>Node3</title>
<g id="a_node3"><a xlink:href="classAtcf.html#aaab5dab5b969a87f538242e524431637" target="_top" xlink:title=" ">
<polygon fill="white" stroke="black" points="104,-22.5 104,-41.5 163,-41.5 163,-22.5 104,-22.5"/>
<text text-anchor="middle" x="133.5" y="-29.5" font-family="Helvetica,sans-Serif" font-size="10.00">Atcf::read</text>
</a>
</g>
</g>
<!-- Node2&#45;&gt;Node3 -->
<g id="edge2" class="edge">
<title>Node2&#45;&gt;Node3</title>
<path fill="none" stroke="midnightblue" d="M188.86,-40.14C179.67,-38.76 170.91,-37.45 163.21,-36.3"/>
<polygon fill="midnightblue" stroke="midnightblue" points="188.57,-43.63 198.98,-41.65 189.6,-36.71 188.57,-43.63"/>
</g>
<!-- Node4 -->
<g id="node4" class="node">
<title>Node4</title>
<g id="a_node4"><a xlink:href="classGahm.html#aaab5dab5b969a87f538242e524431637" target="_top" xlink:title=" ">
<polygon fill="white" stroke="black" points="0,-22.5 0,-41.5 68,-41.5 68,-22.5 0,-22.5"/>
<text text-anchor="middle" x="34" y="-29.5" font-family="Helvetica,sans-Serif" font-size="10.00">Gahm::read</text>
</a>
</g>
</g>
<!-- Node3&#45;&gt;Node4 -->
<g id="edge3" class="edge">
<title>Node3&#45;&gt;Node4</title>
<path fill="none" stroke="midnightblue" d="M93.5,-32C85.16,-32 76.43,-32 68.32,-32"/>
<polygon fill="midnightblue" stroke="midnightblue" points="93.77,-35.5 103.77,-32 93.77,-28.5 93.77,-35.5"/>
</g>
<!-- Node5&#45;&gt;Node3 -->
<g id="edge5" class="edge">
<title>Node5&#45;&gt;Node3</title>
<path fill="none" stroke="midnightblue" d="M212.79,-20.28C195.36,-22.89 177.57,-25.55 163.37,-27.68"/>
<polygon fill="midnightblue" stroke="midnightblue" points="213.61,-23.7 222.98,-18.76 212.57,-16.78 213.61,-23.7"/>
</g>
</g>
</svg>
