<?xml version="1.0" encoding="UTF-8" standalone="no"?>
<!DOCTYPE svg PUBLIC "-//W3C//DTD SVG 1.1//EN"
 "http://www.w3.org/Graphics/SVG/1.1/DTD/svg11.dtd">
<!-- Generated by graphviz version 2.47.1 (20210417.1919)
 -->
<!-- Title: setDay Pages: 1 -->
<svg width="298pt" height="256pt"
 viewBox="0.00 0.00 298.00 256.00" xmlns="http://www.w3.org/2000/svg" xmlns:xlink="http://www.w3.org/1999/xlink">
<g id="graph0" class="graph" transform="scale(1 1) rotate(0) translate(4 252)">
<title>setDay</title>
<polygon fill="white" stroke="transparent" points="-4,4 -4,-252 294,-252 294,4 -4,4"/>
<!-- Node1 -->
<g id="node1" class="node">
<title>Node1</title>
<g id="a_node1"><a xlink:title=" ">
<polygon fill="#bfbfbf" stroke="black" points="0,-114.5 0,-133.5 48,-133.5 48,-114.5 0,-114.5"/>
<text text-anchor="middle" x="24" y="-121.5" font-family="Helvetica,sans-Serif" font-size="10.00">setDay</text>
</a>
</g>
</g>
<!-- Node2 -->
<g id="node2" class="node">
<title>Node2</title>
<g id="a_node2"><a xlink:href="classDate.html#a5a496ea2e6017fd4b43081f4317f96ce" target="_top" xlink:title=" ">
<polygon fill="white" stroke="black" points="119,-228.5 119,-247.5 151,-247.5 151,-228.5 119,-228.5"/>
<text text-anchor="middle" x="135" y="-235.5" font-family="Helvetica,sans-Serif" font-size="10.00">day</text>
</a>
</g>
</g>
<!-- Node1&#45;&gt;Node2 -->
<g id="edge1" class="edge">
<title>Node1&#45;&gt;Node2</title>
<path fill="none" stroke="midnightblue" d="M28.48,-133.51C35.84,-152.41 54.78,-194.93 84,-219 91.21,-224.94 100.48,-229.15 109.07,-232.06"/>
<polygon fill="midnightblue" stroke="midnightblue" points="108.1,-235.43 118.69,-234.92 110.1,-228.72 108.1,-235.43"/>
</g>
<!-- Node4 -->
<g id="node4" class="node">
<title>Node4</title>
<g id="a_node4"><a xlink:href="structs__datetime.html#a110d566ff7f9edf7cbfe15355f8c637c" target="_top" xlink:title=" ">
<polygon fill="white" stroke="black" points="90.5,-190.5 90.5,-209.5 179.5,-209.5 179.5,-190.5 90.5,-190.5"/>
<text text-anchor="middle" x="135" y="-197.5" font-family="Helvetica,sans-Serif" font-size="10.00">s_datetime::hour</text>
</a>
</g>
</g>
<!-- Node1&#45;&gt;Node4 -->
<g id="edge3" class="edge">
<title>Node1&#45;&gt;Node4</title>
<path fill="none" stroke="midnightblue" d="M32.84,-133.71C43.34,-146.16 63.08,-167.72 84,-181 86.99,-182.9 90.2,-184.65 93.5,-186.27"/>
<polygon fill="midnightblue" stroke="midnightblue" points="92.35,-189.59 102.91,-190.43 95.18,-183.18 92.35,-189.59"/>
</g>
<!-- Node5 -->
<g id="node5" class="node">
<title>Node5</title>
<g id="a_node5"><a xlink:href="structs__datetime.html#ae91256ab81b246d3f40eddbd4c016f5f" target="_top" xlink:title=" ">
<polygon fill="white" stroke="black" points="85,-152.5 85,-171.5 185,-171.5 185,-152.5 85,-152.5"/>
<text text-anchor="middle" x="135" y="-159.5" font-family="Helvetica,sans-Serif" font-size="10.00">s_datetime::minute</text>
</a>
</g>
</g>
<!-- Node1&#45;&gt;Node5 -->
<g id="edge4" class="edge">
<title>Node1&#45;&gt;Node5</title>
<path fill="none" stroke="midnightblue" d="M48.12,-132.06C62.3,-137 80.78,-143.44 96.96,-149.09"/>
<polygon fill="midnightblue" stroke="midnightblue" points="96.08,-152.49 106.68,-152.48 98.39,-145.88 96.08,-152.49"/>
</g>
<!-- Node6 -->
<g id="node6" class="node">
<title>Node6</title>
<g id="a_node6"><a xlink:href="structs__datetime.html#a1d85d7b09eedec3fb734532c164f2f27" target="_top" xlink:title=" ">
<polygon fill="white" stroke="black" points="86,-114.5 86,-133.5 184,-133.5 184,-114.5 86,-114.5"/>
<text text-anchor="middle" x="135" y="-121.5" font-family="Helvetica,sans-Serif" font-size="10.00">s_datetime::month</text>
</a>
</g>
</g>
<!-- Node1&#45;&gt;Node6 -->
<g id="edge5" class="edge">
<title>Node1&#45;&gt;Node6</title>
<path fill="none" stroke="midnightblue" d="M48.12,-124C56.28,-124 65.87,-124 75.62,-124"/>
<polygon fill="midnightblue" stroke="midnightblue" points="75.79,-127.5 85.79,-124 75.79,-120.5 75.79,-127.5"/>
</g>
<!-- Node7 -->
<g id="node7" class="node">
<title>Node7</title>
<g id="a_node7"><a xlink:href="structs__datetime.html#aa0cba22e21d8081f564e6a68edab1ae0" target="_top" xlink:title=" ">
<polygon fill="white" stroke="black" points="84,-76.5 84,-95.5 186,-95.5 186,-76.5 84,-76.5"/>
<text text-anchor="middle" x="135" y="-83.5" font-family="Helvetica,sans-Serif" font-size="10.00">s_datetime::second</text>
</a>
</g>
</g>
<!-- Node1&#45;&gt;Node7 -->
<g id="edge6" class="edge">
<title>Node1&#45;&gt;Node7</title>
<path fill="none" stroke="midnightblue" d="M48.12,-115.94C62.3,-111 80.78,-104.56 96.96,-98.91"/>
<polygon fill="midnightblue" stroke="midnightblue" points="98.39,-102.12 106.68,-95.52 96.08,-95.51 98.39,-102.12"/>
</g>
<!-- Node8 -->
<g id="node8" class="node">
<title>Node8</title>
<g id="a_node8"><a xlink:href="classDate.html#ad1762f5051124b0a842e0cd1e94c6237" target="_top" xlink:title=" ">
<polygon fill="white" stroke="black" points="120,-38.5 120,-57.5 150,-57.5 150,-38.5 120,-38.5"/>
<text text-anchor="middle" x="135" y="-45.5" font-family="Helvetica,sans-Serif" font-size="10.00">set</text>
</a>
</g>
</g>
<!-- Node1&#45;&gt;Node8 -->
<g id="edge7" class="edge">
<title>Node1&#45;&gt;Node8</title>
<path fill="none" stroke="midnightblue" d="M32.84,-114.29C43.34,-101.84 63.08,-80.28 84,-67 92,-61.92 101.57,-57.87 110.18,-54.84"/>
<polygon fill="midnightblue" stroke="midnightblue" points="111.28,-58.16 119.71,-51.74 109.12,-51.51 111.28,-58.16"/>
</g>
<!-- Node9 -->
<g id="node9" class="node">
<title>Node9</title>
<g id="a_node9"><a xlink:href="structs__datetime.html#a1b5cb174b9b809888ca1cadfb32791f4" target="_top" xlink:title=" ">
<polygon fill="white" stroke="black" points="90.5,-0.5 90.5,-19.5 179.5,-19.5 179.5,-0.5 90.5,-0.5"/>
<text text-anchor="middle" x="135" y="-7.5" font-family="Helvetica,sans-Serif" font-size="10.00">s_datetime::year</text>
</a>
</g>
</g>
<!-- Node1&#45;&gt;Node9 -->
<g id="edge8" class="edge">
<title>Node1&#45;&gt;Node9</title>
<path fill="none" stroke="midnightblue" d="M28.48,-114.49C35.84,-95.59 54.78,-53.07 84,-29 86.04,-27.32 88.24,-25.78 90.55,-24.37"/>
<polygon fill="midnightblue" stroke="midnightblue" points="92.56,-27.26 99.81,-19.54 89.33,-21.06 92.56,-27.26"/>
</g>
<!-- Node3 -->
<g id="node3" class="node">
<title>Node3</title>
<g id="a_node3"><a xlink:href="structs__date.html#a5a496ea2e6017fd4b43081f4317f96ce" target="_top" xlink:title=" ">
<polygon fill="white" stroke="black" points="222,-228.5 222,-247.5 290,-247.5 290,-228.5 222,-228.5"/>
<text text-anchor="middle" x="256" y="-235.5" font-family="Helvetica,sans-Serif" font-size="10.00">s_date::day</text>
</a>
</g>
</g>
<!-- Node2&#45;&gt;Node3 -->
<g id="edge2" class="edge">
<title>Node2&#45;&gt;Node3</title>
<path fill="none" stroke="midnightblue" d="M151.07,-238C166.23,-238 190.32,-238 211.49,-238"/>
<polygon fill="midnightblue" stroke="midnightblue" points="211.6,-241.5 221.6,-238 211.6,-234.5 211.6,-241.5"/>
</g>
</g>
</svg>
