<?xml version="1.0" encoding="UTF-8" standalone="no"?>
<!DOCTYPE svg PUBLIC "-//W3C//DTD SVG 1.1//EN"
 "http://www.w3.org/Graphics/SVG/1.1/DTD/svg11.dtd">
<!-- Generated by graphviz version 2.47.1 (20210417.1919)
 -->
<!-- Title: vgWithCoriFull Pages: 1 -->
<svg width="390pt" height="262pt"
 viewBox="0.00 0.00 390.00 261.50" xmlns="http://www.w3.org/2000/svg" xmlns:xlink="http://www.w3.org/1999/xlink">
<g id="graph0" class="graph" transform="scale(1 1) rotate(0) translate(4 257.5)">
<title>vgWithCoriFull</title>
<polygon fill="white" stroke="transparent" points="-4,4 -4,-257.5 386,-257.5 386,4 -4,4"/>
<!-- Node1 -->
<g id="node1" class="node">
<title>Node1</title>
<g id="a_node1"><a xlink:title=" ">
<polygon fill="#bfbfbf" stroke="black" points="0,-114.5 0,-133.5 81,-133.5 81,-114.5 0,-114.5"/>
<text text-anchor="middle" x="40.5" y="-121.5" font-family="Helvetica,sans-Serif" font-size="10.00">vgWithCoriFull</text>
</a>
</g>
</g>
<!-- Node2 -->
<g id="node2" class="node">
<title>Node2</title>
<g id="a_node2"><a xlink:href="classCircularArray.html#a0642b8def16b83c1fff8f93326d2c842" target="_top" xlink:title=" ">
<polygon fill="white" stroke="black" points="138.5,-228.5 138.5,-247.5 226.5,-247.5 226.5,-228.5 138.5,-228.5"/>
<text text-anchor="middle" x="182.5" y="-235.5" font-family="Helvetica,sans-Serif" font-size="10.00">CircularArray::at</text>
</a>
</g>
</g>
<!-- Node1&#45;&gt;Node2 -->
<g id="edge1" class="edge">
<title>Node1&#45;&gt;Node2</title>
<path fill="none" stroke="midnightblue" d="M46.51,-133.7C56.96,-152.94 82.93,-196.05 117,-219 120.69,-221.49 124.72,-223.66 128.9,-225.55"/>
<polygon fill="midnightblue" stroke="midnightblue" points="127.62,-228.81 138.21,-229.25 130.21,-222.3 127.62,-228.81"/>
</g>
<!-- Node4 -->
<g id="node4" class="node">
<title>Node4</title>
<g id="a_node4"><a xlink:href="classIsotach.html#a6d338c7499d8278c978770bd67c1a736" target="_top" xlink:title=" ">
<polygon fill="white" stroke="black" points="133.5,-190.5 133.5,-209.5 231.5,-209.5 231.5,-190.5 133.5,-190.5"/>
<text text-anchor="middle" x="182.5" y="-197.5" font-family="Helvetica,sans-Serif" font-size="10.00">Isotach::chollandB</text>
</a>
</g>
</g>
<!-- Node1&#45;&gt;Node4 -->
<g id="edge3" class="edge">
<title>Node1&#45;&gt;Node4</title>
<path fill="none" stroke="midnightblue" d="M51.92,-133.84C65.77,-146.43 91.48,-168.15 117,-181 121.51,-183.27 126.34,-185.32 131.25,-187.15"/>
<polygon fill="midnightblue" stroke="midnightblue" points="130.13,-190.47 140.73,-190.41 132.41,-183.85 130.13,-190.47"/>
</g>
<!-- Node5 -->
<g id="node5" class="node">
<title>Node5</title>
<g id="a_node5"><a xlink:href="classAtcfLine.html#af02cbe832e0a7a708e691fff2b48ebc4" target="_top" xlink:title=" ">
<polygon fill="white" stroke="black" points="135,-152.5 135,-171.5 230,-171.5 230,-152.5 135,-152.5"/>
<text text-anchor="middle" x="182.5" y="-159.5" font-family="Helvetica,sans-Serif" font-size="10.00">AtcfLine::cisotach</text>
</a>
</g>
</g>
<!-- Node1&#45;&gt;Node5 -->
<g id="edge4" class="edge">
<title>Node1&#45;&gt;Node5</title>
<path fill="none" stroke="midnightblue" d="M76.83,-133.59C94.9,-138.49 117.1,-144.52 136.39,-149.76"/>
<polygon fill="midnightblue" stroke="midnightblue" points="135.62,-153.17 146.18,-152.41 137.45,-146.42 135.62,-153.17"/>
</g>
<!-- Node6 -->
<g id="node6" class="node">
<title>Node6</title>
<g id="a_node6"><a xlink:href="classAtcfLine.html#a6a0221bd70847e13f9b7ea9c339438e7" target="_top" xlink:title=" ">
<polygon fill="white" stroke="black" points="138,-114.5 138,-133.5 227,-133.5 227,-114.5 138,-114.5"/>
<text text-anchor="middle" x="182.5" y="-121.5" font-family="Helvetica,sans-Serif" font-size="10.00">AtcfLine::coriolis</text>
</a>
</g>
</g>
<!-- Node1&#45;&gt;Node6 -->
<g id="edge5" class="edge">
<title>Node1&#45;&gt;Node6</title>
<path fill="none" stroke="midnightblue" d="M81.24,-124C95.56,-124 111.97,-124 127.31,-124"/>
<polygon fill="midnightblue" stroke="midnightblue" points="127.73,-127.5 137.73,-124 127.73,-120.5 127.73,-127.5"/>
</g>
<!-- Node7 -->
<g id="node7" class="node">
<title>Node7</title>
<g id="a_node7"><a xlink:href="classIsotach.html#ae59095832d860bee9658a1d41dddd19b" target="_top" xlink:title=" ">
<polygon fill="white" stroke="black" points="146,-76.5 146,-95.5 219,-95.5 219,-76.5 146,-76.5"/>
<text text-anchor="middle" x="182.5" y="-83.5" font-family="Helvetica,sans-Serif" font-size="10.00">Isotach::cphi</text>
</a>
</g>
</g>
<!-- Node1&#45;&gt;Node7 -->
<g id="edge6" class="edge">
<title>Node1&#45;&gt;Node7</title>
<path fill="none" stroke="midnightblue" d="M76.83,-114.41C94.9,-109.51 117.1,-103.48 136.39,-98.24"/>
<polygon fill="midnightblue" stroke="midnightblue" points="137.45,-101.58 146.18,-95.59 135.62,-94.83 137.45,-101.58"/>
</g>
<!-- Node8 -->
<g id="node8" class="node">
<title>Node8</title>
<g id="a_node8"><a xlink:href="classIsotach.html#ae34699ed432e270b9857a4968684a14e" target="_top" xlink:title=" ">
<polygon fill="white" stroke="black" points="136,-38.5 136,-57.5 229,-57.5 229,-38.5 136,-38.5"/>
<text text-anchor="middle" x="182.5" y="-45.5" font-family="Helvetica,sans-Serif" font-size="10.00">Isotach::cvmaxBl</text>
</a>
</g>
</g>
<!-- Node1&#45;&gt;Node8 -->
<g id="edge7" class="edge">
<title>Node1&#45;&gt;Node8</title>
<path fill="none" stroke="midnightblue" d="M51.92,-114.16C65.77,-101.57 91.48,-79.85 117,-67 121.51,-64.73 126.34,-62.68 131.25,-60.85"/>
<polygon fill="midnightblue" stroke="midnightblue" points="132.41,-64.15 140.73,-57.59 130.13,-57.53 132.41,-64.15"/>
</g>
<!-- Node9 -->
<g id="node9" class="node">
<title>Node9</title>
<g id="a_node9"><a xlink:href="classAtcfLine.html#ad2910e96b46c135de328985b5afac3cb" target="_top" xlink:title=" ">
<polygon fill="white" stroke="black" points="117,-0.5 117,-19.5 248,-19.5 248,-0.5 117,-0.5"/>
<text text-anchor="middle" x="182.5" y="-7.5" font-family="Helvetica,sans-Serif" font-size="10.00">AtcfLine::radiusMaxWinds</text>
</a>
</g>
</g>
<!-- Node1&#45;&gt;Node9 -->
<g id="edge8" class="edge">
<title>Node1&#45;&gt;Node9</title>
<path fill="none" stroke="midnightblue" d="M46.51,-114.3C56.96,-95.06 82.93,-51.95 117,-29 119.95,-27.02 123.1,-25.23 126.38,-23.64"/>
<polygon fill="midnightblue" stroke="midnightblue" points="128.02,-26.74 135.85,-19.6 125.27,-20.3 128.02,-26.74"/>
</g>
<!-- Node3 -->
<g id="node3" class="node">
<title>Node3</title>
<g id="a_node3"><a xlink:href="classCircularArray.html#ae9ee07d89dc4196acefc5b290b9275b8" target="_top" xlink:title=" ">
<polygon fill="white" stroke="black" points="284,-223 284,-253 382,-253 382,-223 284,-223"/>
<text text-anchor="start" x="292" y="-241" font-family="Helvetica,sans-Serif" font-size="10.00">CircularArray::mod</text>
<text text-anchor="middle" x="333" y="-230" font-family="Helvetica,sans-Serif" font-size="10.00">_floor</text>
</a>
</g>
</g>
<!-- Node2&#45;&gt;Node3 -->
<g id="edge2" class="edge">
<title>Node2&#45;&gt;Node3</title>
<path fill="none" stroke="midnightblue" d="M226.85,-238C241.53,-238 258.17,-238 273.81,-238"/>
<polygon fill="midnightblue" stroke="midnightblue" points="273.91,-241.5 283.91,-238 273.91,-234.5 273.91,-241.5"/>
</g>
</g>
</svg>
