<?xml version="1.0" encoding="UTF-8" standalone="no"?>
<!DOCTYPE svg PUBLIC "-//W3C//DTD SVG 1.1//EN"
 "http://www.w3.org/Graphics/SVG/1.1/DTD/svg11.dtd">
<!-- Generated by graphviz version 2.47.1 (20210417.1919)
 -->
<!-- Title: computePressure Pages: 1 -->
<svg width="404pt" height="66pt"
 viewBox="0.00 0.00 404.00 66.00" xmlns="http://www.w3.org/2000/svg" xmlns:xlink="http://www.w3.org/1999/xlink">
<g id="graph0" class="graph" transform="scale(1 1) rotate(0) translate(4 62)">
<title>computePressure</title>
<polygon fill="white" stroke="transparent" points="-4,4 -4,-62 400,-62 400,4 -4,4"/>
<!-- Node1 -->
<g id="node1" class="node">
<title>Node1</title>
<g id="a_node1"><a xlink:title=" ">
<polygon fill="#bfbfbf" stroke="black" points="303,-19.5 303,-38.5 396,-38.5 396,-19.5 303,-19.5"/>
<text text-anchor="middle" x="349.5" y="-26.5" font-family="Helvetica,sans-Serif" font-size="10.00">computePressure</text>
</a>
</g>
</g>
<!-- Node2 -->
<g id="node2" class="node">
<title>Node2</title>
<g id="a_node2"><a xlink:href="classHurricanePressure.html#a3d7614d00089e87ce99f41d29ef88eb9" target="_top" xlink:title=" ">
<polygon fill="white" stroke="black" points="134.5,-38.5 134.5,-57.5 227.5,-57.5 227.5,-38.5 134.5,-38.5"/>
<text text-anchor="middle" x="181" y="-45.5" font-family="Helvetica,sans-Serif" font-size="10.00">computePressure</text>
</a>
</g>
</g>
<!-- Node1&#45;&gt;Node2 -->
<g id="edge1" class="edge">
<title>Node1&#45;&gt;Node2</title>
<path fill="none" stroke="midnightblue" d="M292.47,-35.39C271.43,-37.79 247.79,-40.49 227.79,-42.77"/>
<polygon fill="midnightblue" stroke="midnightblue" points="293.02,-38.85 302.56,-34.24 292.23,-31.9 293.02,-38.85"/>
</g>
<!-- Node3 -->
<g id="node3" class="node">
<title>Node3</title>
<g id="a_node3"><a xlink:href="classAtcf.html#a2c8fb312c911c7d35cc921e303cac875" target="_top" xlink:title=" ">
<polygon fill="white" stroke="black" points="95,-0.5 95,-19.5 267,-19.5 267,-0.5 95,-0.5"/>
<text text-anchor="middle" x="181" y="-7.5" font-family="Helvetica,sans-Serif" font-size="10.00">Atcf::generateMissingPressureData</text>
</a>
</g>
</g>
<!-- Node1&#45;&gt;Node3 -->
<g id="edge2" class="edge">
<title>Node1&#45;&gt;Node3</title>
<path fill="none" stroke="midnightblue" d="M292.56,-22.62C283.83,-21.62 274.66,-20.57 265.49,-19.53"/>
<polygon fill="midnightblue" stroke="midnightblue" points="292.23,-26.1 302.56,-23.76 293.02,-19.15 292.23,-26.1"/>
</g>
<!-- Node4 -->
<g id="node4" class="node">
<title>Node4</title>
<g id="a_node4"><a xlink:href="classAtcf.html#aaab5dab5b969a87f538242e524431637" target="_top" xlink:title=" ">
<polygon fill="white" stroke="black" points="0,-0.5 0,-19.5 59,-19.5 59,-0.5 0,-0.5"/>
<text text-anchor="middle" x="29.5" y="-7.5" font-family="Helvetica,sans-Serif" font-size="10.00">Atcf::read</text>
</a>
</g>
</g>
<!-- Node3&#45;&gt;Node4 -->
<g id="edge3" class="edge">
<title>Node3&#45;&gt;Node4</title>
<path fill="none" stroke="midnightblue" d="M84.65,-10C75.45,-10 66.71,-10 59.04,-10"/>
<polygon fill="midnightblue" stroke="midnightblue" points="84.77,-13.5 94.77,-10 84.77,-6.5 84.77,-13.5"/>
</g>
</g>
</svg>
