<?xml version="1.0" encoding="UTF-8" standalone="no"?>
<!DOCTYPE svg PUBLIC "-//W3C//DTD SVG 1.1//EN"
 "http://www.w3.org/Graphics/SVG/1.1/DTD/svg11.dtd">
<!-- Generated by graphviz version 2.47.1 (20210417.1919)
 -->
<!-- Title: interpR Pages: 1 -->
<svg width="326pt" height="186pt"
 viewBox="0.00 0.00 326.00 185.50" xmlns="http://www.w3.org/2000/svg" xmlns:xlink="http://www.w3.org/1999/xlink">
<g id="graph0" class="graph" transform="scale(1 1) rotate(0) translate(4 181.5)">
<title>interpR</title>
<polygon fill="white" stroke="transparent" points="-4,4 -4,-181.5 322,-181.5 322,4 -4,4"/>
<!-- Node1 -->
<g id="node1" class="node">
<title>Node1</title>
<g id="a_node1"><a xlink:title=" ">
<polygon fill="#bfbfbf" stroke="black" points="0,-76.5 0,-95.5 48,-95.5 48,-76.5 0,-76.5"/>
<text text-anchor="middle" x="24" y="-83.5" font-family="Helvetica,sans-Serif" font-size="10.00">interpR</text>
</a>
</g>
</g>
<!-- Node2 -->
<g id="node2" class="node">
<title>Node2</title>
<g id="a_node2"><a xlink:href="classCircularArray.html#a0642b8def16b83c1fff8f93326d2c842" target="_top" xlink:title=" ">
<polygon fill="white" stroke="black" points="90,-152.5 90,-171.5 178,-171.5 178,-152.5 90,-152.5"/>
<text text-anchor="middle" x="134" y="-159.5" font-family="Helvetica,sans-Serif" font-size="10.00">CircularArray::at</text>
</a>
</g>
</g>
<!-- Node1&#45;&gt;Node2 -->
<g id="edge1" class="edge">
<title>Node1&#45;&gt;Node2</title>
<path fill="none" stroke="midnightblue" d="M32.86,-95.69C43.37,-108.11 63.12,-129.65 84,-143 86.97,-144.9 90.17,-146.66 93.44,-148.28"/>
<polygon fill="midnightblue" stroke="midnightblue" points="92.24,-151.58 102.8,-152.47 95.1,-145.19 92.24,-151.58"/>
</g>
<!-- Node4 -->
<g id="node4" class="node">
<title>Node4</title>
<g id="a_node4"><a xlink:href="classAtcfLine.html#af02cbe832e0a7a708e691fff2b48ebc4" target="_top" xlink:title=" ">
<polygon fill="white" stroke="black" points="86.5,-114.5 86.5,-133.5 181.5,-133.5 181.5,-114.5 86.5,-114.5"/>
<text text-anchor="middle" x="134" y="-121.5" font-family="Helvetica,sans-Serif" font-size="10.00">AtcfLine::cisotach</text>
</a>
</g>
</g>
<!-- Node1&#45;&gt;Node4 -->
<g id="edge3" class="edge">
<title>Node1&#45;&gt;Node4</title>
<path fill="none" stroke="midnightblue" d="M48.17,-94.15C62.13,-99.06 80.23,-105.43 96.12,-111.02"/>
<polygon fill="midnightblue" stroke="midnightblue" points="95.07,-114.37 105.67,-114.38 97.4,-107.76 95.07,-114.37"/>
</g>
<!-- Node5 -->
<g id="node5" class="node">
<title>Node5</title>
<g id="a_node5"><a xlink:href="classIsotach.html#acf34a941f1b3124bf891deeb634f5120" target="_top" xlink:title=" ">
<polygon fill="white" stroke="black" points="84,-76.5 84,-95.5 184,-95.5 184,-76.5 84,-76.5"/>
<text text-anchor="middle" x="134" y="-83.5" font-family="Helvetica,sans-Serif" font-size="10.00">Isotach::cquadFlag</text>
</a>
</g>
</g>
<!-- Node1&#45;&gt;Node5 -->
<g id="edge4" class="edge">
<title>Node1&#45;&gt;Node5</title>
<path fill="none" stroke="midnightblue" d="M48.17,-86C55.73,-86 64.51,-86 73.5,-86"/>
<polygon fill="midnightblue" stroke="midnightblue" points="73.68,-89.5 83.68,-86 73.68,-82.5 73.68,-89.5"/>
</g>
<!-- Node6 -->
<g id="node6" class="node">
<title>Node6</title>
<g id="a_node6"><a xlink:href="classIsotach.html#a74b6f4ea56932aa328ae0292db11a2e6" target="_top" xlink:title=" ">
<polygon fill="white" stroke="black" points="93,-38.5 93,-57.5 175,-57.5 175,-38.5 93,-38.5"/>
<text text-anchor="middle" x="134" y="-45.5" font-family="Helvetica,sans-Serif" font-size="10.00">Isotach::crmax</text>
</a>
</g>
</g>
<!-- Node1&#45;&gt;Node6 -->
<g id="edge5" class="edge">
<title>Node1&#45;&gt;Node6</title>
<path fill="none" stroke="midnightblue" d="M48.17,-77.85C62.13,-72.94 80.23,-66.57 96.12,-60.98"/>
<polygon fill="midnightblue" stroke="midnightblue" points="97.4,-64.24 105.67,-57.62 95.07,-57.63 97.4,-64.24"/>
</g>
<!-- Node7 -->
<g id="node7" class="node">
<title>Node7</title>
<g id="a_node7"><a xlink:href="classAtcfLine.html#a5ddd67c4d868875c52ed1396c58dd6a7" target="_top" xlink:title=" ">
<polygon fill="white" stroke="black" points="86,-0.5 86,-19.5 182,-19.5 182,-0.5 86,-0.5"/>
<text text-anchor="middle" x="134" y="-7.5" font-family="Helvetica,sans-Serif" font-size="10.00">AtcfLine::nIsotach</text>
</a>
</g>
</g>
<!-- Node1&#45;&gt;Node7 -->
<g id="edge6" class="edge">
<title>Node1&#45;&gt;Node7</title>
<path fill="none" stroke="midnightblue" d="M32.86,-76.31C43.37,-63.89 63.12,-42.35 84,-29 86.97,-27.1 90.17,-25.34 93.44,-23.72"/>
<polygon fill="midnightblue" stroke="midnightblue" points="95.1,-26.81 102.8,-19.53 92.24,-20.42 95.1,-26.81"/>
</g>
<!-- Node3 -->
<g id="node3" class="node">
<title>Node3</title>
<g id="a_node3"><a xlink:href="classCircularArray.html#ae9ee07d89dc4196acefc5b290b9275b8" target="_top" xlink:title=" ">
<polygon fill="white" stroke="black" points="220,-147 220,-177 318,-177 318,-147 220,-147"/>
<text text-anchor="start" x="228" y="-165" font-family="Helvetica,sans-Serif" font-size="10.00">CircularArray::mod</text>
<text text-anchor="middle" x="269" y="-154" font-family="Helvetica,sans-Serif" font-size="10.00">_floor</text>
</a>
</g>
</g>
<!-- Node2&#45;&gt;Node3 -->
<g id="edge2" class="edge">
<title>Node2&#45;&gt;Node3</title>
<path fill="none" stroke="midnightblue" d="M178.18,-162C188.3,-162 199.24,-162 209.89,-162"/>
<polygon fill="midnightblue" stroke="midnightblue" points="209.97,-165.5 219.97,-162 209.97,-158.5 209.97,-165.5"/>
</g>
</g>
</svg>
