<?xml version="1.0" encoding="UTF-8" standalone="no"?>
<!DOCTYPE svg PUBLIC "-//W3C//DTD SVG 1.1//EN"
 "http://www.w3.org/Graphics/SVG/1.1/DTD/svg11.dtd">
<!-- Generated by graphviz version 2.47.1 (20210417.1919)
 -->
<!-- Title: AtcfLine Pages: 1 -->
<svg width="589pt" height="1838pt"
 viewBox="0.00 0.00 588.50 1838.00" xmlns="http://www.w3.org/2000/svg" xmlns:xlink="http://www.w3.org/1999/xlink">
<g id="graph0" class="graph" transform="scale(1 1) rotate(0) translate(4 1834)">
<title>AtcfLine</title>
<polygon fill="white" stroke="transparent" points="-4,4 -4,-1834 584.5,-1834 584.5,4 -4,4"/>
<!-- Node1 -->
<g id="node1" class="node">
<title>Node1</title>
<g id="a_node1"><a xlink:title=" ">
<polygon fill="#bfbfbf" stroke="black" points="314,-0.5 314,-321.5 445,-321.5 445,-0.5 314,-0.5"/>
<text text-anchor="middle" x="379.5" y="-309.5" font-family="Helvetica,sans-Serif" font-size="10.00">AtcfLine</text>
<polyline fill="none" stroke="black" points="314,-302.5 445,-302.5 "/>
<text text-anchor="start" x="322" y="-290.5" font-family="Helvetica,sans-Serif" font-size="10.00">&#45; m_coriolis</text>
<text text-anchor="start" x="322" y="-279.5" font-family="Helvetica,sans-Serif" font-size="10.00">&#45; m_cycloneNumber</text>
<text text-anchor="start" x="322" y="-268.5" font-family="Helvetica,sans-Serif" font-size="10.00">&#45; m_eyeDiameter</text>
<text text-anchor="start" x="322" y="-257.5" font-family="Helvetica,sans-Serif" font-size="10.00">&#45; m_gusts</text>
<text text-anchor="start" x="322" y="-246.5" font-family="Helvetica,sans-Serif" font-size="10.00">&#45; m_lat</text>
<text text-anchor="start" x="322" y="-235.5" font-family="Helvetica,sans-Serif" font-size="10.00">&#45; m_lon</text>
<text text-anchor="start" x="322" y="-224.5" font-family="Helvetica,sans-Serif" font-size="10.00">&#45; m_mslp</text>
<text text-anchor="start" x="322" y="-213.5" font-family="Helvetica,sans-Serif" font-size="10.00">&#45; m_null</text>
<text text-anchor="start" x="322" y="-202.5" font-family="Helvetica,sans-Serif" font-size="10.00">&#45; m_pouter</text>
<text text-anchor="start" x="322" y="-191.5" font-family="Helvetica,sans-Serif" font-size="10.00">&#45; m_radiusMaxWinds</text>
<text text-anchor="start" x="322" y="-180.5" font-family="Helvetica,sans-Serif" font-size="10.00">and 10 more...</text>
<polyline fill="none" stroke="black" points="314,-173.5 445,-173.5 "/>
<text text-anchor="start" x="322" y="-161.5" font-family="Helvetica,sans-Serif" font-size="10.00">+ AtcfLine()</text>
<text text-anchor="start" x="322" y="-150.5" font-family="Helvetica,sans-Serif" font-size="10.00">+ addIsotach()</text>
<text text-anchor="start" x="322" y="-139.5" font-family="Helvetica,sans-Serif" font-size="10.00">+ basin()</text>
<text text-anchor="start" x="322" y="-128.5" font-family="Helvetica,sans-Serif" font-size="10.00">+ cisotach()</text>
<text text-anchor="start" x="322" y="-117.5" font-family="Helvetica,sans-Serif" font-size="10.00">+ coriolis()</text>
<text text-anchor="start" x="322" y="-106.5" font-family="Helvetica,sans-Serif" font-size="10.00">+ cycloneNumber()</text>
<text text-anchor="start" x="322" y="-95.5" font-family="Helvetica,sans-Serif" font-size="10.00">+ datetime()</text>
<text text-anchor="start" x="322" y="-84.5" font-family="Helvetica,sans-Serif" font-size="10.00">+ eyeDiameter()</text>
<text text-anchor="start" x="322" y="-73.5" font-family="Helvetica,sans-Serif" font-size="10.00">+ gusts()</text>
<text text-anchor="start" x="322" y="-62.5" font-family="Helvetica,sans-Serif" font-size="10.00">+ initials()</text>
<text text-anchor="start" x="322" y="-51.5" font-family="Helvetica,sans-Serif" font-size="10.00">and 59 more...</text>
<text text-anchor="start" x="322" y="-40.5" font-family="Helvetica,sans-Serif" font-size="10.00">+ isSameForecastPeriod()</text>
<text text-anchor="start" x="322" y="-29.5" font-family="Helvetica,sans-Serif" font-size="10.00">+ parseAtcfLine()</text>
<text text-anchor="start" x="322" y="-18.5" font-family="Helvetica,sans-Serif" font-size="10.00">&#45; readValueCheckBlank()</text>
<text text-anchor="start" x="322" y="-7.5" font-family="Helvetica,sans-Serif" font-size="10.00">&#45; splitString()</text>
</a>
</g>
</g>
<!-- Node2 -->
<g id="node2" class="node">
<title>Node2</title>
<g id="a_node2"><a xlink:title=" ">
<polygon fill="white" stroke="#bfbfbf" points="249.5,-496 249.5,-553 343.5,-553 343.5,-496 249.5,-496"/>
<text text-anchor="middle" x="296.5" y="-541" font-family="Helvetica,sans-Serif" font-size="10.00">vector&lt; Isotach &gt;</text>
<polyline fill="none" stroke="#bfbfbf" points="249.5,-534 343.5,-534 "/>
<text text-anchor="middle" x="296.5" y="-522" font-family="Helvetica,sans-Serif" font-size="10.00"> </text>
<polyline fill="none" stroke="#bfbfbf" points="249.5,-515 343.5,-515 "/>
<text text-anchor="middle" x="296.5" y="-503" font-family="Helvetica,sans-Serif" font-size="10.00"> </text>
</a>
</g>
</g>
<!-- Node2&#45;&gt;Node1 -->
<g id="edge1" class="edge">
<title>Node2&#45;&gt;Node1</title>
<path fill="none" stroke="#404040" d="M299.18,-495.89C303,-459.76 310.98,-394.61 323.5,-340 323.99,-337.84 324.5,-335.68 325.02,-333.5"/>
<polygon fill="none" stroke="#404040" points="325.04,-333.43 322.6,-326.64 327.92,-321.78 330.36,-328.56 325.04,-333.43"/>
<text text-anchor="middle" x="349.5" y="-370.5" font-family="Helvetica,sans-Serif" font-size="10.00"> &#45;m_isotach</text>
</g>
<!-- Node3 -->
<g id="node3" class="node">
<title>Node3</title>
<g id="a_node3"><a xlink:href="classIsotach.html" target="_top" xlink:title=" ">
<polygon fill="white" stroke="black" points="154,-672.5 154,-883.5 255,-883.5 255,-672.5 154,-672.5"/>
<text text-anchor="middle" x="204.5" y="-871.5" font-family="Helvetica,sans-Serif" font-size="10.00">Isotach</text>
<polyline fill="none" stroke="black" points="154,-864.5 255,-864.5 "/>
<text text-anchor="start" x="162" y="-852.5" font-family="Helvetica,sans-Serif" font-size="10.00">&#45; m_radiusCode</text>
<text text-anchor="start" x="162" y="-841.5" font-family="Helvetica,sans-Serif" font-size="10.00">&#45; m_windSpeed</text>
<polyline fill="none" stroke="black" points="154,-834.5 255,-834.5 "/>
<text text-anchor="start" x="162" y="-822.5" font-family="Helvetica,sans-Serif" font-size="10.00">+ Isotach()</text>
<text text-anchor="start" x="162" y="-811.5" font-family="Helvetica,sans-Serif" font-size="10.00">+ Isotach()</text>
<text text-anchor="start" x="162" y="-800.5" font-family="Helvetica,sans-Serif" font-size="10.00">+ chollandB()</text>
<text text-anchor="start" x="162" y="-789.5" font-family="Helvetica,sans-Serif" font-size="10.00">+ cisotachRadius()</text>
<text text-anchor="start" x="162" y="-778.5" font-family="Helvetica,sans-Serif" font-size="10.00">+ code()</text>
<text text-anchor="start" x="162" y="-767.5" font-family="Helvetica,sans-Serif" font-size="10.00">+ cphi()</text>
<text text-anchor="start" x="162" y="-756.5" font-family="Helvetica,sans-Serif" font-size="10.00">+ cquadFlag()</text>
<text text-anchor="start" x="162" y="-745.5" font-family="Helvetica,sans-Serif" font-size="10.00">+ cquadrantVr()</text>
<text text-anchor="start" x="162" y="-734.5" font-family="Helvetica,sans-Serif" font-size="10.00">+ crmax()</text>
<text text-anchor="start" x="162" y="-723.5" font-family="Helvetica,sans-Serif" font-size="10.00">+ cvmaxBl()</text>
<text text-anchor="start" x="162" y="-712.5" font-family="Helvetica,sans-Serif" font-size="10.00">and 13 more...</text>
<text text-anchor="start" x="162" y="-701.5" font-family="Helvetica,sans-Serif" font-size="10.00">+ codeFromString()</text>
<text text-anchor="start" x="162" y="-690.5" font-family="Helvetica,sans-Serif" font-size="10.00">+ isNull()</text>
<text text-anchor="start" x="162" y="-679.5" font-family="Helvetica,sans-Serif" font-size="10.00">+ stringFromCode()</text>
</a>
</g>
</g>
<!-- Node3&#45;&gt;Node2 -->
<g id="edge2" class="edge">
<title>Node3&#45;&gt;Node2</title>
<path fill="none" stroke="#404040" d="M226,-672.36C228.87,-662.34 232.03,-652.41 235.5,-643 245.68,-615.38 260.93,-586 273.64,-563.52"/>
<polygon fill="none" stroke="#404040" points="273.67,-563.48 273.19,-556.29 279.65,-553.08 280.12,-560.28 273.67,-563.48"/>
<text text-anchor="middle" x="260" y="-646" font-family="Helvetica,sans-Serif" font-size="10.00"> +elements</text>
</g>
<!-- Node4 -->
<g id="node4" class="node">
<title>Node4</title>
<g id="a_node4"><a xlink:href="classCircularArray.html" target="_top" xlink:title=" ">
<polygon fill="white" stroke="black" points="0,-986.5 0,-1197.5 121,-1197.5 121,-986.5 0,-986.5"/>
<text text-anchor="middle" x="60.5" y="-1185.5" font-family="Helvetica,sans-Serif" font-size="10.00">CircularArray&lt; bool, 4 &gt;</text>
<polyline fill="none" stroke="black" points="0,-1178.5 121,-1178.5 "/>
<text text-anchor="start" x="8" y="-1166.5" font-family="Helvetica,sans-Serif" font-size="10.00">&#45; m_data</text>
<polyline fill="none" stroke="black" points="0,-1159.5 121,-1159.5 "/>
<text text-anchor="start" x="8" y="-1147.5" font-family="Helvetica,sans-Serif" font-size="10.00">+ CircularArray()</text>
<text text-anchor="start" x="8" y="-1136.5" font-family="Helvetica,sans-Serif" font-size="10.00">+ CircularArray()</text>
<text text-anchor="start" x="8" y="-1125.5" font-family="Helvetica,sans-Serif" font-size="10.00">+ at()</text>
<text text-anchor="start" x="8" y="-1114.5" font-family="Helvetica,sans-Serif" font-size="10.00">+ begin()</text>
<text text-anchor="start" x="8" y="-1103.5" font-family="Helvetica,sans-Serif" font-size="10.00">+ cbegin()</text>
<text text-anchor="start" x="8" y="-1092.5" font-family="Helvetica,sans-Serif" font-size="10.00">+ cdata()</text>
<text text-anchor="start" x="8" y="-1081.5" font-family="Helvetica,sans-Serif" font-size="10.00">+ cend()</text>
<text text-anchor="start" x="8" y="-1070.5" font-family="Helvetica,sans-Serif" font-size="10.00">+ data()</text>
<text text-anchor="start" x="8" y="-1059.5" font-family="Helvetica,sans-Serif" font-size="10.00">+ end()</text>
<text text-anchor="start" x="8" y="-1048.5" font-family="Helvetica,sans-Serif" font-size="10.00">+ operator=()</text>
<text text-anchor="start" x="8" y="-1037.5" font-family="Helvetica,sans-Serif" font-size="10.00">+ operator[]()</text>
<text text-anchor="start" x="8" y="-1026.5" font-family="Helvetica,sans-Serif" font-size="10.00">+ operator[]()</text>
<text text-anchor="start" x="8" y="-1015.5" font-family="Helvetica,sans-Serif" font-size="10.00">+ set()</text>
<text text-anchor="start" x="8" y="-1004.5" font-family="Helvetica,sans-Serif" font-size="10.00">+ size()</text>
<text text-anchor="start" x="8" y="-993.5" font-family="Helvetica,sans-Serif" font-size="10.00">&#45; mod_floor()</text>
</a>
</g>
</g>
<!-- Node4&#45;&gt;Node3 -->
<g id="edge3" class="edge">
<title>Node4&#45;&gt;Node3</title>
<path fill="none" stroke="#404040" d="M103.04,-986.36C114.75,-958.73 127.75,-929.08 140.5,-902 143.09,-896.49 145.8,-890.87 148.57,-885.22"/>
<polygon fill="none" stroke="#404040" points="148.64,-885.07 147.72,-877.92 153.96,-874.32 154.89,-881.47 148.64,-885.07"/>
<text text-anchor="middle" x="170.5" y="-932.5" font-family="Helvetica,sans-Serif" font-size="10.00"> &#45;m_quadFlag</text>
</g>
<!-- Node5 -->
<g id="node5" class="node">
<title>Node5</title>
<g id="a_node5"><a xlink:href="classCircularArray.html" target="_top" xlink:title=" ">
<polygon fill="white" stroke="black" points="94,-1245.5 94,-1467.5 209,-1467.5 209,-1245.5 94,-1245.5"/>
<text text-anchor="start" x="102" y="-1455.5" font-family="Helvetica,sans-Serif" font-size="10.00">CircularArray&lt; T, array</text>
<text text-anchor="middle" x="151.5" y="-1444.5" font-family="Helvetica,sans-Serif" font-size="10.00">_size &gt;</text>
<polyline fill="none" stroke="black" points="94,-1437.5 209,-1437.5 "/>
<text text-anchor="middle" x="151.5" y="-1425.5" font-family="Helvetica,sans-Serif" font-size="10.00"> </text>
<polyline fill="none" stroke="black" points="94,-1418.5 209,-1418.5 "/>
<text text-anchor="start" x="102" y="-1406.5" font-family="Helvetica,sans-Serif" font-size="10.00">+ CircularArray()</text>
<text text-anchor="start" x="102" y="-1395.5" font-family="Helvetica,sans-Serif" font-size="10.00">+ CircularArray()</text>
<text text-anchor="start" x="102" y="-1384.5" font-family="Helvetica,sans-Serif" font-size="10.00">+ at()</text>
<text text-anchor="start" x="102" y="-1373.5" font-family="Helvetica,sans-Serif" font-size="10.00">+ begin()</text>
<text text-anchor="start" x="102" y="-1362.5" font-family="Helvetica,sans-Serif" font-size="10.00">+ cbegin()</text>
<text text-anchor="start" x="102" y="-1351.5" font-family="Helvetica,sans-Serif" font-size="10.00">+ cdata()</text>
<text text-anchor="start" x="102" y="-1340.5" font-family="Helvetica,sans-Serif" font-size="10.00">+ cend()</text>
<text text-anchor="start" x="102" y="-1329.5" font-family="Helvetica,sans-Serif" font-size="10.00">+ data()</text>
<text text-anchor="start" x="102" y="-1318.5" font-family="Helvetica,sans-Serif" font-size="10.00">+ end()</text>
<text text-anchor="start" x="102" y="-1307.5" font-family="Helvetica,sans-Serif" font-size="10.00">+ operator=()</text>
<text text-anchor="start" x="102" y="-1296.5" font-family="Helvetica,sans-Serif" font-size="10.00">+ operator[]()</text>
<text text-anchor="start" x="102" y="-1285.5" font-family="Helvetica,sans-Serif" font-size="10.00">+ operator[]()</text>
<text text-anchor="start" x="102" y="-1274.5" font-family="Helvetica,sans-Serif" font-size="10.00">+ set()</text>
<text text-anchor="start" x="102" y="-1263.5" font-family="Helvetica,sans-Serif" font-size="10.00">+ size()</text>
<text text-anchor="start" x="102" y="-1252.5" font-family="Helvetica,sans-Serif" font-size="10.00">&#45; mod_floor()</text>
</a>
</g>
</g>
<!-- Node5&#45;&gt;Node4 -->
<g id="edge4" class="edge">
<title>Node5&#45;&gt;Node4</title>
<path fill="none" stroke="orange" d="M109.97,-1235.7C105.59,-1223.07 101.17,-1210.3 96.85,-1197.87"/>
<polygon fill="orange" stroke="orange" points="106.72,-1237.02 113.3,-1245.32 113.33,-1234.72 106.72,-1237.02"/>
<text text-anchor="middle" x="132" y="-1219" font-family="Helvetica,sans-Serif" font-size="10.00"> &lt; bool, 4 &gt;</text>
</g>
<!-- Node9 -->
<g id="node9" class="node">
<title>Node9</title>
<g id="a_node9"><a xlink:href="classCircularArray.html" target="_top" xlink:title=" ">
<polygon fill="white" stroke="black" points="139,-986.5 139,-1197.5 270,-1197.5 270,-986.5 139,-986.5"/>
<text text-anchor="middle" x="204.5" y="-1185.5" font-family="Helvetica,sans-Serif" font-size="10.00">CircularArray&lt; double, 4 &gt;</text>
<polyline fill="none" stroke="black" points="139,-1178.5 270,-1178.5 "/>
<text text-anchor="start" x="147" y="-1166.5" font-family="Helvetica,sans-Serif" font-size="10.00">&#45; m_data</text>
<polyline fill="none" stroke="black" points="139,-1159.5 270,-1159.5 "/>
<text text-anchor="start" x="147" y="-1147.5" font-family="Helvetica,sans-Serif" font-size="10.00">+ CircularArray()</text>
<text text-anchor="start" x="147" y="-1136.5" font-family="Helvetica,sans-Serif" font-size="10.00">+ CircularArray()</text>
<text text-anchor="start" x="147" y="-1125.5" font-family="Helvetica,sans-Serif" font-size="10.00">+ at()</text>
<text text-anchor="start" x="147" y="-1114.5" font-family="Helvetica,sans-Serif" font-size="10.00">+ begin()</text>
<text text-anchor="start" x="147" y="-1103.5" font-family="Helvetica,sans-Serif" font-size="10.00">+ cbegin()</text>
<text text-anchor="start" x="147" y="-1092.5" font-family="Helvetica,sans-Serif" font-size="10.00">+ cdata()</text>
<text text-anchor="start" x="147" y="-1081.5" font-family="Helvetica,sans-Serif" font-size="10.00">+ cend()</text>
<text text-anchor="start" x="147" y="-1070.5" font-family="Helvetica,sans-Serif" font-size="10.00">+ data()</text>
<text text-anchor="start" x="147" y="-1059.5" font-family="Helvetica,sans-Serif" font-size="10.00">+ end()</text>
<text text-anchor="start" x="147" y="-1048.5" font-family="Helvetica,sans-Serif" font-size="10.00">+ operator=()</text>
<text text-anchor="start" x="147" y="-1037.5" font-family="Helvetica,sans-Serif" font-size="10.00">+ operator[]()</text>
<text text-anchor="start" x="147" y="-1026.5" font-family="Helvetica,sans-Serif" font-size="10.00">+ operator[]()</text>
<text text-anchor="start" x="147" y="-1015.5" font-family="Helvetica,sans-Serif" font-size="10.00">+ set()</text>
<text text-anchor="start" x="147" y="-1004.5" font-family="Helvetica,sans-Serif" font-size="10.00">+ size()</text>
<text text-anchor="start" x="147" y="-993.5" font-family="Helvetica,sans-Serif" font-size="10.00">&#45; mod_floor()</text>
</a>
</g>
</g>
<!-- Node5&#45;&gt;Node9 -->
<g id="edge10" class="edge">
<title>Node5&#45;&gt;Node9</title>
<path fill="none" stroke="orange" d="M175.76,-1235.33C178.29,-1222.82 180.84,-1210.18 183.33,-1197.87"/>
<polygon fill="orange" stroke="orange" points="172.29,-1234.82 173.75,-1245.32 179.16,-1236.21 172.29,-1234.82"/>
<text text-anchor="middle" x="211" y="-1219" font-family="Helvetica,sans-Serif" font-size="10.00"> &lt; double, 4 &gt;</text>
</g>
<!-- Node6 -->
<g id="node6" class="node">
<title>Node6</title>
<g id="a_node6"><a xlink:title=" ">
<polygon fill="white" stroke="#bfbfbf" points="95.5,-1515.5 95.5,-1572.5 207.5,-1572.5 207.5,-1515.5 95.5,-1515.5"/>
<text text-anchor="middle" x="151.5" y="-1560.5" font-family="Helvetica,sans-Serif" font-size="10.00">array&lt; T, array_size &gt;</text>
<polyline fill="none" stroke="#bfbfbf" points="95.5,-1553.5 207.5,-1553.5 "/>
<text text-anchor="middle" x="151.5" y="-1541.5" font-family="Helvetica,sans-Serif" font-size="10.00"> </text>
<polyline fill="none" stroke="#bfbfbf" points="95.5,-1534.5 207.5,-1534.5 "/>
<text text-anchor="middle" x="151.5" y="-1522.5" font-family="Helvetica,sans-Serif" font-size="10.00"> </text>
</a>
</g>
</g>
<!-- Node6&#45;&gt;Node5 -->
<g id="edge5" class="edge">
<title>Node6&#45;&gt;Node5</title>
<path fill="none" stroke="#404040" d="M151.5,-1515.23C151.5,-1505.09 151.5,-1492.87 151.5,-1479.78"/>
<polygon fill="none" stroke="#404040" points="151.5,-1479.54 147.5,-1473.54 151.5,-1467.54 155.5,-1473.54 151.5,-1479.54"/>
<text text-anchor="middle" x="171" y="-1489" font-family="Helvetica,sans-Serif" font-size="10.00"> &#45;m_data</text>
</g>
<!-- Node7 -->
<g id="node7" class="node">
<title>Node7</title>
<g id="a_node7"><a xlink:title=" ">
<polygon fill="white" stroke="#bfbfbf" points="212,-1772.5 212,-1829.5 241,-1829.5 241,-1772.5 212,-1772.5"/>
<text text-anchor="middle" x="226.5" y="-1817.5" font-family="Helvetica,sans-Serif" font-size="10.00">T</text>
<polyline fill="none" stroke="#bfbfbf" points="212,-1810.5 241,-1810.5 "/>
<text text-anchor="middle" x="226.5" y="-1798.5" font-family="Helvetica,sans-Serif" font-size="10.00"> </text>
<polyline fill="none" stroke="#bfbfbf" points="212,-1791.5 241,-1791.5 "/>
<text text-anchor="middle" x="226.5" y="-1779.5" font-family="Helvetica,sans-Serif" font-size="10.00"> </text>
</a>
</g>
</g>
<!-- Node7&#45;&gt;Node6 -->
<g id="edge6" class="edge">
<title>Node7&#45;&gt;Node6</title>
<path fill="none" stroke="#404040" d="M211.83,-1791.91C192.2,-1780.14 158.27,-1756.25 144.5,-1725 124.68,-1680 131.84,-1622.38 140.32,-1584.61"/>
<polygon fill="none" stroke="#404040" points="140.4,-1584.28 137.92,-1577.51 143.21,-1572.62 145.7,-1579.39 140.4,-1584.28"/>
<text text-anchor="middle" x="169" y="-1693.5" font-family="Helvetica,sans-Serif" font-size="10.00"> +elements</text>
</g>
<!-- Node8 -->
<g id="node8" class="node">
<title>Node8</title>
<g id="a_node8"><a xlink:title=" ">
<polygon fill="white" stroke="#bfbfbf" points="202.5,-1667.5 202.5,-1724.5 264.5,-1724.5 264.5,-1667.5 202.5,-1667.5"/>
<text text-anchor="middle" x="233.5" y="-1712.5" font-family="Helvetica,sans-Serif" font-size="10.00">array&lt; T &gt;</text>
<polyline fill="none" stroke="#bfbfbf" points="202.5,-1705.5 264.5,-1705.5 "/>
<text text-anchor="middle" x="233.5" y="-1693.5" font-family="Helvetica,sans-Serif" font-size="10.00"> </text>
<polyline fill="none" stroke="#bfbfbf" points="202.5,-1686.5 264.5,-1686.5 "/>
<text text-anchor="middle" x="233.5" y="-1674.5" font-family="Helvetica,sans-Serif" font-size="10.00"> </text>
</a>
</g>
</g>
<!-- Node7&#45;&gt;Node8 -->
<g id="edge8" class="edge">
<title>Node7&#45;&gt;Node8</title>
<path fill="none" stroke="#404040" d="M226.36,-1772.43C226.48,-1763.08 226.79,-1752.57 227.5,-1743 227.65,-1740.96 227.83,-1738.87 228.03,-1736.76"/>
<polygon fill="none" stroke="#404040" points="228.05,-1736.61 224.74,-1730.2 229.38,-1724.68 232.69,-1731.09 228.05,-1736.61"/>
<text text-anchor="middle" x="252" y="-1746" font-family="Helvetica,sans-Serif" font-size="10.00"> +elements</text>
</g>
<!-- Node10 -->
<g id="node10" class="node">
<title>Node10</title>
<g id="a_node10"><a xlink:title=" ">
<polygon fill="white" stroke="#bfbfbf" points="264.5,-1591.5 264.5,-1648.5 332.5,-1648.5 332.5,-1591.5 264.5,-1591.5"/>
<text text-anchor="middle" x="298.5" y="-1636.5" font-family="Helvetica,sans-Serif" font-size="10.00">vector&lt; T &gt;</text>
<polyline fill="none" stroke="#bfbfbf" points="264.5,-1629.5 332.5,-1629.5 "/>
<text text-anchor="middle" x="298.5" y="-1617.5" font-family="Helvetica,sans-Serif" font-size="10.00"> </text>
<polyline fill="none" stroke="#bfbfbf" points="264.5,-1610.5 332.5,-1610.5 "/>
<text text-anchor="middle" x="298.5" y="-1598.5" font-family="Helvetica,sans-Serif" font-size="10.00"> </text>
</a>
</g>
</g>
<!-- Node7&#45;&gt;Node10 -->
<g id="edge12" class="edge">
<title>Node7&#45;&gt;Node10</title>
<path fill="none" stroke="#404040" d="M241.26,-1790.55C252.79,-1782.33 268.2,-1769.36 276.5,-1754 291.97,-1725.38 297.12,-1688.64 298.61,-1661.02"/>
<polygon fill="none" stroke="#404040" points="298.62,-1660.65 294.84,-1654.51 299.06,-1648.66 302.84,-1654.8 298.62,-1660.65"/>
<text text-anchor="middle" x="306" y="-1746" font-family="Helvetica,sans-Serif" font-size="10.00"> +elements</text>
</g>
<!-- Node8&#45;&gt;Node6 -->
<g id="edge7" class="edge">
<title>Node8&#45;&gt;Node6</title>
<path fill="none" stroke="orange" d="M194.47,-1667.73C188.45,-1662.11 182.81,-1655.8 178.5,-1649 163.84,-1625.83 157.11,-1594.98 154.04,-1572.9"/>
<polygon fill="orange" stroke="orange" points="192.4,-1670.56 202.24,-1674.47 196.98,-1665.27 192.4,-1670.56"/>
<text text-anchor="middle" x="217" y="-1617.5" font-family="Helvetica,sans-Serif" font-size="10.00"> &lt; T, array_size &gt;</text>
</g>
<!-- Node9&#45;&gt;Node3 -->
<g id="edge9" class="edge">
<title>Node9&#45;&gt;Node3</title>
<path fill="none" stroke="#404040" d="M204.5,-986.24C204.5,-957.22 204.5,-925.54 204.5,-895.88"/>
<polygon fill="none" stroke="#404040" points="204.5,-895.75 200.5,-889.75 204.5,-883.75 208.5,-889.75 204.5,-895.75"/>
<text text-anchor="middle" x="244" y="-960" font-family="Helvetica,sans-Serif" font-size="10.00"> &#45;m_hollandB</text>
<text text-anchor="middle" x="244" y="-949" font-family="Helvetica,sans-Serif" font-size="10.00">&#45;m_isotachRadius</text>
<text text-anchor="middle" x="244" y="-938" font-family="Helvetica,sans-Serif" font-size="10.00">&#45;m_phi</text>
<text text-anchor="middle" x="244" y="-927" font-family="Helvetica,sans-Serif" font-size="10.00">&#45;m_quadrantVr</text>
<text text-anchor="middle" x="244" y="-916" font-family="Helvetica,sans-Serif" font-size="10.00">&#45;m_rmax</text>
<text text-anchor="middle" x="244" y="-905" font-family="Helvetica,sans-Serif" font-size="10.00">&#45;m_vmaxBL</text>
</g>
<!-- Node10&#45;&gt;Node2 -->
<g id="edge11" class="edge">
<title>Node10&#45;&gt;Node2</title>
<path fill="none" stroke="orange" d="M298.5,-1581.15C298.5,-1556.02 298.5,-1522.29 298.5,-1492.5 298.5,-1492.5 298.5,-1492.5 298.5,-777 298.5,-695.57 297.44,-599.3 296.86,-553.04"/>
<polygon fill="orange" stroke="orange" points="295,-1581.36 298.5,-1591.36 302,-1581.36 295,-1581.36"/>
<text text-anchor="middle" x="325.5" y="-1219" font-family="Helvetica,sans-Serif" font-size="10.00"> &lt; Isotach &gt;</text>
</g>
<!-- Node11 -->
<g id="node11" class="node">
<title>Node11</title>
<g id="a_node11"><a xlink:title=" ">
<polygon fill="white" stroke="#bfbfbf" points="362,-496 362,-553 403,-553 403,-496 362,-496"/>
<text text-anchor="middle" x="382.5" y="-541" font-family="Helvetica,sans-Serif" font-size="10.00">string</text>
<polyline fill="none" stroke="#bfbfbf" points="362,-534 403,-534 "/>
<text text-anchor="middle" x="382.5" y="-522" font-family="Helvetica,sans-Serif" font-size="10.00"> </text>
<polyline fill="none" stroke="#bfbfbf" points="362,-515 403,-515 "/>
<text text-anchor="middle" x="382.5" y="-503" font-family="Helvetica,sans-Serif" font-size="10.00"> </text>
</a>
</g>
</g>
<!-- Node11&#45;&gt;Node1 -->
<g id="edge13" class="edge">
<title>Node11&#45;&gt;Node1</title>
<path fill="none" stroke="#404040" d="M381.93,-495.96C381.46,-472.15 380.83,-436.81 380.5,-406 380.25,-382.72 380.07,-358.19 379.93,-334.01"/>
<polygon fill="none" stroke="#404040" points="379.93,-333.8 375.89,-327.82 379.86,-321.8 383.89,-327.78 379.93,-333.8"/>
<text text-anchor="middle" x="439" y="-398" font-family="Helvetica,sans-Serif" font-size="10.00"> &#45;m_basin</text>
<text text-anchor="middle" x="439" y="-387" font-family="Helvetica,sans-Serif" font-size="10.00">&#45;m_initials</text>
<text text-anchor="middle" x="439" y="-376" font-family="Helvetica,sans-Serif" font-size="10.00">&#45;m_maxDevelopmentLevel</text>
<text text-anchor="middle" x="439" y="-365" font-family="Helvetica,sans-Serif" font-size="10.00">&#45;m_stormName</text>
<text text-anchor="middle" x="439" y="-354" font-family="Helvetica,sans-Serif" font-size="10.00">&#45;m_systemDepth</text>
<text text-anchor="middle" x="439" y="-343" font-family="Helvetica,sans-Serif" font-size="10.00">&#45;m_techstring</text>
</g>
<!-- Node12 -->
<g id="node12" class="node">
<title>Node12</title>
<g id="a_node12"><a xlink:title=" ">
<polygon fill="white" stroke="#bfbfbf" points="328.5,-749.5 328.5,-806.5 436.5,-806.5 436.5,-749.5 328.5,-749.5"/>
<text text-anchor="middle" x="382.5" y="-794.5" font-family="Helvetica,sans-Serif" font-size="10.00">basic_string&lt; Char &gt;</text>
<polyline fill="none" stroke="#bfbfbf" points="328.5,-787.5 436.5,-787.5 "/>
<text text-anchor="middle" x="382.5" y="-775.5" font-family="Helvetica,sans-Serif" font-size="10.00"> </text>
<polyline fill="none" stroke="#bfbfbf" points="328.5,-768.5 436.5,-768.5 "/>
<text text-anchor="middle" x="382.5" y="-756.5" font-family="Helvetica,sans-Serif" font-size="10.00"> </text>
</a>
</g>
</g>
<!-- Node12&#45;&gt;Node11 -->
<g id="edge14" class="edge">
<title>Node12&#45;&gt;Node11</title>
<path fill="none" stroke="midnightblue" d="M382.5,-738.83C382.5,-687.7 382.5,-598.2 382.5,-553.12"/>
<polygon fill="none" stroke="midnightblue" points="379,-739.12 382.5,-749.12 386,-739.12 379,-739.12"/>
</g>
<!-- Node13 -->
<g id="node13" class="node">
<title>Node13</title>
<g id="a_node13"><a xlink:href="classDate.html" target="_top" xlink:title=" ">
<polygon fill="white" stroke="black" points="478.5,-424.5 478.5,-624.5 560.5,-624.5 560.5,-424.5 478.5,-424.5"/>
<text text-anchor="middle" x="519.5" y="-612.5" font-family="Helvetica,sans-Serif" font-size="10.00">Date</text>
<polyline fill="none" stroke="black" points="478.5,-605.5 560.5,-605.5 "/>
<text text-anchor="start" x="486.5" y="-593.5" font-family="Helvetica,sans-Serif" font-size="10.00">&#45; m_datetime</text>
<polyline fill="none" stroke="black" points="478.5,-586.5 560.5,-586.5 "/>
<text text-anchor="start" x="486.5" y="-574.5" font-family="Helvetica,sans-Serif" font-size="10.00">+ Date()</text>
<text text-anchor="start" x="486.5" y="-563.5" font-family="Helvetica,sans-Serif" font-size="10.00">+ Date()</text>
<text text-anchor="start" x="486.5" y="-552.5" font-family="Helvetica,sans-Serif" font-size="10.00">+ Date()</text>
<text text-anchor="start" x="486.5" y="-541.5" font-family="Helvetica,sans-Serif" font-size="10.00">+ Date()</text>
<text text-anchor="start" x="486.5" y="-530.5" font-family="Helvetica,sans-Serif" font-size="10.00">+ Date()</text>
<text text-anchor="start" x="486.5" y="-519.5" font-family="Helvetica,sans-Serif" font-size="10.00">+ Date()</text>
<text text-anchor="start" x="486.5" y="-508.5" font-family="Helvetica,sans-Serif" font-size="10.00">+ addDays()</text>
<text text-anchor="start" x="486.5" y="-497.5" font-family="Helvetica,sans-Serif" font-size="10.00">+ addHours()</text>
<text text-anchor="start" x="486.5" y="-486.5" font-family="Helvetica,sans-Serif" font-size="10.00">+ addMinutes()</text>
<text text-anchor="start" x="486.5" y="-475.5" font-family="Helvetica,sans-Serif" font-size="10.00">+ addMonths()</text>
<text text-anchor="start" x="486.5" y="-464.5" font-family="Helvetica,sans-Serif" font-size="10.00">and 44 more...</text>
<text text-anchor="start" x="486.5" y="-453.5" font-family="Helvetica,sans-Serif" font-size="10.00">+ maxDate()</text>
<text text-anchor="start" x="486.5" y="-442.5" font-family="Helvetica,sans-Serif" font-size="10.00">+ minDate()</text>
<text text-anchor="start" x="486.5" y="-431.5" font-family="Helvetica,sans-Serif" font-size="10.00">+ now()</text>
</a>
</g>
</g>
<!-- Node13&#45;&gt;Node1 -->
<g id="edge15" class="edge">
<title>Node13&#45;&gt;Node1</title>
<path fill="none" stroke="#404040" d="M516.1,-424.38C512.89,-396.47 507.24,-366.5 497.5,-340 486.49,-310.07 469.56,-280.16 451.93,-253.63"/>
<polygon fill="none" stroke="#404040" points="451.89,-253.57 445.21,-250.85 445.15,-243.64 451.83,-246.36 451.89,-253.57"/>
<text text-anchor="middle" x="546.5" y="-376" font-family="Helvetica,sans-Serif" font-size="10.00"> &#45;m_datetime</text>
<text text-anchor="middle" x="546.5" y="-365" font-family="Helvetica,sans-Serif" font-size="10.00">&#45;m_refDatetime</text>
</g>
</g>
</svg>
