<?xml version="1.0" encoding="UTF-8" standalone="no"?>
<!DOCTYPE svg PUBLIC "-//W3C//DTD SVG 1.1//EN"
 "http://www.w3.org/Graphics/SVG/1.1/DTD/svg11.dtd">
<!-- Generated by graphviz version 2.47.1 (20210417.1919)
 -->
<!-- Title: log Pages: 1 -->
<svg width="149pt" height="66pt"
 viewBox="0.00 0.00 149.00 66.00" xmlns="http://www.w3.org/2000/svg" xmlns:xlink="http://www.w3.org/1999/xlink">
<g id="graph0" class="graph" transform="scale(1 1) rotate(0) translate(4 62)">
<title>log</title>
<polygon fill="white" stroke="transparent" points="-4,4 -4,-62 145,-62 145,4 -4,4"/>
<!-- Node1 -->
<g id="node1" class="node">
<title>Node1</title>
<g id="a_node1"><a xlink:title="Informational log message.">
<polygon fill="#bfbfbf" stroke="black" points="0,-19.5 0,-38.5 29,-38.5 29,-19.5 0,-19.5"/>
<text text-anchor="middle" x="14.5" y="-26.5" font-family="Helvetica,sans-Serif" font-size="10.00">log</text>
</a>
</g>
</g>
<!-- Node2 -->
<g id="node2" class="node">
<title>Node2</title>
<g id="a_node2"><a xlink:href="Logging_8cpp.html#ada828559b474567398f0fd58ce7690c8" target="_top" xlink:title=" ">
<polygon fill="white" stroke="black" points="65,-38.5 65,-57.5 141,-57.5 141,-38.5 65,-38.5"/>
<text text-anchor="middle" x="103" y="-45.5" font-family="Helvetica,sans-Serif" font-size="10.00">c_logHeading</text>
</a>
</g>
</g>
<!-- Node1&#45;&gt;Node2 -->
<g id="edge1" class="edge">
<title>Node1&#45;&gt;Node2</title>
<path fill="none" stroke="midnightblue" d="M29.02,-31.97C36.14,-33.53 45.35,-35.56 54.81,-37.64"/>
<polygon fill="midnightblue" stroke="midnightblue" points="54.17,-41.08 64.69,-39.8 55.67,-34.24 54.17,-41.08"/>
</g>
<!-- Node3 -->
<g id="node3" class="node">
<title>Node3</title>
<g id="a_node3"><a xlink:href="classLogging.html#a46423d1b66f1695ca6221aec6188630e" target="_top" xlink:title="Prints a message to screen.">
<polygon fill="white" stroke="black" points="65.5,-0.5 65.5,-19.5 140.5,-19.5 140.5,-0.5 65.5,-0.5"/>
<text text-anchor="middle" x="103" y="-7.5" font-family="Helvetica,sans-Serif" font-size="10.00">printMessage</text>
</a>
</g>
</g>
<!-- Node1&#45;&gt;Node3 -->
<g id="edge2" class="edge">
<title>Node1&#45;&gt;Node3</title>
<path fill="none" stroke="midnightblue" d="M29.02,-26.03C36.28,-24.44 45.71,-22.36 55.37,-20.24"/>
<polygon fill="midnightblue" stroke="midnightblue" points="56.43,-23.59 65.44,-18.03 54.92,-16.76 56.43,-23.59"/>
</g>
</g>
</svg>
