<?xml version="1.0" encoding="UTF-8" standalone="no"?>
<!DOCTYPE svg PUBLIC "-//W3C//DTD SVG 1.1//EN"
 "http://www.w3.org/Graphics/SVG/1.1/DTD/svg11.dtd">
<!-- Generated by graphviz version 2.47.1 (20210417.1919)
 -->
<!-- Title: printMessage Pages: 1 -->
<svg width="293pt" height="66pt"
 viewBox="0.00 0.00 293.00 66.00" xmlns="http://www.w3.org/2000/svg" xmlns:xlink="http://www.w3.org/1999/xlink">
<g id="graph0" class="graph" transform="scale(1 1) rotate(0) translate(4 62)">
<title>printMessage</title>
<polygon fill="white" stroke="transparent" points="-4,4 -4,-62 289,-62 289,4 -4,4"/>
<!-- Node1 -->
<g id="node1" class="node">
<title>Node1</title>
<g id="a_node1"><a xlink:title="Prints a message to screen.">
<polygon fill="#bfbfbf" stroke="black" points="210,-19.5 210,-38.5 285,-38.5 285,-19.5 210,-19.5"/>
<text text-anchor="middle" x="247.5" y="-26.5" font-family="Helvetica,sans-Serif" font-size="10.00">printMessage</text>
</a>
</g>
</g>
<!-- Node2 -->
<g id="node2" class="node">
<title>Node2</title>
<g id="a_node2"><a xlink:href="classLogging.html#a97ea357cd10f25fa95e27c63725be4f4" target="_top" xlink:title="Informational log message.">
<polygon fill="white" stroke="black" points="134.5,-38.5 134.5,-57.5 163.5,-57.5 163.5,-38.5 134.5,-38.5"/>
<text text-anchor="middle" x="149" y="-45.5" font-family="Helvetica,sans-Serif" font-size="10.00">log</text>
</a>
</g>
</g>
<!-- Node1&#45;&gt;Node2 -->
<g id="edge1" class="edge">
<title>Node1&#45;&gt;Node2</title>
<path fill="none" stroke="midnightblue" d="M199.71,-38.21C186.48,-40.82 173.09,-43.45 163.55,-45.33"/>
<polygon fill="midnightblue" stroke="midnightblue" points="200.61,-41.6 209.74,-36.24 199.25,-34.74 200.61,-41.6"/>
</g>
<!-- Node4 -->
<g id="node4" class="node">
<title>Node4</title>
<g id="a_node4"><a xlink:href="classLogging.html#aa991e722150df4187e473be0044f21ea" target="_top" xlink:title="Logs a warning message.">
<polygon fill="white" stroke="black" points="124,-0.5 124,-19.5 174,-19.5 174,-0.5 124,-0.5"/>
<text text-anchor="middle" x="149" y="-7.5" font-family="Helvetica,sans-Serif" font-size="10.00">warning</text>
</a>
</g>
</g>
<!-- Node1&#45;&gt;Node4 -->
<g id="edge3" class="edge">
<title>Node1&#45;&gt;Node4</title>
<path fill="none" stroke="midnightblue" d="M199.8,-19.8C190.9,-18.05 181.94,-16.29 174.12,-14.75"/>
<polygon fill="midnightblue" stroke="midnightblue" points="199.25,-23.26 209.74,-21.76 200.61,-16.4 199.25,-23.26"/>
</g>
<!-- Node3 -->
<g id="node3" class="node">
<title>Node3</title>
<g id="a_node3"><a xlink:href="classVortex.html#a61b14dabae9da1036d2072df058076af" target="_top" xlink:title=" ">
<polygon fill="white" stroke="black" points="0,-38.5 0,-57.5 88,-57.5 88,-38.5 0,-38.5"/>
<text text-anchor="middle" x="44" y="-45.5" font-family="Helvetica,sans-Serif" font-size="10.00">Vortex::findRoot</text>
</a>
</g>
</g>
<!-- Node2&#45;&gt;Node3 -->
<g id="edge2" class="edge">
<title>Node2&#45;&gt;Node3</title>
<path fill="none" stroke="midnightblue" d="M123.89,-48C113.19,-48 100.28,-48 88.02,-48"/>
<polygon fill="midnightblue" stroke="midnightblue" points="124.11,-51.5 134.11,-48 124.11,-44.5 124.11,-51.5"/>
</g>
</g>
</svg>
