<?xml version="1.0" encoding="UTF-8" standalone="no"?>
<!DOCTYPE svg PUBLIC "-//W3C//DTD SVG 1.1//EN"
 "http://www.w3.org/Graphics/SVG/1.1/DTD/svg11.dtd">
<!-- Generated by graphviz version 2.47.1 (20210417.1919)
 -->
<!-- Title: computeQuadrantVrWithGamma Pages: 1 -->
<svg width="578pt" height="180pt"
 viewBox="0.00 0.00 578.00 180.00" xmlns="http://www.w3.org/2000/svg" xmlns:xlink="http://www.w3.org/1999/xlink">
<g id="graph0" class="graph" transform="scale(1 1) rotate(0) translate(4 176)">
<title>computeQuadrantVrWithGamma</title>
<polygon fill="white" stroke="transparent" points="-4,4 -4,-176 574,-176 574,4 -4,4"/>
<!-- Node1 -->
<g id="node1" class="node">
<title>Node1</title>
<g id="a_node1"><a xlink:title=" ">
<polygon fill="#bfbfbf" stroke="black" points="0,-57.5 0,-76.5 158,-76.5 158,-57.5 0,-57.5"/>
<text text-anchor="middle" x="79" y="-64.5" font-family="Helvetica,sans-Serif" font-size="10.00">computeQuadrantVrWithGamma</text>
</a>
</g>
</g>
<!-- Node2 -->
<g id="node2" class="node">
<title>Node2</title>
<g id="a_node2"><a xlink:href="classAtcf.html#a8feed32ff84fb9f6e1bba8526b05d00b" target="_top" xlink:title=" ">
<polygon fill="white" stroke="black" points="194,-114.5 194,-133.5 305,-133.5 305,-114.5 194,-114.5"/>
<text text-anchor="middle" x="249.5" y="-121.5" font-family="Helvetica,sans-Serif" font-size="10.00">computeEpsilonAngle</text>
</a>
</g>
</g>
<!-- Node1&#45;&gt;Node2 -->
<g id="edge1" class="edge">
<title>Node1&#45;&gt;Node2</title>
<path fill="none" stroke="midnightblue" d="M108.2,-76.54C136.27,-86.03 179.52,-100.67 210.58,-111.17"/>
<polygon fill="midnightblue" stroke="midnightblue" points="209.61,-114.54 220.2,-114.43 211.85,-107.91 209.61,-114.54"/>
</g>
<!-- Node6 -->
<g id="node6" class="node">
<title>Node6</title>
<g id="a_node6"><a xlink:href="classAtcf.html#a2742efd0b6b28a51a11a0d74e713f222" target="_top" xlink:title=" ">
<polygon fill="white" stroke="black" points="205,-38.5 205,-57.5 294,-57.5 294,-38.5 205,-38.5"/>
<text text-anchor="middle" x="249.5" y="-45.5" font-family="Helvetica,sans-Serif" font-size="10.00">computeGamma</text>
</a>
</g>
</g>
<!-- Node1&#45;&gt;Node6 -->
<g id="edge5" class="edge">
<title>Node1&#45;&gt;Node6</title>
<path fill="none" stroke="midnightblue" d="M158.33,-58.17C170.69,-56.77 183.23,-55.36 194.86,-54.05"/>
<polygon fill="midnightblue" stroke="midnightblue" points="195.28,-57.52 204.83,-52.92 194.5,-50.57 195.28,-57.52"/>
</g>
<!-- Node8 -->
<g id="node8" class="node">
<title>Node8</title>
<g id="a_node8"><a xlink:href="namespacePhysical.html#ac3ebcf4f7617c5c5a57bc9bd2b95e0db" target="_top" xlink:title=" ">
<polygon fill="white" stroke="black" points="360,-76.5 360,-95.5 447,-95.5 447,-76.5 360,-76.5"/>
<text text-anchor="middle" x="403.5" y="-83.5" font-family="Helvetica,sans-Serif" font-size="10.00">Physical::ms2kt</text>
</a>
</g>
</g>
<!-- Node1&#45;&gt;Node8 -->
<g id="edge9" class="edge">
<title>Node1&#45;&gt;Node8</title>
<path fill="none" stroke="midnightblue" d="M158.07,-71.6C217.49,-75.1 297.66,-79.82 349.72,-82.89"/>
<polygon fill="midnightblue" stroke="midnightblue" points="349.55,-86.39 359.74,-83.48 349.96,-79.4 349.55,-86.39"/>
</g>
<!-- Node9 -->
<g id="node9" class="node">
<title>Node9</title>
<g id="a_node9"><a xlink:href="namespacePhysical.html#a7a0e10124e38dbffecaa523c97b21e4a" target="_top" xlink:title=" ">
<polygon fill="white" stroke="black" points="341,-0.5 341,-19.5 466,-19.5 466,-0.5 341,-0.5"/>
<text text-anchor="middle" x="403.5" y="-7.5" font-family="Helvetica,sans-Serif" font-size="10.00">Physical::windReduction</text>
</a>
</g>
</g>
<!-- Node1&#45;&gt;Node9 -->
<g id="edge10" class="edge">
<title>Node1&#45;&gt;Node9</title>
<path fill="none" stroke="midnightblue" d="M103.58,-57.36C126.33,-48.48 161.94,-35.71 194,-29 238.93,-19.6 290.28,-14.85 330.77,-12.45"/>
<polygon fill="midnightblue" stroke="midnightblue" points="331.03,-15.94 340.82,-11.89 330.64,-8.95 331.03,-15.94"/>
</g>
<!-- Node3 -->
<g id="node3" class="node">
<title>Node3</title>
<g id="a_node3"><a xlink:href="namespacePhysical.html#a5753cd084d1e96b108e96f8694b4a8a1" target="_top" xlink:title=" ">
<polygon fill="white" stroke="black" points="371,-114.5 371,-133.5 436,-133.5 436,-114.5 371,-114.5"/>
<text text-anchor="middle" x="403.5" y="-121.5" font-family="Helvetica,sans-Serif" font-size="10.00">Physical::e</text>
</a>
</g>
</g>
<!-- Node2&#45;&gt;Node3 -->
<g id="edge2" class="edge">
<title>Node2&#45;&gt;Node3</title>
<path fill="none" stroke="midnightblue" d="M305.38,-124C323.54,-124 343.46,-124 360.51,-124"/>
<polygon fill="midnightblue" stroke="midnightblue" points="360.71,-127.5 370.71,-124 360.71,-120.5 360.71,-127.5"/>
</g>
<!-- Node4 -->
<g id="node4" class="node">
<title>Node4</title>
<g id="a_node4"><a xlink:href="namespacePhysical.html#a3fccff272b0fae8ead3c2c05f62b3620" target="_top" xlink:title=" ">
<polygon fill="white" stroke="black" points="362,-152.5 362,-171.5 445,-171.5 445,-152.5 362,-152.5"/>
<text text-anchor="middle" x="403.5" y="-159.5" font-family="Helvetica,sans-Serif" font-size="10.00">Physical::twopi</text>
</a>
</g>
</g>
<!-- Node2&#45;&gt;Node4 -->
<g id="edge3" class="edge">
<title>Node2&#45;&gt;Node4</title>
<path fill="none" stroke="midnightblue" d="M288.86,-133.59C308.82,-138.58 333.43,-144.73 354.63,-150.03"/>
<polygon fill="midnightblue" stroke="midnightblue" points="353.87,-153.45 364.42,-152.48 355.57,-146.66 353.87,-153.45"/>
</g>
<!-- Node5 -->
<g id="node5" class="node">
<title>Node5</title>
<g id="a_node5"><a xlink:href="namespacePhysical.html#aceeafe6dfcafc1ccd35aee635c075f09" target="_top" xlink:title=" ">
<polygon fill="white" stroke="black" points="502,-152.5 502,-171.5 570,-171.5 570,-152.5 502,-152.5"/>
<text text-anchor="middle" x="536" y="-159.5" font-family="Helvetica,sans-Serif" font-size="10.00">Physical::pi</text>
</a>
</g>
</g>
<!-- Node4&#45;&gt;Node5 -->
<g id="edge4" class="edge">
<title>Node4&#45;&gt;Node5</title>
<path fill="none" stroke="midnightblue" d="M445.08,-162C459.91,-162 476.74,-162 491.79,-162"/>
<polygon fill="midnightblue" stroke="midnightblue" points="491.88,-165.5 501.88,-162 491.88,-158.5 491.88,-165.5"/>
</g>
<!-- Node7 -->
<g id="node7" class="node">
<title>Node7</title>
<g id="a_node7"><a xlink:href="namespacePhysical.html#a60d38d3c6b34c99aa2bc57a78149a3e1" target="_top" xlink:title=" ">
<polygon fill="white" stroke="black" points="371,-38.5 371,-57.5 436,-57.5 436,-38.5 371,-38.5"/>
<text text-anchor="middle" x="403.5" y="-45.5" font-family="Helvetica,sans-Serif" font-size="10.00">Physical::g</text>
</a>
</g>
</g>
<!-- Node6&#45;&gt;Node7 -->
<g id="edge6" class="edge">
<title>Node6&#45;&gt;Node7</title>
<path fill="none" stroke="midnightblue" d="M294.06,-48C314.92,-48 339.8,-48 360.46,-48"/>
<polygon fill="midnightblue" stroke="midnightblue" points="360.53,-51.5 370.53,-48 360.53,-44.5 360.53,-51.5"/>
</g>
<!-- Node6&#45;&gt;Node8 -->
<g id="edge7" class="edge">
<title>Node6&#45;&gt;Node8</title>
<path fill="none" stroke="midnightblue" d="M288.86,-57.59C308.82,-62.58 333.43,-68.73 354.63,-74.03"/>
<polygon fill="midnightblue" stroke="midnightblue" points="353.87,-77.45 364.42,-76.48 355.57,-70.66 353.87,-77.45"/>
</g>
<!-- Node6&#45;&gt;Node9 -->
<g id="edge8" class="edge">
<title>Node6&#45;&gt;Node9</title>
<path fill="none" stroke="midnightblue" d="M288.86,-38.41C308.82,-33.42 333.43,-27.27 354.63,-21.97"/>
<polygon fill="midnightblue" stroke="midnightblue" points="355.57,-25.34 364.42,-19.52 353.87,-18.55 355.57,-25.34"/>
</g>
</g>
</svg>
