<?xml version="1.0" encoding="UTF-8" standalone="no"?>
<!DOCTYPE svg PUBLIC "-//W3C//DTD SVG 1.1//EN"
 "http://www.w3.org/Graphics/SVG/1.1/DTD/svg11.dtd">
<!-- Generated by graphviz version 2.47.1 (20210417.1919)
 -->
<!-- Title: isSameForecastPeriod Pages: 1 -->
<svg width="263pt" height="180pt"
 viewBox="0.00 0.00 263.00 180.00" xmlns="http://www.w3.org/2000/svg" xmlns:xlink="http://www.w3.org/1999/xlink">
<g id="graph0" class="graph" transform="scale(1 1) rotate(0) translate(4 176)">
<title>isSameForecastPeriod</title>
<polygon fill="white" stroke="transparent" points="-4,4 -4,-176 259,-176 259,4 -4,4"/>
<!-- Node1 -->
<g id="node1" class="node">
<title>Node1</title>
<g id="a_node1"><a xlink:title=" ">
<polygon fill="#bfbfbf" stroke="black" points="0,-76.5 0,-95.5 116,-95.5 116,-76.5 0,-76.5"/>
<text text-anchor="middle" x="58" y="-83.5" font-family="Helvetica,sans-Serif" font-size="10.00">isSameForecastPeriod</text>
</a>
</g>
</g>
<!-- Node2 -->
<g id="node2" class="node">
<title>Node2</title>
<g id="a_node2"><a xlink:href="classAtcfLine.html#a757a667960cf8420a7d565899ba74dd5" target="_top" xlink:title=" ">
<polygon fill="white" stroke="black" points="183.5,-152.5 183.5,-171.5 223.5,-171.5 223.5,-152.5 183.5,-152.5"/>
<text text-anchor="middle" x="203.5" y="-159.5" font-family="Helvetica,sans-Serif" font-size="10.00">basin</text>
</a>
</g>
</g>
<!-- Node1&#45;&gt;Node2 -->
<g id="edge1" class="edge">
<title>Node1&#45;&gt;Node2</title>
<path fill="none" stroke="midnightblue" d="M72.71,-95.55C90.45,-107.64 122.57,-128.61 152,-143 158.94,-146.4 166.65,-149.58 173.92,-152.33"/>
<polygon fill="midnightblue" stroke="midnightblue" points="172.84,-155.66 183.44,-155.79 175.24,-149.08 172.84,-155.66"/>
</g>
<!-- Node3 -->
<g id="node3" class="node">
<title>Node3</title>
<g id="a_node3"><a xlink:href="classAtcfLine.html#af02cbe832e0a7a708e691fff2b48ebc4" target="_top" xlink:title=" ">
<polygon fill="white" stroke="black" points="177,-114.5 177,-133.5 230,-133.5 230,-114.5 177,-114.5"/>
<text text-anchor="middle" x="203.5" y="-121.5" font-family="Helvetica,sans-Serif" font-size="10.00">cisotach</text>
</a>
</g>
</g>
<!-- Node1&#45;&gt;Node3 -->
<g id="edge2" class="edge">
<title>Node1&#45;&gt;Node3</title>
<path fill="none" stroke="midnightblue" d="M95.21,-95.59C117.14,-101.4 145.01,-108.77 166.84,-114.56"/>
<polygon fill="midnightblue" stroke="midnightblue" points="166.15,-117.99 176.71,-117.17 167.94,-111.23 166.15,-117.99"/>
</g>
<!-- Node4 -->
<g id="node4" class="node">
<title>Node4</title>
<g id="a_node4"><a xlink:href="classAtcfLine.html#afcbce102d14966134f6a19e60597c61c" target="_top" xlink:title=" ">
<polygon fill="white" stroke="black" points="161,-76.5 161,-95.5 246,-95.5 246,-76.5 161,-76.5"/>
<text text-anchor="middle" x="203.5" y="-83.5" font-family="Helvetica,sans-Serif" font-size="10.00">cycloneNumber</text>
</a>
</g>
</g>
<!-- Node1&#45;&gt;Node4 -->
<g id="edge3" class="edge">
<title>Node1&#45;&gt;Node4</title>
<path fill="none" stroke="midnightblue" d="M116.13,-86C127.5,-86 139.38,-86 150.56,-86"/>
<polygon fill="midnightblue" stroke="midnightblue" points="150.6,-89.5 160.6,-86 150.6,-82.5 150.6,-89.5"/>
</g>
<!-- Node5 -->
<g id="node5" class="node">
<title>Node5</title>
<g id="a_node5"><a xlink:href="classAtcfLine.html#a31f99dd6bb56e7b2cb4ebbc3a850a8f5" target="_top" xlink:title=" ">
<polygon fill="white" stroke="black" points="176.5,-38.5 176.5,-57.5 230.5,-57.5 230.5,-38.5 176.5,-38.5"/>
<text text-anchor="middle" x="203.5" y="-45.5" font-family="Helvetica,sans-Serif" font-size="10.00">datetime</text>
</a>
</g>
</g>
<!-- Node1&#45;&gt;Node5 -->
<g id="edge4" class="edge">
<title>Node1&#45;&gt;Node5</title>
<path fill="none" stroke="midnightblue" d="M95.21,-76.41C117,-70.64 144.64,-63.32 166.41,-57.56"/>
<polygon fill="midnightblue" stroke="midnightblue" points="167.49,-60.89 176.26,-54.95 165.7,-54.12 167.49,-60.89"/>
</g>
<!-- Node6 -->
<g id="node6" class="node">
<title>Node6</title>
<g id="a_node6"><a xlink:href="classIsotach.html#a90b55241f6d0ff34cfb78229a7ffacf7" target="_top" xlink:title=" ">
<polygon fill="white" stroke="black" points="152,-0.5 152,-19.5 255,-19.5 255,-0.5 152,-0.5"/>
<text text-anchor="middle" x="203.5" y="-7.5" font-family="Helvetica,sans-Serif" font-size="10.00">Isotach::windSpeed</text>
</a>
</g>
</g>
<!-- Node1&#45;&gt;Node6 -->
<g id="edge5" class="edge">
<title>Node1&#45;&gt;Node6</title>
<path fill="none" stroke="midnightblue" d="M72.71,-76.45C90.45,-64.36 122.57,-43.39 152,-29 156.09,-27 160.44,-25.08 164.81,-23.27"/>
<polygon fill="midnightblue" stroke="midnightblue" points="166.3,-26.45 174.32,-19.52 163.73,-19.94 166.3,-26.45"/>
</g>
</g>
</svg>
