<?xml version="1.0" encoding="UTF-8" standalone="no"?>
<!DOCTYPE svg PUBLIC "-//W3C//DTD SVG 1.1//EN"
 "http://www.w3.org/Graphics/SVG/1.1/DTD/svg11.dtd">
<!-- Generated by graphviz version 2.47.1 (20210417.1919)
 -->
<!-- Title: Date.cpp Pages: 1 -->
<svg width="443pt" height="140pt"
 viewBox="0.00 0.00 443.00 140.00" xmlns="http://www.w3.org/2000/svg" xmlns:xlink="http://www.w3.org/1999/xlink">
<g id="graph0" class="graph" transform="scale(1 1) rotate(0) translate(4 136)">
<title>Date.cpp</title>
<polygon fill="white" stroke="transparent" points="-4,4 -4,-136 439,-136 439,4 -4,4"/>
<!-- Node1 -->
<g id="node1" class="node">
<title>Node1</title>
<g id="a_node1"><a xlink:title=" ">
<polygon fill="#bfbfbf" stroke="black" points="100,-112.5 100,-131.5 156,-131.5 156,-112.5 100,-112.5"/>
<text text-anchor="middle" x="128" y="-119.5" font-family="Helvetica,sans-Serif" font-size="10.00">Date.cpp</text>
</a>
</g>
</g>
<!-- Node2 -->
<g id="node2" class="node">
<title>Node2</title>
<g id="a_node2"><a xlink:href="Date_8h.html" target="_top" xlink:title=" ">
<polygon fill="white" stroke="black" points="131,-56.5 131,-75.5 177,-75.5 177,-56.5 131,-56.5"/>
<text text-anchor="middle" x="154" y="-63.5" font-family="Helvetica,sans-Serif" font-size="10.00">Date.h</text>
</a>
</g>
</g>
<!-- Node1&#45;&gt;Node2 -->
<g id="edge1" class="edge">
<title>Node1&#45;&gt;Node2</title>
<path fill="none" stroke="midnightblue" d="M132.29,-112.08C135.85,-104.69 141.02,-93.95 145.42,-84.81"/>
<polygon fill="midnightblue" stroke="midnightblue" points="148.6,-86.28 149.79,-75.75 142.29,-83.24 148.6,-86.28"/>
</g>
<!-- Node3 -->
<g id="node3" class="node">
<title>Node3</title>
<g id="a_node3"><a xlink:title=" ">
<polygon fill="white" stroke="#bfbfbf" points="0,-0.5 0,-19.5 46,-19.5 46,-0.5 0,-0.5"/>
<text text-anchor="middle" x="23" y="-7.5" font-family="Helvetica,sans-Serif" font-size="10.00">chrono</text>
</a>
</g>
</g>
<!-- Node1&#45;&gt;Node3 -->
<g id="edge9" class="edge">
<title>Node1&#45;&gt;Node3</title>
<path fill="none" stroke="midnightblue" d="M119.76,-112.37C102.2,-93.97 60.87,-50.67 38.32,-27.05"/>
<polygon fill="midnightblue" stroke="midnightblue" points="40.64,-24.41 31.2,-19.59 35.57,-29.24 40.64,-24.41"/>
</g>
<!-- Node5 -->
<g id="node5" class="node">
<title>Node5</title>
<g id="a_node5"><a xlink:title=" ">
<polygon fill="white" stroke="#bfbfbf" points="64,-0.5 64,-19.5 118,-19.5 118,-0.5 64,-0.5"/>
<text text-anchor="middle" x="91" y="-7.5" font-family="Helvetica,sans-Serif" font-size="10.00">iostream</text>
</a>
</g>
</g>
<!-- Node1&#45;&gt;Node5 -->
<g id="edge10" class="edge">
<title>Node1&#45;&gt;Node5</title>
<path fill="none" stroke="midnightblue" d="M125.1,-112.37C119.1,-94.54 105.23,-53.3 97.15,-29.27"/>
<polygon fill="midnightblue" stroke="midnightblue" points="100.4,-27.95 93.89,-19.59 93.76,-30.19 100.4,-27.95"/>
</g>
<!-- Node10 -->
<g id="node10" class="node">
<title>Node10</title>
<g id="a_node10"><a xlink:title=" ">
<polygon fill="white" stroke="#bfbfbf" points="195,-56.5 195,-75.5 249,-75.5 249,-56.5 195,-56.5"/>
<text text-anchor="middle" x="222" y="-63.5" font-family="Helvetica,sans-Serif" font-size="10.00">date.hpp</text>
</a>
</g>
</g>
<!-- Node1&#45;&gt;Node10 -->
<g id="edge11" class="edge">
<title>Node1&#45;&gt;Node10</title>
<path fill="none" stroke="midnightblue" d="M143.1,-112.32C157.9,-103.82 180.69,-90.73 197.98,-80.8"/>
<polygon fill="midnightblue" stroke="midnightblue" points="200.01,-83.67 206.93,-75.65 196.52,-77.6 200.01,-83.67"/>
</g>
<!-- Node2&#45;&gt;Node3 -->
<g id="edge2" class="edge">
<title>Node2&#45;&gt;Node3</title>
<path fill="none" stroke="midnightblue" d="M133.24,-56.44C111.68,-47.56 77.74,-33.56 53.21,-23.45"/>
<polygon fill="midnightblue" stroke="midnightblue" points="54.24,-20.09 43.66,-19.52 51.57,-26.56 54.24,-20.09"/>
</g>
<!-- Node4 -->
<g id="node4" class="node">
<title>Node4</title>
<g id="a_node4"><a xlink:title=" ">
<polygon fill="white" stroke="#bfbfbf" points="391,-0.5 391,-19.5 435,-19.5 435,-0.5 391,-0.5"/>
<text text-anchor="middle" x="413" y="-7.5" font-family="Helvetica,sans-Serif" font-size="10.00">cmath</text>
</a>
</g>
</g>
<!-- Node2&#45;&gt;Node4 -->
<g id="edge3" class="edge">
<title>Node2&#45;&gt;Node4</title>
<path fill="none" stroke="midnightblue" d="M177.01,-58.25C180.02,-57.45 183.08,-56.68 186,-56 269.24,-36.69 294.07,-40.09 380.97,-20.05"/>
<polygon fill="midnightblue" stroke="midnightblue" points="381.78,-23.45 390.72,-17.76 380.19,-16.64 381.78,-23.45"/>
</g>
<!-- Node2&#45;&gt;Node5 -->
<g id="edge4" class="edge">
<title>Node2&#45;&gt;Node5</title>
<path fill="none" stroke="midnightblue" d="M143.88,-56.32C134.47,-48.26 120.26,-36.08 108.93,-26.37"/>
<polygon fill="midnightblue" stroke="midnightblue" points="111.18,-23.68 101.31,-19.83 106.62,-29 111.18,-23.68"/>
</g>
<!-- Node6 -->
<g id="node6" class="node">
<title>Node6</title>
<g id="a_node6"><a xlink:title=" ">
<polygon fill="white" stroke="#bfbfbf" points="136.5,-0.5 136.5,-19.5 171.5,-19.5 171.5,-0.5 136.5,-0.5"/>
<text text-anchor="middle" x="154" y="-7.5" font-family="Helvetica,sans-Serif" font-size="10.00">ratio</text>
</a>
</g>
</g>
<!-- Node2&#45;&gt;Node6 -->
<g id="edge5" class="edge">
<title>Node2&#45;&gt;Node6</title>
<path fill="none" stroke="midnightblue" d="M154,-56.08C154,-49.01 154,-38.86 154,-29.99"/>
<polygon fill="midnightblue" stroke="midnightblue" points="157.5,-29.75 154,-19.75 150.5,-29.75 157.5,-29.75"/>
</g>
<!-- Node7 -->
<g id="node7" class="node">
<title>Node7</title>
<g id="a_node7"><a xlink:title=" ">
<polygon fill="white" stroke="#bfbfbf" points="189.5,-0.5 189.5,-19.5 230.5,-19.5 230.5,-0.5 189.5,-0.5"/>
<text text-anchor="middle" x="210" y="-7.5" font-family="Helvetica,sans-Serif" font-size="10.00">string</text>
</a>
</g>
</g>
<!-- Node2&#45;&gt;Node7 -->
<g id="edge6" class="edge">
<title>Node2&#45;&gt;Node7</title>
<path fill="none" stroke="midnightblue" d="M163,-56.32C171.19,-48.42 183.51,-36.55 193.47,-26.94"/>
<polygon fill="midnightblue" stroke="midnightblue" points="196.07,-29.29 200.84,-19.83 191.21,-24.26 196.07,-29.29"/>
</g>
<!-- Node8 -->
<g id="node8" class="node">
<title>Node8</title>
<g id="a_node8"><a xlink:title=" ">
<polygon fill="white" stroke="#bfbfbf" points="249,-0.5 249,-19.5 311,-19.5 311,-0.5 249,-0.5"/>
<text text-anchor="middle" x="280" y="-7.5" font-family="Helvetica,sans-Serif" font-size="10.00">type_traits</text>
</a>
</g>
</g>
<!-- Node2&#45;&gt;Node8 -->
<g id="edge7" class="edge">
<title>Node2&#45;&gt;Node8</title>
<path fill="none" stroke="midnightblue" d="M173.97,-56.44C194.61,-47.6 227.06,-33.69 250.63,-23.59"/>
<polygon fill="midnightblue" stroke="midnightblue" points="252.32,-26.67 260.13,-19.52 249.56,-20.24 252.32,-26.67"/>
</g>
<!-- Node9 -->
<g id="node9" class="node">
<title>Node9</title>
<g id="a_node9"><a xlink:title=" ">
<polygon fill="white" stroke="#bfbfbf" points="329,-0.5 329,-19.5 373,-19.5 373,-0.5 329,-0.5"/>
<text text-anchor="middle" x="351" y="-7.5" font-family="Helvetica,sans-Serif" font-size="10.00">vector</text>
</a>
</g>
</g>
<!-- Node2&#45;&gt;Node9 -->
<g id="edge8" class="edge">
<title>Node2&#45;&gt;Node9</title>
<path fill="none" stroke="midnightblue" d="M177.06,-58.48C180.07,-57.64 183.11,-56.8 186,-56 242.44,-40.48 258.96,-36.94 318.69,-20.33"/>
<polygon fill="midnightblue" stroke="midnightblue" points="319.97,-23.6 328.66,-17.54 318.09,-16.86 319.97,-23.6"/>
</g>
</g>
</svg>
