<?xml version="1.0" encoding="UTF-8" standalone="no"?>
<!DOCTYPE svg PUBLIC "-//W3C//DTD SVG 1.1//EN"
 "http://www.w3.org/Graphics/SVG/1.1/DTD/svg11.dtd">
<!-- Generated by graphviz version 2.47.1 (20210417.1919)
 -->
<!-- Title: c_epoch Pages: 1 -->
<!--zoomable 186 -->
<svg id="main" version="1.1" xmlns="http://www.w3.org/2000/svg" xmlns:xlink="http://www.w3.org/1999/xlink" xml:space="preserve" onload="init(evt)">
<style type="text/css"><![CDATA[
.edge:hover path { stroke: red; }
.edge:hover polygon { stroke: red; fill: red; }
]]></style>
<script type="text/javascript"><![CDATA[
var edges = document.getElementsByTagName('g');
if (edges && edges.length) {
  for (var i=0;i<edges.length;i++) {
    if (edges[i].id.substr(0,4)=='edge') {
      edges[i].setAttribute('class','edge');
    }
  }
}
]]></script>
        <defs>
                <circle id="rim" cx="0" cy="0" r="7"/>
                <circle id="rim2" cx="0" cy="0" r="3.5"/>
                <g id="zoomPlus">
                        <use xlink:href="#rim" fill="#404040">
                                <set attributeName="fill" to="#808080" begin="zoomplus.mouseover" end="zoomplus.mouseout"/>
                        </use>
                        <path d="M-4,0h8M0,-4v8" fill="none" stroke="white" stroke-width="1.5" pointer-events="none"/>
                </g>
                <g id="zoomMin">
                        <use xlink:href="#rim" fill="#404040">
                                <set attributeName="fill" to="#808080" begin="zoomminus.mouseover" end="zoomminus.mouseout"/>
                        </use>
                        <path d="M-4,0h8" fill="none" stroke="white" stroke-width="1.5" pointer-events="none"/>
                </g>
                <g id="dirArrow">
                        <path fill="none" stroke="white" stroke-width="1.5" d="M0,-3.0v7 M-2.5,-0.5L0,-3.0L2.5,-0.5"/>
                </g>
               <g id="resetDef">
                       <use xlink:href="#rim2" fill="#404040">
                               <set attributeName="fill" to="#808080" begin="reset.mouseover" end="reset.mouseout"/>
                       </use>
               </g>
        </defs>

<script type="text/javascript">
var viewWidth = 753;
var viewHeight = 186;
var sectionId = 'dynsection-1';
</script>
<script xlink:href="svgpan.js"/>
<svg id="graph" class="graph">
<g id="viewport">
<title>c_epoch</title>
<polygon fill="white" stroke="transparent" points="-4,4 -4,-181.5 749,-181.5 749,4 -4,4"/>
<!-- Node1 -->
<g id="node1" class="node">
<title>Node1</title>
<g id="a_node1"><a xlink:title=" ">
<polygon fill="#bfbfbf" stroke="black" points="692,-82 692,-101 745,-101 745,-82 692,-82"/>
<text text-anchor="middle" x="718.5" y="-89" font-family="Helvetica,sans-Serif" font-size="10.00">c_epoch</text>
</a>
</g>
</g>
<!-- Node2 -->
<g id="node2" class="node">
<title>Node2</title>
<g id="a_node2"><a xlink:href="classDate.html#acedacbce6bf470a4bb5d1f7dd38e28b3" target="_top" xlink:title=" ">
<polygon fill="white" stroke="black" points="555,-120 555,-139 656,-139 656,-120 555,-120"/>
<text text-anchor="middle" x="605.5" y="-127" font-family="Helvetica,sans-Serif" font-size="10.00">Date::fromSeconds</text>
</a>
</g>
</g>
<!-- Node1&#45;&gt;Node2 -->
<g id="edge1" class="edge">
<title>Node1&#45;&gt;Node2</title>
<path fill="none" stroke="midnightblue" d="M682.04,-103.64C666.65,-108.91 648.87,-114.99 634.44,-119.94"/>
<polygon fill="midnightblue" stroke="midnightblue" points="683.43,-106.86 691.76,-100.31 681.16,-100.24 683.43,-106.86"/>
</g>
<!-- Node5 -->
<g id="node5" class="node">
<title>Node5</title>
<g id="a_node5"><a xlink:href="classDate.html#a1fa70aa48f749203df9a600eb190dd7b" target="_top" xlink:title=" ">
<polygon fill="white" stroke="black" points="560.5,-63 560.5,-82 650.5,-82 650.5,-63 560.5,-63"/>
<text text-anchor="middle" x="605.5" y="-70" font-family="Helvetica,sans-Serif" font-size="10.00">Date::toSeconds</text>
</a>
</g>
</g>
<!-- Node1&#45;&gt;Node5 -->
<g id="edge4" class="edge">
<title>Node1&#45;&gt;Node5</title>
<path fill="none" stroke="midnightblue" d="M681.87,-85.4C671.98,-83.71 661.13,-81.85 650.81,-80.08"/>
<polygon fill="midnightblue" stroke="midnightblue" points="681.31,-88.86 691.76,-87.09 682.49,-81.96 681.31,-88.86"/>
</g>
<!-- Node3 -->
<g id="node3" class="node">
<title>Node3</title>
<g id="a_node3"><a xlink:href="classDate.html#a9d7415c8d63d6a3a7853b31be42268f7" target="_top" xlink:title=" ">
<polygon fill="white" stroke="black" points="429.5,-158 429.5,-177 494.5,-177 494.5,-158 429.5,-158"/>
<text text-anchor="middle" x="462" y="-165" font-family="Helvetica,sans-Serif" font-size="10.00">Date::Date</text>
</a>
</g>
</g>
<!-- Node2&#45;&gt;Node3 -->
<g id="edge2" class="edge">
<title>Node2&#45;&gt;Node3</title>
<path fill="none" stroke="midnightblue" d="M559.13,-141.68C538.18,-147.31 513.8,-153.86 494.83,-158.95"/>
<polygon fill="midnightblue" stroke="midnightblue" points="560.04,-145.06 568.79,-139.09 558.23,-138.3 560.04,-145.06"/>
</g>
<!-- Node4 -->
<g id="node4" class="node">
<title>Node4</title>
<g id="a_node4"><a xlink:href="classDate.html#ab536fb81b2b7f8d60ac2e3d0745f9a41" target="_top" xlink:title=" ">
<polygon fill="white" stroke="black" points="407,-120 407,-139 517,-139 517,-120 407,-120"/>
<text text-anchor="middle" x="462" y="-127" font-family="Helvetica,sans-Serif" font-size="10.00">Date::fromMSeconds</text>
</a>
</g>
</g>
<!-- Node2&#45;&gt;Node4 -->
<g id="edge3" class="edge">
<title>Node2&#45;&gt;Node4</title>
<path fill="none" stroke="midnightblue" d="M544.52,-129.5C535.47,-129.5 526.17,-129.5 517.25,-129.5"/>
<polygon fill="midnightblue" stroke="midnightblue" points="544.61,-133 554.61,-129.5 544.61,-126 544.61,-133"/>
</g>
<!-- Node6 -->
<g id="node6" class="node">
<title>Node6</title>
<g id="a_node6"><a xlink:href="classAtcf.html#a288aec5ac021ac483da71812a26dc9c3" target="_top" xlink:title=" ">
<polygon fill="white" stroke="black" points="405,-82 405,-101 519,-101 519,-82 405,-82"/>
<text text-anchor="middle" x="462" y="-89" font-family="Helvetica,sans-Serif" font-size="10.00">Atcf::getCycleNumber</text>
</a>
</g>
</g>
<!-- Node5&#45;&gt;Node6 -->
<g id="edge5" class="edge">
<title>Node5&#45;&gt;Node6</title>
<path fill="none" stroke="midnightblue" d="M550.17,-79.8C540.02,-81.16 529.4,-82.58 519.2,-83.95"/>
<polygon fill="midnightblue" stroke="midnightblue" points="550.67,-83.26 560.12,-78.46 549.74,-76.32 550.67,-83.26"/>
</g>
<!-- Node9 -->
<g id="node9" class="node">
<title>Node9</title>
<g id="a_node9"><a xlink:href="classDate.html#a8bc73730c18471da988081ce2725dbab" target="_top" xlink:title=" ">
<polygon fill="white" stroke="black" points="413,-44 413,-63 511,-63 511,-44 413,-44"/>
<text text-anchor="middle" x="462" y="-51" font-family="Helvetica,sans-Serif" font-size="10.00">Date::toMSeconds</text>
</a>
</g>
</g>
<!-- Node5&#45;&gt;Node9 -->
<g id="edge8" class="edge">
<title>Node5&#45;&gt;Node9</title>
<path fill="none" stroke="midnightblue" d="M550.04,-65.19C537.23,-63.47 523.66,-61.65 511.15,-59.97"/>
<polygon fill="midnightblue" stroke="midnightblue" points="549.74,-68.68 560.12,-66.54 550.67,-61.74 549.74,-68.68"/>
</g>
<!-- Node10 -->
<g id="node10" class="node">
<title>Node10</title>
<g id="a_node10"><a xlink:href="classAtcf.html#a4fce87a97b674a5bbb54f01a8dd5c55e" target="_top" xlink:title=" ">
<polygon fill="white" stroke="black" points="424,-6 424,-25 500,-25 500,-6 424,-6"/>
<text text-anchor="middle" x="462" y="-13" font-family="Helvetica,sans-Serif" font-size="10.00">Atcf::uvTrans</text>
</a>
</g>
</g>
<!-- Node5&#45;&gt;Node10 -->
<g id="edge9" class="edge">
<title>Node5&#45;&gt;Node10</title>
<path fill="none" stroke="midnightblue" d="M575.26,-58.71C558.87,-51.18 537.97,-41.92 519,-34.5 510.59,-31.21 501.34,-27.94 492.83,-25.06"/>
<polygon fill="midnightblue" stroke="midnightblue" points="573.79,-61.89 584.34,-62.91 576.73,-55.54 573.79,-61.89"/>
</g>
<!-- Node7 -->
<g id="node7" class="node">
<title>Node7</title>
<g id="a_node7"><a xlink:href="classAtcf.html#af2619be19171e8e1e2f6b110d18c755a" target="_top" xlink:title=" ">
<polygon fill="white" stroke="black" points="220,-82 220,-101 351,-101 351,-82 220,-82"/>
<text text-anchor="middle" x="285.5" y="-89" font-family="Helvetica,sans-Serif" font-size="10.00">Atcf::getStormParameters</text>
</a>
</g>
</g>
<!-- Node6&#45;&gt;Node7 -->
<g id="edge6" class="edge">
<title>Node6&#45;&gt;Node7</title>
<path fill="none" stroke="midnightblue" d="M394.6,-91.5C380.33,-91.5 365.27,-91.5 351.07,-91.5"/>
<polygon fill="midnightblue" stroke="midnightblue" points="394.83,-95 404.83,-91.5 394.83,-88 394.83,-95"/>
</g>
<!-- Node8 -->
<g id="node8" class="node">
<title>Node8</title>
<g id="a_node8"><a xlink:href="classGahm.html#a6cacdf953e6387e58ca0dc1369e15c00" target="_top" xlink:title=" ">
<polygon fill="white" stroke="black" points="104,-82 104,-101 166,-101 166,-82 104,-82"/>
<text text-anchor="middle" x="135" y="-89" font-family="Helvetica,sans-Serif" font-size="10.00">Gahm::get</text>
</a>
</g>
</g>
<!-- Node7&#45;&gt;Node8 -->
<g id="edge7" class="edge">
<title>Node7&#45;&gt;Node8</title>
<path fill="none" stroke="midnightblue" d="M209.72,-91.5C194.35,-91.5 179,-91.5 166.33,-91.5"/>
<polygon fill="midnightblue" stroke="midnightblue" points="209.8,-95 219.8,-91.5 209.8,-88 209.8,-95"/>
</g>
<!-- Node11 -->
<g id="node11" class="node">
<title>Node11</title>
<g id="a_node11"><a xlink:href="classAtcf.html#a4bec7c75f41a2643be3bccf63921dfa1" target="_top" xlink:title=" ">
<polygon fill="white" stroke="black" points="202,-0.5 202,-30.5 369,-30.5 369,-0.5 202,-0.5"/>
<text text-anchor="start" x="210" y="-18.5" font-family="Helvetica,sans-Serif" font-size="10.00">Atcf::calculateOverlandTranslation</text>
<text text-anchor="middle" x="285.5" y="-7.5" font-family="Helvetica,sans-Serif" font-size="10.00">Velocity</text>
</a>
</g>
</g>
<!-- Node10&#45;&gt;Node11 -->
<g id="edge10" class="edge">
<title>Node10&#45;&gt;Node11</title>
<path fill="none" stroke="midnightblue" d="M413.78,-15.5C399.95,-15.5 384.4,-15.5 369.05,-15.5"/>
<polygon fill="midnightblue" stroke="midnightblue" points="413.99,-19 423.99,-15.5 413.99,-12 413.99,-19"/>
</g>
<!-- Node12 -->
<g id="node12" class="node">
<title>Node12</title>
<g id="a_node12"><a xlink:href="classAtcf.html#aaab5dab5b969a87f538242e524431637" target="_top" xlink:title=" ">
<polygon fill="white" stroke="black" points="105.5,-6 105.5,-25 164.5,-25 164.5,-6 105.5,-6"/>
<text text-anchor="middle" x="135" y="-13" font-family="Helvetica,sans-Serif" font-size="10.00">Atcf::read</text>
</a>
</g>
</g>
<!-- Node11&#45;&gt;Node12 -->
<g id="edge11" class="edge">
<title>Node11&#45;&gt;Node12</title>
<path fill="none" stroke="midnightblue" d="M191.77,-15.5C182.09,-15.5 172.85,-15.5 164.78,-15.5"/>
<polygon fill="midnightblue" stroke="midnightblue" points="192,-19 202,-15.5 192,-12 192,-19"/>
</g>
<!-- Node13 -->
<g id="node13" class="node">
<title>Node13</title>
<g id="a_node13"><a xlink:href="classGahm.html#aaab5dab5b969a87f538242e524431637" target="_top" xlink:title=" ">
<polygon fill="white" stroke="black" points="0,-6 0,-25 68,-25 68,-6 0,-6"/>
<text text-anchor="middle" x="34" y="-13" font-family="Helvetica,sans-Serif" font-size="10.00">Gahm::read</text>
</a>
</g>
</g>
<!-- Node12&#45;&gt;Node13 -->
<g id="edge12" class="edge">
<title>Node12&#45;&gt;Node13</title>
<path fill="none" stroke="midnightblue" d="M95.16,-15.5C86.22,-15.5 76.78,-15.5 68.11,-15.5"/>
<polygon fill="midnightblue" stroke="midnightblue" points="95.37,-19 105.37,-15.5 95.37,-12 95.37,-19"/>
</g>
</g>
</svg>
        <g id="navigator" transform="translate(0 0)" fill="#404254">
                <rect fill="#f2f5e9" fill-opacity="0.5" stroke="#606060" stroke-width=".5" x="0" y="0" width="60" height="60"/>
                <use id="zoomplus" xlink:href="#zoomPlus" x="17" y="9" onmousedown="handleZoom(evt,'in')"/>
                <use id="zoomminus" xlink:href="#zoomMin" x="42" y="9" onmousedown="handleZoom(evt,'out')"/>
                <use id="reset" xlink:href="#resetDef" x="30" y="36" onmousedown="handleReset()"/>
                <g id="arrowUp" xlink:href="#dirArrow" transform="translate(30 24)" onmousedown="handlePan(0,-1)">
                  <use xlink:href="#rim" fill="#404040">
                        <set attributeName="fill" to="#808080" begin="arrowUp.mouseover" end="arrowUp.mouseout"/>
                  </use>
                  <path fill="none" stroke="white" stroke-width="1.5" d="M0,-3.0v7 M-2.5,-0.5L0,-3.0L2.5,-0.5"/>
                </g>
                <g id="arrowRight" xlink:href="#dirArrow" transform="rotate(90) translate(36 -43)" onmousedown="handlePan(1,0)">
                  <use xlink:href="#rim" fill="#404040">
                        <set attributeName="fill" to="#808080" begin="arrowRight.mouseover" end="arrowRight.mouseout"/>
                  </use>
                  <path fill="none" stroke="white" stroke-width="1.5" d="M0,-3.0v7 M-2.5,-0.5L0,-3.0L2.5,-0.5"/>
                </g>
                <g id="arrowDown" xlink:href="#dirArrow" transform="rotate(180) translate(-30 -48)" onmousedown="handlePan(0,1)">
                  <use xlink:href="#rim" fill="#404040">
                        <set attributeName="fill" to="#808080" begin="arrowDown.mouseover" end="arrowDown.mouseout"/>
                  </use>
                  <path fill="none" stroke="white" stroke-width="1.5" d="M0,-3.0v7 M-2.5,-0.5L0,-3.0L2.5,-0.5"/>
                </g>
                <g id="arrowLeft" xlink:href="#dirArrow" transform="rotate(270) translate(-36 17)" onmousedown="handlePan(-1,0)">
                  <use xlink:href="#rim" fill="#404040">
                        <set attributeName="fill" to="#808080" begin="arrowLeft.mouseover" end="arrowLeft.mouseout"/>
                  </use>
                  <path fill="none" stroke="white" stroke-width="1.5" d="M0,-3.0v7 M-2.5,-0.5L0,-3.0L2.5,-0.5"/>
                </g>
        </g>
        <svg viewBox="0 0 15 15" width="100%" height="30px" preserveAspectRatio="xMaxYMin meet">
         <g id="arrow_out" transform="scale(0.3 0.3)">
          <a xlink:href="Date_8cpp_a45ca5db09a1ee8d14a196628d506d4bf_icgraph_org.svg" target="_base">
           <rect id="button" ry="5" rx="5" y="6" x="6" height="38" width="38"
                fill="#f2f5e9" fill-opacity="0.5" stroke="#606060" stroke-width="1.0"/>
           <path id="arrow"
             d="M 11.500037,31.436501 C 11.940474,20.09759 22.043105,11.32322 32.158766,21.979434 L 37.068811,17.246167 C 37.068811,17.246167 37.088388,32 37.088388,32 L 22.160133,31.978069 C 22.160133,31.978069 26.997745,27.140456 26.997745,27.140456 C 18.528582,18.264221 13.291696,25.230495 11.500037,31.436501 z"
             style="fill:#404040;"/>
          </a>
         </g>
        </svg>
</svg>
