<?xml version="1.0" encoding="UTF-8" standalone="no"?>
<!DOCTYPE svg PUBLIC "-//W3C//DTD SVG 1.1//EN"
 "http://www.w3.org/Graphics/SVG/1.1/DTD/svg11.dtd">
<!-- Generated by graphviz version 2.47.1 (20210417.1919)
 -->
<!-- Title: Gahm.cpp Pages: 1 -->
<svg width="1211pt" height="364pt"
 viewBox="0.00 0.00 1211.00 364.00" xmlns="http://www.w3.org/2000/svg" xmlns:xlink="http://www.w3.org/1999/xlink">
<g id="graph0" class="graph" transform="scale(1 1) rotate(0) translate(4 360)">
<title>Gahm.cpp</title>
<polygon fill="white" stroke="transparent" points="-4,4 -4,-360 1207,-360 1207,4 -4,4"/>
<!-- Node1 -->
<g id="node1" class="node">
<title>Node1</title>
<g id="a_node1"><a xlink:title=" ">
<polygon fill="#bfbfbf" stroke="black" points="693.5,-336.5 693.5,-355.5 755.5,-355.5 755.5,-336.5 693.5,-336.5"/>
<text text-anchor="middle" x="724.5" y="-343.5" font-family="Helvetica,sans-Serif" font-size="10.00">Gahm.cpp</text>
</a>
</g>
</g>
<!-- Node2 -->
<g id="node2" class="node">
<title>Node2</title>
<g id="a_node2"><a xlink:href="Gahm_8h.html" target="_top" xlink:title=" ">
<polygon fill="white" stroke="black" points="431,-280.5 431,-299.5 482,-299.5 482,-280.5 431,-280.5"/>
<text text-anchor="middle" x="456.5" y="-287.5" font-family="Helvetica,sans-Serif" font-size="10.00">Gahm.h</text>
</a>
</g>
</g>
<!-- Node1&#45;&gt;Node2 -->
<g id="edge1" class="edge">
<title>Node1&#45;&gt;Node2</title>
<path fill="none" stroke="midnightblue" d="M693.5,-338.75C643.38,-328.65 544.85,-308.8 492,-298.15"/>
<polygon fill="midnightblue" stroke="midnightblue" points="492.56,-294.69 482.06,-296.15 491.17,-301.56 492.56,-294.69"/>
</g>
<!-- Node11 -->
<g id="node11" class="node">
<title>Node11</title>
<g id="a_node11"><a xlink:title=" ">
<polygon fill="white" stroke="#bfbfbf" points="211.5,-56.5 211.5,-75.5 265.5,-75.5 265.5,-56.5 211.5,-56.5"/>
<text text-anchor="middle" x="238.5" y="-63.5" font-family="Helvetica,sans-Serif" font-size="10.00">iostream</text>
</a>
</g>
</g>
<!-- Node1&#45;&gt;Node11 -->
<g id="edge40" class="edge">
<title>Node1&#45;&gt;Node11</title>
<path fill="none" stroke="midnightblue" d="M693.14,-342.6C569.89,-332.77 125.5,-293.28 125.5,-235 125.5,-235 125.5,-235 125.5,-177 125.5,-145.89 130.59,-135.04 151.5,-112 164.97,-97.16 184.48,-86.44 201.61,-79.2"/>
<polygon fill="midnightblue" stroke="midnightblue" points="203.35,-82.28 211.36,-75.34 200.77,-75.77 203.35,-82.28"/>
</g>
<!-- Node21 -->
<g id="node21" class="node">
<title>Node21</title>
<g id="a_node21"><a xlink:href="Physical_8h.html" target="_top" xlink:title=" ">
<polygon fill="white" stroke="black" points="991.5,-112.5 991.5,-131.5 1053.5,-131.5 1053.5,-112.5 991.5,-112.5"/>
<text text-anchor="middle" x="1022.5" y="-119.5" font-family="Helvetica,sans-Serif" font-size="10.00">Physical.h</text>
</a>
</g>
</g>
<!-- Node1&#45;&gt;Node21 -->
<g id="edge45" class="edge">
<title>Node1&#45;&gt;Node21</title>
<path fill="none" stroke="midnightblue" d="M755.57,-344.55C835.06,-341.47 1044.61,-320.6 1116.5,-188 1130.94,-161.36 1094.71,-143.38 1063.12,-133.2"/>
<polygon fill="midnightblue" stroke="midnightblue" points="1064.11,-129.84 1053.52,-130.29 1062.08,-136.54 1064.11,-129.84"/>
</g>
<!-- Node25 -->
<g id="node25" class="node">
<title>Node25</title>
<g id="a_node25"><a xlink:title=" ">
<polygon fill="white" stroke="#bfbfbf" points="1067.5,-168.5 1067.5,-187.5 1107.5,-187.5 1107.5,-168.5 1067.5,-168.5"/>
<text text-anchor="middle" x="1087.5" y="-175.5" font-family="Helvetica,sans-Serif" font-size="10.00">utility</text>
</a>
</g>
</g>
<!-- Node1&#45;&gt;Node25 -->
<g id="edge41" class="edge">
<title>Node1&#45;&gt;Node25</title>
<path fill="none" stroke="midnightblue" d="M755.54,-337.33C808.48,-323.47 918.61,-291.26 1002.5,-244 1027.86,-229.71 1054.02,-208.56 1070.5,-194.31"/>
<polygon fill="midnightblue" stroke="midnightblue" points="1072.98,-196.78 1078.18,-187.55 1068.36,-191.53 1072.98,-196.78"/>
</g>
<!-- Node26 -->
<g id="node26" class="node">
<title>Node26</title>
<g id="a_node26"><a xlink:href="Logging_8h.html" target="_top" xlink:title=" ">
<polygon fill="white" stroke="black" points="0,-112.5 0,-131.5 59,-131.5 59,-112.5 0,-112.5"/>
<text text-anchor="middle" x="29.5" y="-119.5" font-family="Helvetica,sans-Serif" font-size="10.00">Logging.h</text>
</a>
</g>
</g>
<!-- Node1&#45;&gt;Node26 -->
<g id="edge42" class="edge">
<title>Node1&#45;&gt;Node26</title>
<path fill="none" stroke="midnightblue" d="M693.2,-344.54C574.95,-342.56 159.6,-333.27 111.5,-300 56.98,-262.29 37.89,-178.76 31.93,-141.53"/>
<polygon fill="midnightblue" stroke="midnightblue" points="35.38,-140.96 30.47,-131.57 28.45,-141.97 35.38,-140.96"/>
</g>
<!-- Node27 -->
<g id="node27" class="node">
<title>Node27</title>
<g id="a_node27"><a xlink:href="Vortex_8h.html" target="_top" xlink:title=" ">
<polygon fill="white" stroke="black" points="940,-224.5 940,-243.5 993,-243.5 993,-224.5 940,-224.5"/>
<text text-anchor="middle" x="966.5" y="-231.5" font-family="Helvetica,sans-Serif" font-size="10.00">Vortex.h</text>
</a>
</g>
</g>
<!-- Node1&#45;&gt;Node27 -->
<g id="edge46" class="edge">
<title>Node1&#45;&gt;Node27</title>
<path fill="none" stroke="midnightblue" d="M743.49,-336.37C785.9,-317.09 888.5,-270.45 938.36,-247.79"/>
<polygon fill="midnightblue" stroke="midnightblue" points="939.94,-250.92 947.6,-243.59 937.05,-244.54 939.94,-250.92"/>
</g>
<!-- Node3 -->
<g id="node3" class="node">
<title>Node3</title>
<g id="a_node3"><a xlink:title=" ">
<polygon fill="white" stroke="#bfbfbf" points="656.5,-0.5 656.5,-19.5 694.5,-19.5 694.5,-0.5 656.5,-0.5"/>
<text text-anchor="middle" x="675.5" y="-7.5" font-family="Helvetica,sans-Serif" font-size="10.00">array</text>
</a>
</g>
</g>
<!-- Node2&#45;&gt;Node3 -->
<g id="edge2" class="edge">
<title>Node2&#45;&gt;Node3</title>
<path fill="none" stroke="midnightblue" d="M482.27,-288.35C578.52,-285.22 911.5,-267.99 911.5,-179 911.5,-179 911.5,-179 911.5,-121 911.5,-90.9 914.62,-76.42 892.5,-56 865.46,-31.04 757.64,-18.25 704.88,-13.39"/>
<polygon fill="midnightblue" stroke="midnightblue" points="705.07,-9.89 694.8,-12.49 704.45,-16.86 705.07,-9.89"/>
</g>
<!-- Node4 -->
<g id="node4" class="node">
<title>Node4</title>
<g id="a_node4"><a xlink:title=" ">
<polygon fill="white" stroke="#bfbfbf" points="430.5,-224.5 430.5,-243.5 482.5,-243.5 482.5,-224.5 430.5,-224.5"/>
<text text-anchor="middle" x="456.5" y="-231.5" font-family="Helvetica,sans-Serif" font-size="10.00">memory</text>
</a>
</g>
</g>
<!-- Node2&#45;&gt;Node4 -->
<g id="edge3" class="edge">
<title>Node2&#45;&gt;Node4</title>
<path fill="none" stroke="midnightblue" d="M456.5,-280.08C456.5,-273.01 456.5,-262.86 456.5,-253.99"/>
<polygon fill="midnightblue" stroke="midnightblue" points="460,-253.75 456.5,-243.75 453,-253.75 460,-253.75"/>
</g>
<!-- Node5 -->
<g id="node5" class="node">
<title>Node5</title>
<g id="a_node5"><a xlink:href="Assumptions_8h.html" target="_top" xlink:title=" ">
<polygon fill="white" stroke="black" points="160.5,-112.5 160.5,-131.5 242.5,-131.5 242.5,-112.5 160.5,-112.5"/>
<text text-anchor="middle" x="201.5" y="-119.5" font-family="Helvetica,sans-Serif" font-size="10.00">Assumptions.h</text>
</a>
</g>
</g>
<!-- Node2&#45;&gt;Node5 -->
<g id="edge4" class="edge">
<title>Node2&#45;&gt;Node5</title>
<path fill="none" stroke="midnightblue" d="M430.79,-288.21C376.54,-284.95 251.49,-268.63 204.5,-188 196.41,-174.12 196.38,-155.61 197.96,-141.89"/>
<polygon fill="midnightblue" stroke="midnightblue" points="201.46,-142.11 199.51,-131.7 194.54,-141.06 201.46,-142.11"/>
</g>
<!-- Node9 -->
<g id="node9" class="node">
<title>Node9</title>
<g id="a_node9"><a xlink:href="Atcf_8h.html" target="_top" xlink:title=" ">
<polygon fill="white" stroke="black" points="302,-224.5 302,-243.5 345,-243.5 345,-224.5 302,-224.5"/>
<text text-anchor="middle" x="323.5" y="-231.5" font-family="Helvetica,sans-Serif" font-size="10.00">Atcf.h</text>
</a>
</g>
</g>
<!-- Node2&#45;&gt;Node9 -->
<g id="edge8" class="edge">
<title>Node2&#45;&gt;Node9</title>
<path fill="none" stroke="midnightblue" d="M435.43,-280.44C413.44,-271.52 378.77,-257.44 353.84,-247.32"/>
<polygon fill="midnightblue" stroke="midnightblue" points="355.06,-244.04 344.48,-243.52 352.42,-250.52 355.06,-244.04"/>
</g>
<!-- Node6 -->
<g id="node6" class="node">
<title>Node6</title>
<g id="a_node6"><a xlink:title=" ">
<polygon fill="white" stroke="#bfbfbf" points="283.5,-56.5 283.5,-75.5 327.5,-75.5 327.5,-56.5 283.5,-56.5"/>
<text text-anchor="middle" x="305.5" y="-63.5" font-family="Helvetica,sans-Serif" font-size="10.00">vector</text>
</a>
</g>
</g>
<!-- Node5&#45;&gt;Node6 -->
<g id="edge5" class="edge">
<title>Node5&#45;&gt;Node6</title>
<path fill="none" stroke="midnightblue" d="M218.21,-112.32C234.81,-103.7 260.5,-90.36 279.72,-80.39"/>
<polygon fill="midnightblue" stroke="midnightblue" points="281.57,-83.37 288.83,-75.65 278.34,-77.16 281.57,-83.37"/>
</g>
<!-- Node7 -->
<g id="node7" class="node">
<title>Node7</title>
<g id="a_node7"><a xlink:href="Assumption_8h.html" target="_top" xlink:title=" ">
<polygon fill="white" stroke="black" points="116,-56.5 116,-75.5 193,-75.5 193,-56.5 116,-56.5"/>
<text text-anchor="middle" x="154.5" y="-63.5" font-family="Helvetica,sans-Serif" font-size="10.00">Assumption.h</text>
</a>
</g>
</g>
<!-- Node5&#45;&gt;Node7 -->
<g id="edge6" class="edge">
<title>Node5&#45;&gt;Node7</title>
<path fill="none" stroke="midnightblue" d="M193.74,-112.08C186.96,-104.3 176.96,-92.8 168.74,-83.37"/>
<polygon fill="midnightblue" stroke="midnightblue" points="171.32,-81 162.12,-75.75 166.04,-85.59 171.32,-81"/>
</g>
<!-- Node8 -->
<g id="node8" class="node">
<title>Node8</title>
<g id="a_node8"><a xlink:title=" ">
<polygon fill="white" stroke="#bfbfbf" points="235,-0.5 235,-19.5 276,-19.5 276,-0.5 235,-0.5"/>
<text text-anchor="middle" x="255.5" y="-7.5" font-family="Helvetica,sans-Serif" font-size="10.00">string</text>
</a>
</g>
</g>
<!-- Node7&#45;&gt;Node8 -->
<g id="edge7" class="edge">
<title>Node7&#45;&gt;Node8</title>
<path fill="none" stroke="midnightblue" d="M170.73,-56.32C186.85,-47.7 211.8,-34.36 230.46,-24.39"/>
<polygon fill="midnightblue" stroke="midnightblue" points="232.14,-27.46 239.31,-19.65 228.84,-21.28 232.14,-27.46"/>
</g>
<!-- Node9&#45;&gt;Node5 -->
<g id="edge11" class="edge">
<title>Node9&#45;&gt;Node5</title>
<path fill="none" stroke="midnightblue" d="M301.77,-229.15C278.41,-223.88 241.77,-212.17 220.5,-188 209.22,-175.19 204.63,-156 202.76,-141.79"/>
<polygon fill="midnightblue" stroke="midnightblue" points="206.23,-141.29 201.77,-131.68 199.26,-141.97 206.23,-141.29"/>
</g>
<!-- Node9&#45;&gt;Node6 -->
<g id="edge10" class="edge">
<title>Node9&#45;&gt;Node6</title>
<path fill="none" stroke="midnightblue" d="M328.88,-224.44C334.06,-215.68 341.51,-201.47 344.5,-188 346.43,-179.32 346.13,-176.74 344.5,-168 338.81,-137.47 324.22,-104.28 314.59,-84.58"/>
<polygon fill="midnightblue" stroke="midnightblue" points="317.69,-82.96 310.08,-75.59 311.44,-86.1 317.69,-82.96"/>
</g>
<!-- Node9&#45;&gt;Node8 -->
<g id="edge9" class="edge">
<title>Node9&#45;&gt;Node8</title>
<path fill="none" stroke="midnightblue" d="M301.93,-227.99C276.99,-221.51 235.39,-208.56 204.5,-188 149.44,-151.35 128.46,-138.39 106.5,-76 89,-26.27 176.37,-14.51 224.88,-11.78"/>
<polygon fill="midnightblue" stroke="midnightblue" points="225.05,-15.28 234.88,-11.31 224.73,-8.28 225.05,-15.28"/>
</g>
<!-- Node10 -->
<g id="node10" class="node">
<title>Node10</title>
<g id="a_node10"><a xlink:href="AtcfLine_8h.html" target="_top" xlink:title=" ">
<polygon fill="white" stroke="black" points="477,-168.5 477,-187.5 538,-187.5 538,-168.5 477,-168.5"/>
<text text-anchor="middle" x="507.5" y="-175.5" font-family="Helvetica,sans-Serif" font-size="10.00">AtcfLine.h</text>
</a>
</g>
</g>
<!-- Node9&#45;&gt;Node10 -->
<g id="edge12" class="edge">
<title>Node9&#45;&gt;Node10</title>
<path fill="none" stroke="midnightblue" d="M345.33,-226.59C375.61,-217.71 430.86,-201.49 468.37,-190.48"/>
<polygon fill="midnightblue" stroke="midnightblue" points="469.83,-193.7 478.44,-187.53 467.86,-186.99 469.83,-193.7"/>
</g>
<!-- Node24 -->
<g id="node24" class="node">
<title>Node24</title>
<g id="a_node24"><a xlink:href="HurricanePressure_8h.html" target="_top" xlink:title=" ">
<polygon fill="white" stroke="black" points="229.5,-168.5 229.5,-187.5 335.5,-187.5 335.5,-168.5 229.5,-168.5"/>
<text text-anchor="middle" x="282.5" y="-175.5" font-family="Helvetica,sans-Serif" font-size="10.00">HurricanePressure.h</text>
</a>
</g>
</g>
<!-- Node9&#45;&gt;Node24 -->
<g id="edge38" class="edge">
<title>Node9&#45;&gt;Node24</title>
<path fill="none" stroke="midnightblue" d="M316.73,-224.08C310.94,-216.46 302.44,-205.26 295.36,-195.94"/>
<polygon fill="midnightblue" stroke="midnightblue" points="297.98,-193.6 289.14,-187.75 292.4,-197.83 297.98,-193.6"/>
</g>
<!-- Node10&#45;&gt;Node3 -->
<g id="edge13" class="edge">
<title>Node10&#45;&gt;Node3</title>
<path fill="none" stroke="midnightblue" d="M500.89,-168.16C482.84,-143.54 435.12,-74.77 450.5,-56 474.95,-26.18 591.09,-15.73 646.26,-12.4"/>
<polygon fill="midnightblue" stroke="midnightblue" points="646.65,-15.89 656.44,-11.83 646.26,-8.9 646.65,-15.89"/>
</g>
<!-- Node10&#45;&gt;Node6 -->
<g id="edge17" class="edge">
<title>Node10&#45;&gt;Node6</title>
<path fill="none" stroke="midnightblue" d="M491.65,-168.37C456.62,-149.29 372.38,-103.42 330.3,-80.51"/>
<polygon fill="midnightblue" stroke="midnightblue" points="331.73,-77.3 321.28,-75.59 328.39,-83.45 331.73,-77.3"/>
</g>
<!-- Node10&#45;&gt;Node8 -->
<g id="edge15" class="edge">
<title>Node10&#45;&gt;Node8</title>
<path fill="none" stroke="midnightblue" d="M496.26,-168.22C469.43,-147.47 399.22,-94.24 336.5,-56 318.13,-44.8 296.84,-33.02 280.7,-24.32"/>
<polygon fill="midnightblue" stroke="midnightblue" points="282.33,-21.22 271.86,-19.59 279.02,-27.39 282.33,-21.22"/>
</g>
<!-- Node10&#45;&gt;Node11 -->
<g id="edge14" class="edge">
<title>Node10&#45;&gt;Node11</title>
<path fill="none" stroke="midnightblue" d="M482.12,-168.4C456.91,-159.72 417.25,-145.67 383.5,-132 341.92,-115.16 294.66,-93.49 265.71,-79.92"/>
<polygon fill="midnightblue" stroke="midnightblue" points="267.17,-76.73 256.63,-75.64 264.18,-83.07 267.17,-76.73"/>
</g>
<!-- Node12 -->
<g id="node12" class="node">
<title>Node12</title>
<g id="a_node12"><a xlink:title=" ">
<polygon fill="white" stroke="#bfbfbf" points="1001.5,-56.5 1001.5,-75.5 1039.5,-75.5 1039.5,-56.5 1001.5,-56.5"/>
<text text-anchor="middle" x="1020.5" y="-63.5" font-family="Helvetica,sans-Serif" font-size="10.00">tuple</text>
</a>
</g>
</g>
<!-- Node10&#45;&gt;Node12 -->
<g id="edge16" class="edge">
<title>Node10&#45;&gt;Node12</title>
<path fill="none" stroke="midnightblue" d="M538.12,-171.78C613.7,-158.67 815.19,-122.2 991.59,-76.02"/>
<polygon fill="midnightblue" stroke="midnightblue" points="992.52,-79.4 1001.3,-73.47 990.74,-72.63 992.52,-79.4"/>
</g>
<!-- Node13 -->
<g id="node13" class="node">
<title>Node13</title>
<g id="a_node13"><a xlink:href="Date_8h.html" target="_top" xlink:title=" ">
<polygon fill="white" stroke="black" points="660.5,-112.5 660.5,-131.5 706.5,-131.5 706.5,-112.5 660.5,-112.5"/>
<text text-anchor="middle" x="683.5" y="-119.5" font-family="Helvetica,sans-Serif" font-size="10.00">Date.h</text>
</a>
</g>
</g>
<!-- Node10&#45;&gt;Node13 -->
<g id="edge18" class="edge">
<title>Node10&#45;&gt;Node13</title>
<path fill="none" stroke="midnightblue" d="M535.39,-168.44C566.66,-158.85 617.33,-143.3 650.54,-133.11"/>
<polygon fill="midnightblue" stroke="midnightblue" points="651.71,-136.42 660.24,-130.14 649.65,-129.72 651.71,-136.42"/>
</g>
<!-- Node18 -->
<g id="node18" class="node">
<title>Node18</title>
<g id="a_node18"><a xlink:href="Isotach_8h.html" target="_top" xlink:title=" ">
<polygon fill="white" stroke="black" points="507,-112.5 507,-131.5 564,-131.5 564,-112.5 507,-112.5"/>
<text text-anchor="middle" x="535.5" y="-119.5" font-family="Helvetica,sans-Serif" font-size="10.00">Isotach.h</text>
</a>
</g>
</g>
<!-- Node10&#45;&gt;Node18 -->
<g id="edge26" class="edge">
<title>Node10&#45;&gt;Node18</title>
<path fill="none" stroke="midnightblue" d="M512.12,-168.08C515.96,-160.69 521.52,-149.95 526.26,-140.81"/>
<polygon fill="midnightblue" stroke="midnightblue" points="529.47,-142.24 530.96,-131.75 523.25,-139.02 529.47,-142.24"/>
</g>
<!-- Node10&#45;&gt;Node21 -->
<g id="edge33" class="edge">
<title>Node10&#45;&gt;Node21</title>
<path fill="none" stroke="midnightblue" d="M538.17,-173.78C626.43,-164.53 881.09,-137.83 981.29,-127.32"/>
<polygon fill="midnightblue" stroke="midnightblue" points="981.76,-130.79 991.34,-126.27 981.03,-123.83 981.76,-130.79"/>
</g>
<!-- Node13&#45;&gt;Node6 -->
<g id="edge25" class="edge">
<title>Node13&#45;&gt;Node6</title>
<path fill="none" stroke="midnightblue" d="M660.42,-117.7C595.8,-108.47 412.87,-82.34 338.03,-71.65"/>
<polygon fill="midnightblue" stroke="midnightblue" points="338.19,-68.13 327.8,-70.19 337.2,-75.06 338.19,-68.13"/>
</g>
<!-- Node13&#45;&gt;Node8 -->
<g id="edge23" class="edge">
<title>Node13&#45;&gt;Node8</title>
<path fill="none" stroke="midnightblue" d="M677.88,-112.47C667.88,-98.05 645.46,-69.17 618.5,-56 560.17,-27.51 363.49,-15.82 286.64,-12.27"/>
<polygon fill="midnightblue" stroke="midnightblue" points="286.35,-8.76 276.2,-11.81 286.03,-15.75 286.35,-8.76"/>
</g>
<!-- Node13&#45;&gt;Node11 -->
<g id="edge21" class="edge">
<title>Node13&#45;&gt;Node11</title>
<path fill="none" stroke="midnightblue" d="M660.42,-118.88C588.32,-112.18 367.1,-91.14 275.53,-75.91"/>
<polygon fill="midnightblue" stroke="midnightblue" points="275.99,-72.44 265.54,-74.18 274.8,-79.34 275.99,-72.44"/>
</g>
<!-- Node14 -->
<g id="node14" class="node">
<title>Node14</title>
<g id="a_node14"><a xlink:title=" ">
<polygon fill="white" stroke="#bfbfbf" points="783.5,-56.5 783.5,-75.5 829.5,-75.5 829.5,-56.5 783.5,-56.5"/>
<text text-anchor="middle" x="806.5" y="-63.5" font-family="Helvetica,sans-Serif" font-size="10.00">chrono</text>
</a>
</g>
</g>
<!-- Node13&#45;&gt;Node14 -->
<g id="edge19" class="edge">
<title>Node13&#45;&gt;Node14</title>
<path fill="none" stroke="midnightblue" d="M702.99,-112.44C723.14,-103.6 754.82,-89.69 777.83,-79.59"/>
<polygon fill="midnightblue" stroke="midnightblue" points="779.35,-82.74 787.1,-75.52 776.54,-76.33 779.35,-82.74"/>
</g>
<!-- Node15 -->
<g id="node15" class="node">
<title>Node15</title>
<g id="a_node15"><a xlink:title=" ">
<polygon fill="white" stroke="#bfbfbf" points="939.5,-56.5 939.5,-75.5 983.5,-75.5 983.5,-56.5 939.5,-56.5"/>
<text text-anchor="middle" x="961.5" y="-63.5" font-family="Helvetica,sans-Serif" font-size="10.00">cmath</text>
</a>
</g>
</g>
<!-- Node13&#45;&gt;Node15 -->
<g id="edge20" class="edge">
<title>Node13&#45;&gt;Node15</title>
<path fill="none" stroke="midnightblue" d="M706.72,-116.49C756.36,-106.85 872.84,-84.22 929.46,-73.22"/>
<polygon fill="midnightblue" stroke="midnightblue" points="930.16,-76.65 939.31,-71.31 928.83,-69.78 930.16,-76.65"/>
</g>
<!-- Node16 -->
<g id="node16" class="node">
<title>Node16</title>
<g id="a_node16"><a xlink:title=" ">
<polygon fill="white" stroke="#bfbfbf" points="848,-56.5 848,-75.5 883,-75.5 883,-56.5 848,-56.5"/>
<text text-anchor="middle" x="865.5" y="-63.5" font-family="Helvetica,sans-Serif" font-size="10.00">ratio</text>
</a>
</g>
</g>
<!-- Node13&#45;&gt;Node16 -->
<g id="edge22" class="edge">
<title>Node13&#45;&gt;Node16</title>
<path fill="none" stroke="midnightblue" d="M706.69,-114.57C735.29,-106.58 785.61,-92.31 838.01,-76.06"/>
<polygon fill="midnightblue" stroke="midnightblue" points="839.31,-79.32 847.81,-73.01 837.22,-72.64 839.31,-79.32"/>
</g>
<!-- Node17 -->
<g id="node17" class="node">
<title>Node17</title>
<g id="a_node17"><a xlink:title=" ">
<polygon fill="white" stroke="#bfbfbf" points="703.5,-56.5 703.5,-75.5 765.5,-75.5 765.5,-56.5 703.5,-56.5"/>
<text text-anchor="middle" x="734.5" y="-63.5" font-family="Helvetica,sans-Serif" font-size="10.00">type_traits</text>
</a>
</g>
</g>
<!-- Node13&#45;&gt;Node17 -->
<g id="edge24" class="edge">
<title>Node13&#45;&gt;Node17</title>
<path fill="none" stroke="midnightblue" d="M691.92,-112.08C699.35,-104.22 710.35,-92.57 719.31,-83.08"/>
<polygon fill="midnightblue" stroke="midnightblue" points="721.91,-85.42 726.24,-75.75 716.82,-80.62 721.91,-85.42"/>
</g>
<!-- Node18&#45;&gt;Node3 -->
<g id="edge27" class="edge">
<title>Node18&#45;&gt;Node3</title>
<path fill="none" stroke="midnightblue" d="M555.83,-112.45C573.42,-104.5 599.03,-91.55 618.5,-76 636.01,-62.02 652.48,-42.24 663.17,-28.18"/>
<polygon fill="midnightblue" stroke="midnightblue" points="666.18,-30 669.32,-19.88 660.55,-25.83 666.18,-30"/>
</g>
<!-- Node18&#45;&gt;Node6 -->
<g id="edge30" class="edge">
<title>Node18&#45;&gt;Node6</title>
<path fill="none" stroke="midnightblue" d="M506.84,-114.27C463.71,-104.15 382.42,-85.06 337.45,-74.5"/>
<polygon fill="midnightblue" stroke="midnightblue" points="338.17,-71.07 327.63,-72.2 336.57,-77.89 338.17,-71.07"/>
</g>
<!-- Node18&#45;&gt;Node8 -->
<g id="edge29" class="edge">
<title>Node18&#45;&gt;Node8</title>
<path fill="none" stroke="midnightblue" d="M513.53,-112.37C463.79,-92.83 342.48,-45.17 285.72,-22.87"/>
<polygon fill="midnightblue" stroke="midnightblue" points="286.81,-19.54 276.22,-19.14 284.25,-26.06 286.81,-19.54"/>
</g>
<!-- Node19 -->
<g id="node19" class="node">
<title>Node19</title>
<g id="a_node19"><a xlink:title=" ">
<polygon fill="white" stroke="#bfbfbf" points="459.5,-56.5 459.5,-75.5 511.5,-75.5 511.5,-56.5 459.5,-56.5"/>
<text text-anchor="middle" x="485.5" y="-63.5" font-family="Helvetica,sans-Serif" font-size="10.00">ostream</text>
</a>
</g>
</g>
<!-- Node18&#45;&gt;Node19 -->
<g id="edge28" class="edge">
<title>Node18&#45;&gt;Node19</title>
<path fill="none" stroke="midnightblue" d="M527.24,-112.08C520.04,-104.3 509.39,-92.8 500.65,-83.37"/>
<polygon fill="midnightblue" stroke="midnightblue" points="502.97,-80.71 493.6,-75.75 497.83,-85.47 502.97,-80.71"/>
</g>
<!-- Node20 -->
<g id="node20" class="node">
<title>Node20</title>
<g id="a_node20"><a xlink:href="CircularArray_8h.html" target="_top" xlink:title=" ">
<polygon fill="white" stroke="black" points="529.5,-56.5 529.5,-75.5 609.5,-75.5 609.5,-56.5 529.5,-56.5"/>
<text text-anchor="middle" x="569.5" y="-63.5" font-family="Helvetica,sans-Serif" font-size="10.00">CircularArray.h</text>
</a>
</g>
</g>
<!-- Node18&#45;&gt;Node20 -->
<g id="edge31" class="edge">
<title>Node18&#45;&gt;Node20</title>
<path fill="none" stroke="midnightblue" d="M541.11,-112.08C545.87,-104.53 552.82,-93.49 558.65,-84.23"/>
<polygon fill="midnightblue" stroke="midnightblue" points="561.62,-86.08 563.99,-75.75 555.7,-82.35 561.62,-86.08"/>
</g>
<!-- Node20&#45;&gt;Node3 -->
<g id="edge32" class="edge">
<title>Node20&#45;&gt;Node3</title>
<path fill="none" stroke="midnightblue" d="M586.53,-56.32C603.53,-47.66 629.88,-34.24 649.49,-24.25"/>
<polygon fill="midnightblue" stroke="midnightblue" points="651.19,-27.31 658.51,-19.65 648.01,-21.08 651.19,-27.31"/>
</g>
<!-- Node21&#45;&gt;Node12 -->
<g id="edge37" class="edge">
<title>Node21&#45;&gt;Node12</title>
<path fill="none" stroke="midnightblue" d="M1022.17,-112.08C1021.91,-105.01 1021.53,-94.86 1021.2,-85.99"/>
<polygon fill="midnightblue" stroke="midnightblue" points="1024.69,-85.61 1020.82,-75.75 1017.7,-85.87 1024.69,-85.61"/>
</g>
<!-- Node21&#45;&gt;Node15 -->
<g id="edge35" class="edge">
<title>Node21&#45;&gt;Node15</title>
<path fill="none" stroke="midnightblue" d="M1012.7,-112.32C1003.68,-104.34 990.09,-92.31 979.18,-82.65"/>
<polygon fill="midnightblue" stroke="midnightblue" points="981.29,-79.84 971.48,-75.83 976.65,-85.08 981.29,-79.84"/>
</g>
<!-- Node22 -->
<g id="node22" class="node">
<title>Node22</title>
<g id="a_node22"><a xlink:title=" ">
<polygon fill="white" stroke="#bfbfbf" points="1154,-56.5 1154,-75.5 1203,-75.5 1203,-56.5 1154,-56.5"/>
<text text-anchor="middle" x="1178.5" y="-63.5" font-family="Helvetica,sans-Serif" font-size="10.00">cassert</text>
</a>
</g>
</g>
<!-- Node21&#45;&gt;Node22 -->
<g id="edge34" class="edge">
<title>Node21&#45;&gt;Node22</title>
<path fill="none" stroke="midnightblue" d="M1047.22,-112.44C1073.35,-103.4 1114.76,-89.06 1144.08,-78.92"/>
<polygon fill="midnightblue" stroke="midnightblue" points="1145.59,-82.1 1153.9,-75.52 1143.3,-75.48 1145.59,-82.1"/>
</g>
<!-- Node23 -->
<g id="node23" class="node">
<title>Node23</title>
<g id="a_node23"><a xlink:title=" ">
<polygon fill="white" stroke="#bfbfbf" points="1095.5,-56.5 1095.5,-75.5 1135.5,-75.5 1135.5,-56.5 1095.5,-56.5"/>
<text text-anchor="middle" x="1115.5" y="-63.5" font-family="Helvetica,sans-Serif" font-size="10.00">limits</text>
</a>
</g>
</g>
<!-- Node21&#45;&gt;Node23 -->
<g id="edge36" class="edge">
<title>Node21&#45;&gt;Node23</title>
<path fill="none" stroke="midnightblue" d="M1037.44,-112.32C1052.09,-103.82 1074.63,-90.73 1091.74,-80.8"/>
<polygon fill="midnightblue" stroke="midnightblue" points="1093.7,-83.7 1100.6,-75.65 1090.19,-77.65 1093.7,-83.7"/>
</g>
<!-- Node24&#45;&gt;Node5 -->
<g id="edge39" class="edge">
<title>Node24&#45;&gt;Node5</title>
<path fill="none" stroke="midnightblue" d="M269.49,-168.32C256.97,-159.98 237.82,-147.21 223.03,-137.35"/>
<polygon fill="midnightblue" stroke="midnightblue" points="224.74,-134.29 214.48,-131.65 220.86,-140.11 224.74,-134.29"/>
</g>
<!-- Node26&#45;&gt;Node8 -->
<g id="edge44" class="edge">
<title>Node26&#45;&gt;Node8</title>
<path fill="none" stroke="midnightblue" d="M32.91,-112.33C38.9,-98.24 52.71,-70.5 73.5,-56 119.62,-23.83 186.38,-14.59 224.91,-11.98"/>
<polygon fill="midnightblue" stroke="midnightblue" points="225.21,-15.46 234.99,-11.4 224.81,-8.48 225.21,-15.46"/>
</g>
<!-- Node26&#45;&gt;Node11 -->
<g id="edge43" class="edge">
<title>Node26&#45;&gt;Node11</title>
<path fill="none" stroke="midnightblue" d="M59,-113.38C96.45,-103.7 161.05,-87.01 201.69,-76.51"/>
<polygon fill="midnightblue" stroke="midnightblue" points="202.66,-79.87 211.47,-73.98 200.91,-73.1 202.66,-79.87"/>
</g>
<!-- Node27&#45;&gt;Node3 -->
<g id="edge47" class="edge">
<title>Node27&#45;&gt;Node3</title>
<path fill="none" stroke="midnightblue" d="M965.18,-224.46C962.4,-203.32 958.04,-147.64 982.5,-112 1001.41,-84.45 1031.44,-104.73 1048.5,-76 1053.04,-68.36 1054.4,-62.65 1048.5,-56 1025.75,-30.34 788.7,-16.47 704.76,-12.34"/>
<polygon fill="midnightblue" stroke="midnightblue" points="704.79,-8.84 694.64,-11.85 704.46,-15.83 704.79,-8.84"/>
</g>
<!-- Node27&#45;&gt;Node6 -->
<g id="edge50" class="edge">
<title>Node27&#45;&gt;Node6</title>
<path fill="none" stroke="midnightblue" d="M939.99,-232.3C850.01,-229.68 556.9,-218.91 468.5,-188 405.79,-166.07 347.05,-110.83 320.44,-83.23"/>
<polygon fill="midnightblue" stroke="midnightblue" points="322.66,-80.48 313.24,-75.61 317.57,-85.29 322.66,-80.48"/>
</g>
<!-- Node27&#45;&gt;Node10 -->
<g id="edge51" class="edge">
<title>Node27&#45;&gt;Node10</title>
<path fill="none" stroke="midnightblue" d="M939.84,-229.86C862.92,-220.81 640.26,-194.62 548.14,-183.78"/>
<polygon fill="midnightblue" stroke="midnightblue" points="548.42,-180.29 538.08,-182.6 547.61,-187.24 548.42,-180.29"/>
</g>
<!-- Node27&#45;&gt;Node21 -->
<g id="edge52" class="edge">
<title>Node27&#45;&gt;Node21</title>
<path fill="none" stroke="midnightblue" d="M970.89,-224.37C980.05,-206.38 1001.35,-164.55 1013.53,-140.63"/>
<polygon fill="midnightblue" stroke="midnightblue" points="1016.71,-142.09 1018.13,-131.59 1010.47,-138.92 1016.71,-142.09"/>
</g>
<!-- Node27&#45;&gt;Node22 -->
<g id="edge48" class="edge">
<title>Node27&#45;&gt;Node22</title>
<path fill="none" stroke="midnightblue" d="M977.6,-224.31C1011.87,-197.47 1116.31,-115.69 1159.5,-81.88"/>
<polygon fill="midnightblue" stroke="midnightblue" points="1161.79,-84.53 1167.51,-75.61 1157.48,-79.01 1161.79,-84.53"/>
</g>
<!-- Node27&#45;&gt;Node25 -->
<g id="edge49" class="edge">
<title>Node27&#45;&gt;Node25</title>
<path fill="none" stroke="midnightblue" d="M985.67,-224.44C1005.41,-215.64 1036.39,-201.81 1058.99,-191.72"/>
<polygon fill="midnightblue" stroke="midnightblue" points="1060.71,-194.79 1068.42,-187.52 1057.86,-188.4 1060.71,-194.79"/>
</g>
</g>
</svg>
