<?xml version="1.0" encoding="UTF-8" standalone="no"?>
<!DOCTYPE svg PUBLIC "-//W3C//DTD SVG 1.1//EN"
 "http://www.w3.org/Graphics/SVG/1.1/DTD/svg11.dtd">
<!-- Generated by graphviz version 2.47.1 (20210417.1919)
 -->
<!-- Title: Gahm.h Pages: 1 -->
<!--zoomable 308 -->
<svg id="main" version="1.1" xmlns="http://www.w3.org/2000/svg" xmlns:xlink="http://www.w3.org/1999/xlink" xml:space="preserve" onload="init(evt)">
<style type="text/css"><![CDATA[
.edge:hover path { stroke: red; }
.edge:hover polygon { stroke: red; fill: red; }
]]></style>
<script type="text/javascript"><![CDATA[
var edges = document.getElementsByTagName('g');
if (edges && edges.length) {
  for (var i=0;i<edges.length;i++) {
    if (edges[i].id.substr(0,4)=='edge') {
      edges[i].setAttribute('class','edge');
    }
  }
}
]]></script>
        <defs>
                <circle id="rim" cx="0" cy="0" r="7"/>
                <circle id="rim2" cx="0" cy="0" r="3.5"/>
                <g id="zoomPlus">
                        <use xlink:href="#rim" fill="#404040">
                                <set attributeName="fill" to="#808080" begin="zoomplus.mouseover" end="zoomplus.mouseout"/>
                        </use>
                        <path d="M-4,0h8M0,-4v8" fill="none" stroke="white" stroke-width="1.5" pointer-events="none"/>
                </g>
                <g id="zoomMin">
                        <use xlink:href="#rim" fill="#404040">
                                <set attributeName="fill" to="#808080" begin="zoomminus.mouseover" end="zoomminus.mouseout"/>
                        </use>
                        <path d="M-4,0h8" fill="none" stroke="white" stroke-width="1.5" pointer-events="none"/>
                </g>
                <g id="dirArrow">
                        <path fill="none" stroke="white" stroke-width="1.5" d="M0,-3.0v7 M-2.5,-0.5L0,-3.0L2.5,-0.5"/>
                </g>
               <g id="resetDef">
                       <use xlink:href="#rim2" fill="#404040">
                               <set attributeName="fill" to="#808080" begin="reset.mouseover" end="reset.mouseout"/>
                       </use>
               </g>
        </defs>

<script type="text/javascript">
var viewWidth = 1140;
var viewHeight = 308;
var sectionId = 'dynsection-0';
</script>
<script xlink:href="svgpan.js"/>
<svg id="graph" class="graph">
<g id="viewport">
<title>Gahm.h</title>
<polygon fill="white" stroke="transparent" points="-4,4 -4,-304 1135.64,-304 1135.64,4 -4,4"/>
<!-- Node1 -->
<g id="node1" class="node">
<title>Node1</title>
<g id="a_node1"><a xlink:title=" ">
<polygon fill="#bfbfbf" stroke="black" points="1007.14,-280.5 1007.14,-299.5 1058.14,-299.5 1058.14,-280.5 1007.14,-280.5"/>
<text text-anchor="middle" x="1032.64" y="-287.5" font-family="Helvetica,sans-Serif" font-size="10.00">Gahm.h</text>
</a>
</g>
</g>
<!-- Node2 -->
<g id="node2" class="node">
<title>Node2</title>
<g id="a_node2"><a xlink:title=" ">
<polygon fill="white" stroke="#bfbfbf" points="855.64,-0.5 855.64,-19.5 893.64,-19.5 893.64,-0.5 855.64,-0.5"/>
<text text-anchor="middle" x="874.64" y="-7.5" font-family="Helvetica,sans-Serif" font-size="10.00">array</text>
</a>
</g>
</g>
<!-- Node1&#45;&gt;Node2 -->
<g id="edge1" class="edge">
<title>Node1&#45;&gt;Node2</title>
<path fill="none" stroke="midnightblue" d="M1035.2,-280.25C1040.39,-261.74 1051.64,-217.18 1051.64,-179 1051.64,-179 1051.64,-179 1051.64,-121 1051.64,-52.26 954.15,-24.97 903.88,-15.46"/>
<polygon fill="midnightblue" stroke="midnightblue" points="904.38,-11.99 893.92,-13.69 903.15,-18.89 904.38,-11.99"/>
</g>
<!-- Node3 -->
<g id="node3" class="node">
<title>Node3</title>
<g id="a_node3"><a xlink:title=" ">
<polygon fill="white" stroke="#bfbfbf" points="1079.64,-224.5 1079.64,-243.5 1131.64,-243.5 1131.64,-224.5 1079.64,-224.5"/>
<text text-anchor="middle" x="1105.64" y="-231.5" font-family="Helvetica,sans-Serif" font-size="10.00">memory</text>
</a>
</g>
</g>
<!-- Node1&#45;&gt;Node3 -->
<g id="edge2" class="edge">
<title>Node1&#45;&gt;Node3</title>
<path fill="none" stroke="midnightblue" d="M1044.37,-280.32C1055.48,-272.11 1072.38,-259.6 1085.62,-249.81"/>
<polygon fill="midnightblue" stroke="midnightblue" points="1087.74,-252.59 1093.7,-243.83 1083.58,-246.97 1087.74,-252.59"/>
</g>
<!-- Node4 -->
<g id="node4" class="node">
<title>Node4</title>
<g id="a_node4"><a xlink:href="Assumptions_8h.html" target="_top" xlink:title=" ">
<polygon fill="white" stroke="black" points="879.64,-112.5 879.64,-131.5 961.64,-131.5 961.64,-112.5 879.64,-112.5"/>
<text text-anchor="middle" x="920.64" y="-119.5" font-family="Helvetica,sans-Serif" font-size="10.00">Assumptions.h</text>
</a>
</g>
</g>
<!-- Node1&#45;&gt;Node4 -->
<g id="edge3" class="edge">
<title>Node1&#45;&gt;Node4</title>
<path fill="none" stroke="midnightblue" d="M1029.74,-280.43C1022.43,-259.67 1001.78,-205.64 972.64,-168 963.85,-156.64 951.83,-146.02 941.57,-137.95"/>
<polygon fill="midnightblue" stroke="midnightblue" points="943.55,-135.06 933.47,-131.82 939.32,-140.64 943.55,-135.06"/>
</g>
<!-- Node8 -->
<g id="node8" class="node">
<title>Node8</title>
<g id="a_node8"><a xlink:href="Atcf_8h.html" target="_top" xlink:title=" ">
<polygon fill="white" stroke="black" points="833.14,-224.5 833.14,-243.5 876.14,-243.5 876.14,-224.5 833.14,-224.5"/>
<text text-anchor="middle" x="854.64" y="-231.5" font-family="Helvetica,sans-Serif" font-size="10.00">Atcf.h</text>
</a>
</g>
</g>
<!-- Node1&#45;&gt;Node8 -->
<g id="edge7" class="edge">
<title>Node1&#45;&gt;Node8</title>
<path fill="none" stroke="midnightblue" d="M1007.14,-281.26C975.25,-271.59 920.68,-255.03 886.19,-244.57"/>
<polygon fill="midnightblue" stroke="midnightblue" points="886.77,-241.09 876.19,-241.54 884.74,-247.79 886.77,-241.09"/>
</g>
<!-- Node5 -->
<g id="node5" class="node">
<title>Node5</title>
<g id="a_node5"><a xlink:title=" ">
<polygon fill="white" stroke="#bfbfbf" points="819.64,-56.5 819.64,-75.5 863.64,-75.5 863.64,-56.5 819.64,-56.5"/>
<text text-anchor="middle" x="841.64" y="-63.5" font-family="Helvetica,sans-Serif" font-size="10.00">vector</text>
</a>
</g>
</g>
<!-- Node4&#45;&gt;Node5 -->
<g id="edge4" class="edge">
<title>Node4&#45;&gt;Node5</title>
<path fill="none" stroke="midnightblue" d="M907.95,-112.32C895.74,-103.98 877.06,-91.21 862.64,-81.35"/>
<polygon fill="midnightblue" stroke="midnightblue" points="864.53,-78.41 854.3,-75.65 860.58,-84.19 864.53,-78.41"/>
</g>
<!-- Node6 -->
<g id="node6" class="node">
<title>Node6</title>
<g id="a_node6"><a xlink:href="Assumption_8h.html" target="_top" xlink:title=" ">
<polygon fill="white" stroke="black" points="882.14,-56.5 882.14,-75.5 959.14,-75.5 959.14,-56.5 882.14,-56.5"/>
<text text-anchor="middle" x="920.64" y="-63.5" font-family="Helvetica,sans-Serif" font-size="10.00">Assumption.h</text>
</a>
</g>
</g>
<!-- Node4&#45;&gt;Node6 -->
<g id="edge5" class="edge">
<title>Node4&#45;&gt;Node6</title>
<path fill="none" stroke="midnightblue" d="M920.64,-112.08C920.64,-105.01 920.64,-94.86 920.64,-85.99"/>
<polygon fill="midnightblue" stroke="midnightblue" points="924.14,-85.75 920.64,-75.75 917.14,-85.75 924.14,-85.75"/>
</g>
<!-- Node7 -->
<g id="node7" class="node">
<title>Node7</title>
<g id="a_node7"><a xlink:title=" ">
<polygon fill="white" stroke="#bfbfbf" points="85.14,-0.5 85.14,-19.5 126.14,-19.5 126.14,-0.5 85.14,-0.5"/>
<text text-anchor="middle" x="105.64" y="-7.5" font-family="Helvetica,sans-Serif" font-size="10.00">string</text>
</a>
</g>
</g>
<!-- Node6&#45;&gt;Node7 -->
<g id="edge6" class="edge">
<title>Node6&#45;&gt;Node7</title>
<path fill="none" stroke="midnightblue" d="M881.93,-57.31C878.8,-56.82 875.67,-56.37 872.64,-56 587.8,-21.08 240.03,-13.07 136.26,-11.4"/>
<polygon fill="midnightblue" stroke="midnightblue" points="136.22,-7.9 126.17,-11.25 136.12,-14.9 136.22,-7.9"/>
</g>
<!-- Node8&#45;&gt;Node4 -->
<g id="edge10" class="edge">
<title>Node8&#45;&gt;Node4</title>
<path fill="none" stroke="midnightblue" d="M876.22,-230.36C900.5,-226.11 938.88,-215.24 956.64,-188 967.24,-171.74 952.94,-152.14 939.35,-138.74"/>
<polygon fill="midnightblue" stroke="midnightblue" points="941.36,-135.83 931.63,-131.64 936.62,-140.98 941.36,-135.83"/>
</g>
<!-- Node8&#45;&gt;Node5 -->
<g id="edge9" class="edge">
<title>Node8&#45;&gt;Node5</title>
<path fill="none" stroke="midnightblue" d="M849,-224.48C843.59,-215.74 835.78,-201.56 832.64,-188 824.4,-152.39 831.47,-109.46 836.87,-85.5"/>
<polygon fill="midnightblue" stroke="midnightblue" points="840.31,-86.19 839.25,-75.64 833.5,-84.54 840.31,-86.19"/>
</g>
<!-- Node8&#45;&gt;Node7 -->
<g id="edge8" class="edge">
<title>Node8&#45;&gt;Node7</title>
<path fill="none" stroke="midnightblue" d="M832.8,-232.04C720.62,-226.85 208.92,-199.77 67.64,-132 28.59,-113.27 -16.81,-92.42 6.64,-56 21.62,-32.74 51.89,-21.36 75.04,-15.89"/>
<polygon fill="midnightblue" stroke="midnightblue" points="76.03,-19.25 85.09,-13.76 74.59,-12.4 76.03,-19.25"/>
</g>
<!-- Node9 -->
<g id="node9" class="node">
<title>Node9</title>
<g id="a_node9"><a xlink:href="AtcfLine_8h.html" target="_top" xlink:title=" ">
<polygon fill="white" stroke="black" points="443.14,-168.5 443.14,-187.5 504.14,-187.5 504.14,-168.5 443.14,-168.5"/>
<text text-anchor="middle" x="473.64" y="-175.5" font-family="Helvetica,sans-Serif" font-size="10.00">AtcfLine.h</text>
</a>
</g>
</g>
<!-- Node8&#45;&gt;Node9 -->
<g id="edge11" class="edge">
<title>Node8&#45;&gt;Node9</title>
<path fill="none" stroke="midnightblue" d="M833.06,-229.94C771.6,-221.23 594.84,-196.18 514.39,-184.78"/>
<polygon fill="midnightblue" stroke="midnightblue" points="514.55,-181.26 504.15,-183.32 513.56,-188.19 514.55,-181.26"/>
</g>
<!-- Node23 -->
<g id="node23" class="node">
<title>Node23</title>
<g id="a_node23"><a xlink:href="HurricanePressure_8h.html" target="_top" xlink:title=" ">
<polygon fill="white" stroke="black" points="841.64,-168.5 841.64,-187.5 947.64,-187.5 947.64,-168.5 841.64,-168.5"/>
<text text-anchor="middle" x="894.64" y="-175.5" font-family="Helvetica,sans-Serif" font-size="10.00">HurricanePressure.h</text>
</a>
</g>
</g>
<!-- Node8&#45;&gt;Node23 -->
<g id="edge37" class="edge">
<title>Node8&#45;&gt;Node23</title>
<path fill="none" stroke="midnightblue" d="M861.24,-224.08C866.89,-216.46 875.18,-205.26 882.09,-195.94"/>
<polygon fill="midnightblue" stroke="midnightblue" points="885.02,-197.87 888.16,-187.75 879.39,-193.7 885.02,-197.87"/>
</g>
<!-- Node9&#45;&gt;Node2 -->
<g id="edge12" class="edge">
<title>Node9&#45;&gt;Node2</title>
<path fill="none" stroke="midnightblue" d="M504.26,-173.04C607.54,-159.37 938.29,-112.99 967.64,-76 988.98,-49.11 938.15,-28.7 903.53,-18.42"/>
<polygon fill="midnightblue" stroke="midnightblue" points="904.42,-15.03 893.84,-15.67 902.51,-21.77 904.42,-15.03"/>
</g>
<!-- Node9&#45;&gt;Node5 -->
<g id="edge16" class="edge">
<title>Node9&#45;&gt;Node5</title>
<path fill="none" stroke="midnightblue" d="M504.44,-172.37C546.28,-165.66 623.14,-151.83 686.64,-132 733.14,-117.48 784.9,-94.26 815.29,-79.86"/>
<polygon fill="midnightblue" stroke="midnightblue" points="816.86,-82.99 824.38,-75.51 813.84,-76.67 816.86,-82.99"/>
</g>
<!-- Node9&#45;&gt;Node7 -->
<g id="edge14" class="edge">
<title>Node9&#45;&gt;Node7</title>
<path fill="none" stroke="midnightblue" d="M442.95,-175.46C348.18,-169.98 63.56,-147.7 14.64,-76 -3.91,-48.82 41.98,-29.14 75.12,-18.94"/>
<polygon fill="midnightblue" stroke="midnightblue" points="76.29,-22.25 84.91,-16.08 74.33,-15.53 76.29,-22.25"/>
</g>
<!-- Node10 -->
<g id="node10" class="node">
<title>Node10</title>
<g id="a_node10"><a xlink:title=" ">
<polygon fill="white" stroke="#bfbfbf" points="23.64,-56.5 23.64,-75.5 77.64,-75.5 77.64,-56.5 23.64,-56.5"/>
<text text-anchor="middle" x="50.64" y="-63.5" font-family="Helvetica,sans-Serif" font-size="10.00">iostream</text>
</a>
</g>
</g>
<!-- Node9&#45;&gt;Node10 -->
<g id="edge13" class="edge">
<title>Node9&#45;&gt;Node10</title>
<path fill="none" stroke="midnightblue" d="M442.86,-173.58C394.34,-167.75 297.39,-154.29 217.64,-132 167.4,-117.96 111.34,-94.43 78.63,-79.86"/>
<polygon fill="midnightblue" stroke="midnightblue" points="79.82,-76.56 69.26,-75.65 76.95,-82.94 79.82,-76.56"/>
</g>
<!-- Node11 -->
<g id="node11" class="node">
<title>Node11</title>
<g id="a_node11"><a xlink:title=" ">
<polygon fill="white" stroke="#bfbfbf" points="393.64,-56.5 393.64,-75.5 431.64,-75.5 431.64,-56.5 393.64,-56.5"/>
<text text-anchor="middle" x="412.64" y="-63.5" font-family="Helvetica,sans-Serif" font-size="10.00">tuple</text>
</a>
</g>
</g>
<!-- Node9&#45;&gt;Node11 -->
<g id="edge15" class="edge">
<title>Node9&#45;&gt;Node11</title>
<path fill="none" stroke="midnightblue" d="M463.8,-168.24C454.82,-159.77 441.74,-146.15 433.64,-132 425.36,-117.52 419.84,-99.34 416.55,-85.89"/>
<polygon fill="midnightblue" stroke="midnightblue" points="419.9,-84.87 414.29,-75.89 413.08,-86.41 419.9,-84.87"/>
</g>
<!-- Node12 -->
<g id="node12" class="node">
<title>Node12</title>
<g id="a_node12"><a xlink:href="Date_8h.html" target="_top" xlink:title=" ">
<polygon fill="white" stroke="black" points="226.64,-112.5 226.64,-131.5 272.64,-131.5 272.64,-112.5 226.64,-112.5"/>
<text text-anchor="middle" x="249.64" y="-119.5" font-family="Helvetica,sans-Serif" font-size="10.00">Date.h</text>
</a>
</g>
</g>
<!-- Node9&#45;&gt;Node12 -->
<g id="edge17" class="edge">
<title>Node9&#45;&gt;Node12</title>
<path fill="none" stroke="midnightblue" d="M442.96,-169.6C400.92,-159.47 325.71,-141.34 282.54,-130.93"/>
<polygon fill="midnightblue" stroke="midnightblue" points="283.35,-127.53 272.8,-128.58 281.71,-134.33 283.35,-127.53"/>
</g>
<!-- Node17 -->
<g id="node17" class="node">
<title>Node17</title>
<g id="a_node17"><a xlink:href="Isotach_8h.html" target="_top" xlink:title=" ">
<polygon fill="white" stroke="black" points="621.14,-112.5 621.14,-131.5 678.14,-131.5 678.14,-112.5 621.14,-112.5"/>
<text text-anchor="middle" x="649.64" y="-119.5" font-family="Helvetica,sans-Serif" font-size="10.00">Isotach.h</text>
</a>
</g>
</g>
<!-- Node9&#45;&gt;Node17 -->
<g id="edge25" class="edge">
<title>Node9&#45;&gt;Node17</title>
<path fill="none" stroke="midnightblue" d="M501.53,-168.44C531.39,-159.28 578.95,-144.69 612.1,-134.52"/>
<polygon fill="midnightblue" stroke="midnightblue" points="613.35,-137.8 621.88,-131.52 611.3,-131.1 613.35,-137.8"/>
</g>
<!-- Node20 -->
<g id="node20" class="node">
<title>Node20</title>
<g id="a_node20"><a xlink:href="Physical_8h.html" target="_top" xlink:title=" ">
<polygon fill="white" stroke="black" points="442.64,-112.5 442.64,-131.5 504.64,-131.5 504.64,-112.5 442.64,-112.5"/>
<text text-anchor="middle" x="473.64" y="-119.5" font-family="Helvetica,sans-Serif" font-size="10.00">Physical.h</text>
</a>
</g>
</g>
<!-- Node9&#45;&gt;Node20 -->
<g id="edge32" class="edge">
<title>Node9&#45;&gt;Node20</title>
<path fill="none" stroke="midnightblue" d="M473.64,-168.08C473.64,-161.01 473.64,-150.86 473.64,-141.99"/>
<polygon fill="midnightblue" stroke="midnightblue" points="477.14,-141.75 473.64,-131.75 470.14,-141.75 477.14,-141.75"/>
</g>
<!-- Node12&#45;&gt;Node5 -->
<g id="edge24" class="edge">
<title>Node12&#45;&gt;Node5</title>
<path fill="none" stroke="midnightblue" d="M272.9,-119.76C362.53,-114.91 686.29,-96.47 809.51,-75.79"/>
<polygon fill="midnightblue" stroke="midnightblue" points="810.18,-79.22 819.42,-74.04 808.96,-72.33 810.18,-79.22"/>
</g>
<!-- Node12&#45;&gt;Node7 -->
<g id="edge22" class="edge">
<title>Node12&#45;&gt;Node7</title>
<path fill="none" stroke="midnightblue" d="M226.39,-118.91C198.36,-115.16 151.66,-104.73 124.64,-76 112.94,-63.57 108.4,-44.33 106.66,-30"/>
<polygon fill="midnightblue" stroke="midnightblue" points="110.13,-29.46 105.79,-19.79 103.16,-30.06 110.13,-29.46"/>
</g>
<!-- Node12&#45;&gt;Node10 -->
<g id="edge20" class="edge">
<title>Node12&#45;&gt;Node10</title>
<path fill="none" stroke="midnightblue" d="M226.42,-114.7C192.3,-105.44 128.27,-88.07 87.63,-77.04"/>
<polygon fill="midnightblue" stroke="midnightblue" points="88.4,-73.62 77.83,-74.38 86.57,-80.38 88.4,-73.62"/>
</g>
<!-- Node13 -->
<g id="node13" class="node">
<title>Node13</title>
<g id="a_node13"><a xlink:title=" ">
<polygon fill="white" stroke="#bfbfbf" points="133.64,-56.5 133.64,-75.5 179.64,-75.5 179.64,-56.5 133.64,-56.5"/>
<text text-anchor="middle" x="156.64" y="-63.5" font-family="Helvetica,sans-Serif" font-size="10.00">chrono</text>
</a>
</g>
</g>
<!-- Node12&#45;&gt;Node13 -->
<g id="edge18" class="edge">
<title>Node12&#45;&gt;Node13</title>
<path fill="none" stroke="midnightblue" d="M234.7,-112.32C220.05,-103.82 197.51,-90.73 180.4,-80.8"/>
<polygon fill="midnightblue" stroke="midnightblue" points="181.95,-77.65 171.54,-75.65 178.43,-83.7 181.95,-77.65"/>
</g>
<!-- Node14 -->
<g id="node14" class="node">
<title>Node14</title>
<g id="a_node14"><a xlink:title=" ">
<polygon fill="white" stroke="#bfbfbf" points="331.64,-56.5 331.64,-75.5 375.64,-75.5 375.64,-56.5 331.64,-56.5"/>
<text text-anchor="middle" x="353.64" y="-63.5" font-family="Helvetica,sans-Serif" font-size="10.00">cmath</text>
</a>
</g>
</g>
<!-- Node12&#45;&gt;Node14 -->
<g id="edge19" class="edge">
<title>Node12&#45;&gt;Node14</title>
<path fill="none" stroke="midnightblue" d="M266.35,-112.32C282.95,-103.7 308.64,-90.36 327.86,-80.39"/>
<polygon fill="midnightblue" stroke="midnightblue" points="329.71,-83.37 336.97,-75.65 326.48,-77.16 329.71,-83.37"/>
</g>
<!-- Node15 -->
<g id="node15" class="node">
<title>Node15</title>
<g id="a_node15"><a xlink:title=" ">
<polygon fill="white" stroke="#bfbfbf" points="198.14,-56.5 198.14,-75.5 233.14,-75.5 233.14,-56.5 198.14,-56.5"/>
<text text-anchor="middle" x="215.64" y="-63.5" font-family="Helvetica,sans-Serif" font-size="10.00">ratio</text>
</a>
</g>
</g>
<!-- Node12&#45;&gt;Node15 -->
<g id="edge21" class="edge">
<title>Node12&#45;&gt;Node15</title>
<path fill="none" stroke="midnightblue" d="M244.03,-112.08C239.27,-104.53 232.32,-93.49 226.49,-84.23"/>
<polygon fill="midnightblue" stroke="midnightblue" points="229.44,-82.35 221.15,-75.75 223.52,-86.08 229.44,-82.35"/>
</g>
<!-- Node16 -->
<g id="node16" class="node">
<title>Node16</title>
<g id="a_node16"><a xlink:title=" ">
<polygon fill="white" stroke="#bfbfbf" points="251.64,-56.5 251.64,-75.5 313.64,-75.5 313.64,-56.5 251.64,-56.5"/>
<text text-anchor="middle" x="282.64" y="-63.5" font-family="Helvetica,sans-Serif" font-size="10.00">type_traits</text>
</a>
</g>
</g>
<!-- Node12&#45;&gt;Node16 -->
<g id="edge23" class="edge">
<title>Node12&#45;&gt;Node16</title>
<path fill="none" stroke="midnightblue" d="M255.09,-112.08C259.65,-104.61 266.31,-93.72 271.93,-84.52"/>
<polygon fill="midnightblue" stroke="midnightblue" points="275.06,-86.11 277.29,-75.75 269.09,-82.46 275.06,-86.11"/>
</g>
<!-- Node17&#45;&gt;Node2 -->
<g id="edge26" class="edge">
<title>Node17&#45;&gt;Node2</title>
<path fill="none" stroke="midnightblue" d="M655.56,-112.43C665.64,-98.48 687.51,-70.93 712.64,-56 754.76,-30.98 811.28,-19.43 845.22,-14.43"/>
<polygon fill="midnightblue" stroke="midnightblue" points="845.97,-17.86 855.4,-13.03 845.01,-10.93 845.97,-17.86"/>
</g>
<!-- Node17&#45;&gt;Node5 -->
<g id="edge29" class="edge">
<title>Node17&#45;&gt;Node5</title>
<path fill="none" stroke="midnightblue" d="M678.16,-113.12C708.48,-104.73 758.06,-90.94 809.92,-76.18"/>
<polygon fill="midnightblue" stroke="midnightblue" points="810.97,-79.52 819.63,-73.42 809.06,-72.79 810.97,-79.52"/>
</g>
<!-- Node17&#45;&gt;Node7 -->
<g id="edge28" class="edge">
<title>Node17&#45;&gt;Node7</title>
<path fill="none" stroke="midnightblue" d="M641.94,-112.39C628.37,-97.85 598.58,-68.79 566.64,-56 488,-24.51 226.56,-14.37 136.47,-11.77"/>
<polygon fill="midnightblue" stroke="midnightblue" points="136.45,-8.27 126.35,-11.49 136.25,-15.27 136.45,-8.27"/>
</g>
<!-- Node18 -->
<g id="node18" class="node">
<title>Node18</title>
<g id="a_node18"><a xlink:title=" ">
<polygon fill="white" stroke="#bfbfbf" points="613.64,-56.5 613.64,-75.5 665.64,-75.5 665.64,-56.5 613.64,-56.5"/>
<text text-anchor="middle" x="639.64" y="-63.5" font-family="Helvetica,sans-Serif" font-size="10.00">ostream</text>
</a>
</g>
</g>
<!-- Node17&#45;&gt;Node18 -->
<g id="edge27" class="edge">
<title>Node17&#45;&gt;Node18</title>
<path fill="none" stroke="midnightblue" d="M647.99,-112.08C646.66,-104.93 644.76,-94.64 643.1,-85.69"/>
<polygon fill="midnightblue" stroke="midnightblue" points="646.52,-84.95 641.26,-75.75 639.64,-86.22 646.52,-84.95"/>
</g>
<!-- Node19 -->
<g id="node19" class="node">
<title>Node19</title>
<g id="a_node19"><a xlink:href="CircularArray_8h.html" target="_top" xlink:title=" ">
<polygon fill="white" stroke="black" points="721.64,-56.5 721.64,-75.5 801.64,-75.5 801.64,-56.5 721.64,-56.5"/>
<text text-anchor="middle" x="761.64" y="-63.5" font-family="Helvetica,sans-Serif" font-size="10.00">CircularArray.h</text>
</a>
</g>
</g>
<!-- Node17&#45;&gt;Node19 -->
<g id="edge30" class="edge">
<title>Node17&#45;&gt;Node19</title>
<path fill="none" stroke="midnightblue" d="M667.63,-112.32C685.68,-103.62 713.69,-90.12 734.44,-80.11"/>
<polygon fill="midnightblue" stroke="midnightblue" points="736.2,-83.15 743.69,-75.65 733.16,-76.84 736.2,-83.15"/>
</g>
<!-- Node19&#45;&gt;Node2 -->
<g id="edge31" class="edge">
<title>Node19&#45;&gt;Node2</title>
<path fill="none" stroke="midnightblue" d="M779.54,-56.44C797.89,-47.68 826.64,-33.94 847.73,-23.86"/>
<polygon fill="midnightblue" stroke="midnightblue" points="849.3,-26.99 856.82,-19.52 846.29,-20.67 849.3,-26.99"/>
</g>
<!-- Node20&#45;&gt;Node11 -->
<g id="edge36" class="edge">
<title>Node20&#45;&gt;Node11</title>
<path fill="none" stroke="midnightblue" d="M463.84,-112.32C454.82,-104.34 441.23,-92.31 430.32,-82.65"/>
<polygon fill="midnightblue" stroke="midnightblue" points="432.43,-79.84 422.62,-75.83 427.79,-85.08 432.43,-79.84"/>
</g>
<!-- Node20&#45;&gt;Node14 -->
<g id="edge34" class="edge">
<title>Node20&#45;&gt;Node14</title>
<path fill="none" stroke="midnightblue" d="M454.63,-112.44C435.05,-103.64 404.33,-89.81 381.91,-79.72"/>
<polygon fill="midnightblue" stroke="midnightblue" points="383.12,-76.43 372.56,-75.52 380.25,-82.81 383.12,-76.43"/>
</g>
<!-- Node21 -->
<g id="node21" class="node">
<title>Node21</title>
<g id="a_node21"><a xlink:title=" ">
<polygon fill="white" stroke="#bfbfbf" points="450.14,-56.5 450.14,-75.5 499.14,-75.5 499.14,-56.5 450.14,-56.5"/>
<text text-anchor="middle" x="474.64" y="-63.5" font-family="Helvetica,sans-Serif" font-size="10.00">cassert</text>
</a>
</g>
</g>
<!-- Node20&#45;&gt;Node21 -->
<g id="edge33" class="edge">
<title>Node20&#45;&gt;Node21</title>
<path fill="none" stroke="midnightblue" d="M473.8,-112.08C473.94,-105.01 474.12,-94.86 474.29,-85.99"/>
<polygon fill="midnightblue" stroke="midnightblue" points="477.79,-85.81 474.48,-75.75 470.79,-85.68 477.79,-85.81"/>
</g>
<!-- Node22 -->
<g id="node22" class="node">
<title>Node22</title>
<g id="a_node22"><a xlink:title=" ">
<polygon fill="white" stroke="#bfbfbf" points="517.64,-56.5 517.64,-75.5 557.64,-75.5 557.64,-56.5 517.64,-56.5"/>
<text text-anchor="middle" x="537.64" y="-63.5" font-family="Helvetica,sans-Serif" font-size="10.00">limits</text>
</a>
</g>
</g>
<!-- Node20&#45;&gt;Node22 -->
<g id="edge35" class="edge">
<title>Node20&#45;&gt;Node22</title>
<path fill="none" stroke="midnightblue" d="M483.92,-112.32C493.48,-104.26 507.92,-92.08 519.42,-82.37"/>
<polygon fill="midnightblue" stroke="midnightblue" points="521.78,-84.96 527.17,-75.83 517.27,-79.61 521.78,-84.96"/>
</g>
<!-- Node23&#45;&gt;Node4 -->
<g id="edge38" class="edge">
<title>Node23&#45;&gt;Node4</title>
<path fill="none" stroke="midnightblue" d="M898.93,-168.08C902.49,-160.69 907.66,-149.95 912.06,-140.81"/>
<polygon fill="midnightblue" stroke="midnightblue" points="915.24,-142.28 916.43,-131.75 908.93,-139.24 915.24,-142.28"/>
</g>
</g>
</svg>
        <g id="navigator" transform="translate(0 0)" fill="#404254">
                <rect fill="#f2f5e9" fill-opacity="0.5" stroke="#606060" stroke-width=".5" x="0" y="0" width="60" height="60"/>
                <use id="zoomplus" xlink:href="#zoomPlus" x="17" y="9" onmousedown="handleZoom(evt,'in')"/>
                <use id="zoomminus" xlink:href="#zoomMin" x="42" y="9" onmousedown="handleZoom(evt,'out')"/>
                <use id="reset" xlink:href="#resetDef" x="30" y="36" onmousedown="handleReset()"/>
                <g id="arrowUp" xlink:href="#dirArrow" transform="translate(30 24)" onmousedown="handlePan(0,-1)">
                  <use xlink:href="#rim" fill="#404040">
                        <set attributeName="fill" to="#808080" begin="arrowUp.mouseover" end="arrowUp.mouseout"/>
                  </use>
                  <path fill="none" stroke="white" stroke-width="1.5" d="M0,-3.0v7 M-2.5,-0.5L0,-3.0L2.5,-0.5"/>
                </g>
                <g id="arrowRight" xlink:href="#dirArrow" transform="rotate(90) translate(36 -43)" onmousedown="handlePan(1,0)">
                  <use xlink:href="#rim" fill="#404040">
                        <set attributeName="fill" to="#808080" begin="arrowRight.mouseover" end="arrowRight.mouseout"/>
                  </use>
                  <path fill="none" stroke="white" stroke-width="1.5" d="M0,-3.0v7 M-2.5,-0.5L0,-3.0L2.5,-0.5"/>
                </g>
                <g id="arrowDown" xlink:href="#dirArrow" transform="rotate(180) translate(-30 -48)" onmousedown="handlePan(0,1)">
                  <use xlink:href="#rim" fill="#404040">
                        <set attributeName="fill" to="#808080" begin="arrowDown.mouseover" end="arrowDown.mouseout"/>
                  </use>
                  <path fill="none" stroke="white" stroke-width="1.5" d="M0,-3.0v7 M-2.5,-0.5L0,-3.0L2.5,-0.5"/>
                </g>
                <g id="arrowLeft" xlink:href="#dirArrow" transform="rotate(270) translate(-36 17)" onmousedown="handlePan(-1,0)">
                  <use xlink:href="#rim" fill="#404040">
                        <set attributeName="fill" to="#808080" begin="arrowLeft.mouseover" end="arrowLeft.mouseout"/>
                  </use>
                  <path fill="none" stroke="white" stroke-width="1.5" d="M0,-3.0v7 M-2.5,-0.5L0,-3.0L2.5,-0.5"/>
                </g>
        </g>
        <svg viewBox="0 0 15 15" width="100%" height="30px" preserveAspectRatio="xMaxYMin meet">
         <g id="arrow_out" transform="scale(0.3 0.3)">
          <a xlink:href="Gahm_8h__incl_org.svg" target="_base">
           <rect id="button" ry="5" rx="5" y="6" x="6" height="38" width="38"
                fill="#f2f5e9" fill-opacity="0.5" stroke="#606060" stroke-width="1.0"/>
           <path id="arrow"
             d="M 11.500037,31.436501 C 11.940474,20.09759 22.043105,11.32322 32.158766,21.979434 L 37.068811,17.246167 C 37.068811,17.246167 37.088388,32 37.088388,32 L 22.160133,31.978069 C 22.160133,31.978069 26.997745,27.140456 26.997745,27.140456 C 18.528582,18.264221 13.291696,25.230495 11.500037,31.436501 z"
             style="fill:#404040;"/>
          </a>
         </g>
        </svg>
</svg>
