<?xml version="1.0" encoding="UTF-8" standalone="no"?>
<!DOCTYPE svg PUBLIC "-//W3C//DTD SVG 1.1//EN"
 "http://www.w3.org/Graphics/SVG/1.1/DTD/svg11.dtd">
<!-- Generated by graphviz version 2.47.1 (20210417.1919)
 -->
<!-- Title: Gahm.cpp Pages: 1 -->
<!--zoomable 364 -->
<svg id="main" version="1.1" xmlns="http://www.w3.org/2000/svg" xmlns:xlink="http://www.w3.org/1999/xlink" xml:space="preserve" onload="init(evt)">
<style type="text/css"><![CDATA[
.edge:hover path { stroke: red; }
.edge:hover polygon { stroke: red; fill: red; }
]]></style>
<script type="text/javascript"><![CDATA[
var edges = document.getElementsByTagName('g');
if (edges && edges.length) {
  for (var i=0;i<edges.length;i++) {
    if (edges[i].id.substr(0,4)=='edge') {
      edges[i].setAttribute('class','edge');
    }
  }
}
]]></script>
        <defs>
                <circle id="rim" cx="0" cy="0" r="7"/>
                <circle id="rim2" cx="0" cy="0" r="3.5"/>
                <g id="zoomPlus">
                        <use xlink:href="#rim" fill="#404040">
                                <set attributeName="fill" to="#808080" begin="zoomplus.mouseover" end="zoomplus.mouseout"/>
                        </use>
                        <path d="M-4,0h8M0,-4v8" fill="none" stroke="white" stroke-width="1.5" pointer-events="none"/>
                </g>
                <g id="zoomMin">
                        <use xlink:href="#rim" fill="#404040">
                                <set attributeName="fill" to="#808080" begin="zoomminus.mouseover" end="zoomminus.mouseout"/>
                        </use>
                        <path d="M-4,0h8" fill="none" stroke="white" stroke-width="1.5" pointer-events="none"/>
                </g>
                <g id="dirArrow">
                        <path fill="none" stroke="white" stroke-width="1.5" d="M0,-3.0v7 M-2.5,-0.5L0,-3.0L2.5,-0.5"/>
                </g>
               <g id="resetDef">
                       <use xlink:href="#rim2" fill="#404040">
                               <set attributeName="fill" to="#808080" begin="reset.mouseover" end="reset.mouseout"/>
                       </use>
               </g>
        </defs>

<script type="text/javascript">
var viewWidth = 900;
var viewHeight = 364;
var sectionId = 'dynsection-0';
</script>
<script xlink:href="svgpan.js"/>
<svg id="graph" class="graph">
<g id="viewport">
<title>Gahm.cpp</title>
<polygon fill="white" stroke="transparent" points="-4,4 -4,-360 896,-360 896,4 -4,4"/>
<!-- Node1 -->
<g id="node1" class="node">
<title>Node1</title>
<g id="a_node1"><a xlink:title=" ">
<polygon fill="#bfbfbf" stroke="black" points="152.5,-336.5 152.5,-355.5 214.5,-355.5 214.5,-336.5 152.5,-336.5"/>
<text text-anchor="middle" x="183.5" y="-343.5" font-family="Helvetica,sans-Serif" font-size="10.00">Gahm.cpp</text>
</a>
</g>
</g>
<!-- Node2 -->
<g id="node2" class="node">
<title>Node2</title>
<g id="a_node2"><a xlink:href="Gahm_8h.html" target="_top" xlink:title=" ">
<polygon fill="white" stroke="black" points="665,-280.5 665,-299.5 716,-299.5 716,-280.5 665,-280.5"/>
<text text-anchor="middle" x="690.5" y="-287.5" font-family="Helvetica,sans-Serif" font-size="10.00">Gahm.h</text>
</a>
</g>
</g>
<!-- Node1&#45;&gt;Node2 -->
<g id="edge1" class="edge">
<title>Node1&#45;&gt;Node2</title>
<path fill="none" stroke="midnightblue" d="M214.83,-341.66C304.22,-332.14 560.1,-304.89 654.74,-294.81"/>
<polygon fill="midnightblue" stroke="midnightblue" points="655.38,-298.26 664.95,-293.72 654.63,-291.3 655.38,-298.26"/>
</g>
<!-- Node9 -->
<g id="node9" class="node">
<title>Node9</title>
<g id="a_node9"><a xlink:title=" ">
<polygon fill="white" stroke="#bfbfbf" points="65.5,-56.5 65.5,-75.5 119.5,-75.5 119.5,-56.5 65.5,-56.5"/>
<text text-anchor="middle" x="92.5" y="-63.5" font-family="Helvetica,sans-Serif" font-size="10.00">iostream</text>
</a>
</g>
</g>
<!-- Node1&#45;&gt;Node9 -->
<g id="edge30" class="edge">
<title>Node1&#45;&gt;Node9</title>
<path fill="none" stroke="midnightblue" d="M167.65,-336.44C140.38,-320.43 87.5,-283.16 87.5,-235 87.5,-235 87.5,-235 87.5,-177 87.5,-144.91 89.65,-107.62 91.13,-85.74"/>
<polygon fill="midnightblue" stroke="midnightblue" points="94.64,-85.77 91.85,-75.55 87.65,-85.28 94.64,-85.77"/>
</g>
<!-- Node20 -->
<g id="node20" class="node">
<title>Node20</title>
<g id="a_node20"><a xlink:href="Logging_8h.html" target="_top" xlink:title=" ">
<polygon fill="white" stroke="black" points="0,-112.5 0,-131.5 59,-131.5 59,-112.5 0,-112.5"/>
<text text-anchor="middle" x="29.5" y="-119.5" font-family="Helvetica,sans-Serif" font-size="10.00">Logging.h</text>
</a>
</g>
</g>
<!-- Node1&#45;&gt;Node20 -->
<g id="edge31" class="edge">
<title>Node1&#45;&gt;Node20</title>
<path fill="none" stroke="midnightblue" d="M152.45,-340.17C127.58,-334.68 93.61,-323.25 73.5,-300 33.68,-253.95 28.85,-177.23 28.92,-141.89"/>
<polygon fill="midnightblue" stroke="midnightblue" points="32.42,-141.65 29.09,-131.59 25.42,-141.53 32.42,-141.65"/>
</g>
<!-- Node21 -->
<g id="node21" class="node">
<title>Node21</title>
<g id="a_node21"><a xlink:href="Physical_8h.html" target="_top" xlink:title=" ">
<polygon fill="white" stroke="black" points="152.5,-168.5 152.5,-187.5 214.5,-187.5 214.5,-168.5 152.5,-168.5"/>
<text text-anchor="middle" x="183.5" y="-175.5" font-family="Helvetica,sans-Serif" font-size="10.00">Physical.h</text>
</a>
</g>
</g>
<!-- Node1&#45;&gt;Node21 -->
<g id="edge34" class="edge">
<title>Node1&#45;&gt;Node21</title>
<path fill="none" stroke="midnightblue" d="M183.5,-336.08C183.5,-309.95 183.5,-233.21 183.5,-197.58"/>
<polygon fill="midnightblue" stroke="midnightblue" points="187,-197.57 183.5,-187.57 180,-197.57 187,-197.57"/>
</g>
<!-- Node23 -->
<g id="node23" class="node">
<title>Node23</title>
<g id="a_node23"><a xlink:href="Vortex_8h.html" target="_top" xlink:title=" ">
<polygon fill="white" stroke="black" points="839,-112.5 839,-131.5 892,-131.5 892,-112.5 839,-112.5"/>
<text text-anchor="middle" x="865.5" y="-119.5" font-family="Helvetica,sans-Serif" font-size="10.00">Vortex.h</text>
</a>
</g>
</g>
<!-- Node1&#45;&gt;Node23 -->
<g id="edge38" class="edge">
<title>Node1&#45;&gt;Node23</title>
<path fill="none" stroke="midnightblue" d="M214.64,-343.86C323.13,-339.67 680.41,-324.18 725.5,-300 793.67,-263.44 839.96,-177.99 857.58,-140.81"/>
<polygon fill="midnightblue" stroke="midnightblue" points="860.77,-142.23 861.78,-131.68 854.42,-139.3 860.77,-142.23"/>
</g>
<!-- Node3 -->
<g id="node3" class="node">
<title>Node3</title>
<g id="a_node3"><a xlink:href="Assumptions_8h.html" target="_top" xlink:title=" ">
<polygon fill="white" stroke="black" points="700.5,-112.5 700.5,-131.5 782.5,-131.5 782.5,-112.5 700.5,-112.5"/>
<text text-anchor="middle" x="741.5" y="-119.5" font-family="Helvetica,sans-Serif" font-size="10.00">Assumptions.h</text>
</a>
</g>
</g>
<!-- Node2&#45;&gt;Node3 -->
<g id="edge2" class="edge">
<title>Node2&#45;&gt;Node3</title>
<path fill="none" stroke="midnightblue" d="M700.27,-280.49C717.79,-264.48 754.03,-227.9 767.5,-188 773.12,-171.35 764.1,-152.76 755.18,-139.75"/>
<polygon fill="midnightblue" stroke="midnightblue" points="757.98,-137.65 749.2,-131.72 752.36,-141.83 757.98,-137.65"/>
</g>
<!-- Node7 -->
<g id="node7" class="node">
<title>Node7</title>
<g id="a_node7"><a xlink:href="Atcf_8h.html" target="_top" xlink:title=" ">
<polygon fill="white" stroke="black" points="669,-224.5 669,-243.5 712,-243.5 712,-224.5 669,-224.5"/>
<text text-anchor="middle" x="690.5" y="-231.5" font-family="Helvetica,sans-Serif" font-size="10.00">Atcf.h</text>
</a>
</g>
</g>
<!-- Node2&#45;&gt;Node7 -->
<g id="edge6" class="edge">
<title>Node2&#45;&gt;Node7</title>
<path fill="none" stroke="midnightblue" d="M690.5,-280.08C690.5,-273.01 690.5,-262.86 690.5,-253.99"/>
<polygon fill="midnightblue" stroke="midnightblue" points="694,-253.75 690.5,-243.75 687,-253.75 694,-253.75"/>
</g>
<!-- Node4 -->
<g id="node4" class="node">
<title>Node4</title>
<g id="a_node4"><a xlink:title=" ">
<polygon fill="white" stroke="#bfbfbf" points="587.5,-56.5 587.5,-75.5 631.5,-75.5 631.5,-56.5 587.5,-56.5"/>
<text text-anchor="middle" x="609.5" y="-63.5" font-family="Helvetica,sans-Serif" font-size="10.00">vector</text>
</a>
</g>
</g>
<!-- Node3&#45;&gt;Node4 -->
<g id="edge3" class="edge">
<title>Node3&#45;&gt;Node4</title>
<path fill="none" stroke="midnightblue" d="M720.58,-112.44C698.76,-103.52 664.35,-89.44 639.61,-79.32"/>
<polygon fill="midnightblue" stroke="midnightblue" points="640.9,-76.06 630.32,-75.52 638.25,-82.54 640.9,-76.06"/>
</g>
<!-- Node5 -->
<g id="node5" class="node">
<title>Node5</title>
<g id="a_node5"><a xlink:href="Assumption_8h.html" target="_top" xlink:title=" ">
<polygon fill="white" stroke="black" points="706,-56.5 706,-75.5 783,-75.5 783,-56.5 706,-56.5"/>
<text text-anchor="middle" x="744.5" y="-63.5" font-family="Helvetica,sans-Serif" font-size="10.00">Assumption.h</text>
</a>
</g>
</g>
<!-- Node3&#45;&gt;Node5 -->
<g id="edge4" class="edge">
<title>Node3&#45;&gt;Node5</title>
<path fill="none" stroke="midnightblue" d="M742,-112.08C742.39,-105.01 742.95,-94.86 743.45,-85.99"/>
<polygon fill="midnightblue" stroke="midnightblue" points="746.95,-85.93 744.01,-75.75 739.96,-85.54 746.95,-85.93"/>
</g>
<!-- Node6 -->
<g id="node6" class="node">
<title>Node6</title>
<g id="a_node6"><a xlink:title=" ">
<polygon fill="white" stroke="#bfbfbf" points="351,-0.5 351,-19.5 392,-19.5 392,-0.5 351,-0.5"/>
<text text-anchor="middle" x="371.5" y="-7.5" font-family="Helvetica,sans-Serif" font-size="10.00">string</text>
</a>
</g>
</g>
<!-- Node5&#45;&gt;Node6 -->
<g id="edge5" class="edge">
<title>Node5&#45;&gt;Node6</title>
<path fill="none" stroke="midnightblue" d="M705.76,-57.57C702.63,-57.02 699.51,-56.49 696.5,-56 588.75,-38.45 460.19,-21.96 402.36,-14.77"/>
<polygon fill="midnightblue" stroke="midnightblue" points="402.44,-11.26 392.08,-13.5 401.58,-18.2 402.44,-11.26"/>
</g>
<!-- Node7&#45;&gt;Node3 -->
<g id="edge9" class="edge">
<title>Node7&#45;&gt;Node3</title>
<path fill="none" stroke="midnightblue" d="M710.72,-224.49C725.27,-217.17 743.8,-205.06 752.5,-188 760.04,-173.21 755.51,-154.32 750.16,-140.72"/>
<polygon fill="midnightblue" stroke="midnightblue" points="753.33,-139.24 746.1,-131.5 746.93,-142.06 753.33,-139.24"/>
</g>
<!-- Node7&#45;&gt;Node4 -->
<g id="edge8" class="edge">
<title>Node7&#45;&gt;Node4</title>
<path fill="none" stroke="midnightblue" d="M671.61,-224.39C657.38,-216.87 638.64,-204.56 628.5,-188 608.95,-156.07 607.31,-110.84 608.18,-85.7"/>
<polygon fill="midnightblue" stroke="midnightblue" points="611.68,-85.85 608.71,-75.68 604.69,-85.48 611.68,-85.85"/>
</g>
<!-- Node7&#45;&gt;Node6 -->
<g id="edge7" class="edge">
<title>Node7&#45;&gt;Node6</title>
<path fill="none" stroke="midnightblue" d="M712.3,-224.75C729.28,-217.37 752.43,-205.06 767.5,-188 807.02,-143.24 832.41,-100.41 792.5,-56 766.47,-27.04 495.18,-15.19 402.41,-11.97"/>
<polygon fill="midnightblue" stroke="midnightblue" points="402.37,-8.47 392.25,-11.63 402.13,-15.46 402.37,-8.47"/>
</g>
<!-- Node8 -->
<g id="node8" class="node">
<title>Node8</title>
<g id="a_node8"><a xlink:href="AtcfLine_8h.html" target="_top" xlink:title=" ">
<polygon fill="white" stroke="black" points="336,-168.5 336,-187.5 397,-187.5 397,-168.5 336,-168.5"/>
<text text-anchor="middle" x="366.5" y="-175.5" font-family="Helvetica,sans-Serif" font-size="10.00">AtcfLine.h</text>
</a>
</g>
</g>
<!-- Node7&#45;&gt;Node8 -->
<g id="edge10" class="edge">
<title>Node7&#45;&gt;Node8</title>
<path fill="none" stroke="midnightblue" d="M668.99,-229.42C615.75,-220.54 477.14,-197.44 407.57,-185.85"/>
<polygon fill="midnightblue" stroke="midnightblue" points="407.87,-182.35 397.43,-184.15 406.72,-189.25 407.87,-182.35"/>
</g>
<!-- Node19 -->
<g id="node19" class="node">
<title>Node19</title>
<g id="a_node19"><a xlink:href="HurricanePressure_8h.html" target="_top" xlink:title=" ">
<polygon fill="white" stroke="black" points="637.5,-168.5 637.5,-187.5 743.5,-187.5 743.5,-168.5 637.5,-168.5"/>
<text text-anchor="middle" x="690.5" y="-175.5" font-family="Helvetica,sans-Serif" font-size="10.00">HurricanePressure.h</text>
</a>
</g>
</g>
<!-- Node7&#45;&gt;Node19 -->
<g id="edge28" class="edge">
<title>Node7&#45;&gt;Node19</title>
<path fill="none" stroke="midnightblue" d="M690.5,-224.08C690.5,-217.01 690.5,-206.86 690.5,-197.99"/>
<polygon fill="midnightblue" stroke="midnightblue" points="694,-197.75 690.5,-187.75 687,-197.75 694,-197.75"/>
</g>
<!-- Node8&#45;&gt;Node4 -->
<g id="edge14" class="edge">
<title>Node8&#45;&gt;Node4</title>
<path fill="none" stroke="midnightblue" d="M397.1,-175.12C435.61,-171.57 502.61,-161.34 551.5,-132 571.48,-120.01 588.41,-98.92 598.73,-84.02"/>
<polygon fill="midnightblue" stroke="midnightblue" points="601.66,-85.94 604.27,-75.68 595.82,-82.07 601.66,-85.94"/>
</g>
<!-- Node8&#45;&gt;Node6 -->
<g id="edge12" class="edge">
<title>Node8&#45;&gt;Node6</title>
<path fill="none" stroke="midnightblue" d="M355.73,-168.22C331.52,-148.2 274.14,-99.12 264.5,-76 261.08,-67.8 259.58,-63.4 264.5,-56 281.28,-30.74 315.31,-19.62 340.51,-14.76"/>
<polygon fill="midnightblue" stroke="midnightblue" points="341.42,-18.15 350.69,-13.03 340.25,-11.25 341.42,-18.15"/>
</g>
<!-- Node8&#45;&gt;Node9 -->
<g id="edge11" class="edge">
<title>Node8&#45;&gt;Node9</title>
<path fill="none" stroke="midnightblue" d="M354.78,-168.44C335.56,-154.76 295.74,-127.89 258.5,-112 235.41,-102.15 171.04,-85.83 129.58,-75.78"/>
<polygon fill="midnightblue" stroke="midnightblue" points="130.37,-72.37 119.83,-73.43 128.73,-79.18 130.37,-72.37"/>
</g>
<!-- Node10 -->
<g id="node10" class="node">
<title>Node10</title>
<g id="a_node10"><a xlink:title=" ">
<polygon fill="white" stroke="#bfbfbf" points="211.5,-112.5 211.5,-131.5 249.5,-131.5 249.5,-112.5 211.5,-112.5"/>
<text text-anchor="middle" x="230.5" y="-119.5" font-family="Helvetica,sans-Serif" font-size="10.00">tuple</text>
</a>
</g>
</g>
<!-- Node8&#45;&gt;Node10 -->
<g id="edge13" class="edge">
<title>Node8&#45;&gt;Node10</title>
<path fill="none" stroke="midnightblue" d="M344.95,-168.44C321.81,-159.25 284.92,-144.61 259.3,-134.43"/>
<polygon fill="midnightblue" stroke="midnightblue" points="260.34,-131.08 249.75,-130.64 257.75,-137.59 260.34,-131.08"/>
</g>
<!-- Node11 -->
<g id="node11" class="node">
<title>Node11</title>
<g id="a_node11"><a xlink:href="Date_8h.html" target="_top" xlink:title=" ">
<polygon fill="white" stroke="black" points="343.5,-112.5 343.5,-131.5 389.5,-131.5 389.5,-112.5 343.5,-112.5"/>
<text text-anchor="middle" x="366.5" y="-119.5" font-family="Helvetica,sans-Serif" font-size="10.00">Date.h</text>
</a>
</g>
</g>
<!-- Node8&#45;&gt;Node11 -->
<g id="edge15" class="edge">
<title>Node8&#45;&gt;Node11</title>
<path fill="none" stroke="midnightblue" d="M366.5,-168.08C366.5,-161.01 366.5,-150.86 366.5,-141.99"/>
<polygon fill="midnightblue" stroke="midnightblue" points="370,-141.75 366.5,-131.75 363,-141.75 370,-141.75"/>
</g>
<!-- Node16 -->
<g id="node16" class="node">
<title>Node16</title>
<g id="a_node16"><a xlink:href="Isotach_8h.html" target="_top" xlink:title=" ">
<polygon fill="white" stroke="black" points="486,-112.5 486,-131.5 543,-131.5 543,-112.5 486,-112.5"/>
<text text-anchor="middle" x="514.5" y="-119.5" font-family="Helvetica,sans-Serif" font-size="10.00">Isotach.h</text>
</a>
</g>
</g>
<!-- Node8&#45;&gt;Node16 -->
<g id="edge23" class="edge">
<title>Node8&#45;&gt;Node16</title>
<path fill="none" stroke="midnightblue" d="M389.95,-168.44C414.63,-159.44 453.69,-145.19 481.48,-135.05"/>
<polygon fill="midnightblue" stroke="midnightblue" points="482.96,-138.23 491.16,-131.52 480.56,-131.66 482.96,-138.23"/>
</g>
<!-- Node11&#45;&gt;Node4 -->
<g id="edge22" class="edge">
<title>Node11&#45;&gt;Node4</title>
<path fill="none" stroke="midnightblue" d="M389.53,-116.69C426.91,-109.56 503.32,-94.49 577.26,-76.17"/>
<polygon fill="midnightblue" stroke="midnightblue" points="578.35,-79.51 587.2,-73.69 576.65,-72.72 578.35,-79.51"/>
</g>
<!-- Node11&#45;&gt;Node6 -->
<g id="edge20" class="edge">
<title>Node11&#45;&gt;Node6</title>
<path fill="none" stroke="midnightblue" d="M343.41,-115.68C309.63,-106.74 252.79,-86.61 272.5,-56 287.48,-32.74 317.75,-21.36 340.9,-15.89"/>
<polygon fill="midnightblue" stroke="midnightblue" points="341.89,-19.25 350.95,-13.76 340.45,-12.4 341.89,-19.25"/>
</g>
<!-- Node11&#45;&gt;Node9 -->
<g id="edge18" class="edge">
<title>Node11&#45;&gt;Node9</title>
<path fill="none" stroke="midnightblue" d="M343.42,-116.68C301.68,-108.83 210.88,-91.59 134.5,-76 132.84,-75.66 131.15,-75.31 129.44,-74.96"/>
<polygon fill="midnightblue" stroke="midnightblue" points="130.1,-71.52 119.6,-72.89 128.66,-78.37 130.1,-71.52"/>
</g>
<!-- Node12 -->
<g id="node12" class="node">
<title>Node12</title>
<g id="a_node12"><a xlink:title=" ">
<polygon fill="white" stroke="#bfbfbf" points="415.5,-56.5 415.5,-75.5 461.5,-75.5 461.5,-56.5 415.5,-56.5"/>
<text text-anchor="middle" x="438.5" y="-63.5" font-family="Helvetica,sans-Serif" font-size="10.00">chrono</text>
</a>
</g>
</g>
<!-- Node11&#45;&gt;Node12 -->
<g id="edge16" class="edge">
<title>Node11&#45;&gt;Node12</title>
<path fill="none" stroke="midnightblue" d="M378.07,-112.32C388.92,-104.18 405.38,-91.84 418.38,-82.09"/>
<polygon fill="midnightblue" stroke="midnightblue" points="420.82,-84.63 426.72,-75.83 416.62,-79.03 420.82,-84.63"/>
</g>
<!-- Node13 -->
<g id="node13" class="node">
<title>Node13</title>
<g id="a_node13"><a xlink:title=" ">
<polygon fill="white" stroke="#bfbfbf" points="143.5,-56.5 143.5,-75.5 187.5,-75.5 187.5,-56.5 143.5,-56.5"/>
<text text-anchor="middle" x="165.5" y="-63.5" font-family="Helvetica,sans-Serif" font-size="10.00">cmath</text>
</a>
</g>
</g>
<!-- Node11&#45;&gt;Node13 -->
<g id="edge17" class="edge">
<title>Node11&#45;&gt;Node13</title>
<path fill="none" stroke="midnightblue" d="M343.44,-114.81C307.51,-105.15 238.06,-86.49 197.37,-75.56"/>
<polygon fill="midnightblue" stroke="midnightblue" points="198.24,-72.17 187.68,-72.96 196.43,-78.93 198.24,-72.17"/>
</g>
<!-- Node14 -->
<g id="node14" class="node">
<title>Node14</title>
<g id="a_node14"><a xlink:title=" ">
<polygon fill="white" stroke="#bfbfbf" points="282,-56.5 282,-75.5 317,-75.5 317,-56.5 282,-56.5"/>
<text text-anchor="middle" x="299.5" y="-63.5" font-family="Helvetica,sans-Serif" font-size="10.00">ratio</text>
</a>
</g>
</g>
<!-- Node11&#45;&gt;Node14 -->
<g id="edge19" class="edge">
<title>Node11&#45;&gt;Node14</title>
<path fill="none" stroke="midnightblue" d="M355.74,-112.32C345.73,-104.26 330.61,-92.08 318.57,-82.37"/>
<polygon fill="midnightblue" stroke="midnightblue" points="320.44,-79.38 310.46,-75.83 316.05,-84.83 320.44,-79.38"/>
</g>
<!-- Node15 -->
<g id="node15" class="node">
<title>Node15</title>
<g id="a_node15"><a xlink:title=" ">
<polygon fill="white" stroke="#bfbfbf" points="335.5,-56.5 335.5,-75.5 397.5,-75.5 397.5,-56.5 335.5,-56.5"/>
<text text-anchor="middle" x="366.5" y="-63.5" font-family="Helvetica,sans-Serif" font-size="10.00">type_traits</text>
</a>
</g>
</g>
<!-- Node11&#45;&gt;Node15 -->
<g id="edge21" class="edge">
<title>Node11&#45;&gt;Node15</title>
<path fill="none" stroke="midnightblue" d="M366.5,-112.08C366.5,-105.01 366.5,-94.86 366.5,-85.99"/>
<polygon fill="midnightblue" stroke="midnightblue" points="370,-85.75 366.5,-75.75 363,-85.75 370,-85.75"/>
</g>
<!-- Node16&#45;&gt;Node4 -->
<g id="edge27" class="edge">
<title>Node16&#45;&gt;Node4</title>
<path fill="none" stroke="midnightblue" d="M529.76,-112.32C544.72,-103.82 567.75,-90.73 585.23,-80.8"/>
<polygon fill="midnightblue" stroke="midnightblue" points="587.31,-83.64 594.27,-75.65 583.85,-77.55 587.31,-83.64"/>
</g>
<!-- Node16&#45;&gt;Node6 -->
<g id="edge26" class="edge">
<title>Node16&#45;&gt;Node6</title>
<path fill="none" stroke="midnightblue" d="M510.56,-112.31C504.01,-98.68 489.66,-72.18 470.5,-56 450.42,-39.04 422.9,-27.22 401.97,-19.96"/>
<polygon fill="midnightblue" stroke="midnightblue" points="402.88,-16.58 392.29,-16.77 400.69,-23.23 402.88,-16.58"/>
</g>
<!-- Node17 -->
<g id="node17" class="node">
<title>Node17</title>
<g id="a_node17"><a xlink:title=" ">
<polygon fill="white" stroke="#bfbfbf" points="649.5,-56.5 649.5,-75.5 687.5,-75.5 687.5,-56.5 649.5,-56.5"/>
<text text-anchor="middle" x="668.5" y="-63.5" font-family="Helvetica,sans-Serif" font-size="10.00">array</text>
</a>
</g>
</g>
<!-- Node16&#45;&gt;Node17 -->
<g id="edge24" class="edge">
<title>Node16&#45;&gt;Node17</title>
<path fill="none" stroke="midnightblue" d="M538.9,-112.44C566.21,-102.87 610.44,-87.36 639.5,-77.17"/>
<polygon fill="midnightblue" stroke="midnightblue" points="640.81,-80.42 649.09,-73.81 638.49,-73.81 640.81,-80.42"/>
</g>
<!-- Node18 -->
<g id="node18" class="node">
<title>Node18</title>
<g id="a_node18"><a xlink:title=" ">
<polygon fill="white" stroke="#bfbfbf" points="517.5,-56.5 517.5,-75.5 569.5,-75.5 569.5,-56.5 517.5,-56.5"/>
<text text-anchor="middle" x="543.5" y="-63.5" font-family="Helvetica,sans-Serif" font-size="10.00">ostream</text>
</a>
</g>
</g>
<!-- Node16&#45;&gt;Node18 -->
<g id="edge25" class="edge">
<title>Node16&#45;&gt;Node18</title>
<path fill="none" stroke="midnightblue" d="M519.29,-112.08C523.26,-104.69 529.03,-93.95 533.93,-84.81"/>
<polygon fill="midnightblue" stroke="midnightblue" points="537.15,-86.22 538.8,-75.75 530.99,-82.91 537.15,-86.22"/>
</g>
<!-- Node19&#45;&gt;Node3 -->
<g id="edge29" class="edge">
<title>Node19&#45;&gt;Node3</title>
<path fill="none" stroke="midnightblue" d="M698.92,-168.08C706.35,-160.22 717.35,-148.57 726.31,-139.08"/>
<polygon fill="midnightblue" stroke="midnightblue" points="728.91,-141.42 733.24,-131.75 723.82,-136.62 728.91,-141.42"/>
</g>
<!-- Node20&#45;&gt;Node6 -->
<g id="edge33" class="edge">
<title>Node20&#45;&gt;Node6</title>
<path fill="none" stroke="midnightblue" d="M30.42,-112.2C32.42,-97.93 38.54,-69.93 56.5,-56 100.52,-21.87 270.63,-13.59 340.88,-11.61"/>
<polygon fill="midnightblue" stroke="midnightblue" points="340.98,-15.11 350.88,-11.35 340.8,-8.11 340.98,-15.11"/>
</g>
<!-- Node20&#45;&gt;Node9 -->
<g id="edge32" class="edge">
<title>Node20&#45;&gt;Node9</title>
<path fill="none" stroke="midnightblue" d="M39.62,-112.32C49.03,-104.26 63.24,-92.08 74.57,-82.37"/>
<polygon fill="midnightblue" stroke="midnightblue" points="76.88,-85 82.19,-75.83 72.32,-79.68 76.88,-85"/>
</g>
<!-- Node21&#45;&gt;Node10 -->
<g id="edge37" class="edge">
<title>Node21&#45;&gt;Node10</title>
<path fill="none" stroke="midnightblue" d="M191.26,-168.08C198.04,-160.3 208.04,-148.8 216.26,-139.37"/>
<polygon fill="midnightblue" stroke="midnightblue" points="218.96,-141.59 222.88,-131.75 213.68,-137 218.96,-141.59"/>
</g>
<!-- Node21&#45;&gt;Node13 -->
<g id="edge35" class="edge">
<title>Node21&#45;&gt;Node13</title>
<path fill="none" stroke="midnightblue" d="M182.09,-168.37C179.18,-150.62 172.48,-109.67 168.54,-85.6"/>
<polygon fill="midnightblue" stroke="midnightblue" points="171.97,-84.89 166.91,-75.59 165.07,-86.03 171.97,-84.89"/>
</g>
<!-- Node22 -->
<g id="node22" class="node">
<title>Node22</title>
<g id="a_node22"><a xlink:title=" ">
<polygon fill="white" stroke="#bfbfbf" points="115.5,-112.5 115.5,-131.5 155.5,-131.5 155.5,-112.5 115.5,-112.5"/>
<text text-anchor="middle" x="135.5" y="-119.5" font-family="Helvetica,sans-Serif" font-size="10.00">limits</text>
</a>
</g>
</g>
<!-- Node21&#45;&gt;Node22 -->
<g id="edge36" class="edge">
<title>Node21&#45;&gt;Node22</title>
<path fill="none" stroke="midnightblue" d="M175.57,-168.08C168.65,-160.3 158.43,-148.8 150.05,-139.37"/>
<polygon fill="midnightblue" stroke="midnightblue" points="152.54,-136.9 143.28,-131.75 147.31,-141.55 152.54,-136.9"/>
</g>
<!-- Node23&#45;&gt;Node4 -->
<g id="edge41" class="edge">
<title>Node23&#45;&gt;Node4</title>
<path fill="none" stroke="midnightblue" d="M838.67,-116.4C798.06,-109.27 718.39,-94.64 641.62,-76.12"/>
<polygon fill="midnightblue" stroke="midnightblue" points="642.33,-72.69 631.79,-73.72 640.68,-79.49 642.33,-72.69"/>
</g>
<!-- Node23&#45;&gt;Node17 -->
<g id="edge39" class="edge">
<title>Node23&#45;&gt;Node17</title>
<path fill="none" stroke="midnightblue" d="M838.93,-114.23C805.74,-105.69 747.25,-90.38 697.5,-76 697.4,-75.97 697.3,-75.94 697.21,-75.91"/>
<polygon fill="midnightblue" stroke="midnightblue" points="698.39,-72.62 687.81,-73.11 696.39,-79.32 698.39,-72.62"/>
</g>
<!-- Node24 -->
<g id="node24" class="node">
<title>Node24</title>
<g id="a_node24"><a xlink:title=" ">
<polygon fill="white" stroke="#bfbfbf" points="845.5,-56.5 845.5,-75.5 885.5,-75.5 885.5,-56.5 845.5,-56.5"/>
<text text-anchor="middle" x="865.5" y="-63.5" font-family="Helvetica,sans-Serif" font-size="10.00">utility</text>
</a>
</g>
</g>
<!-- Node23&#45;&gt;Node24 -->
<g id="edge40" class="edge">
<title>Node23&#45;&gt;Node24</title>
<path fill="none" stroke="midnightblue" d="M865.5,-112.08C865.5,-105.01 865.5,-94.86 865.5,-85.99"/>
<polygon fill="midnightblue" stroke="midnightblue" points="869,-85.75 865.5,-75.75 862,-85.75 869,-85.75"/>
</g>
</g>
</svg>
        <g id="navigator" transform="translate(0 0)" fill="#404254">
                <rect fill="#f2f5e9" fill-opacity="0.5" stroke="#606060" stroke-width=".5" x="0" y="0" width="60" height="60"/>
                <use id="zoomplus" xlink:href="#zoomPlus" x="17" y="9" onmousedown="handleZoom(evt,'in')"/>
                <use id="zoomminus" xlink:href="#zoomMin" x="42" y="9" onmousedown="handleZoom(evt,'out')"/>
                <use id="reset" xlink:href="#resetDef" x="30" y="36" onmousedown="handleReset()"/>
                <g id="arrowUp" xlink:href="#dirArrow" transform="translate(30 24)" onmousedown="handlePan(0,-1)">
                  <use xlink:href="#rim" fill="#404040">
                        <set attributeName="fill" to="#808080" begin="arrowUp.mouseover" end="arrowUp.mouseout"/>
                  </use>
                  <path fill="none" stroke="white" stroke-width="1.5" d="M0,-3.0v7 M-2.5,-0.5L0,-3.0L2.5,-0.5"/>
                </g>
                <g id="arrowRight" xlink:href="#dirArrow" transform="rotate(90) translate(36 -43)" onmousedown="handlePan(1,0)">
                  <use xlink:href="#rim" fill="#404040">
                        <set attributeName="fill" to="#808080" begin="arrowRight.mouseover" end="arrowRight.mouseout"/>
                  </use>
                  <path fill="none" stroke="white" stroke-width="1.5" d="M0,-3.0v7 M-2.5,-0.5L0,-3.0L2.5,-0.5"/>
                </g>
                <g id="arrowDown" xlink:href="#dirArrow" transform="rotate(180) translate(-30 -48)" onmousedown="handlePan(0,1)">
                  <use xlink:href="#rim" fill="#404040">
                        <set attributeName="fill" to="#808080" begin="arrowDown.mouseover" end="arrowDown.mouseout"/>
                  </use>
                  <path fill="none" stroke="white" stroke-width="1.5" d="M0,-3.0v7 M-2.5,-0.5L0,-3.0L2.5,-0.5"/>
                </g>
                <g id="arrowLeft" xlink:href="#dirArrow" transform="rotate(270) translate(-36 17)" onmousedown="handlePan(-1,0)">
                  <use xlink:href="#rim" fill="#404040">
                        <set attributeName="fill" to="#808080" begin="arrowLeft.mouseover" end="arrowLeft.mouseout"/>
                  </use>
                  <path fill="none" stroke="white" stroke-width="1.5" d="M0,-3.0v7 M-2.5,-0.5L0,-3.0L2.5,-0.5"/>
                </g>
        </g>
        <svg viewBox="0 0 15 15" width="100%" height="30px" preserveAspectRatio="xMaxYMin meet">
         <g id="arrow_out" transform="scale(0.3 0.3)">
          <a xlink:href="Gahm_8cpp__incl_org.svg" target="_base">
           <rect id="button" ry="5" rx="5" y="6" x="6" height="38" width="38"
                fill="#f2f5e9" fill-opacity="0.5" stroke="#606060" stroke-width="1.0"/>
           <path id="arrow"
             d="M 11.500037,31.436501 C 11.940474,20.09759 22.043105,11.32322 32.158766,21.979434 L 37.068811,17.246167 C 37.068811,17.246167 37.088388,32 37.088388,32 L 22.160133,31.978069 C 22.160133,31.978069 26.997745,27.140456 26.997745,27.140456 C 18.528582,18.264221 13.291696,25.230495 11.500037,31.436501 z"
             style="fill:#404040;"/>
          </a>
         </g>
        </svg>
</svg>
