<?xml version="1.0" encoding="UTF-8" standalone="no"?>
<!DOCTYPE svg PUBLIC "-//W3C//DTD SVG 1.1//EN"
 "http://www.w3.org/Graphics/SVG/1.1/DTD/svg11.dtd">
<!-- Generated by graphviz version 2.47.1 (20210417.1919)
 -->
<!-- Title: Gahm.h Pages: 1 -->
<svg width="756pt" height="308pt"
 viewBox="0.00 0.00 756.23 308.00" xmlns="http://www.w3.org/2000/svg" xmlns:xlink="http://www.w3.org/1999/xlink">
<g id="graph0" class="graph" transform="scale(1 1) rotate(0) translate(4 304)">
<title>Gahm.h</title>
<polygon fill="white" stroke="transparent" points="-4,4 -4,-304 752.23,-304 752.23,4 -4,4"/>
<!-- Node1 -->
<g id="node1" class="node">
<title>Node1</title>
<g id="a_node1"><a xlink:title=" ">
<polygon fill="#bfbfbf" stroke="black" points="125.6,-280.5 125.6,-299.5 176.6,-299.5 176.6,-280.5 125.6,-280.5"/>
<text text-anchor="middle" x="151.1" y="-287.5" font-family="Helvetica,sans-Serif" font-size="10.00">Gahm.h</text>
</a>
</g>
</g>
<!-- Node2 -->
<g id="node2" class="node">
<title>Node2</title>
<g id="a_node2"><a xlink:title=" ">
<polygon fill="white" stroke="#bfbfbf" points="311.1,-56.5 311.1,-75.5 349.1,-75.5 349.1,-56.5 311.1,-56.5"/>
<text text-anchor="middle" x="330.1" y="-63.5" font-family="Helvetica,sans-Serif" font-size="10.00">array</text>
</a>
</g>
</g>
<!-- Node1&#45;&gt;Node2 -->
<g id="edge1" class="edge">
<title>Node1&#45;&gt;Node2</title>
<path fill="none" stroke="midnightblue" d="M176.62,-286.65C226.37,-280.53 335.5,-259.24 382.1,-188 391.84,-173.12 382.5,-134.63 371.1,-112 365.56,-100.98 356.55,-90.66 348.38,-82.69"/>
<polygon fill="midnightblue" stroke="midnightblue" points="350.68,-80.04 340.96,-75.82 345.92,-85.18 350.68,-80.04"/>
</g>
<!-- Node3 -->
<g id="node3" class="node">
<title>Node3</title>
<g id="a_node3"><a xlink:title=" ">
<polygon fill="white" stroke="#bfbfbf" points="92.1,-224.5 92.1,-243.5 144.1,-243.5 144.1,-224.5 92.1,-224.5"/>
<text text-anchor="middle" x="118.1" y="-231.5" font-family="Helvetica,sans-Serif" font-size="10.00">memory</text>
</a>
</g>
</g>
<!-- Node1&#45;&gt;Node3 -->
<g id="edge2" class="edge">
<title>Node1&#45;&gt;Node3</title>
<path fill="none" stroke="midnightblue" d="M145.66,-280.08C141.09,-272.61 134.44,-261.72 128.81,-252.52"/>
<polygon fill="midnightblue" stroke="midnightblue" points="131.65,-250.46 123.45,-243.75 125.68,-254.11 131.65,-250.46"/>
</g>
<!-- Node4 -->
<g id="node4" class="node">
<title>Node4</title>
<g id="a_node4"><a xlink:href="Assumptions_8h.html" target="_top" xlink:title=" ">
<polygon fill="white" stroke="black" points="43.1,-112.5 43.1,-131.5 125.1,-131.5 125.1,-112.5 43.1,-112.5"/>
<text text-anchor="middle" x="84.1" y="-119.5" font-family="Helvetica,sans-Serif" font-size="10.00">Assumptions.h</text>
</a>
</g>
</g>
<!-- Node1&#45;&gt;Node4 -->
<g id="edge3" class="edge">
<title>Node1&#45;&gt;Node4</title>
<path fill="none" stroke="midnightblue" d="M125.97,-280.49C90.93,-267.09 28.82,-237.39 3.1,-188 -9.24,-164.28 19.89,-146.23 46.6,-135.24"/>
<polygon fill="midnightblue" stroke="midnightblue" points="48.18,-138.38 56.24,-131.52 45.65,-131.85 48.18,-138.38"/>
</g>
<!-- Node8 -->
<g id="node8" class="node">
<title>Node8</title>
<g id="a_node8"><a xlink:href="Atcf_8h.html" target="_top" xlink:title=" ">
<polygon fill="white" stroke="black" points="162.6,-224.5 162.6,-243.5 205.6,-243.5 205.6,-224.5 162.6,-224.5"/>
<text text-anchor="middle" x="184.1" y="-231.5" font-family="Helvetica,sans-Serif" font-size="10.00">Atcf.h</text>
</a>
</g>
</g>
<!-- Node1&#45;&gt;Node8 -->
<g id="edge7" class="edge">
<title>Node1&#45;&gt;Node8</title>
<path fill="none" stroke="midnightblue" d="M156.55,-280.08C161.12,-272.61 167.77,-261.72 173.4,-252.52"/>
<polygon fill="midnightblue" stroke="midnightblue" points="176.53,-254.11 178.76,-243.75 170.56,-250.46 176.53,-254.11"/>
</g>
<!-- Node5 -->
<g id="node5" class="node">
<title>Node5</title>
<g id="a_node5"><a xlink:title=" ">
<polygon fill="white" stroke="#bfbfbf" points="141.1,-56.5 141.1,-75.5 185.1,-75.5 185.1,-56.5 141.1,-56.5"/>
<text text-anchor="middle" x="163.1" y="-63.5" font-family="Helvetica,sans-Serif" font-size="10.00">vector</text>
</a>
</g>
</g>
<!-- Node4&#45;&gt;Node5 -->
<g id="edge4" class="edge">
<title>Node4&#45;&gt;Node5</title>
<path fill="none" stroke="midnightblue" d="M96.8,-112.32C109.01,-103.98 127.68,-91.21 142.11,-81.35"/>
<polygon fill="midnightblue" stroke="midnightblue" points="144.16,-84.19 150.44,-75.65 140.21,-78.41 144.16,-84.19"/>
</g>
<!-- Node6 -->
<g id="node6" class="node">
<title>Node6</title>
<g id="a_node6"><a xlink:href="Assumption_8h.html" target="_top" xlink:title=" ">
<polygon fill="white" stroke="black" points="45.6,-56.5 45.6,-75.5 122.6,-75.5 122.6,-56.5 45.6,-56.5"/>
<text text-anchor="middle" x="84.1" y="-63.5" font-family="Helvetica,sans-Serif" font-size="10.00">Assumption.h</text>
</a>
</g>
</g>
<!-- Node4&#45;&gt;Node6 -->
<g id="edge5" class="edge">
<title>Node4&#45;&gt;Node6</title>
<path fill="none" stroke="midnightblue" d="M84.1,-112.08C84.1,-105.01 84.1,-94.86 84.1,-85.99"/>
<polygon fill="midnightblue" stroke="midnightblue" points="87.6,-85.75 84.1,-75.75 80.6,-85.75 87.6,-85.75"/>
</g>
<!-- Node7 -->
<g id="node7" class="node">
<title>Node7</title>
<g id="a_node7"><a xlink:title=" ">
<polygon fill="white" stroke="#bfbfbf" points="428.6,-0.5 428.6,-19.5 469.6,-19.5 469.6,-0.5 428.6,-0.5"/>
<text text-anchor="middle" x="449.1" y="-7.5" font-family="Helvetica,sans-Serif" font-size="10.00">string</text>
</a>
</g>
</g>
<!-- Node6&#45;&gt;Node7 -->
<g id="edge6" class="edge">
<title>Node6&#45;&gt;Node7</title>
<path fill="none" stroke="midnightblue" d="M122.85,-57.58C125.98,-57.03 129.09,-56.5 132.1,-56 236.7,-38.78 361.38,-22.24 418.17,-14.93"/>
<polygon fill="midnightblue" stroke="midnightblue" points="418.81,-18.37 428.29,-13.63 417.92,-11.43 418.81,-18.37"/>
</g>
<!-- Node8&#45;&gt;Node4 -->
<g id="edge10" class="edge">
<title>Node8&#45;&gt;Node4</title>
<path fill="none" stroke="midnightblue" d="M176.84,-224.48C166.12,-211.97 145.35,-187.93 127.1,-168 118.15,-158.22 107.89,-147.47 99.64,-138.93"/>
<polygon fill="midnightblue" stroke="midnightblue" points="101.93,-136.26 92.46,-131.52 96.91,-141.14 101.93,-136.26"/>
</g>
<!-- Node8&#45;&gt;Node5 -->
<g id="edge9" class="edge">
<title>Node8&#45;&gt;Node5</title>
<path fill="none" stroke="midnightblue" d="M182.98,-224.08C179.67,-197.95 169.96,-121.21 165.45,-85.58"/>
<polygon fill="midnightblue" stroke="midnightblue" points="168.92,-85.05 164.19,-75.57 161.97,-85.93 168.92,-85.05"/>
</g>
<!-- Node8&#45;&gt;Node7 -->
<g id="edge8" class="edge">
<title>Node8&#45;&gt;Node7</title>
<path fill="none" stroke="midnightblue" d="M205.88,-230.6C301.45,-219.56 681.82,-170.09 744.1,-76 749.01,-68.59 749.9,-62.74 744.1,-56 710.3,-16.65 548.82,-11.33 480.14,-10.87"/>
<polygon fill="midnightblue" stroke="midnightblue" points="479.96,-7.37 469.94,-10.84 479.93,-14.37 479.96,-7.37"/>
</g>
<!-- Node9 -->
<g id="node9" class="node">
<title>Node9</title>
<g id="a_node9"><a xlink:href="AtcfLine_8h.html" target="_top" xlink:title=" ">
<polygon fill="white" stroke="black" points="311.6,-168.5 311.6,-187.5 372.6,-187.5 372.6,-168.5 311.6,-168.5"/>
<text text-anchor="middle" x="342.1" y="-175.5" font-family="Helvetica,sans-Serif" font-size="10.00">AtcfLine.h</text>
</a>
</g>
</g>
<!-- Node8&#45;&gt;Node9 -->
<g id="edge11" class="edge">
<title>Node8&#45;&gt;Node9</title>
<path fill="none" stroke="midnightblue" d="M205.74,-225.6C231.98,-216.64 276.52,-201.41 307.53,-190.82"/>
<polygon fill="midnightblue" stroke="midnightblue" points="308.75,-194.1 317.09,-187.55 306.49,-187.47 308.75,-194.1"/>
</g>
<!-- Node19 -->
<g id="node19" class="node">
<title>Node19</title>
<g id="a_node19"><a xlink:href="HurricanePressure_8h.html" target="_top" xlink:title=" ">
<polygon fill="white" stroke="black" points="12.1,-168.5 12.1,-187.5 118.1,-187.5 118.1,-168.5 12.1,-168.5"/>
<text text-anchor="middle" x="65.1" y="-175.5" font-family="Helvetica,sans-Serif" font-size="10.00">HurricanePressure.h</text>
</a>
</g>
</g>
<!-- Node8&#45;&gt;Node19 -->
<g id="edge30" class="edge">
<title>Node8&#45;&gt;Node19</title>
<path fill="none" stroke="midnightblue" d="M165.25,-224.44C145.84,-215.64 115.37,-201.81 93.14,-191.72"/>
<polygon fill="midnightblue" stroke="midnightblue" points="94.42,-188.46 83.87,-187.52 91.53,-194.84 94.42,-188.46"/>
</g>
<!-- Node9&#45;&gt;Node2 -->
<g id="edge12" class="edge">
<title>Node9&#45;&gt;Node2</title>
<path fill="none" stroke="midnightblue" d="M346.97,-168.11C353.21,-155.53 362.61,-131.87 357.1,-112 354.31,-101.92 348.6,-91.83 343.14,-83.77"/>
<polygon fill="midnightblue" stroke="midnightblue" points="345.95,-81.69 337.26,-75.64 340.28,-85.79 345.95,-81.69"/>
</g>
<!-- Node9&#45;&gt;Node5 -->
<g id="edge16" class="edge">
<title>Node9&#45;&gt;Node5</title>
<path fill="none" stroke="midnightblue" d="M311.32,-169.02C286.89,-161.78 252.57,-149.55 226.1,-132 206.15,-118.77 187.63,-98.26 175.91,-83.82"/>
<polygon fill="midnightblue" stroke="midnightblue" points="178.47,-81.43 169.53,-75.74 172.98,-85.76 178.47,-81.43"/>
</g>
<!-- Node9&#45;&gt;Node7 -->
<g id="edge14" class="edge">
<title>Node9&#45;&gt;Node7</title>
<path fill="none" stroke="midnightblue" d="M372.9,-171.21C460.51,-154.41 706.26,-105.08 728.1,-76 733.44,-68.89 733.87,-62.77 728.1,-56 696.46,-18.85 545.53,-12.26 479.81,-11.17"/>
<polygon fill="midnightblue" stroke="midnightblue" points="479.7,-7.67 469.66,-11.04 479.61,-14.67 479.7,-7.67"/>
</g>
<!-- Node10 -->
<g id="node10" class="node">
<title>Node10</title>
<g id="a_node10"><a xlink:title=" ">
<polygon fill="white" stroke="#bfbfbf" points="367.1,-56.5 367.1,-75.5 421.1,-75.5 421.1,-56.5 367.1,-56.5"/>
<text text-anchor="middle" x="394.1" y="-63.5" font-family="Helvetica,sans-Serif" font-size="10.00">iostream</text>
</a>
</g>
</g>
<!-- Node9&#45;&gt;Node10 -->
<g id="edge13" class="edge">
<title>Node9&#45;&gt;Node10</title>
<path fill="none" stroke="midnightblue" d="M348.52,-168.39C354.86,-159.59 364.55,-145.35 371.1,-132 378.52,-116.89 384.73,-98.77 388.82,-85.5"/>
<polygon fill="midnightblue" stroke="midnightblue" points="392.25,-86.25 391.74,-75.67 385.54,-84.26 392.25,-86.25"/>
</g>
<!-- Node11 -->
<g id="node11" class="node">
<title>Node11</title>
<g id="a_node11"><a xlink:title=" ">
<polygon fill="white" stroke="#bfbfbf" points="310.1,-112.5 310.1,-131.5 348.1,-131.5 348.1,-112.5 310.1,-112.5"/>
<text text-anchor="middle" x="329.1" y="-119.5" font-family="Helvetica,sans-Serif" font-size="10.00">tuple</text>
</a>
</g>
</g>
<!-- Node9&#45;&gt;Node11 -->
<g id="edge15" class="edge">
<title>Node9&#45;&gt;Node11</title>
<path fill="none" stroke="midnightblue" d="M339.96,-168.08C338.24,-160.93 335.76,-150.64 333.6,-141.69"/>
<polygon fill="midnightblue" stroke="midnightblue" points="336.95,-140.65 331.21,-131.75 330.15,-142.29 336.95,-140.65"/>
</g>
<!-- Node12 -->
<g id="node12" class="node">
<title>Node12</title>
<g id="a_node12"><a xlink:href="Date_8h.html" target="_top" xlink:title=" ">
<polygon fill="white" stroke="black" points="480.1,-112.5 480.1,-131.5 526.1,-131.5 526.1,-112.5 480.1,-112.5"/>
<text text-anchor="middle" x="503.1" y="-119.5" font-family="Helvetica,sans-Serif" font-size="10.00">Date.h</text>
</a>
</g>
</g>
<!-- Node9&#45;&gt;Node12 -->
<g id="edge17" class="edge">
<title>Node9&#45;&gt;Node12</title>
<path fill="none" stroke="midnightblue" d="M367.62,-168.44C395.42,-159.12 439.98,-144.17 470.35,-133.99"/>
<polygon fill="midnightblue" stroke="midnightblue" points="471.69,-137.23 480.06,-130.73 469.47,-130.59 471.69,-137.23"/>
</g>
<!-- Node17 -->
<g id="node17" class="node">
<title>Node17</title>
<g id="a_node17"><a xlink:href="Isotach_8h.html" target="_top" xlink:title=" ">
<polygon fill="white" stroke="black" points="234.6,-112.5 234.6,-131.5 291.6,-131.5 291.6,-112.5 234.6,-112.5"/>
<text text-anchor="middle" x="263.1" y="-119.5" font-family="Helvetica,sans-Serif" font-size="10.00">Isotach.h</text>
</a>
</g>
</g>
<!-- Node9&#45;&gt;Node17 -->
<g id="edge25" class="edge">
<title>Node9&#45;&gt;Node17</title>
<path fill="none" stroke="midnightblue" d="M329.41,-168.32C317.2,-159.98 298.53,-147.21 284.1,-137.35"/>
<polygon fill="midnightblue" stroke="midnightblue" points="286,-134.41 275.77,-131.65 282.05,-140.19 286,-134.41"/>
</g>
<!-- Node12&#45;&gt;Node5 -->
<g id="edge24" class="edge">
<title>Node12&#45;&gt;Node5</title>
<path fill="none" stroke="midnightblue" d="M480,-117.33C420.84,-107.93 263.75,-82.99 195.51,-72.15"/>
<polygon fill="midnightblue" stroke="midnightblue" points="195.77,-68.64 185.35,-70.53 194.68,-75.56 195.77,-68.64"/>
</g>
<!-- Node12&#45;&gt;Node7 -->
<g id="edge22" class="edge">
<title>Node12&#45;&gt;Node7</title>
<path fill="none" stroke="midnightblue" d="M494.77,-112.39C486.89,-103.8 475.22,-89.92 468.1,-76 460.58,-61.28 455.59,-43.12 452.62,-29.74"/>
<polygon fill="midnightblue" stroke="midnightblue" points="456.02,-28.9 450.59,-19.8 449.16,-30.3 456.02,-28.9"/>
</g>
<!-- Node12&#45;&gt;Node10 -->
<g id="edge20" class="edge">
<title>Node12&#45;&gt;Node10</title>
<path fill="none" stroke="midnightblue" d="M485.59,-112.32C468.03,-103.62 440.77,-90.12 420.57,-80.11"/>
<polygon fill="midnightblue" stroke="midnightblue" points="422.09,-76.96 411.57,-75.65 418.98,-83.23 422.09,-76.96"/>
</g>
<!-- Node13 -->
<g id="node13" class="node">
<title>Node13</title>
<g id="a_node13"><a xlink:title=" ">
<polygon fill="white" stroke="#bfbfbf" points="673.1,-56.5 673.1,-75.5 719.1,-75.5 719.1,-56.5 673.1,-56.5"/>
<text text-anchor="middle" x="696.1" y="-63.5" font-family="Helvetica,sans-Serif" font-size="10.00">chrono</text>
</a>
</g>
</g>
<!-- Node12&#45;&gt;Node13 -->
<g id="edge18" class="edge">
<title>Node12&#45;&gt;Node13</title>
<path fill="none" stroke="midnightblue" d="M526.3,-114.53C555.82,-106.29 608.64,-91.54 663.19,-76.25"/>
<polygon fill="midnightblue" stroke="midnightblue" points="664.35,-79.56 673.03,-73.49 662.46,-72.82 664.35,-79.56"/>
</g>
<!-- Node14 -->
<g id="node14" class="node">
<title>Node14</title>
<g id="a_node14"><a xlink:title=" ">
<polygon fill="white" stroke="#bfbfbf" points="477.1,-56.5 477.1,-75.5 521.1,-75.5 521.1,-56.5 477.1,-56.5"/>
<text text-anchor="middle" x="499.1" y="-63.5" font-family="Helvetica,sans-Serif" font-size="10.00">cmath</text>
</a>
</g>
</g>
<!-- Node12&#45;&gt;Node14 -->
<g id="edge19" class="edge">
<title>Node12&#45;&gt;Node14</title>
<path fill="none" stroke="midnightblue" d="M502.44,-112.08C501.92,-105.01 501.17,-94.86 500.51,-85.99"/>
<polygon fill="midnightblue" stroke="midnightblue" points="503.98,-85.47 499.75,-75.75 497,-85.98 503.98,-85.47"/>
</g>
<!-- Node15 -->
<g id="node15" class="node">
<title>Node15</title>
<g id="a_node15"><a xlink:title=" ">
<polygon fill="white" stroke="#bfbfbf" points="539.6,-56.5 539.6,-75.5 574.6,-75.5 574.6,-56.5 539.6,-56.5"/>
<text text-anchor="middle" x="557.1" y="-63.5" font-family="Helvetica,sans-Serif" font-size="10.00">ratio</text>
</a>
</g>
</g>
<!-- Node12&#45;&gt;Node15 -->
<g id="edge21" class="edge">
<title>Node12&#45;&gt;Node15</title>
<path fill="none" stroke="midnightblue" d="M512.02,-112.08C519.88,-104.22 531.54,-92.57 541.02,-83.08"/>
<polygon fill="midnightblue" stroke="midnightblue" points="543.76,-85.3 548.35,-75.75 538.81,-80.35 543.76,-85.3"/>
</g>
<!-- Node16 -->
<g id="node16" class="node">
<title>Node16</title>
<g id="a_node16"><a xlink:title=" ">
<polygon fill="white" stroke="#bfbfbf" points="593.1,-56.5 593.1,-75.5 655.1,-75.5 655.1,-56.5 593.1,-56.5"/>
<text text-anchor="middle" x="624.1" y="-63.5" font-family="Helvetica,sans-Serif" font-size="10.00">type_traits</text>
</a>
</g>
</g>
<!-- Node12&#45;&gt;Node16 -->
<g id="edge23" class="edge">
<title>Node12&#45;&gt;Node16</title>
<path fill="none" stroke="midnightblue" d="M522.28,-112.44C542.01,-103.64 572.99,-89.81 595.6,-79.72"/>
<polygon fill="midnightblue" stroke="midnightblue" points="597.32,-82.79 605.02,-75.52 594.46,-76.4 597.32,-82.79"/>
</g>
<!-- Node17&#45;&gt;Node2 -->
<g id="edge26" class="edge">
<title>Node17&#45;&gt;Node2</title>
<path fill="none" stroke="midnightblue" d="M273.87,-112.32C283.87,-104.26 298.99,-92.08 311.03,-82.37"/>
<polygon fill="midnightblue" stroke="midnightblue" points="313.55,-84.83 319.14,-75.83 309.16,-79.38 313.55,-84.83"/>
</g>
<!-- Node17&#45;&gt;Node5 -->
<g id="edge29" class="edge">
<title>Node17&#45;&gt;Node5</title>
<path fill="none" stroke="midnightblue" d="M247.04,-112.32C231.15,-103.74 206.6,-90.49 188.15,-80.52"/>
<polygon fill="midnightblue" stroke="midnightblue" points="189.59,-77.33 179.13,-75.65 186.27,-83.49 189.59,-77.33"/>
</g>
<!-- Node17&#45;&gt;Node7 -->
<g id="edge28" class="edge">
<title>Node17&#45;&gt;Node7</title>
<path fill="none" stroke="midnightblue" d="M253.23,-112.27C239.47,-99.06 217.74,-73.65 232.1,-56 255.27,-27.53 364.43,-16.5 418.54,-12.73"/>
<polygon fill="midnightblue" stroke="midnightblue" points="418.84,-16.22 428.59,-12.07 418.38,-9.23 418.84,-16.22"/>
</g>
<!-- Node18 -->
<g id="node18" class="node">
<title>Node18</title>
<g id="a_node18"><a xlink:title=" ">
<polygon fill="white" stroke="#bfbfbf" points="241.1,-56.5 241.1,-75.5 293.1,-75.5 293.1,-56.5 241.1,-56.5"/>
<text text-anchor="middle" x="267.1" y="-63.5" font-family="Helvetica,sans-Serif" font-size="10.00">ostream</text>
</a>
</g>
</g>
<!-- Node17&#45;&gt;Node18 -->
<g id="edge27" class="edge">
<title>Node17&#45;&gt;Node18</title>
<path fill="none" stroke="midnightblue" d="M263.76,-112.08C264.29,-105.01 265.04,-94.86 265.7,-85.99"/>
<polygon fill="midnightblue" stroke="midnightblue" points="269.21,-85.98 266.46,-75.75 262.23,-85.47 269.21,-85.98"/>
</g>
<!-- Node19&#45;&gt;Node4 -->
<g id="edge31" class="edge">
<title>Node19&#45;&gt;Node4</title>
<path fill="none" stroke="midnightblue" d="M68.24,-168.08C70.79,-160.85 74.46,-150.41 77.63,-141.4"/>
<polygon fill="midnightblue" stroke="midnightblue" points="81.01,-142.35 81.03,-131.75 74.4,-140.02 81.01,-142.35"/>
</g>
</g>
</svg>
