<?xml version="1.0" encoding="UTF-8" standalone="no"?>
<!DOCTYPE svg PUBLIC "-//W3C//DTD SVG 1.1//EN"
 "http://www.w3.org/Graphics/SVG/1.1/DTD/svg11.dtd">
<!-- Generated by graphviz version 2.47.1 (20210417.1919)
 -->
<!-- Title: Gahm.cpp Pages: 1 -->
<svg width="915pt" height="364pt"
 viewBox="0.00 0.00 915.39 364.00" xmlns="http://www.w3.org/2000/svg" xmlns:xlink="http://www.w3.org/1999/xlink">
<g id="graph0" class="graph" transform="scale(1 1) rotate(0) translate(4 360)">
<title>Gahm.cpp</title>
<polygon fill="white" stroke="transparent" points="-4,4 -4,-360 911.39,-360 911.39,4 -4,4"/>
<!-- Node1 -->
<g id="node1" class="node">
<title>Node1</title>
<g id="a_node1"><a xlink:title=" ">
<polygon fill="#bfbfbf" stroke="black" points="442.89,-336.5 442.89,-355.5 504.89,-355.5 504.89,-336.5 442.89,-336.5"/>
<text text-anchor="middle" x="473.89" y="-343.5" font-family="Helvetica,sans-Serif" font-size="10.00">Gahm.cpp</text>
</a>
</g>
</g>
<!-- Node2 -->
<g id="node2" class="node">
<title>Node2</title>
<g id="a_node2"><a xlink:href="Gahm_8h.html" target="_top" xlink:title=" ">
<polygon fill="white" stroke="black" points="222.39,-280.5 222.39,-299.5 273.39,-299.5 273.39,-280.5 222.39,-280.5"/>
<text text-anchor="middle" x="247.89" y="-287.5" font-family="Helvetica,sans-Serif" font-size="10.00">Gahm.h</text>
</a>
</g>
</g>
<!-- Node1&#45;&gt;Node2 -->
<g id="edge1" class="edge">
<title>Node1&#45;&gt;Node2</title>
<path fill="none" stroke="midnightblue" d="M442.47,-337.49C400.7,-327.51 327.09,-309.92 283.37,-299.48"/>
<polygon fill="midnightblue" stroke="midnightblue" points="284,-296.03 273.46,-297.11 282.37,-302.84 284,-296.03"/>
</g>
<!-- Node11 -->
<g id="node11" class="node">
<title>Node11</title>
<g id="a_node11"><a xlink:title=" ">
<polygon fill="white" stroke="#bfbfbf" points="789.89,-56.5 789.89,-75.5 843.89,-75.5 843.89,-56.5 789.89,-56.5"/>
<text text-anchor="middle" x="816.89" y="-63.5" font-family="Helvetica,sans-Serif" font-size="10.00">iostream</text>
</a>
</g>
</g>
<!-- Node1&#45;&gt;Node11 -->
<g id="edge33" class="edge">
<title>Node1&#45;&gt;Node11</title>
<path fill="none" stroke="midnightblue" d="M504.9,-341.87C589.83,-332.43 819.89,-300.79 819.89,-235 819.89,-235 819.89,-235 819.89,-177 819.89,-144.94 818.6,-107.63 817.72,-85.74"/>
<polygon fill="midnightblue" stroke="midnightblue" points="821.2,-85.4 817.29,-75.56 814.21,-85.69 821.2,-85.4"/>
</g>
<!-- Node21 -->
<g id="node21" class="node">
<title>Node21</title>
<g id="a_node21"><a xlink:title=" ">
<polygon fill="white" stroke="#bfbfbf" points="345.89,-224.5 345.89,-243.5 385.89,-243.5 385.89,-224.5 345.89,-224.5"/>
<text text-anchor="middle" x="365.89" y="-231.5" font-family="Helvetica,sans-Serif" font-size="10.00">utility</text>
</a>
</g>
</g>
<!-- Node1&#45;&gt;Node21 -->
<g id="edge34" class="edge">
<title>Node1&#45;&gt;Node21</title>
<path fill="none" stroke="midnightblue" d="M455.84,-336.45C440.63,-328.58 418.99,-315.75 403.89,-300 390.77,-286.31 380.32,-267.27 373.73,-253.34"/>
<polygon fill="midnightblue" stroke="midnightblue" points="376.75,-251.53 369.46,-243.85 370.37,-254.4 376.75,-251.53"/>
</g>
<!-- Node22 -->
<g id="node22" class="node">
<title>Node22</title>
<g id="a_node22"><a xlink:href="Logging_8h.html" target="_top" xlink:title=" ">
<polygon fill="white" stroke="black" points="848.39,-112.5 848.39,-131.5 907.39,-131.5 907.39,-112.5 848.39,-112.5"/>
<text text-anchor="middle" x="877.89" y="-119.5" font-family="Helvetica,sans-Serif" font-size="10.00">Logging.h</text>
</a>
</g>
</g>
<!-- Node1&#45;&gt;Node22 -->
<g id="edge35" class="edge">
<title>Node1&#45;&gt;Node22</title>
<path fill="none" stroke="midnightblue" d="M505.03,-345.45C583.31,-345.94 785.54,-342.9 833.89,-300 879.84,-259.23 881.42,-178.6 879.49,-141.94"/>
<polygon fill="midnightblue" stroke="midnightblue" points="882.96,-141.43 878.79,-131.69 875.98,-141.9 882.96,-141.43"/>
</g>
<!-- Node23 -->
<g id="node23" class="node">
<title>Node23</title>
<g id="a_node23"><a xlink:href="Physical_8h.html" target="_top" xlink:title=" ">
<polygon fill="white" stroke="black" points="668.89,-168.5 668.89,-187.5 730.89,-187.5 730.89,-168.5 668.89,-168.5"/>
<text text-anchor="middle" x="699.89" y="-175.5" font-family="Helvetica,sans-Serif" font-size="10.00">Physical.h</text>
</a>
</g>
</g>
<!-- Node1&#45;&gt;Node23 -->
<g id="edge38" class="edge">
<title>Node1&#45;&gt;Node23</title>
<path fill="none" stroke="midnightblue" d="M485.73,-336.31C522.34,-309.42 634.06,-227.35 679.93,-193.67"/>
<polygon fill="midnightblue" stroke="midnightblue" points="682.19,-196.35 688.18,-187.61 678.05,-190.7 682.19,-196.35"/>
</g>
<!-- Node25 -->
<g id="node25" class="node">
<title>Node25</title>
<g id="a_node25"><a xlink:href="Vortex_8h.html" target="_top" xlink:title=" ">
<polygon fill="white" stroke="black" points="413.39,-280.5 413.39,-299.5 466.39,-299.5 466.39,-280.5 413.39,-280.5"/>
<text text-anchor="middle" x="439.89" y="-287.5" font-family="Helvetica,sans-Serif" font-size="10.00">Vortex.h</text>
</a>
</g>
</g>
<!-- Node1&#45;&gt;Node25 -->
<g id="edge42" class="edge">
<title>Node1&#45;&gt;Node25</title>
<path fill="none" stroke="midnightblue" d="M468.28,-336.08C463.53,-328.53 456.58,-317.49 450.74,-308.23"/>
<polygon fill="midnightblue" stroke="midnightblue" points="453.69,-306.35 445.4,-299.75 447.77,-310.08 453.69,-306.35"/>
</g>
<!-- Node3 -->
<g id="node3" class="node">
<title>Node3</title>
<g id="a_node3"><a xlink:title=" ">
<polygon fill="white" stroke="#bfbfbf" points="394.89,-56.5 394.89,-75.5 432.89,-75.5 432.89,-56.5 394.89,-56.5"/>
<text text-anchor="middle" x="413.89" y="-63.5" font-family="Helvetica,sans-Serif" font-size="10.00">array</text>
</a>
</g>
</g>
<!-- Node2&#45;&gt;Node3 -->
<g id="edge2" class="edge">
<title>Node2&#45;&gt;Node3</title>
<path fill="none" stroke="midnightblue" d="M248.65,-280.23C250.16,-266.96 254.56,-241.49 266.89,-224 307.06,-167.04 353.33,-188.68 393.89,-132 403.66,-118.35 408.75,-99.81 411.34,-86.02"/>
<polygon fill="midnightblue" stroke="midnightblue" points="414.86,-86.2 412.98,-75.77 407.95,-85.1 414.86,-86.2"/>
</g>
<!-- Node4 -->
<g id="node4" class="node">
<title>Node4</title>
<g id="a_node4"><a xlink:title=" ">
<polygon fill="white" stroke="#bfbfbf" points="275.89,-224.5 275.89,-243.5 327.89,-243.5 327.89,-224.5 275.89,-224.5"/>
<text text-anchor="middle" x="301.89" y="-231.5" font-family="Helvetica,sans-Serif" font-size="10.00">memory</text>
</a>
</g>
</g>
<!-- Node2&#45;&gt;Node4 -->
<g id="edge3" class="edge">
<title>Node2&#45;&gt;Node4</title>
<path fill="none" stroke="midnightblue" d="M256.81,-280.08C264.67,-272.22 276.32,-260.57 285.81,-251.08"/>
<polygon fill="midnightblue" stroke="midnightblue" points="288.55,-253.3 293.14,-243.75 283.6,-248.35 288.55,-253.3"/>
</g>
<!-- Node5 -->
<g id="node5" class="node">
<title>Node5</title>
<g id="a_node5"><a xlink:href="Assumptions_8h.html" target="_top" xlink:title=" ">
<polygon fill="white" stroke="black" points="75.89,-112.5 75.89,-131.5 157.89,-131.5 157.89,-112.5 75.89,-112.5"/>
<text text-anchor="middle" x="116.89" y="-119.5" font-family="Helvetica,sans-Serif" font-size="10.00">Assumptions.h</text>
</a>
</g>
</g>
<!-- Node2&#45;&gt;Node5 -->
<g id="edge4" class="edge">
<title>Node2&#45;&gt;Node5</title>
<path fill="none" stroke="midnightblue" d="M222.3,-287.23C170.63,-282.12 54.6,-262.48 4.89,-188 -13.84,-159.93 27.89,-142.43 65.63,-132.76"/>
<polygon fill="midnightblue" stroke="midnightblue" points="66.7,-136.1 75.6,-130.35 65.06,-129.3 66.7,-136.1"/>
</g>
<!-- Node9 -->
<g id="node9" class="node">
<title>Node9</title>
<g id="a_node9"><a xlink:href="Atcf_8h.html" target="_top" xlink:title=" ">
<polygon fill="white" stroke="black" points="170.39,-224.5 170.39,-243.5 213.39,-243.5 213.39,-224.5 170.39,-224.5"/>
<text text-anchor="middle" x="191.89" y="-231.5" font-family="Helvetica,sans-Serif" font-size="10.00">Atcf.h</text>
</a>
</g>
</g>
<!-- Node2&#45;&gt;Node9 -->
<g id="edge8" class="edge">
<title>Node2&#45;&gt;Node9</title>
<path fill="none" stroke="midnightblue" d="M238.9,-280.32C230.7,-272.42 218.39,-260.55 208.42,-250.94"/>
<polygon fill="midnightblue" stroke="midnightblue" points="210.68,-248.26 201.05,-243.83 205.82,-253.29 210.68,-248.26"/>
</g>
<!-- Node6 -->
<g id="node6" class="node">
<title>Node6</title>
<g id="a_node6"><a xlink:title=" ">
<polygon fill="white" stroke="#bfbfbf" points="224.89,-56.5 224.89,-75.5 268.89,-75.5 268.89,-56.5 224.89,-56.5"/>
<text text-anchor="middle" x="246.89" y="-63.5" font-family="Helvetica,sans-Serif" font-size="10.00">vector</text>
</a>
</g>
</g>
<!-- Node5&#45;&gt;Node6 -->
<g id="edge5" class="edge">
<title>Node5&#45;&gt;Node6</title>
<path fill="none" stroke="midnightblue" d="M137.49,-112.44C158.89,-103.56 192.57,-89.56 216.92,-79.45"/>
<polygon fill="midnightblue" stroke="midnightblue" points="218.5,-82.58 226.39,-75.52 215.81,-76.12 218.5,-82.58"/>
</g>
<!-- Node7 -->
<g id="node7" class="node">
<title>Node7</title>
<g id="a_node7"><a xlink:href="Assumption_8h.html" target="_top" xlink:title=" ">
<polygon fill="white" stroke="black" points="79.39,-56.5 79.39,-75.5 156.39,-75.5 156.39,-56.5 79.39,-56.5"/>
<text text-anchor="middle" x="117.89" y="-63.5" font-family="Helvetica,sans-Serif" font-size="10.00">Assumption.h</text>
</a>
</g>
</g>
<!-- Node5&#45;&gt;Node7 -->
<g id="edge6" class="edge">
<title>Node5&#45;&gt;Node7</title>
<path fill="none" stroke="midnightblue" d="M117.06,-112.08C117.19,-105.01 117.38,-94.86 117.54,-85.99"/>
<polygon fill="midnightblue" stroke="midnightblue" points="121.05,-85.81 117.73,-75.75 114.05,-85.68 121.05,-85.81"/>
</g>
<!-- Node8 -->
<g id="node8" class="node">
<title>Node8</title>
<g id="a_node8"><a xlink:title=" ">
<polygon fill="white" stroke="#bfbfbf" points="457.39,-0.5 457.39,-19.5 498.39,-19.5 498.39,-0.5 457.39,-0.5"/>
<text text-anchor="middle" x="477.89" y="-7.5" font-family="Helvetica,sans-Serif" font-size="10.00">string</text>
</a>
</g>
</g>
<!-- Node7&#45;&gt;Node8 -->
<g id="edge7" class="edge">
<title>Node7&#45;&gt;Node8</title>
<path fill="none" stroke="midnightblue" d="M156.52,-58.47C161.69,-57.62 166.92,-56.78 171.89,-56 272.35,-40.24 391.63,-23.17 446.92,-15.36"/>
<polygon fill="midnightblue" stroke="midnightblue" points="447.68,-18.78 457.09,-13.92 446.7,-11.85 447.68,-18.78"/>
</g>
<!-- Node9&#45;&gt;Node5 -->
<g id="edge11" class="edge">
<title>Node9&#45;&gt;Node5</title>
<path fill="none" stroke="midnightblue" d="M186.01,-224.37C173.63,-206.22 144.71,-163.8 128.48,-139.99"/>
<polygon fill="midnightblue" stroke="midnightblue" points="131.28,-137.88 122.75,-131.59 125.49,-141.83 131.28,-137.88"/>
</g>
<!-- Node9&#45;&gt;Node6 -->
<g id="edge10" class="edge">
<title>Node9&#45;&gt;Node6</title>
<path fill="none" stroke="midnightblue" d="M194.85,-224.08C203.55,-197.83 229.15,-120.55 240.89,-85.12"/>
<polygon fill="midnightblue" stroke="midnightblue" points="244.23,-86.16 244.05,-75.57 237.59,-83.96 244.23,-86.16"/>
</g>
<!-- Node9&#45;&gt;Node8 -->
<g id="edge9" class="edge">
<title>Node9&#45;&gt;Node8</title>
<path fill="none" stroke="midnightblue" d="M189.9,-224.13C184,-195.35 169.8,-103.75 215.89,-56 247.41,-23.35 385.07,-14.31 447.23,-11.87"/>
<polygon fill="midnightblue" stroke="midnightblue" points="447.36,-15.37 457.23,-11.51 447.11,-8.37 447.36,-15.37"/>
</g>
<!-- Node10 -->
<g id="node10" class="node">
<title>Node10</title>
<g id="a_node10"><a xlink:href="AtcfLine_8h.html" target="_top" xlink:title=" ">
<polygon fill="white" stroke="black" points="495.39,-168.5 495.39,-187.5 556.39,-187.5 556.39,-168.5 495.39,-168.5"/>
<text text-anchor="middle" x="525.89" y="-175.5" font-family="Helvetica,sans-Serif" font-size="10.00">AtcfLine.h</text>
</a>
</g>
</g>
<!-- Node9&#45;&gt;Node10 -->
<g id="edge12" class="edge">
<title>Node9&#45;&gt;Node10</title>
<path fill="none" stroke="midnightblue" d="M213.55,-229.5C268.46,-220.62 413.79,-197.12 485.17,-185.58"/>
<polygon fill="midnightblue" stroke="midnightblue" points="485.83,-189.02 495.14,-183.97 484.71,-182.11 485.83,-189.02"/>
</g>
<!-- Node20 -->
<g id="node20" class="node">
<title>Node20</title>
<g id="a_node20"><a xlink:href="HurricanePressure_8h.html" target="_top" xlink:title=" ">
<polygon fill="white" stroke="black" points="13.89,-168.5 13.89,-187.5 119.89,-187.5 119.89,-168.5 13.89,-168.5"/>
<text text-anchor="middle" x="66.89" y="-175.5" font-family="Helvetica,sans-Serif" font-size="10.00">HurricanePressure.h</text>
</a>
</g>
</g>
<!-- Node9&#45;&gt;Node20 -->
<g id="edge31" class="edge">
<title>Node9&#45;&gt;Node20</title>
<path fill="none" stroke="midnightblue" d="M172.09,-224.44C151.61,-215.6 119.41,-201.69 96.03,-191.59"/>
<polygon fill="midnightblue" stroke="midnightblue" points="97.18,-188.27 86.61,-187.52 94.4,-194.7 97.18,-188.27"/>
</g>
<!-- Node10&#45;&gt;Node3 -->
<g id="edge13" class="edge">
<title>Node10&#45;&gt;Node3</title>
<path fill="none" stroke="midnightblue" d="M518.42,-168.3C507.35,-155.55 485.75,-131.23 465.89,-112 455.17,-101.62 442.52,-90.65 432.39,-82.14"/>
<polygon fill="midnightblue" stroke="midnightblue" points="434.49,-79.33 424.56,-75.63 430.01,-84.71 434.49,-79.33"/>
</g>
<!-- Node10&#45;&gt;Node6 -->
<g id="edge17" class="edge">
<title>Node10&#45;&gt;Node6</title>
<path fill="none" stroke="midnightblue" d="M495.11,-175.25C453.16,-171.8 376.64,-161.64 318.89,-132 295.6,-120.04 274.04,-98.63 260.7,-83.66"/>
<polygon fill="midnightblue" stroke="midnightblue" points="263.03,-81 253.85,-75.71 257.73,-85.57 263.03,-81"/>
</g>
<!-- Node10&#45;&gt;Node8 -->
<g id="edge15" class="edge">
<title>Node10&#45;&gt;Node8</title>
<path fill="none" stroke="midnightblue" d="M533.92,-168.48C547.45,-154.6 576.25,-127.15 605.89,-112 663.37,-82.63 781.49,-105.35 739.89,-56 710.58,-21.22 571.1,-13.32 508.47,-11.53"/>
<polygon fill="midnightblue" stroke="midnightblue" points="508.49,-8.03 498.4,-11.27 508.31,-15.02 508.49,-8.03"/>
</g>
<!-- Node10&#45;&gt;Node11 -->
<g id="edge14" class="edge">
<title>Node10&#45;&gt;Node11</title>
<path fill="none" stroke="midnightblue" d="M541.06,-168.43C568.91,-152.8 627.31,-120.47 648.89,-112 672.59,-102.7 737.94,-86.13 779.8,-75.9"/>
<polygon fill="midnightblue" stroke="midnightblue" points="780.75,-79.27 789.64,-73.51 779.1,-72.47 780.75,-79.27"/>
</g>
<!-- Node12 -->
<g id="node12" class="node">
<title>Node12</title>
<g id="a_node12"><a xlink:title=" ">
<polygon fill="white" stroke="#bfbfbf" points="657.89,-112.5 657.89,-131.5 695.89,-131.5 695.89,-112.5 657.89,-112.5"/>
<text text-anchor="middle" x="676.89" y="-119.5" font-family="Helvetica,sans-Serif" font-size="10.00">tuple</text>
</a>
</g>
</g>
<!-- Node10&#45;&gt;Node12 -->
<g id="edge16" class="edge">
<title>Node10&#45;&gt;Node12</title>
<path fill="none" stroke="midnightblue" d="M549.82,-168.44C576.48,-158.91 619.58,-143.49 648.08,-133.3"/>
<polygon fill="midnightblue" stroke="midnightblue" points="649.62,-136.47 657.86,-129.81 647.27,-129.88 649.62,-136.47"/>
</g>
<!-- Node13 -->
<g id="node13" class="node">
<title>Node13</title>
<g id="a_node13"><a xlink:href="Date_8h.html" target="_top" xlink:title=" ">
<polygon fill="white" stroke="black" points="517.89,-112.5 517.89,-131.5 563.89,-131.5 563.89,-112.5 517.89,-112.5"/>
<text text-anchor="middle" x="540.89" y="-119.5" font-family="Helvetica,sans-Serif" font-size="10.00">Date.h</text>
</a>
</g>
</g>
<!-- Node10&#45;&gt;Node13 -->
<g id="edge18" class="edge">
<title>Node10&#45;&gt;Node13</title>
<path fill="none" stroke="midnightblue" d="M528.37,-168.08C530.38,-160.85 533.28,-150.41 535.78,-141.4"/>
<polygon fill="midnightblue" stroke="midnightblue" points="539.16,-142.32 538.46,-131.75 532.41,-140.45 539.16,-142.32"/>
</g>
<!-- Node18 -->
<g id="node18" class="node">
<title>Node18</title>
<g id="a_node18"><a xlink:href="Isotach_8h.html" target="_top" xlink:title=" ">
<polygon fill="white" stroke="black" points="328.39,-112.5 328.39,-131.5 385.39,-131.5 385.39,-112.5 328.39,-112.5"/>
<text text-anchor="middle" x="356.89" y="-119.5" font-family="Helvetica,sans-Serif" font-size="10.00">Isotach.h</text>
</a>
</g>
</g>
<!-- Node10&#45;&gt;Node18 -->
<g id="edge26" class="edge">
<title>Node10&#45;&gt;Node18</title>
<path fill="none" stroke="midnightblue" d="M499.11,-168.44C470.56,-159.32 425.16,-144.81 393.36,-134.65"/>
<polygon fill="midnightblue" stroke="midnightblue" points="394.14,-131.23 383.55,-131.52 392.01,-137.89 394.14,-131.23"/>
</g>
<!-- Node13&#45;&gt;Node6 -->
<g id="edge25" class="edge">
<title>Node13&#45;&gt;Node6</title>
<path fill="none" stroke="midnightblue" d="M517.82,-116.76C465.72,-107.19 338.85,-83.89 279.06,-72.91"/>
<polygon fill="midnightblue" stroke="midnightblue" points="279.52,-69.43 269.05,-71.07 278.25,-76.32 279.52,-69.43"/>
</g>
<!-- Node13&#45;&gt;Node8 -->
<g id="edge23" class="edge">
<title>Node13&#45;&gt;Node8</title>
<path fill="none" stroke="midnightblue" d="M563.96,-113.74C590.4,-104.91 631.21,-89.49 639.89,-76 644.71,-68.53 645.27,-63.08 639.89,-56 624.06,-35.17 550.93,-21.44 508.54,-15.09"/>
<polygon fill="midnightblue" stroke="midnightblue" points="508.87,-11.6 498.48,-13.63 507.87,-18.53 508.87,-11.6"/>
</g>
<!-- Node13&#45;&gt;Node11 -->
<g id="edge21" class="edge">
<title>Node13&#45;&gt;Node11</title>
<path fill="none" stroke="midnightblue" d="M563.95,-116.49C611.74,-107.14 721.95,-85.58 779.84,-74.25"/>
<polygon fill="midnightblue" stroke="midnightblue" points="780.53,-77.68 789.68,-72.32 779.19,-70.81 780.53,-77.68"/>
</g>
<!-- Node14 -->
<g id="node14" class="node">
<title>Node14</title>
<g id="a_node14"><a xlink:title=" ">
<polygon fill="white" stroke="#bfbfbf" points="584.89,-56.5 584.89,-75.5 630.89,-75.5 630.89,-56.5 584.89,-56.5"/>
<text text-anchor="middle" x="607.89" y="-63.5" font-family="Helvetica,sans-Serif" font-size="10.00">chrono</text>
</a>
</g>
</g>
<!-- Node13&#45;&gt;Node14 -->
<g id="edge19" class="edge">
<title>Node13&#45;&gt;Node14</title>
<path fill="none" stroke="midnightblue" d="M551.66,-112.32C561.66,-104.26 576.78,-92.08 588.82,-82.37"/>
<polygon fill="midnightblue" stroke="midnightblue" points="591.34,-84.83 596.93,-75.83 586.95,-79.38 591.34,-84.83"/>
</g>
<!-- Node15 -->
<g id="node15" class="node">
<title>Node15</title>
<g id="a_node15"><a xlink:title=" ">
<polygon fill="white" stroke="#bfbfbf" points="686.89,-56.5 686.89,-75.5 730.89,-75.5 730.89,-56.5 686.89,-56.5"/>
<text text-anchor="middle" x="708.89" y="-63.5" font-family="Helvetica,sans-Serif" font-size="10.00">cmath</text>
</a>
</g>
</g>
<!-- Node13&#45;&gt;Node15 -->
<g id="edge20" class="edge">
<title>Node13&#45;&gt;Node15</title>
<path fill="none" stroke="midnightblue" d="M563.9,-113.6C593.22,-104.18 644.05,-87.84 677.07,-77.23"/>
<polygon fill="midnightblue" stroke="midnightblue" points="678.25,-80.53 686.7,-74.13 676.11,-73.86 678.25,-80.53"/>
</g>
<!-- Node16 -->
<g id="node16" class="node">
<title>Node16</title>
<g id="a_node16"><a xlink:title=" ">
<polygon fill="white" stroke="#bfbfbf" points="451.39,-56.5 451.39,-75.5 486.39,-75.5 486.39,-56.5 451.39,-56.5"/>
<text text-anchor="middle" x="468.89" y="-63.5" font-family="Helvetica,sans-Serif" font-size="10.00">ratio</text>
</a>
</g>
</g>
<!-- Node13&#45;&gt;Node16 -->
<g id="edge22" class="edge">
<title>Node13&#45;&gt;Node16</title>
<path fill="none" stroke="midnightblue" d="M529.33,-112.32C518.47,-104.18 502.01,-91.84 489.01,-82.09"/>
<polygon fill="midnightblue" stroke="midnightblue" points="490.77,-79.03 480.67,-75.83 486.57,-84.63 490.77,-79.03"/>
</g>
<!-- Node17 -->
<g id="node17" class="node">
<title>Node17</title>
<g id="a_node17"><a xlink:title=" ">
<polygon fill="white" stroke="#bfbfbf" points="504.89,-56.5 504.89,-75.5 566.89,-75.5 566.89,-56.5 504.89,-56.5"/>
<text text-anchor="middle" x="535.89" y="-63.5" font-family="Helvetica,sans-Serif" font-size="10.00">type_traits</text>
</a>
</g>
</g>
<!-- Node13&#45;&gt;Node17 -->
<g id="edge24" class="edge">
<title>Node13&#45;&gt;Node17</title>
<path fill="none" stroke="midnightblue" d="M540.07,-112.08C539.41,-105.01 538.47,-94.86 537.65,-85.99"/>
<polygon fill="midnightblue" stroke="midnightblue" points="541.11,-85.39 536.7,-75.75 534.14,-86.03 541.11,-85.39"/>
</g>
<!-- Node18&#45;&gt;Node3 -->
<g id="edge27" class="edge">
<title>Node18&#45;&gt;Node3</title>
<path fill="none" stroke="midnightblue" d="M366.05,-112.32C374.39,-104.42 386.93,-92.55 397.07,-82.94"/>
<polygon fill="midnightblue" stroke="midnightblue" points="399.72,-85.25 404.57,-75.83 394.9,-80.17 399.72,-85.25"/>
</g>
<!-- Node18&#45;&gt;Node6 -->
<g id="edge30" class="edge">
<title>Node18&#45;&gt;Node6</title>
<path fill="none" stroke="midnightblue" d="M339.22,-112.32C321.5,-103.62 293.99,-90.12 273.6,-80.11"/>
<polygon fill="midnightblue" stroke="midnightblue" points="275.04,-76.92 264.52,-75.65 271.96,-83.2 275.04,-76.92"/>
</g>
<!-- Node18&#45;&gt;Node8 -->
<g id="edge29" class="edge">
<title>Node18&#45;&gt;Node8</title>
<path fill="none" stroke="midnightblue" d="M344.64,-112.48C327.83,-99.76 301.28,-75.23 315.89,-56 331.73,-35.17 404.85,-21.44 447.25,-15.09"/>
<polygon fill="midnightblue" stroke="midnightblue" points="447.92,-18.53 457.31,-13.63 446.91,-11.6 447.92,-18.53"/>
</g>
<!-- Node19 -->
<g id="node19" class="node">
<title>Node19</title>
<g id="a_node19"><a xlink:title=" ">
<polygon fill="white" stroke="#bfbfbf" points="324.89,-56.5 324.89,-75.5 376.89,-75.5 376.89,-56.5 324.89,-56.5"/>
<text text-anchor="middle" x="350.89" y="-63.5" font-family="Helvetica,sans-Serif" font-size="10.00">ostream</text>
</a>
</g>
</g>
<!-- Node18&#45;&gt;Node19 -->
<g id="edge28" class="edge">
<title>Node18&#45;&gt;Node19</title>
<path fill="none" stroke="midnightblue" d="M355.9,-112.08C355.11,-104.93 353.96,-94.64 352.97,-85.69"/>
<polygon fill="midnightblue" stroke="midnightblue" points="356.45,-85.3 351.87,-75.75 349.49,-86.08 356.45,-85.3"/>
</g>
<!-- Node20&#45;&gt;Node5 -->
<g id="edge32" class="edge">
<title>Node20&#45;&gt;Node5</title>
<path fill="none" stroke="midnightblue" d="M75.15,-168.08C82.36,-160.3 93,-148.8 101.74,-139.37"/>
<polygon fill="midnightblue" stroke="midnightblue" points="104.56,-141.47 108.79,-131.75 99.43,-136.71 104.56,-141.47"/>
</g>
<!-- Node22&#45;&gt;Node8 -->
<g id="edge37" class="edge">
<title>Node22&#45;&gt;Node8</title>
<path fill="none" stroke="midnightblue" d="M877.29,-112.18C875.79,-97.87 870.64,-69.82 852.89,-56 799.52,-14.45 588.65,-10.64 508.78,-10.73"/>
<polygon fill="midnightblue" stroke="midnightblue" points="508.39,-7.23 498.41,-10.77 508.42,-14.23 508.39,-7.23"/>
</g>
<!-- Node22&#45;&gt;Node11 -->
<g id="edge36" class="edge">
<title>Node22&#45;&gt;Node11</title>
<path fill="none" stroke="midnightblue" d="M868.09,-112.32C859.08,-104.34 845.49,-92.31 834.58,-82.65"/>
<polygon fill="midnightblue" stroke="midnightblue" points="836.68,-79.84 826.87,-75.83 832.04,-85.08 836.68,-79.84"/>
</g>
<!-- Node23&#45;&gt;Node12 -->
<g id="edge41" class="edge">
<title>Node23&#45;&gt;Node12</title>
<path fill="none" stroke="midnightblue" d="M696.1,-168.08C692.98,-160.77 688.47,-150.18 684.6,-141.1"/>
<polygon fill="midnightblue" stroke="midnightblue" points="687.76,-139.58 680.62,-131.75 681.32,-142.32 687.76,-139.58"/>
</g>
<!-- Node23&#45;&gt;Node15 -->
<g id="edge39" class="edge">
<title>Node23&#45;&gt;Node15</title>
<path fill="none" stroke="midnightblue" d="M700.98,-168.39C702.09,-159.34 703.8,-144.69 704.89,-132 706.23,-116.49 707.29,-98.87 707.98,-85.88"/>
<polygon fill="midnightblue" stroke="midnightblue" points="711.48,-86.01 708.49,-75.84 704.48,-85.65 711.48,-86.01"/>
</g>
<!-- Node24 -->
<g id="node24" class="node">
<title>Node24</title>
<g id="a_node24"><a xlink:title=" ">
<polygon fill="white" stroke="#bfbfbf" points="751.89,-112.5 751.89,-131.5 791.89,-131.5 791.89,-112.5 751.89,-112.5"/>
<text text-anchor="middle" x="771.89" y="-119.5" font-family="Helvetica,sans-Serif" font-size="10.00">limits</text>
</a>
</g>
</g>
<!-- Node23&#45;&gt;Node24 -->
<g id="edge40" class="edge">
<title>Node23&#45;&gt;Node24</title>
<path fill="none" stroke="midnightblue" d="M711.46,-168.32C722.31,-160.18 738.77,-147.84 751.78,-138.09"/>
<polygon fill="midnightblue" stroke="midnightblue" points="754.21,-140.63 760.11,-131.83 750.01,-135.03 754.21,-140.63"/>
</g>
<!-- Node25&#45;&gt;Node3 -->
<g id="edge43" class="edge">
<title>Node25&#45;&gt;Node3</title>
<path fill="none" stroke="midnightblue" d="M440.02,-280.44C440.24,-254.7 439.83,-175.88 427.89,-112 426.22,-103.05 423.36,-93.38 420.66,-85.31"/>
<polygon fill="midnightblue" stroke="midnightblue" points="423.93,-84.08 417.31,-75.81 417.33,-86.4 423.93,-84.08"/>
</g>
<!-- Node25&#45;&gt;Node6 -->
<g id="edge45" class="edge">
<title>Node25&#45;&gt;Node6</title>
<path fill="none" stroke="midnightblue" d="M434.99,-280.49C427.33,-267.56 411.65,-242.52 394.89,-224 352.59,-177.24 327.92,-179.88 286.89,-132 274.39,-117.41 263.21,-98.49 255.88,-84.83"/>
<polygon fill="midnightblue" stroke="midnightblue" points="258.78,-82.82 251.05,-75.56 252.57,-86.05 258.78,-82.82"/>
</g>
<!-- Node25&#45;&gt;Node21 -->
<g id="edge44" class="edge">
<title>Node25&#45;&gt;Node21</title>
<path fill="none" stroke="midnightblue" d="M428,-280.32C416.74,-272.11 399.61,-259.6 386.18,-249.81"/>
<polygon fill="midnightblue" stroke="midnightblue" points="388.14,-246.9 378,-243.83 384.01,-252.56 388.14,-246.9"/>
</g>
</g>
</svg>
