<?xml version="1.0" encoding="UTF-8" standalone="no"?>
<!DOCTYPE svg PUBLIC "-//W3C//DTD SVG 1.1//EN"
 "http://www.w3.org/Graphics/SVG/1.1/DTD/svg11.dtd">
<!-- Generated by graphviz version 2.47.1 (20210417.1919)
 -->
<!-- Title: HurricanePressure.cpp Pages: 1 -->
<svg width="270pt" height="252pt"
 viewBox="0.00 0.00 270.00 252.00" xmlns="http://www.w3.org/2000/svg" xmlns:xlink="http://www.w3.org/1999/xlink">
<g id="graph0" class="graph" transform="scale(1 1) rotate(0) translate(4 248)">
<title>HurricanePressure.cpp</title>
<polygon fill="white" stroke="transparent" points="-4,4 -4,-248 266,-248 266,4 -4,4"/>
<!-- Node1 -->
<g id="node1" class="node">
<title>Node1</title>
<g id="a_node1"><a xlink:title=" ">
<polygon fill="#bfbfbf" stroke="black" points="88,-224.5 88,-243.5 204,-243.5 204,-224.5 88,-224.5"/>
<text text-anchor="middle" x="146" y="-231.5" font-family="Helvetica,sans-Serif" font-size="10.00">HurricanePressure.cpp</text>
</a>
</g>
</g>
<!-- Node2 -->
<g id="node2" class="node">
<title>Node2</title>
<g id="a_node2"><a xlink:href="HurricanePressure_8h.html" target="_top" xlink:title=" ">
<polygon fill="white" stroke="black" points="0,-168.5 0,-187.5 106,-187.5 106,-168.5 0,-168.5"/>
<text text-anchor="middle" x="53" y="-175.5" font-family="Helvetica,sans-Serif" font-size="10.00">HurricanePressure.h</text>
</a>
</g>
</g>
<!-- Node1&#45;&gt;Node2 -->
<g id="edge1" class="edge">
<title>Node1&#45;&gt;Node2</title>
<path fill="none" stroke="midnightblue" d="M131.06,-224.32C116.41,-215.82 93.87,-202.73 76.76,-192.8"/>
<polygon fill="midnightblue" stroke="midnightblue" points="78.31,-189.65 67.9,-187.65 74.8,-195.7 78.31,-189.65"/>
</g>
<!-- Node7 -->
<g id="node7" class="node">
<title>Node7</title>
<g id="a_node7"><a xlink:title=" ">
<polygon fill="white" stroke="#bfbfbf" points="124,-168.5 124,-187.5 168,-187.5 168,-168.5 124,-168.5"/>
<text text-anchor="middle" x="146" y="-175.5" font-family="Helvetica,sans-Serif" font-size="10.00">cmath</text>
</a>
</g>
</g>
<!-- Node1&#45;&gt;Node7 -->
<g id="edge6" class="edge">
<title>Node1&#45;&gt;Node7</title>
<path fill="none" stroke="midnightblue" d="M146,-224.08C146,-217.01 146,-206.86 146,-197.99"/>
<polygon fill="midnightblue" stroke="midnightblue" points="149.5,-197.75 146,-187.75 142.5,-197.75 149.5,-197.75"/>
</g>
<!-- Node8 -->
<g id="node8" class="node">
<title>Node8</title>
<g id="a_node8"><a xlink:href="Logging_8h.html" target="_top" xlink:title=" ">
<polygon fill="white" stroke="black" points="186.5,-168.5 186.5,-187.5 245.5,-187.5 245.5,-168.5 186.5,-168.5"/>
<text text-anchor="middle" x="216" y="-175.5" font-family="Helvetica,sans-Serif" font-size="10.00">Logging.h</text>
</a>
</g>
</g>
<!-- Node1&#45;&gt;Node8 -->
<g id="edge7" class="edge">
<title>Node1&#45;&gt;Node8</title>
<path fill="none" stroke="midnightblue" d="M157.25,-224.32C167.8,-216.18 183.8,-203.84 196.44,-194.09"/>
<polygon fill="midnightblue" stroke="midnightblue" points="198.77,-196.71 204.55,-187.83 194.49,-191.17 198.77,-196.71"/>
</g>
<!-- Node3 -->
<g id="node3" class="node">
<title>Node3</title>
<g id="a_node3"><a xlink:href="Assumptions_8h.html" target="_top" xlink:title=" ">
<polygon fill="white" stroke="black" points="12,-112.5 12,-131.5 94,-131.5 94,-112.5 12,-112.5"/>
<text text-anchor="middle" x="53" y="-119.5" font-family="Helvetica,sans-Serif" font-size="10.00">Assumptions.h</text>
</a>
</g>
</g>
<!-- Node2&#45;&gt;Node3 -->
<g id="edge2" class="edge">
<title>Node2&#45;&gt;Node3</title>
<path fill="none" stroke="midnightblue" d="M53,-168.08C53,-161.01 53,-150.86 53,-141.99"/>
<polygon fill="midnightblue" stroke="midnightblue" points="56.5,-141.75 53,-131.75 49.5,-141.75 56.5,-141.75"/>
</g>
<!-- Node4 -->
<g id="node4" class="node">
<title>Node4</title>
<g id="a_node4"><a xlink:title=" ">
<polygon fill="white" stroke="#bfbfbf" points="12,-56.5 12,-75.5 56,-75.5 56,-56.5 12,-56.5"/>
<text text-anchor="middle" x="34" y="-63.5" font-family="Helvetica,sans-Serif" font-size="10.00">vector</text>
</a>
</g>
</g>
<!-- Node3&#45;&gt;Node4 -->
<g id="edge3" class="edge">
<title>Node3&#45;&gt;Node4</title>
<path fill="none" stroke="midnightblue" d="M49.86,-112.08C47.32,-104.85 43.64,-94.41 40.47,-85.4"/>
<polygon fill="midnightblue" stroke="midnightblue" points="43.7,-84.02 37.08,-75.75 37.1,-86.35 43.7,-84.02"/>
</g>
<!-- Node5 -->
<g id="node5" class="node">
<title>Node5</title>
<g id="a_node5"><a xlink:href="Assumption_8h.html" target="_top" xlink:title=" ">
<polygon fill="white" stroke="black" points="74.5,-56.5 74.5,-75.5 151.5,-75.5 151.5,-56.5 74.5,-56.5"/>
<text text-anchor="middle" x="113" y="-63.5" font-family="Helvetica,sans-Serif" font-size="10.00">Assumption.h</text>
</a>
</g>
</g>
<!-- Node3&#45;&gt;Node5 -->
<g id="edge4" class="edge">
<title>Node3&#45;&gt;Node5</title>
<path fill="none" stroke="midnightblue" d="M62.64,-112.32C71.51,-104.34 84.87,-92.31 95.61,-82.65"/>
<polygon fill="midnightblue" stroke="midnightblue" points="98.09,-85.13 103.18,-75.83 93.41,-79.92 98.09,-85.13"/>
</g>
<!-- Node6 -->
<g id="node6" class="node">
<title>Node6</title>
<g id="a_node6"><a xlink:title=" ">
<polygon fill="white" stroke="#bfbfbf" points="125.5,-0.5 125.5,-19.5 166.5,-19.5 166.5,-0.5 125.5,-0.5"/>
<text text-anchor="middle" x="146" y="-7.5" font-family="Helvetica,sans-Serif" font-size="10.00">string</text>
</a>
</g>
</g>
<!-- Node5&#45;&gt;Node6 -->
<g id="edge5" class="edge">
<title>Node5&#45;&gt;Node6</title>
<path fill="none" stroke="midnightblue" d="M118.45,-56.08C123.01,-48.61 129.67,-37.72 135.29,-28.52"/>
<polygon fill="midnightblue" stroke="midnightblue" points="138.42,-30.11 140.65,-19.75 132.45,-26.46 138.42,-30.11"/>
</g>
<!-- Node8&#45;&gt;Node6 -->
<g id="edge9" class="edge">
<title>Node8&#45;&gt;Node6</title>
<path fill="none" stroke="midnightblue" d="M212.24,-168.08C201.17,-141.83 168.58,-64.55 153.64,-29.12"/>
<polygon fill="midnightblue" stroke="midnightblue" points="156.72,-27.42 149.61,-19.57 150.27,-30.14 156.72,-27.42"/>
</g>
<!-- Node9 -->
<g id="node9" class="node">
<title>Node9</title>
<g id="a_node9"><a xlink:title=" ">
<polygon fill="white" stroke="#bfbfbf" points="208,-112.5 208,-131.5 262,-131.5 262,-112.5 208,-112.5"/>
<text text-anchor="middle" x="235" y="-119.5" font-family="Helvetica,sans-Serif" font-size="10.00">iostream</text>
</a>
</g>
</g>
<!-- Node8&#45;&gt;Node9 -->
<g id="edge8" class="edge">
<title>Node8&#45;&gt;Node9</title>
<path fill="none" stroke="midnightblue" d="M219.14,-168.08C221.68,-160.85 225.36,-150.41 228.53,-141.4"/>
<polygon fill="midnightblue" stroke="midnightblue" points="231.9,-142.35 231.92,-131.75 225.3,-140.02 231.9,-142.35"/>
</g>
</g>
</svg>
