<?xml version="1.0" encoding="UTF-8" standalone="no"?>
<!DOCTYPE svg PUBLIC "-//W3C//DTD SVG 1.1//EN"
 "http://www.w3.org/Graphics/SVG/1.1/DTD/svg11.dtd">
<!-- Generated by graphviz version 2.47.1 (20210417.1919)
 -->
<!-- Title: Isotach.h Pages: 1 -->
<svg width="294pt" height="140pt"
 viewBox="0.00 0.00 293.66 140.00" xmlns="http://www.w3.org/2000/svg" xmlns:xlink="http://www.w3.org/1999/xlink">
<g id="graph0" class="graph" transform="scale(1 1) rotate(0) translate(4 136)">
<title>Isotach.h</title>
<polygon fill="white" stroke="transparent" points="-4,4 -4,-136 289.66,-136 289.66,4 -4,4"/>
<!-- Node1 -->
<g id="node1" class="node">
<title>Node1</title>
<g id="a_node1"><a xlink:title=" ">
<polygon fill="#bfbfbf" stroke="black" points="76.16,-112.5 76.16,-131.5 133.16,-131.5 133.16,-112.5 76.16,-112.5"/>
<text text-anchor="middle" x="104.66" y="-119.5" font-family="Helvetica,sans-Serif" font-size="10.00">Isotach.h</text>
</a>
</g>
</g>
<!-- Node2 -->
<g id="node2" class="node">
<title>Node2</title>
<g id="a_node2"><a xlink:title=" ">
<polygon fill="white" stroke="#bfbfbf" points="96.66,-0.5 96.66,-19.5 134.66,-19.5 134.66,-0.5 96.66,-0.5"/>
<text text-anchor="middle" x="115.66" y="-7.5" font-family="Helvetica,sans-Serif" font-size="10.00">array</text>
</a>
</g>
</g>
<!-- Node1&#45;&gt;Node2 -->
<g id="edge1" class="edge">
<title>Node1&#45;&gt;Node2</title>
<path fill="none" stroke="midnightblue" d="M76.12,-114.93C39.83,-105.83 -15.81,-86.4 4.66,-56 22.74,-29.17 59.84,-18.33 86.16,-13.96"/>
<polygon fill="midnightblue" stroke="midnightblue" points="86.95,-17.38 96.35,-12.49 85.96,-10.45 86.95,-17.38"/>
</g>
<!-- Node3 -->
<g id="node3" class="node">
<title>Node3</title>
<g id="a_node3"><a xlink:title=" ">
<polygon fill="white" stroke="#bfbfbf" points="13.66,-56.5 13.66,-75.5 65.66,-75.5 65.66,-56.5 13.66,-56.5"/>
<text text-anchor="middle" x="39.66" y="-63.5" font-family="Helvetica,sans-Serif" font-size="10.00">ostream</text>
</a>
</g>
</g>
<!-- Node1&#45;&gt;Node3 -->
<g id="edge2" class="edge">
<title>Node1&#45;&gt;Node3</title>
<path fill="none" stroke="midnightblue" d="M94.22,-112.32C84.52,-104.26 69.85,-92.08 58.16,-82.37"/>
<polygon fill="midnightblue" stroke="midnightblue" points="60.23,-79.53 50.3,-75.83 55.75,-84.92 60.23,-79.53"/>
</g>
<!-- Node4 -->
<g id="node4" class="node">
<title>Node4</title>
<g id="a_node4"><a xlink:title=" ">
<polygon fill="white" stroke="#bfbfbf" points="84.16,-56.5 84.16,-75.5 125.16,-75.5 125.16,-56.5 84.16,-56.5"/>
<text text-anchor="middle" x="104.66" y="-63.5" font-family="Helvetica,sans-Serif" font-size="10.00">string</text>
</a>
</g>
</g>
<!-- Node1&#45;&gt;Node4 -->
<g id="edge3" class="edge">
<title>Node1&#45;&gt;Node4</title>
<path fill="none" stroke="midnightblue" d="M104.66,-112.08C104.66,-105.01 104.66,-94.86 104.66,-85.99"/>
<polygon fill="midnightblue" stroke="midnightblue" points="108.16,-85.75 104.66,-75.75 101.16,-85.75 108.16,-85.75"/>
</g>
<!-- Node5 -->
<g id="node5" class="node">
<title>Node5</title>
<g id="a_node5"><a xlink:title=" ">
<polygon fill="white" stroke="#bfbfbf" points="143.66,-56.5 143.66,-75.5 187.66,-75.5 187.66,-56.5 143.66,-56.5"/>
<text text-anchor="middle" x="165.66" y="-63.5" font-family="Helvetica,sans-Serif" font-size="10.00">vector</text>
</a>
</g>
</g>
<!-- Node1&#45;&gt;Node5 -->
<g id="edge4" class="edge">
<title>Node1&#45;&gt;Node5</title>
<path fill="none" stroke="midnightblue" d="M114.47,-112.32C123.48,-104.34 137.07,-92.31 147.98,-82.65"/>
<polygon fill="midnightblue" stroke="midnightblue" points="150.52,-85.08 155.69,-75.83 145.88,-79.84 150.52,-85.08"/>
</g>
<!-- Node6 -->
<g id="node6" class="node">
<title>Node6</title>
<g id="a_node6"><a xlink:href="CircularArray_8h.html" target="_top" xlink:title=" ">
<polygon fill="white" stroke="black" points="205.66,-56.5 205.66,-75.5 285.66,-75.5 285.66,-56.5 205.66,-56.5"/>
<text text-anchor="middle" x="245.66" y="-63.5" font-family="Helvetica,sans-Serif" font-size="10.00">CircularArray.h</text>
</a>
</g>
</g>
<!-- Node1&#45;&gt;Node6 -->
<g id="edge5" class="edge">
<title>Node1&#45;&gt;Node6</title>
<path fill="none" stroke="midnightblue" d="M127.01,-112.44C150.42,-103.48 187.4,-89.31 213.85,-79.18"/>
<polygon fill="midnightblue" stroke="midnightblue" points="215.34,-82.36 223.43,-75.52 212.84,-75.82 215.34,-82.36"/>
</g>
<!-- Node6&#45;&gt;Node2 -->
<g id="edge6" class="edge">
<title>Node6&#45;&gt;Node2</title>
<path fill="none" stroke="midnightblue" d="M225.07,-56.44C203.29,-47.4 168.79,-33.07 144.36,-22.92"/>
<polygon fill="midnightblue" stroke="midnightblue" points="145.47,-19.59 134.9,-18.99 142.79,-26.06 145.47,-19.59"/>
</g>
</g>
</svg>
