<?xml version="1.0" encoding="UTF-8" standalone="no"?>
<!DOCTYPE svg PUBLIC "-//W3C//DTD SVG 1.1//EN"
 "http://www.w3.org/Graphics/SVG/1.1/DTD/svg11.dtd">
<!-- Generated by graphviz version 2.47.1 (20210417.1919)
 -->
<!-- Title: c_logHeading Pages: 1 -->
<svg width="313pt" height="28pt"
 viewBox="0.00 0.00 313.00 28.00" xmlns="http://www.w3.org/2000/svg" xmlns:xlink="http://www.w3.org/1999/xlink">
<g id="graph0" class="graph" transform="scale(1 1) rotate(0) translate(4 24)">
<title>c_logHeading</title>
<polygon fill="white" stroke="transparent" points="-4,4 -4,-24 309,-24 309,4 -4,4"/>
<!-- Node1 -->
<g id="node1" class="node">
<title>Node1</title>
<g id="a_node1"><a xlink:title=" ">
<polygon fill="#bfbfbf" stroke="black" points="229,-0.5 229,-19.5 305,-19.5 305,-0.5 229,-0.5"/>
<text text-anchor="middle" x="267" y="-7.5" font-family="Helvetica,sans-Serif" font-size="10.00">c_logHeading</text>
</a>
</g>
</g>
<!-- Node2 -->
<g id="node2" class="node">
<title>Node2</title>
<g id="a_node2"><a xlink:href="classLogging.html#a97ea357cd10f25fa95e27c63725be4f4" target="_top" xlink:title="Informational log message.">
<polygon fill="white" stroke="black" points="124,-0.5 124,-19.5 193,-19.5 193,-0.5 124,-0.5"/>
<text text-anchor="middle" x="158.5" y="-7.5" font-family="Helvetica,sans-Serif" font-size="10.00">Logging::log</text>
</a>
</g>
</g>
<!-- Node1&#45;&gt;Node2 -->
<g id="edge1" class="edge">
<title>Node1&#45;&gt;Node2</title>
<path fill="none" stroke="midnightblue" d="M218.55,-10C210.05,-10 201.36,-10 193.34,-10"/>
<polygon fill="midnightblue" stroke="midnightblue" points="218.75,-13.5 228.75,-10 218.75,-6.5 218.75,-13.5"/>
</g>
<!-- Node3 -->
<g id="node3" class="node">
<title>Node3</title>
<g id="a_node3"><a xlink:href="classVortex.html#a61b14dabae9da1036d2072df058076af" target="_top" xlink:title=" ">
<polygon fill="white" stroke="black" points="0,-0.5 0,-19.5 88,-19.5 88,-0.5 0,-0.5"/>
<text text-anchor="middle" x="44" y="-7.5" font-family="Helvetica,sans-Serif" font-size="10.00">Vortex::findRoot</text>
</a>
</g>
</g>
<!-- Node2&#45;&gt;Node3 -->
<g id="edge2" class="edge">
<title>Node2&#45;&gt;Node3</title>
<path fill="none" stroke="midnightblue" d="M113.52,-10C105.24,-10 96.59,-10 88.33,-10"/>
<polygon fill="midnightblue" stroke="midnightblue" points="113.75,-13.5 123.75,-10 113.75,-6.5 113.75,-13.5"/>
</g>
</g>
</svg>
