<?xml version="1.0" encoding="UTF-8" standalone="no"?>
<!DOCTYPE svg PUBLIC "-//W3C//DTD SVG 1.1//EN"
 "http://www.w3.org/Graphics/SVG/1.1/DTD/svg11.dtd">
<!-- Generated by graphviz version 2.47.1 (20210417.1919)
 -->
<!-- Title: c_errorHeading Pages: 1 -->
<svg width="228pt" height="66pt"
 viewBox="0.00 0.00 228.00 66.00" xmlns="http://www.w3.org/2000/svg" xmlns:xlink="http://www.w3.org/1999/xlink">
<g id="graph0" class="graph" transform="scale(1 1) rotate(0) translate(4 62)">
<title>c_errorHeading</title>
<polygon fill="white" stroke="transparent" points="-4,4 -4,-62 224,-62 224,4 -4,4"/>
<!-- Node1 -->
<g id="node1" class="node">
<title>Node1</title>
<g id="a_node1"><a xlink:title=" ">
<polygon fill="#bfbfbf" stroke="black" points="137,-19.5 137,-38.5 220,-38.5 220,-19.5 137,-19.5"/>
<text text-anchor="middle" x="178.5" y="-26.5" font-family="Helvetica,sans-Serif" font-size="10.00">c_errorHeading</text>
</a>
</g>
</g>
<!-- Node2 -->
<g id="node2" class="node">
<title>Node2</title>
<g id="a_node2"><a xlink:href="classLogging.html#a3db8b5fbd105a1b5057ea3c77c906cee" target="_top" xlink:title="Logs an error message to the screen.">
<polygon fill="white" stroke="black" points="5.5,-38.5 5.5,-57.5 95.5,-57.5 95.5,-38.5 5.5,-38.5"/>
<text text-anchor="middle" x="50.5" y="-45.5" font-family="Helvetica,sans-Serif" font-size="10.00">Logging::logError</text>
</a>
</g>
</g>
<!-- Node1&#45;&gt;Node2 -->
<g id="edge1" class="edge">
<title>Node1&#45;&gt;Node2</title>
<path fill="none" stroke="midnightblue" d="M126.88,-36.63C116.63,-38.18 105.93,-39.79 95.91,-41.3"/>
<polygon fill="midnightblue" stroke="midnightblue" points="127.57,-40.07 136.94,-35.12 126.53,-33.15 127.57,-40.07"/>
</g>
<!-- Node3 -->
<g id="node3" class="node">
<title>Node3</title>
<g id="a_node3"><a xlink:href="classLogging.html#a69e65063c7dfaeb4330d31801a987a8e" target="_top" xlink:title="Throws a runtime error.">
<polygon fill="white" stroke="black" points="0,-0.5 0,-19.5 101,-19.5 101,-0.5 0,-0.5"/>
<text text-anchor="middle" x="50.5" y="-7.5" font-family="Helvetica,sans-Serif" font-size="10.00">Logging::throwError</text>
</a>
</g>
</g>
<!-- Node1&#45;&gt;Node3 -->
<g id="edge2" class="edge">
<title>Node1&#45;&gt;Node3</title>
<path fill="none" stroke="midnightblue" d="M126.84,-21.36C118.41,-20.09 109.66,-18.77 101.25,-17.5"/>
<polygon fill="midnightblue" stroke="midnightblue" points="126.53,-24.85 136.94,-22.88 127.57,-17.93 126.53,-24.85"/>
</g>
</g>
</svg>
