<?xml version="1.0" encoding="UTF-8" standalone="no"?>
<!DOCTYPE svg PUBLIC "-//W3C//DTD SVG 1.1//EN"
 "http://www.w3.org/Graphics/SVG/1.1/DTD/svg11.dtd">
<!-- Generated by graphviz version 2.47.1 (20210417.1919)
 -->
<!-- Title: g Pages: 1 -->
<svg width="801pt" height="75pt"
 viewBox="0.00 0.00 801.00 74.50" xmlns="http://www.w3.org/2000/svg" xmlns:xlink="http://www.w3.org/1999/xlink">
<g id="graph0" class="graph" transform="scale(1 1) rotate(0) translate(4 70.5)">
<title>g</title>
<polygon fill="white" stroke="transparent" points="-4,4 -4,-70.5 797,-70.5 797,4 -4,4"/>
<!-- Node1 -->
<g id="node1" class="node">
<title>Node1</title>
<g id="a_node1"><a xlink:title=" ">
<polygon fill="#bfbfbf" stroke="black" points="764,-19.5 764,-38.5 793,-38.5 793,-19.5 764,-19.5"/>
<text text-anchor="middle" x="778.5" y="-26.5" font-family="Helvetica,sans-Serif" font-size="10.00">g</text>
</a>
</g>
</g>
<!-- Node2 -->
<g id="node2" class="node">
<title>Node2</title>
<g id="a_node2"><a xlink:href="classAtcf.html#a2742efd0b6b28a51a11a0d74e713f222" target="_top" xlink:title=" ">
<polygon fill="white" stroke="black" points="615,-19.5 615,-38.5 728,-38.5 728,-19.5 615,-19.5"/>
<text text-anchor="middle" x="671.5" y="-26.5" font-family="Helvetica,sans-Serif" font-size="10.00">Atcf::computeGamma</text>
</a>
</g>
</g>
<!-- Node1&#45;&gt;Node2 -->
<g id="edge1" class="edge">
<title>Node1&#45;&gt;Node2</title>
<path fill="none" stroke="midnightblue" d="M753.51,-29C745.85,-29 737.03,-29 728.09,-29"/>
<polygon fill="midnightblue" stroke="midnightblue" points="753.77,-32.5 763.77,-29 753.77,-25.5 753.77,-32.5"/>
</g>
<!-- Node3 -->
<g id="node3" class="node">
<title>Node3</title>
<g id="a_node3"><a xlink:href="classAtcf.html#a12d26ed5e74ce562bd78a28662bceb75" target="_top" xlink:title=" ">
<polygon fill="white" stroke="black" points="431,-36 431,-66 579,-66 579,-36 431,-36"/>
<text text-anchor="start" x="439" y="-54" font-family="Helvetica,sans-Serif" font-size="10.00">Atcf::computeQuadrantVrWith</text>
<text text-anchor="middle" x="505" y="-43" font-family="Helvetica,sans-Serif" font-size="10.00">Gamma</text>
</a>
</g>
</g>
<!-- Node2&#45;&gt;Node3 -->
<g id="edge2" class="edge">
<title>Node2&#45;&gt;Node3</title>
<path fill="none" stroke="midnightblue" d="M604.7,-37.8C596.29,-38.92 587.65,-40.08 579.13,-41.22"/>
<polygon fill="midnightblue" stroke="midnightblue" points="605.36,-41.24 614.81,-36.45 604.43,-34.3 605.36,-41.24"/>
</g>
<!-- Node7 -->
<g id="node7" class="node">
<title>Node7</title>
<g id="a_node7"><a xlink:href="classAtcf.html#adfe6ef35c351380ba863090d4fec04bb" target="_top" xlink:title=" ">
<polygon fill="white" stroke="black" points="259,-0.5 259,-19.5 395,-19.5 395,-0.5 259,-0.5"/>
<text text-anchor="middle" x="327" y="-7.5" font-family="Helvetica,sans-Serif" font-size="10.00">Atcf::recomputeQuadrantVr</text>
</a>
</g>
</g>
<!-- Node2&#45;&gt;Node7 -->
<g id="edge6" class="edge">
<title>Node2&#45;&gt;Node7</title>
<path fill="none" stroke="midnightblue" d="M604.56,-25.34C544.38,-22 455.83,-17.09 395.24,-13.73"/>
<polygon fill="midnightblue" stroke="midnightblue" points="604.53,-28.85 614.71,-25.91 604.92,-21.86 604.53,-28.85"/>
</g>
<!-- Node4 -->
<g id="node4" class="node">
<title>Node4</title>
<g id="a_node4"><a xlink:href="classAtcf.html#a80d9683a370e561492db8a0f6d795c5d" target="_top" xlink:title=" ">
<polygon fill="white" stroke="black" points="263,-39.5 263,-58.5 391,-58.5 391,-39.5 263,-39.5"/>
<text text-anchor="middle" x="327" y="-46.5" font-family="Helvetica,sans-Serif" font-size="10.00">Atcf::computeQuadrantVr</text>
</a>
</g>
</g>
<!-- Node3&#45;&gt;Node4 -->
<g id="edge3" class="edge">
<title>Node3&#45;&gt;Node4</title>
<path fill="none" stroke="midnightblue" d="M420.59,-50.05C410.66,-49.94 400.66,-49.83 391.08,-49.72"/>
<polygon fill="midnightblue" stroke="midnightblue" points="420.85,-53.56 430.89,-50.17 420.93,-46.56 420.85,-53.56"/>
</g>
<!-- Node5 -->
<g id="node5" class="node">
<title>Node5</title>
<g id="a_node5"><a xlink:href="classAtcf.html#ada693ebe0f0ee4be52b01fd3fe83963a" target="_top" xlink:title=" ">
<polygon fill="white" stroke="black" points="95,-19.5 95,-38.5 223,-38.5 223,-19.5 95,-19.5"/>
<text text-anchor="middle" x="159" y="-26.5" font-family="Helvetica,sans-Serif" font-size="10.00">Atcf::computeParameters</text>
</a>
</g>
</g>
<!-- Node4&#45;&gt;Node5 -->
<g id="edge4" class="edge">
<title>Node4&#45;&gt;Node5</title>
<path fill="none" stroke="midnightblue" d="M252.59,-40.16C242.74,-38.97 232.71,-37.76 223.06,-36.6"/>
<polygon fill="midnightblue" stroke="midnightblue" points="252.42,-43.66 262.77,-41.38 253.26,-36.71 252.42,-43.66"/>
</g>
<!-- Node6 -->
<g id="node6" class="node">
<title>Node6</title>
<g id="a_node6"><a xlink:href="classAtcf.html#aaab5dab5b969a87f538242e524431637" target="_top" xlink:title=" ">
<polygon fill="white" stroke="black" points="0,-19.5 0,-38.5 59,-38.5 59,-19.5 0,-19.5"/>
<text text-anchor="middle" x="29.5" y="-26.5" font-family="Helvetica,sans-Serif" font-size="10.00">Atcf::read</text>
</a>
</g>
</g>
<!-- Node5&#45;&gt;Node6 -->
<g id="edge5" class="edge">
<title>Node5&#45;&gt;Node6</title>
<path fill="none" stroke="midnightblue" d="M84.74,-29C75.71,-29 66.94,-29 59.18,-29"/>
<polygon fill="midnightblue" stroke="midnightblue" points="85,-32.5 95,-29 85,-25.5 85,-32.5"/>
</g>
<!-- Node7&#45;&gt;Node5 -->
<g id="edge7" class="edge">
<title>Node7&#45;&gt;Node5</title>
<path fill="none" stroke="midnightblue" d="M248.93,-18.82C240.33,-19.81 231.65,-20.8 223.26,-21.76"/>
<polygon fill="midnightblue" stroke="midnightblue" points="249.42,-22.29 258.96,-17.67 248.63,-15.33 249.42,-22.29"/>
</g>
</g>
</svg>
