<?xml version="1.0" encoding="UTF-8" standalone="no"?>
<!DOCTYPE svg PUBLIC "-//W3C//DTD SVG 1.1//EN"
 "http://www.w3.org/Graphics/SVG/1.1/DTD/svg11.dtd">
<!-- Generated by graphviz version 2.47.1 (20210417.1919)
 -->
<!-- Title: windReduction Pages: 1 -->
<svg width="845pt" height="203pt"
 viewBox="0.00 0.00 845.00 203.38" xmlns="http://www.w3.org/2000/svg" xmlns:xlink="http://www.w3.org/1999/xlink">
<g id="graph0" class="graph" transform="scale(1 1) rotate(0) translate(4 199.38)">
<title>windReduction</title>
<polygon fill="white" stroke="transparent" points="-4,4 -4,-199.38 841,-199.38 841,4 -4,4"/>
<!-- Node1 -->
<g id="node1" class="node">
<title>Node1</title>
<g id="a_node1"><a xlink:title=" ">
<polygon fill="#bfbfbf" stroke="black" points="756,-95.5 756,-114.5 837,-114.5 837,-95.5 756,-95.5"/>
<text text-anchor="middle" x="796.5" y="-102.5" font-family="Helvetica,sans-Serif" font-size="10.00">windReduction</text>
</a>
</g>
</g>
<!-- Node2 -->
<g id="node2" class="node">
<title>Node2</title>
<g id="a_node2"><a xlink:href="classAtcf.html#a2742efd0b6b28a51a11a0d74e713f222" target="_top" xlink:title=" ">
<polygon fill="white" stroke="black" points="607,-152.5 607,-171.5 720,-171.5 720,-152.5 607,-152.5"/>
<text text-anchor="middle" x="663.5" y="-159.5" font-family="Helvetica,sans-Serif" font-size="10.00">Atcf::computeGamma</text>
</a>
</g>
</g>
<!-- Node1&#45;&gt;Node2 -->
<g id="edge1" class="edge">
<title>Node1&#45;&gt;Node2</title>
<path fill="none" stroke="midnightblue" d="M764.31,-118.67C750.7,-124.62 734.57,-131.67 720,-138 709.02,-142.77 696.82,-148.05 686.65,-152.44"/>
<polygon fill="midnightblue" stroke="midnightblue" points="765.95,-121.77 773.7,-114.55 763.14,-115.36 765.95,-121.77"/>
</g>
<!-- Node3 -->
<g id="node3" class="node">
<title>Node3</title>
<g id="a_node3"><a xlink:href="classAtcf.html#a12d26ed5e74ce562bd78a28662bceb75" target="_top" xlink:title=" ">
<polygon fill="white" stroke="black" points="423,-153 423,-183 571,-183 571,-153 423,-153"/>
<text text-anchor="start" x="431" y="-171" font-family="Helvetica,sans-Serif" font-size="10.00">Atcf::computeQuadrantVrWith</text>
<text text-anchor="middle" x="497" y="-160" font-family="Helvetica,sans-Serif" font-size="10.00">Gamma</text>
</a>
</g>
</g>
<!-- Node1&#45;&gt;Node3 -->
<g id="edge8" class="edge">
<title>Node1&#45;&gt;Node3</title>
<path fill="none" stroke="midnightblue" d="M784.02,-123.06C771.06,-141.59 748.06,-169.32 720,-181 664.57,-204.07 594.57,-194.31 548.15,-183.1"/>
<polygon fill="midnightblue" stroke="midnightblue" points="787.05,-124.83 789.71,-114.57 781.24,-120.93 787.05,-124.83"/>
</g>
<!-- Node7 -->
<g id="node7" class="node">
<title>Node7</title>
<g id="a_node7"><a xlink:href="classAtcf.html#adfe6ef35c351380ba863090d4fec04bb" target="_top" xlink:title=" ">
<polygon fill="white" stroke="black" points="429,-114.5 429,-133.5 565,-133.5 565,-114.5 429,-114.5"/>
<text text-anchor="middle" x="497" y="-121.5" font-family="Helvetica,sans-Serif" font-size="10.00">Atcf::recomputeQuadrantVr</text>
</a>
</g>
</g>
<!-- Node1&#45;&gt;Node7 -->
<g id="edge13" class="edge">
<title>Node1&#45;&gt;Node7</title>
<path fill="none" stroke="midnightblue" d="M745.85,-108.17C696.33,-111.33 619.93,-116.21 565.05,-119.72"/>
<polygon fill="midnightblue" stroke="midnightblue" points="746.24,-111.65 755.99,-107.52 745.79,-104.67 746.24,-111.65"/>
</g>
<!-- Node8 -->
<g id="node8" class="node">
<title>Node8</title>
<g id="a_node8"><a xlink:href="classAtcf.html#a7b96dc4af0c484eecb6adc87cb604431" target="_top" xlink:title=" ">
<polygon fill="white" stroke="black" points="265,-76.5 265,-95.5 381,-95.5 381,-76.5 265,-76.5"/>
<text text-anchor="middle" x="323" y="-83.5" font-family="Helvetica,sans-Serif" font-size="10.00">Atcf::computeVMaxBL</text>
</a>
</g>
</g>
<!-- Node1&#45;&gt;Node8 -->
<g id="edge9" class="edge">
<title>Node1&#45;&gt;Node8</title>
<path fill="none" stroke="midnightblue" d="M745.69,-102.99C657.47,-99.44 474.33,-92.06 381.14,-88.3"/>
<polygon fill="midnightblue" stroke="midnightblue" points="745.57,-106.49 755.71,-103.4 745.86,-99.5 745.57,-106.49"/>
</g>
<!-- Node9 -->
<g id="node9" class="node">
<title>Node9</title>
<g id="a_node9"><a xlink:href="classGahm.html#a6cacdf953e6387e58ca0dc1369e15c00" target="_top" xlink:title=" ">
<polygon fill="white" stroke="black" points="632.5,-38.5 632.5,-57.5 694.5,-57.5 694.5,-38.5 632.5,-38.5"/>
<text text-anchor="middle" x="663.5" y="-45.5" font-family="Helvetica,sans-Serif" font-size="10.00">Gahm::get</text>
</a>
</g>
</g>
<!-- Node1&#45;&gt;Node9 -->
<g id="edge11" class="edge">
<title>Node1&#45;&gt;Node9</title>
<path fill="none" stroke="midnightblue" d="M764.31,-91.33C750.7,-85.38 734.57,-78.33 720,-72 709.02,-67.23 696.82,-61.95 686.65,-57.56"/>
<polygon fill="midnightblue" stroke="midnightblue" points="763.14,-94.64 773.7,-95.45 765.95,-88.23 763.14,-94.64"/>
</g>
<!-- Node10 -->
<g id="node10" class="node">
<title>Node10</title>
<g id="a_node10"><a xlink:href="classGahm.html#abd838ada495dbe369ae8b2cae185e063" target="_top" xlink:title=" ">
<polygon fill="white" stroke="black" points="622,-0.5 622,-19.5 705,-19.5 705,-0.5 622,-0.5"/>
<text text-anchor="middle" x="663.5" y="-7.5" font-family="Helvetica,sans-Serif" font-size="10.00">Gahm::getUvpr</text>
</a>
</g>
</g>
<!-- Node1&#45;&gt;Node10 -->
<g id="edge12" class="edge">
<title>Node1&#45;&gt;Node10</title>
<path fill="none" stroke="midnightblue" d="M782.06,-87.37C768.19,-70.29 745.1,-44.71 720,-29 713.96,-25.22 707.07,-22.08 700.25,-19.52"/>
<polygon fill="midnightblue" stroke="midnightblue" points="779.48,-89.76 788.43,-95.43 784.97,-85.42 779.48,-89.76"/>
</g>
<!-- Node2&#45;&gt;Node3 -->
<g id="edge2" class="edge">
<title>Node2&#45;&gt;Node3</title>
<path fill="none" stroke="midnightblue" d="M596.7,-164.4C588.29,-164.71 579.65,-165.02 571.13,-165.33"/>
<polygon fill="midnightblue" stroke="midnightblue" points="596.94,-167.89 606.81,-164.03 596.69,-160.9 596.94,-167.89"/>
</g>
<!-- Node2&#45;&gt;Node7 -->
<g id="edge6" class="edge">
<title>Node2&#45;&gt;Node7</title>
<path fill="none" stroke="midnightblue" d="M611,-150.1C587.88,-144.76 560.97,-138.55 539.21,-133.52"/>
<polygon fill="midnightblue" stroke="midnightblue" points="610.46,-153.57 620.99,-152.41 612.03,-146.75 610.46,-153.57"/>
</g>
<!-- Node4 -->
<g id="node4" class="node">
<title>Node4</title>
<g id="a_node4"><a xlink:href="classAtcf.html#a80d9683a370e561492db8a0f6d795c5d" target="_top" xlink:title=" ">
<polygon fill="white" stroke="black" points="259,-155.5 259,-174.5 387,-174.5 387,-155.5 259,-155.5"/>
<text text-anchor="middle" x="323" y="-162.5" font-family="Helvetica,sans-Serif" font-size="10.00">Atcf::computeQuadrantVr</text>
</a>
</g>
</g>
<!-- Node3&#45;&gt;Node4 -->
<g id="edge3" class="edge">
<title>Node3&#45;&gt;Node4</title>
<path fill="none" stroke="midnightblue" d="M412.28,-166.54C403.83,-166.39 395.35,-166.24 387.17,-166.1"/>
<polygon fill="midnightblue" stroke="midnightblue" points="412.5,-170.04 422.56,-166.72 412.62,-163.05 412.5,-170.04"/>
</g>
<!-- Node5 -->
<g id="node5" class="node">
<title>Node5</title>
<g id="a_node5"><a xlink:href="classAtcf.html#ada693ebe0f0ee4be52b01fd3fe83963a" target="_top" xlink:title=" ">
<polygon fill="white" stroke="black" points="95,-114.5 95,-133.5 223,-133.5 223,-114.5 95,-114.5"/>
<text text-anchor="middle" x="159" y="-121.5" font-family="Helvetica,sans-Serif" font-size="10.00">Atcf::computeParameters</text>
</a>
</g>
</g>
<!-- Node4&#45;&gt;Node5 -->
<g id="edge4" class="edge">
<title>Node4&#45;&gt;Node5</title>
<path fill="none" stroke="midnightblue" d="M274.61,-153.01C250.09,-146.8 220.58,-139.33 197.65,-133.53"/>
<polygon fill="midnightblue" stroke="midnightblue" points="273.87,-156.43 284.43,-155.49 275.59,-149.64 273.87,-156.43"/>
</g>
<!-- Node6 -->
<g id="node6" class="node">
<title>Node6</title>
<g id="a_node6"><a xlink:href="classAtcf.html#aaab5dab5b969a87f538242e524431637" target="_top" xlink:title=" ">
<polygon fill="white" stroke="black" points="0,-114.5 0,-133.5 59,-133.5 59,-114.5 0,-114.5"/>
<text text-anchor="middle" x="29.5" y="-121.5" font-family="Helvetica,sans-Serif" font-size="10.00">Atcf::read</text>
</a>
</g>
</g>
<!-- Node5&#45;&gt;Node6 -->
<g id="edge5" class="edge">
<title>Node5&#45;&gt;Node6</title>
<path fill="none" stroke="midnightblue" d="M84.74,-124C75.71,-124 66.94,-124 59.18,-124"/>
<polygon fill="midnightblue" stroke="midnightblue" points="85,-127.5 95,-124 85,-120.5 85,-127.5"/>
</g>
<!-- Node7&#45;&gt;Node5 -->
<g id="edge7" class="edge">
<title>Node7&#45;&gt;Node5</title>
<path fill="none" stroke="midnightblue" d="M418.74,-124C359.43,-124 278.55,-124 223.09,-124"/>
<polygon fill="midnightblue" stroke="midnightblue" points="418.81,-127.5 428.81,-124 418.81,-120.5 418.81,-127.5"/>
</g>
<!-- Node8&#45;&gt;Node5 -->
<g id="edge10" class="edge">
<title>Node8&#45;&gt;Node5</title>
<path fill="none" stroke="midnightblue" d="M271.29,-97.9C248.51,-103.24 222.01,-109.45 200.59,-114.48"/>
<polygon fill="midnightblue" stroke="midnightblue" points="272.18,-101.28 281.12,-95.59 270.59,-94.47 272.18,-101.28"/>
</g>
</g>
</svg>
