<?xml version="1.0" encoding="UTF-8" standalone="no"?>
<!DOCTYPE svg PUBLIC "-//W3C//DTD SVG 1.1//EN"
 "http://www.w3.org/Graphics/SVG/1.1/DTD/svg11.dtd">
<!-- Generated by graphviz version 2.47.1 (20210417.1919)
 -->
<!-- Title: kt2ms Pages: 1 -->
<svg width="520pt" height="116pt"
 viewBox="0.00 0.00 520.00 115.50" xmlns="http://www.w3.org/2000/svg" xmlns:xlink="http://www.w3.org/1999/xlink">
<g id="graph0" class="graph" transform="scale(1 1) rotate(0) translate(4 111.5)">
<title>kt2ms</title>
<polygon fill="white" stroke="transparent" points="-4,4 -4,-111.5 516,-111.5 516,4 -4,4"/>
<!-- Node1 -->
<g id="node1" class="node">
<title>Node1</title>
<g id="a_node1"><a xlink:title=" ">
<polygon fill="#bfbfbf" stroke="black" points="468,-38.5 468,-57.5 512,-57.5 512,-38.5 468,-38.5"/>
<text text-anchor="middle" x="490" y="-45.5" font-family="Helvetica,sans-Serif" font-size="10.00">kt2ms</text>
</a>
</g>
</g>
<!-- Node2 -->
<g id="node2" class="node">
<title>Node2</title>
<g id="a_node2"><a xlink:href="classAtcf.html#a4bec7c75f41a2643be3bccf63921dfa1" target="_top" xlink:title=" ">
<polygon fill="white" stroke="black" points="95,-77 95,-107 262,-107 262,-77 95,-77"/>
<text text-anchor="start" x="103" y="-95" font-family="Helvetica,sans-Serif" font-size="10.00">Atcf::calculateOverlandTranslation</text>
<text text-anchor="middle" x="178.5" y="-84" font-family="Helvetica,sans-Serif" font-size="10.00">Velocity</text>
</a>
</g>
</g>
<!-- Node1&#45;&gt;Node2 -->
<g id="edge1" class="edge">
<title>Node1&#45;&gt;Node2</title>
<path fill="none" stroke="midnightblue" d="M458.44,-59.58C449.98,-62.4 440.73,-65.14 432,-67 375.99,-78.95 311.76,-85.21 262.09,-88.48"/>
<polygon fill="midnightblue" stroke="midnightblue" points="459.64,-62.87 467.93,-56.27 457.33,-56.26 459.64,-62.87"/>
</g>
<!-- Node4 -->
<g id="node4" class="node">
<title>Node4</title>
<g id="a_node4"><a xlink:href="classAtcf.html#adc746c4433140219ebaf449c6f8d21f3" target="_top" xlink:title=" ">
<polygon fill="white" stroke="black" points="298,-38.5 298,-57.5 432,-57.5 432,-38.5 298,-38.5"/>
<text text-anchor="middle" x="365" y="-45.5" font-family="Helvetica,sans-Serif" font-size="10.00">Atcf::computeStormMotion</text>
</a>
</g>
</g>
<!-- Node1&#45;&gt;Node4 -->
<g id="edge3" class="edge">
<title>Node1&#45;&gt;Node4</title>
<path fill="none" stroke="midnightblue" d="M457.7,-48C449.8,-48 441.01,-48 432.09,-48"/>
<polygon fill="midnightblue" stroke="midnightblue" points="457.86,-51.5 467.86,-48 457.86,-44.5 457.86,-51.5"/>
</g>
<!-- Node6 -->
<g id="node6" class="node">
<title>Node6</title>
<g id="a_node6"><a xlink:href="classAtcfLine.html#a669437f8facd47f46097adc21d0d497b" target="_top" xlink:title=" ">
<polygon fill="white" stroke="black" points="305.5,-0.5 305.5,-19.5 424.5,-19.5 424.5,-0.5 305.5,-0.5"/>
<text text-anchor="middle" x="365" y="-7.5" font-family="Helvetica,sans-Serif" font-size="10.00">AtcfLine::parseAtcfLine</text>
</a>
</g>
</g>
<!-- Node1&#45;&gt;Node6 -->
<g id="edge6" class="edge">
<title>Node1&#45;&gt;Node6</title>
<path fill="none" stroke="midnightblue" d="M458.38,-37.54C449.86,-34.69 440.59,-31.67 432,-29 421.75,-25.82 410.55,-22.53 400.34,-19.59"/>
<polygon fill="midnightblue" stroke="midnightblue" points="457.36,-40.88 467.95,-40.75 459.59,-34.25 457.36,-40.88"/>
</g>
<!-- Node3 -->
<g id="node3" class="node">
<title>Node3</title>
<g id="a_node3"><a xlink:href="classAtcf.html#aaab5dab5b969a87f538242e524431637" target="_top" xlink:title=" ">
<polygon fill="white" stroke="black" points="0,-38.5 0,-57.5 59,-57.5 59,-38.5 0,-38.5"/>
<text text-anchor="middle" x="29.5" y="-45.5" font-family="Helvetica,sans-Serif" font-size="10.00">Atcf::read</text>
</a>
</g>
</g>
<!-- Node2&#45;&gt;Node3 -->
<g id="edge2" class="edge">
<title>Node2&#45;&gt;Node3</title>
<path fill="none" stroke="midnightblue" d="M117.54,-74.05C97.32,-68 75.68,-61.52 59.04,-56.54"/>
<polygon fill="midnightblue" stroke="midnightblue" points="116.74,-77.47 127.32,-76.98 118.75,-70.76 116.74,-77.47"/>
</g>
<!-- Node5 -->
<g id="node5" class="node">
<title>Node5</title>
<g id="a_node5"><a xlink:href="classAtcf.html#ada693ebe0f0ee4be52b01fd3fe83963a" target="_top" xlink:title=" ">
<polygon fill="white" stroke="black" points="114.5,-38.5 114.5,-57.5 242.5,-57.5 242.5,-38.5 114.5,-38.5"/>
<text text-anchor="middle" x="178.5" y="-45.5" font-family="Helvetica,sans-Serif" font-size="10.00">Atcf::computeParameters</text>
</a>
</g>
</g>
<!-- Node4&#45;&gt;Node5 -->
<g id="edge4" class="edge">
<title>Node4&#45;&gt;Node5</title>
<path fill="none" stroke="midnightblue" d="M287.66,-48C272.69,-48 257.14,-48 242.66,-48"/>
<polygon fill="midnightblue" stroke="midnightblue" points="287.91,-51.5 297.91,-48 287.91,-44.5 287.91,-51.5"/>
</g>
<!-- Node5&#45;&gt;Node3 -->
<g id="edge5" class="edge">
<title>Node5&#45;&gt;Node3</title>
<path fill="none" stroke="midnightblue" d="M103.93,-48C88.08,-48 72.25,-48 59.36,-48"/>
<polygon fill="midnightblue" stroke="midnightblue" points="104.31,-51.5 114.31,-48 104.31,-44.5 104.31,-51.5"/>
</g>
<!-- Node6&#45;&gt;Node3 -->
<g id="edge7" class="edge">
<title>Node6&#45;&gt;Node3</title>
<path fill="none" stroke="midnightblue" d="M295.04,-10.78C240.39,-12.39 162.31,-16.86 95,-29 82.71,-31.22 69.42,-34.9 58.12,-38.44"/>
<polygon fill="midnightblue" stroke="midnightblue" points="295.4,-14.28 305.3,-10.51 295.21,-7.28 295.4,-14.28"/>
</g>
</g>
</svg>
