<?xml version="1.0" encoding="UTF-8" standalone="no"?>
<!DOCTYPE svg PUBLIC "-//W3C//DTD SVG 1.1//EN"
 "http://www.w3.org/Graphics/SVG/1.1/DTD/svg11.dtd">
<!-- Generated by graphviz version 2.47.1 (20210417.1919)
 -->
<!-- Title: calcHollandB Pages: 1 -->
<svg width="164pt" height="104pt"
 viewBox="0.00 0.00 164.00 104.00" xmlns="http://www.w3.org/2000/svg" xmlns:xlink="http://www.w3.org/1999/xlink">
<g id="graph0" class="graph" transform="scale(1 1) rotate(0) translate(4 100)">
<title>calcHollandB</title>
<polygon fill="white" stroke="transparent" points="-4,4 -4,-100 160,-100 160,4 -4,4"/>
<!-- Node1 -->
<g id="node1" class="node">
<title>Node1</title>
<g id="a_node1"><a xlink:title=" ">
<polygon fill="#bfbfbf" stroke="black" points="0,-38.5 0,-57.5 74,-57.5 74,-38.5 0,-38.5"/>
<text text-anchor="middle" x="37" y="-45.5" font-family="Helvetica,sans-Serif" font-size="10.00">calcHollandB</text>
</a>
</g>
</g>
<!-- Node2 -->
<g id="node2" class="node">
<title>Node2</title>
<g id="a_node2"><a xlink:href="namespacePhysical.html#a5753cd084d1e96b108e96f8694b4a8a1" target="_top" xlink:title=" ">
<polygon fill="white" stroke="black" points="118.5,-76.5 118.5,-95.5 147.5,-95.5 147.5,-76.5 118.5,-76.5"/>
<text text-anchor="middle" x="133" y="-83.5" font-family="Helvetica,sans-Serif" font-size="10.00">e</text>
</a>
</g>
</g>
<!-- Node1&#45;&gt;Node2 -->
<g id="edge1" class="edge">
<title>Node1&#45;&gt;Node2</title>
<path fill="none" stroke="midnightblue" d="M61.72,-57.59C76.16,-63.43 94.53,-70.85 108.86,-76.65"/>
<polygon fill="midnightblue" stroke="midnightblue" points="107.89,-80.03 118.48,-80.53 110.52,-73.54 107.89,-80.03"/>
</g>
<!-- Node3 -->
<g id="node3" class="node">
<title>Node3</title>
<g id="a_node3"><a xlink:href="namespacePhysical.html#a5aefedba3dc84731aad379d9538c0ca3" target="_top" xlink:title=" ">
<polygon fill="white" stroke="black" points="110,-38.5 110,-57.5 156,-57.5 156,-38.5 110,-38.5"/>
<text text-anchor="middle" x="133" y="-45.5" font-family="Helvetica,sans-Serif" font-size="10.00">mb2pa</text>
</a>
</g>
</g>
<!-- Node1&#45;&gt;Node3 -->
<g id="edge2" class="edge">
<title>Node1&#45;&gt;Node3</title>
<path fill="none" stroke="midnightblue" d="M74.07,-48C82.52,-48 91.46,-48 99.73,-48"/>
<polygon fill="midnightblue" stroke="midnightblue" points="99.75,-51.5 109.75,-48 99.75,-44.5 99.75,-51.5"/>
</g>
<!-- Node4 -->
<g id="node4" class="node">
<title>Node4</title>
<g id="a_node4"><a xlink:href="namespacePhysical.html#a0eeda58b967a4051dbcc34ce7c3b3bf2" target="_top" xlink:title=" ">
<polygon fill="white" stroke="black" points="112,-0.5 112,-19.5 154,-19.5 154,-0.5 112,-0.5"/>
<text text-anchor="middle" x="133" y="-7.5" font-family="Helvetica,sans-Serif" font-size="10.00">rhoAir</text>
</a>
</g>
</g>
<!-- Node1&#45;&gt;Node4 -->
<g id="edge3" class="edge">
<title>Node1&#45;&gt;Node4</title>
<path fill="none" stroke="midnightblue" d="M61.72,-38.41C74.03,-33.44 89.19,-27.31 102.27,-22.02"/>
<polygon fill="midnightblue" stroke="midnightblue" points="103.83,-25.16 111.79,-18.17 101.21,-18.67 103.83,-25.16"/>
</g>
</g>
</svg>
