<?xml version="1.0" encoding="UTF-8" standalone="no"?>
<!DOCTYPE svg PUBLIC "-//W3C//DTD SVG 1.1//EN"
 "http://www.w3.org/Graphics/SVG/1.1/DTD/svg11.dtd">
<!-- Generated by graphviz version 2.47.1 (20210417.1919)
 -->
<!-- Title: km2nmi Pages: 1 -->
<svg width="407pt" height="85pt"
 viewBox="0.00 0.00 407.00 85.00" xmlns="http://www.w3.org/2000/svg" xmlns:xlink="http://www.w3.org/1999/xlink">
<g id="graph0" class="graph" transform="scale(1 1) rotate(0) translate(4 81)">
<title>km2nmi</title>
<polygon fill="white" stroke="transparent" points="-4,4 -4,-81 403,-81 403,4 -4,4"/>
<!-- Node1 -->
<g id="node1" class="node">
<title>Node1</title>
<g id="a_node1"><a xlink:title=" ">
<polygon fill="#bfbfbf" stroke="black" points="348,-19.5 348,-38.5 399,-38.5 399,-19.5 348,-19.5"/>
<text text-anchor="middle" x="373.5" y="-26.5" font-family="Helvetica,sans-Serif" font-size="10.00">km2nmi</text>
</a>
</g>
</g>
<!-- Node2 -->
<g id="node2" class="node">
<title>Node2</title>
<g id="a_node2"><a xlink:href="namespacePhysical.html#a8f26784ba5fa860689f1dcaf50e062bb" target="_top" xlink:title=" ">
<polygon fill="white" stroke="black" points="255.5,-38.5 255.5,-57.5 306.5,-57.5 306.5,-38.5 255.5,-38.5"/>
<text text-anchor="middle" x="281" y="-45.5" font-family="Helvetica,sans-Serif" font-size="10.00">nmi2km</text>
</a>
</g>
</g>
<!-- Node1&#45;&gt;Node2 -->
<g id="edge1" class="edge">
<title>Node1&#45;&gt;Node2</title>
<path fill="none" stroke="midnightblue" d="M337.76,-36.29C327.41,-38.47 316.27,-40.8 306.7,-42.81"/>
<polygon fill="midnightblue" stroke="midnightblue" points="338.7,-39.67 347.77,-34.19 337.26,-32.82 338.7,-39.67"/>
</g>
<!-- Node6 -->
<g id="node6" class="node">
<title>Node6</title>
<g id="a_node6"><a xlink:href="classAtcf.html#aec35454de676b1f68288d59612b572ee" target="_top" xlink:title=" ">
<polygon fill="white" stroke="black" points="250,-0.5 250,-19.5 312,-19.5 312,-0.5 250,-0.5"/>
<text text-anchor="middle" x="281" y="-7.5" font-family="Helvetica,sans-Serif" font-size="10.00">Atcf::write</text>
</a>
</g>
</g>
<!-- Node1&#45;&gt;Node6 -->
<g id="edge5" class="edge">
<title>Node1&#45;&gt;Node6</title>
<path fill="none" stroke="midnightblue" d="M337.81,-21.72C329.37,-19.94 320.4,-18.06 312.18,-16.34"/>
<polygon fill="midnightblue" stroke="midnightblue" points="337.26,-25.18 347.77,-23.81 338.7,-18.33 337.26,-25.18"/>
</g>
<!-- Node3 -->
<g id="node3" class="node">
<title>Node3</title>
<g id="a_node3"><a xlink:href="classGahm.html#abd838ada495dbe369ae8b2cae185e063" target="_top" xlink:title=" ">
<polygon fill="white" stroke="black" points="113,-57.5 113,-76.5 196,-76.5 196,-57.5 113,-57.5"/>
<text text-anchor="middle" x="154.5" y="-64.5" font-family="Helvetica,sans-Serif" font-size="10.00">Gahm::getUvpr</text>
</a>
</g>
</g>
<!-- Node2&#45;&gt;Node3 -->
<g id="edge2" class="edge">
<title>Node2&#45;&gt;Node3</title>
<path fill="none" stroke="midnightblue" d="M245.35,-53.29C230.11,-55.61 212.1,-58.36 196.22,-60.79"/>
<polygon fill="midnightblue" stroke="midnightblue" points="246.05,-56.72 255.4,-51.75 244.99,-49.8 246.05,-56.72"/>
</g>
<!-- Node4 -->
<g id="node4" class="node">
<title>Node4</title>
<g id="a_node4"><a xlink:href="classAtcfLine.html#a669437f8facd47f46097adc21d0d497b" target="_top" xlink:title=" ">
<polygon fill="white" stroke="black" points="95,-19.5 95,-38.5 214,-38.5 214,-19.5 95,-19.5"/>
<text text-anchor="middle" x="154.5" y="-26.5" font-family="Helvetica,sans-Serif" font-size="10.00">AtcfLine::parseAtcfLine</text>
</a>
</g>
</g>
<!-- Node2&#45;&gt;Node4 -->
<g id="edge3" class="edge">
<title>Node2&#45;&gt;Node4</title>
<path fill="none" stroke="midnightblue" d="M245.35,-42.71C235.63,-41.23 224.78,-39.57 214.07,-37.94"/>
<polygon fill="midnightblue" stroke="midnightblue" points="244.99,-46.2 255.4,-44.25 246.05,-39.28 244.99,-46.2"/>
</g>
<!-- Node5 -->
<g id="node5" class="node">
<title>Node5</title>
<g id="a_node5"><a xlink:href="classAtcf.html#aaab5dab5b969a87f538242e524431637" target="_top" xlink:title=" ">
<polygon fill="white" stroke="black" points="0,-19.5 0,-38.5 59,-38.5 59,-19.5 0,-19.5"/>
<text text-anchor="middle" x="29.5" y="-26.5" font-family="Helvetica,sans-Serif" font-size="10.00">Atcf::read</text>
</a>
</g>
</g>
<!-- Node4&#45;&gt;Node5 -->
<g id="edge4" class="edge">
<title>Node4&#45;&gt;Node5</title>
<path fill="none" stroke="midnightblue" d="M84.74,-29C75.79,-29 67.06,-29 59.3,-29"/>
<polygon fill="midnightblue" stroke="midnightblue" points="84.88,-32.5 94.88,-29 84.88,-25.5 84.88,-32.5"/>
</g>
</g>
</svg>
