<?xml version="1.0" encoding="UTF-8" standalone="no"?>
<!DOCTYPE svg PUBLIC "-//W3C//DTD SVG 1.1//EN"
 "http://www.w3.org/Graphics/SVG/1.1/DTD/svg11.dtd">
<!-- Generated by graphviz version 2.47.1 (20210417.1919)
 -->
<!-- Title: quadrantAngle Pages: 1 -->
<svg width="700pt" height="91pt"
 viewBox="0.00 0.00 700.00 91.00" xmlns="http://www.w3.org/2000/svg" xmlns:xlink="http://www.w3.org/1999/xlink">
<g id="graph0" class="graph" transform="scale(1 1) rotate(0) translate(4 87)">
<title>quadrantAngle</title>
<polygon fill="white" stroke="transparent" points="-4,4 -4,-87 696,-87 696,4 -4,4"/>
<!-- Node1 -->
<g id="node1" class="node">
<title>Node1</title>
<g id="a_node1"><a xlink:title=" ">
<polygon fill="#bfbfbf" stroke="black" points="613,-22.5 613,-41.5 692,-41.5 692,-22.5 613,-22.5"/>
<text text-anchor="middle" x="652.5" y="-29.5" font-family="Helvetica,sans-Serif" font-size="10.00">quadrantAngle</text>
</a>
</g>
</g>
<!-- Node2 -->
<g id="node2" class="node">
<title>Node2</title>
<g id="a_node2"><a xlink:href="classAtcf.html#adccea6c4ad7108a14f86b833f3f94f6d" target="_top" xlink:title=" ">
<polygon fill="white" stroke="black" points="431,-39 431,-69 577,-69 577,-39 431,-39"/>
<text text-anchor="start" x="439" y="-57" font-family="Helvetica,sans-Serif" font-size="10.00">Atcf::computeQuadrantVector</text>
<text text-anchor="middle" x="504" y="-46" font-family="Helvetica,sans-Serif" font-size="10.00">Angle</text>
</a>
</g>
</g>
<!-- Node1&#45;&gt;Node2 -->
<g id="edge1" class="edge">
<title>Node1&#45;&gt;Node2</title>
<path fill="none" stroke="midnightblue" d="M602.57,-39.35C594.42,-40.57 585.81,-41.87 577.21,-43.16"/>
<polygon fill="midnightblue" stroke="midnightblue" points="603.26,-42.78 612.63,-37.84 602.22,-35.86 603.26,-42.78"/>
</g>
<!-- Node7 -->
<g id="node7" class="node">
<title>Node7</title>
<g id="a_node7"><a xlink:href="classGahm.html#a6cacdf953e6387e58ca0dc1369e15c00" target="_top" xlink:title=" ">
<polygon fill="white" stroke="black" points="473,-0.5 473,-19.5 535,-19.5 535,-0.5 473,-0.5"/>
<text text-anchor="middle" x="504" y="-7.5" font-family="Helvetica,sans-Serif" font-size="10.00">Gahm::get</text>
</a>
</g>
</g>
<!-- Node1&#45;&gt;Node7 -->
<g id="edge7" class="edge">
<title>Node1&#45;&gt;Node7</title>
<path fill="none" stroke="midnightblue" d="M602.66,-24.67C580.36,-21.32 554.66,-17.46 535.23,-14.54"/>
<polygon fill="midnightblue" stroke="midnightblue" points="602.22,-28.14 612.63,-26.16 603.26,-21.22 602.22,-28.14"/>
</g>
<!-- Node3 -->
<g id="node3" class="node">
<title>Node3</title>
<g id="a_node3"><a xlink:href="classAtcf.html#a80d9683a370e561492db8a0f6d795c5d" target="_top" xlink:title=" ">
<polygon fill="white" stroke="black" points="263,-63.5 263,-82.5 391,-82.5 391,-63.5 263,-63.5"/>
<text text-anchor="middle" x="327" y="-70.5" font-family="Helvetica,sans-Serif" font-size="10.00">Atcf::computeQuadrantVr</text>
</a>
</g>
</g>
<!-- Node2&#45;&gt;Node3 -->
<g id="edge2" class="edge">
<title>Node2&#45;&gt;Node3</title>
<path fill="none" stroke="midnightblue" d="M420.85,-62.92C410.85,-64.01 400.75,-65.1 391.08,-66.15"/>
<polygon fill="midnightblue" stroke="midnightblue" points="421.25,-66.4 430.81,-61.84 420.49,-59.44 421.25,-66.4"/>
</g>
<!-- Node6 -->
<g id="node6" class="node">
<title>Node6</title>
<g id="a_node6"><a xlink:href="classAtcf.html#adfe6ef35c351380ba863090d4fec04bb" target="_top" xlink:title=" ">
<polygon fill="white" stroke="black" points="259,-25.5 259,-44.5 395,-44.5 395,-25.5 259,-25.5"/>
<text text-anchor="middle" x="327" y="-32.5" font-family="Helvetica,sans-Serif" font-size="10.00">Atcf::recomputeQuadrantVr</text>
</a>
</g>
</g>
<!-- Node2&#45;&gt;Node6 -->
<g id="edge5" class="edge">
<title>Node2&#45;&gt;Node6</title>
<path fill="none" stroke="midnightblue" d="M420.81,-45.08C412.25,-44.15 403.62,-43.21 395.25,-42.3"/>
<polygon fill="midnightblue" stroke="midnightblue" points="420.49,-48.56 430.81,-46.16 421.25,-41.6 420.49,-48.56"/>
</g>
<!-- Node4 -->
<g id="node4" class="node">
<title>Node4</title>
<g id="a_node4"><a xlink:href="classAtcf.html#ada693ebe0f0ee4be52b01fd3fe83963a" target="_top" xlink:title=" ">
<polygon fill="white" stroke="black" points="95,-44.5 95,-63.5 223,-63.5 223,-44.5 95,-44.5"/>
<text text-anchor="middle" x="159" y="-51.5" font-family="Helvetica,sans-Serif" font-size="10.00">Atcf::computeParameters</text>
</a>
</g>
</g>
<!-- Node3&#45;&gt;Node4 -->
<g id="edge3" class="edge">
<title>Node3&#45;&gt;Node4</title>
<path fill="none" stroke="midnightblue" d="M252.59,-64.6C242.74,-63.47 232.71,-62.32 223.06,-61.22"/>
<polygon fill="midnightblue" stroke="midnightblue" points="252.44,-68.1 262.77,-65.76 253.23,-61.15 252.44,-68.1"/>
</g>
<!-- Node5 -->
<g id="node5" class="node">
<title>Node5</title>
<g id="a_node5"><a xlink:href="classAtcf.html#aaab5dab5b969a87f538242e524431637" target="_top" xlink:title=" ">
<polygon fill="white" stroke="black" points="0,-44.5 0,-63.5 59,-63.5 59,-44.5 0,-44.5"/>
<text text-anchor="middle" x="29.5" y="-51.5" font-family="Helvetica,sans-Serif" font-size="10.00">Atcf::read</text>
</a>
</g>
</g>
<!-- Node4&#45;&gt;Node5 -->
<g id="edge4" class="edge">
<title>Node4&#45;&gt;Node5</title>
<path fill="none" stroke="midnightblue" d="M84.74,-54C75.71,-54 66.94,-54 59.18,-54"/>
<polygon fill="midnightblue" stroke="midnightblue" points="85,-57.5 95,-54 85,-50.5 85,-57.5"/>
</g>
<!-- Node6&#45;&gt;Node4 -->
<g id="edge6" class="edge">
<title>Node6&#45;&gt;Node4</title>
<path fill="none" stroke="midnightblue" d="M248.93,-43.82C240.33,-44.81 231.65,-45.8 223.26,-46.76"/>
<polygon fill="midnightblue" stroke="midnightblue" points="249.42,-47.29 258.96,-42.67 248.63,-40.33 249.42,-47.29"/>
</g>
</g>
</svg>
