<?xml version="1.0" encoding="UTF-8" standalone="no"?>
<!DOCTYPE svg PUBLIC "-//W3C//DTD SVG 1.1//EN"
 "http://www.w3.org/Graphics/SVG/1.1/DTD/svg11.dtd">
<!-- Generated by graphviz version 2.47.1 (20210417.1919)
 -->
<!-- Title: radiusEarth Pages: 1 -->
<svg width="301pt" height="104pt"
 viewBox="0.00 0.00 301.00 104.00" xmlns="http://www.w3.org/2000/svg" xmlns:xlink="http://www.w3.org/1999/xlink">
<g id="graph0" class="graph" transform="scale(1 1) rotate(0) translate(4 100)">
<title>radiusEarth</title>
<polygon fill="white" stroke="transparent" points="-4,4 -4,-100 297,-100 297,4 -4,4"/>
<!-- Node1 -->
<g id="node1" class="node">
<title>Node1</title>
<g id="a_node1"><a xlink:title=" ">
<polygon fill="#bfbfbf" stroke="black" points="0,-38.5 0,-57.5 66,-57.5 66,-38.5 0,-38.5"/>
<text text-anchor="middle" x="33" y="-45.5" font-family="Helvetica,sans-Serif" font-size="10.00">radiusEarth</text>
</a>
</g>
</g>
<!-- Node2 -->
<g id="node2" class="node">
<title>Node2</title>
<g id="a_node2"><a xlink:href="namespacePhysical.html#a54d120caf204e2c8e9b5c646442f0aaf" target="_top" xlink:title=" ">
<polygon fill="white" stroke="black" points="102,-38.5 102,-57.5 168,-57.5 168,-38.5 102,-38.5"/>
<text text-anchor="middle" x="135" y="-45.5" font-family="Helvetica,sans-Serif" font-size="10.00">radiusEarth</text>
</a>
</g>
</g>
<!-- Node1&#45;&gt;Node2 -->
<g id="edge1" class="edge">
<title>Node1&#45;&gt;Node2</title>
<path fill="none" stroke="midnightblue" d="M66.19,-48C74.31,-48 83.15,-48 91.68,-48"/>
<polygon fill="midnightblue" stroke="midnightblue" points="91.87,-51.5 101.87,-48 91.87,-44.5 91.87,-51.5"/>
</g>
<!-- Node3 -->
<g id="node3" class="node">
<title>Node3</title>
<g id="a_node3"><a xlink:href="namespacePhysical.html#aedb77f347557f2942e99437f55e976a8" target="_top" xlink:title=" ">
<polygon fill="white" stroke="black" points="223,-76.5 223,-95.5 274,-95.5 274,-76.5 223,-76.5"/>
<text text-anchor="middle" x="248.5" y="-83.5" font-family="Helvetica,sans-Serif" font-size="10.00">deg2rad</text>
</a>
</g>
</g>
<!-- Node2&#45;&gt;Node3 -->
<g id="edge2" class="edge">
<title>Node2&#45;&gt;Node3</title>
<path fill="none" stroke="midnightblue" d="M164.14,-57.59C178.95,-62.64 197.25,-68.88 212.93,-74.22"/>
<polygon fill="midnightblue" stroke="midnightblue" points="212.19,-77.67 222.79,-77.58 214.45,-71.04 212.19,-77.67"/>
</g>
<!-- Node4 -->
<g id="node4" class="node">
<title>Node4</title>
<g id="a_node4"><a xlink:href="namespacePhysical.html#a6c13e82a46905cdfbf1647591d8935ed" target="_top" xlink:title=" ">
<polygon fill="white" stroke="black" points="204,-38.5 204,-57.5 293,-57.5 293,-38.5 204,-38.5"/>
<text text-anchor="middle" x="248.5" y="-45.5" font-family="Helvetica,sans-Serif" font-size="10.00">equatorialRadius</text>
</a>
</g>
</g>
<!-- Node2&#45;&gt;Node4 -->
<g id="edge3" class="edge">
<title>Node2&#45;&gt;Node4</title>
<path fill="none" stroke="midnightblue" d="M168.25,-48C176.2,-48 184.93,-48 193.61,-48"/>
<polygon fill="midnightblue" stroke="midnightblue" points="193.71,-51.5 203.71,-48 193.71,-44.5 193.71,-51.5"/>
</g>
<!-- Node5 -->
<g id="node5" class="node">
<title>Node5</title>
<g id="a_node5"><a xlink:href="namespacePhysical.html#acbba7b727274b2f016499f85b0b3d2f7" target="_top" xlink:title=" ">
<polygon fill="white" stroke="black" points="214.5,-0.5 214.5,-19.5 282.5,-19.5 282.5,-0.5 214.5,-0.5"/>
<text text-anchor="middle" x="248.5" y="-7.5" font-family="Helvetica,sans-Serif" font-size="10.00">polarRadius</text>
</a>
</g>
</g>
<!-- Node2&#45;&gt;Node5 -->
<g id="edge4" class="edge">
<title>Node2&#45;&gt;Node5</title>
<path fill="none" stroke="midnightblue" d="M164.14,-38.41C178,-33.69 194.92,-27.92 209.88,-22.82"/>
<polygon fill="midnightblue" stroke="midnightblue" points="211.04,-26.12 219.37,-19.59 208.78,-19.5 211.04,-26.12"/>
</g>
</g>
</svg>
