<?xml version="1.0" encoding="UTF-8" standalone="no"?>
<!DOCTYPE svg PUBLIC "-//W3C//DTD SVG 1.1//EN"
 "http://www.w3.org/Graphics/SVG/1.1/DTD/svg11.dtd">
<!-- Generated by graphviz version 2.47.1 (20210417.1919)
 -->
<!-- Title: deg2rad Pages: 1 -->
<!--zoomable 342 -->
<svg id="main" version="1.1" xmlns="http://www.w3.org/2000/svg" xmlns:xlink="http://www.w3.org/1999/xlink" xml:space="preserve" onload="init(evt)">
<style type="text/css"><![CDATA[
.edge:hover path { stroke: red; }
.edge:hover polygon { stroke: red; fill: red; }
]]></style>
<script type="text/javascript"><![CDATA[
var edges = document.getElementsByTagName('g');
if (edges && edges.length) {
  for (var i=0;i<edges.length;i++) {
    if (edges[i].id.substr(0,4)=='edge') {
      edges[i].setAttribute('class','edge');
    }
  }
}
]]></script>
        <defs>
                <circle id="rim" cx="0" cy="0" r="7"/>
                <circle id="rim2" cx="0" cy="0" r="3.5"/>
                <g id="zoomPlus">
                        <use xlink:href="#rim" fill="#404040">
                                <set attributeName="fill" to="#808080" begin="zoomplus.mouseover" end="zoomplus.mouseout"/>
                        </use>
                        <path d="M-4,0h8M0,-4v8" fill="none" stroke="white" stroke-width="1.5" pointer-events="none"/>
                </g>
                <g id="zoomMin">
                        <use xlink:href="#rim" fill="#404040">
                                <set attributeName="fill" to="#808080" begin="zoomminus.mouseover" end="zoomminus.mouseout"/>
                        </use>
                        <path d="M-4,0h8" fill="none" stroke="white" stroke-width="1.5" pointer-events="none"/>
                </g>
                <g id="dirArrow">
                        <path fill="none" stroke="white" stroke-width="1.5" d="M0,-3.0v7 M-2.5,-0.5L0,-3.0L2.5,-0.5"/>
                </g>
               <g id="resetDef">
                       <use xlink:href="#rim2" fill="#404040">
                               <set attributeName="fill" to="#808080" begin="reset.mouseover" end="reset.mouseout"/>
                       </use>
               </g>
        </defs>

<script type="text/javascript">
var viewWidth = 1008;
var viewHeight = 342;
var sectionId = 'dynsection-6';
</script>
<script xlink:href="svgpan.js"/>
<svg id="graph" class="graph">
<g id="viewport">
<title>deg2rad</title>
<polygon fill="white" stroke="transparent" points="-4,4 -4,-337.73 1004,-337.73 1004,4 -4,4"/>
<!-- Node1 -->
<g id="node1" class="node">
<title>Node1</title>
<g id="a_node1"><a xlink:title=" ">
<polygon fill="#bfbfbf" stroke="black" points="949,-181.23 949,-200.23 1000,-200.23 1000,-181.23 949,-181.23"/>
<text text-anchor="middle" x="974.5" y="-188.23" font-family="Helvetica,sans-Serif" font-size="10.00">deg2rad</text>
</a>
</g>
</g>
<!-- Node2 -->
<g id="node2" class="node">
<title>Node2</title>
<g id="a_node2"><a xlink:href="namespacePhysical.html#a7f87008c12e72e828995270caafd6963" target="_top" xlink:title=" ">
<polygon fill="white" stroke="black" points="809,-314.23 809,-333.23 883,-333.23 883,-314.23 809,-314.23"/>
<text text-anchor="middle" x="846" y="-321.23" font-family="Helvetica,sans-Serif" font-size="10.00">azimuthEarth</text>
</a>
</g>
</g>
<!-- Node1&#45;&gt;Node2 -->
<g id="edge1" class="edge">
<title>Node1&#45;&gt;Node2</title>
<path fill="none" stroke="midnightblue" d="M967.46,-210.19C959.01,-234.4 941.41,-275.49 913,-299.73 904.47,-307.02 893.54,-312.16 883.05,-315.77"/>
<polygon fill="midnightblue" stroke="midnightblue" points="970.89,-210.97 970.71,-200.38 964.25,-208.78 970.89,-210.97"/>
</g>
<!-- Node3 -->
<g id="node3" class="node">
<title>Node3</title>
<g id="a_node3"><a xlink:href="classAtcf.html#ada693ebe0f0ee4be52b01fd3fe83963a" target="_top" xlink:title=" ">
<polygon fill="white" stroke="black" points="615,-262.23 615,-281.23 743,-281.23 743,-262.23 615,-262.23"/>
<text text-anchor="middle" x="679" y="-269.23" font-family="Helvetica,sans-Serif" font-size="10.00">Atcf::computeParameters</text>
</a>
</g>
</g>
<!-- Node1&#45;&gt;Node3 -->
<g id="edge2" class="edge">
<title>Node1&#45;&gt;Node3</title>
<path fill="none" stroke="midnightblue" d="M964.62,-209.62C954.84,-227.96 937.23,-254.73 913,-266.73 852.63,-296.64 772.23,-289.76 723.39,-281.29"/>
<polygon fill="midnightblue" stroke="midnightblue" points="967.86,-210.95 969.24,-200.45 961.61,-207.8 967.86,-210.95"/>
</g>
<!-- Node5 -->
<g id="node5" class="node">
<title>Node5</title>
<g id="a_node5"><a xlink:href="classAtcf.html#adc746c4433140219ebaf449c6f8d21f3" target="_top" xlink:title=" ">
<polygon fill="white" stroke="black" points="779,-238.23 779,-257.23 913,-257.23 913,-238.23 779,-238.23"/>
<text text-anchor="middle" x="846" y="-245.23" font-family="Helvetica,sans-Serif" font-size="10.00">Atcf::computeStormMotion</text>
</a>
</g>
</g>
<!-- Node1&#45;&gt;Node5 -->
<g id="edge4" class="edge">
<title>Node1&#45;&gt;Node5</title>
<path fill="none" stroke="midnightblue" d="M948.57,-205.44C937.81,-211.49 924.98,-218.33 913,-223.73 901.22,-229.05 887.88,-234.08 876.29,-238.15"/>
<polygon fill="midnightblue" stroke="midnightblue" points="950.46,-208.38 957.41,-200.38 946.99,-202.31 950.46,-208.38"/>
</g>
<!-- Node6 -->
<g id="node6" class="node">
<title>Node6</title>
<g id="a_node6"><a xlink:href="namespacePhysical.html#aa6f9f6768fb27a3751a74b7e43b4a45a" target="_top" xlink:title=" ">
<polygon fill="white" stroke="black" points="822.5,-67.23 822.5,-86.23 869.5,-86.23 869.5,-67.23 822.5,-67.23"/>
<text text-anchor="middle" x="846" y="-74.23" font-family="Helvetica,sans-Serif" font-size="10.00">coriolis</text>
</a>
</g>
</g>
<!-- Node1&#45;&gt;Node6 -->
<g id="edge6" class="edge">
<title>Node1&#45;&gt;Node6</title>
<path fill="none" stroke="midnightblue" d="M960.46,-172.69C948.99,-157.53 931.3,-135.82 913,-119.73 897.9,-106.46 878.38,-94.25 864.5,-86.26"/>
<polygon fill="midnightblue" stroke="midnightblue" points="957.69,-174.82 966.46,-180.77 963.31,-170.65 957.69,-174.82"/>
</g>
<!-- Node11 -->
<g id="node11" class="node">
<title>Node11</title>
<g id="a_node11"><a xlink:href="namespacePhysical.html#aa9f4487d4613a1f2b0a6f4c12d564e2c" target="_top" xlink:title=" ">
<polygon fill="white" stroke="black" points="630,-200.23 630,-219.23 728,-219.23 728,-200.23 630,-200.23"/>
<text text-anchor="middle" x="679" y="-207.23" font-family="Helvetica,sans-Serif" font-size="10.00">geodesic_distance</text>
</a>
</g>
</g>
<!-- Node1&#45;&gt;Node11 -->
<g id="edge12" class="edge">
<title>Node1&#45;&gt;Node11</title>
<path fill="none" stroke="midnightblue" d="M938.88,-192.98C886.63,-196.36 787.45,-202.78 728.18,-206.62"/>
<polygon fill="midnightblue" stroke="midnightblue" points="939.23,-196.46 948.98,-192.32 938.78,-189.47 939.23,-196.46"/>
</g>
<!-- Node18 -->
<g id="node18" class="node">
<title>Node18</title>
<g id="a_node18"><a xlink:href="classGahm.html#a6cacdf953e6387e58ca0dc1369e15c00" target="_top" xlink:title=" ">
<polygon fill="white" stroke="black" points="815,-29.23 815,-48.23 877,-48.23 877,-29.23 815,-29.23"/>
<text text-anchor="middle" x="846" y="-36.23" font-family="Helvetica,sans-Serif" font-size="10.00">Gahm::get</text>
</a>
</g>
</g>
<!-- Node1&#45;&gt;Node18 -->
<g id="edge21" class="edge">
<title>Node1&#45;&gt;Node18</title>
<path fill="none" stroke="midnightblue" d="M969.91,-170.89C963.6,-141.78 947.75,-87.73 913,-57.73 903.07,-49.16 889.49,-44.45 877.23,-41.86"/>
<polygon fill="midnightblue" stroke="midnightblue" points="966.55,-171.93 971.94,-181.05 973.41,-170.56 966.55,-171.93"/>
</g>
<!-- Node19 -->
<g id="node19" class="node">
<title>Node19</title>
<g id="a_node19"><a xlink:href="namespacePhysical.html#a54d120caf204e2c8e9b5c646442f0aaf" target="_top" xlink:title=" ">
<polygon fill="white" stroke="black" points="813,-162.23 813,-181.23 879,-181.23 879,-162.23 813,-162.23"/>
<text text-anchor="middle" x="846" y="-169.23" font-family="Helvetica,sans-Serif" font-size="10.00">radiusEarth</text>
</a>
</g>
</g>
<!-- Node1&#45;&gt;Node19 -->
<g id="edge22" class="edge">
<title>Node1&#45;&gt;Node19</title>
<path fill="none" stroke="midnightblue" d="M938.7,-185.51C920.15,-182.72 897.47,-179.31 879.3,-176.59"/>
<polygon fill="midnightblue" stroke="midnightblue" points="938.4,-189 948.81,-187.03 939.44,-182.08 938.4,-189"/>
</g>
<!-- Node21 -->
<g id="node21" class="node">
<title>Node21</title>
<g id="a_node21"><a xlink:href="classVortex.html#ae8ae0a3d4ce49e437c521815b907ea13" target="_top" xlink:title=" ">
<polygon fill="white" stroke="black" points="475,-109.23 475,-128.23 579,-128.23 579,-109.23 475,-109.23"/>
<text text-anchor="middle" x="527" y="-116.23" font-family="Helvetica,sans-Serif" font-size="10.00">Vortex::rotateWinds</text>
</a>
</g>
</g>
<!-- Node1&#45;&gt;Node21 -->
<g id="edge25" class="edge">
<title>Node1&#45;&gt;Node21</title>
<path fill="none" stroke="midnightblue" d="M953.64,-174.89C942.39,-166.8 927.66,-157.66 913,-152.73 798.36,-114.18 654.29,-113.06 579.07,-115.78"/>
<polygon fill="midnightblue" stroke="midnightblue" points="951.75,-177.84 961.86,-181.04 955.95,-172.24 951.75,-177.84"/>
</g>
<!-- Node4 -->
<g id="node4" class="node">
<title>Node4</title>
<g id="a_node4"><a xlink:href="classAtcf.html#aaab5dab5b969a87f538242e524431637" target="_top" xlink:title=" ">
<polygon fill="white" stroke="black" points="0,-240.23 0,-259.23 59,-259.23 59,-240.23 0,-240.23"/>
<text text-anchor="middle" x="29.5" y="-247.23" font-family="Helvetica,sans-Serif" font-size="10.00">Atcf::read</text>
</a>
</g>
</g>
<!-- Node3&#45;&gt;Node4 -->
<g id="edge3" class="edge">
<title>Node3&#45;&gt;Node4</title>
<path fill="none" stroke="midnightblue" d="M604.54,-269.67C493.98,-266.48 278.25,-259.98 95,-252.73 83.24,-252.27 70.27,-251.68 59.07,-251.15"/>
<polygon fill="midnightblue" stroke="midnightblue" points="604.49,-273.17 614.58,-269.96 604.69,-266.17 604.49,-273.17"/>
</g>
<!-- Node5&#45;&gt;Node3 -->
<g id="edge5" class="edge">
<title>Node5&#45;&gt;Node3</title>
<path fill="none" stroke="midnightblue" d="M769.14,-258.77C760.41,-260.04 751.58,-261.32 743.04,-262.56"/>
<polygon fill="midnightblue" stroke="midnightblue" points="769.92,-262.19 779.31,-257.29 768.91,-255.26 769.92,-262.19"/>
</g>
<!-- Node7 -->
<g id="node7" class="node">
<title>Node7</title>
<g id="a_node7"><a xlink:href="classVortex.html#a31f8393268fb0ce958148e0bd2fcb482" target="_top" xlink:title=" ">
<polygon fill="white" stroke="black" points="628.5,-48.23 628.5,-67.23 729.5,-67.23 729.5,-48.23 628.5,-48.23"/>
<text text-anchor="middle" x="679" y="-55.23" font-family="Helvetica,sans-Serif" font-size="10.00">Vortex::computeBg</text>
</a>
</g>
</g>
<!-- Node6&#45;&gt;Node7 -->
<g id="edge7" class="edge">
<title>Node6&#45;&gt;Node7</title>
<path fill="none" stroke="midnightblue" d="M812.23,-72.96C788.67,-70.25 756.47,-66.54 729.74,-63.46"/>
<polygon fill="midnightblue" stroke="midnightblue" points="812.07,-76.46 822.4,-74.13 812.87,-69.51 812.07,-76.46"/>
</g>
<!-- Node8 -->
<g id="node8" class="node">
<title>Node8</title>
<g id="a_node8"><a xlink:href="classVortex.html#aa96c2354f3470dfbabf6f61dbbba25c6" target="_top" xlink:title=" ">
<polygon fill="white" stroke="black" points="475.5,-43.23 475.5,-62.23 578.5,-62.23 578.5,-43.23 475.5,-43.23"/>
<text text-anchor="middle" x="527" y="-50.23" font-family="Helvetica,sans-Serif" font-size="10.00">Vortex::computePhi</text>
</a>
</g>
</g>
<!-- Node6&#45;&gt;Node8 -->
<g id="edge8" class="edge">
<title>Node6&#45;&gt;Node8</title>
<path fill="none" stroke="midnightblue" d="M812.41,-68.78C801.61,-65.77 789.64,-62.02 779,-57.73 762.22,-50.97 760.56,-43.08 743,-38.73 682.73,-23.8 610.22,-34.12 566.69,-43.22"/>
<polygon fill="midnightblue" stroke="midnightblue" points="811.75,-72.23 822.31,-71.43 813.56,-65.47 811.75,-72.23"/>
</g>
<!-- Node9 -->
<g id="node9" class="node">
<title>Node9</title>
<g id="a_node9"><a xlink:href="classGahm.html#abd838ada495dbe369ae8b2cae185e063" target="_top" xlink:title=" ">
<polygon fill="white" stroke="black" points="327,-104.23 327,-123.23 410,-123.23 410,-104.23 327,-104.23"/>
<text text-anchor="middle" x="368.5" y="-111.23" font-family="Helvetica,sans-Serif" font-size="10.00">Gahm::getUvpr</text>
</a>
</g>
</g>
<!-- Node6&#45;&gt;Node9 -->
<g id="edge9" class="edge">
<title>Node6&#45;&gt;Node9</title>
<path fill="none" stroke="midnightblue" d="M812.67,-70.28C801.6,-67.34 789.4,-63.25 779,-57.73 760.6,-47.98 762.58,-34.82 743,-27.73 630.98,12.82 587.09,6.65 475,-33.73 433.48,-48.69 394.9,-86.21 378.2,-104.04"/>
<polygon fill="midnightblue" stroke="midnightblue" points="811.87,-73.69 822.42,-72.67 813.54,-66.89 811.87,-73.69"/>
</g>
<!-- Node10 -->
<g id="node10" class="node">
<title>Node10</title>
<g id="a_node10"><a xlink:href="classVortex.html#ad0dcc0642f9977e7d333d943744ccf77" target="_top" xlink:title=" ">
<polygon fill="white" stroke="black" points="621.5,-86.23 621.5,-105.23 736.5,-105.23 736.5,-86.23 621.5,-86.23"/>
<text text-anchor="middle" x="679" y="-93.23" font-family="Helvetica,sans-Serif" font-size="10.00">Vortex::rossbyNumber</text>
</a>
</g>
</g>
<!-- Node6&#45;&gt;Node10 -->
<g id="edge10" class="edge">
<title>Node6&#45;&gt;Node10</title>
<path fill="none" stroke="midnightblue" d="M812.45,-80.48C790.88,-82.97 762.01,-86.29 736.73,-89.2"/>
<polygon fill="midnightblue" stroke="midnightblue" points="812.87,-83.96 822.4,-79.34 812.07,-77 812.87,-83.96"/>
</g>
<!-- Node10&#45;&gt;Node8 -->
<g id="edge11" class="edge">
<title>Node10&#45;&gt;Node8</title>
<path fill="none" stroke="midnightblue" d="M635,-83.41C611.54,-76.68 582.93,-68.48 561.2,-62.25"/>
<polygon fill="midnightblue" stroke="midnightblue" points="634.13,-86.8 644.71,-86.19 636.06,-80.07 634.13,-86.8"/>
</g>
<!-- Node12 -->
<g id="node12" class="node">
<title>Node12</title>
<g id="a_node12"><a xlink:href="namespacePhysical.html#a91dad53e6fb51e27776a895703d6c17a" target="_top" xlink:title=" ">
<polygon fill="white" stroke="black" points="500.5,-156.23 500.5,-175.23 553.5,-175.23 553.5,-156.23 500.5,-156.23"/>
<text text-anchor="middle" x="527" y="-163.23" font-family="Helvetica,sans-Serif" font-size="10.00">distance</text>
</a>
</g>
</g>
<!-- Node11&#45;&gt;Node12 -->
<g id="edge13" class="edge">
<title>Node11&#45;&gt;Node12</title>
<path fill="none" stroke="midnightblue" d="M635.68,-197.32C609.22,-189.56 576.02,-179.82 553.53,-173.22"/>
<polygon fill="midnightblue" stroke="midnightblue" points="634.87,-200.73 645.45,-200.19 636.84,-194.01 634.87,-200.73"/>
</g>
<!-- Node15 -->
<g id="node15" class="node">
<title>Node15</title>
<g id="a_node15"><a xlink:href="namespacePhysical.html#a2efe94842cf85bad805d2e444bab45d0" target="_top" xlink:title=" ">
<polygon fill="white" stroke="black" points="493,-213.23 493,-232.23 561,-232.23 561,-213.23 493,-213.23"/>
<text text-anchor="middle" x="527" y="-220.23" font-family="Helvetica,sans-Serif" font-size="10.00">sphericalDx</text>
</a>
</g>
</g>
<!-- Node11&#45;&gt;Node15 -->
<g id="edge17" class="edge">
<title>Node11&#45;&gt;Node15</title>
<path fill="none" stroke="midnightblue" d="M619.51,-214.8C599.66,-216.52 578.18,-218.39 561.02,-219.87"/>
<polygon fill="midnightblue" stroke="midnightblue" points="620.05,-218.27 629.71,-213.92 619.45,-211.3 620.05,-218.27"/>
</g>
<!-- Node12&#45;&gt;Node9 -->
<g id="edge14" class="edge">
<title>Node12&#45;&gt;Node9</title>
<path fill="none" stroke="midnightblue" d="M493.05,-152.38C476.89,-146.06 457.06,-138.61 439,-132.73 428.65,-129.37 417.31,-126.09 406.85,-123.24"/>
<polygon fill="midnightblue" stroke="midnightblue" points="492,-155.73 502.58,-156.15 494.57,-149.22 492,-155.73"/>
</g>
<!-- Node13 -->
<g id="node13" class="node">
<title>Node13</title>
<g id="a_node13"><a xlink:href="classVortex.html#a77f9a5acf2467da0fc540737fcb1ba65" target="_top" xlink:title=" ">
<polygon fill="white" stroke="black" points="298,-142.23 298,-161.23 439,-161.23 439,-142.23 298,-142.23"/>
<text text-anchor="middle" x="368.5" y="-149.23" font-family="Helvetica,sans-Serif" font-size="10.00">Vortex::interpolateParameter</text>
</a>
</g>
</g>
<!-- Node12&#45;&gt;Node13 -->
<g id="edge15" class="edge">
<title>Node12&#45;&gt;Node13</title>
<path fill="none" stroke="midnightblue" d="M489.77,-162.49C474.72,-161.15 456.72,-159.54 439.28,-157.98"/>
<polygon fill="midnightblue" stroke="midnightblue" points="489.89,-166.02 500.16,-163.42 490.51,-159.04 489.89,-166.02"/>
</g>
<!-- Node14 -->
<g id="node14" class="node">
<title>Node14</title>
<g id="a_node14"><a xlink:href="classVortex.html#a46c545695b0a66248dc9e47d3a2f2b43" target="_top" xlink:title=" ">
<polygon fill="white" stroke="black" points="325.5,-180.23 325.5,-199.23 411.5,-199.23 411.5,-180.23 325.5,-180.23"/>
<text text-anchor="middle" x="368.5" y="-187.23" font-family="Helvetica,sans-Serif" font-size="10.00">Vortex::spInterp</text>
</a>
</g>
</g>
<!-- Node12&#45;&gt;Node14 -->
<g id="edge16" class="edge">
<title>Node12&#45;&gt;Node14</title>
<path fill="none" stroke="midnightblue" d="M489.98,-171.26C466.62,-174.84 436.09,-179.52 411.61,-183.28"/>
<polygon fill="midnightblue" stroke="midnightblue" points="490.8,-174.67 500.16,-169.7 489.74,-167.75 490.8,-174.67"/>
</g>
<!-- Node16 -->
<g id="node16" class="node">
<title>Node16</title>
<g id="a_node16"><a xlink:href="classAtcf.html#a4fce87a97b674a5bbb54f01a8dd5c55e" target="_top" xlink:title=" ">
<polygon fill="white" stroke="black" points="330.5,-218.23 330.5,-237.23 406.5,-237.23 406.5,-218.23 330.5,-218.23"/>
<text text-anchor="middle" x="368.5" y="-225.23" font-family="Helvetica,sans-Serif" font-size="10.00">Atcf::uvTrans</text>
</a>
</g>
</g>
<!-- Node15&#45;&gt;Node16 -->
<g id="edge18" class="edge">
<title>Node15&#45;&gt;Node16</title>
<path fill="none" stroke="midnightblue" d="M482.63,-224.12C458.8,-224.88 429.54,-225.82 406.76,-226.54"/>
<polygon fill="midnightblue" stroke="midnightblue" points="482.93,-227.61 492.81,-223.79 482.7,-220.62 482.93,-227.61"/>
</g>
<!-- Node17 -->
<g id="node17" class="node">
<title>Node17</title>
<g id="a_node17"><a xlink:href="classAtcf.html#a4bec7c75f41a2643be3bccf63921dfa1" target="_top" xlink:title=" ">
<polygon fill="white" stroke="black" points="95,-212.73 95,-242.73 262,-242.73 262,-212.73 95,-212.73"/>
<text text-anchor="start" x="103" y="-230.73" font-family="Helvetica,sans-Serif" font-size="10.00">Atcf::calculateOverlandTranslation</text>
<text text-anchor="middle" x="178.5" y="-219.73" font-family="Helvetica,sans-Serif" font-size="10.00">Velocity</text>
</a>
</g>
</g>
<!-- Node16&#45;&gt;Node17 -->
<g id="edge19" class="edge">
<title>Node16&#45;&gt;Node17</title>
<path fill="none" stroke="midnightblue" d="M320.32,-227.73C302.65,-227.73 282,-227.73 262.06,-227.73"/>
<polygon fill="midnightblue" stroke="midnightblue" points="320.36,-231.23 330.36,-227.73 320.36,-224.23 320.36,-231.23"/>
</g>
<!-- Node17&#45;&gt;Node4 -->
<g id="edge20" class="edge">
<title>Node17&#45;&gt;Node4</title>
<path fill="none" stroke="midnightblue" d="M84.86,-241.6C75.67,-242.97 66.91,-244.29 59.21,-245.44"/>
<polygon fill="midnightblue" stroke="midnightblue" points="85.6,-245.03 94.98,-240.08 84.57,-238.1 85.6,-245.03"/>
</g>
<!-- Node19&#45;&gt;Node11 -->
<g id="edge23" class="edge">
<title>Node19&#45;&gt;Node11</title>
<path fill="none" stroke="midnightblue" d="M802.88,-181.43C777.91,-187.18 746.39,-194.44 721.52,-200.17"/>
<polygon fill="midnightblue" stroke="midnightblue" points="803.84,-184.81 812.79,-179.15 802.26,-177.98 803.84,-184.81"/>
</g>
<!-- Node20 -->
<g id="node20" class="node">
<title>Node20</title>
<g id="a_node20"><a xlink:href="namespacePhysical.html#a4d8d9f1fe46c4f162e20e2cfcad0f0cd" target="_top" xlink:title=" ">
<polygon fill="white" stroke="black" points="646,-162.23 646,-181.23 712,-181.23 712,-162.23 646,-162.23"/>
<text text-anchor="middle" x="679" y="-169.23" font-family="Helvetica,sans-Serif" font-size="10.00">radiusEarth</text>
</a>
</g>
</g>
<!-- Node19&#45;&gt;Node20 -->
<g id="edge24" class="edge">
<title>Node19&#45;&gt;Node20</title>
<path fill="none" stroke="midnightblue" d="M802.43,-171.73C774.25,-171.73 737.88,-171.73 712.12,-171.73"/>
<polygon fill="midnightblue" stroke="midnightblue" points="802.79,-175.23 812.79,-171.73 802.79,-168.23 802.79,-175.23"/>
</g>
<!-- Node21&#45;&gt;Node9 -->
<g id="edge26" class="edge">
<title>Node21&#45;&gt;Node9</title>
<path fill="none" stroke="midnightblue" d="M464.75,-116.78C446.44,-116.19 426.83,-115.57 410.19,-115.03"/>
<polygon fill="midnightblue" stroke="midnightblue" points="464.65,-120.28 474.76,-117.1 464.87,-113.28 464.65,-120.28"/>
</g>
</g>
</svg>
        <g id="navigator" transform="translate(0 0)" fill="#404254">
                <rect fill="#f2f5e9" fill-opacity="0.5" stroke="#606060" stroke-width=".5" x="0" y="0" width="60" height="60"/>
                <use id="zoomplus" xlink:href="#zoomPlus" x="17" y="9" onmousedown="handleZoom(evt,'in')"/>
                <use id="zoomminus" xlink:href="#zoomMin" x="42" y="9" onmousedown="handleZoom(evt,'out')"/>
                <use id="reset" xlink:href="#resetDef" x="30" y="36" onmousedown="handleReset()"/>
                <g id="arrowUp" xlink:href="#dirArrow" transform="translate(30 24)" onmousedown="handlePan(0,-1)">
                  <use xlink:href="#rim" fill="#404040">
                        <set attributeName="fill" to="#808080" begin="arrowUp.mouseover" end="arrowUp.mouseout"/>
                  </use>
                  <path fill="none" stroke="white" stroke-width="1.5" d="M0,-3.0v7 M-2.5,-0.5L0,-3.0L2.5,-0.5"/>
                </g>
                <g id="arrowRight" xlink:href="#dirArrow" transform="rotate(90) translate(36 -43)" onmousedown="handlePan(1,0)">
                  <use xlink:href="#rim" fill="#404040">
                        <set attributeName="fill" to="#808080" begin="arrowRight.mouseover" end="arrowRight.mouseout"/>
                  </use>
                  <path fill="none" stroke="white" stroke-width="1.5" d="M0,-3.0v7 M-2.5,-0.5L0,-3.0L2.5,-0.5"/>
                </g>
                <g id="arrowDown" xlink:href="#dirArrow" transform="rotate(180) translate(-30 -48)" onmousedown="handlePan(0,1)">
                  <use xlink:href="#rim" fill="#404040">
                        <set attributeName="fill" to="#808080" begin="arrowDown.mouseover" end="arrowDown.mouseout"/>
                  </use>
                  <path fill="none" stroke="white" stroke-width="1.5" d="M0,-3.0v7 M-2.5,-0.5L0,-3.0L2.5,-0.5"/>
                </g>
                <g id="arrowLeft" xlink:href="#dirArrow" transform="rotate(270) translate(-36 17)" onmousedown="handlePan(-1,0)">
                  <use xlink:href="#rim" fill="#404040">
                        <set attributeName="fill" to="#808080" begin="arrowLeft.mouseover" end="arrowLeft.mouseout"/>
                  </use>
                  <path fill="none" stroke="white" stroke-width="1.5" d="M0,-3.0v7 M-2.5,-0.5L0,-3.0L2.5,-0.5"/>
                </g>
        </g>
        <svg viewBox="0 0 15 15" width="100%" height="30px" preserveAspectRatio="xMaxYMin meet">
         <g id="arrow_out" transform="scale(0.3 0.3)">
          <a xlink:href="namespacePhysical_aedb77f347557f2942e99437f55e976a8_icgraph_org.svg" target="_base">
           <rect id="button" ry="5" rx="5" y="6" x="6" height="38" width="38"
                fill="#f2f5e9" fill-opacity="0.5" stroke="#606060" stroke-width="1.0"/>
           <path id="arrow"
             d="M 11.500037,31.436501 C 11.940474,20.09759 22.043105,11.32322 32.158766,21.979434 L 37.068811,17.246167 C 37.068811,17.246167 37.088388,32 37.088388,32 L 22.160133,31.978069 C 22.160133,31.978069 26.997745,27.140456 26.997745,27.140456 C 18.528582,18.264221 13.291696,25.230495 11.500037,31.436501 z"
             style="fill:#404040;"/>
          </a>
         </g>
        </svg>
</svg>
