<?xml version="1.0" encoding="UTF-8" standalone="no"?>
<!DOCTYPE svg PUBLIC "-//W3C//DTD SVG 1.1//EN"
 "http://www.w3.org/Graphics/SVG/1.1/DTD/svg11.dtd">
<!-- Generated by graphviz version 2.47.1 (20210417.1919)
 -->
<!-- Title: twopi Pages: 1 -->
<svg width="865pt" height="122pt"
 viewBox="0.00 0.00 865.00 121.50" xmlns="http://www.w3.org/2000/svg" xmlns:xlink="http://www.w3.org/1999/xlink">
<g id="graph0" class="graph" transform="scale(1 1) rotate(0) translate(4 117.5)">
<title>twopi</title>
<polygon fill="white" stroke="transparent" points="-4,4 -4,-117.5 861,-117.5 861,4 -4,4"/>
<!-- Node1 -->
<g id="node1" class="node">
<title>Node1</title>
<g id="a_node1"><a xlink:title=" ">
<polygon fill="#bfbfbf" stroke="black" points="817,-44.5 817,-63.5 857,-63.5 857,-44.5 817,-44.5"/>
<text text-anchor="middle" x="837" y="-51.5" font-family="Helvetica,sans-Serif" font-size="10.00">twopi</text>
</a>
</g>
</g>
<!-- Node2 -->
<g id="node2" class="node">
<title>Node2</title>
<g id="a_node2"><a xlink:href="classAtcf.html#a4bec7c75f41a2643be3bccf63921dfa1" target="_top" xlink:title=" ">
<polygon fill="white" stroke="black" points="259,-83 259,-113 426,-113 426,-83 259,-83"/>
<text text-anchor="start" x="267" y="-101" font-family="Helvetica,sans-Serif" font-size="10.00">Atcf::calculateOverlandTranslation</text>
<text text-anchor="middle" x="342.5" y="-90" font-family="Helvetica,sans-Serif" font-size="10.00">Velocity</text>
</a>
</g>
</g>
<!-- Node1&#45;&gt;Node2 -->
<g id="edge1" class="edge">
<title>Node1&#45;&gt;Node2</title>
<path fill="none" stroke="midnightblue" d="M807.14,-65.64C798.83,-68.53 789.67,-71.29 781,-73 659.15,-97.05 514.8,-100.59 426.19,-100"/>
<polygon fill="midnightblue" stroke="midnightblue" points="808.58,-68.84 816.76,-62.11 806.17,-62.27 808.58,-68.84"/>
</g>
<!-- Node4 -->
<g id="node4" class="node">
<title>Node4</title>
<g id="a_node4"><a xlink:href="classAtcf.html#a8feed32ff84fb9f6e1bba8526b05d00b" target="_top" xlink:title=" ">
<polygon fill="white" stroke="black" points="646,-44.5 646,-63.5 781,-63.5 781,-44.5 646,-44.5"/>
<text text-anchor="middle" x="713.5" y="-51.5" font-family="Helvetica,sans-Serif" font-size="10.00">Atcf::computeEpsilonAngle</text>
</a>
</g>
</g>
<!-- Node1&#45;&gt;Node4 -->
<g id="edge3" class="edge">
<title>Node1&#45;&gt;Node4</title>
<path fill="none" stroke="midnightblue" d="M806.71,-54C798.86,-54 790.03,-54 781.04,-54"/>
<polygon fill="midnightblue" stroke="midnightblue" points="806.75,-57.5 816.75,-54 806.75,-50.5 806.75,-57.5"/>
</g>
<!-- Node9 -->
<g id="node9" class="node">
<title>Node9</title>
<g id="a_node9"><a xlink:href="classGahm.html#a6cacdf953e6387e58ca0dc1369e15c00" target="_top" xlink:title=" ">
<polygon fill="white" stroke="black" points="682.5,-6.5 682.5,-25.5 744.5,-25.5 744.5,-6.5 682.5,-6.5"/>
<text text-anchor="middle" x="713.5" y="-13.5" font-family="Helvetica,sans-Serif" font-size="10.00">Gahm::get</text>
</a>
</g>
</g>
<!-- Node1&#45;&gt;Node9 -->
<g id="edge10" class="edge">
<title>Node1&#45;&gt;Node9</title>
<path fill="none" stroke="midnightblue" d="M807.51,-43.83C799.01,-40.88 789.66,-37.73 781,-35 769.21,-31.28 756.14,-27.48 744.73,-24.26"/>
<polygon fill="midnightblue" stroke="midnightblue" points="806.4,-47.15 816.99,-47.15 808.71,-40.54 806.4,-47.15"/>
</g>
<!-- Node3 -->
<g id="node3" class="node">
<title>Node3</title>
<g id="a_node3"><a xlink:href="classAtcf.html#aaab5dab5b969a87f538242e524431637" target="_top" xlink:title=" ">
<polygon fill="white" stroke="black" points="0,-63.5 0,-82.5 59,-82.5 59,-63.5 0,-63.5"/>
<text text-anchor="middle" x="29.5" y="-70.5" font-family="Helvetica,sans-Serif" font-size="10.00">Atcf::read</text>
</a>
</g>
</g>
<!-- Node2&#45;&gt;Node3 -->
<g id="edge2" class="edge">
<title>Node2&#45;&gt;Node3</title>
<path fill="none" stroke="midnightblue" d="M248.75,-90.54C184.03,-85.34 101.89,-78.74 59.2,-75.31"/>
<polygon fill="midnightblue" stroke="midnightblue" points="248.73,-94.05 258.97,-91.37 249.29,-87.08 248.73,-94.05"/>
</g>
<!-- Node5 -->
<g id="node5" class="node">
<title>Node5</title>
<g id="a_node5"><a xlink:href="classAtcf.html#a12d26ed5e74ce562bd78a28662bceb75" target="_top" xlink:title=" ">
<polygon fill="white" stroke="black" points="462,-39 462,-69 610,-69 610,-39 462,-39"/>
<text text-anchor="start" x="470" y="-57" font-family="Helvetica,sans-Serif" font-size="10.00">Atcf::computeQuadrantVrWith</text>
<text text-anchor="middle" x="536" y="-46" font-family="Helvetica,sans-Serif" font-size="10.00">Gamma</text>
</a>
</g>
</g>
<!-- Node4&#45;&gt;Node5 -->
<g id="edge4" class="edge">
<title>Node4&#45;&gt;Node5</title>
<path fill="none" stroke="midnightblue" d="M635.89,-54C627.3,-54 618.55,-54 610,-54"/>
<polygon fill="midnightblue" stroke="midnightblue" points="635.9,-57.5 645.9,-54 635.9,-50.5 635.9,-57.5"/>
</g>
<!-- Node8 -->
<g id="node8" class="node">
<title>Node8</title>
<g id="a_node8"><a xlink:href="classAtcf.html#adfe6ef35c351380ba863090d4fec04bb" target="_top" xlink:title=" ">
<polygon fill="white" stroke="black" points="468,-0.5 468,-19.5 604,-19.5 604,-0.5 468,-0.5"/>
<text text-anchor="middle" x="536" y="-7.5" font-family="Helvetica,sans-Serif" font-size="10.00">Atcf::recomputeQuadrantVr</text>
</a>
</g>
</g>
<!-- Node4&#45;&gt;Node8 -->
<g id="edge8" class="edge">
<title>Node4&#45;&gt;Node8</title>
<path fill="none" stroke="midnightblue" d="M664.39,-41.94C636.24,-34.88 601.21,-26.1 575.01,-19.53"/>
<polygon fill="midnightblue" stroke="midnightblue" points="663.87,-45.42 674.42,-44.45 665.57,-38.63 663.87,-45.42"/>
</g>
<!-- Node6 -->
<g id="node6" class="node">
<title>Node6</title>
<g id="a_node6"><a xlink:href="classAtcf.html#a80d9683a370e561492db8a0f6d795c5d" target="_top" xlink:title=" ">
<polygon fill="white" stroke="black" points="278.5,-44.5 278.5,-63.5 406.5,-63.5 406.5,-44.5 278.5,-44.5"/>
<text text-anchor="middle" x="342.5" y="-51.5" font-family="Helvetica,sans-Serif" font-size="10.00">Atcf::computeQuadrantVr</text>
</a>
</g>
</g>
<!-- Node5&#45;&gt;Node6 -->
<g id="edge5" class="edge">
<title>Node5&#45;&gt;Node6</title>
<path fill="none" stroke="midnightblue" d="M451.46,-54C436.44,-54 421.01,-54 406.68,-54"/>
<polygon fill="midnightblue" stroke="midnightblue" points="451.78,-57.5 461.78,-54 451.78,-50.5 451.78,-57.5"/>
</g>
<!-- Node7 -->
<g id="node7" class="node">
<title>Node7</title>
<g id="a_node7"><a xlink:href="classAtcf.html#ada693ebe0f0ee4be52b01fd3fe83963a" target="_top" xlink:title=" ">
<polygon fill="white" stroke="black" points="95,-44.5 95,-63.5 223,-63.5 223,-44.5 95,-44.5"/>
<text text-anchor="middle" x="159" y="-51.5" font-family="Helvetica,sans-Serif" font-size="10.00">Atcf::computeParameters</text>
</a>
</g>
</g>
<!-- Node6&#45;&gt;Node7 -->
<g id="edge6" class="edge">
<title>Node6&#45;&gt;Node7</title>
<path fill="none" stroke="midnightblue" d="M268.12,-54C253.27,-54 237.77,-54 223.31,-54"/>
<polygon fill="midnightblue" stroke="midnightblue" points="268.27,-57.5 278.27,-54 268.27,-50.5 268.27,-57.5"/>
</g>
<!-- Node7&#45;&gt;Node3 -->
<g id="edge7" class="edge">
<title>Node7&#45;&gt;Node3</title>
<path fill="none" stroke="midnightblue" d="M85.03,-64.87C75.9,-66.23 67.03,-67.56 59.18,-68.73"/>
<polygon fill="midnightblue" stroke="midnightblue" points="85.62,-68.32 95,-63.39 84.59,-61.4 85.62,-68.32"/>
</g>
<!-- Node8&#45;&gt;Node7 -->
<g id="edge9" class="edge">
<title>Node8&#45;&gt;Node7</title>
<path fill="none" stroke="midnightblue" d="M457.75,-14.94C402.28,-18.98 325.83,-25.58 259,-35 241.15,-37.51 221.64,-41.08 204.69,-44.45"/>
<polygon fill="midnightblue" stroke="midnightblue" points="458.14,-18.42 467.86,-14.21 457.64,-11.44 458.14,-18.42"/>
</g>
</g>
</svg>
