<?xml version="1.0" encoding="UTF-8" standalone="no"?>
<!DOCTYPE svg PUBLIC "-//W3C//DTD SVG 1.1//EN"
 "http://www.w3.org/Graphics/SVG/1.1/DTD/svg11.dtd">
<!-- Generated by graphviz version 2.47.1 (20210417.1919)
 -->
<!-- Title: polarRadius Pages: 1 -->
<svg width="891pt" height="148pt"
 viewBox="0.00 0.00 891.00 147.50" xmlns="http://www.w3.org/2000/svg" xmlns:xlink="http://www.w3.org/1999/xlink">
<g id="graph0" class="graph" transform="scale(1 1) rotate(0) translate(4 143.5)">
<title>polarRadius</title>
<polygon fill="white" stroke="transparent" points="-4,4 -4,-143.5 887,-143.5 887,4 -4,4"/>
<!-- Node1 -->
<g id="node1" class="node">
<title>Node1</title>
<g id="a_node1"><a xlink:title=" ">
<polygon fill="#bfbfbf" stroke="black" points="815,-30 815,-49 883,-49 883,-30 815,-30"/>
<text text-anchor="middle" x="849" y="-37" font-family="Helvetica,sans-Serif" font-size="10.00">polarRadius</text>
</a>
</g>
</g>
<!-- Node2 -->
<g id="node2" class="node">
<title>Node2</title>
<g id="a_node2"><a xlink:href="namespacePhysical.html#a54d120caf204e2c8e9b5c646442f0aaf" target="_top" xlink:title=" ">
<polygon fill="white" stroke="black" points="713,-30 713,-49 779,-49 779,-30 713,-30"/>
<text text-anchor="middle" x="746" y="-37" font-family="Helvetica,sans-Serif" font-size="10.00">radiusEarth</text>
</a>
</g>
</g>
<!-- Node1&#45;&gt;Node2 -->
<g id="edge1" class="edge">
<title>Node1&#45;&gt;Node2</title>
<path fill="none" stroke="midnightblue" d="M804.67,-39.5C796.1,-39.5 787.24,-39.5 779.11,-39.5"/>
<polygon fill="midnightblue" stroke="midnightblue" points="804.93,-43 814.93,-39.5 804.93,-36 804.93,-43"/>
</g>
<!-- Node3 -->
<g id="node3" class="node">
<title>Node3</title>
<g id="a_node3"><a xlink:href="namespacePhysical.html#aa9f4487d4613a1f2b0a6f4c12d564e2c" target="_top" xlink:title=" ">
<polygon fill="white" stroke="black" points="579,-49 579,-68 677,-68 677,-49 579,-49"/>
<text text-anchor="middle" x="628" y="-56" font-family="Helvetica,sans-Serif" font-size="10.00">geodesic_distance</text>
</a>
</g>
</g>
<!-- Node2&#45;&gt;Node3 -->
<g id="edge2" class="edge">
<title>Node2&#45;&gt;Node3</title>
<path fill="none" stroke="midnightblue" d="M703.12,-46.36C694.78,-47.73 685.96,-49.17 677.42,-50.57"/>
<polygon fill="midnightblue" stroke="midnightblue" points="703.69,-49.81 713,-44.74 702.56,-42.9 703.69,-49.81"/>
</g>
<!-- Node12 -->
<g id="node12" class="node">
<title>Node12</title>
<g id="a_node12"><a xlink:href="namespacePhysical.html#a4d8d9f1fe46c4f162e20e2cfcad0f0cd" target="_top" xlink:title=" ">
<polygon fill="white" stroke="black" points="595,-11 595,-30 661,-30 661,-11 595,-11"/>
<text text-anchor="middle" x="628" y="-18" font-family="Helvetica,sans-Serif" font-size="10.00">radiusEarth</text>
</a>
</g>
</g>
<!-- Node2&#45;&gt;Node12 -->
<g id="edge11" class="edge">
<title>Node2&#45;&gt;Node12</title>
<path fill="none" stroke="midnightblue" d="M702.83,-32.59C689.13,-30.35 674.16,-27.9 661.3,-25.79"/>
<polygon fill="midnightblue" stroke="midnightblue" points="702.56,-36.1 713,-34.26 703.69,-29.19 702.56,-36.1"/>
</g>
<!-- Node4 -->
<g id="node4" class="node">
<title>Node4</title>
<g id="a_node4"><a xlink:href="namespacePhysical.html#a91dad53e6fb51e27776a895703d6c17a" target="_top" xlink:title=" ">
<polygon fill="white" stroke="black" points="482.5,-72 482.5,-91 535.5,-91 535.5,-72 482.5,-72"/>
<text text-anchor="middle" x="509" y="-79" font-family="Helvetica,sans-Serif" font-size="10.00">distance</text>
</a>
</g>
</g>
<!-- Node3&#45;&gt;Node4 -->
<g id="edge3" class="edge">
<title>Node3&#45;&gt;Node4</title>
<path fill="none" stroke="midnightblue" d="M568.63,-69.97C557.08,-72.24 545.52,-74.52 535.76,-76.44"/>
<polygon fill="midnightblue" stroke="midnightblue" points="569.6,-73.35 578.74,-67.99 568.25,-66.48 569.6,-73.35"/>
</g>
<!-- Node8 -->
<g id="node8" class="node">
<title>Node8</title>
<g id="a_node8"><a xlink:href="namespacePhysical.html#a2efe94842cf85bad805d2e444bab45d0" target="_top" xlink:title=" ">
<polygon fill="white" stroke="black" points="475,-25 475,-44 543,-44 543,-25 475,-25"/>
<text text-anchor="middle" x="509" y="-32" font-family="Helvetica,sans-Serif" font-size="10.00">sphericalDx</text>
</a>
</g>
</g>
<!-- Node3&#45;&gt;Node8 -->
<g id="edge7" class="edge">
<title>Node3&#45;&gt;Node8</title>
<path fill="none" stroke="midnightblue" d="M570.35,-46.88C561.01,-44.96 551.6,-43.03 543.09,-41.29"/>
<polygon fill="midnightblue" stroke="midnightblue" points="569.92,-50.36 580.42,-48.95 571.33,-43.51 569.92,-50.36"/>
</g>
<!-- Node5 -->
<g id="node5" class="node">
<title>Node5</title>
<g id="a_node5"><a xlink:href="classGahm.html#abd838ada495dbe369ae8b2cae185e063" target="_top" xlink:title=" ">
<polygon fill="white" stroke="black" points="327,-120 327,-139 410,-139 410,-120 327,-120"/>
<text text-anchor="middle" x="368.5" y="-127" font-family="Helvetica,sans-Serif" font-size="10.00">Gahm::getUvpr</text>
</a>
</g>
</g>
<!-- Node4&#45;&gt;Node5 -->
<g id="edge4" class="edge">
<title>Node4&#45;&gt;Node5</title>
<path fill="none" stroke="midnightblue" d="M477.66,-95.27C465.74,-100.4 451.86,-106.06 439,-110.5 429.07,-113.93 418.17,-117.15 408.01,-119.94"/>
<polygon fill="midnightblue" stroke="midnightblue" points="479.38,-98.33 487.14,-91.11 476.57,-91.92 479.38,-98.33"/>
</g>
<!-- Node6 -->
<g id="node6" class="node">
<title>Node6</title>
<g id="a_node6"><a xlink:href="classVortex.html#a77f9a5acf2467da0fc540737fcb1ba65" target="_top" xlink:title=" ">
<polygon fill="white" stroke="black" points="298,-82 298,-101 439,-101 439,-82 298,-82"/>
<text text-anchor="middle" x="368.5" y="-89" font-family="Helvetica,sans-Serif" font-size="10.00">Vortex::interpolateParameter</text>
</a>
</g>
</g>
<!-- Node4&#45;&gt;Node6 -->
<g id="edge5" class="edge">
<title>Node4&#45;&gt;Node6</title>
<path fill="none" stroke="midnightblue" d="M472.21,-84.08C462.07,-84.82 450.67,-85.64 439.25,-86.46"/>
<polygon fill="midnightblue" stroke="midnightblue" points="472.55,-87.57 482.27,-83.36 472.05,-80.59 472.55,-87.57"/>
</g>
<!-- Node7 -->
<g id="node7" class="node">
<title>Node7</title>
<g id="a_node7"><a xlink:href="classVortex.html#a46c545695b0a66248dc9e47d3a2f2b43" target="_top" xlink:title=" ">
<polygon fill="white" stroke="black" points="325.5,-44 325.5,-63 411.5,-63 411.5,-44 325.5,-44"/>
<text text-anchor="middle" x="368.5" y="-51" font-family="Helvetica,sans-Serif" font-size="10.00">Vortex::spInterp</text>
</a>
</g>
</g>
<!-- Node4&#45;&gt;Node7 -->
<g id="edge6" class="edge">
<title>Node4&#45;&gt;Node7</title>
<path fill="none" stroke="midnightblue" d="M472.46,-74.32C453.92,-70.57 431.12,-65.96 411.68,-62.03"/>
<polygon fill="midnightblue" stroke="midnightblue" points="471.78,-77.75 482.27,-76.3 473.17,-70.89 471.78,-77.75"/>
</g>
<!-- Node9 -->
<g id="node9" class="node">
<title>Node9</title>
<g id="a_node9"><a xlink:href="classAtcf.html#a4fce87a97b674a5bbb54f01a8dd5c55e" target="_top" xlink:title=" ">
<polygon fill="white" stroke="black" points="330.5,-6 330.5,-25 406.5,-25 406.5,-6 330.5,-6"/>
<text text-anchor="middle" x="368.5" y="-13" font-family="Helvetica,sans-Serif" font-size="10.00">Atcf::uvTrans</text>
</a>
</g>
</g>
<!-- Node8&#45;&gt;Node9 -->
<g id="edge8" class="edge">
<title>Node8&#45;&gt;Node9</title>
<path fill="none" stroke="midnightblue" d="M464.84,-28.58C446.24,-26.03 424.69,-23.07 406.8,-20.62"/>
<polygon fill="midnightblue" stroke="midnightblue" points="464.44,-32.06 474.83,-29.95 465.39,-25.12 464.44,-32.06"/>
</g>
<!-- Node10 -->
<g id="node10" class="node">
<title>Node10</title>
<g id="a_node10"><a xlink:href="classAtcf.html#a4bec7c75f41a2643be3bccf63921dfa1" target="_top" xlink:title=" ">
<polygon fill="white" stroke="black" points="95,-0.5 95,-30.5 262,-30.5 262,-0.5 95,-0.5"/>
<text text-anchor="start" x="103" y="-18.5" font-family="Helvetica,sans-Serif" font-size="10.00">Atcf::calculateOverlandTranslation</text>
<text text-anchor="middle" x="178.5" y="-7.5" font-family="Helvetica,sans-Serif" font-size="10.00">Velocity</text>
</a>
</g>
</g>
<!-- Node9&#45;&gt;Node10 -->
<g id="edge9" class="edge">
<title>Node9&#45;&gt;Node10</title>
<path fill="none" stroke="midnightblue" d="M320.32,-15.5C302.65,-15.5 282,-15.5 262.06,-15.5"/>
<polygon fill="midnightblue" stroke="midnightblue" points="320.36,-19 330.36,-15.5 320.36,-12 320.36,-19"/>
</g>
<!-- Node11 -->
<g id="node11" class="node">
<title>Node11</title>
<g id="a_node11"><a xlink:href="classAtcf.html#aaab5dab5b969a87f538242e524431637" target="_top" xlink:title=" ">
<polygon fill="white" stroke="black" points="0,-6 0,-25 59,-25 59,-6 0,-6"/>
<text text-anchor="middle" x="29.5" y="-13" font-family="Helvetica,sans-Serif" font-size="10.00">Atcf::read</text>
</a>
</g>
</g>
<!-- Node10&#45;&gt;Node11 -->
<g id="edge10" class="edge">
<title>Node10&#45;&gt;Node11</title>
<path fill="none" stroke="midnightblue" d="M84.86,-15.5C75.67,-15.5 66.91,-15.5 59.21,-15.5"/>
<polygon fill="midnightblue" stroke="midnightblue" points="84.98,-19 94.98,-15.5 84.98,-12 84.98,-19"/>
</g>
</g>
</svg>
