<?xml version="1.0" encoding="UTF-8" standalone="no"?>
<!DOCTYPE svg PUBLIC "-//W3C//DTD SVG 1.1//EN"
 "http://www.w3.org/Graphics/SVG/1.1/DTD/svg11.dtd">
<!-- Generated by graphviz version 2.47.1 (20210417.1919)
 -->
<!-- Title: e Pages: 1 -->
<svg width="823pt" height="104pt"
 viewBox="0.00 0.00 823.00 104.00" xmlns="http://www.w3.org/2000/svg" xmlns:xlink="http://www.w3.org/1999/xlink">
<g id="graph0" class="graph" transform="scale(1 1) rotate(0) translate(4 100)">
<title>e</title>
<polygon fill="white" stroke="transparent" points="-4,4 -4,-100 819,-100 819,4 -4,4"/>
<!-- Node1 -->
<g id="node1" class="node">
<title>Node1</title>
<g id="a_node1"><a xlink:title=" ">
<polygon fill="#bfbfbf" stroke="black" points="786,-38.5 786,-57.5 815,-57.5 815,-38.5 786,-38.5"/>
<text text-anchor="middle" x="800.5" y="-45.5" font-family="Helvetica,sans-Serif" font-size="10.00">e</text>
</a>
</g>
</g>
<!-- Node2 -->
<g id="node2" class="node">
<title>Node2</title>
<g id="a_node2"><a xlink:href="namespacePhysical.html#a76f21fb2f0b378bdba2db0c13d3f3a84" target="_top" xlink:title=" ">
<polygon fill="white" stroke="black" points="645.5,-76.5 645.5,-95.5 719.5,-95.5 719.5,-76.5 645.5,-76.5"/>
<text text-anchor="middle" x="682.5" y="-83.5" font-family="Helvetica,sans-Serif" font-size="10.00">calcHollandB</text>
</a>
</g>
</g>
<!-- Node1&#45;&gt;Node2 -->
<g id="edge1" class="edge">
<title>Node1&#45;&gt;Node2</title>
<path fill="none" stroke="midnightblue" d="M776.37,-57.36C768.11,-60.58 758.69,-64.1 750,-67 740.09,-70.31 729.24,-73.56 719.23,-76.42"/>
<polygon fill="midnightblue" stroke="midnightblue" points="777.74,-60.59 785.75,-53.65 775.16,-54.08 777.74,-60.59"/>
</g>
<!-- Node3 -->
<g id="node3" class="node">
<title>Node3</title>
<g id="a_node3"><a xlink:href="classAtcf.html#a8feed32ff84fb9f6e1bba8526b05d00b" target="_top" xlink:title=" ">
<polygon fill="white" stroke="black" points="615,-38.5 615,-57.5 750,-57.5 750,-38.5 615,-38.5"/>
<text text-anchor="middle" x="682.5" y="-45.5" font-family="Helvetica,sans-Serif" font-size="10.00">Atcf::computeEpsilonAngle</text>
</a>
</g>
</g>
<!-- Node1&#45;&gt;Node3 -->
<g id="edge2" class="edge">
<title>Node1&#45;&gt;Node3</title>
<path fill="none" stroke="midnightblue" d="M775.63,-48C768.07,-48 759.31,-48 750.26,-48"/>
<polygon fill="midnightblue" stroke="midnightblue" points="775.74,-51.5 785.74,-48 775.74,-44.5 775.74,-51.5"/>
</g>
<!-- Node9 -->
<g id="node9" class="node">
<title>Node9</title>
<g id="a_node9"><a xlink:href="namespacePhysical.html#a8d532eee5e09a7ad9c2d17c924bb3f5c" target="_top" xlink:title=" ">
<polygon fill="white" stroke="black" points="644.5,-0.5 644.5,-19.5 720.5,-19.5 720.5,-0.5 644.5,-0.5"/>
<text text-anchor="middle" x="682.5" y="-7.5" font-family="Helvetica,sans-Serif" font-size="10.00">rotation_earth</text>
</a>
</g>
</g>
<!-- Node1&#45;&gt;Node9 -->
<g id="edge9" class="edge">
<title>Node1&#45;&gt;Node9</title>
<path fill="none" stroke="midnightblue" d="M776.37,-38.64C768.11,-35.42 758.69,-31.9 750,-29 740.09,-25.69 729.24,-22.44 719.23,-19.58"/>
<polygon fill="midnightblue" stroke="midnightblue" points="775.16,-41.92 785.75,-42.35 777.74,-35.41 775.16,-41.92"/>
</g>
<!-- Node4 -->
<g id="node4" class="node">
<title>Node4</title>
<g id="a_node4"><a xlink:href="classAtcf.html#a12d26ed5e74ce562bd78a28662bceb75" target="_top" xlink:title=" ">
<polygon fill="white" stroke="black" points="431,-55 431,-85 579,-85 579,-55 431,-55"/>
<text text-anchor="start" x="439" y="-73" font-family="Helvetica,sans-Serif" font-size="10.00">Atcf::computeQuadrantVrWith</text>
<text text-anchor="middle" x="505" y="-62" font-family="Helvetica,sans-Serif" font-size="10.00">Gamma</text>
</a>
</g>
</g>
<!-- Node3&#45;&gt;Node4 -->
<g id="edge3" class="edge">
<title>Node3&#45;&gt;Node4</title>
<path fill="none" stroke="midnightblue" d="M604.89,-57.6C596.3,-58.68 587.55,-59.78 579,-60.85"/>
<polygon fill="midnightblue" stroke="midnightblue" points="605.41,-61.07 614.9,-56.35 604.54,-54.12 605.41,-61.07"/>
</g>
<!-- Node8 -->
<g id="node8" class="node">
<title>Node8</title>
<g id="a_node8"><a xlink:href="classAtcf.html#adfe6ef35c351380ba863090d4fec04bb" target="_top" xlink:title=" ">
<polygon fill="white" stroke="black" points="259,-19.5 259,-38.5 395,-38.5 395,-19.5 259,-19.5"/>
<text text-anchor="middle" x="327" y="-26.5" font-family="Helvetica,sans-Serif" font-size="10.00">Atcf::recomputeQuadrantVr</text>
</a>
</g>
</g>
<!-- Node3&#45;&gt;Node8 -->
<g id="edge7" class="edge">
<title>Node3&#45;&gt;Node8</title>
<path fill="none" stroke="midnightblue" d="M604.4,-43.86C541.96,-40.5 454.87,-35.82 395.23,-32.61"/>
<polygon fill="midnightblue" stroke="midnightblue" points="604.42,-47.36 614.59,-44.4 604.8,-40.37 604.42,-47.36"/>
</g>
<!-- Node5 -->
<g id="node5" class="node">
<title>Node5</title>
<g id="a_node5"><a xlink:href="classAtcf.html#a80d9683a370e561492db8a0f6d795c5d" target="_top" xlink:title=" ">
<polygon fill="white" stroke="black" points="263,-58.5 263,-77.5 391,-77.5 391,-58.5 263,-58.5"/>
<text text-anchor="middle" x="327" y="-65.5" font-family="Helvetica,sans-Serif" font-size="10.00">Atcf::computeQuadrantVr</text>
</a>
</g>
</g>
<!-- Node4&#45;&gt;Node5 -->
<g id="edge4" class="edge">
<title>Node4&#45;&gt;Node5</title>
<path fill="none" stroke="midnightblue" d="M420.59,-69.05C410.66,-68.94 400.66,-68.83 391.08,-68.72"/>
<polygon fill="midnightblue" stroke="midnightblue" points="420.85,-72.56 430.89,-69.17 420.93,-65.56 420.85,-72.56"/>
</g>
<!-- Node6 -->
<g id="node6" class="node">
<title>Node6</title>
<g id="a_node6"><a xlink:href="classAtcf.html#ada693ebe0f0ee4be52b01fd3fe83963a" target="_top" xlink:title=" ">
<polygon fill="white" stroke="black" points="95,-38.5 95,-57.5 223,-57.5 223,-38.5 95,-38.5"/>
<text text-anchor="middle" x="159" y="-45.5" font-family="Helvetica,sans-Serif" font-size="10.00">Atcf::computeParameters</text>
</a>
</g>
</g>
<!-- Node5&#45;&gt;Node6 -->
<g id="edge5" class="edge">
<title>Node5&#45;&gt;Node6</title>
<path fill="none" stroke="midnightblue" d="M252.59,-59.16C242.74,-57.97 232.71,-56.76 223.06,-55.6"/>
<polygon fill="midnightblue" stroke="midnightblue" points="252.42,-62.66 262.77,-60.38 253.26,-55.71 252.42,-62.66"/>
</g>
<!-- Node7 -->
<g id="node7" class="node">
<title>Node7</title>
<g id="a_node7"><a xlink:href="classAtcf.html#aaab5dab5b969a87f538242e524431637" target="_top" xlink:title=" ">
<polygon fill="white" stroke="black" points="0,-38.5 0,-57.5 59,-57.5 59,-38.5 0,-38.5"/>
<text text-anchor="middle" x="29.5" y="-45.5" font-family="Helvetica,sans-Serif" font-size="10.00">Atcf::read</text>
</a>
</g>
</g>
<!-- Node6&#45;&gt;Node7 -->
<g id="edge6" class="edge">
<title>Node6&#45;&gt;Node7</title>
<path fill="none" stroke="midnightblue" d="M84.74,-48C75.71,-48 66.94,-48 59.18,-48"/>
<polygon fill="midnightblue" stroke="midnightblue" points="85,-51.5 95,-48 85,-44.5 85,-51.5"/>
</g>
<!-- Node8&#45;&gt;Node6 -->
<g id="edge8" class="edge">
<title>Node8&#45;&gt;Node6</title>
<path fill="none" stroke="midnightblue" d="M248.93,-37.82C240.33,-38.81 231.65,-39.8 223.26,-40.76"/>
<polygon fill="midnightblue" stroke="midnightblue" points="249.42,-41.29 258.96,-36.67 248.63,-34.33 249.42,-41.29"/>
</g>
</g>
</svg>
