<?xml version="1.0" encoding="UTF-8" standalone="no"?>
<!DOCTYPE svg PUBLIC "-//W3C//DTD SVG 1.1//EN"
 "http://www.w3.org/Graphics/SVG/1.1/DTD/svg11.dtd">
<!-- Generated by graphviz version 2.47.1 (20210417.1919)
 -->
<!-- Title: sphericalDx Pages: 1 -->
<svg width="486pt" height="39pt"
 viewBox="0.00 0.00 486.00 39.00" xmlns="http://www.w3.org/2000/svg" xmlns:xlink="http://www.w3.org/1999/xlink">
<g id="graph0" class="graph" transform="scale(1 1) rotate(0) translate(4 35)">
<title>sphericalDx</title>
<polygon fill="white" stroke="transparent" points="-4,4 -4,-35 482,-35 482,4 -4,4"/>
<!-- Node1 -->
<g id="node1" class="node">
<title>Node1</title>
<g id="a_node1"><a xlink:title=" ">
<polygon fill="#bfbfbf" stroke="black" points="410,-6 410,-25 478,-25 478,-6 410,-6"/>
<text text-anchor="middle" x="444" y="-13" font-family="Helvetica,sans-Serif" font-size="10.00">sphericalDx</text>
</a>
</g>
</g>
<!-- Node2 -->
<g id="node2" class="node">
<title>Node2</title>
<g id="a_node2"><a xlink:href="classAtcf.html#a4fce87a97b674a5bbb54f01a8dd5c55e" target="_top" xlink:title=" ">
<polygon fill="white" stroke="black" points="298,-6 298,-25 374,-25 374,-6 298,-6"/>
<text text-anchor="middle" x="336" y="-13" font-family="Helvetica,sans-Serif" font-size="10.00">Atcf::uvTrans</text>
</a>
</g>
</g>
<!-- Node1&#45;&gt;Node2 -->
<g id="edge1" class="edge">
<title>Node1&#45;&gt;Node2</title>
<path fill="none" stroke="midnightblue" d="M399.67,-15.5C391.22,-15.5 382.42,-15.5 374.19,-15.5"/>
<polygon fill="midnightblue" stroke="midnightblue" points="399.75,-19 409.75,-15.5 399.75,-12 399.75,-19"/>
</g>
<!-- Node3 -->
<g id="node3" class="node">
<title>Node3</title>
<g id="a_node3"><a xlink:href="classAtcf.html#a4bec7c75f41a2643be3bccf63921dfa1" target="_top" xlink:title=" ">
<polygon fill="white" stroke="black" points="95,-0.5 95,-30.5 262,-30.5 262,-0.5 95,-0.5"/>
<text text-anchor="start" x="103" y="-18.5" font-family="Helvetica,sans-Serif" font-size="10.00">Atcf::calculateOverlandTranslation</text>
<text text-anchor="middle" x="178.5" y="-7.5" font-family="Helvetica,sans-Serif" font-size="10.00">Velocity</text>
</a>
</g>
</g>
<!-- Node2&#45;&gt;Node3 -->
<g id="edge2" class="edge">
<title>Node2&#45;&gt;Node3</title>
<path fill="none" stroke="midnightblue" d="M287.72,-15.5C279.54,-15.5 270.83,-15.5 262.04,-15.5"/>
<polygon fill="midnightblue" stroke="midnightblue" points="287.75,-19 297.75,-15.5 287.75,-12 287.75,-19"/>
</g>
<!-- Node4 -->
<g id="node4" class="node">
<title>Node4</title>
<g id="a_node4"><a xlink:href="classAtcf.html#aaab5dab5b969a87f538242e524431637" target="_top" xlink:title=" ">
<polygon fill="white" stroke="black" points="0,-6 0,-25 59,-25 59,-6 0,-6"/>
<text text-anchor="middle" x="29.5" y="-13" font-family="Helvetica,sans-Serif" font-size="10.00">Atcf::read</text>
</a>
</g>
</g>
<!-- Node3&#45;&gt;Node4 -->
<g id="edge3" class="edge">
<title>Node3&#45;&gt;Node4</title>
<path fill="none" stroke="midnightblue" d="M84.86,-15.5C75.67,-15.5 66.91,-15.5 59.21,-15.5"/>
<polygon fill="midnightblue" stroke="midnightblue" points="84.98,-19 94.98,-15.5 84.98,-12 84.98,-19"/>
</g>
</g>
</svg>
