<?xml version="1.0" encoding="UTF-8" standalone="no"?>
<!DOCTYPE svg PUBLIC "-//W3C//DTD SVG 1.1//EN"
 "http://www.w3.org/Graphics/SVG/1.1/DTD/svg11.dtd">
<!-- Generated by graphviz version 2.47.1 (20210417.1919)
 -->
<!-- Title: pi Pages: 1 -->
<!--zoomable 287 -->
<svg id="main" version="1.1" xmlns="http://www.w3.org/2000/svg" xmlns:xlink="http://www.w3.org/1999/xlink" xml:space="preserve" onload="init(evt)">
<style type="text/css"><![CDATA[
.edge:hover path { stroke: red; }
.edge:hover polygon { stroke: red; fill: red; }
]]></style>
<script type="text/javascript"><![CDATA[
var edges = document.getElementsByTagName('g');
if (edges && edges.length) {
  for (var i=0;i<edges.length;i++) {
    if (edges[i].id.substr(0,4)=='edge') {
      edges[i].setAttribute('class','edge');
    }
  }
}
]]></script>
        <defs>
                <circle id="rim" cx="0" cy="0" r="7"/>
                <circle id="rim2" cx="0" cy="0" r="3.5"/>
                <g id="zoomPlus">
                        <use xlink:href="#rim" fill="#404040">
                                <set attributeName="fill" to="#808080" begin="zoomplus.mouseover" end="zoomplus.mouseout"/>
                        </use>
                        <path d="M-4,0h8M0,-4v8" fill="none" stroke="white" stroke-width="1.5" pointer-events="none"/>
                </g>
                <g id="zoomMin">
                        <use xlink:href="#rim" fill="#404040">
                                <set attributeName="fill" to="#808080" begin="zoomminus.mouseover" end="zoomminus.mouseout"/>
                        </use>
                        <path d="M-4,0h8" fill="none" stroke="white" stroke-width="1.5" pointer-events="none"/>
                </g>
                <g id="dirArrow">
                        <path fill="none" stroke="white" stroke-width="1.5" d="M0,-3.0v7 M-2.5,-0.5L0,-3.0L2.5,-0.5"/>
                </g>
               <g id="resetDef">
                       <use xlink:href="#rim2" fill="#404040">
                               <set attributeName="fill" to="#808080" begin="reset.mouseover" end="reset.mouseout"/>
                       </use>
               </g>
        </defs>

<script type="text/javascript">
var viewWidth = 947;
var viewHeight = 287;
var sectionId = 'dynsection-31';
</script>
<script xlink:href="svgpan.js"/>
<svg id="graph" class="graph">
<g id="viewport">
<title>pi</title>
<polygon fill="white" stroke="transparent" points="-4,4 -4,-283.49 943,-283.49 943,4 -4,4"/>
<!-- Node1 -->
<g id="node1" class="node">
<title>Node1</title>
<g id="a_node1"><a xlink:title=" ">
<polygon fill="#bfbfbf" stroke="black" points="910,-152.5 910,-171.5 939,-171.5 939,-152.5 910,-152.5"/>
<text text-anchor="middle" x="924.5" y="-159.5" font-family="Helvetica,sans-Serif" font-size="10.00">pi</text>
</a>
</g>
</g>
<!-- Node2 -->
<g id="node2" class="node">
<title>Node2</title>
<g id="a_node2"><a xlink:href="namespacePhysical.html#a92b1fc7520d88e5945e2e7e8c8bc006e" target="_top" xlink:title=" ">
<polygon fill="white" stroke="black" points="831,-215.5 831,-234.5 871,-234.5 871,-215.5 831,-215.5"/>
<text text-anchor="middle" x="851" y="-222.5" font-family="Helvetica,sans-Serif" font-size="10.00">halfpi</text>
</a>
</g>
</g>
<!-- Node1&#45;&gt;Node2 -->
<g id="edge1" class="edge">
<title>Node1&#45;&gt;Node2</title>
<path fill="none" stroke="midnightblue" d="M904.98,-178.32C891.65,-190.06 874.13,-205.5 862.96,-215.34"/>
<polygon fill="midnightblue" stroke="midnightblue" points="907.45,-180.81 912.64,-171.57 902.82,-175.55 907.45,-180.81"/>
</g>
<!-- Node8 -->
<g id="node8" class="node">
<title>Node8</title>
<g id="a_node8"><a xlink:href="namespacePhysical.html#a70d4ca8d5ef6f3097277170502431f7b" target="_top" xlink:title=" ">
<polygon fill="white" stroke="black" points="828,-95.5 828,-114.5 874,-114.5 874,-95.5 828,-95.5"/>
<text text-anchor="middle" x="851" y="-102.5" font-family="Helvetica,sans-Serif" font-size="10.00">omega</text>
</a>
</g>
</g>
<!-- Node1&#45;&gt;Node8 -->
<g id="edge8" class="edge">
<title>Node1&#45;&gt;Node8</title>
<path fill="none" stroke="midnightblue" d="M903.21,-145.82C890.53,-135.72 874.64,-123.05 863.95,-114.53"/>
<polygon fill="midnightblue" stroke="midnightblue" points="901.37,-148.83 911.37,-152.33 905.73,-143.36 901.37,-148.83"/>
</g>
<!-- Node14 -->
<g id="node14" class="node">
<title>Node14</title>
<g id="a_node14"><a xlink:href="namespacePhysical.html#a3fccff272b0fae8ead3c2c05f62b3620" target="_top" xlink:title=" ">
<polygon fill="white" stroke="black" points="831,-152.5 831,-171.5 871,-171.5 871,-152.5 831,-152.5"/>
<text text-anchor="middle" x="851" y="-159.5" font-family="Helvetica,sans-Serif" font-size="10.00">twopi</text>
</a>
</g>
</g>
<!-- Node1&#45;&gt;Node14 -->
<g id="edge15" class="edge">
<title>Node1&#45;&gt;Node14</title>
<path fill="none" stroke="midnightblue" d="M899.58,-162C890.33,-162 879.89,-162 871.15,-162"/>
<polygon fill="midnightblue" stroke="midnightblue" points="899.71,-165.5 909.71,-162 899.71,-158.5 899.71,-165.5"/>
</g>
<!-- Node3 -->
<g id="node3" class="node">
<title>Node3</title>
<g id="a_node3"><a xlink:href="classAtcf.html#adccea6c4ad7108a14f86b833f3f94f6d" target="_top" xlink:title=" ">
<polygon fill="white" stroke="black" points="646,-235 646,-265 792,-265 792,-235 646,-235"/>
<text text-anchor="start" x="654" y="-253" font-family="Helvetica,sans-Serif" font-size="10.00">Atcf::computeQuadrantVector</text>
<text text-anchor="middle" x="719" y="-242" font-family="Helvetica,sans-Serif" font-size="10.00">Angle</text>
</a>
</g>
</g>
<!-- Node2&#45;&gt;Node3 -->
<g id="edge2" class="edge">
<title>Node2&#45;&gt;Node3</title>
<path fill="none" stroke="midnightblue" d="M820.94,-230.59C812.29,-232.25 802.39,-234.16 792.26,-236.1"/>
<polygon fill="midnightblue" stroke="midnightblue" points="821.66,-234.01 830.82,-228.69 820.34,-227.14 821.66,-234.01"/>
</g>
<!-- Node4 -->
<g id="node4" class="node">
<title>Node4</title>
<g id="a_node4"><a xlink:href="classAtcf.html#a80d9683a370e561492db8a0f6d795c5d" target="_top" xlink:title=" ">
<polygon fill="white" stroke="black" points="298,-198.5 298,-217.5 426,-217.5 426,-198.5 298,-198.5"/>
<text text-anchor="middle" x="362" y="-205.5" font-family="Helvetica,sans-Serif" font-size="10.00">Atcf::computeQuadrantVr</text>
</a>
</g>
</g>
<!-- Node3&#45;&gt;Node4 -->
<g id="edge3" class="edge">
<title>Node3&#45;&gt;Node4</title>
<path fill="none" stroke="midnightblue" d="M652.35,-267.16C599.87,-277.97 524.94,-286.83 462,-269 426.45,-258.93 391.14,-232.08 373.89,-217.59"/>
<polygon fill="midnightblue" stroke="midnightblue" points="653.16,-270.57 662.2,-265.05 651.69,-263.72 653.16,-270.57"/>
</g>
<!-- Node7 -->
<g id="node7" class="node">
<title>Node7</title>
<g id="a_node7"><a xlink:href="classAtcf.html#adfe6ef35c351380ba863090d4fec04bb" target="_top" xlink:title=" ">
<polygon fill="white" stroke="black" points="468,-240.5 468,-259.5 604,-259.5 604,-240.5 468,-240.5"/>
<text text-anchor="middle" x="536" y="-247.5" font-family="Helvetica,sans-Serif" font-size="10.00">Atcf::recomputeQuadrantVr</text>
</a>
</g>
</g>
<!-- Node3&#45;&gt;Node7 -->
<g id="edge6" class="edge">
<title>Node3&#45;&gt;Node7</title>
<path fill="none" stroke="midnightblue" d="M635.83,-250C625.21,-250 614.44,-250 604.1,-250"/>
<polygon fill="midnightblue" stroke="midnightblue" points="635.94,-253.5 645.94,-250 635.94,-246.5 635.94,-253.5"/>
</g>
<!-- Node5 -->
<g id="node5" class="node">
<title>Node5</title>
<g id="a_node5"><a xlink:href="classAtcf.html#ada693ebe0f0ee4be52b01fd3fe83963a" target="_top" xlink:title=" ">
<polygon fill="white" stroke="black" points="114.5,-198.5 114.5,-217.5 242.5,-217.5 242.5,-198.5 114.5,-198.5"/>
<text text-anchor="middle" x="178.5" y="-205.5" font-family="Helvetica,sans-Serif" font-size="10.00">Atcf::computeParameters</text>
</a>
</g>
</g>
<!-- Node4&#45;&gt;Node5 -->
<g id="edge4" class="edge">
<title>Node4&#45;&gt;Node5</title>
<path fill="none" stroke="midnightblue" d="M287.62,-208C272.77,-208 257.27,-208 242.81,-208"/>
<polygon fill="midnightblue" stroke="midnightblue" points="287.77,-211.5 297.77,-208 287.77,-204.5 287.77,-211.5"/>
</g>
<!-- Node6 -->
<g id="node6" class="node">
<title>Node6</title>
<g id="a_node6"><a xlink:href="classAtcf.html#aaab5dab5b969a87f538242e524431637" target="_top" xlink:title=" ">
<polygon fill="white" stroke="black" points="0,-175.5 0,-194.5 59,-194.5 59,-175.5 0,-175.5"/>
<text text-anchor="middle" x="29.5" y="-182.5" font-family="Helvetica,sans-Serif" font-size="10.00">Atcf::read</text>
</a>
</g>
</g>
<!-- Node5&#45;&gt;Node6 -->
<g id="edge5" class="edge">
<title>Node5&#45;&gt;Node6</title>
<path fill="none" stroke="midnightblue" d="M106.11,-196.83C89.44,-194.22 72.62,-191.59 59.1,-189.47"/>
<polygon fill="midnightblue" stroke="midnightblue" points="106.01,-200.36 116.44,-198.45 107.1,-193.44 106.01,-200.36"/>
</g>
<!-- Node7&#45;&gt;Node5 -->
<g id="edge7" class="edge">
<title>Node7&#45;&gt;Node5</title>
<path fill="none" stroke="midnightblue" d="M457.98,-243.75C411.55,-239.67 351.29,-233.85 298,-227 277.13,-224.32 254.28,-220.79 234.26,-217.51"/>
<polygon fill="midnightblue" stroke="midnightblue" points="457.7,-247.24 467.96,-244.61 458.3,-240.26 457.7,-247.24"/>
</g>
<!-- Node9 -->
<g id="node9" class="node">
<title>Node9</title>
<g id="a_node9"><a xlink:href="namespacePhysical.html#aa6f9f6768fb27a3751a74b7e43b4a45a" target="_top" xlink:title=" ">
<polygon fill="white" stroke="black" points="695.5,-76.5 695.5,-95.5 742.5,-95.5 742.5,-76.5 695.5,-76.5"/>
<text text-anchor="middle" x="719" y="-83.5" font-family="Helvetica,sans-Serif" font-size="10.00">coriolis</text>
</a>
</g>
</g>
<!-- Node8&#45;&gt;Node9 -->
<g id="edge9" class="edge">
<title>Node8&#45;&gt;Node9</title>
<path fill="none" stroke="midnightblue" d="M817.81,-100.3C794.43,-96.88 763.38,-92.34 742.6,-89.3"/>
<polygon fill="midnightblue" stroke="midnightblue" points="817.55,-103.79 827.95,-101.78 818.56,-96.87 817.55,-103.79"/>
</g>
<!-- Node10 -->
<g id="node10" class="node">
<title>Node10</title>
<g id="a_node10"><a xlink:href="classVortex.html#a31f8393268fb0ce958148e0bd2fcb482" target="_top" xlink:title=" ">
<polygon fill="white" stroke="black" points="485.5,-114.5 485.5,-133.5 586.5,-133.5 586.5,-114.5 485.5,-114.5"/>
<text text-anchor="middle" x="536" y="-121.5" font-family="Helvetica,sans-Serif" font-size="10.00">Vortex::computeBg</text>
</a>
</g>
</g>
<!-- Node9&#45;&gt;Node10 -->
<g id="edge10" class="edge">
<title>Node9&#45;&gt;Node10</title>
<path fill="none" stroke="midnightblue" d="M685.51,-92.82C656.77,-98.85 614.55,-107.72 582.46,-114.46"/>
<polygon fill="midnightblue" stroke="midnightblue" points="686.37,-96.22 695.44,-90.74 684.94,-89.37 686.37,-96.22"/>
</g>
<!-- Node11 -->
<g id="node11" class="node">
<title>Node11</title>
<g id="a_node11"><a xlink:href="classVortex.html#aa96c2354f3470dfbabf6f61dbbba25c6" target="_top" xlink:title=" ">
<polygon fill="white" stroke="black" points="310.5,-57.5 310.5,-76.5 413.5,-76.5 413.5,-57.5 310.5,-57.5"/>
<text text-anchor="middle" x="362" y="-64.5" font-family="Helvetica,sans-Serif" font-size="10.00">Vortex::computePhi</text>
</a>
</g>
</g>
<!-- Node9&#45;&gt;Node11 -->
<g id="edge11" class="edge">
<title>Node9&#45;&gt;Node11</title>
<path fill="none" stroke="midnightblue" d="M685.23,-84.25C623.06,-80.92 487.65,-73.67 413.7,-69.71"/>
<polygon fill="midnightblue" stroke="midnightblue" points="685.08,-87.74 695.25,-84.78 685.45,-80.75 685.08,-87.74"/>
</g>
<!-- Node12 -->
<g id="node12" class="node">
<title>Node12</title>
<g id="a_node12"><a xlink:href="classGahm.html#abd838ada495dbe369ae8b2cae185e063" target="_top" xlink:title=" ">
<polygon fill="white" stroke="black" points="494.5,-0.5 494.5,-19.5 577.5,-19.5 577.5,-0.5 494.5,-0.5"/>
<text text-anchor="middle" x="536" y="-7.5" font-family="Helvetica,sans-Serif" font-size="10.00">Gahm::getUvpr</text>
</a>
</g>
</g>
<!-- Node9&#45;&gt;Node12 -->
<g id="edge12" class="edge">
<title>Node9&#45;&gt;Node12</title>
<path fill="none" stroke="midnightblue" d="M693.7,-71.09C672.3,-58.46 639.96,-40.62 610,-29 599.74,-25.02 588.36,-21.61 577.69,-18.82"/>
<polygon fill="midnightblue" stroke="midnightblue" points="692.06,-74.18 702.44,-76.31 695.65,-68.17 692.06,-74.18"/>
</g>
<!-- Node13 -->
<g id="node13" class="node">
<title>Node13</title>
<g id="a_node13"><a xlink:href="classVortex.html#ad0dcc0642f9977e7d333d943744ccf77" target="_top" xlink:title=" ">
<polygon fill="white" stroke="black" points="478.5,-38.5 478.5,-57.5 593.5,-57.5 593.5,-38.5 478.5,-38.5"/>
<text text-anchor="middle" x="536" y="-45.5" font-family="Helvetica,sans-Serif" font-size="10.00">Vortex::rossbyNumber</text>
</a>
</g>
</g>
<!-- Node9&#45;&gt;Node13 -->
<g id="edge13" class="edge">
<title>Node9&#45;&gt;Node13</title>
<path fill="none" stroke="midnightblue" d="M685.51,-79.18C656.77,-73.15 614.55,-64.28 582.46,-57.54"/>
<polygon fill="midnightblue" stroke="midnightblue" points="684.94,-82.63 695.44,-81.26 686.37,-75.78 684.94,-82.63"/>
</g>
<!-- Node13&#45;&gt;Node11 -->
<g id="edge14" class="edge">
<title>Node13&#45;&gt;Node11</title>
<path fill="none" stroke="midnightblue" d="M468.01,-55.4C449.94,-57.4 430.68,-59.52 413.65,-61.4"/>
<polygon fill="midnightblue" stroke="midnightblue" points="468.65,-58.85 478.2,-54.27 467.88,-51.89 468.65,-58.85"/>
</g>
<!-- Node15 -->
<g id="node15" class="node">
<title>Node15</title>
<g id="a_node15"><a xlink:href="classAtcf.html#a4bec7c75f41a2643be3bccf63921dfa1" target="_top" xlink:title=" ">
<polygon fill="white" stroke="black" points="95,-148 95,-178 262,-178 262,-148 95,-148"/>
<text text-anchor="start" x="103" y="-166" font-family="Helvetica,sans-Serif" font-size="10.00">Atcf::calculateOverlandTranslation</text>
<text text-anchor="middle" x="178.5" y="-155" font-family="Helvetica,sans-Serif" font-size="10.00">Velocity</text>
</a>
</g>
</g>
<!-- Node14&#45;&gt;Node15 -->
<g id="edge16" class="edge">
<title>Node14&#45;&gt;Node15</title>
<path fill="none" stroke="midnightblue" d="M820.41,-162.04C723.34,-162.19 412.27,-162.65 262.13,-162.88"/>
<polygon fill="midnightblue" stroke="midnightblue" points="820.66,-165.54 830.66,-162.03 820.65,-158.54 820.66,-165.54"/>
</g>
<!-- Node16 -->
<g id="node16" class="node">
<title>Node16</title>
<g id="a_node16"><a xlink:href="classAtcf.html#a8feed32ff84fb9f6e1bba8526b05d00b" target="_top" xlink:title=" ">
<polygon fill="white" stroke="black" points="651.5,-196.5 651.5,-215.5 786.5,-215.5 786.5,-196.5 651.5,-196.5"/>
<text text-anchor="middle" x="719" y="-203.5" font-family="Helvetica,sans-Serif" font-size="10.00">Atcf::computeEpsilonAngle</text>
</a>
</g>
</g>
<!-- Node14&#45;&gt;Node16 -->
<g id="edge18" class="edge">
<title>Node14&#45;&gt;Node16</title>
<path fill="none" stroke="midnightblue" d="M821.18,-171.76C799.51,-179.09 769.97,-189.09 748.4,-196.39"/>
<polygon fill="midnightblue" stroke="midnightblue" points="822.47,-175.01 830.82,-168.49 820.22,-168.38 822.47,-175.01"/>
</g>
<!-- Node18 -->
<g id="node18" class="node">
<title>Node18</title>
<g id="a_node18"><a xlink:href="classGahm.html#a6cacdf953e6387e58ca0dc1369e15c00" target="_top" xlink:title=" ">
<polygon fill="white" stroke="black" points="688,-114.5 688,-133.5 750,-133.5 750,-114.5 688,-114.5"/>
<text text-anchor="middle" x="719" y="-121.5" font-family="Helvetica,sans-Serif" font-size="10.00">Gahm::get</text>
</a>
</g>
</g>
<!-- Node14&#45;&gt;Node18 -->
<g id="edge22" class="edge">
<title>Node14&#45;&gt;Node18</title>
<path fill="none" stroke="midnightblue" d="M821.16,-153.57C800.14,-147.43 771.73,-139.12 750.37,-132.88"/>
<polygon fill="midnightblue" stroke="midnightblue" points="820.24,-156.95 830.82,-156.39 822.2,-150.23 820.24,-156.95"/>
</g>
<!-- Node15&#45;&gt;Node6 -->
<g id="edge17" class="edge">
<title>Node15&#45;&gt;Node6</title>
<path fill="none" stroke="midnightblue" d="M84.86,-176.86C75.67,-178.24 66.91,-179.55 59.21,-180.7"/>
<polygon fill="midnightblue" stroke="midnightblue" points="85.6,-180.29 94.98,-175.35 84.57,-173.37 85.6,-180.29"/>
</g>
<!-- Node16&#45;&gt;Node7 -->
<g id="edge21" class="edge">
<title>Node16&#45;&gt;Node7</title>
<path fill="none" stroke="midnightblue" d="M668.76,-217.97C639.67,-225.04 603.34,-233.87 576.2,-240.47"/>
<polygon fill="midnightblue" stroke="midnightblue" points="669.84,-221.31 678.73,-215.55 668.18,-214.51 669.84,-221.31"/>
</g>
<!-- Node17 -->
<g id="node17" class="node">
<title>Node17</title>
<g id="a_node17"><a xlink:href="classAtcf.html#a12d26ed5e74ce562bd78a28662bceb75" target="_top" xlink:title=" ">
<polygon fill="white" stroke="black" points="462,-191 462,-221 610,-221 610,-191 462,-191"/>
<text text-anchor="start" x="470" y="-209" font-family="Helvetica,sans-Serif" font-size="10.00">Atcf::computeQuadrantVrWith</text>
<text text-anchor="middle" x="536" y="-198" font-family="Helvetica,sans-Serif" font-size="10.00">Gamma</text>
</a>
</g>
</g>
<!-- Node16&#45;&gt;Node17 -->
<g id="edge19" class="edge">
<title>Node16&#45;&gt;Node17</title>
<path fill="none" stroke="midnightblue" d="M641.2,-206C630.92,-206 620.4,-206 610.19,-206"/>
<polygon fill="midnightblue" stroke="midnightblue" points="641.37,-209.5 651.37,-206 641.37,-202.5 641.37,-209.5"/>
</g>
<!-- Node17&#45;&gt;Node4 -->
<g id="edge20" class="edge">
<title>Node17&#45;&gt;Node4</title>
<path fill="none" stroke="midnightblue" d="M451.28,-206.97C442.83,-207.07 434.35,-207.17 426.17,-207.27"/>
<polygon fill="midnightblue" stroke="midnightblue" points="451.6,-210.47 461.56,-206.85 451.52,-203.47 451.6,-210.47"/>
</g>
</g>
</svg>
        <g id="navigator" transform="translate(0 0)" fill="#404254">
                <rect fill="#f2f5e9" fill-opacity="0.5" stroke="#606060" stroke-width=".5" x="0" y="0" width="60" height="60"/>
                <use id="zoomplus" xlink:href="#zoomPlus" x="17" y="9" onmousedown="handleZoom(evt,'in')"/>
                <use id="zoomminus" xlink:href="#zoomMin" x="42" y="9" onmousedown="handleZoom(evt,'out')"/>
                <use id="reset" xlink:href="#resetDef" x="30" y="36" onmousedown="handleReset()"/>
                <g id="arrowUp" xlink:href="#dirArrow" transform="translate(30 24)" onmousedown="handlePan(0,-1)">
                  <use xlink:href="#rim" fill="#404040">
                        <set attributeName="fill" to="#808080" begin="arrowUp.mouseover" end="arrowUp.mouseout"/>
                  </use>
                  <path fill="none" stroke="white" stroke-width="1.5" d="M0,-3.0v7 M-2.5,-0.5L0,-3.0L2.5,-0.5"/>
                </g>
                <g id="arrowRight" xlink:href="#dirArrow" transform="rotate(90) translate(36 -43)" onmousedown="handlePan(1,0)">
                  <use xlink:href="#rim" fill="#404040">
                        <set attributeName="fill" to="#808080" begin="arrowRight.mouseover" end="arrowRight.mouseout"/>
                  </use>
                  <path fill="none" stroke="white" stroke-width="1.5" d="M0,-3.0v7 M-2.5,-0.5L0,-3.0L2.5,-0.5"/>
                </g>
                <g id="arrowDown" xlink:href="#dirArrow" transform="rotate(180) translate(-30 -48)" onmousedown="handlePan(0,1)">
                  <use xlink:href="#rim" fill="#404040">
                        <set attributeName="fill" to="#808080" begin="arrowDown.mouseover" end="arrowDown.mouseout"/>
                  </use>
                  <path fill="none" stroke="white" stroke-width="1.5" d="M0,-3.0v7 M-2.5,-0.5L0,-3.0L2.5,-0.5"/>
                </g>
                <g id="arrowLeft" xlink:href="#dirArrow" transform="rotate(270) translate(-36 17)" onmousedown="handlePan(-1,0)">
                  <use xlink:href="#rim" fill="#404040">
                        <set attributeName="fill" to="#808080" begin="arrowLeft.mouseover" end="arrowLeft.mouseout"/>
                  </use>
                  <path fill="none" stroke="white" stroke-width="1.5" d="M0,-3.0v7 M-2.5,-0.5L0,-3.0L2.5,-0.5"/>
                </g>
        </g>
        <svg viewBox="0 0 15 15" width="100%" height="30px" preserveAspectRatio="xMaxYMin meet">
         <g id="arrow_out" transform="scale(0.3 0.3)">
          <a xlink:href="namespacePhysical_aceeafe6dfcafc1ccd35aee635c075f09_icgraph_org.svg" target="_base">
           <rect id="button" ry="5" rx="5" y="6" x="6" height="38" width="38"
                fill="#f2f5e9" fill-opacity="0.5" stroke="#606060" stroke-width="1.0"/>
           <path id="arrow"
             d="M 11.500037,31.436501 C 11.940474,20.09759 22.043105,11.32322 32.158766,21.979434 L 37.068811,17.246167 C 37.068811,17.246167 37.088388,32 37.088388,32 L 22.160133,31.978069 C 22.160133,31.978069 26.997745,27.140456 26.997745,27.140456 C 18.528582,18.264221 13.291696,25.230495 11.500037,31.436501 z"
             style="fill:#404040;"/>
          </a>
         </g>
        </svg>
</svg>
