<?xml version="1.0" encoding="UTF-8" standalone="no"?>
<!DOCTYPE svg PUBLIC "-//W3C//DTD SVG 1.1//EN"
 "http://www.w3.org/Graphics/SVG/1.1/DTD/svg11.dtd">
<!-- Generated by graphviz version 2.47.1 (20210417.1919)
 -->
<!-- Title: omega Pages: 1 -->
<svg width="427pt" height="142pt"
 viewBox="0.00 0.00 427.00 142.00" xmlns="http://www.w3.org/2000/svg" xmlns:xlink="http://www.w3.org/1999/xlink">
<g id="graph0" class="graph" transform="scale(1 1) rotate(0) translate(4 138)">
<title>omega</title>
<polygon fill="white" stroke="transparent" points="-4,4 -4,-138 423,-138 423,4 -4,4"/>
<!-- Node1 -->
<g id="node1" class="node">
<title>Node1</title>
<g id="a_node1"><a xlink:title=" ">
<polygon fill="#bfbfbf" stroke="black" points="373,-57.5 373,-76.5 419,-76.5 419,-57.5 373,-57.5"/>
<text text-anchor="middle" x="396" y="-64.5" font-family="Helvetica,sans-Serif" font-size="10.00">omega</text>
</a>
</g>
</g>
<!-- Node2 -->
<g id="node2" class="node">
<title>Node2</title>
<g id="a_node2"><a xlink:href="namespacePhysical.html#aa6f9f6768fb27a3751a74b7e43b4a45a" target="_top" xlink:title=" ">
<polygon fill="white" stroke="black" points="290,-57.5 290,-76.5 337,-76.5 337,-57.5 290,-57.5"/>
<text text-anchor="middle" x="313.5" y="-64.5" font-family="Helvetica,sans-Serif" font-size="10.00">coriolis</text>
</a>
</g>
</g>
<!-- Node1&#45;&gt;Node2 -->
<g id="edge1" class="edge">
<title>Node1&#45;&gt;Node2</title>
<path fill="none" stroke="midnightblue" d="M362.52,-67C353.99,-67 344.97,-67 337.08,-67"/>
<polygon fill="midnightblue" stroke="midnightblue" points="362.58,-70.5 372.58,-67 362.58,-63.5 362.58,-70.5"/>
</g>
<!-- Node3 -->
<g id="node3" class="node">
<title>Node3</title>
<g id="a_node3"><a xlink:href="classVortex.html#a31f8393268fb0ce958148e0bd2fcb482" target="_top" xlink:title=" ">
<polygon fill="white" stroke="black" points="146,-114.5 146,-133.5 247,-133.5 247,-114.5 146,-114.5"/>
<text text-anchor="middle" x="196.5" y="-121.5" font-family="Helvetica,sans-Serif" font-size="10.00">Vortex::computeBg</text>
</a>
</g>
</g>
<!-- Node2&#45;&gt;Node3 -->
<g id="edge2" class="edge">
<title>Node2&#45;&gt;Node3</title>
<path fill="none" stroke="midnightblue" d="M287.55,-81.89C277.29,-87.79 265.21,-94.48 254,-100 243.58,-105.13 231.79,-110.25 221.69,-114.42"/>
<polygon fill="midnightblue" stroke="midnightblue" points="289.5,-84.8 296.37,-76.74 285.97,-78.76 289.5,-84.8"/>
</g>
<!-- Node4 -->
<g id="node4" class="node">
<title>Node4</title>
<g id="a_node4"><a xlink:href="classVortex.html#aa96c2354f3470dfbabf6f61dbbba25c6" target="_top" xlink:title=" ">
<polygon fill="white" stroke="black" points="0,-38.5 0,-57.5 103,-57.5 103,-38.5 0,-38.5"/>
<text text-anchor="middle" x="51.5" y="-45.5" font-family="Helvetica,sans-Serif" font-size="10.00">Vortex::computePhi</text>
</a>
</g>
</g>
<!-- Node2&#45;&gt;Node4 -->
<g id="edge3" class="edge">
<title>Node2&#45;&gt;Node4</title>
<path fill="none" stroke="midnightblue" d="M279.85,-69.09C244.89,-70.85 187.85,-72.3 139,-67 121.88,-65.14 103.18,-61.27 87.57,-57.51"/>
<polygon fill="midnightblue" stroke="midnightblue" points="280.16,-72.58 289.96,-68.55 279.78,-65.59 280.16,-72.58"/>
</g>
<!-- Node5 -->
<g id="node5" class="node">
<title>Node5</title>
<g id="a_node5"><a xlink:href="classGahm.html#abd838ada495dbe369ae8b2cae185e063" target="_top" xlink:title=" ">
<polygon fill="white" stroke="black" points="155,-38.5 155,-57.5 238,-57.5 238,-38.5 155,-38.5"/>
<text text-anchor="middle" x="196.5" y="-45.5" font-family="Helvetica,sans-Serif" font-size="10.00">Gahm::getUvpr</text>
</a>
</g>
</g>
<!-- Node2&#45;&gt;Node5 -->
<g id="edge4" class="edge">
<title>Node2&#45;&gt;Node5</title>
<path fill="none" stroke="midnightblue" d="M279.54,-61.55C266.69,-59.43 251.84,-56.98 238.33,-54.75"/>
<polygon fill="midnightblue" stroke="midnightblue" points="279.34,-65.07 289.78,-63.25 280.48,-58.16 279.34,-65.07"/>
</g>
<!-- Node6 -->
<g id="node6" class="node">
<title>Node6</title>
<g id="a_node6"><a xlink:href="classVortex.html#ad0dcc0642f9977e7d333d943744ccf77" target="_top" xlink:title=" ">
<polygon fill="white" stroke="black" points="139,-0.5 139,-19.5 254,-19.5 254,-0.5 139,-0.5"/>
<text text-anchor="middle" x="196.5" y="-7.5" font-family="Helvetica,sans-Serif" font-size="10.00">Vortex::rossbyNumber</text>
</a>
</g>
</g>
<!-- Node2&#45;&gt;Node6 -->
<g id="edge5" class="edge">
<title>Node2&#45;&gt;Node6</title>
<path fill="none" stroke="midnightblue" d="M291.25,-51.34C280.47,-43.89 266.95,-35.26 254,-29 246.64,-25.44 238.44,-22.27 230.62,-19.59"/>
<polygon fill="midnightblue" stroke="midnightblue" points="289.4,-54.32 299.59,-57.25 293.45,-48.61 289.4,-54.32"/>
</g>
<!-- Node6&#45;&gt;Node4 -->
<g id="edge6" class="edge">
<title>Node6&#45;&gt;Node4</title>
<path fill="none" stroke="midnightblue" d="M149.69,-22.17C129.91,-27.43 107.12,-33.49 88.57,-38.41"/>
<polygon fill="midnightblue" stroke="midnightblue" points="150.65,-25.54 159.42,-19.59 148.85,-18.77 150.65,-25.54"/>
</g>
</g>
</svg>
