<?xml version="1.0" encoding="UTF-8" standalone="no"?>
<!DOCTYPE svg PUBLIC "-//W3C//DTD SVG 1.1//EN"
 "http://www.w3.org/Graphics/SVG/1.1/DTD/svg11.dtd">
<!-- Generated by graphviz version 2.47.1 (20210417.1919)
 -->
<!-- Title: halfpi Pages: 1 -->
<svg width="661pt" height="66pt"
 viewBox="0.00 0.00 661.00 66.00" xmlns="http://www.w3.org/2000/svg" xmlns:xlink="http://www.w3.org/1999/xlink">
<g id="graph0" class="graph" transform="scale(1 1) rotate(0) translate(4 62)">
<title>halfpi</title>
<polygon fill="white" stroke="transparent" points="-4,4 -4,-62 657,-62 657,4 -4,4"/>
<!-- Node1 -->
<g id="node1" class="node">
<title>Node1</title>
<g id="a_node1"><a xlink:title=" ">
<polygon fill="#bfbfbf" stroke="black" points="613,-19.5 613,-38.5 653,-38.5 653,-19.5 613,-19.5"/>
<text text-anchor="middle" x="633" y="-26.5" font-family="Helvetica,sans-Serif" font-size="10.00">halfpi</text>
</a>
</g>
</g>
<!-- Node2 -->
<g id="node2" class="node">
<title>Node2</title>
<g id="a_node2"><a xlink:href="classAtcf.html#adccea6c4ad7108a14f86b833f3f94f6d" target="_top" xlink:title=" ">
<polygon fill="white" stroke="black" points="431,-14 431,-44 577,-44 577,-14 431,-14"/>
<text text-anchor="start" x="439" y="-32" font-family="Helvetica,sans-Serif" font-size="10.00">Atcf::computeQuadrantVector</text>
<text text-anchor="middle" x="504" y="-21" font-family="Helvetica,sans-Serif" font-size="10.00">Angle</text>
</a>
</g>
</g>
<!-- Node1&#45;&gt;Node2 -->
<g id="edge1" class="edge">
<title>Node1&#45;&gt;Node2</title>
<path fill="none" stroke="midnightblue" d="M602.93,-29C595.05,-29 586.14,-29 577,-29"/>
<polygon fill="midnightblue" stroke="midnightblue" points="602.99,-32.5 612.99,-29 602.99,-25.5 602.99,-32.5"/>
</g>
<!-- Node3 -->
<g id="node3" class="node">
<title>Node3</title>
<g id="a_node3"><a xlink:href="classAtcf.html#a80d9683a370e561492db8a0f6d795c5d" target="_top" xlink:title=" ">
<polygon fill="white" stroke="black" points="263,-38.5 263,-57.5 391,-57.5 391,-38.5 263,-38.5"/>
<text text-anchor="middle" x="327" y="-45.5" font-family="Helvetica,sans-Serif" font-size="10.00">Atcf::computeQuadrantVr</text>
</a>
</g>
</g>
<!-- Node2&#45;&gt;Node3 -->
<g id="edge2" class="edge">
<title>Node2&#45;&gt;Node3</title>
<path fill="none" stroke="midnightblue" d="M420.85,-37.92C410.85,-39.01 400.75,-40.1 391.08,-41.15"/>
<polygon fill="midnightblue" stroke="midnightblue" points="421.25,-41.4 430.81,-36.84 420.49,-34.44 421.25,-41.4"/>
</g>
<!-- Node6 -->
<g id="node6" class="node">
<title>Node6</title>
<g id="a_node6"><a xlink:href="classAtcf.html#adfe6ef35c351380ba863090d4fec04bb" target="_top" xlink:title=" ">
<polygon fill="white" stroke="black" points="259,-0.5 259,-19.5 395,-19.5 395,-0.5 259,-0.5"/>
<text text-anchor="middle" x="327" y="-7.5" font-family="Helvetica,sans-Serif" font-size="10.00">Atcf::recomputeQuadrantVr</text>
</a>
</g>
</g>
<!-- Node2&#45;&gt;Node6 -->
<g id="edge5" class="edge">
<title>Node2&#45;&gt;Node6</title>
<path fill="none" stroke="midnightblue" d="M420.81,-20.08C412.25,-19.15 403.62,-18.21 395.25,-17.3"/>
<polygon fill="midnightblue" stroke="midnightblue" points="420.49,-23.56 430.81,-21.16 421.25,-16.6 420.49,-23.56"/>
</g>
<!-- Node4 -->
<g id="node4" class="node">
<title>Node4</title>
<g id="a_node4"><a xlink:href="classAtcf.html#ada693ebe0f0ee4be52b01fd3fe83963a" target="_top" xlink:title=" ">
<polygon fill="white" stroke="black" points="95,-19.5 95,-38.5 223,-38.5 223,-19.5 95,-19.5"/>
<text text-anchor="middle" x="159" y="-26.5" font-family="Helvetica,sans-Serif" font-size="10.00">Atcf::computeParameters</text>
</a>
</g>
</g>
<!-- Node3&#45;&gt;Node4 -->
<g id="edge3" class="edge">
<title>Node3&#45;&gt;Node4</title>
<path fill="none" stroke="midnightblue" d="M252.59,-39.6C242.74,-38.47 232.71,-37.32 223.06,-36.22"/>
<polygon fill="midnightblue" stroke="midnightblue" points="252.44,-43.1 262.77,-40.76 253.23,-36.15 252.44,-43.1"/>
</g>
<!-- Node5 -->
<g id="node5" class="node">
<title>Node5</title>
<g id="a_node5"><a xlink:href="classAtcf.html#aaab5dab5b969a87f538242e524431637" target="_top" xlink:title=" ">
<polygon fill="white" stroke="black" points="0,-19.5 0,-38.5 59,-38.5 59,-19.5 0,-19.5"/>
<text text-anchor="middle" x="29.5" y="-26.5" font-family="Helvetica,sans-Serif" font-size="10.00">Atcf::read</text>
</a>
</g>
</g>
<!-- Node4&#45;&gt;Node5 -->
<g id="edge4" class="edge">
<title>Node4&#45;&gt;Node5</title>
<path fill="none" stroke="midnightblue" d="M84.74,-29C75.71,-29 66.94,-29 59.18,-29"/>
<polygon fill="midnightblue" stroke="midnightblue" points="85,-32.5 95,-29 85,-25.5 85,-32.5"/>
</g>
<!-- Node6&#45;&gt;Node4 -->
<g id="edge6" class="edge">
<title>Node6&#45;&gt;Node4</title>
<path fill="none" stroke="midnightblue" d="M248.93,-18.82C240.33,-19.81 231.65,-20.8 223.26,-21.76"/>
<polygon fill="midnightblue" stroke="midnightblue" points="249.42,-22.29 258.96,-17.67 248.63,-15.33 249.42,-22.29"/>
</g>
</g>
</svg>
