<?xml version="1.0" encoding="UTF-8" standalone="no"?>
<!DOCTYPE svg PUBLIC "-//W3C//DTD SVG 1.1//EN"
 "http://www.w3.org/Graphics/SVG/1.1/DTD/svg11.dtd">
<!-- Generated by graphviz version 2.47.1 (20210417.1919)
 -->
<!-- Title: ms2kt Pages: 1 -->
<svg width="835pt" height="226pt"
 viewBox="0.00 0.00 835.00 226.00" xmlns="http://www.w3.org/2000/svg" xmlns:xlink="http://www.w3.org/1999/xlink">
<g id="graph0" class="graph" transform="scale(1 1) rotate(0) translate(4 222)">
<title>ms2kt</title>
<polygon fill="white" stroke="transparent" points="-4,4 -4,-222 831,-222 831,4 -4,4"/>
<!-- Node1 -->
<g id="node1" class="node">
<title>Node1</title>
<g id="a_node1"><a xlink:title=" ">
<polygon fill="#bfbfbf" stroke="black" points="783,-95.5 783,-114.5 827,-114.5 827,-95.5 783,-95.5"/>
<text text-anchor="middle" x="805" y="-102.5" font-family="Helvetica,sans-Serif" font-size="10.00">ms2kt</text>
</a>
</g>
</g>
<!-- Node2 -->
<g id="node2" class="node">
<title>Node2</title>
<g id="a_node2"><a xlink:href="classAtcf.html#a4bec7c75f41a2643be3bccf63921dfa1" target="_top" xlink:title=" ">
<polygon fill="white" stroke="black" points="431,-27 431,-57 598,-57 598,-27 431,-27"/>
<text text-anchor="start" x="439" y="-45" font-family="Helvetica,sans-Serif" font-size="10.00">Atcf::calculateOverlandTranslation</text>
<text text-anchor="middle" x="514.5" y="-34" font-family="Helvetica,sans-Serif" font-size="10.00">Velocity</text>
</a>
</g>
</g>
<!-- Node1&#45;&gt;Node2 -->
<g id="edge1" class="edge">
<title>Node1&#45;&gt;Node2</title>
<path fill="none" stroke="midnightblue" d="M785.08,-89.01C774.55,-81.02 760.8,-72 747,-67 699.59,-49.81 643.41,-43.44 598.27,-41.42"/>
<polygon fill="midnightblue" stroke="midnightblue" points="783.09,-91.9 793.1,-95.37 787.44,-86.42 783.09,-91.9"/>
</g>
<!-- Node4 -->
<g id="node4" class="node">
<title>Node4</title>
<g id="a_node4"><a xlink:href="classAtcf.html#a2742efd0b6b28a51a11a0d74e713f222" target="_top" xlink:title=" ">
<polygon fill="white" stroke="black" points="634,-190.5 634,-209.5 747,-209.5 747,-190.5 634,-190.5"/>
<text text-anchor="middle" x="690.5" y="-197.5" font-family="Helvetica,sans-Serif" font-size="10.00">Atcf::computeGamma</text>
</a>
</g>
</g>
<!-- Node1&#45;&gt;Node4 -->
<g id="edge3" class="edge">
<title>Node1&#45;&gt;Node4</title>
<path fill="none" stroke="midnightblue" d="M792.96,-123.31C782.7,-139.03 766.16,-161.4 747,-176 739.24,-181.92 729.79,-186.7 720.9,-190.4"/>
<polygon fill="midnightblue" stroke="midnightblue" points="796.13,-124.83 798.5,-114.51 790.21,-121.1 796.13,-124.83"/>
</g>
<!-- Node5 -->
<g id="node5" class="node">
<title>Node5</title>
<g id="a_node5"><a xlink:href="classAtcf.html#a12d26ed5e74ce562bd78a28662bceb75" target="_top" xlink:title=" ">
<polygon fill="white" stroke="black" points="440.5,-153 440.5,-183 588.5,-183 588.5,-153 440.5,-153"/>
<text text-anchor="start" x="448.5" y="-171" font-family="Helvetica,sans-Serif" font-size="10.00">Atcf::computeQuadrantVrWith</text>
<text text-anchor="middle" x="514.5" y="-160" font-family="Helvetica,sans-Serif" font-size="10.00">Gamma</text>
</a>
</g>
</g>
<!-- Node1&#45;&gt;Node5 -->
<g id="edge10" class="edge">
<title>Node1&#45;&gt;Node5</title>
<path fill="none" stroke="midnightblue" d="M773.46,-118.03C765,-121.3 755.74,-124.56 747,-127 694.81,-141.55 634.49,-152.03 588.52,-158.76"/>
<polygon fill="midnightblue" stroke="midnightblue" points="774.96,-121.21 782.95,-114.25 772.36,-114.7 774.96,-121.21"/>
</g>
<!-- Node9 -->
<g id="node9" class="node">
<title>Node9</title>
<g id="a_node9"><a xlink:href="classAtcf.html#adc746c4433140219ebaf449c6f8d21f3" target="_top" xlink:title=" ">
<polygon fill="white" stroke="black" points="447.5,-114.5 447.5,-133.5 581.5,-133.5 581.5,-114.5 447.5,-114.5"/>
<text text-anchor="middle" x="514.5" y="-121.5" font-family="Helvetica,sans-Serif" font-size="10.00">Atcf::computeStormMotion</text>
</a>
</g>
</g>
<!-- Node1&#45;&gt;Node9 -->
<g id="edge11" class="edge">
<title>Node1&#45;&gt;Node9</title>
<path fill="none" stroke="midnightblue" d="M772.63,-107.07C727.06,-110.07 641.46,-115.7 581.6,-119.65"/>
<polygon fill="midnightblue" stroke="midnightblue" points="773.04,-110.55 782.79,-106.4 772.58,-103.56 773.04,-110.55"/>
</g>
<!-- Node10 -->
<g id="node10" class="node">
<title>Node10</title>
<g id="a_node10"><a xlink:href="namespacePhysical.html#a05752af9ecabce50d071f64c9918f5f6" target="_top" xlink:title=" ">
<polygon fill="white" stroke="black" points="668.5,-76.5 668.5,-95.5 712.5,-95.5 712.5,-76.5 668.5,-76.5"/>
<text text-anchor="middle" x="690.5" y="-83.5" font-family="Helvetica,sans-Serif" font-size="10.00">kt2ms</text>
</a>
</g>
</g>
<!-- Node1&#45;&gt;Node10 -->
<g id="edge13" class="edge">
<title>Node1&#45;&gt;Node10</title>
<path fill="none" stroke="midnightblue" d="M772.76,-99.72C753.57,-96.48 729.51,-92.42 712.57,-89.56"/>
<polygon fill="midnightblue" stroke="midnightblue" points="772.4,-103.21 782.84,-101.43 773.56,-96.31 772.4,-103.21"/>
</g>
<!-- Node12 -->
<g id="node12" class="node">
<title>Node12</title>
<g id="a_node12"><a xlink:href="classAtcf.html#aec35454de676b1f68288d59612b572ee" target="_top" xlink:title=" ">
<polygon fill="white" stroke="black" points="659.5,-0.5 659.5,-19.5 721.5,-19.5 721.5,-0.5 659.5,-0.5"/>
<text text-anchor="middle" x="690.5" y="-7.5" font-family="Helvetica,sans-Serif" font-size="10.00">Atcf::write</text>
</a>
</g>
</g>
<!-- Node1&#45;&gt;Node12 -->
<g id="edge18" class="edge">
<title>Node1&#45;&gt;Node12</title>
<path fill="none" stroke="midnightblue" d="M792.96,-86.69C782.7,-70.97 766.16,-48.6 747,-34 739.24,-28.08 729.79,-23.3 720.9,-19.6"/>
<polygon fill="midnightblue" stroke="midnightblue" points="790.21,-88.9 798.5,-95.49 796.13,-85.17 790.21,-88.9"/>
</g>
<!-- Node3 -->
<g id="node3" class="node">
<title>Node3</title>
<g id="a_node3"><a xlink:href="classAtcf.html#aaab5dab5b969a87f538242e524431637" target="_top" xlink:title=" ">
<polygon fill="white" stroke="black" points="0,-76.5 0,-95.5 59,-95.5 59,-76.5 0,-76.5"/>
<text text-anchor="middle" x="29.5" y="-83.5" font-family="Helvetica,sans-Serif" font-size="10.00">Atcf::read</text>
</a>
</g>
</g>
<!-- Node2&#45;&gt;Node3 -->
<g id="edge2" class="edge">
<title>Node2&#45;&gt;Node3</title>
<path fill="none" stroke="midnightblue" d="M420.52,-50.47C309.12,-60.62 128.8,-77.04 59.19,-83.39"/>
<polygon fill="midnightblue" stroke="midnightblue" points="421.1,-53.93 430.74,-49.54 420.47,-46.96 421.1,-53.93"/>
</g>
<!-- Node4&#45;&gt;Node5 -->
<g id="edge4" class="edge">
<title>Node4&#45;&gt;Node5</title>
<path fill="none" stroke="midnightblue" d="M627.79,-188.65C615.11,-186.32 601.65,-183.84 588.61,-181.45"/>
<polygon fill="midnightblue" stroke="midnightblue" points="627.3,-192.12 637.77,-190.49 628.56,-185.23 627.3,-192.12"/>
</g>
<!-- Node8 -->
<g id="node8" class="node">
<title>Node8</title>
<g id="a_node8"><a xlink:href="classAtcf.html#adfe6ef35c351380ba863090d4fec04bb" target="_top" xlink:title=" ">
<polygon fill="white" stroke="black" points="259,-198.5 259,-217.5 395,-217.5 395,-198.5 259,-198.5"/>
<text text-anchor="middle" x="327" y="-205.5" font-family="Helvetica,sans-Serif" font-size="10.00">Atcf::recomputeQuadrantVr</text>
</a>
</g>
</g>
<!-- Node4&#45;&gt;Node8 -->
<g id="edge8" class="edge">
<title>Node4&#45;&gt;Node8</title>
<path fill="none" stroke="midnightblue" d="M623.71,-201.46C558.91,-202.89 460.41,-205.07 395.14,-206.51"/>
<polygon fill="midnightblue" stroke="midnightblue" points="623.89,-204.95 633.81,-201.23 623.73,-197.95 623.89,-204.95"/>
</g>
<!-- Node6 -->
<g id="node6" class="node">
<title>Node6</title>
<g id="a_node6"><a xlink:href="classAtcf.html#a80d9683a370e561492db8a0f6d795c5d" target="_top" xlink:title=" ">
<polygon fill="white" stroke="black" points="263,-156.5 263,-175.5 391,-175.5 391,-156.5 263,-156.5"/>
<text text-anchor="middle" x="327" y="-163.5" font-family="Helvetica,sans-Serif" font-size="10.00">Atcf::computeQuadrantVr</text>
</a>
</g>
</g>
<!-- Node5&#45;&gt;Node6 -->
<g id="edge5" class="edge">
<title>Node5&#45;&gt;Node6</title>
<path fill="none" stroke="midnightblue" d="M430.42,-167.1C417.2,-166.96 403.73,-166.82 391.07,-166.68"/>
<polygon fill="midnightblue" stroke="midnightblue" points="430.41,-170.6 440.45,-167.21 430.49,-163.6 430.41,-170.6"/>
</g>
<!-- Node7 -->
<g id="node7" class="node">
<title>Node7</title>
<g id="a_node7"><a xlink:href="classAtcf.html#ada693ebe0f0ee4be52b01fd3fe83963a" target="_top" xlink:title=" ">
<polygon fill="white" stroke="black" points="95,-134.5 95,-153.5 223,-153.5 223,-134.5 95,-134.5"/>
<text text-anchor="middle" x="159" y="-141.5" font-family="Helvetica,sans-Serif" font-size="10.00">Atcf::computeParameters</text>
</a>
</g>
</g>
<!-- Node6&#45;&gt;Node7 -->
<g id="edge6" class="edge">
<title>Node6&#45;&gt;Node7</title>
<path fill="none" stroke="midnightblue" d="M252.59,-156.27C242.74,-154.97 232.71,-153.64 223.06,-152.36"/>
<polygon fill="midnightblue" stroke="midnightblue" points="252.4,-159.78 262.77,-157.62 253.32,-152.84 252.4,-159.78"/>
</g>
<!-- Node7&#45;&gt;Node3 -->
<g id="edge7" class="edge">
<title>Node7&#45;&gt;Node3</title>
<path fill="none" stroke="midnightblue" d="M127.78,-130.25C104.31,-119.57 72.36,-105.04 51.59,-95.59"/>
<polygon fill="midnightblue" stroke="midnightblue" points="126.39,-133.47 136.95,-134.42 129.29,-127.1 126.39,-133.47"/>
</g>
<!-- Node8&#45;&gt;Node7 -->
<g id="edge9" class="edge">
<title>Node8&#45;&gt;Node7</title>
<path fill="none" stroke="midnightblue" d="M287.09,-195.1C277.84,-191.91 268.04,-188.42 259,-185 232.2,-174.86 201.82,-162.09 181.86,-153.51"/>
<polygon fill="midnightblue" stroke="midnightblue" points="286.24,-198.51 296.84,-198.43 288.51,-191.88 286.24,-198.51"/>
</g>
<!-- Node9&#45;&gt;Node7 -->
<g id="edge12" class="edge">
<title>Node9&#45;&gt;Node7</title>
<path fill="none" stroke="midnightblue" d="M437.39,-128.31C373.42,-131.93 283.08,-137.04 223.08,-140.43"/>
<polygon fill="midnightblue" stroke="midnightblue" points="437.64,-131.8 447.42,-127.74 437.24,-124.81 437.64,-131.8"/>
</g>
<!-- Node10&#45;&gt;Node2 -->
<g id="edge14" class="edge">
<title>Node10&#45;&gt;Node2</title>
<path fill="none" stroke="midnightblue" d="M658.25,-78.1C635.18,-72.26 603.09,-64.15 575.17,-57.09"/>
<polygon fill="midnightblue" stroke="midnightblue" points="657.61,-81.55 668.16,-80.6 659.33,-74.76 657.61,-81.55"/>
</g>
<!-- Node10&#45;&gt;Node9 -->
<g id="edge15" class="edge">
<title>Node10&#45;&gt;Node9</title>
<path fill="none" stroke="midnightblue" d="M658.24,-92.83C630.57,-98.87 589.9,-107.75 559.04,-114.49"/>
<polygon fill="midnightblue" stroke="midnightblue" points="659.14,-96.21 668.16,-90.66 657.65,-89.37 659.14,-96.21"/>
</g>
<!-- Node11 -->
<g id="node11" class="node">
<title>Node11</title>
<g id="a_node11"><a xlink:href="classAtcfLine.html#a669437f8facd47f46097adc21d0d497b" target="_top" xlink:title=" ">
<polygon fill="white" stroke="black" points="267.5,-76.5 267.5,-95.5 386.5,-95.5 386.5,-76.5 267.5,-76.5"/>
<text text-anchor="middle" x="327" y="-83.5" font-family="Helvetica,sans-Serif" font-size="10.00">AtcfLine::parseAtcfLine</text>
</a>
</g>
</g>
<!-- Node10&#45;&gt;Node11 -->
<g id="edge16" class="edge">
<title>Node10&#45;&gt;Node11</title>
<path fill="none" stroke="midnightblue" d="M658.17,-86C597.74,-86 464.24,-86 386.78,-86"/>
<polygon fill="midnightblue" stroke="midnightblue" points="658.24,-89.5 668.24,-86 658.24,-82.5 658.24,-89.5"/>
</g>
<!-- Node11&#45;&gt;Node3 -->
<g id="edge17" class="edge">
<title>Node11&#45;&gt;Node3</title>
<path fill="none" stroke="midnightblue" d="M257.03,-86C194.19,-86 104.47,-86 59.11,-86"/>
<polygon fill="midnightblue" stroke="midnightblue" points="257.27,-89.5 267.27,-86 257.27,-82.5 257.27,-89.5"/>
</g>
</g>
</svg>
