<?xml version="1.0" encoding="UTF-8" standalone="no"?>
<!DOCTYPE svg PUBLIC "-//W3C//DTD SVG 1.1//EN"
 "http://www.w3.org/Graphics/SVG/1.1/DTD/svg11.dtd">
<!-- Generated by graphviz version 2.47.1 (20210417.1919)
 -->
<!-- Title: Physical.h Pages: 1 -->
<svg width="308pt" height="252pt"
 viewBox="0.00 0.00 307.58 252.00" xmlns="http://www.w3.org/2000/svg" xmlns:xlink="http://www.w3.org/1999/xlink">
<g id="graph0" class="graph" transform="scale(1 1) rotate(0) translate(4 248)">
<title>Physical.h</title>
<polygon fill="white" stroke="transparent" points="-4,4 -4,-248 303.58,-248 303.58,4 -4,4"/>
<!-- Node1 -->
<g id="node1" class="node">
<title>Node1</title>
<g id="a_node1"><a xlink:title=" ">
<polygon fill="#bfbfbf" stroke="black" points="83.58,-224.5 83.58,-243.5 145.58,-243.5 145.58,-224.5 83.58,-224.5"/>
<text text-anchor="middle" x="114.58" y="-231.5" font-family="Helvetica,sans-Serif" font-size="10.00">Physical.h</text>
</a>
</g>
</g>
<!-- Node2 -->
<g id="node2" class="node">
<title>Node2</title>
<g id="a_node2"><a xlink:href="Atcf_8cpp.html" target="_top" xlink:title=" ">
<polygon fill="white" stroke="black" points="26.08,-56.5 26.08,-75.5 79.08,-75.5 79.08,-56.5 26.08,-56.5"/>
<text text-anchor="middle" x="52.58" y="-63.5" font-family="Helvetica,sans-Serif" font-size="10.00">Atcf.cpp</text>
</a>
</g>
</g>
<!-- Node1&#45;&gt;Node2 -->
<g id="edge1" class="edge">
<title>Node1&#45;&gt;Node2</title>
<path fill="none" stroke="midnightblue" d="M95.1,-217.67C74.07,-199.74 41.79,-167.9 28.58,-132 21.18,-111.91 35.67,-88.33 45.19,-75.83"/>
<polygon fill="midnightblue" stroke="midnightblue" points="93.14,-220.59 103.08,-224.26 97.6,-215.19 93.14,-220.59"/>
</g>
<!-- Node3 -->
<g id="node3" class="node">
<title>Node3</title>
<g id="a_node3"><a xlink:href="AtcfLine_8cpp.html" target="_top" xlink:title=" ">
<polygon fill="white" stroke="black" points="38.08,-112.5 38.08,-131.5 109.08,-131.5 109.08,-112.5 38.08,-112.5"/>
<text text-anchor="middle" x="73.58" y="-119.5" font-family="Helvetica,sans-Serif" font-size="10.00">AtcfLine.cpp</text>
</a>
</g>
</g>
<!-- Node1&#45;&gt;Node3 -->
<g id="edge2" class="edge">
<title>Node1&#45;&gt;Node3</title>
<path fill="none" stroke="midnightblue" d="M107.87,-215C98.92,-191 83.44,-149.47 76.78,-131.59"/>
<polygon fill="midnightblue" stroke="midnightblue" points="104.59,-216.22 111.36,-224.37 111.15,-213.78 104.59,-216.22"/>
</g>
<!-- Node4 -->
<g id="node4" class="node">
<title>Node4</title>
<g id="a_node4"><a xlink:href="AtcfLine_8h.html" target="_top" xlink:title=" ">
<polygon fill="white" stroke="black" points="110.08,-168.5 110.08,-187.5 171.08,-187.5 171.08,-168.5 110.08,-168.5"/>
<text text-anchor="middle" x="140.58" y="-175.5" font-family="Helvetica,sans-Serif" font-size="10.00">AtcfLine.h</text>
</a>
</g>
</g>
<!-- Node1&#45;&gt;Node4 -->
<g id="edge3" class="edge">
<title>Node1&#45;&gt;Node4</title>
<path fill="none" stroke="midnightblue" d="M123.25,-214.98C127.67,-205.82 132.83,-195.09 136.36,-187.75"/>
<polygon fill="midnightblue" stroke="midnightblue" points="120.06,-213.55 118.87,-224.08 126.36,-216.59 120.06,-213.55"/>
</g>
<!-- Node7 -->
<g id="node7" class="node">
<title>Node7</title>
<g id="a_node7"><a xlink:href="Gahm_8cpp.html" target="_top" xlink:title=" ">
<polygon fill="white" stroke="black" points="117.58,-0.5 117.58,-19.5 179.58,-19.5 179.58,-0.5 117.58,-0.5"/>
<text text-anchor="middle" x="148.58" y="-7.5" font-family="Helvetica,sans-Serif" font-size="10.00">Gahm.cpp</text>
</a>
</g>
</g>
<!-- Node1&#45;&gt;Node7 -->
<g id="edge12" class="edge">
<title>Node1&#45;&gt;Node7</title>
<path fill="none" stroke="midnightblue" d="M86.97,-219.64C73.36,-211.93 57.56,-201.16 46.58,-188 8.02,-141.81 -18.43,-104.93 16.58,-56 39.4,-24.1 86.2,-14.56 117.49,-11.84"/>
<polygon fill="midnightblue" stroke="midnightblue" points="85.49,-222.82 95.95,-224.47 88.81,-216.65 85.49,-222.82"/>
</g>
<!-- Node8 -->
<g id="node8" class="node">
<title>Node8</title>
<g id="a_node8"><a xlink:href="Vortex_8h.html" target="_top" xlink:title=" ">
<polygon fill="white" stroke="black" points="188.08,-112.5 188.08,-131.5 241.08,-131.5 241.08,-112.5 188.08,-112.5"/>
<text text-anchor="middle" x="214.58" y="-119.5" font-family="Helvetica,sans-Serif" font-size="10.00">Vortex.h</text>
</a>
</g>
</g>
<!-- Node1&#45;&gt;Node8 -->
<g id="edge14" class="edge">
<title>Node1&#45;&gt;Node8</title>
<path fill="none" stroke="midnightblue" d="M140.81,-219.21C153.94,-211.37 169.38,-200.59 180.58,-188 195.99,-170.68 206.67,-145.14 211.56,-131.81"/>
<polygon fill="midnightblue" stroke="midnightblue" points="138.7,-216.39 131.75,-224.39 142.17,-222.47 138.7,-216.39"/>
</g>
<!-- Node9 -->
<g id="node9" class="node">
<title>Node9</title>
<g id="a_node9"><a xlink:href="Vortex_8cpp.html" target="_top" xlink:title=" ">
<polygon fill="white" stroke="black" points="235.58,-56.5 235.58,-75.5 299.58,-75.5 299.58,-56.5 235.58,-56.5"/>
<text text-anchor="middle" x="267.58" y="-63.5" font-family="Helvetica,sans-Serif" font-size="10.00">Vortex.cpp</text>
</a>
</g>
</g>
<!-- Node1&#45;&gt;Node9 -->
<g id="edge13" class="edge">
<title>Node1&#45;&gt;Node9</title>
<path fill="none" stroke="midnightblue" d="M145.54,-220.11C162.66,-212.2 183.8,-201.08 200.58,-188 226.9,-167.49 234.81,-161.4 250.58,-132 260.5,-113.5 264.87,-88.88 266.6,-75.89"/>
<polygon fill="midnightblue" stroke="midnightblue" points="143.68,-217.11 135.98,-224.39 146.54,-223.5 143.68,-217.11"/>
</g>
<!-- Node4&#45;&gt;Node3 -->
<g id="edge8" class="edge">
<title>Node4&#45;&gt;Node3</title>
<path fill="none" stroke="midnightblue" d="M121.74,-161.82C109.74,-152.15 94.61,-139.95 84.54,-131.83"/>
<polygon fill="midnightblue" stroke="midnightblue" points="119.83,-164.77 129.81,-168.32 124.22,-159.32 119.83,-164.77"/>
</g>
<!-- Node5 -->
<g id="node5" class="node">
<title>Node5</title>
<g id="a_node5"><a xlink:href="Atcf_8h.html" target="_top" xlink:title=" ">
<polygon fill="white" stroke="black" points="127.08,-112.5 127.08,-131.5 170.08,-131.5 170.08,-112.5 127.08,-112.5"/>
<text text-anchor="middle" x="148.58" y="-119.5" font-family="Helvetica,sans-Serif" font-size="10.00">Atcf.h</text>
</a>
</g>
</g>
<!-- Node4&#45;&gt;Node5 -->
<g id="edge4" class="edge">
<title>Node4&#45;&gt;Node5</title>
<path fill="none" stroke="midnightblue" d="M143.38,-158.1C144.71,-149.14 146.23,-138.86 147.28,-131.75"/>
<polygon fill="midnightblue" stroke="midnightblue" points="139.9,-157.68 141.9,-168.08 146.83,-158.7 139.9,-157.68"/>
</g>
<!-- Node4&#45;&gt;Node8 -->
<g id="edge9" class="edge">
<title>Node4&#45;&gt;Node8</title>
<path fill="none" stroke="midnightblue" d="M160.61,-162.38C173.99,-152.62 191.14,-140.11 202.47,-131.83"/>
<polygon fill="midnightblue" stroke="midnightblue" points="158.48,-159.6 152.47,-168.32 162.61,-165.26 158.48,-159.6"/>
</g>
<!-- Node5&#45;&gt;Node2 -->
<g id="edge5" class="edge">
<title>Node5&#45;&gt;Node2</title>
<path fill="none" stroke="midnightblue" d="M124,-107.18C106.34,-97.24 83.06,-84.15 67.96,-75.65"/>
<polygon fill="midnightblue" stroke="midnightblue" points="122.72,-110.47 133.15,-112.32 126.15,-104.37 122.72,-110.47"/>
</g>
<!-- Node6 -->
<g id="node6" class="node">
<title>Node6</title>
<g id="a_node6"><a xlink:href="Gahm_8h.html" target="_top" xlink:title=" ">
<polygon fill="white" stroke="black" points="123.08,-56.5 123.08,-75.5 174.08,-75.5 174.08,-56.5 123.08,-56.5"/>
<text text-anchor="middle" x="148.58" y="-63.5" font-family="Helvetica,sans-Serif" font-size="10.00">Gahm.h</text>
</a>
</g>
</g>
<!-- Node5&#45;&gt;Node6 -->
<g id="edge6" class="edge">
<title>Node5&#45;&gt;Node6</title>
<path fill="none" stroke="midnightblue" d="M148.58,-101.8C148.58,-92.91 148.58,-82.78 148.58,-75.75"/>
<polygon fill="midnightblue" stroke="midnightblue" points="145.08,-102.08 148.58,-112.08 152.08,-102.08 145.08,-102.08"/>
</g>
<!-- Node6&#45;&gt;Node7 -->
<g id="edge7" class="edge">
<title>Node6&#45;&gt;Node7</title>
<path fill="none" stroke="midnightblue" d="M148.58,-45.8C148.58,-36.91 148.58,-26.78 148.58,-19.75"/>
<polygon fill="midnightblue" stroke="midnightblue" points="145.08,-46.08 148.58,-56.08 152.08,-46.08 145.08,-46.08"/>
</g>
<!-- Node8&#45;&gt;Node7 -->
<g id="edge10" class="edge">
<title>Node8&#45;&gt;Node7</title>
<path fill="none" stroke="midnightblue" d="M207.16,-102.81C201.42,-89.46 192.9,-71.11 183.58,-56 175.26,-42.52 163.67,-28.32 156.14,-19.55"/>
<polygon fill="midnightblue" stroke="midnightblue" points="204.04,-104.41 211.13,-112.28 210.49,-101.7 204.04,-104.41"/>
</g>
<!-- Node8&#45;&gt;Node9 -->
<g id="edge11" class="edge">
<title>Node8&#45;&gt;Node9</title>
<path fill="none" stroke="midnightblue" d="M230.56,-104.72C239.9,-95.2 251.32,-83.56 258.99,-75.75"/>
<polygon fill="midnightblue" stroke="midnightblue" points="227.84,-102.49 223.33,-112.08 232.83,-107.4 227.84,-102.49"/>
</g>
</g>
</svg>
