<?xml version="1.0" encoding="UTF-8" standalone="no"?>
<!DOCTYPE svg PUBLIC "-//W3C//DTD SVG 1.1//EN"
 "http://www.w3.org/Graphics/SVG/1.1/DTD/svg11.dtd">
<!-- Generated by graphviz version 2.47.1 (20210417.1919)
 -->
<!-- Title: month Pages: 1 -->
<svg width="279pt" height="104pt"
 viewBox="0.00 0.00 279.00 104.00" xmlns="http://www.w3.org/2000/svg" xmlns:xlink="http://www.w3.org/1999/xlink">
<g id="graph0" class="graph" transform="scale(1 1) rotate(0) translate(4 100)">
<title>month</title>
<polygon fill="white" stroke="transparent" points="-4,4 -4,-100 275,-100 275,4 -4,4"/>
<!-- Node1 -->
<g id="node1" class="node">
<title>Node1</title>
<g id="a_node1"><a xlink:title=" ">
<polygon fill="#bfbfbf" stroke="black" points="227,-38.5 227,-57.5 271,-57.5 271,-38.5 227,-38.5"/>
<text text-anchor="middle" x="249" y="-45.5" font-family="Helvetica,sans-Serif" font-size="10.00">month</text>
</a>
</g>
</g>
<!-- Node2 -->
<g id="node2" class="node">
<title>Node2</title>
<g id="a_node2"><a xlink:href="classDate.html#a1d85d7b09eedec3fb734532c164f2f27" target="_top" xlink:title=" ">
<polygon fill="white" stroke="black" points="120,-38.5 120,-57.5 191,-57.5 191,-38.5 120,-38.5"/>
<text text-anchor="middle" x="155.5" y="-45.5" font-family="Helvetica,sans-Serif" font-size="10.00">Date::month</text>
</a>
</g>
</g>
<!-- Node1&#45;&gt;Node2 -->
<g id="edge1" class="edge">
<title>Node1&#45;&gt;Node2</title>
<path fill="none" stroke="midnightblue" d="M216.54,-48C208.38,-48 199.54,-48 191.22,-48"/>
<polygon fill="midnightblue" stroke="midnightblue" points="216.78,-51.5 226.78,-48 216.78,-44.5 216.78,-51.5"/>
</g>
<!-- Node3 -->
<g id="node3" class="node">
<title>Node3</title>
<g id="a_node3"><a xlink:href="classDate.html#a47ce47ac7778de3dce27a562e584fef3" target="_top" xlink:title=" ">
<polygon fill="white" stroke="black" points="9.5,-76.5 9.5,-95.5 74.5,-95.5 74.5,-76.5 9.5,-76.5"/>
<text text-anchor="middle" x="42" y="-83.5" font-family="Helvetica,sans-Serif" font-size="10.00">Date::Date</text>
</a>
</g>
</g>
<!-- Node2&#45;&gt;Node3 -->
<g id="edge2" class="edge">
<title>Node2&#45;&gt;Node3</title>
<path fill="none" stroke="midnightblue" d="M116.87,-60.83C101.91,-65.92 84.99,-71.69 71.13,-76.41"/>
<polygon fill="midnightblue" stroke="midnightblue" points="118.03,-64.13 126.36,-57.59 115.77,-57.5 118.03,-64.13"/>
</g>
<!-- Node4 -->
<g id="node4" class="node">
<title>Node4</title>
<g id="a_node4"><a xlink:href="classDate.html#a8d61659598ea0751255bb23274852ec3" target="_top" xlink:title=" ">
<polygon fill="white" stroke="black" points="13.5,-38.5 13.5,-57.5 70.5,-57.5 70.5,-38.5 13.5,-38.5"/>
<text text-anchor="middle" x="42" y="-45.5" font-family="Helvetica,sans-Serif" font-size="10.00">Date::set</text>
</a>
</g>
</g>
<!-- Node2&#45;&gt;Node4 -->
<g id="edge3" class="edge">
<title>Node2&#45;&gt;Node4</title>
<path fill="none" stroke="midnightblue" d="M109.5,-48C96.33,-48 82.32,-48 70.57,-48"/>
<polygon fill="midnightblue" stroke="midnightblue" points="109.83,-51.5 119.83,-48 109.83,-44.5 109.83,-51.5"/>
</g>
<!-- Node5 -->
<g id="node5" class="node">
<title>Node5</title>
<g id="a_node5"><a xlink:href="classDate.html#aec519600b09c8957031753c63085562c" target="_top" xlink:title=" ">
<polygon fill="white" stroke="black" points="0,-0.5 0,-19.5 84,-19.5 84,-0.5 0,-0.5"/>
<text text-anchor="middle" x="42" y="-7.5" font-family="Helvetica,sans-Serif" font-size="10.00">Date::setMonth</text>
</a>
</g>
</g>
<!-- Node2&#45;&gt;Node5 -->
<g id="edge4" class="edge">
<title>Node2&#45;&gt;Node5</title>
<path fill="none" stroke="midnightblue" d="M116.87,-35.17C101.91,-30.08 84.99,-24.31 71.13,-19.59"/>
<polygon fill="midnightblue" stroke="midnightblue" points="115.77,-38.5 126.36,-38.41 118.03,-31.87 115.77,-38.5"/>
</g>
</g>
</svg>
