<?xml version="1.0" encoding="UTF-8" standalone="no"?>
<!DOCTYPE svg PUBLIC "-//W3C//DTD SVG 1.1//EN"
 "http://www.w3.org/Graphics/SVG/1.1/DTD/svg11.dtd">
<!-- Generated by graphviz version 2.47.1 (20210417.1919)
 -->
<!-- Title: milliseconds Pages: 1 -->
<svg width="204pt" height="256pt"
 viewBox="0.00 0.00 204.00 256.00" xmlns="http://www.w3.org/2000/svg" xmlns:xlink="http://www.w3.org/1999/xlink">
<g id="graph0" class="graph" transform="scale(1 1) rotate(0) translate(4 252)">
<title>milliseconds</title>
<polygon fill="white" stroke="transparent" points="-4,4 -4,-252 200,-252 200,4 -4,4"/>
<!-- Node1 -->
<g id="node1" class="node">
<title>Node1</title>
<g id="a_node1"><a xlink:title=" ">
<polygon fill="#bfbfbf" stroke="black" points="0,-114.5 0,-133.5 71,-133.5 71,-114.5 0,-114.5"/>
<text text-anchor="middle" x="35.5" y="-121.5" font-family="Helvetica,sans-Serif" font-size="10.00">milliseconds</text>
</a>
</g>
</g>
<!-- Node2 -->
<g id="node2" class="node">
<title>Node2</title>
<g id="a_node2"><a xlink:href="structs__datetime.html#a5a496ea2e6017fd4b43081f4317f96ce" target="_top" xlink:title=" ">
<polygon fill="white" stroke="black" points="135.5,-228.5 135.5,-247.5 167.5,-247.5 167.5,-228.5 135.5,-228.5"/>
<text text-anchor="middle" x="151.5" y="-235.5" font-family="Helvetica,sans-Serif" font-size="10.00">day</text>
</a>
</g>
</g>
<!-- Node1&#45;&gt;Node2 -->
<g id="edge1" class="edge">
<title>Node1&#45;&gt;Node2</title>
<path fill="none" stroke="midnightblue" d="M41.42,-133.65C51.41,-152.43 75.82,-194.19 107,-219 112.5,-223.38 119.17,-226.95 125.61,-229.76"/>
<polygon fill="midnightblue" stroke="midnightblue" points="124.76,-233.19 135.35,-233.57 127.31,-226.67 124.76,-233.19"/>
</g>
<!-- Node3 -->
<g id="node3" class="node">
<title>Node3</title>
<g id="a_node3"><a xlink:href="structs__datetime.html#a110d566ff7f9edf7cbfe15355f8c637c" target="_top" xlink:title=" ">
<polygon fill="white" stroke="black" points="134,-190.5 134,-209.5 169,-209.5 169,-190.5 134,-190.5"/>
<text text-anchor="middle" x="151.5" y="-197.5" font-family="Helvetica,sans-Serif" font-size="10.00">hour</text>
</a>
</g>
</g>
<!-- Node1&#45;&gt;Node3 -->
<g id="edge2" class="edge">
<title>Node1&#45;&gt;Node3</title>
<path fill="none" stroke="midnightblue" d="M46.82,-133.84C59.99,-146.05 83.86,-166.95 107,-181 112.41,-184.29 118.5,-187.32 124.36,-189.94"/>
<polygon fill="midnightblue" stroke="midnightblue" points="123.3,-193.29 133.87,-193.96 126.02,-186.84 123.3,-193.29"/>
</g>
<!-- Node4 -->
<g id="node4" class="node">
<title>Node4</title>
<g id="a_node4"><a xlink:href="structs__datetime.html#ae91256ab81b246d3f40eddbd4c016f5f" target="_top" xlink:title=" ">
<polygon fill="white" stroke="black" points="128.5,-152.5 128.5,-171.5 174.5,-171.5 174.5,-152.5 128.5,-152.5"/>
<text text-anchor="middle" x="151.5" y="-159.5" font-family="Helvetica,sans-Serif" font-size="10.00">minute</text>
</a>
</g>
</g>
<!-- Node1&#45;&gt;Node4 -->
<g id="edge3" class="edge">
<title>Node1&#45;&gt;Node4</title>
<path fill="none" stroke="midnightblue" d="M65.27,-133.59C81.44,-138.98 101.66,-145.72 118.35,-151.28"/>
<polygon fill="midnightblue" stroke="midnightblue" points="117.62,-154.73 128.22,-154.57 119.84,-148.09 117.62,-154.73"/>
</g>
<!-- Node5 -->
<g id="node5" class="node">
<title>Node5</title>
<g id="a_node5"><a xlink:href="structs__datetime.html#a1d85d7b09eedec3fb734532c164f2f27" target="_top" xlink:title=" ">
<polygon fill="white" stroke="black" points="129.5,-114.5 129.5,-133.5 173.5,-133.5 173.5,-114.5 129.5,-114.5"/>
<text text-anchor="middle" x="151.5" y="-121.5" font-family="Helvetica,sans-Serif" font-size="10.00">month</text>
</a>
</g>
</g>
<!-- Node1&#45;&gt;Node5 -->
<g id="edge4" class="edge">
<title>Node1&#45;&gt;Node5</title>
<path fill="none" stroke="midnightblue" d="M71.01,-124C86.31,-124 104.17,-124 119.09,-124"/>
<polygon fill="midnightblue" stroke="midnightblue" points="119.35,-127.5 129.35,-124 119.35,-120.5 119.35,-127.5"/>
</g>
<!-- Node6 -->
<g id="node6" class="node">
<title>Node6</title>
<g id="a_node6"><a xlink:href="structs__datetime.html#aa0cba22e21d8081f564e6a68edab1ae0" target="_top" xlink:title=" ">
<polygon fill="white" stroke="black" points="127.5,-76.5 127.5,-95.5 175.5,-95.5 175.5,-76.5 127.5,-76.5"/>
<text text-anchor="middle" x="151.5" y="-83.5" font-family="Helvetica,sans-Serif" font-size="10.00">second</text>
</a>
</g>
</g>
<!-- Node1&#45;&gt;Node6 -->
<g id="edge5" class="edge">
<title>Node1&#45;&gt;Node6</title>
<path fill="none" stroke="midnightblue" d="M65.27,-114.41C81.22,-109.09 101.11,-102.46 117.67,-96.94"/>
<polygon fill="midnightblue" stroke="midnightblue" points="119.1,-100.16 127.48,-93.67 116.89,-93.51 119.1,-100.16"/>
</g>
<!-- Node7 -->
<g id="node7" class="node">
<title>Node7</title>
<g id="a_node7"><a xlink:href="classDate.html#aa1dec3e6a706a77691a3c49a0fe82e3d" target="_top" xlink:title=" ">
<polygon fill="white" stroke="black" points="107,-38.5 107,-57.5 196,-57.5 196,-38.5 107,-38.5"/>
<text text-anchor="middle" x="151.5" y="-45.5" font-family="Helvetica,sans-Serif" font-size="10.00">Date::time_point</text>
</a>
</g>
</g>
<!-- Node1&#45;&gt;Node7 -->
<g id="edge6" class="edge">
<title>Node1&#45;&gt;Node7</title>
<path fill="none" stroke="midnightblue" d="M46.82,-114.16C59.99,-101.95 83.86,-81.05 107,-67 109.98,-65.19 113.16,-63.46 116.39,-61.83"/>
<polygon fill="midnightblue" stroke="midnightblue" points="117.97,-64.96 125.53,-57.54 115,-58.62 117.97,-64.96"/>
</g>
<!-- Node8 -->
<g id="node8" class="node">
<title>Node8</title>
<g id="a_node8"><a xlink:href="structs__datetime.html#a1b5cb174b9b809888ca1cadfb32791f4" target="_top" xlink:title=" ">
<polygon fill="white" stroke="black" points="134,-0.5 134,-19.5 169,-19.5 169,-0.5 134,-0.5"/>
<text text-anchor="middle" x="151.5" y="-7.5" font-family="Helvetica,sans-Serif" font-size="10.00">year</text>
</a>
</g>
</g>
<!-- Node1&#45;&gt;Node8 -->
<g id="edge7" class="edge">
<title>Node1&#45;&gt;Node8</title>
<path fill="none" stroke="midnightblue" d="M41.42,-114.35C51.41,-95.57 75.82,-53.81 107,-29 112.04,-24.99 118.06,-21.66 123.99,-18.96"/>
<polygon fill="midnightblue" stroke="midnightblue" points="125.74,-22.03 133.69,-15.02 123.11,-15.54 125.74,-22.03"/>
</g>
</g>
</svg>
