<?xml version="1.0" encoding="UTF-8" standalone="no"?>
<!DOCTYPE svg PUBLIC "-//W3C//DTD SVG 1.1//EN"
 "http://www.w3.org/Graphics/SVG/1.1/DTD/svg11.dtd">
<!-- Generated by graphviz version 2.47.1 (20210417.1919)
 -->
<!-- Title: month Pages: 1 -->
<svg width="423pt" height="294pt"
 viewBox="0.00 0.00 423.00 294.00" xmlns="http://www.w3.org/2000/svg" xmlns:xlink="http://www.w3.org/1999/xlink">
<g id="graph0" class="graph" transform="scale(1 1) rotate(0) translate(4 290)">
<title>month</title>
<polygon fill="white" stroke="transparent" points="-4,4 -4,-290 419,-290 419,4 -4,4"/>
<!-- Node1 -->
<g id="node1" class="node">
<title>Node1</title>
<g id="a_node1"><a xlink:title=" ">
<polygon fill="#bfbfbf" stroke="black" points="371,-133.5 371,-152.5 415,-152.5 415,-133.5 371,-133.5"/>
<text text-anchor="middle" x="393" y="-140.5" font-family="Helvetica,sans-Serif" font-size="10.00">month</text>
</a>
</g>
</g>
<!-- Node2 -->
<g id="node2" class="node">
<title>Node2</title>
<g id="a_node2"><a xlink:href="classDate.html#a4bd7d118a675fff08c408914eaef02ac" target="_top" xlink:title=" ">
<polygon fill="white" stroke="black" points="118.5,-266.5 118.5,-285.5 175.5,-285.5 175.5,-266.5 118.5,-266.5"/>
<text text-anchor="middle" x="147" y="-273.5" font-family="Helvetica,sans-Serif" font-size="10.00">Date::get</text>
</a>
</g>
</g>
<!-- Node1&#45;&gt;Node2 -->
<g id="edge1" class="edge">
<title>Node1&#45;&gt;Node2</title>
<path fill="none" stroke="midnightblue" d="M388.25,-162.62C382.1,-188.9 367.19,-234.78 335,-257 286.93,-290.18 214.66,-286.25 175.53,-280.88"/>
<polygon fill="midnightblue" stroke="midnightblue" points="391.7,-163.2 390.37,-152.69 384.86,-161.74 391.7,-163.2"/>
</g>
<!-- Node4 -->
<g id="node4" class="node">
<title>Node4</title>
<g id="a_node4"><a xlink:href="structs__datetime.html#a32205231a1a2e9f16cd9866d06c90b22" target="_top" xlink:title=" ">
<polygon fill="white" stroke="black" points="246.5,-228.5 246.5,-247.5 317.5,-247.5 317.5,-228.5 246.5,-228.5"/>
<text text-anchor="middle" x="282" y="-235.5" font-family="Helvetica,sans-Serif" font-size="10.00">milliseconds</text>
</a>
</g>
</g>
<!-- Node1&#45;&gt;Node4 -->
<g id="edge3" class="edge">
<title>Node1&#45;&gt;Node4</title>
<path fill="none" stroke="midnightblue" d="M382.22,-161.6C372.37,-178.69 355.7,-203.63 335,-219 329.83,-222.84 323.8,-225.97 317.73,-228.5"/>
<polygon fill="midnightblue" stroke="midnightblue" points="385.43,-163.02 387.21,-152.58 379.3,-159.64 385.43,-163.02"/>
</g>
<!-- Node8 -->
<g id="node8" class="node">
<title>Node8</title>
<g id="a_node8"><a xlink:href="classDate.html#a45cfdbe97b09b42fa47714cd9610350b" target="_top" xlink:title=" ">
<polygon fill="white" stroke="black" points="244.5,-190.5 244.5,-209.5 319.5,-209.5 319.5,-190.5 244.5,-190.5"/>
<text text-anchor="middle" x="282" y="-197.5" font-family="Helvetica,sans-Serif" font-size="10.00">Date::setDay</text>
</a>
</g>
</g>
<!-- Node1&#45;&gt;Node8 -->
<g id="edge8" class="edge">
<title>Node1&#45;&gt;Node8</title>
<path fill="none" stroke="midnightblue" d="M371.28,-158.55C360.77,-165.98 347.6,-174.61 335,-181 328.06,-184.52 320.3,-187.71 312.94,-190.44"/>
<polygon fill="midnightblue" stroke="midnightblue" points="373.35,-161.37 379.41,-152.67 369.25,-155.7 373.35,-161.37"/>
</g>
<!-- Node9 -->
<g id="node9" class="node">
<title>Node9</title>
<g id="a_node9"><a xlink:href="classDate.html#a738a67855699ffa60e5c54e0eccddd35" target="_top" xlink:title=" ">
<polygon fill="white" stroke="black" points="243,-152.5 243,-171.5 321,-171.5 321,-152.5 243,-152.5"/>
<text text-anchor="middle" x="282" y="-159.5" font-family="Helvetica,sans-Serif" font-size="10.00">Date::setHour</text>
</a>
</g>
</g>
<!-- Node1&#45;&gt;Node9 -->
<g id="edge9" class="edge">
<title>Node1&#45;&gt;Node9</title>
<path fill="none" stroke="midnightblue" d="M361.1,-148.39C348.68,-150.55 334.23,-153.07 321.16,-155.35"/>
<polygon fill="midnightblue" stroke="midnightblue" points="361.73,-151.83 370.98,-146.66 360.53,-144.93 361.73,-151.83"/>
</g>
<!-- Node10 -->
<g id="node10" class="node">
<title>Node10</title>
<g id="a_node10"><a xlink:href="classDate.html#a9d65d72b12c17c5f20fb7ed85d8a1de7" target="_top" xlink:title=" ">
<polygon fill="white" stroke="black" points="229,-114.5 229,-133.5 335,-133.5 335,-114.5 229,-114.5"/>
<text text-anchor="middle" x="282" y="-121.5" font-family="Helvetica,sans-Serif" font-size="10.00">Date::setMillisecond</text>
</a>
</g>
</g>
<!-- Node1&#45;&gt;Node10 -->
<g id="edge10" class="edge">
<title>Node1&#45;&gt;Node10</title>
<path fill="none" stroke="midnightblue" d="M360.95,-137.59C352.89,-136.18 343.99,-134.63 335.17,-133.09"/>
<polygon fill="midnightblue" stroke="midnightblue" points="360.53,-141.07 370.98,-139.34 361.73,-134.17 360.53,-141.07"/>
</g>
<!-- Node11 -->
<g id="node11" class="node">
<title>Node11</title>
<g id="a_node11"><a xlink:href="classDate.html#a170c5247eafdaeab0aa0e99b55dc5610" target="_top" xlink:title=" ">
<polygon fill="white" stroke="black" points="239,-76.5 239,-95.5 325,-95.5 325,-76.5 239,-76.5"/>
<text text-anchor="middle" x="282" y="-83.5" font-family="Helvetica,sans-Serif" font-size="10.00">Date::setMinute</text>
</a>
</g>
</g>
<!-- Node1&#45;&gt;Node11 -->
<g id="edge11" class="edge">
<title>Node1&#45;&gt;Node11</title>
<path fill="none" stroke="midnightblue" d="M371.28,-127.45C360.77,-120.02 347.6,-111.39 335,-105 328.06,-101.48 320.3,-98.29 312.94,-95.56"/>
<polygon fill="midnightblue" stroke="midnightblue" points="369.25,-130.3 379.41,-133.33 373.35,-124.63 369.25,-130.3"/>
</g>
<!-- Node12 -->
<g id="node12" class="node">
<title>Node12</title>
<g id="a_node12"><a xlink:href="classDate.html#a9b161ba26e10475d04e8030837e67e7f" target="_top" xlink:title=" ">
<polygon fill="white" stroke="black" points="237,-38.5 237,-57.5 327,-57.5 327,-38.5 237,-38.5"/>
<text text-anchor="middle" x="282" y="-45.5" font-family="Helvetica,sans-Serif" font-size="10.00">Date::setSecond</text>
</a>
</g>
</g>
<!-- Node1&#45;&gt;Node12 -->
<g id="edge12" class="edge">
<title>Node1&#45;&gt;Node12</title>
<path fill="none" stroke="midnightblue" d="M382.22,-124.4C372.37,-107.31 355.7,-82.37 335,-67 329.91,-63.22 323.98,-60.12 318,-57.61"/>
<polygon fill="midnightblue" stroke="midnightblue" points="379.3,-126.36 387.21,-133.42 385.43,-122.98 379.3,-126.36"/>
</g>
<!-- Node13 -->
<g id="node13" class="node">
<title>Node13</title>
<g id="a_node13"><a xlink:href="classDate.html#a2268b24626953c1eac1d5b18db74cc4b" target="_top" xlink:title=" ">
<polygon fill="white" stroke="black" points="243.5,-0.5 243.5,-19.5 320.5,-19.5 320.5,-0.5 243.5,-0.5"/>
<text text-anchor="middle" x="282" y="-7.5" font-family="Helvetica,sans-Serif" font-size="10.00">Date::setYear</text>
</a>
</g>
</g>
<!-- Node1&#45;&gt;Node13 -->
<g id="edge13" class="edge">
<title>Node1&#45;&gt;Node13</title>
<path fill="none" stroke="midnightblue" d="M387.07,-123.39C379.77,-98.2 363.76,-54.67 335,-29 330.7,-25.16 325.56,-22.08 320.2,-19.6"/>
<polygon fill="midnightblue" stroke="midnightblue" points="383.75,-124.52 389.75,-133.25 390.51,-122.68 383.75,-124.52"/>
</g>
<!-- Node3 -->
<g id="node3" class="node">
<title>Node3</title>
<g id="a_node3"><a xlink:href="classDate.html#ad4266ef239a3aec124099a2a29f671d8" target="_top" xlink:title=" ">
<polygon fill="white" stroke="black" points="0,-266.5 0,-285.5 65,-285.5 65,-266.5 0,-266.5"/>
<text text-anchor="middle" x="32.5" y="-273.5" font-family="Helvetica,sans-Serif" font-size="10.00">Date::Date</text>
</a>
</g>
</g>
<!-- Node2&#45;&gt;Node3 -->
<g id="edge2" class="edge">
<title>Node2&#45;&gt;Node3</title>
<path fill="none" stroke="midnightblue" d="M108.18,-276C94.19,-276 78.49,-276 65.11,-276"/>
<polygon fill="midnightblue" stroke="midnightblue" points="108.48,-279.5 118.48,-276 108.48,-272.5 108.48,-279.5"/>
</g>
<!-- Node4&#45;&gt;Node2 -->
<g id="edge4" class="edge">
<title>Node4&#45;&gt;Node2</title>
<path fill="none" stroke="midnightblue" d="M237.74,-250.36C217.36,-256.18 193.65,-262.96 175.72,-268.08"/>
<polygon fill="midnightblue" stroke="midnightblue" points="238.78,-253.7 247.44,-247.59 236.86,-246.97 238.78,-253.7"/>
</g>
<!-- Node5 -->
<g id="node5" class="node">
<title>Node5</title>
<g id="a_node5"><a xlink:href="classDate.html#aa55b19dce110414fe48e4e7d60d8cd79" target="_top" xlink:title=" ">
<polygon fill="white" stroke="black" points="101,-228.5 101,-247.5 193,-247.5 193,-228.5 101,-228.5"/>
<text text-anchor="middle" x="147" y="-235.5" font-family="Helvetica,sans-Serif" font-size="10.00">Date::millisecond</text>
</a>
</g>
</g>
<!-- Node4&#45;&gt;Node5 -->
<g id="edge5" class="edge">
<title>Node4&#45;&gt;Node5</title>
<path fill="none" stroke="midnightblue" d="M236.19,-238C222.42,-238 207.26,-238 193.45,-238"/>
<polygon fill="midnightblue" stroke="midnightblue" points="236.4,-241.5 246.4,-238 236.4,-234.5 236.4,-241.5"/>
</g>
<!-- Node6 -->
<g id="node6" class="node">
<title>Node6</title>
<g id="a_node6"><a xlink:href="classDate.html#a47ce47ac7778de3dce27a562e584fef3" target="_top" xlink:title=" ">
<polygon fill="white" stroke="black" points="0,-228.5 0,-247.5 65,-247.5 65,-228.5 0,-228.5"/>
<text text-anchor="middle" x="32.5" y="-235.5" font-family="Helvetica,sans-Serif" font-size="10.00">Date::Date</text>
</a>
</g>
</g>
<!-- Node5&#45;&gt;Node6 -->
<g id="edge6" class="edge">
<title>Node5&#45;&gt;Node6</title>
<path fill="none" stroke="midnightblue" d="M90.67,-238C81.9,-238 73.11,-238 65.13,-238"/>
<polygon fill="midnightblue" stroke="midnightblue" points="90.89,-241.5 100.89,-238 90.89,-234.5 90.89,-241.5"/>
</g>
<!-- Node7 -->
<g id="node7" class="node">
<title>Node7</title>
<g id="a_node7"><a xlink:href="classDate.html#a8d61659598ea0751255bb23274852ec3" target="_top" xlink:title=" ">
<polygon fill="white" stroke="black" points="4,-190.5 4,-209.5 61,-209.5 61,-190.5 4,-190.5"/>
<text text-anchor="middle" x="32.5" y="-197.5" font-family="Helvetica,sans-Serif" font-size="10.00">Date::set</text>
</a>
</g>
</g>
<!-- Node5&#45;&gt;Node7 -->
<g id="edge7" class="edge">
<title>Node5&#45;&gt;Node7</title>
<path fill="none" stroke="midnightblue" d="M107.88,-225.12C92.54,-219.94 75.19,-214.08 61.1,-209.32"/>
<polygon fill="midnightblue" stroke="midnightblue" points="107.02,-228.53 117.61,-228.41 109.26,-221.89 107.02,-228.53"/>
</g>
</g>
</svg>
