<?xml version="1.0" encoding="UTF-8" standalone="no"?>
<!DOCTYPE svg PUBLIC "-//W3C//DTD SVG 1.1//EN"
 "http://www.w3.org/Graphics/SVG/1.1/DTD/svg11.dtd">
<!-- Generated by graphviz version 2.47.1 (20210417.1919)
 -->
<!-- Title: minute Pages: 1 -->
<svg width="446pt" height="332pt"
 viewBox="0.00 0.00 446.00 332.00" xmlns="http://www.w3.org/2000/svg" xmlns:xlink="http://www.w3.org/1999/xlink">
<g id="graph0" class="graph" transform="scale(1 1) rotate(0) translate(4 328)">
<title>minute</title>
<polygon fill="white" stroke="transparent" points="-4,4 -4,-328 442,-328 442,4 -4,4"/>
<!-- Node1 -->
<g id="node1" class="node">
<title>Node1</title>
<g id="a_node1"><a xlink:title=" ">
<polygon fill="#bfbfbf" stroke="black" points="392,-152.5 392,-171.5 438,-171.5 438,-152.5 392,-152.5"/>
<text text-anchor="middle" x="415" y="-159.5" font-family="Helvetica,sans-Serif" font-size="10.00">minute</text>
</a>
</g>
</g>
<!-- Node2 -->
<g id="node2" class="node">
<title>Node2</title>
<g id="a_node2"><a xlink:href="classDate.html#a4bd7d118a675fff08c408914eaef02ac" target="_top" xlink:title=" ">
<polygon fill="white" stroke="black" points="139.5,-304.5 139.5,-323.5 196.5,-323.5 196.5,-304.5 139.5,-304.5"/>
<text text-anchor="middle" x="168" y="-311.5" font-family="Helvetica,sans-Serif" font-size="10.00">Date::get</text>
</a>
</g>
</g>
<!-- Node1&#45;&gt;Node2 -->
<g id="edge1" class="edge">
<title>Node1&#45;&gt;Node2</title>
<path fill="none" stroke="midnightblue" d="M411.6,-181.81C406.82,-211.75 393.17,-267.88 356,-295 308.82,-329.43 236.19,-325 196.77,-319.22"/>
<polygon fill="midnightblue" stroke="midnightblue" points="415.09,-182.13 413.02,-171.74 408.16,-181.15 415.09,-182.13"/>
</g>
<!-- Node4 -->
<g id="node4" class="node">
<title>Node4</title>
<g id="a_node4"><a xlink:href="structs__datetime.html#a32205231a1a2e9f16cd9866d06c90b22" target="_top" xlink:title=" ">
<polygon fill="white" stroke="black" points="267.5,-266.5 267.5,-285.5 338.5,-285.5 338.5,-266.5 267.5,-266.5"/>
<text text-anchor="middle" x="303" y="-273.5" font-family="Helvetica,sans-Serif" font-size="10.00">milliseconds</text>
</a>
</g>
</g>
<!-- Node1&#45;&gt;Node4 -->
<g id="edge3" class="edge">
<title>Node1&#45;&gt;Node4</title>
<path fill="none" stroke="midnightblue" d="M405.74,-180.95C396.24,-200.88 378.94,-232.07 356,-252 349.1,-258 340.44,-262.79 332.18,-266.46"/>
<polygon fill="midnightblue" stroke="midnightblue" points="409.01,-182.22 409.99,-171.67 402.64,-179.31 409.01,-182.22"/>
</g>
<!-- Node8 -->
<g id="node8" class="node">
<title>Node8</title>
<g id="a_node8"><a xlink:href="classDate.html#abf8dbbfc49f4fa14c1caee03c29125f1" target="_top" xlink:title=" ">
<polygon fill="white" stroke="black" points="131.5,-228.5 131.5,-247.5 204.5,-247.5 204.5,-228.5 131.5,-228.5"/>
<text text-anchor="middle" x="168" y="-235.5" font-family="Helvetica,sans-Serif" font-size="10.00">Date::minute</text>
</a>
</g>
</g>
<!-- Node1&#45;&gt;Node8 -->
<g id="edge8" class="edge">
<title>Node1&#45;&gt;Node8</title>
<path fill="none" stroke="midnightblue" d="M401.41,-179.67C390.9,-192.93 374.66,-210.24 356,-219 307.26,-241.88 243.67,-243.16 204.61,-241.18"/>
<polygon fill="midnightblue" stroke="midnightblue" points="404.22,-181.76 407.46,-171.68 398.64,-177.54 404.22,-181.76"/>
</g>
<!-- Node10 -->
<g id="node10" class="node">
<title>Node10</title>
<g id="a_node10"><a xlink:href="classDate.html#a45cfdbe97b09b42fa47714cd9610350b" target="_top" xlink:title=" ">
<polygon fill="white" stroke="black" points="265.5,-190.5 265.5,-209.5 340.5,-209.5 340.5,-190.5 265.5,-190.5"/>
<text text-anchor="middle" x="303" y="-197.5" font-family="Helvetica,sans-Serif" font-size="10.00">Date::setDay</text>
</a>
</g>
</g>
<!-- Node1&#45;&gt;Node10 -->
<g id="edge12" class="edge">
<title>Node1&#45;&gt;Node10</title>
<path fill="none" stroke="midnightblue" d="M382.26,-172.96C366.28,-178.49 347.08,-185.12 331.7,-190.43"/>
<polygon fill="midnightblue" stroke="midnightblue" points="383.43,-176.26 391.74,-169.69 381.15,-169.65 383.43,-176.26"/>
</g>
<!-- Node11 -->
<g id="node11" class="node">
<title>Node11</title>
<g id="a_node11"><a xlink:href="classDate.html#a738a67855699ffa60e5c54e0eccddd35" target="_top" xlink:title=" ">
<polygon fill="white" stroke="black" points="264,-152.5 264,-171.5 342,-171.5 342,-152.5 264,-152.5"/>
<text text-anchor="middle" x="303" y="-159.5" font-family="Helvetica,sans-Serif" font-size="10.00">Date::setHour</text>
</a>
</g>
</g>
<!-- Node1&#45;&gt;Node11 -->
<g id="edge13" class="edge">
<title>Node1&#45;&gt;Node11</title>
<path fill="none" stroke="midnightblue" d="M381.47,-162C369.17,-162 355.05,-162 342.27,-162"/>
<polygon fill="midnightblue" stroke="midnightblue" points="381.74,-165.5 391.74,-162 381.74,-158.5 381.74,-165.5"/>
</g>
<!-- Node12 -->
<g id="node12" class="node">
<title>Node12</title>
<g id="a_node12"><a xlink:href="classDate.html#a9d65d72b12c17c5f20fb7ed85d8a1de7" target="_top" xlink:title=" ">
<polygon fill="white" stroke="black" points="250,-114.5 250,-133.5 356,-133.5 356,-114.5 250,-114.5"/>
<text text-anchor="middle" x="303" y="-121.5" font-family="Helvetica,sans-Serif" font-size="10.00">Date::setMillisecond</text>
</a>
</g>
</g>
<!-- Node1&#45;&gt;Node12 -->
<g id="edge14" class="edge">
<title>Node1&#45;&gt;Node12</title>
<path fill="none" stroke="midnightblue" d="M382.26,-151.04C366.28,-145.51 347.08,-138.88 331.7,-133.57"/>
<polygon fill="midnightblue" stroke="midnightblue" points="381.15,-154.35 391.74,-154.31 383.43,-147.74 381.15,-154.35"/>
</g>
<!-- Node13 -->
<g id="node13" class="node">
<title>Node13</title>
<g id="a_node13"><a xlink:href="classDate.html#aec519600b09c8957031753c63085562c" target="_top" xlink:title=" ">
<polygon fill="white" stroke="black" points="261,-76.5 261,-95.5 345,-95.5 345,-76.5 261,-76.5"/>
<text text-anchor="middle" x="303" y="-83.5" font-family="Helvetica,sans-Serif" font-size="10.00">Date::setMonth</text>
</a>
</g>
</g>
<!-- Node1&#45;&gt;Node13 -->
<g id="edge15" class="edge">
<title>Node1&#45;&gt;Node13</title>
<path fill="none" stroke="midnightblue" d="M399.68,-144.36C388.8,-131.93 372.87,-115.66 356,-105 350.07,-101.25 343.29,-98.1 336.63,-95.5"/>
<polygon fill="midnightblue" stroke="midnightblue" points="397.22,-146.87 406.35,-152.24 402.56,-142.35 397.22,-146.87"/>
</g>
<!-- Node14 -->
<g id="node14" class="node">
<title>Node14</title>
<g id="a_node14"><a xlink:href="classDate.html#a9b161ba26e10475d04e8030837e67e7f" target="_top" xlink:title=" ">
<polygon fill="white" stroke="black" points="258,-38.5 258,-57.5 348,-57.5 348,-38.5 258,-38.5"/>
<text text-anchor="middle" x="303" y="-45.5" font-family="Helvetica,sans-Serif" font-size="10.00">Date::setSecond</text>
</a>
</g>
</g>
<!-- Node1&#45;&gt;Node14 -->
<g id="edge16" class="edge">
<title>Node1&#45;&gt;Node14</title>
<path fill="none" stroke="midnightblue" d="M406.87,-142.88C398,-121.57 380.93,-87.43 356,-67 351.32,-63.16 345.79,-60.06 340.12,-57.57"/>
<polygon fill="midnightblue" stroke="midnightblue" points="403.72,-144.45 410.65,-152.46 410.23,-141.87 403.72,-144.45"/>
</g>
<!-- Node15 -->
<g id="node15" class="node">
<title>Node15</title>
<g id="a_node15"><a xlink:href="classDate.html#a2268b24626953c1eac1d5b18db74cc4b" target="_top" xlink:title=" ">
<polygon fill="white" stroke="black" points="264.5,-0.5 264.5,-19.5 341.5,-19.5 341.5,-0.5 264.5,-0.5"/>
<text text-anchor="middle" x="303" y="-7.5" font-family="Helvetica,sans-Serif" font-size="10.00">Date::setYear</text>
</a>
</g>
</g>
<!-- Node1&#45;&gt;Node15 -->
<g id="edge17" class="edge">
<title>Node1&#45;&gt;Node15</title>
<path fill="none" stroke="midnightblue" d="M410.53,-142.48C404.45,-113.78 389.2,-60.24 356,-29 351.87,-25.11 346.88,-22.01 341.65,-19.53"/>
<polygon fill="midnightblue" stroke="midnightblue" points="407.13,-143.34 412.49,-152.48 414,-141.99 407.13,-143.34"/>
</g>
<!-- Node3 -->
<g id="node3" class="node">
<title>Node3</title>
<g id="a_node3"><a xlink:href="classDate.html#ad4266ef239a3aec124099a2a29f671d8" target="_top" xlink:title=" ">
<polygon fill="white" stroke="black" points="10.5,-304.5 10.5,-323.5 75.5,-323.5 75.5,-304.5 10.5,-304.5"/>
<text text-anchor="middle" x="43" y="-311.5" font-family="Helvetica,sans-Serif" font-size="10.00">Date::Date</text>
</a>
</g>
</g>
<!-- Node2&#45;&gt;Node3 -->
<g id="edge2" class="edge">
<title>Node2&#45;&gt;Node3</title>
<path fill="none" stroke="midnightblue" d="M129.19,-314C112.12,-314 92.16,-314 75.86,-314"/>
<polygon fill="midnightblue" stroke="midnightblue" points="129.4,-317.5 139.4,-314 129.4,-310.5 129.4,-317.5"/>
</g>
<!-- Node4&#45;&gt;Node2 -->
<g id="edge4" class="edge">
<title>Node4&#45;&gt;Node2</title>
<path fill="none" stroke="midnightblue" d="M258.74,-288.36C238.36,-294.18 214.65,-300.96 196.72,-306.08"/>
<polygon fill="midnightblue" stroke="midnightblue" points="259.78,-291.7 268.44,-285.59 257.86,-284.97 259.78,-291.7"/>
</g>
<!-- Node5 -->
<g id="node5" class="node">
<title>Node5</title>
<g id="a_node5"><a xlink:href="classDate.html#aa55b19dce110414fe48e4e7d60d8cd79" target="_top" xlink:title=" ">
<polygon fill="white" stroke="black" points="122,-266.5 122,-285.5 214,-285.5 214,-266.5 122,-266.5"/>
<text text-anchor="middle" x="168" y="-273.5" font-family="Helvetica,sans-Serif" font-size="10.00">Date::millisecond</text>
</a>
</g>
</g>
<!-- Node4&#45;&gt;Node5 -->
<g id="edge5" class="edge">
<title>Node4&#45;&gt;Node5</title>
<path fill="none" stroke="midnightblue" d="M257.19,-276C243.42,-276 228.26,-276 214.45,-276"/>
<polygon fill="midnightblue" stroke="midnightblue" points="257.4,-279.5 267.4,-276 257.4,-272.5 257.4,-279.5"/>
</g>
<!-- Node6 -->
<g id="node6" class="node">
<title>Node6</title>
<g id="a_node6"><a xlink:href="classDate.html#a47ce47ac7778de3dce27a562e584fef3" target="_top" xlink:title=" ">
<polygon fill="white" stroke="black" points="10.5,-266.5 10.5,-285.5 75.5,-285.5 75.5,-266.5 10.5,-266.5"/>
<text text-anchor="middle" x="43" y="-273.5" font-family="Helvetica,sans-Serif" font-size="10.00">Date::Date</text>
</a>
</g>
</g>
<!-- Node5&#45;&gt;Node6 -->
<g id="edge6" class="edge">
<title>Node5&#45;&gt;Node6</title>
<path fill="none" stroke="midnightblue" d="M111.65,-276C99.31,-276 86.63,-276 75.64,-276"/>
<polygon fill="midnightblue" stroke="midnightblue" points="111.9,-279.5 121.9,-276 111.9,-272.5 111.9,-279.5"/>
</g>
<!-- Node7 -->
<g id="node7" class="node">
<title>Node7</title>
<g id="a_node7"><a xlink:href="classDate.html#a8d61659598ea0751255bb23274852ec3" target="_top" xlink:title=" ">
<polygon fill="white" stroke="black" points="14.5,-228.5 14.5,-247.5 71.5,-247.5 71.5,-228.5 14.5,-228.5"/>
<text text-anchor="middle" x="43" y="-235.5" font-family="Helvetica,sans-Serif" font-size="10.00">Date::set</text>
</a>
</g>
</g>
<!-- Node5&#45;&gt;Node7 -->
<g id="edge7" class="edge">
<title>Node5&#45;&gt;Node7</title>
<path fill="none" stroke="midnightblue" d="M126.32,-263.43C108.39,-257.89 87.78,-251.53 71.67,-246.55"/>
<polygon fill="midnightblue" stroke="midnightblue" points="125.37,-266.8 135.96,-266.41 127.44,-260.12 125.37,-266.8"/>
</g>
<!-- Node8&#45;&gt;Node6 -->
<g id="edge9" class="edge">
<title>Node8&#45;&gt;Node6</title>
<path fill="none" stroke="midnightblue" d="M125.96,-250.68C109.34,-255.81 90.47,-261.64 75.03,-266.41"/>
<polygon fill="midnightblue" stroke="midnightblue" points="127.44,-253.88 135.96,-247.59 125.37,-247.2 127.44,-253.88"/>
</g>
<!-- Node8&#45;&gt;Node7 -->
<g id="edge10" class="edge">
<title>Node8&#45;&gt;Node7</title>
<path fill="none" stroke="midnightblue" d="M121.31,-238C104.64,-238 86.31,-238 71.69,-238"/>
<polygon fill="midnightblue" stroke="midnightblue" points="121.42,-241.5 131.42,-238 121.42,-234.5 121.42,-241.5"/>
</g>
<!-- Node9 -->
<g id="node9" class="node">
<title>Node9</title>
<g id="a_node9"><a xlink:href="classDate.html#a170c5247eafdaeab0aa0e99b55dc5610" target="_top" xlink:title=" ">
<polygon fill="white" stroke="black" points="0,-190.5 0,-209.5 86,-209.5 86,-190.5 0,-190.5"/>
<text text-anchor="middle" x="43" y="-197.5" font-family="Helvetica,sans-Serif" font-size="10.00">Date::setMinute</text>
</a>
</g>
</g>
<!-- Node8&#45;&gt;Node9 -->
<g id="edge11" class="edge">
<title>Node8&#45;&gt;Node9</title>
<path fill="none" stroke="midnightblue" d="M125.96,-225.32C109.34,-220.19 90.47,-214.36 75.03,-209.59"/>
<polygon fill="midnightblue" stroke="midnightblue" points="125.37,-228.8 135.96,-228.41 127.44,-222.12 125.37,-228.8"/>
</g>
</g>
</svg>
