<?xml version="1.0" encoding="UTF-8" standalone="no"?>
<!DOCTYPE svg PUBLIC "-//W3C//DTD SVG 1.1//EN"
 "http://www.w3.org/Graphics/SVG/1.1/DTD/svg11.dtd">
<!-- Generated by graphviz version 2.47.1 (20210417.1919)
 -->
<!-- Title: year Pages: 1 -->
<svg width="414pt" height="294pt"
 viewBox="0.00 0.00 414.00 294.00" xmlns="http://www.w3.org/2000/svg" xmlns:xlink="http://www.w3.org/1999/xlink">
<g id="graph0" class="graph" transform="scale(1 1) rotate(0) translate(4 290)">
<title>year</title>
<polygon fill="white" stroke="transparent" points="-4,4 -4,-290 410,-290 410,4 -4,4"/>
<!-- Node1 -->
<g id="node1" class="node">
<title>Node1</title>
<g id="a_node1"><a xlink:title=" ">
<polygon fill="#bfbfbf" stroke="black" points="371,-133.5 371,-152.5 406,-152.5 406,-133.5 371,-133.5"/>
<text text-anchor="middle" x="388.5" y="-140.5" font-family="Helvetica,sans-Serif" font-size="10.00">year</text>
</a>
</g>
</g>
<!-- Node2 -->
<g id="node2" class="node">
<title>Node2</title>
<g id="a_node2"><a xlink:href="classDate.html#a4bd7d118a675fff08c408914eaef02ac" target="_top" xlink:title=" ">
<polygon fill="white" stroke="black" points="118.5,-266.5 118.5,-285.5 175.5,-285.5 175.5,-266.5 118.5,-266.5"/>
<text text-anchor="middle" x="147" y="-273.5" font-family="Helvetica,sans-Serif" font-size="10.00">Date::get</text>
</a>
</g>
</g>
<!-- Node1&#45;&gt;Node2 -->
<g id="edge1" class="edge">
<title>Node1&#45;&gt;Node2</title>
<path fill="none" stroke="midnightblue" d="M384.53,-162.58C379.43,-188.8 366.34,-234.62 335,-257 287.47,-290.95 214.98,-286.71 175.68,-281.09"/>
<polygon fill="midnightblue" stroke="midnightblue" points="387.99,-163.11 386.26,-152.66 381.09,-161.91 387.99,-163.11"/>
</g>
<!-- Node4 -->
<g id="node4" class="node">
<title>Node4</title>
<g id="a_node4"><a xlink:href="structs__datetime.html#a32205231a1a2e9f16cd9866d06c90b22" target="_top" xlink:title=" ">
<polygon fill="white" stroke="black" points="246.5,-228.5 246.5,-247.5 317.5,-247.5 317.5,-228.5 246.5,-228.5"/>
<text text-anchor="middle" x="282" y="-235.5" font-family="Helvetica,sans-Serif" font-size="10.00">milliseconds</text>
</a>
</g>
</g>
<!-- Node1&#45;&gt;Node4 -->
<g id="edge3" class="edge">
<title>Node1&#45;&gt;Node4</title>
<path fill="none" stroke="midnightblue" d="M378.84,-161.62C370.02,-178.72 354.83,-203.66 335,-219 329.83,-223 323.74,-226.21 317.58,-228.78"/>
<polygon fill="midnightblue" stroke="midnightblue" points="382.01,-163.11 383.28,-152.59 375.73,-160.02 382.01,-163.11"/>
</g>
<!-- Node8 -->
<g id="node8" class="node">
<title>Node8</title>
<g id="a_node8"><a xlink:href="classDate.html#a45cfdbe97b09b42fa47714cd9610350b" target="_top" xlink:title=" ">
<polygon fill="white" stroke="black" points="244.5,-190.5 244.5,-209.5 319.5,-209.5 319.5,-190.5 244.5,-190.5"/>
<text text-anchor="middle" x="282" y="-197.5" font-family="Helvetica,sans-Serif" font-size="10.00">Date::setDay</text>
</a>
</g>
</g>
<!-- Node1&#45;&gt;Node8 -->
<g id="edge8" class="edge">
<title>Node1&#45;&gt;Node8</title>
<path fill="none" stroke="midnightblue" d="M368,-159.1C358.46,-166.45 346.56,-174.86 335,-181 328.29,-184.56 320.78,-187.74 313.58,-190.42"/>
<polygon fill="midnightblue" stroke="midnightblue" points="370.36,-161.7 376.02,-152.75 366.01,-156.21 370.36,-161.7"/>
</g>
<!-- Node9 -->
<g id="node9" class="node">
<title>Node9</title>
<g id="a_node9"><a xlink:href="classDate.html#a738a67855699ffa60e5c54e0eccddd35" target="_top" xlink:title=" ">
<polygon fill="white" stroke="black" points="243,-152.5 243,-171.5 321,-171.5 321,-152.5 243,-152.5"/>
<text text-anchor="middle" x="282" y="-159.5" font-family="Helvetica,sans-Serif" font-size="10.00">Date::setHour</text>
</a>
</g>
</g>
<!-- Node1&#45;&gt;Node9 -->
<g id="edge9" class="edge">
<title>Node1&#45;&gt;Node9</title>
<path fill="none" stroke="midnightblue" d="M360.53,-147.9C348.63,-150.07 334.42,-152.65 321.44,-155.01"/>
<polygon fill="midnightblue" stroke="midnightblue" points="361.5,-151.29 370.71,-146.05 360.25,-144.4 361.5,-151.29"/>
</g>
<!-- Node10 -->
<g id="node10" class="node">
<title>Node10</title>
<g id="a_node10"><a xlink:href="classDate.html#a9d65d72b12c17c5f20fb7ed85d8a1de7" target="_top" xlink:title=" ">
<polygon fill="white" stroke="black" points="229,-114.5 229,-133.5 335,-133.5 335,-114.5 229,-114.5"/>
<text text-anchor="middle" x="282" y="-121.5" font-family="Helvetica,sans-Serif" font-size="10.00">Date::setMillisecond</text>
</a>
</g>
</g>
<!-- Node1&#45;&gt;Node10 -->
<g id="edge10" class="edge">
<title>Node1&#45;&gt;Node10</title>
<path fill="none" stroke="midnightblue" d="M360.81,-138.15C353.03,-136.73 344.24,-135.14 335.45,-133.54"/>
<polygon fill="midnightblue" stroke="midnightblue" points="360.25,-141.6 370.71,-139.95 361.5,-134.71 360.25,-141.6"/>
</g>
<!-- Node11 -->
<g id="node11" class="node">
<title>Node11</title>
<g id="a_node11"><a xlink:href="classDate.html#a170c5247eafdaeab0aa0e99b55dc5610" target="_top" xlink:title=" ">
<polygon fill="white" stroke="black" points="239,-76.5 239,-95.5 325,-95.5 325,-76.5 239,-76.5"/>
<text text-anchor="middle" x="282" y="-83.5" font-family="Helvetica,sans-Serif" font-size="10.00">Date::setMinute</text>
</a>
</g>
</g>
<!-- Node1&#45;&gt;Node11 -->
<g id="edge11" class="edge">
<title>Node1&#45;&gt;Node11</title>
<path fill="none" stroke="midnightblue" d="M368,-126.9C358.46,-119.55 346.56,-111.14 335,-105 328.29,-101.44 320.78,-98.26 313.58,-95.58"/>
<polygon fill="midnightblue" stroke="midnightblue" points="366.01,-129.79 376.02,-133.25 370.36,-124.3 366.01,-129.79"/>
</g>
<!-- Node12 -->
<g id="node12" class="node">
<title>Node12</title>
<g id="a_node12"><a xlink:href="classDate.html#aec519600b09c8957031753c63085562c" target="_top" xlink:title=" ">
<polygon fill="white" stroke="black" points="240,-38.5 240,-57.5 324,-57.5 324,-38.5 240,-38.5"/>
<text text-anchor="middle" x="282" y="-45.5" font-family="Helvetica,sans-Serif" font-size="10.00">Date::setMonth</text>
</a>
</g>
</g>
<!-- Node1&#45;&gt;Node12 -->
<g id="edge12" class="edge">
<title>Node1&#45;&gt;Node12</title>
<path fill="none" stroke="midnightblue" d="M378.84,-124.38C370.02,-107.28 354.83,-82.34 335,-67 330.06,-63.18 324.27,-60.07 318.39,-57.56"/>
<polygon fill="midnightblue" stroke="midnightblue" points="375.73,-125.98 383.28,-133.41 382.01,-122.89 375.73,-125.98"/>
</g>
<!-- Node13 -->
<g id="node13" class="node">
<title>Node13</title>
<g id="a_node13"><a xlink:href="classDate.html#a9b161ba26e10475d04e8030837e67e7f" target="_top" xlink:title=" ">
<polygon fill="white" stroke="black" points="237,-0.5 237,-19.5 327,-19.5 327,-0.5 237,-0.5"/>
<text text-anchor="middle" x="282" y="-7.5" font-family="Helvetica,sans-Serif" font-size="10.00">Date::setSecond</text>
</a>
</g>
</g>
<!-- Node1&#45;&gt;Node13 -->
<g id="edge13" class="edge">
<title>Node1&#45;&gt;Node13</title>
<path fill="none" stroke="midnightblue" d="M383.4,-123.41C377.15,-98.24 362.91,-54.73 335,-29 330.83,-25.16 325.82,-22.08 320.58,-19.61"/>
<polygon fill="midnightblue" stroke="midnightblue" points="380.01,-124.3 385.66,-133.26 386.83,-122.73 380.01,-124.3"/>
</g>
<!-- Node3 -->
<g id="node3" class="node">
<title>Node3</title>
<g id="a_node3"><a xlink:href="classDate.html#ad4266ef239a3aec124099a2a29f671d8" target="_top" xlink:title=" ">
<polygon fill="white" stroke="black" points="0,-266.5 0,-285.5 65,-285.5 65,-266.5 0,-266.5"/>
<text text-anchor="middle" x="32.5" y="-273.5" font-family="Helvetica,sans-Serif" font-size="10.00">Date::Date</text>
</a>
</g>
</g>
<!-- Node2&#45;&gt;Node3 -->
<g id="edge2" class="edge">
<title>Node2&#45;&gt;Node3</title>
<path fill="none" stroke="midnightblue" d="M108.18,-276C94.19,-276 78.49,-276 65.11,-276"/>
<polygon fill="midnightblue" stroke="midnightblue" points="108.48,-279.5 118.48,-276 108.48,-272.5 108.48,-279.5"/>
</g>
<!-- Node4&#45;&gt;Node2 -->
<g id="edge4" class="edge">
<title>Node4&#45;&gt;Node2</title>
<path fill="none" stroke="midnightblue" d="M237.74,-250.36C217.36,-256.18 193.65,-262.96 175.72,-268.08"/>
<polygon fill="midnightblue" stroke="midnightblue" points="238.78,-253.7 247.44,-247.59 236.86,-246.97 238.78,-253.7"/>
</g>
<!-- Node5 -->
<g id="node5" class="node">
<title>Node5</title>
<g id="a_node5"><a xlink:href="classDate.html#aa55b19dce110414fe48e4e7d60d8cd79" target="_top" xlink:title=" ">
<polygon fill="white" stroke="black" points="101,-228.5 101,-247.5 193,-247.5 193,-228.5 101,-228.5"/>
<text text-anchor="middle" x="147" y="-235.5" font-family="Helvetica,sans-Serif" font-size="10.00">Date::millisecond</text>
</a>
</g>
</g>
<!-- Node4&#45;&gt;Node5 -->
<g id="edge5" class="edge">
<title>Node4&#45;&gt;Node5</title>
<path fill="none" stroke="midnightblue" d="M236.19,-238C222.42,-238 207.26,-238 193.45,-238"/>
<polygon fill="midnightblue" stroke="midnightblue" points="236.4,-241.5 246.4,-238 236.4,-234.5 236.4,-241.5"/>
</g>
<!-- Node6 -->
<g id="node6" class="node">
<title>Node6</title>
<g id="a_node6"><a xlink:href="classDate.html#a47ce47ac7778de3dce27a562e584fef3" target="_top" xlink:title=" ">
<polygon fill="white" stroke="black" points="0,-228.5 0,-247.5 65,-247.5 65,-228.5 0,-228.5"/>
<text text-anchor="middle" x="32.5" y="-235.5" font-family="Helvetica,sans-Serif" font-size="10.00">Date::Date</text>
</a>
</g>
</g>
<!-- Node5&#45;&gt;Node6 -->
<g id="edge6" class="edge">
<title>Node5&#45;&gt;Node6</title>
<path fill="none" stroke="midnightblue" d="M90.67,-238C81.9,-238 73.11,-238 65.13,-238"/>
<polygon fill="midnightblue" stroke="midnightblue" points="90.89,-241.5 100.89,-238 90.89,-234.5 90.89,-241.5"/>
</g>
<!-- Node7 -->
<g id="node7" class="node">
<title>Node7</title>
<g id="a_node7"><a xlink:href="classDate.html#a8d61659598ea0751255bb23274852ec3" target="_top" xlink:title=" ">
<polygon fill="white" stroke="black" points="4,-190.5 4,-209.5 61,-209.5 61,-190.5 4,-190.5"/>
<text text-anchor="middle" x="32.5" y="-197.5" font-family="Helvetica,sans-Serif" font-size="10.00">Date::set</text>
</a>
</g>
</g>
<!-- Node5&#45;&gt;Node7 -->
<g id="edge7" class="edge">
<title>Node5&#45;&gt;Node7</title>
<path fill="none" stroke="midnightblue" d="M107.88,-225.12C92.54,-219.94 75.19,-214.08 61.1,-209.32"/>
<polygon fill="midnightblue" stroke="midnightblue" points="107.02,-228.53 117.61,-228.41 109.26,-221.89 107.02,-228.53"/>
</g>
</g>
</svg>
