<?xml version="1.0" encoding="UTF-8" standalone="no"?>
<!DOCTYPE svg PUBLIC "-//W3C//DTD SVG 1.1//EN"
 "http://www.w3.org/Graphics/SVG/1.1/DTD/svg11.dtd">
<!-- Generated by graphviz version 2.47.1 (20210417.1919)
 -->
<!-- Title: day Pages: 1 -->
<svg width="411pt" height="294pt"
 viewBox="0.00 0.00 411.00 294.00" xmlns="http://www.w3.org/2000/svg" xmlns:xlink="http://www.w3.org/1999/xlink">
<g id="graph0" class="graph" transform="scale(1 1) rotate(0) translate(4 290)">
<title>day</title>
<polygon fill="white" stroke="transparent" points="-4,4 -4,-290 407,-290 407,4 -4,4"/>
<!-- Node1 -->
<g id="node1" class="node">
<title>Node1</title>
<g id="a_node1"><a xlink:title=" ">
<polygon fill="#bfbfbf" stroke="black" points="371,-133.5 371,-152.5 403,-152.5 403,-133.5 371,-133.5"/>
<text text-anchor="middle" x="387" y="-140.5" font-family="Helvetica,sans-Serif" font-size="10.00">day</text>
</a>
</g>
</g>
<!-- Node2 -->
<g id="node2" class="node">
<title>Node2</title>
<g id="a_node2"><a xlink:href="classDate.html#a4bd7d118a675fff08c408914eaef02ac" target="_top" xlink:title=" ">
<polygon fill="white" stroke="black" points="118.5,-266.5 118.5,-285.5 175.5,-285.5 175.5,-266.5 118.5,-266.5"/>
<text text-anchor="middle" x="147" y="-273.5" font-family="Helvetica,sans-Serif" font-size="10.00">Date::get</text>
</a>
</g>
</g>
<!-- Node1&#45;&gt;Node2 -->
<g id="edge1" class="edge">
<title>Node1&#45;&gt;Node2</title>
<path fill="none" stroke="midnightblue" d="M383.29,-162.56C378.54,-188.76 366.06,-234.56 335,-257 287.65,-291.21 215.09,-286.87 175.73,-281.16"/>
<polygon fill="midnightblue" stroke="midnightblue" points="386.75,-163.08 384.89,-152.65 379.84,-161.97 386.75,-163.08"/>
</g>
<!-- Node4 -->
<g id="node4" class="node">
<title>Node4</title>
<g id="a_node4"><a xlink:href="structs__datetime.html#a32205231a1a2e9f16cd9866d06c90b22" target="_top" xlink:title=" ">
<polygon fill="white" stroke="black" points="246.5,-228.5 246.5,-247.5 317.5,-247.5 317.5,-228.5 246.5,-228.5"/>
<text text-anchor="middle" x="282" y="-235.5" font-family="Helvetica,sans-Serif" font-size="10.00">milliseconds</text>
</a>
</g>
</g>
<!-- Node1&#45;&gt;Node4 -->
<g id="edge3" class="edge">
<title>Node1&#45;&gt;Node4</title>
<path fill="none" stroke="midnightblue" d="M377.48,-162.1C368.96,-179.19 354.36,-203.82 335,-219 329.86,-223.03 323.78,-226.26 317.62,-228.83"/>
<polygon fill="midnightblue" stroke="midnightblue" points="380.86,-163.13 381.98,-152.59 374.54,-160.13 380.86,-163.13"/>
</g>
<!-- Node8 -->
<g id="node8" class="node">
<title>Node8</title>
<g id="a_node8"><a xlink:href="classDate.html#a738a67855699ffa60e5c54e0eccddd35" target="_top" xlink:title=" ">
<polygon fill="white" stroke="black" points="243,-190.5 243,-209.5 321,-209.5 321,-190.5 243,-190.5"/>
<text text-anchor="middle" x="282" y="-197.5" font-family="Helvetica,sans-Serif" font-size="10.00">Date::setHour</text>
</a>
</g>
</g>
<!-- Node1&#45;&gt;Node8 -->
<g id="edge8" class="edge">
<title>Node1&#45;&gt;Node8</title>
<path fill="none" stroke="midnightblue" d="M367.12,-159.13C357.87,-166.48 346.31,-174.89 335,-181 328.32,-184.61 320.81,-187.8 313.62,-190.49"/>
<polygon fill="midnightblue" stroke="midnightblue" points="369.38,-161.81 374.9,-152.77 364.94,-156.39 369.38,-161.81"/>
</g>
<!-- Node9 -->
<g id="node9" class="node">
<title>Node9</title>
<g id="a_node9"><a xlink:href="classDate.html#a9d65d72b12c17c5f20fb7ed85d8a1de7" target="_top" xlink:title=" ">
<polygon fill="white" stroke="black" points="229,-152.5 229,-171.5 335,-171.5 335,-152.5 229,-152.5"/>
<text text-anchor="middle" x="282" y="-159.5" font-family="Helvetica,sans-Serif" font-size="10.00">Date::setMillisecond</text>
</a>
</g>
</g>
<!-- Node1&#45;&gt;Node9 -->
<g id="edge9" class="edge">
<title>Node1&#45;&gt;Node9</title>
<path fill="none" stroke="midnightblue" d="M360.75,-147.66C352.78,-149.13 343.66,-150.81 334.54,-152.49"/>
<polygon fill="midnightblue" stroke="midnightblue" points="361.6,-151.06 370.8,-145.8 360.33,-144.18 361.6,-151.06"/>
</g>
<!-- Node10 -->
<g id="node10" class="node">
<title>Node10</title>
<g id="a_node10"><a xlink:href="classDate.html#a170c5247eafdaeab0aa0e99b55dc5610" target="_top" xlink:title=" ">
<polygon fill="white" stroke="black" points="239,-114.5 239,-133.5 325,-133.5 325,-114.5 239,-114.5"/>
<text text-anchor="middle" x="282" y="-121.5" font-family="Helvetica,sans-Serif" font-size="10.00">Date::setMinute</text>
</a>
</g>
</g>
<!-- Node1&#45;&gt;Node10 -->
<g id="edge10" class="edge">
<title>Node1&#45;&gt;Node10</title>
<path fill="none" stroke="midnightblue" d="M360.92,-138.37C350.25,-136.41 337.5,-134.05 325.44,-131.83"/>
<polygon fill="midnightblue" stroke="midnightblue" points="360.33,-141.82 370.8,-140.2 361.6,-134.94 360.33,-141.82"/>
</g>
<!-- Node11 -->
<g id="node11" class="node">
<title>Node11</title>
<g id="a_node11"><a xlink:href="classDate.html#aec519600b09c8957031753c63085562c" target="_top" xlink:title=" ">
<polygon fill="white" stroke="black" points="240,-76.5 240,-95.5 324,-95.5 324,-76.5 240,-76.5"/>
<text text-anchor="middle" x="282" y="-83.5" font-family="Helvetica,sans-Serif" font-size="10.00">Date::setMonth</text>
</a>
</g>
</g>
<!-- Node1&#45;&gt;Node11 -->
<g id="edge11" class="edge">
<title>Node1&#45;&gt;Node11</title>
<path fill="none" stroke="midnightblue" d="M367.12,-126.87C357.87,-119.52 346.31,-111.11 335,-105 328.32,-101.39 320.81,-98.2 313.62,-95.51"/>
<polygon fill="midnightblue" stroke="midnightblue" points="364.94,-129.61 374.9,-133.23 369.38,-124.19 364.94,-129.61"/>
</g>
<!-- Node12 -->
<g id="node12" class="node">
<title>Node12</title>
<g id="a_node12"><a xlink:href="classDate.html#a9b161ba26e10475d04e8030837e67e7f" target="_top" xlink:title=" ">
<polygon fill="white" stroke="black" points="237,-38.5 237,-57.5 327,-57.5 327,-38.5 237,-38.5"/>
<text text-anchor="middle" x="282" y="-45.5" font-family="Helvetica,sans-Serif" font-size="10.00">Date::setSecond</text>
</a>
</g>
</g>
<!-- Node1&#45;&gt;Node12 -->
<g id="edge12" class="edge">
<title>Node1&#45;&gt;Node12</title>
<path fill="none" stroke="midnightblue" d="M377.48,-123.9C368.96,-106.81 354.36,-82.18 335,-67 330.08,-63.14 324.31,-60.02 318.44,-57.51"/>
<polygon fill="midnightblue" stroke="midnightblue" points="374.54,-125.87 381.98,-133.41 380.86,-122.87 374.54,-125.87"/>
</g>
<!-- Node13 -->
<g id="node13" class="node">
<title>Node13</title>
<g id="a_node13"><a xlink:href="classDate.html#a2268b24626953c1eac1d5b18db74cc4b" target="_top" xlink:title=" ">
<polygon fill="white" stroke="black" points="243.5,-0.5 243.5,-19.5 320.5,-19.5 320.5,-0.5 243.5,-0.5"/>
<text text-anchor="middle" x="282" y="-7.5" font-family="Helvetica,sans-Serif" font-size="10.00">Date::setYear</text>
</a>
</g>
</g>
<!-- Node1&#45;&gt;Node13 -->
<g id="edge13" class="edge">
<title>Node1&#45;&gt;Node13</title>
<path fill="none" stroke="midnightblue" d="M382.17,-123.42C376.28,-98.25 362.63,-54.75 335,-29 330.85,-25.13 325.85,-22.04 320.62,-19.57"/>
<polygon fill="midnightblue" stroke="midnightblue" points="378.77,-124.23 384.3,-133.27 385.61,-122.75 378.77,-124.23"/>
</g>
<!-- Node3 -->
<g id="node3" class="node">
<title>Node3</title>
<g id="a_node3"><a xlink:href="classDate.html#ad4266ef239a3aec124099a2a29f671d8" target="_top" xlink:title=" ">
<polygon fill="white" stroke="black" points="0,-266.5 0,-285.5 65,-285.5 65,-266.5 0,-266.5"/>
<text text-anchor="middle" x="32.5" y="-273.5" font-family="Helvetica,sans-Serif" font-size="10.00">Date::Date</text>
</a>
</g>
</g>
<!-- Node2&#45;&gt;Node3 -->
<g id="edge2" class="edge">
<title>Node2&#45;&gt;Node3</title>
<path fill="none" stroke="midnightblue" d="M108.18,-276C94.19,-276 78.49,-276 65.11,-276"/>
<polygon fill="midnightblue" stroke="midnightblue" points="108.48,-279.5 118.48,-276 108.48,-272.5 108.48,-279.5"/>
</g>
<!-- Node4&#45;&gt;Node2 -->
<g id="edge4" class="edge">
<title>Node4&#45;&gt;Node2</title>
<path fill="none" stroke="midnightblue" d="M237.74,-250.36C217.36,-256.18 193.65,-262.96 175.72,-268.08"/>
<polygon fill="midnightblue" stroke="midnightblue" points="238.78,-253.7 247.44,-247.59 236.86,-246.97 238.78,-253.7"/>
</g>
<!-- Node5 -->
<g id="node5" class="node">
<title>Node5</title>
<g id="a_node5"><a xlink:href="classDate.html#aa55b19dce110414fe48e4e7d60d8cd79" target="_top" xlink:title=" ">
<polygon fill="white" stroke="black" points="101,-228.5 101,-247.5 193,-247.5 193,-228.5 101,-228.5"/>
<text text-anchor="middle" x="147" y="-235.5" font-family="Helvetica,sans-Serif" font-size="10.00">Date::millisecond</text>
</a>
</g>
</g>
<!-- Node4&#45;&gt;Node5 -->
<g id="edge5" class="edge">
<title>Node4&#45;&gt;Node5</title>
<path fill="none" stroke="midnightblue" d="M236.19,-238C222.42,-238 207.26,-238 193.45,-238"/>
<polygon fill="midnightblue" stroke="midnightblue" points="236.4,-241.5 246.4,-238 236.4,-234.5 236.4,-241.5"/>
</g>
<!-- Node6 -->
<g id="node6" class="node">
<title>Node6</title>
<g id="a_node6"><a xlink:href="classDate.html#a47ce47ac7778de3dce27a562e584fef3" target="_top" xlink:title=" ">
<polygon fill="white" stroke="black" points="0,-228.5 0,-247.5 65,-247.5 65,-228.5 0,-228.5"/>
<text text-anchor="middle" x="32.5" y="-235.5" font-family="Helvetica,sans-Serif" font-size="10.00">Date::Date</text>
</a>
</g>
</g>
<!-- Node5&#45;&gt;Node6 -->
<g id="edge6" class="edge">
<title>Node5&#45;&gt;Node6</title>
<path fill="none" stroke="midnightblue" d="M90.67,-238C81.9,-238 73.11,-238 65.13,-238"/>
<polygon fill="midnightblue" stroke="midnightblue" points="90.89,-241.5 100.89,-238 90.89,-234.5 90.89,-241.5"/>
</g>
<!-- Node7 -->
<g id="node7" class="node">
<title>Node7</title>
<g id="a_node7"><a xlink:href="classDate.html#a8d61659598ea0751255bb23274852ec3" target="_top" xlink:title=" ">
<polygon fill="white" stroke="black" points="4,-190.5 4,-209.5 61,-209.5 61,-190.5 4,-190.5"/>
<text text-anchor="middle" x="32.5" y="-197.5" font-family="Helvetica,sans-Serif" font-size="10.00">Date::set</text>
</a>
</g>
</g>
<!-- Node5&#45;&gt;Node7 -->
<g id="edge7" class="edge">
<title>Node5&#45;&gt;Node7</title>
<path fill="none" stroke="midnightblue" d="M107.88,-225.12C92.54,-219.94 75.19,-214.08 61.1,-209.32"/>
<polygon fill="midnightblue" stroke="midnightblue" points="107.02,-228.53 117.61,-228.41 109.26,-221.89 107.02,-228.53"/>
</g>
</g>
</svg>
