<?xml version="1.0" encoding="UTF-8" standalone="no"?>
<!DOCTYPE svg PUBLIC "-//W3C//DTD SVG 1.1//EN"
 "http://www.w3.org/Graphics/SVG/1.1/DTD/svg11.dtd">
<!-- Generated by graphviz version 2.47.1 (20210417.1919)
 -->
<!-- Title: second Pages: 1 -->
<svg width="452pt" height="332pt"
 viewBox="0.00 0.00 452.00 332.00" xmlns="http://www.w3.org/2000/svg" xmlns:xlink="http://www.w3.org/1999/xlink">
<g id="graph0" class="graph" transform="scale(1 1) rotate(0) translate(4 328)">
<title>second</title>
<polygon fill="white" stroke="transparent" points="-4,4 -4,-328 448,-328 448,4 -4,4"/>
<!-- Node1 -->
<g id="node1" class="node">
<title>Node1</title>
<g id="a_node1"><a xlink:title=" ">
<polygon fill="#bfbfbf" stroke="black" points="396,-152.5 396,-171.5 444,-171.5 444,-152.5 396,-152.5"/>
<text text-anchor="middle" x="420" y="-159.5" font-family="Helvetica,sans-Serif" font-size="10.00">second</text>
</a>
</g>
</g>
<!-- Node2 -->
<g id="node2" class="node">
<title>Node2</title>
<g id="a_node2"><a xlink:href="classDate.html#a4bd7d118a675fff08c408914eaef02ac" target="_top" xlink:title=" ">
<polygon fill="white" stroke="black" points="143.5,-304.5 143.5,-323.5 200.5,-323.5 200.5,-304.5 143.5,-304.5"/>
<text text-anchor="middle" x="172" y="-311.5" font-family="Helvetica,sans-Serif" font-size="10.00">Date::get</text>
</a>
</g>
</g>
<!-- Node1&#45;&gt;Node2 -->
<g id="edge1" class="edge">
<title>Node1&#45;&gt;Node2</title>
<path fill="none" stroke="midnightblue" d="M416.45,-181.82C411.44,-211.77 397.36,-267.92 360,-295 312.71,-329.28 240.13,-324.91 200.74,-319.18"/>
<polygon fill="midnightblue" stroke="midnightblue" points="419.94,-182.15 417.95,-171.74 413.01,-181.12 419.94,-182.15"/>
</g>
<!-- Node4 -->
<g id="node4" class="node">
<title>Node4</title>
<g id="a_node4"><a xlink:href="structs__datetime.html#a32205231a1a2e9f16cd9866d06c90b22" target="_top" xlink:title=" ">
<polygon fill="white" stroke="black" points="271.5,-266.5 271.5,-285.5 342.5,-285.5 342.5,-266.5 271.5,-266.5"/>
<text text-anchor="middle" x="307" y="-273.5" font-family="Helvetica,sans-Serif" font-size="10.00">milliseconds</text>
</a>
</g>
</g>
<!-- Node1&#45;&gt;Node4 -->
<g id="edge3" class="edge">
<title>Node1&#45;&gt;Node4</title>
<path fill="none" stroke="midnightblue" d="M410.52,-180.95C400.79,-200.88 383.14,-232.05 360,-252 353.07,-257.97 344.41,-262.75 336.15,-266.42"/>
<polygon fill="midnightblue" stroke="midnightblue" points="413.79,-182.21 414.88,-171.67 407.46,-179.23 413.79,-182.21"/>
</g>
<!-- Node8 -->
<g id="node8" class="node">
<title>Node8</title>
<g id="a_node8"><a xlink:href="classDate.html#a48e9ba1096b933927acac1f97d57f97c" target="_top" xlink:title=" ">
<polygon fill="white" stroke="black" points="134.5,-228.5 134.5,-247.5 209.5,-247.5 209.5,-228.5 134.5,-228.5"/>
<text text-anchor="middle" x="172" y="-235.5" font-family="Helvetica,sans-Serif" font-size="10.00">Date::second</text>
</a>
</g>
</g>
<!-- Node1&#45;&gt;Node8 -->
<g id="edge8" class="edge">
<title>Node1&#45;&gt;Node8</title>
<path fill="none" stroke="midnightblue" d="M406.13,-179.67C395.4,-192.93 378.86,-210.24 360,-219 311.61,-241.47 248.75,-242.99 209.65,-241.15"/>
<polygon fill="midnightblue" stroke="midnightblue" points="408.97,-181.73 412.31,-171.68 403.43,-177.45 408.97,-181.73"/>
</g>
<!-- Node10 -->
<g id="node10" class="node">
<title>Node10</title>
<g id="a_node10"><a xlink:href="classDate.html#a45cfdbe97b09b42fa47714cd9610350b" target="_top" xlink:title=" ">
<polygon fill="white" stroke="black" points="269.5,-190.5 269.5,-209.5 344.5,-209.5 344.5,-190.5 269.5,-190.5"/>
<text text-anchor="middle" x="307" y="-197.5" font-family="Helvetica,sans-Serif" font-size="10.00">Date::setDay</text>
</a>
</g>
</g>
<!-- Node1&#45;&gt;Node10 -->
<g id="edge12" class="edge">
<title>Node1&#45;&gt;Node10</title>
<path fill="none" stroke="midnightblue" d="M386.24,-173.22C370.26,-178.69 351.24,-185.2 335.96,-190.43"/>
<polygon fill="midnightblue" stroke="midnightblue" points="387.4,-176.52 395.73,-169.97 385.14,-169.89 387.4,-176.52"/>
</g>
<!-- Node11 -->
<g id="node11" class="node">
<title>Node11</title>
<g id="a_node11"><a xlink:href="classDate.html#a738a67855699ffa60e5c54e0eccddd35" target="_top" xlink:title=" ">
<polygon fill="white" stroke="black" points="268,-152.5 268,-171.5 346,-171.5 346,-152.5 268,-152.5"/>
<text text-anchor="middle" x="307" y="-159.5" font-family="Helvetica,sans-Serif" font-size="10.00">Date::setHour</text>
</a>
</g>
</g>
<!-- Node1&#45;&gt;Node11 -->
<g id="edge13" class="edge">
<title>Node1&#45;&gt;Node11</title>
<path fill="none" stroke="midnightblue" d="M385.36,-162C372.97,-162 358.85,-162 346.09,-162"/>
<polygon fill="midnightblue" stroke="midnightblue" points="385.73,-165.5 395.73,-162 385.73,-158.5 385.73,-165.5"/>
</g>
<!-- Node12 -->
<g id="node12" class="node">
<title>Node12</title>
<g id="a_node12"><a xlink:href="classDate.html#a9d65d72b12c17c5f20fb7ed85d8a1de7" target="_top" xlink:title=" ">
<polygon fill="white" stroke="black" points="254,-114.5 254,-133.5 360,-133.5 360,-114.5 254,-114.5"/>
<text text-anchor="middle" x="307" y="-121.5" font-family="Helvetica,sans-Serif" font-size="10.00">Date::setMillisecond</text>
</a>
</g>
</g>
<!-- Node1&#45;&gt;Node12 -->
<g id="edge14" class="edge">
<title>Node1&#45;&gt;Node12</title>
<path fill="none" stroke="midnightblue" d="M386.24,-150.78C370.26,-145.31 351.24,-138.8 335.96,-133.57"/>
<polygon fill="midnightblue" stroke="midnightblue" points="385.14,-154.11 395.73,-154.03 387.4,-147.48 385.14,-154.11"/>
</g>
<!-- Node13 -->
<g id="node13" class="node">
<title>Node13</title>
<g id="a_node13"><a xlink:href="classDate.html#a170c5247eafdaeab0aa0e99b55dc5610" target="_top" xlink:title=" ">
<polygon fill="white" stroke="black" points="264,-76.5 264,-95.5 350,-95.5 350,-76.5 264,-76.5"/>
<text text-anchor="middle" x="307" y="-83.5" font-family="Helvetica,sans-Serif" font-size="10.00">Date::setMinute</text>
</a>
</g>
</g>
<!-- Node1&#45;&gt;Node13 -->
<g id="edge15" class="edge">
<title>Node1&#45;&gt;Node13</title>
<path fill="none" stroke="midnightblue" d="M404.37,-144.38C393.28,-131.95 377.07,-115.68 360,-105 354.05,-101.28 347.27,-98.13 340.61,-95.54"/>
<polygon fill="midnightblue" stroke="midnightblue" points="401.99,-146.98 411.18,-152.25 407.29,-142.4 401.99,-146.98"/>
</g>
<!-- Node14 -->
<g id="node14" class="node">
<title>Node14</title>
<g id="a_node14"><a xlink:href="classDate.html#aec519600b09c8957031753c63085562c" target="_top" xlink:title=" ">
<polygon fill="white" stroke="black" points="265,-38.5 265,-57.5 349,-57.5 349,-38.5 265,-38.5"/>
<text text-anchor="middle" x="307" y="-45.5" font-family="Helvetica,sans-Serif" font-size="10.00">Date::setMonth</text>
</a>
</g>
</g>
<!-- Node1&#45;&gt;Node14 -->
<g id="edge16" class="edge">
<title>Node1&#45;&gt;Node14</title>
<path fill="none" stroke="midnightblue" d="M411.78,-143.17C402.72,-121.89 385.24,-87.53 360,-67 355.3,-63.18 349.77,-60.09 344.09,-57.6"/>
<polygon fill="midnightblue" stroke="midnightblue" points="408.54,-144.51 415.55,-152.46 415.03,-141.88 408.54,-144.51"/>
</g>
<!-- Node15 -->
<g id="node15" class="node">
<title>Node15</title>
<g id="a_node15"><a xlink:href="classDate.html#a2268b24626953c1eac1d5b18db74cc4b" target="_top" xlink:title=" ">
<polygon fill="white" stroke="black" points="268.5,-0.5 268.5,-19.5 345.5,-19.5 345.5,-0.5 268.5,-0.5"/>
<text text-anchor="middle" x="307" y="-7.5" font-family="Helvetica,sans-Serif" font-size="10.00">Date::setYear</text>
</a>
</g>
</g>
<!-- Node1&#45;&gt;Node15 -->
<g id="edge17" class="edge">
<title>Node1&#45;&gt;Node15</title>
<path fill="none" stroke="midnightblue" d="M415.37,-142.47C409.06,-113.77 393.39,-60.22 360,-29 355.86,-25.13 350.86,-22.03 345.63,-19.56"/>
<polygon fill="midnightblue" stroke="midnightblue" points="411.99,-143.38 417.41,-152.48 418.84,-141.98 411.99,-143.38"/>
</g>
<!-- Node3 -->
<g id="node3" class="node">
<title>Node3</title>
<g id="a_node3"><a xlink:href="classDate.html#ad4266ef239a3aec124099a2a29f671d8" target="_top" xlink:title=" ">
<polygon fill="white" stroke="black" points="12.5,-304.5 12.5,-323.5 77.5,-323.5 77.5,-304.5 12.5,-304.5"/>
<text text-anchor="middle" x="45" y="-311.5" font-family="Helvetica,sans-Serif" font-size="10.00">Date::Date</text>
</a>
</g>
</g>
<!-- Node2&#45;&gt;Node3 -->
<g id="edge2" class="edge">
<title>Node2&#45;&gt;Node3</title>
<path fill="none" stroke="midnightblue" d="M133.22,-314C115.47,-314 94.54,-314 77.63,-314"/>
<polygon fill="midnightblue" stroke="midnightblue" points="133.26,-317.5 143.26,-314 133.26,-310.5 133.26,-317.5"/>
</g>
<!-- Node4&#45;&gt;Node2 -->
<g id="edge4" class="edge">
<title>Node4&#45;&gt;Node2</title>
<path fill="none" stroke="midnightblue" d="M262.74,-288.36C242.36,-294.18 218.65,-300.96 200.72,-306.08"/>
<polygon fill="midnightblue" stroke="midnightblue" points="263.78,-291.7 272.44,-285.59 261.86,-284.97 263.78,-291.7"/>
</g>
<!-- Node5 -->
<g id="node5" class="node">
<title>Node5</title>
<g id="a_node5"><a xlink:href="classDate.html#aa55b19dce110414fe48e4e7d60d8cd79" target="_top" xlink:title=" ">
<polygon fill="white" stroke="black" points="126,-266.5 126,-285.5 218,-285.5 218,-266.5 126,-266.5"/>
<text text-anchor="middle" x="172" y="-273.5" font-family="Helvetica,sans-Serif" font-size="10.00">Date::millisecond</text>
</a>
</g>
</g>
<!-- Node4&#45;&gt;Node5 -->
<g id="edge5" class="edge">
<title>Node4&#45;&gt;Node5</title>
<path fill="none" stroke="midnightblue" d="M261.19,-276C247.42,-276 232.26,-276 218.45,-276"/>
<polygon fill="midnightblue" stroke="midnightblue" points="261.4,-279.5 271.4,-276 261.4,-272.5 261.4,-279.5"/>
</g>
<!-- Node6 -->
<g id="node6" class="node">
<title>Node6</title>
<g id="a_node6"><a xlink:href="classDate.html#a47ce47ac7778de3dce27a562e584fef3" target="_top" xlink:title=" ">
<polygon fill="white" stroke="black" points="12.5,-266.5 12.5,-285.5 77.5,-285.5 77.5,-266.5 12.5,-266.5"/>
<text text-anchor="middle" x="45" y="-273.5" font-family="Helvetica,sans-Serif" font-size="10.00">Date::Date</text>
</a>
</g>
</g>
<!-- Node5&#45;&gt;Node6 -->
<g id="edge6" class="edge">
<title>Node5&#45;&gt;Node6</title>
<path fill="none" stroke="midnightblue" d="M115.61,-276C102.64,-276 89.27,-276 77.74,-276"/>
<polygon fill="midnightblue" stroke="midnightblue" points="115.87,-279.5 125.87,-276 115.87,-272.5 115.87,-279.5"/>
</g>
<!-- Node7 -->
<g id="node7" class="node">
<title>Node7</title>
<g id="a_node7"><a xlink:href="classDate.html#a8d61659598ea0751255bb23274852ec3" target="_top" xlink:title=" ">
<polygon fill="white" stroke="black" points="16.5,-228.5 16.5,-247.5 73.5,-247.5 73.5,-228.5 16.5,-228.5"/>
<text text-anchor="middle" x="45" y="-235.5" font-family="Helvetica,sans-Serif" font-size="10.00">Date::set</text>
</a>
</g>
</g>
<!-- Node5&#45;&gt;Node7 -->
<g id="edge7" class="edge">
<title>Node5&#45;&gt;Node7</title>
<path fill="none" stroke="midnightblue" d="M129.84,-263.49C111.42,-257.89 90.19,-251.43 73.7,-246.42"/>
<polygon fill="midnightblue" stroke="midnightblue" points="128.87,-266.85 139.46,-266.41 130.91,-260.15 128.87,-266.85"/>
</g>
<!-- Node8&#45;&gt;Node6 -->
<g id="edge9" class="edge">
<title>Node8&#45;&gt;Node6</title>
<path fill="none" stroke="midnightblue" d="M129.77,-250.54C112.76,-255.7 93.37,-261.6 77.53,-266.41"/>
<polygon fill="midnightblue" stroke="midnightblue" points="130.91,-253.85 139.46,-247.59 128.87,-247.15 130.91,-253.85"/>
</g>
<!-- Node8&#45;&gt;Node7 -->
<g id="edge10" class="edge">
<title>Node8&#45;&gt;Node7</title>
<path fill="none" stroke="midnightblue" d="M123.92,-238C107.04,-238 88.56,-238 73.84,-238"/>
<polygon fill="midnightblue" stroke="midnightblue" points="124.17,-241.5 134.17,-238 124.17,-234.5 124.17,-241.5"/>
</g>
<!-- Node9 -->
<g id="node9" class="node">
<title>Node9</title>
<g id="a_node9"><a xlink:href="classDate.html#a9b161ba26e10475d04e8030837e67e7f" target="_top" xlink:title=" ">
<polygon fill="white" stroke="black" points="0,-190.5 0,-209.5 90,-209.5 90,-190.5 0,-190.5"/>
<text text-anchor="middle" x="45" y="-197.5" font-family="Helvetica,sans-Serif" font-size="10.00">Date::setSecond</text>
</a>
</g>
</g>
<!-- Node8&#45;&gt;Node9 -->
<g id="edge11" class="edge">
<title>Node8&#45;&gt;Node9</title>
<path fill="none" stroke="midnightblue" d="M129.77,-225.46C112.76,-220.3 93.37,-214.4 77.53,-209.59"/>
<polygon fill="midnightblue" stroke="midnightblue" points="128.87,-228.85 139.46,-228.41 130.91,-222.15 128.87,-228.85"/>
</g>
</g>
</svg>
