<?xml version="1.0" encoding="UTF-8" standalone="no"?>
<!DOCTYPE svg PUBLIC "-//W3C//DTD SVG 1.1//EN"
 "http://www.w3.org/Graphics/SVG/1.1/DTD/svg11.dtd">
<!-- Generated by graphviz version 2.47.1 (20210417.1919)
 -->
<!-- Title: hour Pages: 1 -->
<svg width="427pt" height="332pt"
 viewBox="0.00 0.00 427.00 332.00" xmlns="http://www.w3.org/2000/svg" xmlns:xlink="http://www.w3.org/1999/xlink">
<g id="graph0" class="graph" transform="scale(1 1) rotate(0) translate(4 328)">
<title>hour</title>
<polygon fill="white" stroke="transparent" points="-4,4 -4,-328 423,-328 423,4 -4,4"/>
<!-- Node1 -->
<g id="node1" class="node">
<title>Node1</title>
<g id="a_node1"><a xlink:title=" ">
<polygon fill="#bfbfbf" stroke="black" points="384,-152.5 384,-171.5 419,-171.5 419,-152.5 384,-152.5"/>
<text text-anchor="middle" x="401.5" y="-159.5" font-family="Helvetica,sans-Serif" font-size="10.00">hour</text>
</a>
</g>
</g>
<!-- Node2 -->
<g id="node2" class="node">
<title>Node2</title>
<g id="a_node2"><a xlink:href="classDate.html#a4bd7d118a675fff08c408914eaef02ac" target="_top" xlink:title=" ">
<polygon fill="white" stroke="black" points="131.5,-304.5 131.5,-323.5 188.5,-323.5 188.5,-304.5 131.5,-304.5"/>
<text text-anchor="middle" x="160" y="-311.5" font-family="Helvetica,sans-Serif" font-size="10.00">Date::get</text>
</a>
</g>
</g>
<!-- Node1&#45;&gt;Node2 -->
<g id="edge1" class="edge">
<title>Node1&#45;&gt;Node2</title>
<path fill="none" stroke="midnightblue" d="M398.94,-181.75C395.44,-211.6 384.15,-267.63 348,-295 301.3,-330.36 228.15,-325.47 188.61,-319.4"/>
<polygon fill="midnightblue" stroke="midnightblue" points="402.44,-182 399.94,-171.71 395.47,-181.31 402.44,-182"/>
</g>
<!-- Node4 -->
<g id="node4" class="node">
<title>Node4</title>
<g id="a_node4"><a xlink:href="classDate.html#a27cd68f63fa079225649f69b74527323" target="_top" xlink:title=" ">
<polygon fill="white" stroke="black" points="129,-228.5 129,-247.5 191,-247.5 191,-228.5 129,-228.5"/>
<text text-anchor="middle" x="160" y="-235.5" font-family="Helvetica,sans-Serif" font-size="10.00">Date::hour</text>
</a>
</g>
</g>
<!-- Node1&#45;&gt;Node4 -->
<g id="edge3" class="edge">
<title>Node1&#45;&gt;Node4</title>
<path fill="none" stroke="midnightblue" d="M389.22,-180.04C379.9,-193.23 365.4,-210.29 348,-219 297.51,-244.26 229.86,-244.06 191.3,-241.27"/>
<polygon fill="midnightblue" stroke="midnightblue" points="392.16,-181.92 394.81,-171.67 386.34,-178.03 392.16,-181.92"/>
</g>
<!-- Node8 -->
<g id="node8" class="node">
<title>Node8</title>
<g id="a_node8"><a xlink:href="structs__datetime.html#a32205231a1a2e9f16cd9866d06c90b22" target="_top" xlink:title=" ">
<polygon fill="white" stroke="black" points="259.5,-266.5 259.5,-285.5 330.5,-285.5 330.5,-266.5 259.5,-266.5"/>
<text text-anchor="middle" x="295" y="-273.5" font-family="Helvetica,sans-Serif" font-size="10.00">milliseconds</text>
</a>
</g>
</g>
<!-- Node1&#45;&gt;Node8 -->
<g id="edge7" class="edge">
<title>Node1&#45;&gt;Node8</title>
<path fill="none" stroke="midnightblue" d="M393.35,-181.24C385.09,-201.2 369.79,-232.2 348,-252 341.38,-258.02 332.98,-262.77 324.88,-266.4"/>
<polygon fill="midnightblue" stroke="midnightblue" points="396.71,-182.27 397.12,-171.68 390.19,-179.7 396.71,-182.27"/>
</g>
<!-- Node10 -->
<g id="node10" class="node">
<title>Node10</title>
<g id="a_node10"><a xlink:href="classDate.html#a45cfdbe97b09b42fa47714cd9610350b" target="_top" xlink:title=" ">
<polygon fill="white" stroke="black" points="257.5,-190.5 257.5,-209.5 332.5,-209.5 332.5,-190.5 257.5,-190.5"/>
<text text-anchor="middle" x="295" y="-197.5" font-family="Helvetica,sans-Serif" font-size="10.00">Date::setDay</text>
</a>
</g>
</g>
<!-- Node1&#45;&gt;Node10 -->
<g id="edge12" class="edge">
<title>Node1&#45;&gt;Node10</title>
<path fill="none" stroke="midnightblue" d="M373.97,-171.65C358.07,-177.43 337.95,-184.74 322.13,-190.5"/>
<polygon fill="midnightblue" stroke="midnightblue" points="375.51,-174.81 383.71,-168.11 373.12,-168.23 375.51,-174.81"/>
</g>
<!-- Node11 -->
<g id="node11" class="node">
<title>Node11</title>
<g id="a_node11"><a xlink:href="classDate.html#a9d65d72b12c17c5f20fb7ed85d8a1de7" target="_top" xlink:title=" ">
<polygon fill="white" stroke="black" points="242,-152.5 242,-171.5 348,-171.5 348,-152.5 242,-152.5"/>
<text text-anchor="middle" x="295" y="-159.5" font-family="Helvetica,sans-Serif" font-size="10.00">Date::setMillisecond</text>
</a>
</g>
</g>
<!-- Node1&#45;&gt;Node11 -->
<g id="edge13" class="edge">
<title>Node1&#45;&gt;Node11</title>
<path fill="none" stroke="midnightblue" d="M373.55,-162C365.83,-162 357.15,-162 348.45,-162"/>
<polygon fill="midnightblue" stroke="midnightblue" points="373.71,-165.5 383.71,-162 373.71,-158.5 373.71,-165.5"/>
</g>
<!-- Node12 -->
<g id="node12" class="node">
<title>Node12</title>
<g id="a_node12"><a xlink:href="classDate.html#a170c5247eafdaeab0aa0e99b55dc5610" target="_top" xlink:title=" ">
<polygon fill="white" stroke="black" points="252,-114.5 252,-133.5 338,-133.5 338,-114.5 252,-114.5"/>
<text text-anchor="middle" x="295" y="-121.5" font-family="Helvetica,sans-Serif" font-size="10.00">Date::setMinute</text>
</a>
</g>
</g>
<!-- Node1&#45;&gt;Node12 -->
<g id="edge14" class="edge">
<title>Node1&#45;&gt;Node12</title>
<path fill="none" stroke="midnightblue" d="M373.97,-152.35C358.07,-146.57 337.95,-139.26 322.13,-133.5"/>
<polygon fill="midnightblue" stroke="midnightblue" points="373.12,-155.77 383.71,-155.89 375.51,-149.19 373.12,-155.77"/>
</g>
<!-- Node13 -->
<g id="node13" class="node">
<title>Node13</title>
<g id="a_node13"><a xlink:href="classDate.html#aec519600b09c8957031753c63085562c" target="_top" xlink:title=" ">
<polygon fill="white" stroke="black" points="253,-76.5 253,-95.5 337,-95.5 337,-76.5 253,-76.5"/>
<text text-anchor="middle" x="295" y="-83.5" font-family="Helvetica,sans-Serif" font-size="10.00">Date::setMonth</text>
</a>
</g>
</g>
<!-- Node1&#45;&gt;Node13 -->
<g id="edge15" class="edge">
<title>Node1&#45;&gt;Node13</title>
<path fill="none" stroke="midnightblue" d="M387.58,-143.94C377.9,-131.52 363.67,-115.46 348,-105 342.4,-101.27 335.98,-98.15 329.6,-95.6"/>
<polygon fill="midnightblue" stroke="midnightblue" points="384.98,-146.3 393.78,-152.2 390.58,-142.1 384.98,-146.3"/>
</g>
<!-- Node14 -->
<g id="node14" class="node">
<title>Node14</title>
<g id="a_node14"><a xlink:href="classDate.html#a9b161ba26e10475d04e8030837e67e7f" target="_top" xlink:title=" ">
<polygon fill="white" stroke="black" points="250,-38.5 250,-57.5 340,-57.5 340,-38.5 250,-38.5"/>
<text text-anchor="middle" x="295" y="-45.5" font-family="Helvetica,sans-Serif" font-size="10.00">Date::setSecond</text>
</a>
</g>
</g>
<!-- Node1&#45;&gt;Node14 -->
<g id="edge16" class="edge">
<title>Node1&#45;&gt;Node14</title>
<path fill="none" stroke="midnightblue" d="M394.52,-142.89C386.93,-121.58 371.88,-87.45 348,-67 343.47,-63.12 338.09,-60.01 332.53,-57.52"/>
<polygon fill="midnightblue" stroke="midnightblue" points="391.23,-144.09 397.73,-152.46 397.87,-141.87 391.23,-144.09"/>
</g>
<!-- Node15 -->
<g id="node15" class="node">
<title>Node15</title>
<g id="a_node15"><a xlink:href="classDate.html#a2268b24626953c1eac1d5b18db74cc4b" target="_top" xlink:title=" ">
<polygon fill="white" stroke="black" points="256.5,-0.5 256.5,-19.5 333.5,-19.5 333.5,-0.5 256.5,-0.5"/>
<text text-anchor="middle" x="295" y="-7.5" font-family="Helvetica,sans-Serif" font-size="10.00">Date::setYear</text>
</a>
</g>
</g>
<!-- Node1&#45;&gt;Node15 -->
<g id="edge17" class="edge">
<title>Node1&#45;&gt;Node15</title>
<path fill="none" stroke="midnightblue" d="M397.91,-142.51C393.09,-113.85 380.17,-60.36 348,-29 343.87,-24.97 338.82,-21.79 333.51,-19.28"/>
<polygon fill="midnightblue" stroke="midnightblue" points="394.46,-143.13 399.42,-152.5 401.38,-142.09 394.46,-143.13"/>
</g>
<!-- Node3 -->
<g id="node3" class="node">
<title>Node3</title>
<g id="a_node3"><a xlink:href="classDate.html#ad4266ef239a3aec124099a2a29f671d8" target="_top" xlink:title=" ">
<polygon fill="white" stroke="black" points="6.5,-304.5 6.5,-323.5 71.5,-323.5 71.5,-304.5 6.5,-304.5"/>
<text text-anchor="middle" x="39" y="-311.5" font-family="Helvetica,sans-Serif" font-size="10.00">Date::Date</text>
</a>
</g>
</g>
<!-- Node2&#45;&gt;Node3 -->
<g id="edge2" class="edge">
<title>Node2&#45;&gt;Node3</title>
<path fill="none" stroke="midnightblue" d="M121.31,-314C105.33,-314 86.92,-314 71.66,-314"/>
<polygon fill="midnightblue" stroke="midnightblue" points="121.4,-317.5 131.4,-314 121.4,-310.5 121.4,-317.5"/>
</g>
<!-- Node5 -->
<g id="node5" class="node">
<title>Node5</title>
<g id="a_node5"><a xlink:href="classDate.html#a47ce47ac7778de3dce27a562e584fef3" target="_top" xlink:title=" ">
<polygon fill="white" stroke="black" points="6.5,-266.5 6.5,-285.5 71.5,-285.5 71.5,-266.5 6.5,-266.5"/>
<text text-anchor="middle" x="39" y="-273.5" font-family="Helvetica,sans-Serif" font-size="10.00">Date::Date</text>
</a>
</g>
</g>
<!-- Node4&#45;&gt;Node5 -->
<g id="edge4" class="edge">
<title>Node4&#45;&gt;Node5</title>
<path fill="none" stroke="midnightblue" d="M119.29,-250.68C103.21,-255.81 84.96,-261.64 70.02,-266.41"/>
<polygon fill="midnightblue" stroke="midnightblue" points="120.51,-253.97 128.97,-247.59 118.38,-247.3 120.51,-253.97"/>
</g>
<!-- Node6 -->
<g id="node6" class="node">
<title>Node6</title>
<g id="a_node6"><a xlink:href="classDate.html#a8d61659598ea0751255bb23274852ec3" target="_top" xlink:title=" ">
<polygon fill="white" stroke="black" points="10.5,-228.5 10.5,-247.5 67.5,-247.5 67.5,-228.5 10.5,-228.5"/>
<text text-anchor="middle" x="39" y="-235.5" font-family="Helvetica,sans-Serif" font-size="10.00">Date::set</text>
</a>
</g>
</g>
<!-- Node4&#45;&gt;Node6 -->
<g id="edge5" class="edge">
<title>Node4&#45;&gt;Node6</title>
<path fill="none" stroke="midnightblue" d="M118.83,-238C101.97,-238 82.79,-238 67.57,-238"/>
<polygon fill="midnightblue" stroke="midnightblue" points="118.97,-241.5 128.97,-238 118.97,-234.5 118.97,-241.5"/>
</g>
<!-- Node7 -->
<g id="node7" class="node">
<title>Node7</title>
<g id="a_node7"><a xlink:href="classDate.html#a738a67855699ffa60e5c54e0eccddd35" target="_top" xlink:title=" ">
<polygon fill="white" stroke="black" points="0,-190.5 0,-209.5 78,-209.5 78,-190.5 0,-190.5"/>
<text text-anchor="middle" x="39" y="-197.5" font-family="Helvetica,sans-Serif" font-size="10.00">Date::setHour</text>
</a>
</g>
</g>
<!-- Node4&#45;&gt;Node7 -->
<g id="edge6" class="edge">
<title>Node4&#45;&gt;Node7</title>
<path fill="none" stroke="midnightblue" d="M119.29,-225.32C103.21,-220.19 84.96,-214.36 70.02,-209.59"/>
<polygon fill="midnightblue" stroke="midnightblue" points="118.38,-228.7 128.97,-228.41 120.51,-222.03 118.38,-228.7"/>
</g>
<!-- Node8&#45;&gt;Node2 -->
<g id="edge8" class="edge">
<title>Node8&#45;&gt;Node2</title>
<path fill="none" stroke="midnightblue" d="M250.74,-288.36C230.36,-294.18 206.65,-300.96 188.72,-306.08"/>
<polygon fill="midnightblue" stroke="midnightblue" points="251.78,-291.7 260.44,-285.59 249.86,-284.97 251.78,-291.7"/>
</g>
<!-- Node9 -->
<g id="node9" class="node">
<title>Node9</title>
<g id="a_node9"><a xlink:href="classDate.html#aa55b19dce110414fe48e4e7d60d8cd79" target="_top" xlink:title=" ">
<polygon fill="white" stroke="black" points="114,-266.5 114,-285.5 206,-285.5 206,-266.5 114,-266.5"/>
<text text-anchor="middle" x="160" y="-273.5" font-family="Helvetica,sans-Serif" font-size="10.00">Date::millisecond</text>
</a>
</g>
</g>
<!-- Node8&#45;&gt;Node9 -->
<g id="edge9" class="edge">
<title>Node8&#45;&gt;Node9</title>
<path fill="none" stroke="midnightblue" d="M249.19,-276C235.42,-276 220.26,-276 206.45,-276"/>
<polygon fill="midnightblue" stroke="midnightblue" points="249.4,-279.5 259.4,-276 249.4,-272.5 249.4,-279.5"/>
</g>
<!-- Node9&#45;&gt;Node5 -->
<g id="edge10" class="edge">
<title>Node9&#45;&gt;Node5</title>
<path fill="none" stroke="midnightblue" d="M103.65,-276C92.63,-276 81.41,-276 71.53,-276"/>
<polygon fill="midnightblue" stroke="midnightblue" points="103.67,-279.5 113.67,-276 103.67,-272.5 103.67,-279.5"/>
</g>
<!-- Node9&#45;&gt;Node6 -->
<g id="edge11" class="edge">
<title>Node9&#45;&gt;Node6</title>
<path fill="none" stroke="midnightblue" d="M119.31,-263.33C102.34,-257.91 82.94,-251.71 67.57,-246.8"/>
<polygon fill="midnightblue" stroke="midnightblue" points="118.38,-266.7 128.97,-266.41 120.51,-260.03 118.38,-266.7"/>
</g>
</g>
</svg>
