<?xml version="1.0" encoding="UTF-8" standalone="no"?>
<!DOCTYPE svg PUBLIC "-//W3C//DTD SVG 1.1//EN"
 "http://www.w3.org/Graphics/SVG/1.1/DTD/svg11.dtd">
<!-- Generated by graphviz version 2.47.1 (20210417.1919)
 -->
<!-- Title: Vortex.h Pages: 1 -->
<svg width="850pt" height="252pt"
 viewBox="0.00 0.00 849.98 252.00" xmlns="http://www.w3.org/2000/svg" xmlns:xlink="http://www.w3.org/1999/xlink">
<g id="graph0" class="graph" transform="scale(1 1) rotate(0) translate(4 248)">
<title>Vortex.h</title>
<polygon fill="white" stroke="transparent" points="-4,4 -4,-248 845.98,-248 845.98,4 -4,4"/>
<!-- Node1 -->
<g id="node1" class="node">
<title>Node1</title>
<g id="a_node1"><a xlink:title=" ">
<polygon fill="#bfbfbf" stroke="black" points="478.98,-224.5 478.98,-243.5 531.98,-243.5 531.98,-224.5 478.98,-224.5"/>
<text text-anchor="middle" x="505.48" y="-231.5" font-family="Helvetica,sans-Serif" font-size="10.00">Vortex.h</text>
</a>
</g>
</g>
<!-- Node2 -->
<g id="node2" class="node">
<title>Node2</title>
<g id="a_node2"><a xlink:title=" ">
<polygon fill="white" stroke="#bfbfbf" points="25.48,-0.5 25.48,-19.5 63.48,-19.5 63.48,-0.5 25.48,-0.5"/>
<text text-anchor="middle" x="44.48" y="-7.5" font-family="Helvetica,sans-Serif" font-size="10.00">array</text>
</a>
</g>
</g>
<!-- Node1&#45;&gt;Node2 -->
<g id="edge1" class="edge">
<title>Node1&#45;&gt;Node2</title>
<path fill="none" stroke="midnightblue" d="M478.76,-231.81C407,-227.6 205.74,-209.24 61.48,-132 29.61,-114.94 16.75,-109.22 2.48,-76 -5.37,-57.73 9.89,-38.87 24.16,-26.2"/>
<polygon fill="midnightblue" stroke="midnightblue" points="26.78,-28.57 32.27,-19.51 22.33,-23.17 26.78,-28.57"/>
</g>
<!-- Node3 -->
<g id="node3" class="node">
<title>Node3</title>
<g id="a_node3"><a xlink:title=" ">
<polygon fill="white" stroke="#bfbfbf" points="792.98,-56.5 792.98,-75.5 841.98,-75.5 841.98,-56.5 792.98,-56.5"/>
<text text-anchor="middle" x="817.48" y="-63.5" font-family="Helvetica,sans-Serif" font-size="10.00">cassert</text>
</a>
</g>
</g>
<!-- Node1&#45;&gt;Node3 -->
<g id="edge2" class="edge">
<title>Node1&#45;&gt;Node3</title>
<path fill="none" stroke="midnightblue" d="M521.81,-224.31C572.99,-197.08 730.47,-113.29 792.24,-80.43"/>
<polygon fill="midnightblue" stroke="midnightblue" points="794.12,-83.39 801.31,-75.61 790.83,-77.21 794.12,-83.39"/>
</g>
<!-- Node4 -->
<g id="node4" class="node">
<title>Node4</title>
<g id="a_node4"><a xlink:title=" ">
<polygon fill="white" stroke="#bfbfbf" points="725.48,-168.5 725.48,-187.5 765.48,-187.5 765.48,-168.5 725.48,-168.5"/>
<text text-anchor="middle" x="745.48" y="-175.5" font-family="Helvetica,sans-Serif" font-size="10.00">utility</text>
</a>
</g>
</g>
<!-- Node1&#45;&gt;Node4 -->
<g id="edge3" class="edge">
<title>Node1&#45;&gt;Node4</title>
<path fill="none" stroke="midnightblue" d="M532.23,-227.55C571.61,-219.43 647.43,-203.47 711.48,-188 712.75,-187.69 714.04,-187.38 715.35,-187.05"/>
<polygon fill="midnightblue" stroke="midnightblue" points="716.56,-190.35 725.38,-184.48 714.82,-183.57 716.56,-190.35"/>
</g>
<!-- Node5 -->
<g id="node5" class="node">
<title>Node5</title>
<g id="a_node5"><a xlink:title=" ">
<polygon fill="white" stroke="#bfbfbf" points="224.48,-56.5 224.48,-75.5 268.48,-75.5 268.48,-56.5 224.48,-56.5"/>
<text text-anchor="middle" x="246.48" y="-63.5" font-family="Helvetica,sans-Serif" font-size="10.00">vector</text>
</a>
</g>
</g>
<!-- Node1&#45;&gt;Node5 -->
<g id="edge4" class="edge">
<title>Node1&#45;&gt;Node5</title>
<path fill="none" stroke="midnightblue" d="M478.71,-231.57C442.77,-228.49 378.26,-218.75 333.48,-188 294.69,-161.37 267.11,-111.51 254.38,-84.87"/>
<polygon fill="midnightblue" stroke="midnightblue" points="257.47,-83.21 250.11,-75.59 251.12,-86.14 257.47,-83.21"/>
</g>
<!-- Node6 -->
<g id="node6" class="node">
<title>Node6</title>
<g id="a_node6"><a xlink:href="AtcfLine_8h.html" target="_top" xlink:title=" ">
<polygon fill="white" stroke="black" points="342.98,-168.5 342.98,-187.5 403.98,-187.5 403.98,-168.5 342.98,-168.5"/>
<text text-anchor="middle" x="373.48" y="-175.5" font-family="Helvetica,sans-Serif" font-size="10.00">AtcfLine.h</text>
</a>
</g>
</g>
<!-- Node1&#45;&gt;Node6 -->
<g id="edge5" class="edge">
<title>Node1&#45;&gt;Node6</title>
<path fill="none" stroke="midnightblue" d="M484.56,-224.44C462.74,-215.52 428.33,-201.44 403.59,-191.32"/>
<polygon fill="midnightblue" stroke="midnightblue" points="404.88,-188.06 394.3,-187.52 402.23,-194.54 404.88,-188.06"/>
</g>
<!-- Node18 -->
<g id="node18" class="node">
<title>Node18</title>
<g id="a_node18"><a xlink:href="Physical_8h.html" target="_top" xlink:title=" ">
<polygon fill="white" stroke="black" points="607.48,-112.5 607.48,-131.5 669.48,-131.5 669.48,-112.5 607.48,-112.5"/>
<text text-anchor="middle" x="638.48" y="-119.5" font-family="Helvetica,sans-Serif" font-size="10.00">Physical.h</text>
</a>
</g>
</g>
<!-- Node1&#45;&gt;Node18 -->
<g id="edge31" class="edge">
<title>Node1&#45;&gt;Node18</title>
<path fill="none" stroke="midnightblue" d="M515.92,-224.37C538.45,-205.73 591.89,-161.53 620.18,-138.13"/>
<polygon fill="midnightblue" stroke="midnightblue" points="622.62,-140.66 628.09,-131.59 618.16,-135.27 622.62,-140.66"/>
</g>
<!-- Node6&#45;&gt;Node2 -->
<g id="edge6" class="edge">
<title>Node6&#45;&gt;Node2</title>
<path fill="none" stroke="midnightblue" d="M342.69,-173.54C261.79,-163.72 46.87,-132.65 9.48,-76 -1.14,-59.9 12.81,-40.27 26.12,-26.83"/>
<polygon fill="midnightblue" stroke="midnightblue" points="28.82,-29.1 33.7,-19.69 24.02,-24 28.82,-29.1"/>
</g>
<!-- Node6&#45;&gt;Node5 -->
<g id="edge10" class="edge">
<title>Node6&#45;&gt;Node5</title>
<path fill="none" stroke="midnightblue" d="M363.51,-168.37C342.09,-149.81 291.41,-105.91 264.3,-82.44"/>
<polygon fill="midnightblue" stroke="midnightblue" points="266.25,-79.49 256.4,-75.59 261.67,-84.78 266.25,-79.49"/>
</g>
<!-- Node7 -->
<g id="node7" class="node">
<title>Node7</title>
<g id="a_node7"><a xlink:title=" ">
<polygon fill="white" stroke="#bfbfbf" points="346.48,-56.5 346.48,-75.5 400.48,-75.5 400.48,-56.5 346.48,-56.5"/>
<text text-anchor="middle" x="373.48" y="-63.5" font-family="Helvetica,sans-Serif" font-size="10.00">iostream</text>
</a>
</g>
</g>
<!-- Node6&#45;&gt;Node7 -->
<g id="edge7" class="edge">
<title>Node6&#45;&gt;Node7</title>
<path fill="none" stroke="midnightblue" d="M373.48,-168.37C373.48,-150.62 373.48,-109.67 373.48,-85.6"/>
<polygon fill="midnightblue" stroke="midnightblue" points="376.98,-85.59 373.48,-75.59 369.98,-85.59 376.98,-85.59"/>
</g>
<!-- Node8 -->
<g id="node8" class="node">
<title>Node8</title>
<g id="a_node8"><a xlink:title=" ">
<polygon fill="white" stroke="#bfbfbf" points="286.98,-56.5 286.98,-75.5 327.98,-75.5 327.98,-56.5 286.98,-56.5"/>
<text text-anchor="middle" x="307.48" y="-63.5" font-family="Helvetica,sans-Serif" font-size="10.00">string</text>
</a>
</g>
</g>
<!-- Node6&#45;&gt;Node8 -->
<g id="edge8" class="edge">
<title>Node6&#45;&gt;Node8</title>
<path fill="none" stroke="midnightblue" d="M368.3,-168.37C357.46,-150.3 332.19,-108.18 317.86,-84.31"/>
<polygon fill="midnightblue" stroke="midnightblue" points="320.78,-82.37 312.63,-75.59 314.78,-85.97 320.78,-82.37"/>
</g>
<!-- Node9 -->
<g id="node9" class="node">
<title>Node9</title>
<g id="a_node9"><a xlink:title=" ">
<polygon fill="white" stroke="#bfbfbf" points="678.48,-56.5 678.48,-75.5 716.48,-75.5 716.48,-56.5 678.48,-56.5"/>
<text text-anchor="middle" x="697.48" y="-63.5" font-family="Helvetica,sans-Serif" font-size="10.00">tuple</text>
</a>
</g>
</g>
<!-- Node6&#45;&gt;Node9 -->
<g id="edge9" class="edge">
<title>Node6&#45;&gt;Node9</title>
<path fill="none" stroke="midnightblue" d="M398.63,-168.46C457.93,-148.33 606.16,-98 668.81,-76.73"/>
<polygon fill="midnightblue" stroke="midnightblue" points="670.1,-79.99 678.45,-73.46 667.85,-73.36 670.1,-79.99"/>
</g>
<!-- Node10 -->
<g id="node10" class="node">
<title>Node10</title>
<g id="a_node10"><a xlink:href="Date_8h.html" target="_top" xlink:title=" ">
<polygon fill="white" stroke="black" points="410.48,-112.5 410.48,-131.5 456.48,-131.5 456.48,-112.5 410.48,-112.5"/>
<text text-anchor="middle" x="433.48" y="-119.5" font-family="Helvetica,sans-Serif" font-size="10.00">Date.h</text>
</a>
</g>
</g>
<!-- Node6&#45;&gt;Node10 -->
<g id="edge11" class="edge">
<title>Node6&#45;&gt;Node10</title>
<path fill="none" stroke="midnightblue" d="M383.12,-168.32C391.99,-160.34 405.35,-148.31 416.09,-138.65"/>
<polygon fill="midnightblue" stroke="midnightblue" points="418.57,-141.13 423.66,-131.83 413.89,-135.92 418.57,-141.13"/>
</g>
<!-- Node15 -->
<g id="node15" class="node">
<title>Node15</title>
<g id="a_node15"><a xlink:href="Isotach_8h.html" target="_top" xlink:title=" ">
<polygon fill="white" stroke="black" points="149.98,-112.5 149.98,-131.5 206.98,-131.5 206.98,-112.5 149.98,-112.5"/>
<text text-anchor="middle" x="178.48" y="-119.5" font-family="Helvetica,sans-Serif" font-size="10.00">Isotach.h</text>
</a>
</g>
</g>
<!-- Node6&#45;&gt;Node15 -->
<g id="edge19" class="edge">
<title>Node6&#45;&gt;Node15</title>
<path fill="none" stroke="midnightblue" d="M342.58,-168.44C308.52,-159.01 253.68,-143.83 216.88,-133.63"/>
<polygon fill="midnightblue" stroke="midnightblue" points="217.58,-130.2 207.01,-130.9 215.72,-136.94 217.58,-130.2"/>
</g>
<!-- Node6&#45;&gt;Node18 -->
<g id="edge26" class="edge">
<title>Node6&#45;&gt;Node18</title>
<path fill="none" stroke="midnightblue" d="M404.14,-170.75C451.88,-161.02 544.04,-142.24 597.46,-131.36"/>
<polygon fill="midnightblue" stroke="midnightblue" points="598.18,-134.78 607.28,-129.36 596.78,-127.93 598.18,-134.78"/>
</g>
<!-- Node10&#45;&gt;Node5 -->
<g id="edge18" class="edge">
<title>Node10&#45;&gt;Node5</title>
<path fill="none" stroke="midnightblue" d="M410.22,-114.3C381.52,-106.04 330.97,-91.47 278.34,-76.25"/>
<polygon fill="midnightblue" stroke="midnightblue" points="279.07,-72.81 268.49,-73.4 277.13,-79.54 279.07,-72.81"/>
</g>
<!-- Node10&#45;&gt;Node7 -->
<g id="edge14" class="edge">
<title>Node10&#45;&gt;Node7</title>
<path fill="none" stroke="midnightblue" d="M423.84,-112.32C414.97,-104.34 401.6,-92.31 390.87,-82.65"/>
<polygon fill="midnightblue" stroke="midnightblue" points="393.07,-79.92 383.29,-75.83 388.39,-85.13 393.07,-79.92"/>
</g>
<!-- Node10&#45;&gt;Node8 -->
<g id="edge16" class="edge">
<title>Node10&#45;&gt;Node8</title>
<path fill="none" stroke="midnightblue" d="M413.51,-112.44C392.87,-103.6 360.42,-89.69 336.85,-79.59"/>
<polygon fill="midnightblue" stroke="midnightblue" points="337.92,-76.24 327.35,-75.52 335.16,-82.67 337.92,-76.24"/>
</g>
<!-- Node11 -->
<g id="node11" class="node">
<title>Node11</title>
<g id="a_node11"><a xlink:title=" ">
<polygon fill="white" stroke="#bfbfbf" points="418.48,-56.5 418.48,-75.5 464.48,-75.5 464.48,-56.5 418.48,-56.5"/>
<text text-anchor="middle" x="441.48" y="-63.5" font-family="Helvetica,sans-Serif" font-size="10.00">chrono</text>
</a>
</g>
</g>
<!-- Node10&#45;&gt;Node11 -->
<g id="edge12" class="edge">
<title>Node10&#45;&gt;Node11</title>
<path fill="none" stroke="midnightblue" d="M434.8,-112.08C435.86,-104.93 437.39,-94.64 438.71,-85.69"/>
<polygon fill="midnightblue" stroke="midnightblue" points="442.18,-86.16 440.18,-75.75 435.26,-85.13 442.18,-86.16"/>
</g>
<!-- Node12 -->
<g id="node12" class="node">
<title>Node12</title>
<g id="a_node12"><a xlink:title=" ">
<polygon fill="white" stroke="#bfbfbf" points="616.48,-56.5 616.48,-75.5 660.48,-75.5 660.48,-56.5 616.48,-56.5"/>
<text text-anchor="middle" x="638.48" y="-63.5" font-family="Helvetica,sans-Serif" font-size="10.00">cmath</text>
</a>
</g>
</g>
<!-- Node10&#45;&gt;Node12 -->
<g id="edge13" class="edge">
<title>Node10&#45;&gt;Node12</title>
<path fill="none" stroke="midnightblue" d="M456.62,-115.25C488.25,-107.33 546.99,-92.46 606.25,-76.28"/>
<polygon fill="midnightblue" stroke="midnightblue" points="607.43,-79.59 616.15,-73.57 605.58,-72.84 607.43,-79.59"/>
</g>
<!-- Node13 -->
<g id="node13" class="node">
<title>Node13</title>
<g id="a_node13"><a xlink:title=" ">
<polygon fill="white" stroke="#bfbfbf" points="482.98,-56.5 482.98,-75.5 517.98,-75.5 517.98,-56.5 482.98,-56.5"/>
<text text-anchor="middle" x="500.48" y="-63.5" font-family="Helvetica,sans-Serif" font-size="10.00">ratio</text>
</a>
</g>
</g>
<!-- Node10&#45;&gt;Node13 -->
<g id="edge15" class="edge">
<title>Node10&#45;&gt;Node13</title>
<path fill="none" stroke="midnightblue" d="M444.24,-112.32C454.25,-104.26 469.37,-92.08 481.41,-82.37"/>
<polygon fill="midnightblue" stroke="midnightblue" points="483.93,-84.83 489.52,-75.83 479.54,-79.38 483.93,-84.83"/>
</g>
<!-- Node14 -->
<g id="node14" class="node">
<title>Node14</title>
<g id="a_node14"><a xlink:title=" ">
<polygon fill="white" stroke="#bfbfbf" points="536.48,-56.5 536.48,-75.5 598.48,-75.5 598.48,-56.5 536.48,-56.5"/>
<text text-anchor="middle" x="567.48" y="-63.5" font-family="Helvetica,sans-Serif" font-size="10.00">type_traits</text>
</a>
</g>
</g>
<!-- Node10&#45;&gt;Node14 -->
<g id="edge17" class="edge">
<title>Node10&#45;&gt;Node14</title>
<path fill="none" stroke="midnightblue" d="M454.71,-112.44C476.86,-103.52 511.8,-89.44 536.92,-79.32"/>
<polygon fill="midnightblue" stroke="midnightblue" points="538.38,-82.5 546.35,-75.52 535.76,-76.01 538.38,-82.5"/>
</g>
<!-- Node15&#45;&gt;Node2 -->
<g id="edge20" class="edge">
<title>Node15&#45;&gt;Node2</title>
<path fill="none" stroke="midnightblue" d="M166.08,-112.36C153.57,-103.53 133.83,-89.27 117.48,-76 97.65,-59.91 75.91,-40.28 61.36,-26.83"/>
<polygon fill="midnightblue" stroke="midnightblue" points="63.39,-23.94 53.69,-19.7 58.63,-29.07 63.39,-23.94"/>
</g>
<!-- Node15&#45;&gt;Node5 -->
<g id="edge23" class="edge">
<title>Node15&#45;&gt;Node5</title>
<path fill="none" stroke="midnightblue" d="M189.4,-112.32C199.65,-104.18 215.2,-91.84 227.48,-82.09"/>
<polygon fill="midnightblue" stroke="midnightblue" points="229.7,-84.79 235.36,-75.83 225.35,-79.31 229.7,-84.79"/>
</g>
<!-- Node15&#45;&gt;Node8 -->
<g id="edge22" class="edge">
<title>Node15&#45;&gt;Node8</title>
<path fill="none" stroke="midnightblue" d="M198.92,-112.44C220.15,-103.56 253.58,-89.56 277.73,-79.45"/>
<polygon fill="midnightblue" stroke="midnightblue" points="279.26,-82.61 287.13,-75.52 276.56,-76.15 279.26,-82.61"/>
</g>
<!-- Node16 -->
<g id="node16" class="node">
<title>Node16</title>
<g id="a_node16"><a xlink:title=" ">
<polygon fill="white" stroke="#bfbfbf" points="18.48,-56.5 18.48,-75.5 70.48,-75.5 70.48,-56.5 18.48,-56.5"/>
<text text-anchor="middle" x="44.48" y="-63.5" font-family="Helvetica,sans-Serif" font-size="10.00">ostream</text>
</a>
</g>
</g>
<!-- Node15&#45;&gt;Node16 -->
<g id="edge21" class="edge">
<title>Node15&#45;&gt;Node16</title>
<path fill="none" stroke="midnightblue" d="M157.25,-112.44C135.1,-103.52 100.16,-89.44 75.04,-79.32"/>
<polygon fill="midnightblue" stroke="midnightblue" points="76.2,-76.01 65.61,-75.52 73.58,-82.5 76.2,-76.01"/>
</g>
<!-- Node17 -->
<g id="node17" class="node">
<title>Node17</title>
<g id="a_node17"><a xlink:href="CircularArray_8h.html" target="_top" xlink:title=" ">
<polygon fill="white" stroke="black" points="126.48,-56.5 126.48,-75.5 206.48,-75.5 206.48,-56.5 126.48,-56.5"/>
<text text-anchor="middle" x="166.48" y="-63.5" font-family="Helvetica,sans-Serif" font-size="10.00">CircularArray.h</text>
</a>
</g>
</g>
<!-- Node15&#45;&gt;Node17 -->
<g id="edge24" class="edge">
<title>Node15&#45;&gt;Node17</title>
<path fill="none" stroke="midnightblue" d="M176.5,-112.08C174.91,-104.93 172.62,-94.64 170.63,-85.69"/>
<polygon fill="midnightblue" stroke="midnightblue" points="174.01,-84.75 168.42,-75.75 167.18,-86.27 174.01,-84.75"/>
</g>
<!-- Node17&#45;&gt;Node2 -->
<g id="edge25" class="edge">
<title>Node17&#45;&gt;Node2</title>
<path fill="none" stroke="midnightblue" d="M147.15,-56.44C127.16,-47.6 95.74,-33.69 72.92,-23.59"/>
<polygon fill="midnightblue" stroke="midnightblue" points="74.28,-20.36 63.72,-19.52 71.45,-26.76 74.28,-20.36"/>
</g>
<!-- Node18&#45;&gt;Node3 -->
<g id="edge27" class="edge">
<title>Node18&#45;&gt;Node3</title>
<path fill="none" stroke="midnightblue" d="M666.84,-112.44C698.29,-102.96 749.03,-87.65 782.81,-77.46"/>
<polygon fill="midnightblue" stroke="midnightblue" points="784.14,-80.71 792.71,-74.47 782.12,-74.01 784.14,-80.71"/>
</g>
<!-- Node18&#45;&gt;Node9 -->
<g id="edge30" class="edge">
<title>Node18&#45;&gt;Node9</title>
<path fill="none" stroke="midnightblue" d="M647.96,-112.32C656.68,-104.34 669.82,-92.31 680.38,-82.65"/>
<polygon fill="midnightblue" stroke="midnightblue" points="682.81,-85.17 687.83,-75.83 678.09,-80 682.81,-85.17"/>
</g>
<!-- Node18&#45;&gt;Node12 -->
<g id="edge28" class="edge">
<title>Node18&#45;&gt;Node12</title>
<path fill="none" stroke="midnightblue" d="M638.48,-112.08C638.48,-105.01 638.48,-94.86 638.48,-85.99"/>
<polygon fill="midnightblue" stroke="midnightblue" points="641.98,-85.75 638.48,-75.75 634.98,-85.75 641.98,-85.75"/>
</g>
<!-- Node19 -->
<g id="node19" class="node">
<title>Node19</title>
<g id="a_node19"><a xlink:title=" ">
<polygon fill="white" stroke="#bfbfbf" points="734.48,-56.5 734.48,-75.5 774.48,-75.5 774.48,-56.5 734.48,-56.5"/>
<text text-anchor="middle" x="754.48" y="-63.5" font-family="Helvetica,sans-Serif" font-size="10.00">limits</text>
</a>
</g>
</g>
<!-- Node18&#45;&gt;Node19 -->
<g id="edge29" class="edge">
<title>Node18&#45;&gt;Node19</title>
<path fill="none" stroke="midnightblue" d="M656.86,-112.44C675.7,-103.68 705.21,-89.94 726.86,-79.86"/>
<polygon fill="midnightblue" stroke="midnightblue" points="728.6,-82.91 736.18,-75.52 725.64,-76.56 728.6,-82.91"/>
</g>
</g>
</svg>
