<?xml version="1.0" encoding="UTF-8" standalone="no"?>
<!DOCTYPE svg PUBLIC "-//W3C//DTD SVG 1.1//EN"
 "http://www.w3.org/Graphics/SVG/1.1/DTD/svg11.dtd">
<!-- Generated by graphviz version 2.47.1 (20210417.1919)
 -->
<!-- Title: Vortex.cpp Pages: 1 -->
<!--zoomable 308 -->
<svg id="main" version="1.1" xmlns="http://www.w3.org/2000/svg" xmlns:xlink="http://www.w3.org/1999/xlink" xml:space="preserve" onload="init(evt)">
<style type="text/css"><![CDATA[
.edge:hover path { stroke: red; }
.edge:hover polygon { stroke: red; fill: red; }
]]></style>
<script type="text/javascript"><![CDATA[
var edges = document.getElementsByTagName('g');
if (edges && edges.length) {
  for (var i=0;i<edges.length;i++) {
    if (edges[i].id.substr(0,4)=='edge') {
      edges[i].setAttribute('class','edge');
    }
  }
}
]]></script>
        <defs>
                <circle id="rim" cx="0" cy="0" r="7"/>
                <circle id="rim2" cx="0" cy="0" r="3.5"/>
                <g id="zoomPlus">
                        <use xlink:href="#rim" fill="#404040">
                                <set attributeName="fill" to="#808080" begin="zoomplus.mouseover" end="zoomplus.mouseout"/>
                        </use>
                        <path d="M-4,0h8M0,-4v8" fill="none" stroke="white" stroke-width="1.5" pointer-events="none"/>
                </g>
                <g id="zoomMin">
                        <use xlink:href="#rim" fill="#404040">
                                <set attributeName="fill" to="#808080" begin="zoomminus.mouseover" end="zoomminus.mouseout"/>
                        </use>
                        <path d="M-4,0h8" fill="none" stroke="white" stroke-width="1.5" pointer-events="none"/>
                </g>
                <g id="dirArrow">
                        <path fill="none" stroke="white" stroke-width="1.5" d="M0,-3.0v7 M-2.5,-0.5L0,-3.0L2.5,-0.5"/>
                </g>
               <g id="resetDef">
                       <use xlink:href="#rim2" fill="#404040">
                               <set attributeName="fill" to="#808080" begin="reset.mouseover" end="reset.mouseout"/>
                       </use>
               </g>
        </defs>

<script type="text/javascript">
var viewWidth = 1180;
var viewHeight = 308;
var sectionId = 'dynsection-0';
</script>
<script xlink:href="svgpan.js"/>
<svg id="graph" class="graph">
<g id="viewport">
<title>Vortex.cpp</title>
<polygon fill="white" stroke="transparent" points="-4,4 -4,-304 1176.33,-304 1176.33,4 -4,4"/>
<!-- Node1 -->
<g id="node1" class="node">
<title>Node1</title>
<g id="a_node1"><a xlink:title=" ">
<polygon fill="#bfbfbf" stroke="black" points="760.83,-280.5 760.83,-299.5 824.83,-299.5 824.83,-280.5 760.83,-280.5"/>
<text text-anchor="middle" x="792.83" y="-287.5" font-family="Helvetica,sans-Serif" font-size="10.00">Vortex.cpp</text>
</a>
</g>
</g>
<!-- Node2 -->
<g id="node2" class="node">
<title>Node2</title>
<g id="a_node2"><a xlink:href="Vortex_8h.html" target="_top" xlink:title=" ">
<polygon fill="white" stroke="black" points="594.33,-224.5 594.33,-243.5 647.33,-243.5 647.33,-224.5 594.33,-224.5"/>
<text text-anchor="middle" x="620.83" y="-231.5" font-family="Helvetica,sans-Serif" font-size="10.00">Vortex.h</text>
</a>
</g>
</g>
<!-- Node1&#45;&gt;Node2 -->
<g id="edge1" class="edge">
<title>Node1&#45;&gt;Node2</title>
<path fill="none" stroke="midnightblue" d="M765.57,-280.44C736.21,-271.23 689.36,-256.52 656.95,-246.34"/>
<polygon fill="midnightblue" stroke="midnightblue" points="657.98,-243 647.39,-243.34 655.88,-249.67 657.98,-243"/>
</g>
<!-- Node4 -->
<g id="node4" class="node">
<title>Node4</title>
<g id="a_node4"><a xlink:title=" ">
<polygon fill="white" stroke="#bfbfbf" points="768.33,-56.5 768.33,-75.5 817.33,-75.5 817.33,-56.5 768.33,-56.5"/>
<text text-anchor="middle" x="792.83" y="-63.5" font-family="Helvetica,sans-Serif" font-size="10.00">cassert</text>
</a>
</g>
</g>
<!-- Node1&#45;&gt;Node4 -->
<g id="edge33" class="edge">
<title>Node1&#45;&gt;Node4</title>
<path fill="none" stroke="midnightblue" d="M792.83,-280.3C792.83,-247.63 792.83,-131.87 792.83,-85.96"/>
<polygon fill="midnightblue" stroke="midnightblue" points="796.33,-85.88 792.83,-75.88 789.33,-85.88 796.33,-85.88"/>
</g>
<!-- Node5 -->
<g id="node5" class="node">
<title>Node5</title>
<g id="a_node5"><a xlink:title=" ">
<polygon fill="white" stroke="#bfbfbf" points="686.83,-168.5 686.83,-187.5 726.83,-187.5 726.83,-168.5 686.83,-168.5"/>
<text text-anchor="middle" x="706.83" y="-175.5" font-family="Helvetica,sans-Serif" font-size="10.00">utility</text>
</a>
</g>
</g>
<!-- Node1&#45;&gt;Node5 -->
<g id="edge36" class="edge">
<title>Node1&#45;&gt;Node5</title>
<path fill="none" stroke="midnightblue" d="M780.51,-280.45C769.17,-272.12 752.39,-258.6 740.83,-244 729.36,-229.52 719.98,-210.58 713.99,-196.89"/>
<polygon fill="midnightblue" stroke="midnightblue" points="717.19,-195.47 710.1,-187.6 710.74,-198.17 717.19,-195.47"/>
</g>
<!-- Node19 -->
<g id="node19" class="node">
<title>Node19</title>
<g id="a_node19"><a xlink:href="Physical_8h.html" target="_top" xlink:title=" ">
<polygon fill="white" stroke="black" points="664.83,-112.5 664.83,-131.5 726.83,-131.5 726.83,-112.5 664.83,-112.5"/>
<text text-anchor="middle" x="695.83" y="-119.5" font-family="Helvetica,sans-Serif" font-size="10.00">Physical.h</text>
</a>
</g>
</g>
<!-- Node1&#45;&gt;Node19 -->
<g id="edge40" class="edge">
<title>Node1&#45;&gt;Node19</title>
<path fill="none" stroke="midnightblue" d="M789.74,-280.35C782.22,-259.85 761.67,-207.15 735.83,-168 729,-157.66 719.93,-147.25 712.14,-139.05"/>
<polygon fill="midnightblue" stroke="midnightblue" points="714.42,-136.38 704.92,-131.68 709.42,-141.27 714.42,-136.38"/>
</g>
<!-- Node20 -->
<g id="node20" class="node">
<title>Node20</title>
<g id="a_node20"><a xlink:title=" ">
<polygon fill="white" stroke="#bfbfbf" points="858.83,-56.5 858.83,-75.5 898.83,-75.5 898.83,-56.5 858.83,-56.5"/>
<text text-anchor="middle" x="878.83" y="-63.5" font-family="Helvetica,sans-Serif" font-size="10.00">limits</text>
</a>
</g>
</g>
<!-- Node1&#45;&gt;Node20 -->
<g id="edge34" class="edge">
<title>Node1&#45;&gt;Node20</title>
<path fill="none" stroke="midnightblue" d="M825.03,-281.83C845.15,-275.5 869.49,-264.06 881.83,-244 912.77,-193.68 895.56,-119.15 885.06,-85.13"/>
<polygon fill="midnightblue" stroke="midnightblue" points="888.38,-84.01 881.96,-75.58 881.72,-86.18 888.38,-84.01"/>
</g>
<!-- Node21 -->
<g id="node21" class="node">
<title>Node21</title>
<g id="a_node21"><a xlink:title=" ">
<polygon fill="white" stroke="#bfbfbf" points="821.33,-224.5 821.33,-243.5 872.33,-243.5 872.33,-224.5 821.33,-224.5"/>
<text text-anchor="middle" x="846.83" y="-231.5" font-family="Helvetica,sans-Serif" font-size="10.00">numeric</text>
</a>
</g>
</g>
<!-- Node1&#45;&gt;Node21 -->
<g id="edge35" class="edge">
<title>Node1&#45;&gt;Node21</title>
<path fill="none" stroke="midnightblue" d="M801.74,-280.08C809.61,-272.22 821.26,-260.57 830.75,-251.08"/>
<polygon fill="midnightblue" stroke="midnightblue" points="833.48,-253.3 838.08,-243.75 828.53,-248.35 833.48,-253.3"/>
</g>
<!-- Node22 -->
<g id="node22" class="node">
<title>Node22</title>
<g id="a_node22"><a xlink:href="Logging_8h.html" target="_top" xlink:title=" ">
<polygon fill="white" stroke="black" points="271.33,-112.5 271.33,-131.5 330.33,-131.5 330.33,-112.5 271.33,-112.5"/>
<text text-anchor="middle" x="300.83" y="-119.5" font-family="Helvetica,sans-Serif" font-size="10.00">Logging.h</text>
</a>
</g>
</g>
<!-- Node1&#45;&gt;Node22 -->
<g id="edge37" class="edge">
<title>Node1&#45;&gt;Node22</title>
<path fill="none" stroke="midnightblue" d="M760.66,-284.35C692.95,-273.75 531.78,-244.27 407.83,-188 376.11,-173.6 342.16,-151.75 321.21,-137.43"/>
<polygon fill="midnightblue" stroke="midnightblue" points="323.03,-134.43 312.82,-131.61 319.04,-140.18 323.03,-134.43"/>
</g>
<!-- Node23 -->
<g id="node23" class="node">
<title>Node23</title>
<g id="a_node23"><a xlink:title=" ">
<polygon fill="white" stroke="#bfbfbf" points="928.83,-224.5 928.83,-243.5 1020.83,-243.5 1020.83,-224.5 928.83,-224.5"/>
<text text-anchor="middle" x="974.83" y="-231.5" font-family="Helvetica,sans-Serif" font-size="10.00">boost/cstdint.hpp</text>
</a>
</g>
</g>
<!-- Node1&#45;&gt;Node23 -->
<g id="edge41" class="edge">
<title>Node1&#45;&gt;Node23</title>
<path fill="none" stroke="midnightblue" d="M821.67,-280.44C852.68,-271.24 902.16,-256.56 936.45,-246.39"/>
<polygon fill="midnightblue" stroke="midnightblue" points="937.53,-249.72 946.12,-243.52 935.54,-243.01 937.53,-249.72"/>
</g>
<!-- Node24 -->
<g id="node24" class="node">
<title>Node24</title>
<g id="a_node24"><a xlink:title=" ">
<polygon fill="white" stroke="#bfbfbf" points="1039.33,-224.5 1039.33,-243.5 1172.33,-243.5 1172.33,-224.5 1039.33,-224.5"/>
<text text-anchor="middle" x="1105.83" y="-231.5" font-family="Helvetica,sans-Serif" font-size="10.00">boost/math/tools/roots.hpp</text>
</a>
</g>
</g>
<!-- Node1&#45;&gt;Node24 -->
<g id="edge42" class="edge">
<title>Node1&#45;&gt;Node24</title>
<path fill="none" stroke="midnightblue" d="M824.85,-283.47C876.84,-274.51 980.39,-256.64 1046.22,-245.28"/>
<polygon fill="midnightblue" stroke="midnightblue" points="1047.19,-248.67 1056.45,-243.52 1046,-241.77 1047.19,-248.67"/>
</g>
<!-- Node3 -->
<g id="node3" class="node">
<title>Node3</title>
<g id="a_node3"><a xlink:title=" ">
<polygon fill="white" stroke="#bfbfbf" points="165.83,-0.5 165.83,-19.5 203.83,-19.5 203.83,-0.5 165.83,-0.5"/>
<text text-anchor="middle" x="184.83" y="-7.5" font-family="Helvetica,sans-Serif" font-size="10.00">array</text>
</a>
</g>
</g>
<!-- Node2&#45;&gt;Node3 -->
<g id="edge2" class="edge">
<title>Node2&#45;&gt;Node3</title>
<path fill="none" stroke="midnightblue" d="M594.02,-232.59C528.76,-231.03 356.87,-223.59 218.83,-188 155.93,-171.78 140.68,-163.42 83.83,-132 46.16,-111.18 24.59,-114.23 4.83,-76 -25.19,-17.93 97.26,-10.73 155.54,-10.5"/>
<polygon fill="midnightblue" stroke="midnightblue" points="155.62,-14 165.63,-10.53 155.64,-7 155.62,-14"/>
</g>
<!-- Node2&#45;&gt;Node4 -->
<g id="edge3" class="edge">
<title>Node2&#45;&gt;Node4</title>
<path fill="none" stroke="midnightblue" d="M627.14,-224.27C636.97,-211.07 656.99,-185.66 677.83,-168 700.97,-148.38 712.68,-151.62 735.83,-132 752.92,-117.51 769.46,-97.81 780.28,-83.91"/>
<polygon fill="midnightblue" stroke="midnightblue" points="783.24,-85.8 786.52,-75.73 777.67,-81.56 783.24,-85.8"/>
</g>
<!-- Node2&#45;&gt;Node5 -->
<g id="edge4" class="edge">
<title>Node2&#45;&gt;Node5</title>
<path fill="none" stroke="midnightblue" d="M634.64,-224.32C648.06,-215.9 668.65,-202.97 684.41,-193.07"/>
<polygon fill="midnightblue" stroke="midnightblue" points="686.44,-195.94 693.04,-187.65 682.71,-190.01 686.44,-195.94"/>
</g>
<!-- Node6 -->
<g id="node6" class="node">
<title>Node6</title>
<g id="a_node6"><a xlink:title=" ">
<polygon fill="white" stroke="#bfbfbf" points="13.83,-56.5 13.83,-75.5 57.83,-75.5 57.83,-56.5 13.83,-56.5"/>
<text text-anchor="middle" x="35.83" y="-63.5" font-family="Helvetica,sans-Serif" font-size="10.00">vector</text>
</a>
</g>
</g>
<!-- Node2&#45;&gt;Node6 -->
<g id="edge5" class="edge">
<title>Node2&#45;&gt;Node6</title>
<path fill="none" stroke="midnightblue" d="M594.25,-231.88C517.31,-227.76 289.09,-209.37 119.83,-132 93.26,-119.86 67.42,-97.86 51.57,-82.85"/>
<polygon fill="midnightblue" stroke="midnightblue" points="53.85,-80.18 44.24,-75.72 48.97,-85.2 53.85,-80.18"/>
</g>
<!-- Node7 -->
<g id="node7" class="node">
<title>Node7</title>
<g id="a_node7"><a xlink:href="AtcfLine_8h.html" target="_top" xlink:title=" ">
<polygon fill="white" stroke="black" points="417.33,-168.5 417.33,-187.5 478.33,-187.5 478.33,-168.5 417.33,-168.5"/>
<text text-anchor="middle" x="447.83" y="-175.5" font-family="Helvetica,sans-Serif" font-size="10.00">AtcfLine.h</text>
</a>
</g>
</g>
<!-- Node2&#45;&gt;Node7 -->
<g id="edge6" class="edge">
<title>Node2&#45;&gt;Node7</title>
<path fill="none" stroke="midnightblue" d="M594.18,-224.68C564.89,-215.54 517.64,-200.79 484.78,-190.53"/>
<polygon fill="midnightblue" stroke="midnightblue" points="485.67,-187.15 475.08,-187.51 483.58,-193.83 485.67,-187.15"/>
</g>
<!-- Node2&#45;&gt;Node19 -->
<g id="edge32" class="edge">
<title>Node2&#45;&gt;Node19</title>
<path fill="none" stroke="midnightblue" d="M622.58,-224.37C625.54,-211.29 632.45,-186.06 644.83,-168 652.86,-156.28 664.6,-145.64 674.8,-137.65"/>
<polygon fill="midnightblue" stroke="midnightblue" points="676.98,-140.39 682.89,-131.59 672.78,-134.79 676.98,-140.39"/>
</g>
<!-- Node7&#45;&gt;Node3 -->
<g id="edge7" class="edge">
<title>Node7&#45;&gt;Node3</title>
<path fill="none" stroke="midnightblue" d="M476.15,-168.49C531.84,-150.4 646.47,-105.71 601.83,-56 575.94,-27.17 304.83,-15.17 214.17,-11.95"/>
<polygon fill="midnightblue" stroke="midnightblue" points="214.15,-8.44 204.04,-11.6 213.91,-15.44 214.15,-8.44"/>
</g>
<!-- Node7&#45;&gt;Node6 -->
<g id="edge11" class="edge">
<title>Node7&#45;&gt;Node6</title>
<path fill="none" stroke="midnightblue" d="M417.31,-174.71C366.18,-170.28 260.4,-158.51 174.83,-132 132.67,-118.94 86.87,-95.57 59.79,-80.69"/>
<polygon fill="midnightblue" stroke="midnightblue" points="61.15,-77.44 50.71,-75.63 57.74,-83.56 61.15,-77.44"/>
</g>
<!-- Node8 -->
<g id="node8" class="node">
<title>Node8</title>
<g id="a_node8"><a xlink:title=" ">
<polygon fill="white" stroke="#bfbfbf" points="341.83,-56.5 341.83,-75.5 395.83,-75.5 395.83,-56.5 341.83,-56.5"/>
<text text-anchor="middle" x="368.83" y="-63.5" font-family="Helvetica,sans-Serif" font-size="10.00">iostream</text>
</a>
</g>
</g>
<!-- Node7&#45;&gt;Node8 -->
<g id="edge8" class="edge">
<title>Node7&#45;&gt;Node8</title>
<path fill="none" stroke="midnightblue" d="M441.63,-168.37C428.59,-150.22 398.13,-107.8 381.03,-83.99"/>
<polygon fill="midnightblue" stroke="midnightblue" points="383.67,-81.67 375,-75.59 377.99,-85.76 383.67,-81.67"/>
</g>
<!-- Node9 -->
<g id="node9" class="node">
<title>Node9</title>
<g id="a_node9"><a xlink:title=" ">
<polygon fill="white" stroke="#bfbfbf" points="282.33,-56.5 282.33,-75.5 323.33,-75.5 323.33,-56.5 282.33,-56.5"/>
<text text-anchor="middle" x="302.83" y="-63.5" font-family="Helvetica,sans-Serif" font-size="10.00">string</text>
</a>
</g>
</g>
<!-- Node7&#45;&gt;Node9 -->
<g id="edge9" class="edge">
<title>Node7&#45;&gt;Node9</title>
<path fill="none" stroke="midnightblue" d="M436.45,-168.37C411.78,-149.65 353.12,-105.15 322.38,-81.83"/>
<polygon fill="midnightblue" stroke="midnightblue" points="324.23,-78.85 314.15,-75.59 320,-84.42 324.23,-78.85"/>
</g>
<!-- Node10 -->
<g id="node10" class="node">
<title>Node10</title>
<g id="a_node10"><a xlink:title=" ">
<polygon fill="white" stroke="#bfbfbf" points="711.83,-56.5 711.83,-75.5 749.83,-75.5 749.83,-56.5 711.83,-56.5"/>
<text text-anchor="middle" x="730.83" y="-63.5" font-family="Helvetica,sans-Serif" font-size="10.00">tuple</text>
</a>
</g>
</g>
<!-- Node7&#45;&gt;Node10 -->
<g id="edge10" class="edge">
<title>Node7&#45;&gt;Node10</title>
<path fill="none" stroke="midnightblue" d="M478.34,-170.96C512,-163.77 567.42,-150.39 612.83,-132 647.88,-117.8 685.74,-95.6 708.87,-81.18"/>
<polygon fill="midnightblue" stroke="midnightblue" points="710.95,-84 717.54,-75.7 707.22,-78.08 710.95,-84"/>
</g>
<!-- Node11 -->
<g id="node11" class="node">
<title>Node11</title>
<g id="a_node11"><a xlink:href="Date_8h.html" target="_top" xlink:title=" ">
<polygon fill="white" stroke="black" points="424.83,-112.5 424.83,-131.5 470.83,-131.5 470.83,-112.5 424.83,-112.5"/>
<text text-anchor="middle" x="447.83" y="-119.5" font-family="Helvetica,sans-Serif" font-size="10.00">Date.h</text>
</a>
</g>
</g>
<!-- Node7&#45;&gt;Node11 -->
<g id="edge12" class="edge">
<title>Node7&#45;&gt;Node11</title>
<path fill="none" stroke="midnightblue" d="M447.83,-168.08C447.83,-161.01 447.83,-150.86 447.83,-141.99"/>
<polygon fill="midnightblue" stroke="midnightblue" points="451.33,-141.75 447.83,-131.75 444.33,-141.75 451.33,-141.75"/>
</g>
<!-- Node16 -->
<g id="node16" class="node">
<title>Node16</title>
<g id="a_node16"><a xlink:href="Isotach_8h.html" target="_top" xlink:title=" ">
<polygon fill="white" stroke="black" points="184.33,-112.5 184.33,-131.5 241.33,-131.5 241.33,-112.5 184.33,-112.5"/>
<text text-anchor="middle" x="212.83" y="-119.5" font-family="Helvetica,sans-Serif" font-size="10.00">Isotach.h</text>
</a>
</g>
</g>
<!-- Node7&#45;&gt;Node16 -->
<g id="edge20" class="edge">
<title>Node7&#45;&gt;Node16</title>
<path fill="none" stroke="midnightblue" d="M417.11,-169.94C374.54,-160.16 297.65,-142.49 251.31,-131.84"/>
<polygon fill="midnightblue" stroke="midnightblue" points="251.88,-128.38 241.35,-129.55 250.31,-135.2 251.88,-128.38"/>
</g>
<!-- Node7&#45;&gt;Node19 -->
<g id="edge27" class="edge">
<title>Node7&#45;&gt;Node19</title>
<path fill="none" stroke="midnightblue" d="M478.49,-170.32C522.77,-160.68 604.75,-142.83 654.38,-132.02"/>
<polygon fill="midnightblue" stroke="midnightblue" points="655.43,-135.38 664.46,-129.83 653.94,-128.54 655.43,-135.38"/>
</g>
<!-- Node11&#45;&gt;Node6 -->
<g id="edge19" class="edge">
<title>Node11&#45;&gt;Node6</title>
<path fill="none" stroke="midnightblue" d="M424.82,-118.79C356.29,-112.12 153.42,-91.8 68.11,-75.9"/>
<polygon fill="midnightblue" stroke="midnightblue" points="68.56,-72.42 58.07,-73.93 67.21,-79.29 68.56,-72.42"/>
</g>
<!-- Node11&#45;&gt;Node8 -->
<g id="edge15" class="edge">
<title>Node11&#45;&gt;Node8</title>
<path fill="none" stroke="midnightblue" d="M435.13,-112.32C422.93,-103.98 404.25,-91.21 389.82,-81.35"/>
<polygon fill="midnightblue" stroke="midnightblue" points="391.72,-78.41 381.49,-75.65 387.77,-84.19 391.72,-78.41"/>
</g>
<!-- Node11&#45;&gt;Node9 -->
<g id="edge17" class="edge">
<title>Node11&#45;&gt;Node9</title>
<path fill="none" stroke="midnightblue" d="M424.85,-112.44C399.96,-103.17 360.15,-88.35 332.81,-78.17"/>
<polygon fill="midnightblue" stroke="midnightblue" points="333.94,-74.85 323.35,-74.64 331.5,-81.41 333.94,-74.85"/>
</g>
<!-- Node12 -->
<g id="node12" class="node">
<title>Node12</title>
<g id="a_node12"><a xlink:title=" ">
<polygon fill="white" stroke="#bfbfbf" points="493.83,-56.5 493.83,-75.5 539.83,-75.5 539.83,-56.5 493.83,-56.5"/>
<text text-anchor="middle" x="516.83" y="-63.5" font-family="Helvetica,sans-Serif" font-size="10.00">chrono</text>
</a>
</g>
</g>
<!-- Node11&#45;&gt;Node12 -->
<g id="edge13" class="edge">
<title>Node11&#45;&gt;Node12</title>
<path fill="none" stroke="midnightblue" d="M458.91,-112.32C469.31,-104.18 485.09,-91.84 497.55,-82.09"/>
<polygon fill="midnightblue" stroke="midnightblue" points="499.82,-84.75 505.54,-75.83 495.51,-79.24 499.82,-84.75"/>
</g>
<!-- Node13 -->
<g id="node13" class="node">
<title>Node13</title>
<g id="a_node13"><a xlink:title=" ">
<polygon fill="white" stroke="#bfbfbf" points="649.83,-56.5 649.83,-75.5 693.83,-75.5 693.83,-56.5 649.83,-56.5"/>
<text text-anchor="middle" x="671.83" y="-63.5" font-family="Helvetica,sans-Serif" font-size="10.00">cmath</text>
</a>
</g>
</g>
<!-- Node11&#45;&gt;Node13 -->
<g id="edge14" class="edge">
<title>Node11&#45;&gt;Node13</title>
<path fill="none" stroke="midnightblue" d="M470.96,-115.42C511.19,-105.72 594.14,-85.73 639.85,-74.71"/>
<polygon fill="midnightblue" stroke="midnightblue" points="640.92,-78.05 649.82,-72.31 639.28,-71.25 640.92,-78.05"/>
</g>
<!-- Node14 -->
<g id="node14" class="node">
<title>Node14</title>
<g id="a_node14"><a xlink:title=" ">
<polygon fill="white" stroke="#bfbfbf" points="558.33,-56.5 558.33,-75.5 593.33,-75.5 593.33,-56.5 558.33,-56.5"/>
<text text-anchor="middle" x="575.83" y="-63.5" font-family="Helvetica,sans-Serif" font-size="10.00">ratio</text>
</a>
</g>
</g>
<!-- Node11&#45;&gt;Node14 -->
<g id="edge16" class="edge">
<title>Node11&#45;&gt;Node14</title>
<path fill="none" stroke="midnightblue" d="M468.11,-112.44C489.92,-103.24 524.7,-88.57 548.82,-78.4"/>
<polygon fill="midnightblue" stroke="midnightblue" points="550.26,-81.58 558.11,-74.47 547.54,-75.14 550.26,-81.58"/>
</g>
<!-- Node15 -->
<g id="node15" class="node">
<title>Node15</title>
<g id="a_node15"><a xlink:title=" ">
<polygon fill="white" stroke="#bfbfbf" points="413.83,-56.5 413.83,-75.5 475.83,-75.5 475.83,-56.5 413.83,-56.5"/>
<text text-anchor="middle" x="444.83" y="-63.5" font-family="Helvetica,sans-Serif" font-size="10.00">type_traits</text>
</a>
</g>
</g>
<!-- Node11&#45;&gt;Node15 -->
<g id="edge18" class="edge">
<title>Node11&#45;&gt;Node15</title>
<path fill="none" stroke="midnightblue" d="M447.33,-112.08C446.94,-105.01 446.38,-94.86 445.88,-85.99"/>
<polygon fill="midnightblue" stroke="midnightblue" points="449.36,-85.54 445.31,-75.75 442.37,-85.93 449.36,-85.54"/>
</g>
<!-- Node16&#45;&gt;Node3 -->
<g id="edge21" class="edge">
<title>Node16&#45;&gt;Node3</title>
<path fill="none" stroke="midnightblue" d="M219.8,-112.39C229.13,-99.77 243.55,-75.59 234.83,-56 229.26,-43.5 218.31,-33.01 208.08,-25.32"/>
<polygon fill="midnightblue" stroke="midnightblue" points="209.98,-22.38 199.78,-19.53 205.98,-28.12 209.98,-22.38"/>
</g>
<!-- Node16&#45;&gt;Node6 -->
<g id="edge24" class="edge">
<title>Node16&#45;&gt;Node6</title>
<path fill="none" stroke="midnightblue" d="M184.78,-112.44C152.89,-102.71 100.94,-86.86 67.58,-76.69"/>
<polygon fill="midnightblue" stroke="midnightblue" points="68.46,-73.3 57.87,-73.73 66.41,-79.99 68.46,-73.3"/>
</g>
<!-- Node16&#45;&gt;Node9 -->
<g id="edge23" class="edge">
<title>Node16&#45;&gt;Node9</title>
<path fill="none" stroke="midnightblue" d="M227.29,-112.32C241.33,-103.9 262.88,-90.97 279.37,-81.07"/>
<polygon fill="midnightblue" stroke="midnightblue" points="281.63,-83.8 288.4,-75.65 278.03,-77.8 281.63,-83.8"/>
</g>
<!-- Node17 -->
<g id="node17" class="node">
<title>Node17</title>
<g id="a_node17"><a xlink:title=" ">
<polygon fill="white" stroke="#bfbfbf" points="173.83,-56.5 173.83,-75.5 225.83,-75.5 225.83,-56.5 173.83,-56.5"/>
<text text-anchor="middle" x="199.83" y="-63.5" font-family="Helvetica,sans-Serif" font-size="10.00">ostream</text>
</a>
</g>
</g>
<!-- Node16&#45;&gt;Node17 -->
<g id="edge22" class="edge">
<title>Node16&#45;&gt;Node17</title>
<path fill="none" stroke="midnightblue" d="M210.68,-112.08C208.96,-104.93 206.48,-94.64 204.33,-85.69"/>
<polygon fill="midnightblue" stroke="midnightblue" points="207.68,-84.65 201.93,-75.75 200.87,-86.29 207.68,-84.65"/>
</g>
<!-- Node18 -->
<g id="node18" class="node">
<title>Node18</title>
<g id="a_node18"><a xlink:href="CircularArray_8h.html" target="_top" xlink:title=" ">
<polygon fill="white" stroke="black" points="75.83,-56.5 75.83,-75.5 155.83,-75.5 155.83,-56.5 75.83,-56.5"/>
<text text-anchor="middle" x="115.83" y="-63.5" font-family="Helvetica,sans-Serif" font-size="10.00">CircularArray.h</text>
</a>
</g>
</g>
<!-- Node16&#45;&gt;Node18 -->
<g id="edge25" class="edge">
<title>Node16&#45;&gt;Node18</title>
<path fill="none" stroke="midnightblue" d="M197.24,-112.32C181.83,-103.74 158.02,-90.49 140.12,-80.52"/>
<polygon fill="midnightblue" stroke="midnightblue" points="141.81,-77.46 131.37,-75.65 138.41,-83.58 141.81,-77.46"/>
</g>
<!-- Node18&#45;&gt;Node3 -->
<g id="edge26" class="edge">
<title>Node18&#45;&gt;Node3</title>
<path fill="none" stroke="midnightblue" d="M126.91,-56.32C137.31,-48.18 153.09,-35.84 165.55,-26.09"/>
<polygon fill="midnightblue" stroke="midnightblue" points="167.82,-28.75 173.54,-19.83 163.51,-23.24 167.82,-28.75"/>
</g>
<!-- Node19&#45;&gt;Node4 -->
<g id="edge28" class="edge">
<title>Node19&#45;&gt;Node4</title>
<path fill="none" stroke="midnightblue" d="M711.41,-112.32C726.83,-103.74 750.64,-90.49 768.54,-80.52"/>
<polygon fill="midnightblue" stroke="midnightblue" points="770.25,-83.58 777.28,-75.65 766.84,-77.46 770.25,-83.58"/>
</g>
<!-- Node19&#45;&gt;Node10 -->
<g id="edge31" class="edge">
<title>Node19&#45;&gt;Node10</title>
<path fill="none" stroke="midnightblue" d="M701.61,-112.08C706.5,-104.53 713.65,-93.49 719.66,-84.23"/>
<polygon fill="midnightblue" stroke="midnightblue" points="722.65,-86.05 725.16,-75.75 716.78,-82.24 722.65,-86.05"/>
</g>
<!-- Node19&#45;&gt;Node13 -->
<g id="edge29" class="edge">
<title>Node19&#45;&gt;Node13</title>
<path fill="none" stroke="midnightblue" d="M691.86,-112.08C688.61,-104.77 683.91,-94.18 679.87,-85.1"/>
<polygon fill="midnightblue" stroke="midnightblue" points="682.98,-83.47 675.72,-75.75 676.58,-86.31 682.98,-83.47"/>
</g>
<!-- Node19&#45;&gt;Node20 -->
<g id="edge30" class="edge">
<title>Node19&#45;&gt;Node20</title>
<path fill="none" stroke="midnightblue" d="M724.82,-112.44C758.71,-102.44 814.5,-85.98 848.82,-75.86"/>
<polygon fill="midnightblue" stroke="midnightblue" points="850.13,-79.12 858.73,-72.93 848.15,-72.4 850.13,-79.12"/>
</g>
<!-- Node22&#45;&gt;Node8 -->
<g id="edge38" class="edge">
<title>Node22&#45;&gt;Node8</title>
<path fill="none" stroke="midnightblue" d="M311.75,-112.32C322,-104.18 337.55,-91.84 349.83,-82.09"/>
<polygon fill="midnightblue" stroke="midnightblue" points="352.05,-84.79 357.7,-75.83 347.7,-79.31 352.05,-84.79"/>
</g>
<!-- Node22&#45;&gt;Node9 -->
<g id="edge39" class="edge">
<title>Node22&#45;&gt;Node9</title>
<path fill="none" stroke="midnightblue" d="M301.16,-112.08C301.42,-105.01 301.8,-94.86 302.12,-85.99"/>
<polygon fill="midnightblue" stroke="midnightblue" points="305.63,-85.87 302.5,-75.75 298.64,-85.61 305.63,-85.87"/>
</g>
</g>
</svg>
        <g id="navigator" transform="translate(0 0)" fill="#404254">
                <rect fill="#f2f5e9" fill-opacity="0.5" stroke="#606060" stroke-width=".5" x="0" y="0" width="60" height="60"/>
                <use id="zoomplus" xlink:href="#zoomPlus" x="17" y="9" onmousedown="handleZoom(evt,'in')"/>
                <use id="zoomminus" xlink:href="#zoomMin" x="42" y="9" onmousedown="handleZoom(evt,'out')"/>
                <use id="reset" xlink:href="#resetDef" x="30" y="36" onmousedown="handleReset()"/>
                <g id="arrowUp" xlink:href="#dirArrow" transform="translate(30 24)" onmousedown="handlePan(0,-1)">
                  <use xlink:href="#rim" fill="#404040">
                        <set attributeName="fill" to="#808080" begin="arrowUp.mouseover" end="arrowUp.mouseout"/>
                  </use>
                  <path fill="none" stroke="white" stroke-width="1.5" d="M0,-3.0v7 M-2.5,-0.5L0,-3.0L2.5,-0.5"/>
                </g>
                <g id="arrowRight" xlink:href="#dirArrow" transform="rotate(90) translate(36 -43)" onmousedown="handlePan(1,0)">
                  <use xlink:href="#rim" fill="#404040">
                        <set attributeName="fill" to="#808080" begin="arrowRight.mouseover" end="arrowRight.mouseout"/>
                  </use>
                  <path fill="none" stroke="white" stroke-width="1.5" d="M0,-3.0v7 M-2.5,-0.5L0,-3.0L2.5,-0.5"/>
                </g>
                <g id="arrowDown" xlink:href="#dirArrow" transform="rotate(180) translate(-30 -48)" onmousedown="handlePan(0,1)">
                  <use xlink:href="#rim" fill="#404040">
                        <set attributeName="fill" to="#808080" begin="arrowDown.mouseover" end="arrowDown.mouseout"/>
                  </use>
                  <path fill="none" stroke="white" stroke-width="1.5" d="M0,-3.0v7 M-2.5,-0.5L0,-3.0L2.5,-0.5"/>
                </g>
                <g id="arrowLeft" xlink:href="#dirArrow" transform="rotate(270) translate(-36 17)" onmousedown="handlePan(-1,0)">
                  <use xlink:href="#rim" fill="#404040">
                        <set attributeName="fill" to="#808080" begin="arrowLeft.mouseover" end="arrowLeft.mouseout"/>
                  </use>
                  <path fill="none" stroke="white" stroke-width="1.5" d="M0,-3.0v7 M-2.5,-0.5L0,-3.0L2.5,-0.5"/>
                </g>
        </g>
        <svg viewBox="0 0 15 15" width="100%" height="30px" preserveAspectRatio="xMaxYMin meet">
         <g id="arrow_out" transform="scale(0.3 0.3)">
          <a xlink:href="Vortex_8cpp__incl_org.svg" target="_base">
           <rect id="button" ry="5" rx="5" y="6" x="6" height="38" width="38"
                fill="#f2f5e9" fill-opacity="0.5" stroke="#606060" stroke-width="1.0"/>
           <path id="arrow"
             d="M 11.500037,31.436501 C 11.940474,20.09759 22.043105,11.32322 32.158766,21.979434 L 37.068811,17.246167 C 37.068811,17.246167 37.088388,32 37.088388,32 L 22.160133,31.978069 C 22.160133,31.978069 26.997745,27.140456 26.997745,27.140456 C 18.528582,18.264221 13.291696,25.230495 11.500037,31.436501 z"
             style="fill:#404040;"/>
          </a>
         </g>
        </svg>
</svg>
