<?xml version="1.0" encoding="UTF-8" standalone="no"?>
<!DOCTYPE svg PUBLIC "-//W3C//DTD SVG 1.1//EN"
 "http://www.w3.org/Graphics/SVG/1.1/DTD/svg11.dtd">
<!-- Generated by graphviz version 2.47.1 (20210417.1919)
 -->
<!-- Title: Vortex.cpp Pages: 1 -->
<svg width="491pt" height="140pt"
 viewBox="0.00 0.00 491.00 140.00" xmlns="http://www.w3.org/2000/svg" xmlns:xlink="http://www.w3.org/1999/xlink">
<g id="graph0" class="graph" transform="scale(1 1) rotate(0) translate(4 136)">
<title>Vortex.cpp</title>
<polygon fill="white" stroke="transparent" points="-4,4 -4,-136 487,-136 487,4 -4,4"/>
<!-- Node1 -->
<g id="node1" class="node">
<title>Node1</title>
<g id="a_node1"><a xlink:title=" ">
<polygon fill="#bfbfbf" stroke="black" points="181,-112.5 181,-131.5 245,-131.5 245,-112.5 181,-112.5"/>
<text text-anchor="middle" x="213" y="-119.5" font-family="Helvetica,sans-Serif" font-size="10.00">Vortex.cpp</text>
</a>
</g>
</g>
<!-- Node2 -->
<g id="node2" class="node">
<title>Node2</title>
<g id="a_node2"><a xlink:href="Vortex_8h.html" target="_top" xlink:title=" ">
<polygon fill="white" stroke="black" points="49.5,-56.5 49.5,-75.5 102.5,-75.5 102.5,-56.5 49.5,-56.5"/>
<text text-anchor="middle" x="76" y="-63.5" font-family="Helvetica,sans-Serif" font-size="10.00">Vortex.h</text>
</a>
</g>
</g>
<!-- Node1&#45;&gt;Node2 -->
<g id="edge1" class="edge">
<title>Node1&#45;&gt;Node2</title>
<path fill="none" stroke="midnightblue" d="M191.29,-112.44C168.65,-103.52 132.93,-89.44 107.25,-79.32"/>
<polygon fill="midnightblue" stroke="midnightblue" points="108.19,-75.93 97.61,-75.52 105.63,-82.44 108.19,-75.93"/>
</g>
<!-- Node6 -->
<g id="node6" class="node">
<title>Node6</title>
<g id="a_node6"><a xlink:title=" ">
<polygon fill="white" stroke="#bfbfbf" points="120.5,-56.5 120.5,-75.5 169.5,-75.5 169.5,-56.5 120.5,-56.5"/>
<text text-anchor="middle" x="145" y="-63.5" font-family="Helvetica,sans-Serif" font-size="10.00">cassert</text>
</a>
</g>
</g>
<!-- Node1&#45;&gt;Node6 -->
<g id="edge5" class="edge">
<title>Node1&#45;&gt;Node6</title>
<path fill="none" stroke="midnightblue" d="M202.07,-112.32C191.83,-104.18 176.28,-91.84 164,-82.09"/>
<polygon fill="midnightblue" stroke="midnightblue" points="166.13,-79.31 156.12,-75.83 161.78,-84.79 166.13,-79.31"/>
</g>
<!-- Node7 -->
<g id="node7" class="node">
<title>Node7</title>
<g id="a_node7"><a xlink:title=" ">
<polygon fill="white" stroke="#bfbfbf" points="187.5,-56.5 187.5,-75.5 238.5,-75.5 238.5,-56.5 187.5,-56.5"/>
<text text-anchor="middle" x="213" y="-63.5" font-family="Helvetica,sans-Serif" font-size="10.00">numeric</text>
</a>
</g>
</g>
<!-- Node1&#45;&gt;Node7 -->
<g id="edge6" class="edge">
<title>Node1&#45;&gt;Node7</title>
<path fill="none" stroke="midnightblue" d="M213,-112.08C213,-105.01 213,-94.86 213,-85.99"/>
<polygon fill="midnightblue" stroke="midnightblue" points="216.5,-85.75 213,-75.75 209.5,-85.75 216.5,-85.75"/>
</g>
<!-- Node8 -->
<g id="node8" class="node">
<title>Node8</title>
<g id="a_node8"><a xlink:href="Logging_8h.html" target="_top" xlink:title=" ">
<polygon fill="white" stroke="black" points="256.5,-56.5 256.5,-75.5 315.5,-75.5 315.5,-56.5 256.5,-56.5"/>
<text text-anchor="middle" x="286" y="-63.5" font-family="Helvetica,sans-Serif" font-size="10.00">Logging.h</text>
</a>
</g>
</g>
<!-- Node1&#45;&gt;Node8 -->
<g id="edge7" class="edge">
<title>Node1&#45;&gt;Node8</title>
<path fill="none" stroke="midnightblue" d="M224.73,-112.32C235.84,-104.11 252.74,-91.6 265.98,-81.81"/>
<polygon fill="midnightblue" stroke="midnightblue" points="268.1,-84.59 274.06,-75.83 263.94,-78.97 268.1,-84.59"/>
</g>
<!-- Node11 -->
<g id="node11" class="node">
<title>Node11</title>
<g id="a_node11"><a xlink:href="Physical_8h.html" target="_top" xlink:title=" ">
<polygon fill="white" stroke="black" points="355,-56.5 355,-75.5 417,-75.5 417,-56.5 355,-56.5"/>
<text text-anchor="middle" x="386" y="-63.5" font-family="Helvetica,sans-Serif" font-size="10.00">Physical.h</text>
</a>
</g>
</g>
<!-- Node1&#45;&gt;Node11 -->
<g id="edge10" class="edge">
<title>Node1&#45;&gt;Node11</title>
<path fill="none" stroke="midnightblue" d="M240.41,-112.44C269.77,-103.28 316.52,-88.69 349.1,-78.52"/>
<polygon fill="midnightblue" stroke="midnightblue" points="350.21,-81.84 358.72,-75.52 348.13,-75.16 350.21,-81.84"/>
</g>
<!-- Node3 -->
<g id="node3" class="node">
<title>Node3</title>
<g id="a_node3"><a xlink:title=" ">
<polygon fill="white" stroke="#bfbfbf" points="0,-0.5 0,-19.5 38,-19.5 38,-0.5 0,-0.5"/>
<text text-anchor="middle" x="19" y="-7.5" font-family="Helvetica,sans-Serif" font-size="10.00">array</text>
</a>
</g>
</g>
<!-- Node2&#45;&gt;Node3 -->
<g id="edge2" class="edge">
<title>Node2&#45;&gt;Node3</title>
<path fill="none" stroke="midnightblue" d="M66.84,-56.32C58.5,-48.42 45.97,-36.55 35.82,-26.94"/>
<polygon fill="midnightblue" stroke="midnightblue" points="37.99,-24.17 28.32,-19.83 33.18,-29.25 37.99,-24.17"/>
</g>
<!-- Node4 -->
<g id="node4" class="node">
<title>Node4</title>
<g id="a_node4"><a xlink:title=" ">
<polygon fill="white" stroke="#bfbfbf" points="56,-0.5 56,-19.5 96,-19.5 96,-0.5 56,-0.5"/>
<text text-anchor="middle" x="76" y="-7.5" font-family="Helvetica,sans-Serif" font-size="10.00">utility</text>
</a>
</g>
</g>
<!-- Node2&#45;&gt;Node4 -->
<g id="edge3" class="edge">
<title>Node2&#45;&gt;Node4</title>
<path fill="none" stroke="midnightblue" d="M76,-56.08C76,-49.01 76,-38.86 76,-29.99"/>
<polygon fill="midnightblue" stroke="midnightblue" points="79.5,-29.75 76,-19.75 72.5,-29.75 79.5,-29.75"/>
</g>
<!-- Node5 -->
<g id="node5" class="node">
<title>Node5</title>
<g id="a_node5"><a xlink:title=" ">
<polygon fill="white" stroke="#bfbfbf" points="114,-0.5 114,-19.5 158,-19.5 158,-0.5 114,-0.5"/>
<text text-anchor="middle" x="136" y="-7.5" font-family="Helvetica,sans-Serif" font-size="10.00">vector</text>
</a>
</g>
</g>
<!-- Node2&#45;&gt;Node5 -->
<g id="edge4" class="edge">
<title>Node2&#45;&gt;Node5</title>
<path fill="none" stroke="midnightblue" d="M85.64,-56.32C94.51,-48.34 107.87,-36.31 118.61,-26.65"/>
<polygon fill="midnightblue" stroke="midnightblue" points="121.09,-29.13 126.18,-19.83 116.41,-23.92 121.09,-29.13"/>
</g>
<!-- Node9 -->
<g id="node9" class="node">
<title>Node9</title>
<g id="a_node9"><a xlink:title=" ">
<polygon fill="white" stroke="#bfbfbf" points="193,-0.5 193,-19.5 247,-19.5 247,-0.5 193,-0.5"/>
<text text-anchor="middle" x="220" y="-7.5" font-family="Helvetica,sans-Serif" font-size="10.00">iostream</text>
</a>
</g>
</g>
<!-- Node8&#45;&gt;Node9 -->
<g id="edge8" class="edge">
<title>Node8&#45;&gt;Node9</title>
<path fill="none" stroke="midnightblue" d="M275.4,-56.32C265.54,-48.26 250.65,-36.08 238.78,-26.37"/>
<polygon fill="midnightblue" stroke="midnightblue" points="240.75,-23.46 230.8,-19.83 236.32,-28.88 240.75,-23.46"/>
</g>
<!-- Node10 -->
<g id="node10" class="node">
<title>Node10</title>
<g id="a_node10"><a xlink:title=" ">
<polygon fill="white" stroke="#bfbfbf" points="265.5,-0.5 265.5,-19.5 306.5,-19.5 306.5,-0.5 265.5,-0.5"/>
<text text-anchor="middle" x="286" y="-7.5" font-family="Helvetica,sans-Serif" font-size="10.00">string</text>
</a>
</g>
</g>
<!-- Node8&#45;&gt;Node10 -->
<g id="edge9" class="edge">
<title>Node8&#45;&gt;Node10</title>
<path fill="none" stroke="midnightblue" d="M286,-56.08C286,-49.01 286,-38.86 286,-29.99"/>
<polygon fill="midnightblue" stroke="midnightblue" points="289.5,-29.75 286,-19.75 282.5,-29.75 289.5,-29.75"/>
</g>
<!-- Node12 -->
<g id="node12" class="node">
<title>Node12</title>
<g id="a_node12"><a xlink:title=" ">
<polygon fill="white" stroke="#bfbfbf" points="325,-0.5 325,-19.5 369,-19.5 369,-0.5 325,-0.5"/>
<text text-anchor="middle" x="347" y="-7.5" font-family="Helvetica,sans-Serif" font-size="10.00">cmath</text>
</a>
</g>
</g>
<!-- Node11&#45;&gt;Node12 -->
<g id="edge11" class="edge">
<title>Node11&#45;&gt;Node12</title>
<path fill="none" stroke="midnightblue" d="M379.56,-56.08C374.05,-48.46 365.97,-37.26 359.24,-27.94"/>
<polygon fill="midnightblue" stroke="midnightblue" points="362.01,-25.81 353.32,-19.75 356.34,-29.91 362.01,-25.81"/>
</g>
<!-- Node13 -->
<g id="node13" class="node">
<title>Node13</title>
<g id="a_node13"><a xlink:title=" ">
<polygon fill="white" stroke="#bfbfbf" points="387,-0.5 387,-19.5 427,-19.5 427,-0.5 387,-0.5"/>
<text text-anchor="middle" x="407" y="-7.5" font-family="Helvetica,sans-Serif" font-size="10.00">limits</text>
</a>
</g>
</g>
<!-- Node11&#45;&gt;Node13 -->
<g id="edge12" class="edge">
<title>Node11&#45;&gt;Node13</title>
<path fill="none" stroke="midnightblue" d="M389.47,-56.08C392.31,-48.77 396.43,-38.18 399.96,-29.1"/>
<polygon fill="midnightblue" stroke="midnightblue" points="403.23,-30.34 403.6,-19.75 396.71,-27.8 403.23,-30.34"/>
</g>
<!-- Node14 -->
<g id="node14" class="node">
<title>Node14</title>
<g id="a_node14"><a xlink:title=" ">
<polygon fill="white" stroke="#bfbfbf" points="445,-0.5 445,-19.5 483,-19.5 483,-0.5 445,-0.5"/>
<text text-anchor="middle" x="464" y="-7.5" font-family="Helvetica,sans-Serif" font-size="10.00">tuple</text>
</a>
</g>
</g>
<!-- Node11&#45;&gt;Node14 -->
<g id="edge13" class="edge">
<title>Node11&#45;&gt;Node14</title>
<path fill="none" stroke="midnightblue" d="M398.53,-56.32C410.59,-47.98 429.03,-35.21 443.27,-25.35"/>
<polygon fill="midnightblue" stroke="midnightblue" points="445.27,-28.22 451.5,-19.65 441.28,-22.47 445.27,-28.22"/>
</g>
</g>
</svg>
